<?xml version="1.0" encoding="UTF-8" standalone="yes" ?>
<!DOCTYPE xmeml>
<xmeml version="4">

  <project>
    <name>Scene - Puppet man_0003</name>
    <children>
      <sequence MZ.Sequence.EditingModeGUID="35d109db-457b-43c1-9452-9cb7be9f121c" explodedTracks="true" id="sequence-1">
        <uuid>1a1b578d-110d-4a3e-b12e-23140db280db</uuid>
        <duration>720</duration>
        <rate>
          <timebase>24</timebase>
          <ntsc>FALSE</ntsc>
        </rate>
        <name>Scene - Puppet man_0003</name>
        <media>
          <video>
            <track>
              <clipitem frameBlend="FALSE" id="clipitem-723">
                <name>Scene - Puppet man_0003.000.png</name>
                <masterclipid>masterclip-2</masterclipid>
                <rate>
                  <timebase>24</timebase>
                  <ntsc>FALSE</ntsc>
                </rate>
                <duration>1</duration>
                <enabled>TRUE</enabled>
                <alphatype>straight</alphatype>
                <rate>
                  <timebase>24</timebase>
                  <ntsc>FALSE</ntsc>
                </rate>
                <enabled>TRUE</enabled>
                <start>0</start>
                <end>1</end>
                <file id="file-2"/>
              </clipitem>
              <clipitem frameBlend="FALSE" id="clipitem-724">
                <name>Scene - Puppet man_0003.001.png</name>
                <masterclipid>masterclip-3</masterclipid>
                <rate>
                  <timebase>24</timebase>
                  <ntsc>FALSE</ntsc>
                </rate>
                <duration>1</duration>
                <enabled>TRUE</enabled>
                <alphatype>straight</alphatype>
                <rate>
                  <timebase>24</timebase>
                  <ntsc>FALSE</ntsc>
                </rate>
                <enabled>TRUE</enabled>
                <start>1</start>
                <end>2</end>
                <file id="file-3"/>
              </clipitem>
              <clipitem frameBlend="FALSE" id="clipitem-725">
                <name>Scene - Puppet man_0003.002.png</name>
                <masterclipid>masterclip-4</masterclipid>
                <rate>
                  <timebase>24</timebase>
                  <ntsc>FALSE</ntsc>
                </rate>
                <duration>1</duration>
                <enabled>TRUE</enabled>
                <alphatype>straight</alphatype>
                <rate>
                  <timebase>24</timebase>
                  <ntsc>FALSE</ntsc>
                </rate>
                <enabled>TRUE</enabled>
                <start>2</start>
                <end>3</end>
                <file id="file-4"/>
              </clipitem>
              <clipitem frameBlend="FALSE" id="clipitem-726">
                <name>Scene - Puppet man_0003.003.png</name>
                <masterclipid>masterclip-5</masterclipid>
                <rate>
                  <timebase>24</timebase>
                  <ntsc>FALSE</ntsc>
                </rate>
                <duration>1</duration>
                <enabled>TRUE</enabled>
                <alphatype>straight</alphatype>
                <rate>
                  <timebase>24</timebase>
                  <ntsc>FALSE</ntsc>
                </rate>
                <enabled>TRUE</enabled>
                <start>3</start>
                <end>4</end>
                <file id="file-5"/>
              </clipitem>
              <clipitem frameBlend="FALSE" id="clipitem-727">
                <name>Scene - Puppet man_0003.004.png</name>
                <masterclipid>masterclip-6</masterclipid>
                <rate>
                  <timebase>24</timebase>
                  <ntsc>FALSE</ntsc>
                </rate>
                <duration>1</duration>
                <enabled>TRUE</enabled>
                <alphatype>straight</alphatype>
                <rate>
                  <timebase>24</timebase>
                  <ntsc>FALSE</ntsc>
                </rate>
                <enabled>TRUE</enabled>
                <start>4</start>
                <end>5</end>
                <file id="file-6"/>
              </clipitem>
              <clipitem frameBlend="FALSE" id="clipitem-728">
                <name>Scene - Puppet man_0003.005.png</name>
                <masterclipid>masterclip-7</masterclipid>
                <rate>
                  <timebase>24</timebase>
                  <ntsc>FALSE</ntsc>
                </rate>
                <duration>1</duration>
                <enabled>TRUE</enabled>
                <alphatype>straight</alphatype>
                <rate>
                  <timebase>24</timebase>
                  <ntsc>FALSE</ntsc>
                </rate>
                <enabled>TRUE</enabled>
                <start>5</start>
                <end>6</end>
                <file id="file-7"/>
              </clipitem>
              <clipitem frameBlend="FALSE" id="clipitem-729">
                <name>Scene - Puppet man_0003.006.png</name>
                <masterclipid>masterclip-8</masterclipid>
                <rate>
                  <timebase>24</timebase>
                  <ntsc>FALSE</ntsc>
                </rate>
                <duration>1</duration>
                <enabled>TRUE</enabled>
                <alphatype>straight</alphatype>
                <rate>
                  <timebase>24</timebase>
                  <ntsc>FALSE</ntsc>
                </rate>
                <enabled>TRUE</enabled>
                <start>6</start>
                <end>7</end>
                <file id="file-8"/>
              </clipitem>
              <clipitem frameBlend="FALSE" id="clipitem-730">
                <name>Scene - Puppet man_0003.007.png</name>
                <masterclipid>masterclip-9</masterclipid>
                <rate>
                  <timebase>24</timebase>
                  <ntsc>FALSE</ntsc>
                </rate>
                <duration>1</duration>
                <enabled>TRUE</enabled>
                <alphatype>straight</alphatype>
                <rate>
                  <timebase>24</timebase>
                  <ntsc>FALSE</ntsc>
                </rate>
                <enabled>TRUE</enabled>
                <start>7</start>
                <end>8</end>
                <file id="file-9"/>
              </clipitem>
              <clipitem frameBlend="FALSE" id="clipitem-731">
                <name>Scene - Puppet man_0003.008.png</name>
                <masterclipid>masterclip-10</masterclipid>
                <rate>
                  <timebase>24</timebase>
                  <ntsc>FALSE</ntsc>
                </rate>
                <duration>1</duration>
                <enabled>TRUE</enabled>
                <alphatype>straight</alphatype>
                <rate>
                  <timebase>24</timebase>
                  <ntsc>FALSE</ntsc>
                </rate>
                <enabled>TRUE</enabled>
                <start>8</start>
                <end>9</end>
                <file id="file-10"/>
              </clipitem>
              <clipitem frameBlend="FALSE" id="clipitem-732">
                <name>Scene - Puppet man_0003.009.png</name>
                <masterclipid>masterclip-11</masterclipid>
                <rate>
                  <timebase>24</timebase>
                  <ntsc>FALSE</ntsc>
                </rate>
                <duration>1</duration>
                <enabled>TRUE</enabled>
                <alphatype>straight</alphatype>
                <rate>
                  <timebase>24</timebase>
                  <ntsc>FALSE</ntsc>
                </rate>
                <enabled>TRUE</enabled>
                <start>9</start>
                <end>10</end>
                <file id="file-11"/>
              </clipitem>
              <clipitem frameBlend="FALSE" id="clipitem-733">
                <name>Scene - Puppet man_0003.010.png</name>
                <masterclipid>masterclip-12</masterclipid>
                <rate>
                  <timebase>24</timebase>
                  <ntsc>FALSE</ntsc>
                </rate>
                <duration>1</duration>
                <enabled>TRUE</enabled>
                <alphatype>straight</alphatype>
                <rate>
                  <timebase>24</timebase>
                  <ntsc>FALSE</ntsc>
                </rate>
                <enabled>TRUE</enabled>
                <start>10</start>
                <end>11</end>
                <file id="file-12"/>
              </clipitem>
              <clipitem frameBlend="FALSE" id="clipitem-734">
                <name>Scene - Puppet man_0003.011.png</name>
                <masterclipid>masterclip-13</masterclipid>
                <rate>
                  <timebase>24</timebase>
                  <ntsc>FALSE</ntsc>
                </rate>
                <duration>1</duration>
                <enabled>TRUE</enabled>
                <alphatype>straight</alphatype>
                <rate>
                  <timebase>24</timebase>
                  <ntsc>FALSE</ntsc>
                </rate>
                <enabled>TRUE</enabled>
                <start>11</start>
                <end>12</end>
                <file id="file-13"/>
              </clipitem>
              <clipitem frameBlend="FALSE" id="clipitem-735">
                <name>Scene - Puppet man_0003.012.png</name>
                <masterclipid>masterclip-14</masterclipid>
                <rate>
                  <timebase>24</timebase>
                  <ntsc>FALSE</ntsc>
                </rate>
                <duration>1</duration>
                <enabled>TRUE</enabled>
                <alphatype>straight</alphatype>
                <rate>
                  <timebase>24</timebase>
                  <ntsc>FALSE</ntsc>
                </rate>
                <enabled>TRUE</enabled>
                <start>12</start>
                <end>13</end>
                <file id="file-14"/>
              </clipitem>
              <clipitem frameBlend="FALSE" id="clipitem-736">
                <name>Scene - Puppet man_0003.013.png</name>
                <masterclipid>masterclip-15</masterclipid>
                <rate>
                  <timebase>24</timebase>
                  <ntsc>FALSE</ntsc>
                </rate>
                <duration>1</duration>
                <enabled>TRUE</enabled>
                <alphatype>straight</alphatype>
                <rate>
                  <timebase>24</timebase>
                  <ntsc>FALSE</ntsc>
                </rate>
                <enabled>TRUE</enabled>
                <start>13</start>
                <end>14</end>
                <file id="file-15"/>
              </clipitem>
              <clipitem frameBlend="FALSE" id="clipitem-737">
                <name>Scene - Puppet man_0003.014.png</name>
                <masterclipid>masterclip-16</masterclipid>
                <rate>
                  <timebase>24</timebase>
                  <ntsc>FALSE</ntsc>
                </rate>
                <duration>1</duration>
                <enabled>TRUE</enabled>
                <alphatype>straight</alphatype>
                <rate>
                  <timebase>24</timebase>
                  <ntsc>FALSE</ntsc>
                </rate>
                <enabled>TRUE</enabled>
                <start>14</start>
                <end>15</end>
                <file id="file-16"/>
              </clipitem>
              <clipitem frameBlend="FALSE" id="clipitem-738">
                <name>Scene - Puppet man_0003.015.png</name>
                <masterclipid>masterclip-17</masterclipid>
                <rate>
                  <timebase>24</timebase>
                  <ntsc>FALSE</ntsc>
                </rate>
                <duration>1</duration>
                <enabled>TRUE</enabled>
                <alphatype>straight</alphatype>
                <rate>
                  <timebase>24</timebase>
                  <ntsc>FALSE</ntsc>
                </rate>
                <enabled>TRUE</enabled>
                <start>15</start>
                <end>16</end>
                <file id="file-17"/>
              </clipitem>
              <clipitem frameBlend="FALSE" id="clipitem-739">
                <name>Scene - Puppet man_0003.016.png</name>
                <masterclipid>masterclip-18</masterclipid>
                <rate>
                  <timebase>24</timebase>
                  <ntsc>FALSE</ntsc>
                </rate>
                <duration>1</duration>
                <enabled>TRUE</enabled>
                <alphatype>straight</alphatype>
                <rate>
                  <timebase>24</timebase>
                  <ntsc>FALSE</ntsc>
                </rate>
                <enabled>TRUE</enabled>
                <start>16</start>
                <end>17</end>
                <file id="file-18"/>
              </clipitem>
              <clipitem frameBlend="FALSE" id="clipitem-740">
                <name>Scene - Puppet man_0003.017.png</name>
                <masterclipid>masterclip-19</masterclipid>
                <rate>
                  <timebase>24</timebase>
                  <ntsc>FALSE</ntsc>
                </rate>
                <duration>1</duration>
                <enabled>TRUE</enabled>
                <alphatype>straight</alphatype>
                <rate>
                  <timebase>24</timebase>
                  <ntsc>FALSE</ntsc>
                </rate>
                <enabled>TRUE</enabled>
                <start>17</start>
                <end>18</end>
                <file id="file-19"/>
              </clipitem>
              <clipitem frameBlend="FALSE" id="clipitem-741">
                <name>Scene - Puppet man_0003.018.png</name>
                <masterclipid>masterclip-20</masterclipid>
                <rate>
                  <timebase>24</timebase>
                  <ntsc>FALSE</ntsc>
                </rate>
                <duration>1</duration>
                <enabled>TRUE</enabled>
                <alphatype>straight</alphatype>
                <rate>
                  <timebase>24</timebase>
                  <ntsc>FALSE</ntsc>
                </rate>
                <enabled>TRUE</enabled>
                <start>18</start>
                <end>19</end>
                <file id="file-20"/>
              </clipitem>
              <clipitem frameBlend="FALSE" id="clipitem-742">
                <name>Scene - Puppet man_0003.019.png</name>
                <masterclipid>masterclip-21</masterclipid>
                <rate>
                  <timebase>24</timebase>
                  <ntsc>FALSE</ntsc>
                </rate>
                <duration>1</duration>
                <enabled>TRUE</enabled>
                <alphatype>straight</alphatype>
                <rate>
                  <timebase>24</timebase>
                  <ntsc>FALSE</ntsc>
                </rate>
                <enabled>TRUE</enabled>
                <start>19</start>
                <end>20</end>
                <file id="file-21"/>
              </clipitem>
              <clipitem frameBlend="FALSE" id="clipitem-743">
                <name>Scene - Puppet man_0003.020.png</name>
                <masterclipid>masterclip-22</masterclipid>
                <rate>
                  <timebase>24</timebase>
                  <ntsc>FALSE</ntsc>
                </rate>
                <duration>1</duration>
                <enabled>TRUE</enabled>
                <alphatype>straight</alphatype>
                <rate>
                  <timebase>24</timebase>
                  <ntsc>FALSE</ntsc>
                </rate>
                <enabled>TRUE</enabled>
                <start>20</start>
                <end>21</end>
                <file id="file-22"/>
              </clipitem>
              <clipitem frameBlend="FALSE" id="clipitem-744">
                <name>Scene - Puppet man_0003.021.png</name>
                <masterclipid>masterclip-23</masterclipid>
                <rate>
                  <timebase>24</timebase>
                  <ntsc>FALSE</ntsc>
                </rate>
                <duration>1</duration>
                <enabled>TRUE</enabled>
                <alphatype>straight</alphatype>
                <rate>
                  <timebase>24</timebase>
                  <ntsc>FALSE</ntsc>
                </rate>
                <enabled>TRUE</enabled>
                <start>21</start>
                <end>22</end>
                <file id="file-23"/>
              </clipitem>
              <clipitem frameBlend="FALSE" id="clipitem-745">
                <name>Scene - Puppet man_0003.022.png</name>
                <masterclipid>masterclip-24</masterclipid>
                <rate>
                  <timebase>24</timebase>
                  <ntsc>FALSE</ntsc>
                </rate>
                <duration>1</duration>
                <enabled>TRUE</enabled>
                <alphatype>straight</alphatype>
                <rate>
                  <timebase>24</timebase>
                  <ntsc>FALSE</ntsc>
                </rate>
                <enabled>TRUE</enabled>
                <start>22</start>
                <end>23</end>
                <file id="file-24"/>
              </clipitem>
              <clipitem frameBlend="FALSE" id="clipitem-746">
                <name>Scene - Puppet man_0003.023.png</name>
                <masterclipid>masterclip-25</masterclipid>
                <rate>
                  <timebase>24</timebase>
                  <ntsc>FALSE</ntsc>
                </rate>
                <duration>1</duration>
                <enabled>TRUE</enabled>
                <alphatype>straight</alphatype>
                <rate>
                  <timebase>24</timebase>
                  <ntsc>FALSE</ntsc>
                </rate>
                <enabled>TRUE</enabled>
                <start>23</start>
                <end>24</end>
                <file id="file-25"/>
              </clipitem>
              <clipitem frameBlend="FALSE" id="clipitem-747">
                <name>Scene - Puppet man_0003.024.png</name>
                <masterclipid>masterclip-26</masterclipid>
                <rate>
                  <timebase>24</timebase>
                  <ntsc>FALSE</ntsc>
                </rate>
                <duration>1</duration>
                <enabled>TRUE</enabled>
                <alphatype>straight</alphatype>
                <rate>
                  <timebase>24</timebase>
                  <ntsc>FALSE</ntsc>
                </rate>
                <enabled>TRUE</enabled>
                <start>24</start>
                <end>25</end>
                <file id="file-26"/>
              </clipitem>
              <clipitem frameBlend="FALSE" id="clipitem-748">
                <name>Scene - Puppet man_0003.025.png</name>
                <masterclipid>masterclip-27</masterclipid>
                <rate>
                  <timebase>24</timebase>
                  <ntsc>FALSE</ntsc>
                </rate>
                <duration>1</duration>
                <enabled>TRUE</enabled>
                <alphatype>straight</alphatype>
                <rate>
                  <timebase>24</timebase>
                  <ntsc>FALSE</ntsc>
                </rate>
                <enabled>TRUE</enabled>
                <start>25</start>
                <end>26</end>
                <file id="file-27"/>
              </clipitem>
              <clipitem frameBlend="FALSE" id="clipitem-749">
                <name>Scene - Puppet man_0003.026.png</name>
                <masterclipid>masterclip-28</masterclipid>
                <rate>
                  <timebase>24</timebase>
                  <ntsc>FALSE</ntsc>
                </rate>
                <duration>1</duration>
                <enabled>TRUE</enabled>
                <alphatype>straight</alphatype>
                <rate>
                  <timebase>24</timebase>
                  <ntsc>FALSE</ntsc>
                </rate>
                <enabled>TRUE</enabled>
                <start>26</start>
                <end>27</end>
                <file id="file-28"/>
              </clipitem>
              <clipitem frameBlend="FALSE" id="clipitem-750">
                <name>Scene - Puppet man_0003.027.png</name>
                <masterclipid>masterclip-29</masterclipid>
                <rate>
                  <timebase>24</timebase>
                  <ntsc>FALSE</ntsc>
                </rate>
                <duration>1</duration>
                <enabled>TRUE</enabled>
                <alphatype>straight</alphatype>
                <rate>
                  <timebase>24</timebase>
                  <ntsc>FALSE</ntsc>
                </rate>
                <enabled>TRUE</enabled>
                <start>27</start>
                <end>28</end>
                <file id="file-29"/>
              </clipitem>
              <clipitem frameBlend="FALSE" id="clipitem-751">
                <name>Scene - Puppet man_0003.028.png</name>
                <masterclipid>masterclip-30</masterclipid>
                <rate>
                  <timebase>24</timebase>
                  <ntsc>FALSE</ntsc>
                </rate>
                <duration>1</duration>
                <enabled>TRUE</enabled>
                <alphatype>straight</alphatype>
                <rate>
                  <timebase>24</timebase>
                  <ntsc>FALSE</ntsc>
                </rate>
                <enabled>TRUE</enabled>
                <start>28</start>
                <end>29</end>
                <file id="file-30"/>
              </clipitem>
              <clipitem frameBlend="FALSE" id="clipitem-752">
                <name>Scene - Puppet man_0003.029.png</name>
                <masterclipid>masterclip-31</masterclipid>
                <rate>
                  <timebase>24</timebase>
                  <ntsc>FALSE</ntsc>
                </rate>
                <duration>1</duration>
                <enabled>TRUE</enabled>
                <alphatype>straight</alphatype>
                <rate>
                  <timebase>24</timebase>
                  <ntsc>FALSE</ntsc>
                </rate>
                <enabled>TRUE</enabled>
                <start>29</start>
                <end>30</end>
                <file id="file-31"/>
              </clipitem>
              <clipitem frameBlend="FALSE" id="clipitem-753">
                <name>Scene - Puppet man_0003.030.png</name>
                <masterclipid>masterclip-32</masterclipid>
                <rate>
                  <timebase>24</timebase>
                  <ntsc>FALSE</ntsc>
                </rate>
                <duration>1</duration>
                <enabled>TRUE</enabled>
                <alphatype>straight</alphatype>
                <rate>
                  <timebase>24</timebase>
                  <ntsc>FALSE</ntsc>
                </rate>
                <enabled>TRUE</enabled>
                <start>30</start>
                <end>31</end>
                <file id="file-32"/>
              </clipitem>
              <clipitem frameBlend="FALSE" id="clipitem-754">
                <name>Scene - Puppet man_0003.031.png</name>
                <masterclipid>masterclip-33</masterclipid>
                <rate>
                  <timebase>24</timebase>
                  <ntsc>FALSE</ntsc>
                </rate>
                <duration>1</duration>
                <enabled>TRUE</enabled>
                <alphatype>straight</alphatype>
                <rate>
                  <timebase>24</timebase>
                  <ntsc>FALSE</ntsc>
                </rate>
                <enabled>TRUE</enabled>
                <start>31</start>
                <end>32</end>
                <file id="file-33"/>
              </clipitem>
              <clipitem frameBlend="FALSE" id="clipitem-755">
                <name>Scene - Puppet man_0003.032.png</name>
                <masterclipid>masterclip-34</masterclipid>
                <rate>
                  <timebase>24</timebase>
                  <ntsc>FALSE</ntsc>
                </rate>
                <duration>1</duration>
                <enabled>TRUE</enabled>
                <alphatype>straight</alphatype>
                <rate>
                  <timebase>24</timebase>
                  <ntsc>FALSE</ntsc>
                </rate>
                <enabled>TRUE</enabled>
                <start>32</start>
                <end>33</end>
                <file id="file-34"/>
              </clipitem>
              <clipitem frameBlend="FALSE" id="clipitem-756">
                <name>Scene - Puppet man_0003.033.png</name>
                <masterclipid>masterclip-35</masterclipid>
                <rate>
                  <timebase>24</timebase>
                  <ntsc>FALSE</ntsc>
                </rate>
                <duration>1</duration>
                <enabled>TRUE</enabled>
                <alphatype>straight</alphatype>
                <rate>
                  <timebase>24</timebase>
                  <ntsc>FALSE</ntsc>
                </rate>
                <enabled>TRUE</enabled>
                <start>33</start>
                <end>34</end>
                <file id="file-35"/>
              </clipitem>
              <clipitem frameBlend="FALSE" id="clipitem-757">
                <name>Scene - Puppet man_0003.034.png</name>
                <masterclipid>masterclip-36</masterclipid>
                <rate>
                  <timebase>24</timebase>
                  <ntsc>FALSE</ntsc>
                </rate>
                <duration>1</duration>
                <enabled>TRUE</enabled>
                <alphatype>straight</alphatype>
                <rate>
                  <timebase>24</timebase>
                  <ntsc>FALSE</ntsc>
                </rate>
                <enabled>TRUE</enabled>
                <start>34</start>
                <end>35</end>
                <file id="file-36"/>
              </clipitem>
              <clipitem frameBlend="FALSE" id="clipitem-758">
                <name>Scene - Puppet man_0003.035.png</name>
                <masterclipid>masterclip-37</masterclipid>
                <rate>
                  <timebase>24</timebase>
                  <ntsc>FALSE</ntsc>
                </rate>
                <duration>1</duration>
                <enabled>TRUE</enabled>
                <alphatype>straight</alphatype>
                <rate>
                  <timebase>24</timebase>
                  <ntsc>FALSE</ntsc>
                </rate>
                <enabled>TRUE</enabled>
                <start>35</start>
                <end>36</end>
                <file id="file-37"/>
              </clipitem>
              <clipitem frameBlend="FALSE" id="clipitem-759">
                <name>Scene - Puppet man_0003.036.png</name>
                <masterclipid>masterclip-38</masterclipid>
                <rate>
                  <timebase>24</timebase>
                  <ntsc>FALSE</ntsc>
                </rate>
                <duration>1</duration>
                <enabled>TRUE</enabled>
                <alphatype>straight</alphatype>
                <rate>
                  <timebase>24</timebase>
                  <ntsc>FALSE</ntsc>
                </rate>
                <enabled>TRUE</enabled>
                <start>36</start>
                <end>37</end>
                <file id="file-38"/>
              </clipitem>
              <clipitem frameBlend="FALSE" id="clipitem-760">
                <name>Scene - Puppet man_0003.037.png</name>
                <masterclipid>masterclip-39</masterclipid>
                <rate>
                  <timebase>24</timebase>
                  <ntsc>FALSE</ntsc>
                </rate>
                <duration>1</duration>
                <enabled>TRUE</enabled>
                <alphatype>straight</alphatype>
                <rate>
                  <timebase>24</timebase>
                  <ntsc>FALSE</ntsc>
                </rate>
                <enabled>TRUE</enabled>
                <start>37</start>
                <end>38</end>
                <file id="file-39"/>
              </clipitem>
              <clipitem frameBlend="FALSE" id="clipitem-761">
                <name>Scene - Puppet man_0003.038.png</name>
                <masterclipid>masterclip-40</masterclipid>
                <rate>
                  <timebase>24</timebase>
                  <ntsc>FALSE</ntsc>
                </rate>
                <duration>1</duration>
                <enabled>TRUE</enabled>
                <alphatype>straight</alphatype>
                <rate>
                  <timebase>24</timebase>
                  <ntsc>FALSE</ntsc>
                </rate>
                <enabled>TRUE</enabled>
                <start>38</start>
                <end>39</end>
                <file id="file-40"/>
              </clipitem>
              <clipitem frameBlend="FALSE" id="clipitem-762">
                <name>Scene - Puppet man_0003.039.png</name>
                <masterclipid>masterclip-41</masterclipid>
                <rate>
                  <timebase>24</timebase>
                  <ntsc>FALSE</ntsc>
                </rate>
                <duration>1</duration>
                <enabled>TRUE</enabled>
                <alphatype>straight</alphatype>
                <rate>
                  <timebase>24</timebase>
                  <ntsc>FALSE</ntsc>
                </rate>
                <enabled>TRUE</enabled>
                <start>39</start>
                <end>40</end>
                <file id="file-41"/>
              </clipitem>
              <clipitem frameBlend="FALSE" id="clipitem-763">
                <name>Scene - Puppet man_0003.040.png</name>
                <masterclipid>masterclip-42</masterclipid>
                <rate>
                  <timebase>24</timebase>
                  <ntsc>FALSE</ntsc>
                </rate>
                <duration>1</duration>
                <enabled>TRUE</enabled>
                <alphatype>straight</alphatype>
                <rate>
                  <timebase>24</timebase>
                  <ntsc>FALSE</ntsc>
                </rate>
                <enabled>TRUE</enabled>
                <start>40</start>
                <end>41</end>
                <file id="file-42"/>
              </clipitem>
              <clipitem frameBlend="FALSE" id="clipitem-764">
                <name>Scene - Puppet man_0003.041.png</name>
                <masterclipid>masterclip-43</masterclipid>
                <rate>
                  <timebase>24</timebase>
                  <ntsc>FALSE</ntsc>
                </rate>
                <duration>1</duration>
                <enabled>TRUE</enabled>
                <alphatype>straight</alphatype>
                <rate>
                  <timebase>24</timebase>
                  <ntsc>FALSE</ntsc>
                </rate>
                <enabled>TRUE</enabled>
                <start>41</start>
                <end>42</end>
                <file id="file-43"/>
              </clipitem>
              <clipitem frameBlend="FALSE" id="clipitem-765">
                <name>Scene - Puppet man_0003.042.png</name>
                <masterclipid>masterclip-44</masterclipid>
                <rate>
                  <timebase>24</timebase>
                  <ntsc>FALSE</ntsc>
                </rate>
                <duration>1</duration>
                <enabled>TRUE</enabled>
                <alphatype>straight</alphatype>
                <rate>
                  <timebase>24</timebase>
                  <ntsc>FALSE</ntsc>
                </rate>
                <enabled>TRUE</enabled>
                <start>42</start>
                <end>43</end>
                <file id="file-44"/>
              </clipitem>
              <clipitem frameBlend="FALSE" id="clipitem-766">
                <name>Scene - Puppet man_0003.043.png</name>
                <masterclipid>masterclip-45</masterclipid>
                <rate>
                  <timebase>24</timebase>
                  <ntsc>FALSE</ntsc>
                </rate>
                <duration>1</duration>
                <enabled>TRUE</enabled>
                <alphatype>straight</alphatype>
                <rate>
                  <timebase>24</timebase>
                  <ntsc>FALSE</ntsc>
                </rate>
                <enabled>TRUE</enabled>
                <start>43</start>
                <end>44</end>
                <file id="file-45"/>
              </clipitem>
              <clipitem frameBlend="FALSE" id="clipitem-767">
                <name>Scene - Puppet man_0003.044.png</name>
                <masterclipid>masterclip-46</masterclipid>
                <rate>
                  <timebase>24</timebase>
                  <ntsc>FALSE</ntsc>
                </rate>
                <duration>1</duration>
                <enabled>TRUE</enabled>
                <alphatype>straight</alphatype>
                <rate>
                  <timebase>24</timebase>
                  <ntsc>FALSE</ntsc>
                </rate>
                <enabled>TRUE</enabled>
                <start>44</start>
                <end>45</end>
                <file id="file-46"/>
              </clipitem>
              <clipitem frameBlend="FALSE" id="clipitem-768">
                <name>Scene - Puppet man_0003.045.png</name>
                <masterclipid>masterclip-47</masterclipid>
                <rate>
                  <timebase>24</timebase>
                  <ntsc>FALSE</ntsc>
                </rate>
                <duration>1</duration>
                <enabled>TRUE</enabled>
                <alphatype>straight</alphatype>
                <rate>
                  <timebase>24</timebase>
                  <ntsc>FALSE</ntsc>
                </rate>
                <enabled>TRUE</enabled>
                <start>45</start>
                <end>46</end>
                <file id="file-47"/>
              </clipitem>
              <clipitem frameBlend="FALSE" id="clipitem-769">
                <name>Scene - Puppet man_0003.046.png</name>
                <masterclipid>masterclip-48</masterclipid>
                <rate>
                  <timebase>24</timebase>
                  <ntsc>FALSE</ntsc>
                </rate>
                <duration>1</duration>
                <enabled>TRUE</enabled>
                <alphatype>straight</alphatype>
                <rate>
                  <timebase>24</timebase>
                  <ntsc>FALSE</ntsc>
                </rate>
                <enabled>TRUE</enabled>
                <start>46</start>
                <end>47</end>
                <file id="file-48"/>
              </clipitem>
              <clipitem frameBlend="FALSE" id="clipitem-770">
                <name>Scene - Puppet man_0003.047.png</name>
                <masterclipid>masterclip-49</masterclipid>
                <rate>
                  <timebase>24</timebase>
                  <ntsc>FALSE</ntsc>
                </rate>
                <duration>1</duration>
                <enabled>TRUE</enabled>
                <alphatype>straight</alphatype>
                <rate>
                  <timebase>24</timebase>
                  <ntsc>FALSE</ntsc>
                </rate>
                <enabled>TRUE</enabled>
                <start>47</start>
                <end>48</end>
                <file id="file-49"/>
              </clipitem>
              <clipitem frameBlend="FALSE" id="clipitem-771">
                <name>Scene - Puppet man_0003.048.png</name>
                <masterclipid>masterclip-50</masterclipid>
                <rate>
                  <timebase>24</timebase>
                  <ntsc>FALSE</ntsc>
                </rate>
                <duration>1</duration>
                <enabled>TRUE</enabled>
                <alphatype>straight</alphatype>
                <rate>
                  <timebase>24</timebase>
                  <ntsc>FALSE</ntsc>
                </rate>
                <enabled>TRUE</enabled>
                <start>48</start>
                <end>49</end>
                <file id="file-50"/>
              </clipitem>
              <clipitem frameBlend="FALSE" id="clipitem-772">
                <name>Scene - Puppet man_0003.049.png</name>
                <masterclipid>masterclip-51</masterclipid>
                <rate>
                  <timebase>24</timebase>
                  <ntsc>FALSE</ntsc>
                </rate>
                <duration>1</duration>
                <enabled>TRUE</enabled>
                <alphatype>straight</alphatype>
                <rate>
                  <timebase>24</timebase>
                  <ntsc>FALSE</ntsc>
                </rate>
                <enabled>TRUE</enabled>
                <start>49</start>
                <end>50</end>
                <file id="file-51"/>
              </clipitem>
              <clipitem frameBlend="FALSE" id="clipitem-773">
                <name>Scene - Puppet man_0003.050.png</name>
                <masterclipid>masterclip-52</masterclipid>
                <rate>
                  <timebase>24</timebase>
                  <ntsc>FALSE</ntsc>
                </rate>
                <duration>1</duration>
                <enabled>TRUE</enabled>
                <alphatype>straight</alphatype>
                <rate>
                  <timebase>24</timebase>
                  <ntsc>FALSE</ntsc>
                </rate>
                <enabled>TRUE</enabled>
                <start>50</start>
                <end>51</end>
                <file id="file-52"/>
              </clipitem>
              <clipitem frameBlend="FALSE" id="clipitem-774">
                <name>Scene - Puppet man_0003.051.png</name>
                <masterclipid>masterclip-53</masterclipid>
                <rate>
                  <timebase>24</timebase>
                  <ntsc>FALSE</ntsc>
                </rate>
                <duration>1</duration>
                <enabled>TRUE</enabled>
                <alphatype>straight</alphatype>
                <rate>
                  <timebase>24</timebase>
                  <ntsc>FALSE</ntsc>
                </rate>
                <enabled>TRUE</enabled>
                <start>51</start>
                <end>52</end>
                <file id="file-53"/>
              </clipitem>
              <clipitem frameBlend="FALSE" id="clipitem-775">
                <name>Scene - Puppet man_0003.052.png</name>
                <masterclipid>masterclip-54</masterclipid>
                <rate>
                  <timebase>24</timebase>
                  <ntsc>FALSE</ntsc>
                </rate>
                <duration>1</duration>
                <enabled>TRUE</enabled>
                <alphatype>straight</alphatype>
                <rate>
                  <timebase>24</timebase>
                  <ntsc>FALSE</ntsc>
                </rate>
                <enabled>TRUE</enabled>
                <start>52</start>
                <end>53</end>
                <file id="file-54"/>
              </clipitem>
              <clipitem frameBlend="FALSE" id="clipitem-776">
                <name>Scene - Puppet man_0003.053.png</name>
                <masterclipid>masterclip-55</masterclipid>
                <rate>
                  <timebase>24</timebase>
                  <ntsc>FALSE</ntsc>
                </rate>
                <duration>1</duration>
                <enabled>TRUE</enabled>
                <alphatype>straight</alphatype>
                <rate>
                  <timebase>24</timebase>
                  <ntsc>FALSE</ntsc>
                </rate>
                <enabled>TRUE</enabled>
                <start>53</start>
                <end>54</end>
                <file id="file-55"/>
              </clipitem>
              <clipitem frameBlend="FALSE" id="clipitem-777">
                <name>Scene - Puppet man_0003.054.png</name>
                <masterclipid>masterclip-56</masterclipid>
                <rate>
                  <timebase>24</timebase>
                  <ntsc>FALSE</ntsc>
                </rate>
                <duration>1</duration>
                <enabled>TRUE</enabled>
                <alphatype>straight</alphatype>
                <rate>
                  <timebase>24</timebase>
                  <ntsc>FALSE</ntsc>
                </rate>
                <enabled>TRUE</enabled>
                <start>54</start>
                <end>55</end>
                <file id="file-56"/>
              </clipitem>
              <clipitem frameBlend="FALSE" id="clipitem-778">
                <name>Scene - Puppet man_0003.055.png</name>
                <masterclipid>masterclip-57</masterclipid>
                <rate>
                  <timebase>24</timebase>
                  <ntsc>FALSE</ntsc>
                </rate>
                <duration>1</duration>
                <enabled>TRUE</enabled>
                <alphatype>straight</alphatype>
                <rate>
                  <timebase>24</timebase>
                  <ntsc>FALSE</ntsc>
                </rate>
                <enabled>TRUE</enabled>
                <start>55</start>
                <end>56</end>
                <file id="file-57"/>
              </clipitem>
              <clipitem frameBlend="FALSE" id="clipitem-779">
                <name>Scene - Puppet man_0003.056.png</name>
                <masterclipid>masterclip-58</masterclipid>
                <rate>
                  <timebase>24</timebase>
                  <ntsc>FALSE</ntsc>
                </rate>
                <duration>1</duration>
                <enabled>TRUE</enabled>
                <alphatype>straight</alphatype>
                <rate>
                  <timebase>24</timebase>
                  <ntsc>FALSE</ntsc>
                </rate>
                <enabled>TRUE</enabled>
                <start>56</start>
                <end>57</end>
                <file id="file-58"/>
              </clipitem>
              <clipitem frameBlend="FALSE" id="clipitem-780">
                <name>Scene - Puppet man_0003.057.png</name>
                <masterclipid>masterclip-59</masterclipid>
                <rate>
                  <timebase>24</timebase>
                  <ntsc>FALSE</ntsc>
                </rate>
                <duration>1</duration>
                <enabled>TRUE</enabled>
                <alphatype>straight</alphatype>
                <rate>
                  <timebase>24</timebase>
                  <ntsc>FALSE</ntsc>
                </rate>
                <enabled>TRUE</enabled>
                <start>57</start>
                <end>58</end>
                <file id="file-59"/>
              </clipitem>
              <clipitem frameBlend="FALSE" id="clipitem-781">
                <name>Scene - Puppet man_0003.058.png</name>
                <masterclipid>masterclip-60</masterclipid>
                <rate>
                  <timebase>24</timebase>
                  <ntsc>FALSE</ntsc>
                </rate>
                <duration>1</duration>
                <enabled>TRUE</enabled>
                <alphatype>straight</alphatype>
                <rate>
                  <timebase>24</timebase>
                  <ntsc>FALSE</ntsc>
                </rate>
                <enabled>TRUE</enabled>
                <start>58</start>
                <end>59</end>
                <file id="file-60"/>
              </clipitem>
              <clipitem frameBlend="FALSE" id="clipitem-782">
                <name>Scene - Puppet man_0003.059.png</name>
                <masterclipid>masterclip-61</masterclipid>
                <rate>
                  <timebase>24</timebase>
                  <ntsc>FALSE</ntsc>
                </rate>
                <duration>1</duration>
                <enabled>TRUE</enabled>
                <alphatype>straight</alphatype>
                <rate>
                  <timebase>24</timebase>
                  <ntsc>FALSE</ntsc>
                </rate>
                <enabled>TRUE</enabled>
                <start>59</start>
                <end>60</end>
                <file id="file-61"/>
              </clipitem>
              <clipitem frameBlend="FALSE" id="clipitem-783">
                <name>Scene - Puppet man_0003.060.png</name>
                <masterclipid>masterclip-62</masterclipid>
                <rate>
                  <timebase>24</timebase>
                  <ntsc>FALSE</ntsc>
                </rate>
                <duration>1</duration>
                <enabled>TRUE</enabled>
                <alphatype>straight</alphatype>
                <rate>
                  <timebase>24</timebase>
                  <ntsc>FALSE</ntsc>
                </rate>
                <enabled>TRUE</enabled>
                <start>60</start>
                <end>61</end>
                <file id="file-62"/>
              </clipitem>
              <clipitem frameBlend="FALSE" id="clipitem-784">
                <name>Scene - Puppet man_0003.061.png</name>
                <masterclipid>masterclip-63</masterclipid>
                <rate>
                  <timebase>24</timebase>
                  <ntsc>FALSE</ntsc>
                </rate>
                <duration>1</duration>
                <enabled>TRUE</enabled>
                <alphatype>straight</alphatype>
                <rate>
                  <timebase>24</timebase>
                  <ntsc>FALSE</ntsc>
                </rate>
                <enabled>TRUE</enabled>
                <start>61</start>
                <end>62</end>
                <file id="file-63"/>
              </clipitem>
              <clipitem frameBlend="FALSE" id="clipitem-785">
                <name>Scene - Puppet man_0003.062.png</name>
                <masterclipid>masterclip-64</masterclipid>
                <rate>
                  <timebase>24</timebase>
                  <ntsc>FALSE</ntsc>
                </rate>
                <duration>1</duration>
                <enabled>TRUE</enabled>
                <alphatype>straight</alphatype>
                <rate>
                  <timebase>24</timebase>
                  <ntsc>FALSE</ntsc>
                </rate>
                <enabled>TRUE</enabled>
                <start>62</start>
                <end>63</end>
                <file id="file-64"/>
              </clipitem>
              <clipitem frameBlend="FALSE" id="clipitem-786">
                <name>Scene - Puppet man_0003.063.png</name>
                <masterclipid>masterclip-65</masterclipid>
                <rate>
                  <timebase>24</timebase>
                  <ntsc>FALSE</ntsc>
                </rate>
                <duration>1</duration>
                <enabled>TRUE</enabled>
                <alphatype>straight</alphatype>
                <rate>
                  <timebase>24</timebase>
                  <ntsc>FALSE</ntsc>
                </rate>
                <enabled>TRUE</enabled>
                <start>63</start>
                <end>64</end>
                <file id="file-65"/>
              </clipitem>
              <clipitem frameBlend="FALSE" id="clipitem-787">
                <name>Scene - Puppet man_0003.064.png</name>
                <masterclipid>masterclip-66</masterclipid>
                <rate>
                  <timebase>24</timebase>
                  <ntsc>FALSE</ntsc>
                </rate>
                <duration>1</duration>
                <enabled>TRUE</enabled>
                <alphatype>straight</alphatype>
                <rate>
                  <timebase>24</timebase>
                  <ntsc>FALSE</ntsc>
                </rate>
                <enabled>TRUE</enabled>
                <start>64</start>
                <end>65</end>
                <file id="file-66"/>
              </clipitem>
              <clipitem frameBlend="FALSE" id="clipitem-788">
                <name>Scene - Puppet man_0003.065.png</name>
                <masterclipid>masterclip-67</masterclipid>
                <rate>
                  <timebase>24</timebase>
                  <ntsc>FALSE</ntsc>
                </rate>
                <duration>1</duration>
                <enabled>TRUE</enabled>
                <alphatype>straight</alphatype>
                <rate>
                  <timebase>24</timebase>
                  <ntsc>FALSE</ntsc>
                </rate>
                <enabled>TRUE</enabled>
                <start>65</start>
                <end>66</end>
                <file id="file-67"/>
              </clipitem>
              <clipitem frameBlend="FALSE" id="clipitem-789">
                <name>Scene - Puppet man_0003.066.png</name>
                <masterclipid>masterclip-68</masterclipid>
                <rate>
                  <timebase>24</timebase>
                  <ntsc>FALSE</ntsc>
                </rate>
                <duration>1</duration>
                <enabled>TRUE</enabled>
                <alphatype>straight</alphatype>
                <rate>
                  <timebase>24</timebase>
                  <ntsc>FALSE</ntsc>
                </rate>
                <enabled>TRUE</enabled>
                <start>66</start>
                <end>67</end>
                <file id="file-68"/>
              </clipitem>
              <clipitem frameBlend="FALSE" id="clipitem-790">
                <name>Scene - Puppet man_0003.067.png</name>
                <masterclipid>masterclip-69</masterclipid>
                <rate>
                  <timebase>24</timebase>
                  <ntsc>FALSE</ntsc>
                </rate>
                <duration>1</duration>
                <enabled>TRUE</enabled>
                <alphatype>straight</alphatype>
                <rate>
                  <timebase>24</timebase>
                  <ntsc>FALSE</ntsc>
                </rate>
                <enabled>TRUE</enabled>
                <start>67</start>
                <end>68</end>
                <file id="file-69"/>
              </clipitem>
              <clipitem frameBlend="FALSE" id="clipitem-791">
                <name>Scene - Puppet man_0003.068.png</name>
                <masterclipid>masterclip-70</masterclipid>
                <rate>
                  <timebase>24</timebase>
                  <ntsc>FALSE</ntsc>
                </rate>
                <duration>1</duration>
                <enabled>TRUE</enabled>
                <alphatype>straight</alphatype>
                <rate>
                  <timebase>24</timebase>
                  <ntsc>FALSE</ntsc>
                </rate>
                <enabled>TRUE</enabled>
                <start>68</start>
                <end>69</end>
                <file id="file-70"/>
              </clipitem>
              <clipitem frameBlend="FALSE" id="clipitem-792">
                <name>Scene - Puppet man_0003.069.png</name>
                <masterclipid>masterclip-71</masterclipid>
                <rate>
                  <timebase>24</timebase>
                  <ntsc>FALSE</ntsc>
                </rate>
                <duration>1</duration>
                <enabled>TRUE</enabled>
                <alphatype>straight</alphatype>
                <rate>
                  <timebase>24</timebase>
                  <ntsc>FALSE</ntsc>
                </rate>
                <enabled>TRUE</enabled>
                <start>69</start>
                <end>70</end>
                <file id="file-71"/>
              </clipitem>
              <clipitem frameBlend="FALSE" id="clipitem-793">
                <name>Scene - Puppet man_0003.070.png</name>
                <masterclipid>masterclip-72</masterclipid>
                <rate>
                  <timebase>24</timebase>
                  <ntsc>FALSE</ntsc>
                </rate>
                <duration>1</duration>
                <enabled>TRUE</enabled>
                <alphatype>straight</alphatype>
                <rate>
                  <timebase>24</timebase>
                  <ntsc>FALSE</ntsc>
                </rate>
                <enabled>TRUE</enabled>
                <start>70</start>
                <end>71</end>
                <file id="file-72"/>
              </clipitem>
              <clipitem frameBlend="FALSE" id="clipitem-794">
                <name>Scene - Puppet man_0003.071.png</name>
                <masterclipid>masterclip-73</masterclipid>
                <rate>
                  <timebase>24</timebase>
                  <ntsc>FALSE</ntsc>
                </rate>
                <duration>1</duration>
                <enabled>TRUE</enabled>
                <alphatype>straight</alphatype>
                <rate>
                  <timebase>24</timebase>
                  <ntsc>FALSE</ntsc>
                </rate>
                <enabled>TRUE</enabled>
                <start>71</start>
                <end>72</end>
                <file id="file-73"/>
              </clipitem>
              <clipitem frameBlend="FALSE" id="clipitem-795">
                <name>Scene - Puppet man_0003.072.png</name>
                <masterclipid>masterclip-74</masterclipid>
                <rate>
                  <timebase>24</timebase>
                  <ntsc>FALSE</ntsc>
                </rate>
                <duration>1</duration>
                <enabled>TRUE</enabled>
                <alphatype>straight</alphatype>
                <rate>
                  <timebase>24</timebase>
                  <ntsc>FALSE</ntsc>
                </rate>
                <enabled>TRUE</enabled>
                <start>72</start>
                <end>73</end>
                <file id="file-74"/>
              </clipitem>
              <clipitem frameBlend="FALSE" id="clipitem-796">
                <name>Scene - Puppet man_0003.073.png</name>
                <masterclipid>masterclip-75</masterclipid>
                <rate>
                  <timebase>24</timebase>
                  <ntsc>FALSE</ntsc>
                </rate>
                <duration>1</duration>
                <enabled>TRUE</enabled>
                <alphatype>straight</alphatype>
                <rate>
                  <timebase>24</timebase>
                  <ntsc>FALSE</ntsc>
                </rate>
                <enabled>TRUE</enabled>
                <start>73</start>
                <end>74</end>
                <file id="file-75"/>
              </clipitem>
              <clipitem frameBlend="FALSE" id="clipitem-797">
                <name>Scene - Puppet man_0003.074.png</name>
                <masterclipid>masterclip-76</masterclipid>
                <rate>
                  <timebase>24</timebase>
                  <ntsc>FALSE</ntsc>
                </rate>
                <duration>1</duration>
                <enabled>TRUE</enabled>
                <alphatype>straight</alphatype>
                <rate>
                  <timebase>24</timebase>
                  <ntsc>FALSE</ntsc>
                </rate>
                <enabled>TRUE</enabled>
                <start>74</start>
                <end>75</end>
                <file id="file-76"/>
              </clipitem>
              <clipitem frameBlend="FALSE" id="clipitem-798">
                <name>Scene - Puppet man_0003.075.png</name>
                <masterclipid>masterclip-77</masterclipid>
                <rate>
                  <timebase>24</timebase>
                  <ntsc>FALSE</ntsc>
                </rate>
                <duration>1</duration>
                <enabled>TRUE</enabled>
                <alphatype>straight</alphatype>
                <rate>
                  <timebase>24</timebase>
                  <ntsc>FALSE</ntsc>
                </rate>
                <enabled>TRUE</enabled>
                <start>75</start>
                <end>76</end>
                <file id="file-77"/>
              </clipitem>
              <clipitem frameBlend="FALSE" id="clipitem-799">
                <name>Scene - Puppet man_0003.076.png</name>
                <masterclipid>masterclip-78</masterclipid>
                <rate>
                  <timebase>24</timebase>
                  <ntsc>FALSE</ntsc>
                </rate>
                <duration>1</duration>
                <enabled>TRUE</enabled>
                <alphatype>straight</alphatype>
                <rate>
                  <timebase>24</timebase>
                  <ntsc>FALSE</ntsc>
                </rate>
                <enabled>TRUE</enabled>
                <start>76</start>
                <end>77</end>
                <file id="file-78"/>
              </clipitem>
              <clipitem frameBlend="FALSE" id="clipitem-800">
                <name>Scene - Puppet man_0003.077.png</name>
                <masterclipid>masterclip-79</masterclipid>
                <rate>
                  <timebase>24</timebase>
                  <ntsc>FALSE</ntsc>
                </rate>
                <duration>1</duration>
                <enabled>TRUE</enabled>
                <alphatype>straight</alphatype>
                <rate>
                  <timebase>24</timebase>
                  <ntsc>FALSE</ntsc>
                </rate>
                <enabled>TRUE</enabled>
                <start>77</start>
                <end>78</end>
                <file id="file-79"/>
              </clipitem>
              <clipitem frameBlend="FALSE" id="clipitem-801">
                <name>Scene - Puppet man_0003.078.png</name>
                <masterclipid>masterclip-80</masterclipid>
                <rate>
                  <timebase>24</timebase>
                  <ntsc>FALSE</ntsc>
                </rate>
                <duration>1</duration>
                <enabled>TRUE</enabled>
                <alphatype>straight</alphatype>
                <rate>
                  <timebase>24</timebase>
                  <ntsc>FALSE</ntsc>
                </rate>
                <enabled>TRUE</enabled>
                <start>78</start>
                <end>79</end>
                <file id="file-80"/>
              </clipitem>
              <clipitem frameBlend="FALSE" id="clipitem-802">
                <name>Scene - Puppet man_0003.079.png</name>
                <masterclipid>masterclip-81</masterclipid>
                <rate>
                  <timebase>24</timebase>
                  <ntsc>FALSE</ntsc>
                </rate>
                <duration>1</duration>
                <enabled>TRUE</enabled>
                <alphatype>straight</alphatype>
                <rate>
                  <timebase>24</timebase>
                  <ntsc>FALSE</ntsc>
                </rate>
                <enabled>TRUE</enabled>
                <start>79</start>
                <end>80</end>
                <file id="file-81"/>
              </clipitem>
              <clipitem frameBlend="FALSE" id="clipitem-803">
                <name>Scene - Puppet man_0003.080.png</name>
                <masterclipid>masterclip-82</masterclipid>
                <rate>
                  <timebase>24</timebase>
                  <ntsc>FALSE</ntsc>
                </rate>
                <duration>1</duration>
                <enabled>TRUE</enabled>
                <alphatype>straight</alphatype>
                <rate>
                  <timebase>24</timebase>
                  <ntsc>FALSE</ntsc>
                </rate>
                <enabled>TRUE</enabled>
                <start>80</start>
                <end>81</end>
                <file id="file-82"/>
              </clipitem>
              <clipitem frameBlend="FALSE" id="clipitem-804">
                <name>Scene - Puppet man_0003.081.png</name>
                <masterclipid>masterclip-83</masterclipid>
                <rate>
                  <timebase>24</timebase>
                  <ntsc>FALSE</ntsc>
                </rate>
                <duration>1</duration>
                <enabled>TRUE</enabled>
                <alphatype>straight</alphatype>
                <rate>
                  <timebase>24</timebase>
                  <ntsc>FALSE</ntsc>
                </rate>
                <enabled>TRUE</enabled>
                <start>81</start>
                <end>82</end>
                <file id="file-83"/>
              </clipitem>
              <clipitem frameBlend="FALSE" id="clipitem-805">
                <name>Scene - Puppet man_0003.082.png</name>
                <masterclipid>masterclip-84</masterclipid>
                <rate>
                  <timebase>24</timebase>
                  <ntsc>FALSE</ntsc>
                </rate>
                <duration>1</duration>
                <enabled>TRUE</enabled>
                <alphatype>straight</alphatype>
                <rate>
                  <timebase>24</timebase>
                  <ntsc>FALSE</ntsc>
                </rate>
                <enabled>TRUE</enabled>
                <start>82</start>
                <end>83</end>
                <file id="file-84"/>
              </clipitem>
              <clipitem frameBlend="FALSE" id="clipitem-806">
                <name>Scene - Puppet man_0003.083.png</name>
                <masterclipid>masterclip-85</masterclipid>
                <rate>
                  <timebase>24</timebase>
                  <ntsc>FALSE</ntsc>
                </rate>
                <duration>1</duration>
                <enabled>TRUE</enabled>
                <alphatype>straight</alphatype>
                <rate>
                  <timebase>24</timebase>
                  <ntsc>FALSE</ntsc>
                </rate>
                <enabled>TRUE</enabled>
                <start>83</start>
                <end>84</end>
                <file id="file-85"/>
              </clipitem>
              <clipitem frameBlend="FALSE" id="clipitem-807">
                <name>Scene - Puppet man_0003.084.png</name>
                <masterclipid>masterclip-86</masterclipid>
                <rate>
                  <timebase>24</timebase>
                  <ntsc>FALSE</ntsc>
                </rate>
                <duration>1</duration>
                <enabled>TRUE</enabled>
                <alphatype>straight</alphatype>
                <rate>
                  <timebase>24</timebase>
                  <ntsc>FALSE</ntsc>
                </rate>
                <enabled>TRUE</enabled>
                <start>84</start>
                <end>85</end>
                <file id="file-86"/>
              </clipitem>
              <clipitem frameBlend="FALSE" id="clipitem-808">
                <name>Scene - Puppet man_0003.085.png</name>
                <masterclipid>masterclip-87</masterclipid>
                <rate>
                  <timebase>24</timebase>
                  <ntsc>FALSE</ntsc>
                </rate>
                <duration>1</duration>
                <enabled>TRUE</enabled>
                <alphatype>straight</alphatype>
                <rate>
                  <timebase>24</timebase>
                  <ntsc>FALSE</ntsc>
                </rate>
                <enabled>TRUE</enabled>
                <start>85</start>
                <end>86</end>
                <file id="file-87"/>
              </clipitem>
              <clipitem frameBlend="FALSE" id="clipitem-809">
                <name>Scene - Puppet man_0003.086.png</name>
                <masterclipid>masterclip-88</masterclipid>
                <rate>
                  <timebase>24</timebase>
                  <ntsc>FALSE</ntsc>
                </rate>
                <duration>1</duration>
                <enabled>TRUE</enabled>
                <alphatype>straight</alphatype>
                <rate>
                  <timebase>24</timebase>
                  <ntsc>FALSE</ntsc>
                </rate>
                <enabled>TRUE</enabled>
                <start>86</start>
                <end>87</end>
                <file id="file-88"/>
              </clipitem>
              <clipitem frameBlend="FALSE" id="clipitem-810">
                <name>Scene - Puppet man_0003.087.png</name>
                <masterclipid>masterclip-89</masterclipid>
                <rate>
                  <timebase>24</timebase>
                  <ntsc>FALSE</ntsc>
                </rate>
                <duration>1</duration>
                <enabled>TRUE</enabled>
                <alphatype>straight</alphatype>
                <rate>
                  <timebase>24</timebase>
                  <ntsc>FALSE</ntsc>
                </rate>
                <enabled>TRUE</enabled>
                <start>87</start>
                <end>88</end>
                <file id="file-89"/>
              </clipitem>
              <clipitem frameBlend="FALSE" id="clipitem-811">
                <name>Scene - Puppet man_0003.088.png</name>
                <masterclipid>masterclip-90</masterclipid>
                <rate>
                  <timebase>24</timebase>
                  <ntsc>FALSE</ntsc>
                </rate>
                <duration>1</duration>
                <enabled>TRUE</enabled>
                <alphatype>straight</alphatype>
                <rate>
                  <timebase>24</timebase>
                  <ntsc>FALSE</ntsc>
                </rate>
                <enabled>TRUE</enabled>
                <start>88</start>
                <end>89</end>
                <file id="file-90"/>
              </clipitem>
              <clipitem frameBlend="FALSE" id="clipitem-812">
                <name>Scene - Puppet man_0003.089.png</name>
                <masterclipid>masterclip-91</masterclipid>
                <rate>
                  <timebase>24</timebase>
                  <ntsc>FALSE</ntsc>
                </rate>
                <duration>1</duration>
                <enabled>TRUE</enabled>
                <alphatype>straight</alphatype>
                <rate>
                  <timebase>24</timebase>
                  <ntsc>FALSE</ntsc>
                </rate>
                <enabled>TRUE</enabled>
                <start>89</start>
                <end>90</end>
                <file id="file-91"/>
              </clipitem>
              <clipitem frameBlend="FALSE" id="clipitem-813">
                <name>Scene - Puppet man_0003.090.png</name>
                <masterclipid>masterclip-92</masterclipid>
                <rate>
                  <timebase>24</timebase>
                  <ntsc>FALSE</ntsc>
                </rate>
                <duration>1</duration>
                <enabled>TRUE</enabled>
                <alphatype>straight</alphatype>
                <rate>
                  <timebase>24</timebase>
                  <ntsc>FALSE</ntsc>
                </rate>
                <enabled>TRUE</enabled>
                <start>90</start>
                <end>91</end>
                <file id="file-92"/>
              </clipitem>
              <clipitem frameBlend="FALSE" id="clipitem-814">
                <name>Scene - Puppet man_0003.091.png</name>
                <masterclipid>masterclip-93</masterclipid>
                <rate>
                  <timebase>24</timebase>
                  <ntsc>FALSE</ntsc>
                </rate>
                <duration>1</duration>
                <enabled>TRUE</enabled>
                <alphatype>straight</alphatype>
                <rate>
                  <timebase>24</timebase>
                  <ntsc>FALSE</ntsc>
                </rate>
                <enabled>TRUE</enabled>
                <start>91</start>
                <end>92</end>
                <file id="file-93"/>
              </clipitem>
              <clipitem frameBlend="FALSE" id="clipitem-815">
                <name>Scene - Puppet man_0003.092.png</name>
                <masterclipid>masterclip-94</masterclipid>
                <rate>
                  <timebase>24</timebase>
                  <ntsc>FALSE</ntsc>
                </rate>
                <duration>1</duration>
                <enabled>TRUE</enabled>
                <alphatype>straight</alphatype>
                <rate>
                  <timebase>24</timebase>
                  <ntsc>FALSE</ntsc>
                </rate>
                <enabled>TRUE</enabled>
                <start>92</start>
                <end>93</end>
                <file id="file-94"/>
              </clipitem>
              <clipitem frameBlend="FALSE" id="clipitem-816">
                <name>Scene - Puppet man_0003.093.png</name>
                <masterclipid>masterclip-95</masterclipid>
                <rate>
                  <timebase>24</timebase>
                  <ntsc>FALSE</ntsc>
                </rate>
                <duration>1</duration>
                <enabled>TRUE</enabled>
                <alphatype>straight</alphatype>
                <rate>
                  <timebase>24</timebase>
                  <ntsc>FALSE</ntsc>
                </rate>
                <enabled>TRUE</enabled>
                <start>93</start>
                <end>94</end>
                <file id="file-95"/>
              </clipitem>
              <clipitem frameBlend="FALSE" id="clipitem-817">
                <name>Scene - Puppet man_0003.094.png</name>
                <masterclipid>masterclip-96</masterclipid>
                <rate>
                  <timebase>24</timebase>
                  <ntsc>FALSE</ntsc>
                </rate>
                <duration>1</duration>
                <enabled>TRUE</enabled>
                <alphatype>straight</alphatype>
                <rate>
                  <timebase>24</timebase>
                  <ntsc>FALSE</ntsc>
                </rate>
                <enabled>TRUE</enabled>
                <start>94</start>
                <end>95</end>
                <file id="file-96"/>
              </clipitem>
              <clipitem frameBlend="FALSE" id="clipitem-818">
                <name>Scene - Puppet man_0003.095.png</name>
                <masterclipid>masterclip-97</masterclipid>
                <rate>
                  <timebase>24</timebase>
                  <ntsc>FALSE</ntsc>
                </rate>
                <duration>1</duration>
                <enabled>TRUE</enabled>
                <alphatype>straight</alphatype>
                <rate>
                  <timebase>24</timebase>
                  <ntsc>FALSE</ntsc>
                </rate>
                <enabled>TRUE</enabled>
                <start>95</start>
                <end>96</end>
                <file id="file-97"/>
              </clipitem>
              <clipitem frameBlend="FALSE" id="clipitem-819">
                <name>Scene - Puppet man_0003.096.png</name>
                <masterclipid>masterclip-98</masterclipid>
                <rate>
                  <timebase>24</timebase>
                  <ntsc>FALSE</ntsc>
                </rate>
                <duration>1</duration>
                <enabled>TRUE</enabled>
                <alphatype>straight</alphatype>
                <rate>
                  <timebase>24</timebase>
                  <ntsc>FALSE</ntsc>
                </rate>
                <enabled>TRUE</enabled>
                <start>96</start>
                <end>97</end>
                <file id="file-98"/>
              </clipitem>
              <clipitem frameBlend="FALSE" id="clipitem-820">
                <name>Scene - Puppet man_0003.097.png</name>
                <masterclipid>masterclip-99</masterclipid>
                <rate>
                  <timebase>24</timebase>
                  <ntsc>FALSE</ntsc>
                </rate>
                <duration>1</duration>
                <enabled>TRUE</enabled>
                <alphatype>straight</alphatype>
                <rate>
                  <timebase>24</timebase>
                  <ntsc>FALSE</ntsc>
                </rate>
                <enabled>TRUE</enabled>
                <start>97</start>
                <end>98</end>
                <file id="file-99"/>
              </clipitem>
              <clipitem frameBlend="FALSE" id="clipitem-821">
                <name>Scene - Puppet man_0003.098.png</name>
                <masterclipid>masterclip-100</masterclipid>
                <rate>
                  <timebase>24</timebase>
                  <ntsc>FALSE</ntsc>
                </rate>
                <duration>1</duration>
                <enabled>TRUE</enabled>
                <alphatype>straight</alphatype>
                <rate>
                  <timebase>24</timebase>
                  <ntsc>FALSE</ntsc>
                </rate>
                <enabled>TRUE</enabled>
                <start>98</start>
                <end>99</end>
                <file id="file-100"/>
              </clipitem>
              <clipitem frameBlend="FALSE" id="clipitem-822">
                <name>Scene - Puppet man_0003.099.png</name>
                <masterclipid>masterclip-101</masterclipid>
                <rate>
                  <timebase>24</timebase>
                  <ntsc>FALSE</ntsc>
                </rate>
                <duration>1</duration>
                <enabled>TRUE</enabled>
                <alphatype>straight</alphatype>
                <rate>
                  <timebase>24</timebase>
                  <ntsc>FALSE</ntsc>
                </rate>
                <enabled>TRUE</enabled>
                <start>99</start>
                <end>100</end>
                <file id="file-101"/>
              </clipitem>
              <clipitem frameBlend="FALSE" id="clipitem-823">
                <name>Scene - Puppet man_0003.100.png</name>
                <masterclipid>masterclip-102</masterclipid>
                <rate>
                  <timebase>24</timebase>
                  <ntsc>FALSE</ntsc>
                </rate>
                <duration>1</duration>
                <enabled>TRUE</enabled>
                <alphatype>straight</alphatype>
                <rate>
                  <timebase>24</timebase>
                  <ntsc>FALSE</ntsc>
                </rate>
                <enabled>TRUE</enabled>
                <start>100</start>
                <end>101</end>
                <file id="file-102"/>
              </clipitem>
              <clipitem frameBlend="FALSE" id="clipitem-824">
                <name>Scene - Puppet man_0003.101.png</name>
                <masterclipid>masterclip-103</masterclipid>
                <rate>
                  <timebase>24</timebase>
                  <ntsc>FALSE</ntsc>
                </rate>
                <duration>1</duration>
                <enabled>TRUE</enabled>
                <alphatype>straight</alphatype>
                <rate>
                  <timebase>24</timebase>
                  <ntsc>FALSE</ntsc>
                </rate>
                <enabled>TRUE</enabled>
                <start>101</start>
                <end>102</end>
                <file id="file-103"/>
              </clipitem>
              <clipitem frameBlend="FALSE" id="clipitem-825">
                <name>Scene - Puppet man_0003.102.png</name>
                <masterclipid>masterclip-104</masterclipid>
                <rate>
                  <timebase>24</timebase>
                  <ntsc>FALSE</ntsc>
                </rate>
                <duration>1</duration>
                <enabled>TRUE</enabled>
                <alphatype>straight</alphatype>
                <rate>
                  <timebase>24</timebase>
                  <ntsc>FALSE</ntsc>
                </rate>
                <enabled>TRUE</enabled>
                <start>102</start>
                <end>103</end>
                <file id="file-104"/>
              </clipitem>
              <clipitem frameBlend="FALSE" id="clipitem-826">
                <name>Scene - Puppet man_0003.103.png</name>
                <masterclipid>masterclip-105</masterclipid>
                <rate>
                  <timebase>24</timebase>
                  <ntsc>FALSE</ntsc>
                </rate>
                <duration>1</duration>
                <enabled>TRUE</enabled>
                <alphatype>straight</alphatype>
                <rate>
                  <timebase>24</timebase>
                  <ntsc>FALSE</ntsc>
                </rate>
                <enabled>TRUE</enabled>
                <start>103</start>
                <end>104</end>
                <file id="file-105"/>
              </clipitem>
              <clipitem frameBlend="FALSE" id="clipitem-827">
                <name>Scene - Puppet man_0003.104.png</name>
                <masterclipid>masterclip-106</masterclipid>
                <rate>
                  <timebase>24</timebase>
                  <ntsc>FALSE</ntsc>
                </rate>
                <duration>1</duration>
                <enabled>TRUE</enabled>
                <alphatype>straight</alphatype>
                <rate>
                  <timebase>24</timebase>
                  <ntsc>FALSE</ntsc>
                </rate>
                <enabled>TRUE</enabled>
                <start>104</start>
                <end>105</end>
                <file id="file-106"/>
              </clipitem>
              <clipitem frameBlend="FALSE" id="clipitem-828">
                <name>Scene - Puppet man_0003.105.png</name>
                <masterclipid>masterclip-107</masterclipid>
                <rate>
                  <timebase>24</timebase>
                  <ntsc>FALSE</ntsc>
                </rate>
                <duration>1</duration>
                <enabled>TRUE</enabled>
                <alphatype>straight</alphatype>
                <rate>
                  <timebase>24</timebase>
                  <ntsc>FALSE</ntsc>
                </rate>
                <enabled>TRUE</enabled>
                <start>105</start>
                <end>106</end>
                <file id="file-107"/>
              </clipitem>
              <clipitem frameBlend="FALSE" id="clipitem-829">
                <name>Scene - Puppet man_0003.106.png</name>
                <masterclipid>masterclip-108</masterclipid>
                <rate>
                  <timebase>24</timebase>
                  <ntsc>FALSE</ntsc>
                </rate>
                <duration>1</duration>
                <enabled>TRUE</enabled>
                <alphatype>straight</alphatype>
                <rate>
                  <timebase>24</timebase>
                  <ntsc>FALSE</ntsc>
                </rate>
                <enabled>TRUE</enabled>
                <start>106</start>
                <end>107</end>
                <file id="file-108"/>
              </clipitem>
              <clipitem frameBlend="FALSE" id="clipitem-830">
                <name>Scene - Puppet man_0003.107.png</name>
                <masterclipid>masterclip-109</masterclipid>
                <rate>
                  <timebase>24</timebase>
                  <ntsc>FALSE</ntsc>
                </rate>
                <duration>1</duration>
                <enabled>TRUE</enabled>
                <alphatype>straight</alphatype>
                <rate>
                  <timebase>24</timebase>
                  <ntsc>FALSE</ntsc>
                </rate>
                <enabled>TRUE</enabled>
                <start>107</start>
                <end>108</end>
                <file id="file-109"/>
              </clipitem>
              <clipitem frameBlend="FALSE" id="clipitem-831">
                <name>Scene - Puppet man_0003.108.png</name>
                <masterclipid>masterclip-110</masterclipid>
                <rate>
                  <timebase>24</timebase>
                  <ntsc>FALSE</ntsc>
                </rate>
                <duration>1</duration>
                <enabled>TRUE</enabled>
                <alphatype>straight</alphatype>
                <rate>
                  <timebase>24</timebase>
                  <ntsc>FALSE</ntsc>
                </rate>
                <enabled>TRUE</enabled>
                <start>108</start>
                <end>109</end>
                <file id="file-110"/>
              </clipitem>
              <clipitem frameBlend="FALSE" id="clipitem-832">
                <name>Scene - Puppet man_0003.109.png</name>
                <masterclipid>masterclip-111</masterclipid>
                <rate>
                  <timebase>24</timebase>
                  <ntsc>FALSE</ntsc>
                </rate>
                <duration>1</duration>
                <enabled>TRUE</enabled>
                <alphatype>straight</alphatype>
                <rate>
                  <timebase>24</timebase>
                  <ntsc>FALSE</ntsc>
                </rate>
                <enabled>TRUE</enabled>
                <start>109</start>
                <end>110</end>
                <file id="file-111"/>
              </clipitem>
              <clipitem frameBlend="FALSE" id="clipitem-833">
                <name>Scene - Puppet man_0003.110.png</name>
                <masterclipid>masterclip-112</masterclipid>
                <rate>
                  <timebase>24</timebase>
                  <ntsc>FALSE</ntsc>
                </rate>
                <duration>1</duration>
                <enabled>TRUE</enabled>
                <alphatype>straight</alphatype>
                <rate>
                  <timebase>24</timebase>
                  <ntsc>FALSE</ntsc>
                </rate>
                <enabled>TRUE</enabled>
                <start>110</start>
                <end>111</end>
                <file id="file-112"/>
              </clipitem>
              <clipitem frameBlend="FALSE" id="clipitem-834">
                <name>Scene - Puppet man_0003.111.png</name>
                <masterclipid>masterclip-113</masterclipid>
                <rate>
                  <timebase>24</timebase>
                  <ntsc>FALSE</ntsc>
                </rate>
                <duration>1</duration>
                <enabled>TRUE</enabled>
                <alphatype>straight</alphatype>
                <rate>
                  <timebase>24</timebase>
                  <ntsc>FALSE</ntsc>
                </rate>
                <enabled>TRUE</enabled>
                <start>111</start>
                <end>112</end>
                <file id="file-113"/>
              </clipitem>
              <clipitem frameBlend="FALSE" id="clipitem-835">
                <name>Scene - Puppet man_0003.112.png</name>
                <masterclipid>masterclip-114</masterclipid>
                <rate>
                  <timebase>24</timebase>
                  <ntsc>FALSE</ntsc>
                </rate>
                <duration>1</duration>
                <enabled>TRUE</enabled>
                <alphatype>straight</alphatype>
                <rate>
                  <timebase>24</timebase>
                  <ntsc>FALSE</ntsc>
                </rate>
                <enabled>TRUE</enabled>
                <start>112</start>
                <end>113</end>
                <file id="file-114"/>
              </clipitem>
              <clipitem frameBlend="FALSE" id="clipitem-836">
                <name>Scene - Puppet man_0003.113.png</name>
                <masterclipid>masterclip-115</masterclipid>
                <rate>
                  <timebase>24</timebase>
                  <ntsc>FALSE</ntsc>
                </rate>
                <duration>1</duration>
                <enabled>TRUE</enabled>
                <alphatype>straight</alphatype>
                <rate>
                  <timebase>24</timebase>
                  <ntsc>FALSE</ntsc>
                </rate>
                <enabled>TRUE</enabled>
                <start>113</start>
                <end>114</end>
                <file id="file-115"/>
              </clipitem>
              <clipitem frameBlend="FALSE" id="clipitem-837">
                <name>Scene - Puppet man_0003.114.png</name>
                <masterclipid>masterclip-116</masterclipid>
                <rate>
                  <timebase>24</timebase>
                  <ntsc>FALSE</ntsc>
                </rate>
                <duration>1</duration>
                <enabled>TRUE</enabled>
                <alphatype>straight</alphatype>
                <rate>
                  <timebase>24</timebase>
                  <ntsc>FALSE</ntsc>
                </rate>
                <enabled>TRUE</enabled>
                <start>114</start>
                <end>115</end>
                <file id="file-116"/>
              </clipitem>
              <clipitem frameBlend="FALSE" id="clipitem-838">
                <name>Scene - Puppet man_0003.115.png</name>
                <masterclipid>masterclip-117</masterclipid>
                <rate>
                  <timebase>24</timebase>
                  <ntsc>FALSE</ntsc>
                </rate>
                <duration>1</duration>
                <enabled>TRUE</enabled>
                <alphatype>straight</alphatype>
                <rate>
                  <timebase>24</timebase>
                  <ntsc>FALSE</ntsc>
                </rate>
                <enabled>TRUE</enabled>
                <start>115</start>
                <end>116</end>
                <file id="file-117"/>
              </clipitem>
              <clipitem frameBlend="FALSE" id="clipitem-839">
                <name>Scene - Puppet man_0003.116.png</name>
                <masterclipid>masterclip-118</masterclipid>
                <rate>
                  <timebase>24</timebase>
                  <ntsc>FALSE</ntsc>
                </rate>
                <duration>1</duration>
                <enabled>TRUE</enabled>
                <alphatype>straight</alphatype>
                <rate>
                  <timebase>24</timebase>
                  <ntsc>FALSE</ntsc>
                </rate>
                <enabled>TRUE</enabled>
                <start>116</start>
                <end>117</end>
                <file id="file-118"/>
              </clipitem>
              <clipitem frameBlend="FALSE" id="clipitem-840">
                <name>Scene - Puppet man_0003.117.png</name>
                <masterclipid>masterclip-119</masterclipid>
                <rate>
                  <timebase>24</timebase>
                  <ntsc>FALSE</ntsc>
                </rate>
                <duration>1</duration>
                <enabled>TRUE</enabled>
                <alphatype>straight</alphatype>
                <rate>
                  <timebase>24</timebase>
                  <ntsc>FALSE</ntsc>
                </rate>
                <enabled>TRUE</enabled>
                <start>117</start>
                <end>118</end>
                <file id="file-119"/>
              </clipitem>
              <clipitem frameBlend="FALSE" id="clipitem-841">
                <name>Scene - Puppet man_0003.118.png</name>
                <masterclipid>masterclip-120</masterclipid>
                <rate>
                  <timebase>24</timebase>
                  <ntsc>FALSE</ntsc>
                </rate>
                <duration>1</duration>
                <enabled>TRUE</enabled>
                <alphatype>straight</alphatype>
                <rate>
                  <timebase>24</timebase>
                  <ntsc>FALSE</ntsc>
                </rate>
                <enabled>TRUE</enabled>
                <start>118</start>
                <end>119</end>
                <file id="file-120"/>
              </clipitem>
              <clipitem frameBlend="FALSE" id="clipitem-842">
                <name>Scene - Puppet man_0003.119.png</name>
                <masterclipid>masterclip-121</masterclipid>
                <rate>
                  <timebase>24</timebase>
                  <ntsc>FALSE</ntsc>
                </rate>
                <duration>1</duration>
                <enabled>TRUE</enabled>
                <alphatype>straight</alphatype>
                <rate>
                  <timebase>24</timebase>
                  <ntsc>FALSE</ntsc>
                </rate>
                <enabled>TRUE</enabled>
                <start>119</start>
                <end>120</end>
                <file id="file-121"/>
              </clipitem>
              <clipitem frameBlend="FALSE" id="clipitem-843">
                <name>Scene - Puppet man_0003.120.png</name>
                <masterclipid>masterclip-122</masterclipid>
                <rate>
                  <timebase>24</timebase>
                  <ntsc>FALSE</ntsc>
                </rate>
                <duration>1</duration>
                <enabled>TRUE</enabled>
                <alphatype>straight</alphatype>
                <rate>
                  <timebase>24</timebase>
                  <ntsc>FALSE</ntsc>
                </rate>
                <enabled>TRUE</enabled>
                <start>120</start>
                <end>121</end>
                <file id="file-122"/>
              </clipitem>
              <clipitem frameBlend="FALSE" id="clipitem-844">
                <name>Scene - Puppet man_0003.121.png</name>
                <masterclipid>masterclip-123</masterclipid>
                <rate>
                  <timebase>24</timebase>
                  <ntsc>FALSE</ntsc>
                </rate>
                <duration>1</duration>
                <enabled>TRUE</enabled>
                <alphatype>straight</alphatype>
                <rate>
                  <timebase>24</timebase>
                  <ntsc>FALSE</ntsc>
                </rate>
                <enabled>TRUE</enabled>
                <start>121</start>
                <end>122</end>
                <file id="file-123"/>
              </clipitem>
              <clipitem frameBlend="FALSE" id="clipitem-845">
                <name>Scene - Puppet man_0003.122.png</name>
                <masterclipid>masterclip-124</masterclipid>
                <rate>
                  <timebase>24</timebase>
                  <ntsc>FALSE</ntsc>
                </rate>
                <duration>1</duration>
                <enabled>TRUE</enabled>
                <alphatype>straight</alphatype>
                <rate>
                  <timebase>24</timebase>
                  <ntsc>FALSE</ntsc>
                </rate>
                <enabled>TRUE</enabled>
                <start>122</start>
                <end>123</end>
                <file id="file-124"/>
              </clipitem>
              <clipitem frameBlend="FALSE" id="clipitem-846">
                <name>Scene - Puppet man_0003.123.png</name>
                <masterclipid>masterclip-125</masterclipid>
                <rate>
                  <timebase>24</timebase>
                  <ntsc>FALSE</ntsc>
                </rate>
                <duration>1</duration>
                <enabled>TRUE</enabled>
                <alphatype>straight</alphatype>
                <rate>
                  <timebase>24</timebase>
                  <ntsc>FALSE</ntsc>
                </rate>
                <enabled>TRUE</enabled>
                <start>123</start>
                <end>124</end>
                <file id="file-125"/>
              </clipitem>
              <clipitem frameBlend="FALSE" id="clipitem-847">
                <name>Scene - Puppet man_0003.124.png</name>
                <masterclipid>masterclip-126</masterclipid>
                <rate>
                  <timebase>24</timebase>
                  <ntsc>FALSE</ntsc>
                </rate>
                <duration>1</duration>
                <enabled>TRUE</enabled>
                <alphatype>straight</alphatype>
                <rate>
                  <timebase>24</timebase>
                  <ntsc>FALSE</ntsc>
                </rate>
                <enabled>TRUE</enabled>
                <start>124</start>
                <end>125</end>
                <file id="file-126"/>
              </clipitem>
              <clipitem frameBlend="FALSE" id="clipitem-848">
                <name>Scene - Puppet man_0003.125.png</name>
                <masterclipid>masterclip-127</masterclipid>
                <rate>
                  <timebase>24</timebase>
                  <ntsc>FALSE</ntsc>
                </rate>
                <duration>1</duration>
                <enabled>TRUE</enabled>
                <alphatype>straight</alphatype>
                <rate>
                  <timebase>24</timebase>
                  <ntsc>FALSE</ntsc>
                </rate>
                <enabled>TRUE</enabled>
                <start>125</start>
                <end>126</end>
                <file id="file-127"/>
              </clipitem>
              <clipitem frameBlend="FALSE" id="clipitem-849">
                <name>Scene - Puppet man_0003.126.png</name>
                <masterclipid>masterclip-128</masterclipid>
                <rate>
                  <timebase>24</timebase>
                  <ntsc>FALSE</ntsc>
                </rate>
                <duration>1</duration>
                <enabled>TRUE</enabled>
                <alphatype>straight</alphatype>
                <rate>
                  <timebase>24</timebase>
                  <ntsc>FALSE</ntsc>
                </rate>
                <enabled>TRUE</enabled>
                <start>126</start>
                <end>127</end>
                <file id="file-128"/>
              </clipitem>
              <clipitem frameBlend="FALSE" id="clipitem-850">
                <name>Scene - Puppet man_0003.127.png</name>
                <masterclipid>masterclip-129</masterclipid>
                <rate>
                  <timebase>24</timebase>
                  <ntsc>FALSE</ntsc>
                </rate>
                <duration>1</duration>
                <enabled>TRUE</enabled>
                <alphatype>straight</alphatype>
                <rate>
                  <timebase>24</timebase>
                  <ntsc>FALSE</ntsc>
                </rate>
                <enabled>TRUE</enabled>
                <start>127</start>
                <end>128</end>
                <file id="file-129"/>
              </clipitem>
              <clipitem frameBlend="FALSE" id="clipitem-851">
                <name>Scene - Puppet man_0003.128.png</name>
                <masterclipid>masterclip-130</masterclipid>
                <rate>
                  <timebase>24</timebase>
                  <ntsc>FALSE</ntsc>
                </rate>
                <duration>1</duration>
                <enabled>TRUE</enabled>
                <alphatype>straight</alphatype>
                <rate>
                  <timebase>24</timebase>
                  <ntsc>FALSE</ntsc>
                </rate>
                <enabled>TRUE</enabled>
                <start>128</start>
                <end>129</end>
                <file id="file-130"/>
              </clipitem>
              <clipitem frameBlend="FALSE" id="clipitem-852">
                <name>Scene - Puppet man_0003.129.png</name>
                <masterclipid>masterclip-131</masterclipid>
                <rate>
                  <timebase>24</timebase>
                  <ntsc>FALSE</ntsc>
                </rate>
                <duration>1</duration>
                <enabled>TRUE</enabled>
                <alphatype>straight</alphatype>
                <rate>
                  <timebase>24</timebase>
                  <ntsc>FALSE</ntsc>
                </rate>
                <enabled>TRUE</enabled>
                <start>129</start>
                <end>130</end>
                <file id="file-131"/>
              </clipitem>
              <clipitem frameBlend="FALSE" id="clipitem-853">
                <name>Scene - Puppet man_0003.130.png</name>
                <masterclipid>masterclip-132</masterclipid>
                <rate>
                  <timebase>24</timebase>
                  <ntsc>FALSE</ntsc>
                </rate>
                <duration>1</duration>
                <enabled>TRUE</enabled>
                <alphatype>straight</alphatype>
                <rate>
                  <timebase>24</timebase>
                  <ntsc>FALSE</ntsc>
                </rate>
                <enabled>TRUE</enabled>
                <start>130</start>
                <end>131</end>
                <file id="file-132"/>
              </clipitem>
              <clipitem frameBlend="FALSE" id="clipitem-854">
                <name>Scene - Puppet man_0003.131.png</name>
                <masterclipid>masterclip-133</masterclipid>
                <rate>
                  <timebase>24</timebase>
                  <ntsc>FALSE</ntsc>
                </rate>
                <duration>1</duration>
                <enabled>TRUE</enabled>
                <alphatype>straight</alphatype>
                <rate>
                  <timebase>24</timebase>
                  <ntsc>FALSE</ntsc>
                </rate>
                <enabled>TRUE</enabled>
                <start>131</start>
                <end>132</end>
                <file id="file-133"/>
              </clipitem>
              <clipitem frameBlend="FALSE" id="clipitem-855">
                <name>Scene - Puppet man_0003.132.png</name>
                <masterclipid>masterclip-134</masterclipid>
                <rate>
                  <timebase>24</timebase>
                  <ntsc>FALSE</ntsc>
                </rate>
                <duration>1</duration>
                <enabled>TRUE</enabled>
                <alphatype>straight</alphatype>
                <rate>
                  <timebase>24</timebase>
                  <ntsc>FALSE</ntsc>
                </rate>
                <enabled>TRUE</enabled>
                <start>132</start>
                <end>133</end>
                <file id="file-134"/>
              </clipitem>
              <clipitem frameBlend="FALSE" id="clipitem-856">
                <name>Scene - Puppet man_0003.133.png</name>
                <masterclipid>masterclip-135</masterclipid>
                <rate>
                  <timebase>24</timebase>
                  <ntsc>FALSE</ntsc>
                </rate>
                <duration>1</duration>
                <enabled>TRUE</enabled>
                <alphatype>straight</alphatype>
                <rate>
                  <timebase>24</timebase>
                  <ntsc>FALSE</ntsc>
                </rate>
                <enabled>TRUE</enabled>
                <start>133</start>
                <end>134</end>
                <file id="file-135"/>
              </clipitem>
              <clipitem frameBlend="FALSE" id="clipitem-857">
                <name>Scene - Puppet man_0003.134.png</name>
                <masterclipid>masterclip-136</masterclipid>
                <rate>
                  <timebase>24</timebase>
                  <ntsc>FALSE</ntsc>
                </rate>
                <duration>1</duration>
                <enabled>TRUE</enabled>
                <alphatype>straight</alphatype>
                <rate>
                  <timebase>24</timebase>
                  <ntsc>FALSE</ntsc>
                </rate>
                <enabled>TRUE</enabled>
                <start>134</start>
                <end>135</end>
                <file id="file-136"/>
              </clipitem>
              <clipitem frameBlend="FALSE" id="clipitem-858">
                <name>Scene - Puppet man_0003.135.png</name>
                <masterclipid>masterclip-137</masterclipid>
                <rate>
                  <timebase>24</timebase>
                  <ntsc>FALSE</ntsc>
                </rate>
                <duration>1</duration>
                <enabled>TRUE</enabled>
                <alphatype>straight</alphatype>
                <rate>
                  <timebase>24</timebase>
                  <ntsc>FALSE</ntsc>
                </rate>
                <enabled>TRUE</enabled>
                <start>135</start>
                <end>136</end>
                <file id="file-137"/>
              </clipitem>
              <clipitem frameBlend="FALSE" id="clipitem-859">
                <name>Scene - Puppet man_0003.136.png</name>
                <masterclipid>masterclip-138</masterclipid>
                <rate>
                  <timebase>24</timebase>
                  <ntsc>FALSE</ntsc>
                </rate>
                <duration>1</duration>
                <enabled>TRUE</enabled>
                <alphatype>straight</alphatype>
                <rate>
                  <timebase>24</timebase>
                  <ntsc>FALSE</ntsc>
                </rate>
                <enabled>TRUE</enabled>
                <start>136</start>
                <end>137</end>
                <file id="file-138"/>
              </clipitem>
              <clipitem frameBlend="FALSE" id="clipitem-860">
                <name>Scene - Puppet man_0003.137.png</name>
                <masterclipid>masterclip-139</masterclipid>
                <rate>
                  <timebase>24</timebase>
                  <ntsc>FALSE</ntsc>
                </rate>
                <duration>1</duration>
                <enabled>TRUE</enabled>
                <alphatype>straight</alphatype>
                <rate>
                  <timebase>24</timebase>
                  <ntsc>FALSE</ntsc>
                </rate>
                <enabled>TRUE</enabled>
                <start>137</start>
                <end>138</end>
                <file id="file-139"/>
              </clipitem>
              <clipitem frameBlend="FALSE" id="clipitem-861">
                <name>Scene - Puppet man_0003.138.png</name>
                <masterclipid>masterclip-140</masterclipid>
                <rate>
                  <timebase>24</timebase>
                  <ntsc>FALSE</ntsc>
                </rate>
                <duration>1</duration>
                <enabled>TRUE</enabled>
                <alphatype>straight</alphatype>
                <rate>
                  <timebase>24</timebase>
                  <ntsc>FALSE</ntsc>
                </rate>
                <enabled>TRUE</enabled>
                <start>138</start>
                <end>139</end>
                <file id="file-140"/>
              </clipitem>
              <clipitem frameBlend="FALSE" id="clipitem-862">
                <name>Scene - Puppet man_0003.139.png</name>
                <masterclipid>masterclip-141</masterclipid>
                <rate>
                  <timebase>24</timebase>
                  <ntsc>FALSE</ntsc>
                </rate>
                <duration>1</duration>
                <enabled>TRUE</enabled>
                <alphatype>straight</alphatype>
                <rate>
                  <timebase>24</timebase>
                  <ntsc>FALSE</ntsc>
                </rate>
                <enabled>TRUE</enabled>
                <start>139</start>
                <end>140</end>
                <file id="file-141"/>
              </clipitem>
              <clipitem frameBlend="FALSE" id="clipitem-863">
                <name>Scene - Puppet man_0003.140.png</name>
                <masterclipid>masterclip-142</masterclipid>
                <rate>
                  <timebase>24</timebase>
                  <ntsc>FALSE</ntsc>
                </rate>
                <duration>1</duration>
                <enabled>TRUE</enabled>
                <alphatype>straight</alphatype>
                <rate>
                  <timebase>24</timebase>
                  <ntsc>FALSE</ntsc>
                </rate>
                <enabled>TRUE</enabled>
                <start>140</start>
                <end>141</end>
                <file id="file-142"/>
              </clipitem>
              <clipitem frameBlend="FALSE" id="clipitem-864">
                <name>Scene - Puppet man_0003.141.png</name>
                <masterclipid>masterclip-143</masterclipid>
                <rate>
                  <timebase>24</timebase>
                  <ntsc>FALSE</ntsc>
                </rate>
                <duration>1</duration>
                <enabled>TRUE</enabled>
                <alphatype>straight</alphatype>
                <rate>
                  <timebase>24</timebase>
                  <ntsc>FALSE</ntsc>
                </rate>
                <enabled>TRUE</enabled>
                <start>141</start>
                <end>142</end>
                <file id="file-143"/>
              </clipitem>
              <clipitem frameBlend="FALSE" id="clipitem-865">
                <name>Scene - Puppet man_0003.142.png</name>
                <masterclipid>masterclip-144</masterclipid>
                <rate>
                  <timebase>24</timebase>
                  <ntsc>FALSE</ntsc>
                </rate>
                <duration>1</duration>
                <enabled>TRUE</enabled>
                <alphatype>straight</alphatype>
                <rate>
                  <timebase>24</timebase>
                  <ntsc>FALSE</ntsc>
                </rate>
                <enabled>TRUE</enabled>
                <start>142</start>
                <end>143</end>
                <file id="file-144"/>
              </clipitem>
              <clipitem frameBlend="FALSE" id="clipitem-866">
                <name>Scene - Puppet man_0003.143.png</name>
                <masterclipid>masterclip-145</masterclipid>
                <rate>
                  <timebase>24</timebase>
                  <ntsc>FALSE</ntsc>
                </rate>
                <duration>1</duration>
                <enabled>TRUE</enabled>
                <alphatype>straight</alphatype>
                <rate>
                  <timebase>24</timebase>
                  <ntsc>FALSE</ntsc>
                </rate>
                <enabled>TRUE</enabled>
                <start>143</start>
                <end>144</end>
                <file id="file-145"/>
              </clipitem>
              <clipitem frameBlend="FALSE" id="clipitem-867">
                <name>Scene - Puppet man_0003.144.png</name>
                <masterclipid>masterclip-146</masterclipid>
                <rate>
                  <timebase>24</timebase>
                  <ntsc>FALSE</ntsc>
                </rate>
                <duration>1</duration>
                <enabled>TRUE</enabled>
                <alphatype>straight</alphatype>
                <rate>
                  <timebase>24</timebase>
                  <ntsc>FALSE</ntsc>
                </rate>
                <enabled>TRUE</enabled>
                <start>144</start>
                <end>145</end>
                <file id="file-146"/>
              </clipitem>
              <clipitem frameBlend="FALSE" id="clipitem-868">
                <name>Scene - Puppet man_0003.145.png</name>
                <masterclipid>masterclip-147</masterclipid>
                <rate>
                  <timebase>24</timebase>
                  <ntsc>FALSE</ntsc>
                </rate>
                <duration>1</duration>
                <enabled>TRUE</enabled>
                <alphatype>straight</alphatype>
                <rate>
                  <timebase>24</timebase>
                  <ntsc>FALSE</ntsc>
                </rate>
                <enabled>TRUE</enabled>
                <start>145</start>
                <end>146</end>
                <file id="file-147"/>
              </clipitem>
              <clipitem frameBlend="FALSE" id="clipitem-869">
                <name>Scene - Puppet man_0003.146.png</name>
                <masterclipid>masterclip-148</masterclipid>
                <rate>
                  <timebase>24</timebase>
                  <ntsc>FALSE</ntsc>
                </rate>
                <duration>1</duration>
                <enabled>TRUE</enabled>
                <alphatype>straight</alphatype>
                <rate>
                  <timebase>24</timebase>
                  <ntsc>FALSE</ntsc>
                </rate>
                <enabled>TRUE</enabled>
                <start>146</start>
                <end>147</end>
                <file id="file-148"/>
              </clipitem>
              <clipitem frameBlend="FALSE" id="clipitem-870">
                <name>Scene - Puppet man_0003.147.png</name>
                <masterclipid>masterclip-149</masterclipid>
                <rate>
                  <timebase>24</timebase>
                  <ntsc>FALSE</ntsc>
                </rate>
                <duration>1</duration>
                <enabled>TRUE</enabled>
                <alphatype>straight</alphatype>
                <rate>
                  <timebase>24</timebase>
                  <ntsc>FALSE</ntsc>
                </rate>
                <enabled>TRUE</enabled>
                <start>147</start>
                <end>148</end>
                <file id="file-149"/>
              </clipitem>
              <clipitem frameBlend="FALSE" id="clipitem-871">
                <name>Scene - Puppet man_0003.148.png</name>
                <masterclipid>masterclip-150</masterclipid>
                <rate>
                  <timebase>24</timebase>
                  <ntsc>FALSE</ntsc>
                </rate>
                <duration>1</duration>
                <enabled>TRUE</enabled>
                <alphatype>straight</alphatype>
                <rate>
                  <timebase>24</timebase>
                  <ntsc>FALSE</ntsc>
                </rate>
                <enabled>TRUE</enabled>
                <start>148</start>
                <end>149</end>
                <file id="file-150"/>
              </clipitem>
              <clipitem frameBlend="FALSE" id="clipitem-872">
                <name>Scene - Puppet man_0003.149.png</name>
                <masterclipid>masterclip-151</masterclipid>
                <rate>
                  <timebase>24</timebase>
                  <ntsc>FALSE</ntsc>
                </rate>
                <duration>1</duration>
                <enabled>TRUE</enabled>
                <alphatype>straight</alphatype>
                <rate>
                  <timebase>24</timebase>
                  <ntsc>FALSE</ntsc>
                </rate>
                <enabled>TRUE</enabled>
                <start>149</start>
                <end>150</end>
                <file id="file-151"/>
              </clipitem>
              <clipitem frameBlend="FALSE" id="clipitem-873">
                <name>Scene - Puppet man_0003.150.png</name>
                <masterclipid>masterclip-152</masterclipid>
                <rate>
                  <timebase>24</timebase>
                  <ntsc>FALSE</ntsc>
                </rate>
                <duration>1</duration>
                <enabled>TRUE</enabled>
                <alphatype>straight</alphatype>
                <rate>
                  <timebase>24</timebase>
                  <ntsc>FALSE</ntsc>
                </rate>
                <enabled>TRUE</enabled>
                <start>150</start>
                <end>151</end>
                <file id="file-152"/>
              </clipitem>
              <clipitem frameBlend="FALSE" id="clipitem-874">
                <name>Scene - Puppet man_0003.151.png</name>
                <masterclipid>masterclip-153</masterclipid>
                <rate>
                  <timebase>24</timebase>
                  <ntsc>FALSE</ntsc>
                </rate>
                <duration>1</duration>
                <enabled>TRUE</enabled>
                <alphatype>straight</alphatype>
                <rate>
                  <timebase>24</timebase>
                  <ntsc>FALSE</ntsc>
                </rate>
                <enabled>TRUE</enabled>
                <start>151</start>
                <end>152</end>
                <file id="file-153"/>
              </clipitem>
              <clipitem frameBlend="FALSE" id="clipitem-875">
                <name>Scene - Puppet man_0003.152.png</name>
                <masterclipid>masterclip-154</masterclipid>
                <rate>
                  <timebase>24</timebase>
                  <ntsc>FALSE</ntsc>
                </rate>
                <duration>1</duration>
                <enabled>TRUE</enabled>
                <alphatype>straight</alphatype>
                <rate>
                  <timebase>24</timebase>
                  <ntsc>FALSE</ntsc>
                </rate>
                <enabled>TRUE</enabled>
                <start>152</start>
                <end>153</end>
                <file id="file-154"/>
              </clipitem>
              <clipitem frameBlend="FALSE" id="clipitem-876">
                <name>Scene - Puppet man_0003.153.png</name>
                <masterclipid>masterclip-155</masterclipid>
                <rate>
                  <timebase>24</timebase>
                  <ntsc>FALSE</ntsc>
                </rate>
                <duration>1</duration>
                <enabled>TRUE</enabled>
                <alphatype>straight</alphatype>
                <rate>
                  <timebase>24</timebase>
                  <ntsc>FALSE</ntsc>
                </rate>
                <enabled>TRUE</enabled>
                <start>153</start>
                <end>154</end>
                <file id="file-155"/>
              </clipitem>
              <clipitem frameBlend="FALSE" id="clipitem-877">
                <name>Scene - Puppet man_0003.154.png</name>
                <masterclipid>masterclip-156</masterclipid>
                <rate>
                  <timebase>24</timebase>
                  <ntsc>FALSE</ntsc>
                </rate>
                <duration>1</duration>
                <enabled>TRUE</enabled>
                <alphatype>straight</alphatype>
                <rate>
                  <timebase>24</timebase>
                  <ntsc>FALSE</ntsc>
                </rate>
                <enabled>TRUE</enabled>
                <start>154</start>
                <end>155</end>
                <file id="file-156"/>
              </clipitem>
              <clipitem frameBlend="FALSE" id="clipitem-878">
                <name>Scene - Puppet man_0003.155.png</name>
                <masterclipid>masterclip-157</masterclipid>
                <rate>
                  <timebase>24</timebase>
                  <ntsc>FALSE</ntsc>
                </rate>
                <duration>1</duration>
                <enabled>TRUE</enabled>
                <alphatype>straight</alphatype>
                <rate>
                  <timebase>24</timebase>
                  <ntsc>FALSE</ntsc>
                </rate>
                <enabled>TRUE</enabled>
                <start>155</start>
                <end>156</end>
                <file id="file-157"/>
              </clipitem>
              <clipitem frameBlend="FALSE" id="clipitem-879">
                <name>Scene - Puppet man_0003.156.png</name>
                <masterclipid>masterclip-158</masterclipid>
                <rate>
                  <timebase>24</timebase>
                  <ntsc>FALSE</ntsc>
                </rate>
                <duration>1</duration>
                <enabled>TRUE</enabled>
                <alphatype>straight</alphatype>
                <rate>
                  <timebase>24</timebase>
                  <ntsc>FALSE</ntsc>
                </rate>
                <enabled>TRUE</enabled>
                <start>156</start>
                <end>157</end>
                <file id="file-158"/>
              </clipitem>
              <clipitem frameBlend="FALSE" id="clipitem-880">
                <name>Scene - Puppet man_0003.157.png</name>
                <masterclipid>masterclip-159</masterclipid>
                <rate>
                  <timebase>24</timebase>
                  <ntsc>FALSE</ntsc>
                </rate>
                <duration>1</duration>
                <enabled>TRUE</enabled>
                <alphatype>straight</alphatype>
                <rate>
                  <timebase>24</timebase>
                  <ntsc>FALSE</ntsc>
                </rate>
                <enabled>TRUE</enabled>
                <start>157</start>
                <end>158</end>
                <file id="file-159"/>
              </clipitem>
              <clipitem frameBlend="FALSE" id="clipitem-881">
                <name>Scene - Puppet man_0003.158.png</name>
                <masterclipid>masterclip-160</masterclipid>
                <rate>
                  <timebase>24</timebase>
                  <ntsc>FALSE</ntsc>
                </rate>
                <duration>1</duration>
                <enabled>TRUE</enabled>
                <alphatype>straight</alphatype>
                <rate>
                  <timebase>24</timebase>
                  <ntsc>FALSE</ntsc>
                </rate>
                <enabled>TRUE</enabled>
                <start>158</start>
                <end>159</end>
                <file id="file-160"/>
              </clipitem>
              <clipitem frameBlend="FALSE" id="clipitem-882">
                <name>Scene - Puppet man_0003.159.png</name>
                <masterclipid>masterclip-161</masterclipid>
                <rate>
                  <timebase>24</timebase>
                  <ntsc>FALSE</ntsc>
                </rate>
                <duration>1</duration>
                <enabled>TRUE</enabled>
                <alphatype>straight</alphatype>
                <rate>
                  <timebase>24</timebase>
                  <ntsc>FALSE</ntsc>
                </rate>
                <enabled>TRUE</enabled>
                <start>159</start>
                <end>160</end>
                <file id="file-161"/>
              </clipitem>
              <clipitem frameBlend="FALSE" id="clipitem-883">
                <name>Scene - Puppet man_0003.160.png</name>
                <masterclipid>masterclip-162</masterclipid>
                <rate>
                  <timebase>24</timebase>
                  <ntsc>FALSE</ntsc>
                </rate>
                <duration>1</duration>
                <enabled>TRUE</enabled>
                <alphatype>straight</alphatype>
                <rate>
                  <timebase>24</timebase>
                  <ntsc>FALSE</ntsc>
                </rate>
                <enabled>TRUE</enabled>
                <start>160</start>
                <end>161</end>
                <file id="file-162"/>
              </clipitem>
              <clipitem frameBlend="FALSE" id="clipitem-884">
                <name>Scene - Puppet man_0003.161.png</name>
                <masterclipid>masterclip-163</masterclipid>
                <rate>
                  <timebase>24</timebase>
                  <ntsc>FALSE</ntsc>
                </rate>
                <duration>1</duration>
                <enabled>TRUE</enabled>
                <alphatype>straight</alphatype>
                <rate>
                  <timebase>24</timebase>
                  <ntsc>FALSE</ntsc>
                </rate>
                <enabled>TRUE</enabled>
                <start>161</start>
                <end>162</end>
                <file id="file-163"/>
              </clipitem>
              <clipitem frameBlend="FALSE" id="clipitem-885">
                <name>Scene - Puppet man_0003.162.png</name>
                <masterclipid>masterclip-164</masterclipid>
                <rate>
                  <timebase>24</timebase>
                  <ntsc>FALSE</ntsc>
                </rate>
                <duration>1</duration>
                <enabled>TRUE</enabled>
                <alphatype>straight</alphatype>
                <rate>
                  <timebase>24</timebase>
                  <ntsc>FALSE</ntsc>
                </rate>
                <enabled>TRUE</enabled>
                <start>162</start>
                <end>163</end>
                <file id="file-164"/>
              </clipitem>
              <clipitem frameBlend="FALSE" id="clipitem-886">
                <name>Scene - Puppet man_0003.163.png</name>
                <masterclipid>masterclip-165</masterclipid>
                <rate>
                  <timebase>24</timebase>
                  <ntsc>FALSE</ntsc>
                </rate>
                <duration>1</duration>
                <enabled>TRUE</enabled>
                <alphatype>straight</alphatype>
                <rate>
                  <timebase>24</timebase>
                  <ntsc>FALSE</ntsc>
                </rate>
                <enabled>TRUE</enabled>
                <start>163</start>
                <end>164</end>
                <file id="file-165"/>
              </clipitem>
              <clipitem frameBlend="FALSE" id="clipitem-887">
                <name>Scene - Puppet man_0003.164.png</name>
                <masterclipid>masterclip-166</masterclipid>
                <rate>
                  <timebase>24</timebase>
                  <ntsc>FALSE</ntsc>
                </rate>
                <duration>1</duration>
                <enabled>TRUE</enabled>
                <alphatype>straight</alphatype>
                <rate>
                  <timebase>24</timebase>
                  <ntsc>FALSE</ntsc>
                </rate>
                <enabled>TRUE</enabled>
                <start>164</start>
                <end>165</end>
                <file id="file-166"/>
              </clipitem>
              <clipitem frameBlend="FALSE" id="clipitem-888">
                <name>Scene - Puppet man_0003.165.png</name>
                <masterclipid>masterclip-167</masterclipid>
                <rate>
                  <timebase>24</timebase>
                  <ntsc>FALSE</ntsc>
                </rate>
                <duration>1</duration>
                <enabled>TRUE</enabled>
                <alphatype>straight</alphatype>
                <rate>
                  <timebase>24</timebase>
                  <ntsc>FALSE</ntsc>
                </rate>
                <enabled>TRUE</enabled>
                <start>165</start>
                <end>166</end>
                <file id="file-167"/>
              </clipitem>
              <clipitem frameBlend="FALSE" id="clipitem-889">
                <name>Scene - Puppet man_0003.166.png</name>
                <masterclipid>masterclip-168</masterclipid>
                <rate>
                  <timebase>24</timebase>
                  <ntsc>FALSE</ntsc>
                </rate>
                <duration>1</duration>
                <enabled>TRUE</enabled>
                <alphatype>straight</alphatype>
                <rate>
                  <timebase>24</timebase>
                  <ntsc>FALSE</ntsc>
                </rate>
                <enabled>TRUE</enabled>
                <start>166</start>
                <end>167</end>
                <file id="file-168"/>
              </clipitem>
              <clipitem frameBlend="FALSE" id="clipitem-890">
                <name>Scene - Puppet man_0003.167.png</name>
                <masterclipid>masterclip-169</masterclipid>
                <rate>
                  <timebase>24</timebase>
                  <ntsc>FALSE</ntsc>
                </rate>
                <duration>1</duration>
                <enabled>TRUE</enabled>
                <alphatype>straight</alphatype>
                <rate>
                  <timebase>24</timebase>
                  <ntsc>FALSE</ntsc>
                </rate>
                <enabled>TRUE</enabled>
                <start>167</start>
                <end>168</end>
                <file id="file-169"/>
              </clipitem>
              <clipitem frameBlend="FALSE" id="clipitem-891">
                <name>Scene - Puppet man_0003.168.png</name>
                <masterclipid>masterclip-170</masterclipid>
                <rate>
                  <timebase>24</timebase>
                  <ntsc>FALSE</ntsc>
                </rate>
                <duration>1</duration>
                <enabled>TRUE</enabled>
                <alphatype>straight</alphatype>
                <rate>
                  <timebase>24</timebase>
                  <ntsc>FALSE</ntsc>
                </rate>
                <enabled>TRUE</enabled>
                <start>168</start>
                <end>169</end>
                <file id="file-170"/>
              </clipitem>
              <clipitem frameBlend="FALSE" id="clipitem-892">
                <name>Scene - Puppet man_0003.169.png</name>
                <masterclipid>masterclip-171</masterclipid>
                <rate>
                  <timebase>24</timebase>
                  <ntsc>FALSE</ntsc>
                </rate>
                <duration>1</duration>
                <enabled>TRUE</enabled>
                <alphatype>straight</alphatype>
                <rate>
                  <timebase>24</timebase>
                  <ntsc>FALSE</ntsc>
                </rate>
                <enabled>TRUE</enabled>
                <start>169</start>
                <end>170</end>
                <file id="file-171"/>
              </clipitem>
              <clipitem frameBlend="FALSE" id="clipitem-893">
                <name>Scene - Puppet man_0003.170.png</name>
                <masterclipid>masterclip-172</masterclipid>
                <rate>
                  <timebase>24</timebase>
                  <ntsc>FALSE</ntsc>
                </rate>
                <duration>1</duration>
                <enabled>TRUE</enabled>
                <alphatype>straight</alphatype>
                <rate>
                  <timebase>24</timebase>
                  <ntsc>FALSE</ntsc>
                </rate>
                <enabled>TRUE</enabled>
                <start>170</start>
                <end>171</end>
                <file id="file-172"/>
              </clipitem>
              <clipitem frameBlend="FALSE" id="clipitem-894">
                <name>Scene - Puppet man_0003.171.png</name>
                <masterclipid>masterclip-173</masterclipid>
                <rate>
                  <timebase>24</timebase>
                  <ntsc>FALSE</ntsc>
                </rate>
                <duration>1</duration>
                <enabled>TRUE</enabled>
                <alphatype>straight</alphatype>
                <rate>
                  <timebase>24</timebase>
                  <ntsc>FALSE</ntsc>
                </rate>
                <enabled>TRUE</enabled>
                <start>171</start>
                <end>172</end>
                <file id="file-173"/>
              </clipitem>
              <clipitem frameBlend="FALSE" id="clipitem-895">
                <name>Scene - Puppet man_0003.172.png</name>
                <masterclipid>masterclip-174</masterclipid>
                <rate>
                  <timebase>24</timebase>
                  <ntsc>FALSE</ntsc>
                </rate>
                <duration>1</duration>
                <enabled>TRUE</enabled>
                <alphatype>straight</alphatype>
                <rate>
                  <timebase>24</timebase>
                  <ntsc>FALSE</ntsc>
                </rate>
                <enabled>TRUE</enabled>
                <start>172</start>
                <end>173</end>
                <file id="file-174"/>
              </clipitem>
              <clipitem frameBlend="FALSE" id="clipitem-896">
                <name>Scene - Puppet man_0003.173.png</name>
                <masterclipid>masterclip-175</masterclipid>
                <rate>
                  <timebase>24</timebase>
                  <ntsc>FALSE</ntsc>
                </rate>
                <duration>1</duration>
                <enabled>TRUE</enabled>
                <alphatype>straight</alphatype>
                <rate>
                  <timebase>24</timebase>
                  <ntsc>FALSE</ntsc>
                </rate>
                <enabled>TRUE</enabled>
                <start>173</start>
                <end>174</end>
                <file id="file-175"/>
              </clipitem>
              <clipitem frameBlend="FALSE" id="clipitem-897">
                <name>Scene - Puppet man_0003.174.png</name>
                <masterclipid>masterclip-176</masterclipid>
                <rate>
                  <timebase>24</timebase>
                  <ntsc>FALSE</ntsc>
                </rate>
                <duration>1</duration>
                <enabled>TRUE</enabled>
                <alphatype>straight</alphatype>
                <rate>
                  <timebase>24</timebase>
                  <ntsc>FALSE</ntsc>
                </rate>
                <enabled>TRUE</enabled>
                <start>174</start>
                <end>175</end>
                <file id="file-176"/>
              </clipitem>
              <clipitem frameBlend="FALSE" id="clipitem-898">
                <name>Scene - Puppet man_0003.175.png</name>
                <masterclipid>masterclip-177</masterclipid>
                <rate>
                  <timebase>24</timebase>
                  <ntsc>FALSE</ntsc>
                </rate>
                <duration>1</duration>
                <enabled>TRUE</enabled>
                <alphatype>straight</alphatype>
                <rate>
                  <timebase>24</timebase>
                  <ntsc>FALSE</ntsc>
                </rate>
                <enabled>TRUE</enabled>
                <start>175</start>
                <end>176</end>
                <file id="file-177"/>
              </clipitem>
              <clipitem frameBlend="FALSE" id="clipitem-899">
                <name>Scene - Puppet man_0003.176.png</name>
                <masterclipid>masterclip-178</masterclipid>
                <rate>
                  <timebase>24</timebase>
                  <ntsc>FALSE</ntsc>
                </rate>
                <duration>1</duration>
                <enabled>TRUE</enabled>
                <alphatype>straight</alphatype>
                <rate>
                  <timebase>24</timebase>
                  <ntsc>FALSE</ntsc>
                </rate>
                <enabled>TRUE</enabled>
                <start>176</start>
                <end>177</end>
                <file id="file-178"/>
              </clipitem>
              <clipitem frameBlend="FALSE" id="clipitem-900">
                <name>Scene - Puppet man_0003.177.png</name>
                <masterclipid>masterclip-179</masterclipid>
                <rate>
                  <timebase>24</timebase>
                  <ntsc>FALSE</ntsc>
                </rate>
                <duration>1</duration>
                <enabled>TRUE</enabled>
                <alphatype>straight</alphatype>
                <rate>
                  <timebase>24</timebase>
                  <ntsc>FALSE</ntsc>
                </rate>
                <enabled>TRUE</enabled>
                <start>177</start>
                <end>178</end>
                <file id="file-179"/>
              </clipitem>
              <clipitem frameBlend="FALSE" id="clipitem-901">
                <name>Scene - Puppet man_0003.178.png</name>
                <masterclipid>masterclip-180</masterclipid>
                <rate>
                  <timebase>24</timebase>
                  <ntsc>FALSE</ntsc>
                </rate>
                <duration>1</duration>
                <enabled>TRUE</enabled>
                <alphatype>straight</alphatype>
                <rate>
                  <timebase>24</timebase>
                  <ntsc>FALSE</ntsc>
                </rate>
                <enabled>TRUE</enabled>
                <start>178</start>
                <end>179</end>
                <file id="file-180"/>
              </clipitem>
              <clipitem frameBlend="FALSE" id="clipitem-902">
                <name>Scene - Puppet man_0003.179.png</name>
                <masterclipid>masterclip-181</masterclipid>
                <rate>
                  <timebase>24</timebase>
                  <ntsc>FALSE</ntsc>
                </rate>
                <duration>1</duration>
                <enabled>TRUE</enabled>
                <alphatype>straight</alphatype>
                <rate>
                  <timebase>24</timebase>
                  <ntsc>FALSE</ntsc>
                </rate>
                <enabled>TRUE</enabled>
                <start>179</start>
                <end>180</end>
                <file id="file-181"/>
              </clipitem>
              <clipitem frameBlend="FALSE" id="clipitem-903">
                <name>Scene - Puppet man_0003.180.png</name>
                <masterclipid>masterclip-182</masterclipid>
                <rate>
                  <timebase>24</timebase>
                  <ntsc>FALSE</ntsc>
                </rate>
                <duration>1</duration>
                <enabled>TRUE</enabled>
                <alphatype>straight</alphatype>
                <rate>
                  <timebase>24</timebase>
                  <ntsc>FALSE</ntsc>
                </rate>
                <enabled>TRUE</enabled>
                <start>180</start>
                <end>181</end>
                <file id="file-182"/>
              </clipitem>
              <clipitem frameBlend="FALSE" id="clipitem-904">
                <name>Scene - Puppet man_0003.181.png</name>
                <masterclipid>masterclip-183</masterclipid>
                <rate>
                  <timebase>24</timebase>
                  <ntsc>FALSE</ntsc>
                </rate>
                <duration>1</duration>
                <enabled>TRUE</enabled>
                <alphatype>straight</alphatype>
                <rate>
                  <timebase>24</timebase>
                  <ntsc>FALSE</ntsc>
                </rate>
                <enabled>TRUE</enabled>
                <start>181</start>
                <end>182</end>
                <file id="file-183"/>
              </clipitem>
              <clipitem frameBlend="FALSE" id="clipitem-905">
                <name>Scene - Puppet man_0003.182.png</name>
                <masterclipid>masterclip-184</masterclipid>
                <rate>
                  <timebase>24</timebase>
                  <ntsc>FALSE</ntsc>
                </rate>
                <duration>1</duration>
                <enabled>TRUE</enabled>
                <alphatype>straight</alphatype>
                <rate>
                  <timebase>24</timebase>
                  <ntsc>FALSE</ntsc>
                </rate>
                <enabled>TRUE</enabled>
                <start>182</start>
                <end>183</end>
                <file id="file-184"/>
              </clipitem>
              <clipitem frameBlend="FALSE" id="clipitem-906">
                <name>Scene - Puppet man_0003.183.png</name>
                <masterclipid>masterclip-185</masterclipid>
                <rate>
                  <timebase>24</timebase>
                  <ntsc>FALSE</ntsc>
                </rate>
                <duration>1</duration>
                <enabled>TRUE</enabled>
                <alphatype>straight</alphatype>
                <rate>
                  <timebase>24</timebase>
                  <ntsc>FALSE</ntsc>
                </rate>
                <enabled>TRUE</enabled>
                <start>183</start>
                <end>184</end>
                <file id="file-185"/>
              </clipitem>
              <clipitem frameBlend="FALSE" id="clipitem-907">
                <name>Scene - Puppet man_0003.184.png</name>
                <masterclipid>masterclip-186</masterclipid>
                <rate>
                  <timebase>24</timebase>
                  <ntsc>FALSE</ntsc>
                </rate>
                <duration>1</duration>
                <enabled>TRUE</enabled>
                <alphatype>straight</alphatype>
                <rate>
                  <timebase>24</timebase>
                  <ntsc>FALSE</ntsc>
                </rate>
                <enabled>TRUE</enabled>
                <start>184</start>
                <end>185</end>
                <file id="file-186"/>
              </clipitem>
              <clipitem frameBlend="FALSE" id="clipitem-908">
                <name>Scene - Puppet man_0003.185.png</name>
                <masterclipid>masterclip-187</masterclipid>
                <rate>
                  <timebase>24</timebase>
                  <ntsc>FALSE</ntsc>
                </rate>
                <duration>1</duration>
                <enabled>TRUE</enabled>
                <alphatype>straight</alphatype>
                <rate>
                  <timebase>24</timebase>
                  <ntsc>FALSE</ntsc>
                </rate>
                <enabled>TRUE</enabled>
                <start>185</start>
                <end>186</end>
                <file id="file-187"/>
              </clipitem>
              <clipitem frameBlend="FALSE" id="clipitem-909">
                <name>Scene - Puppet man_0003.186.png</name>
                <masterclipid>masterclip-188</masterclipid>
                <rate>
                  <timebase>24</timebase>
                  <ntsc>FALSE</ntsc>
                </rate>
                <duration>1</duration>
                <enabled>TRUE</enabled>
                <alphatype>straight</alphatype>
                <rate>
                  <timebase>24</timebase>
                  <ntsc>FALSE</ntsc>
                </rate>
                <enabled>TRUE</enabled>
                <start>186</start>
                <end>187</end>
                <file id="file-188"/>
              </clipitem>
              <clipitem frameBlend="FALSE" id="clipitem-910">
                <name>Scene - Puppet man_0003.187.png</name>
                <masterclipid>masterclip-189</masterclipid>
                <rate>
                  <timebase>24</timebase>
                  <ntsc>FALSE</ntsc>
                </rate>
                <duration>1</duration>
                <enabled>TRUE</enabled>
                <alphatype>straight</alphatype>
                <rate>
                  <timebase>24</timebase>
                  <ntsc>FALSE</ntsc>
                </rate>
                <enabled>TRUE</enabled>
                <start>187</start>
                <end>188</end>
                <file id="file-189"/>
              </clipitem>
              <clipitem frameBlend="FALSE" id="clipitem-911">
                <name>Scene - Puppet man_0003.188.png</name>
                <masterclipid>masterclip-190</masterclipid>
                <rate>
                  <timebase>24</timebase>
                  <ntsc>FALSE</ntsc>
                </rate>
                <duration>1</duration>
                <enabled>TRUE</enabled>
                <alphatype>straight</alphatype>
                <rate>
                  <timebase>24</timebase>
                  <ntsc>FALSE</ntsc>
                </rate>
                <enabled>TRUE</enabled>
                <start>188</start>
                <end>189</end>
                <file id="file-190"/>
              </clipitem>
              <clipitem frameBlend="FALSE" id="clipitem-912">
                <name>Scene - Puppet man_0003.189.png</name>
                <masterclipid>masterclip-191</masterclipid>
                <rate>
                  <timebase>24</timebase>
                  <ntsc>FALSE</ntsc>
                </rate>
                <duration>1</duration>
                <enabled>TRUE</enabled>
                <alphatype>straight</alphatype>
                <rate>
                  <timebase>24</timebase>
                  <ntsc>FALSE</ntsc>
                </rate>
                <enabled>TRUE</enabled>
                <start>189</start>
                <end>190</end>
                <file id="file-191"/>
              </clipitem>
              <clipitem frameBlend="FALSE" id="clipitem-913">
                <name>Scene - Puppet man_0003.190.png</name>
                <masterclipid>masterclip-192</masterclipid>
                <rate>
                  <timebase>24</timebase>
                  <ntsc>FALSE</ntsc>
                </rate>
                <duration>1</duration>
                <enabled>TRUE</enabled>
                <alphatype>straight</alphatype>
                <rate>
                  <timebase>24</timebase>
                  <ntsc>FALSE</ntsc>
                </rate>
                <enabled>TRUE</enabled>
                <start>190</start>
                <end>191</end>
                <file id="file-192"/>
              </clipitem>
              <clipitem frameBlend="FALSE" id="clipitem-914">
                <name>Scene - Puppet man_0003.191.png</name>
                <masterclipid>masterclip-193</masterclipid>
                <rate>
                  <timebase>24</timebase>
                  <ntsc>FALSE</ntsc>
                </rate>
                <duration>1</duration>
                <enabled>TRUE</enabled>
                <alphatype>straight</alphatype>
                <rate>
                  <timebase>24</timebase>
                  <ntsc>FALSE</ntsc>
                </rate>
                <enabled>TRUE</enabled>
                <start>191</start>
                <end>192</end>
                <file id="file-193"/>
              </clipitem>
              <clipitem frameBlend="FALSE" id="clipitem-915">
                <name>Scene - Puppet man_0003.192.png</name>
                <masterclipid>masterclip-194</masterclipid>
                <rate>
                  <timebase>24</timebase>
                  <ntsc>FALSE</ntsc>
                </rate>
                <duration>1</duration>
                <enabled>TRUE</enabled>
                <alphatype>straight</alphatype>
                <rate>
                  <timebase>24</timebase>
                  <ntsc>FALSE</ntsc>
                </rate>
                <enabled>TRUE</enabled>
                <start>192</start>
                <end>193</end>
                <file id="file-194"/>
              </clipitem>
              <clipitem frameBlend="FALSE" id="clipitem-916">
                <name>Scene - Puppet man_0003.193.png</name>
                <masterclipid>masterclip-195</masterclipid>
                <rate>
                  <timebase>24</timebase>
                  <ntsc>FALSE</ntsc>
                </rate>
                <duration>1</duration>
                <enabled>TRUE</enabled>
                <alphatype>straight</alphatype>
                <rate>
                  <timebase>24</timebase>
                  <ntsc>FALSE</ntsc>
                </rate>
                <enabled>TRUE</enabled>
                <start>193</start>
                <end>194</end>
                <file id="file-195"/>
              </clipitem>
              <clipitem frameBlend="FALSE" id="clipitem-917">
                <name>Scene - Puppet man_0003.194.png</name>
                <masterclipid>masterclip-196</masterclipid>
                <rate>
                  <timebase>24</timebase>
                  <ntsc>FALSE</ntsc>
                </rate>
                <duration>1</duration>
                <enabled>TRUE</enabled>
                <alphatype>straight</alphatype>
                <rate>
                  <timebase>24</timebase>
                  <ntsc>FALSE</ntsc>
                </rate>
                <enabled>TRUE</enabled>
                <start>194</start>
                <end>195</end>
                <file id="file-196"/>
              </clipitem>
              <clipitem frameBlend="FALSE" id="clipitem-918">
                <name>Scene - Puppet man_0003.195.png</name>
                <masterclipid>masterclip-197</masterclipid>
                <rate>
                  <timebase>24</timebase>
                  <ntsc>FALSE</ntsc>
                </rate>
                <duration>1</duration>
                <enabled>TRUE</enabled>
                <alphatype>straight</alphatype>
                <rate>
                  <timebase>24</timebase>
                  <ntsc>FALSE</ntsc>
                </rate>
                <enabled>TRUE</enabled>
                <start>195</start>
                <end>196</end>
                <file id="file-197"/>
              </clipitem>
              <clipitem frameBlend="FALSE" id="clipitem-919">
                <name>Scene - Puppet man_0003.196.png</name>
                <masterclipid>masterclip-198</masterclipid>
                <rate>
                  <timebase>24</timebase>
                  <ntsc>FALSE</ntsc>
                </rate>
                <duration>1</duration>
                <enabled>TRUE</enabled>
                <alphatype>straight</alphatype>
                <rate>
                  <timebase>24</timebase>
                  <ntsc>FALSE</ntsc>
                </rate>
                <enabled>TRUE</enabled>
                <start>196</start>
                <end>197</end>
                <file id="file-198"/>
              </clipitem>
              <clipitem frameBlend="FALSE" id="clipitem-920">
                <name>Scene - Puppet man_0003.197.png</name>
                <masterclipid>masterclip-199</masterclipid>
                <rate>
                  <timebase>24</timebase>
                  <ntsc>FALSE</ntsc>
                </rate>
                <duration>1</duration>
                <enabled>TRUE</enabled>
                <alphatype>straight</alphatype>
                <rate>
                  <timebase>24</timebase>
                  <ntsc>FALSE</ntsc>
                </rate>
                <enabled>TRUE</enabled>
                <start>197</start>
                <end>198</end>
                <file id="file-199"/>
              </clipitem>
              <clipitem frameBlend="FALSE" id="clipitem-921">
                <name>Scene - Puppet man_0003.198.png</name>
                <masterclipid>masterclip-200</masterclipid>
                <rate>
                  <timebase>24</timebase>
                  <ntsc>FALSE</ntsc>
                </rate>
                <duration>1</duration>
                <enabled>TRUE</enabled>
                <alphatype>straight</alphatype>
                <rate>
                  <timebase>24</timebase>
                  <ntsc>FALSE</ntsc>
                </rate>
                <enabled>TRUE</enabled>
                <start>198</start>
                <end>199</end>
                <file id="file-200"/>
              </clipitem>
              <clipitem frameBlend="FALSE" id="clipitem-922">
                <name>Scene - Puppet man_0003.199.png</name>
                <masterclipid>masterclip-201</masterclipid>
                <rate>
                  <timebase>24</timebase>
                  <ntsc>FALSE</ntsc>
                </rate>
                <duration>1</duration>
                <enabled>TRUE</enabled>
                <alphatype>straight</alphatype>
                <rate>
                  <timebase>24</timebase>
                  <ntsc>FALSE</ntsc>
                </rate>
                <enabled>TRUE</enabled>
                <start>199</start>
                <end>200</end>
                <file id="file-201"/>
              </clipitem>
              <clipitem frameBlend="FALSE" id="clipitem-923">
                <name>Scene - Puppet man_0003.200.png</name>
                <masterclipid>masterclip-202</masterclipid>
                <rate>
                  <timebase>24</timebase>
                  <ntsc>FALSE</ntsc>
                </rate>
                <duration>1</duration>
                <enabled>TRUE</enabled>
                <alphatype>straight</alphatype>
                <rate>
                  <timebase>24</timebase>
                  <ntsc>FALSE</ntsc>
                </rate>
                <enabled>TRUE</enabled>
                <start>200</start>
                <end>201</end>
                <file id="file-202"/>
              </clipitem>
              <clipitem frameBlend="FALSE" id="clipitem-924">
                <name>Scene - Puppet man_0003.201.png</name>
                <masterclipid>masterclip-203</masterclipid>
                <rate>
                  <timebase>24</timebase>
                  <ntsc>FALSE</ntsc>
                </rate>
                <duration>1</duration>
                <enabled>TRUE</enabled>
                <alphatype>straight</alphatype>
                <rate>
                  <timebase>24</timebase>
                  <ntsc>FALSE</ntsc>
                </rate>
                <enabled>TRUE</enabled>
                <start>201</start>
                <end>202</end>
                <file id="file-203"/>
              </clipitem>
              <clipitem frameBlend="FALSE" id="clipitem-925">
                <name>Scene - Puppet man_0003.202.png</name>
                <masterclipid>masterclip-204</masterclipid>
                <rate>
                  <timebase>24</timebase>
                  <ntsc>FALSE</ntsc>
                </rate>
                <duration>1</duration>
                <enabled>TRUE</enabled>
                <alphatype>straight</alphatype>
                <rate>
                  <timebase>24</timebase>
                  <ntsc>FALSE</ntsc>
                </rate>
                <enabled>TRUE</enabled>
                <start>202</start>
                <end>203</end>
                <file id="file-204"/>
              </clipitem>
              <clipitem frameBlend="FALSE" id="clipitem-926">
                <name>Scene - Puppet man_0003.203.png</name>
                <masterclipid>masterclip-205</masterclipid>
                <rate>
                  <timebase>24</timebase>
                  <ntsc>FALSE</ntsc>
                </rate>
                <duration>1</duration>
                <enabled>TRUE</enabled>
                <alphatype>straight</alphatype>
                <rate>
                  <timebase>24</timebase>
                  <ntsc>FALSE</ntsc>
                </rate>
                <enabled>TRUE</enabled>
                <start>203</start>
                <end>204</end>
                <file id="file-205"/>
              </clipitem>
              <clipitem frameBlend="FALSE" id="clipitem-927">
                <name>Scene - Puppet man_0003.204.png</name>
                <masterclipid>masterclip-206</masterclipid>
                <rate>
                  <timebase>24</timebase>
                  <ntsc>FALSE</ntsc>
                </rate>
                <duration>1</duration>
                <enabled>TRUE</enabled>
                <alphatype>straight</alphatype>
                <rate>
                  <timebase>24</timebase>
                  <ntsc>FALSE</ntsc>
                </rate>
                <enabled>TRUE</enabled>
                <start>204</start>
                <end>205</end>
                <file id="file-206"/>
              </clipitem>
              <clipitem frameBlend="FALSE" id="clipitem-928">
                <name>Scene - Puppet man_0003.205.png</name>
                <masterclipid>masterclip-207</masterclipid>
                <rate>
                  <timebase>24</timebase>
                  <ntsc>FALSE</ntsc>
                </rate>
                <duration>1</duration>
                <enabled>TRUE</enabled>
                <alphatype>straight</alphatype>
                <rate>
                  <timebase>24</timebase>
                  <ntsc>FALSE</ntsc>
                </rate>
                <enabled>TRUE</enabled>
                <start>205</start>
                <end>206</end>
                <file id="file-207"/>
              </clipitem>
              <clipitem frameBlend="FALSE" id="clipitem-929">
                <name>Scene - Puppet man_0003.206.png</name>
                <masterclipid>masterclip-208</masterclipid>
                <rate>
                  <timebase>24</timebase>
                  <ntsc>FALSE</ntsc>
                </rate>
                <duration>1</duration>
                <enabled>TRUE</enabled>
                <alphatype>straight</alphatype>
                <rate>
                  <timebase>24</timebase>
                  <ntsc>FALSE</ntsc>
                </rate>
                <enabled>TRUE</enabled>
                <start>206</start>
                <end>207</end>
                <file id="file-208"/>
              </clipitem>
              <clipitem frameBlend="FALSE" id="clipitem-930">
                <name>Scene - Puppet man_0003.207.png</name>
                <masterclipid>masterclip-209</masterclipid>
                <rate>
                  <timebase>24</timebase>
                  <ntsc>FALSE</ntsc>
                </rate>
                <duration>1</duration>
                <enabled>TRUE</enabled>
                <alphatype>straight</alphatype>
                <rate>
                  <timebase>24</timebase>
                  <ntsc>FALSE</ntsc>
                </rate>
                <enabled>TRUE</enabled>
                <start>207</start>
                <end>208</end>
                <file id="file-209"/>
              </clipitem>
              <clipitem frameBlend="FALSE" id="clipitem-931">
                <name>Scene - Puppet man_0003.208.png</name>
                <masterclipid>masterclip-210</masterclipid>
                <rate>
                  <timebase>24</timebase>
                  <ntsc>FALSE</ntsc>
                </rate>
                <duration>1</duration>
                <enabled>TRUE</enabled>
                <alphatype>straight</alphatype>
                <rate>
                  <timebase>24</timebase>
                  <ntsc>FALSE</ntsc>
                </rate>
                <enabled>TRUE</enabled>
                <start>208</start>
                <end>209</end>
                <file id="file-210"/>
              </clipitem>
              <clipitem frameBlend="FALSE" id="clipitem-932">
                <name>Scene - Puppet man_0003.209.png</name>
                <masterclipid>masterclip-211</masterclipid>
                <rate>
                  <timebase>24</timebase>
                  <ntsc>FALSE</ntsc>
                </rate>
                <duration>1</duration>
                <enabled>TRUE</enabled>
                <alphatype>straight</alphatype>
                <rate>
                  <timebase>24</timebase>
                  <ntsc>FALSE</ntsc>
                </rate>
                <enabled>TRUE</enabled>
                <start>209</start>
                <end>210</end>
                <file id="file-211"/>
              </clipitem>
              <clipitem frameBlend="FALSE" id="clipitem-933">
                <name>Scene - Puppet man_0003.210.png</name>
                <masterclipid>masterclip-212</masterclipid>
                <rate>
                  <timebase>24</timebase>
                  <ntsc>FALSE</ntsc>
                </rate>
                <duration>1</duration>
                <enabled>TRUE</enabled>
                <alphatype>straight</alphatype>
                <rate>
                  <timebase>24</timebase>
                  <ntsc>FALSE</ntsc>
                </rate>
                <enabled>TRUE</enabled>
                <start>210</start>
                <end>211</end>
                <file id="file-212"/>
              </clipitem>
              <clipitem frameBlend="FALSE" id="clipitem-934">
                <name>Scene - Puppet man_0003.211.png</name>
                <masterclipid>masterclip-213</masterclipid>
                <rate>
                  <timebase>24</timebase>
                  <ntsc>FALSE</ntsc>
                </rate>
                <duration>1</duration>
                <enabled>TRUE</enabled>
                <alphatype>straight</alphatype>
                <rate>
                  <timebase>24</timebase>
                  <ntsc>FALSE</ntsc>
                </rate>
                <enabled>TRUE</enabled>
                <start>211</start>
                <end>212</end>
                <file id="file-213"/>
              </clipitem>
              <clipitem frameBlend="FALSE" id="clipitem-935">
                <name>Scene - Puppet man_0003.212.png</name>
                <masterclipid>masterclip-214</masterclipid>
                <rate>
                  <timebase>24</timebase>
                  <ntsc>FALSE</ntsc>
                </rate>
                <duration>1</duration>
                <enabled>TRUE</enabled>
                <alphatype>straight</alphatype>
                <rate>
                  <timebase>24</timebase>
                  <ntsc>FALSE</ntsc>
                </rate>
                <enabled>TRUE</enabled>
                <start>212</start>
                <end>213</end>
                <file id="file-214"/>
              </clipitem>
              <clipitem frameBlend="FALSE" id="clipitem-936">
                <name>Scene - Puppet man_0003.213.png</name>
                <masterclipid>masterclip-215</masterclipid>
                <rate>
                  <timebase>24</timebase>
                  <ntsc>FALSE</ntsc>
                </rate>
                <duration>1</duration>
                <enabled>TRUE</enabled>
                <alphatype>straight</alphatype>
                <rate>
                  <timebase>24</timebase>
                  <ntsc>FALSE</ntsc>
                </rate>
                <enabled>TRUE</enabled>
                <start>213</start>
                <end>214</end>
                <file id="file-215"/>
              </clipitem>
              <clipitem frameBlend="FALSE" id="clipitem-937">
                <name>Scene - Puppet man_0003.214.png</name>
                <masterclipid>masterclip-216</masterclipid>
                <rate>
                  <timebase>24</timebase>
                  <ntsc>FALSE</ntsc>
                </rate>
                <duration>1</duration>
                <enabled>TRUE</enabled>
                <alphatype>straight</alphatype>
                <rate>
                  <timebase>24</timebase>
                  <ntsc>FALSE</ntsc>
                </rate>
                <enabled>TRUE</enabled>
                <start>214</start>
                <end>215</end>
                <file id="file-216"/>
              </clipitem>
              <clipitem frameBlend="FALSE" id="clipitem-938">
                <name>Scene - Puppet man_0003.215.png</name>
                <masterclipid>masterclip-217</masterclipid>
                <rate>
                  <timebase>24</timebase>
                  <ntsc>FALSE</ntsc>
                </rate>
                <duration>1</duration>
                <enabled>TRUE</enabled>
                <alphatype>straight</alphatype>
                <rate>
                  <timebase>24</timebase>
                  <ntsc>FALSE</ntsc>
                </rate>
                <enabled>TRUE</enabled>
                <start>215</start>
                <end>216</end>
                <file id="file-217"/>
              </clipitem>
              <clipitem frameBlend="FALSE" id="clipitem-939">
                <name>Scene - Puppet man_0003.216.png</name>
                <masterclipid>masterclip-218</masterclipid>
                <rate>
                  <timebase>24</timebase>
                  <ntsc>FALSE</ntsc>
                </rate>
                <duration>1</duration>
                <enabled>TRUE</enabled>
                <alphatype>straight</alphatype>
                <rate>
                  <timebase>24</timebase>
                  <ntsc>FALSE</ntsc>
                </rate>
                <enabled>TRUE</enabled>
                <start>216</start>
                <end>217</end>
                <file id="file-218"/>
              </clipitem>
              <clipitem frameBlend="FALSE" id="clipitem-940">
                <name>Scene - Puppet man_0003.217.png</name>
                <masterclipid>masterclip-219</masterclipid>
                <rate>
                  <timebase>24</timebase>
                  <ntsc>FALSE</ntsc>
                </rate>
                <duration>1</duration>
                <enabled>TRUE</enabled>
                <alphatype>straight</alphatype>
                <rate>
                  <timebase>24</timebase>
                  <ntsc>FALSE</ntsc>
                </rate>
                <enabled>TRUE</enabled>
                <start>217</start>
                <end>218</end>
                <file id="file-219"/>
              </clipitem>
              <clipitem frameBlend="FALSE" id="clipitem-941">
                <name>Scene - Puppet man_0003.218.png</name>
                <masterclipid>masterclip-220</masterclipid>
                <rate>
                  <timebase>24</timebase>
                  <ntsc>FALSE</ntsc>
                </rate>
                <duration>1</duration>
                <enabled>TRUE</enabled>
                <alphatype>straight</alphatype>
                <rate>
                  <timebase>24</timebase>
                  <ntsc>FALSE</ntsc>
                </rate>
                <enabled>TRUE</enabled>
                <start>218</start>
                <end>219</end>
                <file id="file-220"/>
              </clipitem>
              <clipitem frameBlend="FALSE" id="clipitem-942">
                <name>Scene - Puppet man_0003.219.png</name>
                <masterclipid>masterclip-221</masterclipid>
                <rate>
                  <timebase>24</timebase>
                  <ntsc>FALSE</ntsc>
                </rate>
                <duration>1</duration>
                <enabled>TRUE</enabled>
                <alphatype>straight</alphatype>
                <rate>
                  <timebase>24</timebase>
                  <ntsc>FALSE</ntsc>
                </rate>
                <enabled>TRUE</enabled>
                <start>219</start>
                <end>220</end>
                <file id="file-221"/>
              </clipitem>
              <clipitem frameBlend="FALSE" id="clipitem-943">
                <name>Scene - Puppet man_0003.220.png</name>
                <masterclipid>masterclip-222</masterclipid>
                <rate>
                  <timebase>24</timebase>
                  <ntsc>FALSE</ntsc>
                </rate>
                <duration>1</duration>
                <enabled>TRUE</enabled>
                <alphatype>straight</alphatype>
                <rate>
                  <timebase>24</timebase>
                  <ntsc>FALSE</ntsc>
                </rate>
                <enabled>TRUE</enabled>
                <start>220</start>
                <end>221</end>
                <file id="file-222"/>
              </clipitem>
              <clipitem frameBlend="FALSE" id="clipitem-944">
                <name>Scene - Puppet man_0003.221.png</name>
                <masterclipid>masterclip-223</masterclipid>
                <rate>
                  <timebase>24</timebase>
                  <ntsc>FALSE</ntsc>
                </rate>
                <duration>1</duration>
                <enabled>TRUE</enabled>
                <alphatype>straight</alphatype>
                <rate>
                  <timebase>24</timebase>
                  <ntsc>FALSE</ntsc>
                </rate>
                <enabled>TRUE</enabled>
                <start>221</start>
                <end>222</end>
                <file id="file-223"/>
              </clipitem>
              <clipitem frameBlend="FALSE" id="clipitem-945">
                <name>Scene - Puppet man_0003.222.png</name>
                <masterclipid>masterclip-224</masterclipid>
                <rate>
                  <timebase>24</timebase>
                  <ntsc>FALSE</ntsc>
                </rate>
                <duration>1</duration>
                <enabled>TRUE</enabled>
                <alphatype>straight</alphatype>
                <rate>
                  <timebase>24</timebase>
                  <ntsc>FALSE</ntsc>
                </rate>
                <enabled>TRUE</enabled>
                <start>222</start>
                <end>223</end>
                <file id="file-224"/>
              </clipitem>
              <clipitem frameBlend="FALSE" id="clipitem-946">
                <name>Scene - Puppet man_0003.223.png</name>
                <masterclipid>masterclip-225</masterclipid>
                <rate>
                  <timebase>24</timebase>
                  <ntsc>FALSE</ntsc>
                </rate>
                <duration>1</duration>
                <enabled>TRUE</enabled>
                <alphatype>straight</alphatype>
                <rate>
                  <timebase>24</timebase>
                  <ntsc>FALSE</ntsc>
                </rate>
                <enabled>TRUE</enabled>
                <start>223</start>
                <end>224</end>
                <file id="file-225"/>
              </clipitem>
              <clipitem frameBlend="FALSE" id="clipitem-947">
                <name>Scene - Puppet man_0003.224.png</name>
                <masterclipid>masterclip-226</masterclipid>
                <rate>
                  <timebase>24</timebase>
                  <ntsc>FALSE</ntsc>
                </rate>
                <duration>1</duration>
                <enabled>TRUE</enabled>
                <alphatype>straight</alphatype>
                <rate>
                  <timebase>24</timebase>
                  <ntsc>FALSE</ntsc>
                </rate>
                <enabled>TRUE</enabled>
                <start>224</start>
                <end>225</end>
                <file id="file-226"/>
              </clipitem>
              <clipitem frameBlend="FALSE" id="clipitem-948">
                <name>Scene - Puppet man_0003.225.png</name>
                <masterclipid>masterclip-227</masterclipid>
                <rate>
                  <timebase>24</timebase>
                  <ntsc>FALSE</ntsc>
                </rate>
                <duration>1</duration>
                <enabled>TRUE</enabled>
                <alphatype>straight</alphatype>
                <rate>
                  <timebase>24</timebase>
                  <ntsc>FALSE</ntsc>
                </rate>
                <enabled>TRUE</enabled>
                <start>225</start>
                <end>226</end>
                <file id="file-227"/>
              </clipitem>
              <clipitem frameBlend="FALSE" id="clipitem-949">
                <name>Scene - Puppet man_0003.226.png</name>
                <masterclipid>masterclip-228</masterclipid>
                <rate>
                  <timebase>24</timebase>
                  <ntsc>FALSE</ntsc>
                </rate>
                <duration>1</duration>
                <enabled>TRUE</enabled>
                <alphatype>straight</alphatype>
                <rate>
                  <timebase>24</timebase>
                  <ntsc>FALSE</ntsc>
                </rate>
                <enabled>TRUE</enabled>
                <start>226</start>
                <end>227</end>
                <file id="file-228"/>
              </clipitem>
              <clipitem frameBlend="FALSE" id="clipitem-950">
                <name>Scene - Puppet man_0003.227.png</name>
                <masterclipid>masterclip-229</masterclipid>
                <rate>
                  <timebase>24</timebase>
                  <ntsc>FALSE</ntsc>
                </rate>
                <duration>1</duration>
                <enabled>TRUE</enabled>
                <alphatype>straight</alphatype>
                <rate>
                  <timebase>24</timebase>
                  <ntsc>FALSE</ntsc>
                </rate>
                <enabled>TRUE</enabled>
                <start>227</start>
                <end>228</end>
                <file id="file-229"/>
              </clipitem>
              <clipitem frameBlend="FALSE" id="clipitem-951">
                <name>Scene - Puppet man_0003.228.png</name>
                <masterclipid>masterclip-230</masterclipid>
                <rate>
                  <timebase>24</timebase>
                  <ntsc>FALSE</ntsc>
                </rate>
                <duration>1</duration>
                <enabled>TRUE</enabled>
                <alphatype>straight</alphatype>
                <rate>
                  <timebase>24</timebase>
                  <ntsc>FALSE</ntsc>
                </rate>
                <enabled>TRUE</enabled>
                <start>228</start>
                <end>229</end>
                <file id="file-230"/>
              </clipitem>
              <clipitem frameBlend="FALSE" id="clipitem-952">
                <name>Scene - Puppet man_0003.229.png</name>
                <masterclipid>masterclip-231</masterclipid>
                <rate>
                  <timebase>24</timebase>
                  <ntsc>FALSE</ntsc>
                </rate>
                <duration>1</duration>
                <enabled>TRUE</enabled>
                <alphatype>straight</alphatype>
                <rate>
                  <timebase>24</timebase>
                  <ntsc>FALSE</ntsc>
                </rate>
                <enabled>TRUE</enabled>
                <start>229</start>
                <end>230</end>
                <file id="file-231"/>
              </clipitem>
              <clipitem frameBlend="FALSE" id="clipitem-953">
                <name>Scene - Puppet man_0003.230.png</name>
                <masterclipid>masterclip-232</masterclipid>
                <rate>
                  <timebase>24</timebase>
                  <ntsc>FALSE</ntsc>
                </rate>
                <duration>1</duration>
                <enabled>TRUE</enabled>
                <alphatype>straight</alphatype>
                <rate>
                  <timebase>24</timebase>
                  <ntsc>FALSE</ntsc>
                </rate>
                <enabled>TRUE</enabled>
                <start>230</start>
                <end>231</end>
                <file id="file-232"/>
              </clipitem>
              <clipitem frameBlend="FALSE" id="clipitem-954">
                <name>Scene - Puppet man_0003.231.png</name>
                <masterclipid>masterclip-233</masterclipid>
                <rate>
                  <timebase>24</timebase>
                  <ntsc>FALSE</ntsc>
                </rate>
                <duration>1</duration>
                <enabled>TRUE</enabled>
                <alphatype>straight</alphatype>
                <rate>
                  <timebase>24</timebase>
                  <ntsc>FALSE</ntsc>
                </rate>
                <enabled>TRUE</enabled>
                <start>231</start>
                <end>232</end>
                <file id="file-233"/>
              </clipitem>
              <clipitem frameBlend="FALSE" id="clipitem-955">
                <name>Scene - Puppet man_0003.232.png</name>
                <masterclipid>masterclip-234</masterclipid>
                <rate>
                  <timebase>24</timebase>
                  <ntsc>FALSE</ntsc>
                </rate>
                <duration>1</duration>
                <enabled>TRUE</enabled>
                <alphatype>straight</alphatype>
                <rate>
                  <timebase>24</timebase>
                  <ntsc>FALSE</ntsc>
                </rate>
                <enabled>TRUE</enabled>
                <start>232</start>
                <end>233</end>
                <file id="file-234"/>
              </clipitem>
              <clipitem frameBlend="FALSE" id="clipitem-956">
                <name>Scene - Puppet man_0003.233.png</name>
                <masterclipid>masterclip-235</masterclipid>
                <rate>
                  <timebase>24</timebase>
                  <ntsc>FALSE</ntsc>
                </rate>
                <duration>1</duration>
                <enabled>TRUE</enabled>
                <alphatype>straight</alphatype>
                <rate>
                  <timebase>24</timebase>
                  <ntsc>FALSE</ntsc>
                </rate>
                <enabled>TRUE</enabled>
                <start>233</start>
                <end>234</end>
                <file id="file-235"/>
              </clipitem>
              <clipitem frameBlend="FALSE" id="clipitem-957">
                <name>Scene - Puppet man_0003.234.png</name>
                <masterclipid>masterclip-236</masterclipid>
                <rate>
                  <timebase>24</timebase>
                  <ntsc>FALSE</ntsc>
                </rate>
                <duration>1</duration>
                <enabled>TRUE</enabled>
                <alphatype>straight</alphatype>
                <rate>
                  <timebase>24</timebase>
                  <ntsc>FALSE</ntsc>
                </rate>
                <enabled>TRUE</enabled>
                <start>234</start>
                <end>235</end>
                <file id="file-236"/>
              </clipitem>
              <clipitem frameBlend="FALSE" id="clipitem-958">
                <name>Scene - Puppet man_0003.235.png</name>
                <masterclipid>masterclip-237</masterclipid>
                <rate>
                  <timebase>24</timebase>
                  <ntsc>FALSE</ntsc>
                </rate>
                <duration>1</duration>
                <enabled>TRUE</enabled>
                <alphatype>straight</alphatype>
                <rate>
                  <timebase>24</timebase>
                  <ntsc>FALSE</ntsc>
                </rate>
                <enabled>TRUE</enabled>
                <start>235</start>
                <end>236</end>
                <file id="file-237"/>
              </clipitem>
              <clipitem frameBlend="FALSE" id="clipitem-959">
                <name>Scene - Puppet man_0003.236.png</name>
                <masterclipid>masterclip-238</masterclipid>
                <rate>
                  <timebase>24</timebase>
                  <ntsc>FALSE</ntsc>
                </rate>
                <duration>1</duration>
                <enabled>TRUE</enabled>
                <alphatype>straight</alphatype>
                <rate>
                  <timebase>24</timebase>
                  <ntsc>FALSE</ntsc>
                </rate>
                <enabled>TRUE</enabled>
                <start>236</start>
                <end>237</end>
                <file id="file-238"/>
              </clipitem>
              <clipitem frameBlend="FALSE" id="clipitem-960">
                <name>Scene - Puppet man_0003.237.png</name>
                <masterclipid>masterclip-239</masterclipid>
                <rate>
                  <timebase>24</timebase>
                  <ntsc>FALSE</ntsc>
                </rate>
                <duration>1</duration>
                <enabled>TRUE</enabled>
                <alphatype>straight</alphatype>
                <rate>
                  <timebase>24</timebase>
                  <ntsc>FALSE</ntsc>
                </rate>
                <enabled>TRUE</enabled>
                <start>237</start>
                <end>238</end>
                <file id="file-239"/>
              </clipitem>
              <clipitem frameBlend="FALSE" id="clipitem-961">
                <name>Scene - Puppet man_0003.238.png</name>
                <masterclipid>masterclip-240</masterclipid>
                <rate>
                  <timebase>24</timebase>
                  <ntsc>FALSE</ntsc>
                </rate>
                <duration>1</duration>
                <enabled>TRUE</enabled>
                <alphatype>straight</alphatype>
                <rate>
                  <timebase>24</timebase>
                  <ntsc>FALSE</ntsc>
                </rate>
                <enabled>TRUE</enabled>
                <start>238</start>
                <end>239</end>
                <file id="file-240"/>
              </clipitem>
              <clipitem frameBlend="FALSE" id="clipitem-962">
                <name>Scene - Puppet man_0003.239.png</name>
                <masterclipid>masterclip-241</masterclipid>
                <rate>
                  <timebase>24</timebase>
                  <ntsc>FALSE</ntsc>
                </rate>
                <duration>1</duration>
                <enabled>TRUE</enabled>
                <alphatype>straight</alphatype>
                <rate>
                  <timebase>24</timebase>
                  <ntsc>FALSE</ntsc>
                </rate>
                <enabled>TRUE</enabled>
                <start>239</start>
                <end>240</end>
                <file id="file-241"/>
              </clipitem>
              <clipitem frameBlend="FALSE" id="clipitem-963">
                <name>Scene - Puppet man_0003.240.png</name>
                <masterclipid>masterclip-242</masterclipid>
                <rate>
                  <timebase>24</timebase>
                  <ntsc>FALSE</ntsc>
                </rate>
                <duration>1</duration>
                <enabled>TRUE</enabled>
                <alphatype>straight</alphatype>
                <rate>
                  <timebase>24</timebase>
                  <ntsc>FALSE</ntsc>
                </rate>
                <enabled>TRUE</enabled>
                <start>240</start>
                <end>241</end>
                <file id="file-242"/>
              </clipitem>
              <clipitem frameBlend="FALSE" id="clipitem-964">
                <name>Scene - Puppet man_0003.241.png</name>
                <masterclipid>masterclip-243</masterclipid>
                <rate>
                  <timebase>24</timebase>
                  <ntsc>FALSE</ntsc>
                </rate>
                <duration>1</duration>
                <enabled>TRUE</enabled>
                <alphatype>straight</alphatype>
                <rate>
                  <timebase>24</timebase>
                  <ntsc>FALSE</ntsc>
                </rate>
                <enabled>TRUE</enabled>
                <start>241</start>
                <end>242</end>
                <file id="file-243"/>
              </clipitem>
              <clipitem frameBlend="FALSE" id="clipitem-965">
                <name>Scene - Puppet man_0003.242.png</name>
                <masterclipid>masterclip-244</masterclipid>
                <rate>
                  <timebase>24</timebase>
                  <ntsc>FALSE</ntsc>
                </rate>
                <duration>1</duration>
                <enabled>TRUE</enabled>
                <alphatype>straight</alphatype>
                <rate>
                  <timebase>24</timebase>
                  <ntsc>FALSE</ntsc>
                </rate>
                <enabled>TRUE</enabled>
                <start>242</start>
                <end>243</end>
                <file id="file-244"/>
              </clipitem>
              <clipitem frameBlend="FALSE" id="clipitem-966">
                <name>Scene - Puppet man_0003.243.png</name>
                <masterclipid>masterclip-245</masterclipid>
                <rate>
                  <timebase>24</timebase>
                  <ntsc>FALSE</ntsc>
                </rate>
                <duration>1</duration>
                <enabled>TRUE</enabled>
                <alphatype>straight</alphatype>
                <rate>
                  <timebase>24</timebase>
                  <ntsc>FALSE</ntsc>
                </rate>
                <enabled>TRUE</enabled>
                <start>243</start>
                <end>244</end>
                <file id="file-245"/>
              </clipitem>
              <clipitem frameBlend="FALSE" id="clipitem-967">
                <name>Scene - Puppet man_0003.244.png</name>
                <masterclipid>masterclip-246</masterclipid>
                <rate>
                  <timebase>24</timebase>
                  <ntsc>FALSE</ntsc>
                </rate>
                <duration>1</duration>
                <enabled>TRUE</enabled>
                <alphatype>straight</alphatype>
                <rate>
                  <timebase>24</timebase>
                  <ntsc>FALSE</ntsc>
                </rate>
                <enabled>TRUE</enabled>
                <start>244</start>
                <end>245</end>
                <file id="file-246"/>
              </clipitem>
              <clipitem frameBlend="FALSE" id="clipitem-968">
                <name>Scene - Puppet man_0003.245.png</name>
                <masterclipid>masterclip-247</masterclipid>
                <rate>
                  <timebase>24</timebase>
                  <ntsc>FALSE</ntsc>
                </rate>
                <duration>1</duration>
                <enabled>TRUE</enabled>
                <alphatype>straight</alphatype>
                <rate>
                  <timebase>24</timebase>
                  <ntsc>FALSE</ntsc>
                </rate>
                <enabled>TRUE</enabled>
                <start>245</start>
                <end>246</end>
                <file id="file-247"/>
              </clipitem>
              <clipitem frameBlend="FALSE" id="clipitem-969">
                <name>Scene - Puppet man_0003.246.png</name>
                <masterclipid>masterclip-248</masterclipid>
                <rate>
                  <timebase>24</timebase>
                  <ntsc>FALSE</ntsc>
                </rate>
                <duration>1</duration>
                <enabled>TRUE</enabled>
                <alphatype>straight</alphatype>
                <rate>
                  <timebase>24</timebase>
                  <ntsc>FALSE</ntsc>
                </rate>
                <enabled>TRUE</enabled>
                <start>246</start>
                <end>247</end>
                <file id="file-248"/>
              </clipitem>
              <clipitem frameBlend="FALSE" id="clipitem-970">
                <name>Scene - Puppet man_0003.247.png</name>
                <masterclipid>masterclip-249</masterclipid>
                <rate>
                  <timebase>24</timebase>
                  <ntsc>FALSE</ntsc>
                </rate>
                <duration>1</duration>
                <enabled>TRUE</enabled>
                <alphatype>straight</alphatype>
                <rate>
                  <timebase>24</timebase>
                  <ntsc>FALSE</ntsc>
                </rate>
                <enabled>TRUE</enabled>
                <start>247</start>
                <end>248</end>
                <file id="file-249"/>
              </clipitem>
              <clipitem frameBlend="FALSE" id="clipitem-971">
                <name>Scene - Puppet man_0003.248.png</name>
                <masterclipid>masterclip-250</masterclipid>
                <rate>
                  <timebase>24</timebase>
                  <ntsc>FALSE</ntsc>
                </rate>
                <duration>1</duration>
                <enabled>TRUE</enabled>
                <alphatype>straight</alphatype>
                <rate>
                  <timebase>24</timebase>
                  <ntsc>FALSE</ntsc>
                </rate>
                <enabled>TRUE</enabled>
                <start>248</start>
                <end>249</end>
                <file id="file-250"/>
              </clipitem>
              <clipitem frameBlend="FALSE" id="clipitem-972">
                <name>Scene - Puppet man_0003.249.png</name>
                <masterclipid>masterclip-251</masterclipid>
                <rate>
                  <timebase>24</timebase>
                  <ntsc>FALSE</ntsc>
                </rate>
                <duration>1</duration>
                <enabled>TRUE</enabled>
                <alphatype>straight</alphatype>
                <rate>
                  <timebase>24</timebase>
                  <ntsc>FALSE</ntsc>
                </rate>
                <enabled>TRUE</enabled>
                <start>249</start>
                <end>250</end>
                <file id="file-251"/>
              </clipitem>
              <clipitem frameBlend="FALSE" id="clipitem-973">
                <name>Scene - Puppet man_0003.250.png</name>
                <masterclipid>masterclip-252</masterclipid>
                <rate>
                  <timebase>24</timebase>
                  <ntsc>FALSE</ntsc>
                </rate>
                <duration>1</duration>
                <enabled>TRUE</enabled>
                <alphatype>straight</alphatype>
                <rate>
                  <timebase>24</timebase>
                  <ntsc>FALSE</ntsc>
                </rate>
                <enabled>TRUE</enabled>
                <start>250</start>
                <end>251</end>
                <file id="file-252"/>
              </clipitem>
              <clipitem frameBlend="FALSE" id="clipitem-974">
                <name>Scene - Puppet man_0003.251.png</name>
                <masterclipid>masterclip-253</masterclipid>
                <rate>
                  <timebase>24</timebase>
                  <ntsc>FALSE</ntsc>
                </rate>
                <duration>1</duration>
                <enabled>TRUE</enabled>
                <alphatype>straight</alphatype>
                <rate>
                  <timebase>24</timebase>
                  <ntsc>FALSE</ntsc>
                </rate>
                <enabled>TRUE</enabled>
                <start>251</start>
                <end>252</end>
                <file id="file-253"/>
              </clipitem>
              <clipitem frameBlend="FALSE" id="clipitem-975">
                <name>Scene - Puppet man_0003.252.png</name>
                <masterclipid>masterclip-254</masterclipid>
                <rate>
                  <timebase>24</timebase>
                  <ntsc>FALSE</ntsc>
                </rate>
                <duration>1</duration>
                <enabled>TRUE</enabled>
                <alphatype>straight</alphatype>
                <rate>
                  <timebase>24</timebase>
                  <ntsc>FALSE</ntsc>
                </rate>
                <enabled>TRUE</enabled>
                <start>252</start>
                <end>253</end>
                <file id="file-254"/>
              </clipitem>
              <clipitem frameBlend="FALSE" id="clipitem-976">
                <name>Scene - Puppet man_0003.253.png</name>
                <masterclipid>masterclip-255</masterclipid>
                <rate>
                  <timebase>24</timebase>
                  <ntsc>FALSE</ntsc>
                </rate>
                <duration>1</duration>
                <enabled>TRUE</enabled>
                <alphatype>straight</alphatype>
                <rate>
                  <timebase>24</timebase>
                  <ntsc>FALSE</ntsc>
                </rate>
                <enabled>TRUE</enabled>
                <start>253</start>
                <end>254</end>
                <file id="file-255"/>
              </clipitem>
              <clipitem frameBlend="FALSE" id="clipitem-977">
                <name>Scene - Puppet man_0003.254.png</name>
                <masterclipid>masterclip-256</masterclipid>
                <rate>
                  <timebase>24</timebase>
                  <ntsc>FALSE</ntsc>
                </rate>
                <duration>1</duration>
                <enabled>TRUE</enabled>
                <alphatype>straight</alphatype>
                <rate>
                  <timebase>24</timebase>
                  <ntsc>FALSE</ntsc>
                </rate>
                <enabled>TRUE</enabled>
                <start>254</start>
                <end>255</end>
                <file id="file-256"/>
              </clipitem>
              <clipitem frameBlend="FALSE" id="clipitem-978">
                <name>Scene - Puppet man_0003.255.png</name>
                <masterclipid>masterclip-257</masterclipid>
                <rate>
                  <timebase>24</timebase>
                  <ntsc>FALSE</ntsc>
                </rate>
                <duration>1</duration>
                <enabled>TRUE</enabled>
                <alphatype>straight</alphatype>
                <rate>
                  <timebase>24</timebase>
                  <ntsc>FALSE</ntsc>
                </rate>
                <enabled>TRUE</enabled>
                <start>255</start>
                <end>256</end>
                <file id="file-257"/>
              </clipitem>
              <clipitem frameBlend="FALSE" id="clipitem-979">
                <name>Scene - Puppet man_0003.256.png</name>
                <masterclipid>masterclip-258</masterclipid>
                <rate>
                  <timebase>24</timebase>
                  <ntsc>FALSE</ntsc>
                </rate>
                <duration>1</duration>
                <enabled>TRUE</enabled>
                <alphatype>straight</alphatype>
                <rate>
                  <timebase>24</timebase>
                  <ntsc>FALSE</ntsc>
                </rate>
                <enabled>TRUE</enabled>
                <start>256</start>
                <end>257</end>
                <file id="file-258"/>
              </clipitem>
              <clipitem frameBlend="FALSE" id="clipitem-980">
                <name>Scene - Puppet man_0003.257.png</name>
                <masterclipid>masterclip-259</masterclipid>
                <rate>
                  <timebase>24</timebase>
                  <ntsc>FALSE</ntsc>
                </rate>
                <duration>1</duration>
                <enabled>TRUE</enabled>
                <alphatype>straight</alphatype>
                <rate>
                  <timebase>24</timebase>
                  <ntsc>FALSE</ntsc>
                </rate>
                <enabled>TRUE</enabled>
                <start>257</start>
                <end>258</end>
                <file id="file-259"/>
              </clipitem>
              <clipitem frameBlend="FALSE" id="clipitem-981">
                <name>Scene - Puppet man_0003.258.png</name>
                <masterclipid>masterclip-260</masterclipid>
                <rate>
                  <timebase>24</timebase>
                  <ntsc>FALSE</ntsc>
                </rate>
                <duration>1</duration>
                <enabled>TRUE</enabled>
                <alphatype>straight</alphatype>
                <rate>
                  <timebase>24</timebase>
                  <ntsc>FALSE</ntsc>
                </rate>
                <enabled>TRUE</enabled>
                <start>258</start>
                <end>259</end>
                <file id="file-260"/>
              </clipitem>
              <clipitem frameBlend="FALSE" id="clipitem-982">
                <name>Scene - Puppet man_0003.259.png</name>
                <masterclipid>masterclip-261</masterclipid>
                <rate>
                  <timebase>24</timebase>
                  <ntsc>FALSE</ntsc>
                </rate>
                <duration>1</duration>
                <enabled>TRUE</enabled>
                <alphatype>straight</alphatype>
                <rate>
                  <timebase>24</timebase>
                  <ntsc>FALSE</ntsc>
                </rate>
                <enabled>TRUE</enabled>
                <start>259</start>
                <end>260</end>
                <file id="file-261"/>
              </clipitem>
              <clipitem frameBlend="FALSE" id="clipitem-983">
                <name>Scene - Puppet man_0003.260.png</name>
                <masterclipid>masterclip-262</masterclipid>
                <rate>
                  <timebase>24</timebase>
                  <ntsc>FALSE</ntsc>
                </rate>
                <duration>1</duration>
                <enabled>TRUE</enabled>
                <alphatype>straight</alphatype>
                <rate>
                  <timebase>24</timebase>
                  <ntsc>FALSE</ntsc>
                </rate>
                <enabled>TRUE</enabled>
                <start>260</start>
                <end>261</end>
                <file id="file-262"/>
              </clipitem>
              <clipitem frameBlend="FALSE" id="clipitem-984">
                <name>Scene - Puppet man_0003.261.png</name>
                <masterclipid>masterclip-263</masterclipid>
                <rate>
                  <timebase>24</timebase>
                  <ntsc>FALSE</ntsc>
                </rate>
                <duration>1</duration>
                <enabled>TRUE</enabled>
                <alphatype>straight</alphatype>
                <rate>
                  <timebase>24</timebase>
                  <ntsc>FALSE</ntsc>
                </rate>
                <enabled>TRUE</enabled>
                <start>261</start>
                <end>262</end>
                <file id="file-263"/>
              </clipitem>
              <clipitem frameBlend="FALSE" id="clipitem-985">
                <name>Scene - Puppet man_0003.262.png</name>
                <masterclipid>masterclip-264</masterclipid>
                <rate>
                  <timebase>24</timebase>
                  <ntsc>FALSE</ntsc>
                </rate>
                <duration>1</duration>
                <enabled>TRUE</enabled>
                <alphatype>straight</alphatype>
                <rate>
                  <timebase>24</timebase>
                  <ntsc>FALSE</ntsc>
                </rate>
                <enabled>TRUE</enabled>
                <start>262</start>
                <end>263</end>
                <file id="file-264"/>
              </clipitem>
              <clipitem frameBlend="FALSE" id="clipitem-986">
                <name>Scene - Puppet man_0003.263.png</name>
                <masterclipid>masterclip-265</masterclipid>
                <rate>
                  <timebase>24</timebase>
                  <ntsc>FALSE</ntsc>
                </rate>
                <duration>1</duration>
                <enabled>TRUE</enabled>
                <alphatype>straight</alphatype>
                <rate>
                  <timebase>24</timebase>
                  <ntsc>FALSE</ntsc>
                </rate>
                <enabled>TRUE</enabled>
                <start>263</start>
                <end>264</end>
                <file id="file-265"/>
              </clipitem>
              <clipitem frameBlend="FALSE" id="clipitem-987">
                <name>Scene - Puppet man_0003.264.png</name>
                <masterclipid>masterclip-266</masterclipid>
                <rate>
                  <timebase>24</timebase>
                  <ntsc>FALSE</ntsc>
                </rate>
                <duration>1</duration>
                <enabled>TRUE</enabled>
                <alphatype>straight</alphatype>
                <rate>
                  <timebase>24</timebase>
                  <ntsc>FALSE</ntsc>
                </rate>
                <enabled>TRUE</enabled>
                <start>264</start>
                <end>265</end>
                <file id="file-266"/>
              </clipitem>
              <clipitem frameBlend="FALSE" id="clipitem-988">
                <name>Scene - Puppet man_0003.265.png</name>
                <masterclipid>masterclip-267</masterclipid>
                <rate>
                  <timebase>24</timebase>
                  <ntsc>FALSE</ntsc>
                </rate>
                <duration>1</duration>
                <enabled>TRUE</enabled>
                <alphatype>straight</alphatype>
                <rate>
                  <timebase>24</timebase>
                  <ntsc>FALSE</ntsc>
                </rate>
                <enabled>TRUE</enabled>
                <start>265</start>
                <end>266</end>
                <file id="file-267"/>
              </clipitem>
              <clipitem frameBlend="FALSE" id="clipitem-989">
                <name>Scene - Puppet man_0003.266.png</name>
                <masterclipid>masterclip-268</masterclipid>
                <rate>
                  <timebase>24</timebase>
                  <ntsc>FALSE</ntsc>
                </rate>
                <duration>1</duration>
                <enabled>TRUE</enabled>
                <alphatype>straight</alphatype>
                <rate>
                  <timebase>24</timebase>
                  <ntsc>FALSE</ntsc>
                </rate>
                <enabled>TRUE</enabled>
                <start>266</start>
                <end>267</end>
                <file id="file-268"/>
              </clipitem>
              <clipitem frameBlend="FALSE" id="clipitem-990">
                <name>Scene - Puppet man_0003.267.png</name>
                <masterclipid>masterclip-269</masterclipid>
                <rate>
                  <timebase>24</timebase>
                  <ntsc>FALSE</ntsc>
                </rate>
                <duration>1</duration>
                <enabled>TRUE</enabled>
                <alphatype>straight</alphatype>
                <rate>
                  <timebase>24</timebase>
                  <ntsc>FALSE</ntsc>
                </rate>
                <enabled>TRUE</enabled>
                <start>267</start>
                <end>268</end>
                <file id="file-269"/>
              </clipitem>
              <clipitem frameBlend="FALSE" id="clipitem-991">
                <name>Scene - Puppet man_0003.268.png</name>
                <masterclipid>masterclip-270</masterclipid>
                <rate>
                  <timebase>24</timebase>
                  <ntsc>FALSE</ntsc>
                </rate>
                <duration>1</duration>
                <enabled>TRUE</enabled>
                <alphatype>straight</alphatype>
                <rate>
                  <timebase>24</timebase>
                  <ntsc>FALSE</ntsc>
                </rate>
                <enabled>TRUE</enabled>
                <start>268</start>
                <end>269</end>
                <file id="file-270"/>
              </clipitem>
              <clipitem frameBlend="FALSE" id="clipitem-992">
                <name>Scene - Puppet man_0003.269.png</name>
                <masterclipid>masterclip-271</masterclipid>
                <rate>
                  <timebase>24</timebase>
                  <ntsc>FALSE</ntsc>
                </rate>
                <duration>1</duration>
                <enabled>TRUE</enabled>
                <alphatype>straight</alphatype>
                <rate>
                  <timebase>24</timebase>
                  <ntsc>FALSE</ntsc>
                </rate>
                <enabled>TRUE</enabled>
                <start>269</start>
                <end>270</end>
                <file id="file-271"/>
              </clipitem>
              <clipitem frameBlend="FALSE" id="clipitem-993">
                <name>Scene - Puppet man_0003.270.png</name>
                <masterclipid>masterclip-272</masterclipid>
                <rate>
                  <timebase>24</timebase>
                  <ntsc>FALSE</ntsc>
                </rate>
                <duration>1</duration>
                <enabled>TRUE</enabled>
                <alphatype>straight</alphatype>
                <rate>
                  <timebase>24</timebase>
                  <ntsc>FALSE</ntsc>
                </rate>
                <enabled>TRUE</enabled>
                <start>270</start>
                <end>271</end>
                <file id="file-272"/>
              </clipitem>
              <clipitem frameBlend="FALSE" id="clipitem-994">
                <name>Scene - Puppet man_0003.271.png</name>
                <masterclipid>masterclip-273</masterclipid>
                <rate>
                  <timebase>24</timebase>
                  <ntsc>FALSE</ntsc>
                </rate>
                <duration>1</duration>
                <enabled>TRUE</enabled>
                <alphatype>straight</alphatype>
                <rate>
                  <timebase>24</timebase>
                  <ntsc>FALSE</ntsc>
                </rate>
                <enabled>TRUE</enabled>
                <start>271</start>
                <end>272</end>
                <file id="file-273"/>
              </clipitem>
              <clipitem frameBlend="FALSE" id="clipitem-995">
                <name>Scene - Puppet man_0003.272.png</name>
                <masterclipid>masterclip-274</masterclipid>
                <rate>
                  <timebase>24</timebase>
                  <ntsc>FALSE</ntsc>
                </rate>
                <duration>1</duration>
                <enabled>TRUE</enabled>
                <alphatype>straight</alphatype>
                <rate>
                  <timebase>24</timebase>
                  <ntsc>FALSE</ntsc>
                </rate>
                <enabled>TRUE</enabled>
                <start>272</start>
                <end>273</end>
                <file id="file-274"/>
              </clipitem>
              <clipitem frameBlend="FALSE" id="clipitem-996">
                <name>Scene - Puppet man_0003.273.png</name>
                <masterclipid>masterclip-275</masterclipid>
                <rate>
                  <timebase>24</timebase>
                  <ntsc>FALSE</ntsc>
                </rate>
                <duration>1</duration>
                <enabled>TRUE</enabled>
                <alphatype>straight</alphatype>
                <rate>
                  <timebase>24</timebase>
                  <ntsc>FALSE</ntsc>
                </rate>
                <enabled>TRUE</enabled>
                <start>273</start>
                <end>274</end>
                <file id="file-275"/>
              </clipitem>
              <clipitem frameBlend="FALSE" id="clipitem-997">
                <name>Scene - Puppet man_0003.274.png</name>
                <masterclipid>masterclip-276</masterclipid>
                <rate>
                  <timebase>24</timebase>
                  <ntsc>FALSE</ntsc>
                </rate>
                <duration>1</duration>
                <enabled>TRUE</enabled>
                <alphatype>straight</alphatype>
                <rate>
                  <timebase>24</timebase>
                  <ntsc>FALSE</ntsc>
                </rate>
                <enabled>TRUE</enabled>
                <start>274</start>
                <end>275</end>
                <file id="file-276"/>
              </clipitem>
              <clipitem frameBlend="FALSE" id="clipitem-998">
                <name>Scene - Puppet man_0003.275.png</name>
                <masterclipid>masterclip-277</masterclipid>
                <rate>
                  <timebase>24</timebase>
                  <ntsc>FALSE</ntsc>
                </rate>
                <duration>1</duration>
                <enabled>TRUE</enabled>
                <alphatype>straight</alphatype>
                <rate>
                  <timebase>24</timebase>
                  <ntsc>FALSE</ntsc>
                </rate>
                <enabled>TRUE</enabled>
                <start>275</start>
                <end>276</end>
                <file id="file-277"/>
              </clipitem>
              <clipitem frameBlend="FALSE" id="clipitem-999">
                <name>Scene - Puppet man_0003.276.png</name>
                <masterclipid>masterclip-278</masterclipid>
                <rate>
                  <timebase>24</timebase>
                  <ntsc>FALSE</ntsc>
                </rate>
                <duration>1</duration>
                <enabled>TRUE</enabled>
                <alphatype>straight</alphatype>
                <rate>
                  <timebase>24</timebase>
                  <ntsc>FALSE</ntsc>
                </rate>
                <enabled>TRUE</enabled>
                <start>276</start>
                <end>277</end>
                <file id="file-278"/>
              </clipitem>
              <clipitem frameBlend="FALSE" id="clipitem-1000">
                <name>Scene - Puppet man_0003.277.png</name>
                <masterclipid>masterclip-279</masterclipid>
                <rate>
                  <timebase>24</timebase>
                  <ntsc>FALSE</ntsc>
                </rate>
                <duration>1</duration>
                <enabled>TRUE</enabled>
                <alphatype>straight</alphatype>
                <rate>
                  <timebase>24</timebase>
                  <ntsc>FALSE</ntsc>
                </rate>
                <enabled>TRUE</enabled>
                <start>277</start>
                <end>278</end>
                <file id="file-279"/>
              </clipitem>
              <clipitem frameBlend="FALSE" id="clipitem-1001">
                <name>Scene - Puppet man_0003.278.png</name>
                <masterclipid>masterclip-280</masterclipid>
                <rate>
                  <timebase>24</timebase>
                  <ntsc>FALSE</ntsc>
                </rate>
                <duration>1</duration>
                <enabled>TRUE</enabled>
                <alphatype>straight</alphatype>
                <rate>
                  <timebase>24</timebase>
                  <ntsc>FALSE</ntsc>
                </rate>
                <enabled>TRUE</enabled>
                <start>278</start>
                <end>279</end>
                <file id="file-280"/>
              </clipitem>
              <clipitem frameBlend="FALSE" id="clipitem-1002">
                <name>Scene - Puppet man_0003.279.png</name>
                <masterclipid>masterclip-281</masterclipid>
                <rate>
                  <timebase>24</timebase>
                  <ntsc>FALSE</ntsc>
                </rate>
                <duration>1</duration>
                <enabled>TRUE</enabled>
                <alphatype>straight</alphatype>
                <rate>
                  <timebase>24</timebase>
                  <ntsc>FALSE</ntsc>
                </rate>
                <enabled>TRUE</enabled>
                <start>279</start>
                <end>280</end>
                <file id="file-281"/>
              </clipitem>
              <clipitem frameBlend="FALSE" id="clipitem-1003">
                <name>Scene - Puppet man_0003.280.png</name>
                <masterclipid>masterclip-282</masterclipid>
                <rate>
                  <timebase>24</timebase>
                  <ntsc>FALSE</ntsc>
                </rate>
                <duration>1</duration>
                <enabled>TRUE</enabled>
                <alphatype>straight</alphatype>
                <rate>
                  <timebase>24</timebase>
                  <ntsc>FALSE</ntsc>
                </rate>
                <enabled>TRUE</enabled>
                <start>280</start>
                <end>281</end>
                <file id="file-282"/>
              </clipitem>
              <clipitem frameBlend="FALSE" id="clipitem-1004">
                <name>Scene - Puppet man_0003.281.png</name>
                <masterclipid>masterclip-283</masterclipid>
                <rate>
                  <timebase>24</timebase>
                  <ntsc>FALSE</ntsc>
                </rate>
                <duration>1</duration>
                <enabled>TRUE</enabled>
                <alphatype>straight</alphatype>
                <rate>
                  <timebase>24</timebase>
                  <ntsc>FALSE</ntsc>
                </rate>
                <enabled>TRUE</enabled>
                <start>281</start>
                <end>282</end>
                <file id="file-283"/>
              </clipitem>
              <clipitem frameBlend="FALSE" id="clipitem-1005">
                <name>Scene - Puppet man_0003.282.png</name>
                <masterclipid>masterclip-284</masterclipid>
                <rate>
                  <timebase>24</timebase>
                  <ntsc>FALSE</ntsc>
                </rate>
                <duration>1</duration>
                <enabled>TRUE</enabled>
                <alphatype>straight</alphatype>
                <rate>
                  <timebase>24</timebase>
                  <ntsc>FALSE</ntsc>
                </rate>
                <enabled>TRUE</enabled>
                <start>282</start>
                <end>283</end>
                <file id="file-284"/>
              </clipitem>
              <clipitem frameBlend="FALSE" id="clipitem-1006">
                <name>Scene - Puppet man_0003.283.png</name>
                <masterclipid>masterclip-285</masterclipid>
                <rate>
                  <timebase>24</timebase>
                  <ntsc>FALSE</ntsc>
                </rate>
                <duration>1</duration>
                <enabled>TRUE</enabled>
                <alphatype>straight</alphatype>
                <rate>
                  <timebase>24</timebase>
                  <ntsc>FALSE</ntsc>
                </rate>
                <enabled>TRUE</enabled>
                <start>283</start>
                <end>284</end>
                <file id="file-285"/>
              </clipitem>
              <clipitem frameBlend="FALSE" id="clipitem-1007">
                <name>Scene - Puppet man_0003.284.png</name>
                <masterclipid>masterclip-286</masterclipid>
                <rate>
                  <timebase>24</timebase>
                  <ntsc>FALSE</ntsc>
                </rate>
                <duration>1</duration>
                <enabled>TRUE</enabled>
                <alphatype>straight</alphatype>
                <rate>
                  <timebase>24</timebase>
                  <ntsc>FALSE</ntsc>
                </rate>
                <enabled>TRUE</enabled>
                <start>284</start>
                <end>285</end>
                <file id="file-286"/>
              </clipitem>
              <clipitem frameBlend="FALSE" id="clipitem-1008">
                <name>Scene - Puppet man_0003.285.png</name>
                <masterclipid>masterclip-287</masterclipid>
                <rate>
                  <timebase>24</timebase>
                  <ntsc>FALSE</ntsc>
                </rate>
                <duration>1</duration>
                <enabled>TRUE</enabled>
                <alphatype>straight</alphatype>
                <rate>
                  <timebase>24</timebase>
                  <ntsc>FALSE</ntsc>
                </rate>
                <enabled>TRUE</enabled>
                <start>285</start>
                <end>286</end>
                <file id="file-287"/>
              </clipitem>
              <clipitem frameBlend="FALSE" id="clipitem-1009">
                <name>Scene - Puppet man_0003.286.png</name>
                <masterclipid>masterclip-288</masterclipid>
                <rate>
                  <timebase>24</timebase>
                  <ntsc>FALSE</ntsc>
                </rate>
                <duration>1</duration>
                <enabled>TRUE</enabled>
                <alphatype>straight</alphatype>
                <rate>
                  <timebase>24</timebase>
                  <ntsc>FALSE</ntsc>
                </rate>
                <enabled>TRUE</enabled>
                <start>286</start>
                <end>287</end>
                <file id="file-288"/>
              </clipitem>
              <clipitem frameBlend="FALSE" id="clipitem-1010">
                <name>Scene - Puppet man_0003.287.png</name>
                <masterclipid>masterclip-289</masterclipid>
                <rate>
                  <timebase>24</timebase>
                  <ntsc>FALSE</ntsc>
                </rate>
                <duration>1</duration>
                <enabled>TRUE</enabled>
                <alphatype>straight</alphatype>
                <rate>
                  <timebase>24</timebase>
                  <ntsc>FALSE</ntsc>
                </rate>
                <enabled>TRUE</enabled>
                <start>287</start>
                <end>288</end>
                <file id="file-289"/>
              </clipitem>
              <clipitem frameBlend="FALSE" id="clipitem-1011">
                <name>Scene - Puppet man_0003.288.png</name>
                <masterclipid>masterclip-290</masterclipid>
                <rate>
                  <timebase>24</timebase>
                  <ntsc>FALSE</ntsc>
                </rate>
                <duration>1</duration>
                <enabled>TRUE</enabled>
                <alphatype>straight</alphatype>
                <rate>
                  <timebase>24</timebase>
                  <ntsc>FALSE</ntsc>
                </rate>
                <enabled>TRUE</enabled>
                <start>288</start>
                <end>289</end>
                <file id="file-290"/>
              </clipitem>
              <clipitem frameBlend="FALSE" id="clipitem-1012">
                <name>Scene - Puppet man_0003.289.png</name>
                <masterclipid>masterclip-291</masterclipid>
                <rate>
                  <timebase>24</timebase>
                  <ntsc>FALSE</ntsc>
                </rate>
                <duration>1</duration>
                <enabled>TRUE</enabled>
                <alphatype>straight</alphatype>
                <rate>
                  <timebase>24</timebase>
                  <ntsc>FALSE</ntsc>
                </rate>
                <enabled>TRUE</enabled>
                <start>289</start>
                <end>290</end>
                <file id="file-291"/>
              </clipitem>
              <clipitem frameBlend="FALSE" id="clipitem-1013">
                <name>Scene - Puppet man_0003.290.png</name>
                <masterclipid>masterclip-292</masterclipid>
                <rate>
                  <timebase>24</timebase>
                  <ntsc>FALSE</ntsc>
                </rate>
                <duration>1</duration>
                <enabled>TRUE</enabled>
                <alphatype>straight</alphatype>
                <rate>
                  <timebase>24</timebase>
                  <ntsc>FALSE</ntsc>
                </rate>
                <enabled>TRUE</enabled>
                <start>290</start>
                <end>291</end>
                <file id="file-292"/>
              </clipitem>
              <clipitem frameBlend="FALSE" id="clipitem-1014">
                <name>Scene - Puppet man_0003.291.png</name>
                <masterclipid>masterclip-293</masterclipid>
                <rate>
                  <timebase>24</timebase>
                  <ntsc>FALSE</ntsc>
                </rate>
                <duration>1</duration>
                <enabled>TRUE</enabled>
                <alphatype>straight</alphatype>
                <rate>
                  <timebase>24</timebase>
                  <ntsc>FALSE</ntsc>
                </rate>
                <enabled>TRUE</enabled>
                <start>291</start>
                <end>292</end>
                <file id="file-293"/>
              </clipitem>
              <clipitem frameBlend="FALSE" id="clipitem-1015">
                <name>Scene - Puppet man_0003.292.png</name>
                <masterclipid>masterclip-294</masterclipid>
                <rate>
                  <timebase>24</timebase>
                  <ntsc>FALSE</ntsc>
                </rate>
                <duration>1</duration>
                <enabled>TRUE</enabled>
                <alphatype>straight</alphatype>
                <rate>
                  <timebase>24</timebase>
                  <ntsc>FALSE</ntsc>
                </rate>
                <enabled>TRUE</enabled>
                <start>292</start>
                <end>293</end>
                <file id="file-294"/>
              </clipitem>
              <clipitem frameBlend="FALSE" id="clipitem-1016">
                <name>Scene - Puppet man_0003.293.png</name>
                <masterclipid>masterclip-295</masterclipid>
                <rate>
                  <timebase>24</timebase>
                  <ntsc>FALSE</ntsc>
                </rate>
                <duration>1</duration>
                <enabled>TRUE</enabled>
                <alphatype>straight</alphatype>
                <rate>
                  <timebase>24</timebase>
                  <ntsc>FALSE</ntsc>
                </rate>
                <enabled>TRUE</enabled>
                <start>293</start>
                <end>294</end>
                <file id="file-295"/>
              </clipitem>
              <clipitem frameBlend="FALSE" id="clipitem-1017">
                <name>Scene - Puppet man_0003.294.png</name>
                <masterclipid>masterclip-296</masterclipid>
                <rate>
                  <timebase>24</timebase>
                  <ntsc>FALSE</ntsc>
                </rate>
                <duration>1</duration>
                <enabled>TRUE</enabled>
                <alphatype>straight</alphatype>
                <rate>
                  <timebase>24</timebase>
                  <ntsc>FALSE</ntsc>
                </rate>
                <enabled>TRUE</enabled>
                <start>294</start>
                <end>295</end>
                <file id="file-296"/>
              </clipitem>
              <clipitem frameBlend="FALSE" id="clipitem-1018">
                <name>Scene - Puppet man_0003.295.png</name>
                <masterclipid>masterclip-297</masterclipid>
                <rate>
                  <timebase>24</timebase>
                  <ntsc>FALSE</ntsc>
                </rate>
                <duration>1</duration>
                <enabled>TRUE</enabled>
                <alphatype>straight</alphatype>
                <rate>
                  <timebase>24</timebase>
                  <ntsc>FALSE</ntsc>
                </rate>
                <enabled>TRUE</enabled>
                <start>295</start>
                <end>296</end>
                <file id="file-297"/>
              </clipitem>
              <clipitem frameBlend="FALSE" id="clipitem-1019">
                <name>Scene - Puppet man_0003.296.png</name>
                <masterclipid>masterclip-298</masterclipid>
                <rate>
                  <timebase>24</timebase>
                  <ntsc>FALSE</ntsc>
                </rate>
                <duration>1</duration>
                <enabled>TRUE</enabled>
                <alphatype>straight</alphatype>
                <rate>
                  <timebase>24</timebase>
                  <ntsc>FALSE</ntsc>
                </rate>
                <enabled>TRUE</enabled>
                <start>296</start>
                <end>297</end>
                <file id="file-298"/>
              </clipitem>
              <clipitem frameBlend="FALSE" id="clipitem-1020">
                <name>Scene - Puppet man_0003.297.png</name>
                <masterclipid>masterclip-299</masterclipid>
                <rate>
                  <timebase>24</timebase>
                  <ntsc>FALSE</ntsc>
                </rate>
                <duration>1</duration>
                <enabled>TRUE</enabled>
                <alphatype>straight</alphatype>
                <rate>
                  <timebase>24</timebase>
                  <ntsc>FALSE</ntsc>
                </rate>
                <enabled>TRUE</enabled>
                <start>297</start>
                <end>298</end>
                <file id="file-299"/>
              </clipitem>
              <clipitem frameBlend="FALSE" id="clipitem-1021">
                <name>Scene - Puppet man_0003.298.png</name>
                <masterclipid>masterclip-300</masterclipid>
                <rate>
                  <timebase>24</timebase>
                  <ntsc>FALSE</ntsc>
                </rate>
                <duration>1</duration>
                <enabled>TRUE</enabled>
                <alphatype>straight</alphatype>
                <rate>
                  <timebase>24</timebase>
                  <ntsc>FALSE</ntsc>
                </rate>
                <enabled>TRUE</enabled>
                <start>298</start>
                <end>299</end>
                <file id="file-300"/>
              </clipitem>
              <clipitem frameBlend="FALSE" id="clipitem-1022">
                <name>Scene - Puppet man_0003.299.png</name>
                <masterclipid>masterclip-301</masterclipid>
                <rate>
                  <timebase>24</timebase>
                  <ntsc>FALSE</ntsc>
                </rate>
                <duration>1</duration>
                <enabled>TRUE</enabled>
                <alphatype>straight</alphatype>
                <rate>
                  <timebase>24</timebase>
                  <ntsc>FALSE</ntsc>
                </rate>
                <enabled>TRUE</enabled>
                <start>299</start>
                <end>300</end>
                <file id="file-301"/>
              </clipitem>
              <clipitem frameBlend="FALSE" id="clipitem-1023">
                <name>Scene - Puppet man_0003.300.png</name>
                <masterclipid>masterclip-302</masterclipid>
                <rate>
                  <timebase>24</timebase>
                  <ntsc>FALSE</ntsc>
                </rate>
                <duration>1</duration>
                <enabled>TRUE</enabled>
                <alphatype>straight</alphatype>
                <rate>
                  <timebase>24</timebase>
                  <ntsc>FALSE</ntsc>
                </rate>
                <enabled>TRUE</enabled>
                <start>300</start>
                <end>301</end>
                <file id="file-302"/>
              </clipitem>
              <clipitem frameBlend="FALSE" id="clipitem-1024">
                <name>Scene - Puppet man_0003.301.png</name>
                <masterclipid>masterclip-303</masterclipid>
                <rate>
                  <timebase>24</timebase>
                  <ntsc>FALSE</ntsc>
                </rate>
                <duration>1</duration>
                <enabled>TRUE</enabled>
                <alphatype>straight</alphatype>
                <rate>
                  <timebase>24</timebase>
                  <ntsc>FALSE</ntsc>
                </rate>
                <enabled>TRUE</enabled>
                <start>301</start>
                <end>302</end>
                <file id="file-303"/>
              </clipitem>
              <clipitem frameBlend="FALSE" id="clipitem-1025">
                <name>Scene - Puppet man_0003.302.png</name>
                <masterclipid>masterclip-304</masterclipid>
                <rate>
                  <timebase>24</timebase>
                  <ntsc>FALSE</ntsc>
                </rate>
                <duration>1</duration>
                <enabled>TRUE</enabled>
                <alphatype>straight</alphatype>
                <rate>
                  <timebase>24</timebase>
                  <ntsc>FALSE</ntsc>
                </rate>
                <enabled>TRUE</enabled>
                <start>302</start>
                <end>303</end>
                <file id="file-304"/>
              </clipitem>
              <clipitem frameBlend="FALSE" id="clipitem-1026">
                <name>Scene - Puppet man_0003.303.png</name>
                <masterclipid>masterclip-305</masterclipid>
                <rate>
                  <timebase>24</timebase>
                  <ntsc>FALSE</ntsc>
                </rate>
                <duration>1</duration>
                <enabled>TRUE</enabled>
                <alphatype>straight</alphatype>
                <rate>
                  <timebase>24</timebase>
                  <ntsc>FALSE</ntsc>
                </rate>
                <enabled>TRUE</enabled>
                <start>303</start>
                <end>304</end>
                <file id="file-305"/>
              </clipitem>
              <clipitem frameBlend="FALSE" id="clipitem-1027">
                <name>Scene - Puppet man_0003.304.png</name>
                <masterclipid>masterclip-306</masterclipid>
                <rate>
                  <timebase>24</timebase>
                  <ntsc>FALSE</ntsc>
                </rate>
                <duration>1</duration>
                <enabled>TRUE</enabled>
                <alphatype>straight</alphatype>
                <rate>
                  <timebase>24</timebase>
                  <ntsc>FALSE</ntsc>
                </rate>
                <enabled>TRUE</enabled>
                <start>304</start>
                <end>305</end>
                <file id="file-306"/>
              </clipitem>
              <clipitem frameBlend="FALSE" id="clipitem-1028">
                <name>Scene - Puppet man_0003.305.png</name>
                <masterclipid>masterclip-307</masterclipid>
                <rate>
                  <timebase>24</timebase>
                  <ntsc>FALSE</ntsc>
                </rate>
                <duration>1</duration>
                <enabled>TRUE</enabled>
                <alphatype>straight</alphatype>
                <rate>
                  <timebase>24</timebase>
                  <ntsc>FALSE</ntsc>
                </rate>
                <enabled>TRUE</enabled>
                <start>305</start>
                <end>306</end>
                <file id="file-307"/>
              </clipitem>
              <clipitem frameBlend="FALSE" id="clipitem-1029">
                <name>Scene - Puppet man_0003.306.png</name>
                <masterclipid>masterclip-308</masterclipid>
                <rate>
                  <timebase>24</timebase>
                  <ntsc>FALSE</ntsc>
                </rate>
                <duration>1</duration>
                <enabled>TRUE</enabled>
                <alphatype>straight</alphatype>
                <rate>
                  <timebase>24</timebase>
                  <ntsc>FALSE</ntsc>
                </rate>
                <enabled>TRUE</enabled>
                <start>306</start>
                <end>307</end>
                <file id="file-308"/>
              </clipitem>
              <clipitem frameBlend="FALSE" id="clipitem-1030">
                <name>Scene - Puppet man_0003.307.png</name>
                <masterclipid>masterclip-309</masterclipid>
                <rate>
                  <timebase>24</timebase>
                  <ntsc>FALSE</ntsc>
                </rate>
                <duration>1</duration>
                <enabled>TRUE</enabled>
                <alphatype>straight</alphatype>
                <rate>
                  <timebase>24</timebase>
                  <ntsc>FALSE</ntsc>
                </rate>
                <enabled>TRUE</enabled>
                <start>307</start>
                <end>308</end>
                <file id="file-309"/>
              </clipitem>
              <clipitem frameBlend="FALSE" id="clipitem-1031">
                <name>Scene - Puppet man_0003.308.png</name>
                <masterclipid>masterclip-310</masterclipid>
                <rate>
                  <timebase>24</timebase>
                  <ntsc>FALSE</ntsc>
                </rate>
                <duration>1</duration>
                <enabled>TRUE</enabled>
                <alphatype>straight</alphatype>
                <rate>
                  <timebase>24</timebase>
                  <ntsc>FALSE</ntsc>
                </rate>
                <enabled>TRUE</enabled>
                <start>308</start>
                <end>309</end>
                <file id="file-310"/>
              </clipitem>
              <clipitem frameBlend="FALSE" id="clipitem-1032">
                <name>Scene - Puppet man_0003.309.png</name>
                <masterclipid>masterclip-311</masterclipid>
                <rate>
                  <timebase>24</timebase>
                  <ntsc>FALSE</ntsc>
                </rate>
                <duration>1</duration>
                <enabled>TRUE</enabled>
                <alphatype>straight</alphatype>
                <rate>
                  <timebase>24</timebase>
                  <ntsc>FALSE</ntsc>
                </rate>
                <enabled>TRUE</enabled>
                <start>309</start>
                <end>310</end>
                <file id="file-311"/>
              </clipitem>
              <clipitem frameBlend="FALSE" id="clipitem-1033">
                <name>Scene - Puppet man_0003.310.png</name>
                <masterclipid>masterclip-312</masterclipid>
                <rate>
                  <timebase>24</timebase>
                  <ntsc>FALSE</ntsc>
                </rate>
                <duration>1</duration>
                <enabled>TRUE</enabled>
                <alphatype>straight</alphatype>
                <rate>
                  <timebase>24</timebase>
                  <ntsc>FALSE</ntsc>
                </rate>
                <enabled>TRUE</enabled>
                <start>310</start>
                <end>311</end>
                <file id="file-312"/>
              </clipitem>
              <clipitem frameBlend="FALSE" id="clipitem-1034">
                <name>Scene - Puppet man_0003.311.png</name>
                <masterclipid>masterclip-313</masterclipid>
                <rate>
                  <timebase>24</timebase>
                  <ntsc>FALSE</ntsc>
                </rate>
                <duration>1</duration>
                <enabled>TRUE</enabled>
                <alphatype>straight</alphatype>
                <rate>
                  <timebase>24</timebase>
                  <ntsc>FALSE</ntsc>
                </rate>
                <enabled>TRUE</enabled>
                <start>311</start>
                <end>312</end>
                <file id="file-313"/>
              </clipitem>
              <clipitem frameBlend="FALSE" id="clipitem-1035">
                <name>Scene - Puppet man_0003.312.png</name>
                <masterclipid>masterclip-314</masterclipid>
                <rate>
                  <timebase>24</timebase>
                  <ntsc>FALSE</ntsc>
                </rate>
                <duration>1</duration>
                <enabled>TRUE</enabled>
                <alphatype>straight</alphatype>
                <rate>
                  <timebase>24</timebase>
                  <ntsc>FALSE</ntsc>
                </rate>
                <enabled>TRUE</enabled>
                <start>312</start>
                <end>313</end>
                <file id="file-314"/>
              </clipitem>
              <clipitem frameBlend="FALSE" id="clipitem-1036">
                <name>Scene - Puppet man_0003.313.png</name>
                <masterclipid>masterclip-315</masterclipid>
                <rate>
                  <timebase>24</timebase>
                  <ntsc>FALSE</ntsc>
                </rate>
                <duration>1</duration>
                <enabled>TRUE</enabled>
                <alphatype>straight</alphatype>
                <rate>
                  <timebase>24</timebase>
                  <ntsc>FALSE</ntsc>
                </rate>
                <enabled>TRUE</enabled>
                <start>313</start>
                <end>314</end>
                <file id="file-315"/>
              </clipitem>
              <clipitem frameBlend="FALSE" id="clipitem-1037">
                <name>Scene - Puppet man_0003.314.png</name>
                <masterclipid>masterclip-316</masterclipid>
                <rate>
                  <timebase>24</timebase>
                  <ntsc>FALSE</ntsc>
                </rate>
                <duration>1</duration>
                <enabled>TRUE</enabled>
                <alphatype>straight</alphatype>
                <rate>
                  <timebase>24</timebase>
                  <ntsc>FALSE</ntsc>
                </rate>
                <enabled>TRUE</enabled>
                <start>314</start>
                <end>315</end>
                <file id="file-316"/>
              </clipitem>
              <clipitem frameBlend="FALSE" id="clipitem-1038">
                <name>Scene - Puppet man_0003.315.png</name>
                <masterclipid>masterclip-317</masterclipid>
                <rate>
                  <timebase>24</timebase>
                  <ntsc>FALSE</ntsc>
                </rate>
                <duration>1</duration>
                <enabled>TRUE</enabled>
                <alphatype>straight</alphatype>
                <rate>
                  <timebase>24</timebase>
                  <ntsc>FALSE</ntsc>
                </rate>
                <enabled>TRUE</enabled>
                <start>315</start>
                <end>316</end>
                <file id="file-317"/>
              </clipitem>
              <clipitem frameBlend="FALSE" id="clipitem-1039">
                <name>Scene - Puppet man_0003.316.png</name>
                <masterclipid>masterclip-318</masterclipid>
                <rate>
                  <timebase>24</timebase>
                  <ntsc>FALSE</ntsc>
                </rate>
                <duration>1</duration>
                <enabled>TRUE</enabled>
                <alphatype>straight</alphatype>
                <rate>
                  <timebase>24</timebase>
                  <ntsc>FALSE</ntsc>
                </rate>
                <enabled>TRUE</enabled>
                <start>316</start>
                <end>317</end>
                <file id="file-318"/>
              </clipitem>
              <clipitem frameBlend="FALSE" id="clipitem-1040">
                <name>Scene - Puppet man_0003.317.png</name>
                <masterclipid>masterclip-319</masterclipid>
                <rate>
                  <timebase>24</timebase>
                  <ntsc>FALSE</ntsc>
                </rate>
                <duration>1</duration>
                <enabled>TRUE</enabled>
                <alphatype>straight</alphatype>
                <rate>
                  <timebase>24</timebase>
                  <ntsc>FALSE</ntsc>
                </rate>
                <enabled>TRUE</enabled>
                <start>317</start>
                <end>318</end>
                <file id="file-319"/>
              </clipitem>
              <clipitem frameBlend="FALSE" id="clipitem-1041">
                <name>Scene - Puppet man_0003.318.png</name>
                <masterclipid>masterclip-320</masterclipid>
                <rate>
                  <timebase>24</timebase>
                  <ntsc>FALSE</ntsc>
                </rate>
                <duration>1</duration>
                <enabled>TRUE</enabled>
                <alphatype>straight</alphatype>
                <rate>
                  <timebase>24</timebase>
                  <ntsc>FALSE</ntsc>
                </rate>
                <enabled>TRUE</enabled>
                <start>318</start>
                <end>319</end>
                <file id="file-320"/>
              </clipitem>
              <clipitem frameBlend="FALSE" id="clipitem-1042">
                <name>Scene - Puppet man_0003.319.png</name>
                <masterclipid>masterclip-321</masterclipid>
                <rate>
                  <timebase>24</timebase>
                  <ntsc>FALSE</ntsc>
                </rate>
                <duration>1</duration>
                <enabled>TRUE</enabled>
                <alphatype>straight</alphatype>
                <rate>
                  <timebase>24</timebase>
                  <ntsc>FALSE</ntsc>
                </rate>
                <enabled>TRUE</enabled>
                <start>319</start>
                <end>320</end>
                <file id="file-321"/>
              </clipitem>
              <clipitem frameBlend="FALSE" id="clipitem-1043">
                <name>Scene - Puppet man_0003.320.png</name>
                <masterclipid>masterclip-322</masterclipid>
                <rate>
                  <timebase>24</timebase>
                  <ntsc>FALSE</ntsc>
                </rate>
                <duration>1</duration>
                <enabled>TRUE</enabled>
                <alphatype>straight</alphatype>
                <rate>
                  <timebase>24</timebase>
                  <ntsc>FALSE</ntsc>
                </rate>
                <enabled>TRUE</enabled>
                <start>320</start>
                <end>321</end>
                <file id="file-322"/>
              </clipitem>
              <clipitem frameBlend="FALSE" id="clipitem-1044">
                <name>Scene - Puppet man_0003.321.png</name>
                <masterclipid>masterclip-323</masterclipid>
                <rate>
                  <timebase>24</timebase>
                  <ntsc>FALSE</ntsc>
                </rate>
                <duration>1</duration>
                <enabled>TRUE</enabled>
                <alphatype>straight</alphatype>
                <rate>
                  <timebase>24</timebase>
                  <ntsc>FALSE</ntsc>
                </rate>
                <enabled>TRUE</enabled>
                <start>321</start>
                <end>322</end>
                <file id="file-323"/>
              </clipitem>
              <clipitem frameBlend="FALSE" id="clipitem-1045">
                <name>Scene - Puppet man_0003.322.png</name>
                <masterclipid>masterclip-324</masterclipid>
                <rate>
                  <timebase>24</timebase>
                  <ntsc>FALSE</ntsc>
                </rate>
                <duration>1</duration>
                <enabled>TRUE</enabled>
                <alphatype>straight</alphatype>
                <rate>
                  <timebase>24</timebase>
                  <ntsc>FALSE</ntsc>
                </rate>
                <enabled>TRUE</enabled>
                <start>322</start>
                <end>323</end>
                <file id="file-324"/>
              </clipitem>
              <clipitem frameBlend="FALSE" id="clipitem-1046">
                <name>Scene - Puppet man_0003.323.png</name>
                <masterclipid>masterclip-325</masterclipid>
                <rate>
                  <timebase>24</timebase>
                  <ntsc>FALSE</ntsc>
                </rate>
                <duration>1</duration>
                <enabled>TRUE</enabled>
                <alphatype>straight</alphatype>
                <rate>
                  <timebase>24</timebase>
                  <ntsc>FALSE</ntsc>
                </rate>
                <enabled>TRUE</enabled>
                <start>323</start>
                <end>324</end>
                <file id="file-325"/>
              </clipitem>
              <clipitem frameBlend="FALSE" id="clipitem-1047">
                <name>Scene - Puppet man_0003.324.png</name>
                <masterclipid>masterclip-326</masterclipid>
                <rate>
                  <timebase>24</timebase>
                  <ntsc>FALSE</ntsc>
                </rate>
                <duration>1</duration>
                <enabled>TRUE</enabled>
                <alphatype>straight</alphatype>
                <rate>
                  <timebase>24</timebase>
                  <ntsc>FALSE</ntsc>
                </rate>
                <enabled>TRUE</enabled>
                <start>324</start>
                <end>325</end>
                <file id="file-326"/>
              </clipitem>
              <clipitem frameBlend="FALSE" id="clipitem-1048">
                <name>Scene - Puppet man_0003.325.png</name>
                <masterclipid>masterclip-327</masterclipid>
                <rate>
                  <timebase>24</timebase>
                  <ntsc>FALSE</ntsc>
                </rate>
                <duration>1</duration>
                <enabled>TRUE</enabled>
                <alphatype>straight</alphatype>
                <rate>
                  <timebase>24</timebase>
                  <ntsc>FALSE</ntsc>
                </rate>
                <enabled>TRUE</enabled>
                <start>325</start>
                <end>326</end>
                <file id="file-327"/>
              </clipitem>
              <clipitem frameBlend="FALSE" id="clipitem-1049">
                <name>Scene - Puppet man_0003.326.png</name>
                <masterclipid>masterclip-328</masterclipid>
                <rate>
                  <timebase>24</timebase>
                  <ntsc>FALSE</ntsc>
                </rate>
                <duration>1</duration>
                <enabled>TRUE</enabled>
                <alphatype>straight</alphatype>
                <rate>
                  <timebase>24</timebase>
                  <ntsc>FALSE</ntsc>
                </rate>
                <enabled>TRUE</enabled>
                <start>326</start>
                <end>327</end>
                <file id="file-328"/>
              </clipitem>
              <clipitem frameBlend="FALSE" id="clipitem-1050">
                <name>Scene - Puppet man_0003.327.png</name>
                <masterclipid>masterclip-329</masterclipid>
                <rate>
                  <timebase>24</timebase>
                  <ntsc>FALSE</ntsc>
                </rate>
                <duration>1</duration>
                <enabled>TRUE</enabled>
                <alphatype>straight</alphatype>
                <rate>
                  <timebase>24</timebase>
                  <ntsc>FALSE</ntsc>
                </rate>
                <enabled>TRUE</enabled>
                <start>327</start>
                <end>328</end>
                <file id="file-329"/>
              </clipitem>
              <clipitem frameBlend="FALSE" id="clipitem-1051">
                <name>Scene - Puppet man_0003.328.png</name>
                <masterclipid>masterclip-330</masterclipid>
                <rate>
                  <timebase>24</timebase>
                  <ntsc>FALSE</ntsc>
                </rate>
                <duration>1</duration>
                <enabled>TRUE</enabled>
                <alphatype>straight</alphatype>
                <rate>
                  <timebase>24</timebase>
                  <ntsc>FALSE</ntsc>
                </rate>
                <enabled>TRUE</enabled>
                <start>328</start>
                <end>329</end>
                <file id="file-330"/>
              </clipitem>
              <clipitem frameBlend="FALSE" id="clipitem-1052">
                <name>Scene - Puppet man_0003.329.png</name>
                <masterclipid>masterclip-331</masterclipid>
                <rate>
                  <timebase>24</timebase>
                  <ntsc>FALSE</ntsc>
                </rate>
                <duration>1</duration>
                <enabled>TRUE</enabled>
                <alphatype>straight</alphatype>
                <rate>
                  <timebase>24</timebase>
                  <ntsc>FALSE</ntsc>
                </rate>
                <enabled>TRUE</enabled>
                <start>329</start>
                <end>330</end>
                <file id="file-331"/>
              </clipitem>
              <clipitem frameBlend="FALSE" id="clipitem-1053">
                <name>Scene - Puppet man_0003.330.png</name>
                <masterclipid>masterclip-332</masterclipid>
                <rate>
                  <timebase>24</timebase>
                  <ntsc>FALSE</ntsc>
                </rate>
                <duration>1</duration>
                <enabled>TRUE</enabled>
                <alphatype>straight</alphatype>
                <rate>
                  <timebase>24</timebase>
                  <ntsc>FALSE</ntsc>
                </rate>
                <enabled>TRUE</enabled>
                <start>330</start>
                <end>331</end>
                <file id="file-332"/>
              </clipitem>
              <clipitem frameBlend="FALSE" id="clipitem-1054">
                <name>Scene - Puppet man_0003.331.png</name>
                <masterclipid>masterclip-333</masterclipid>
                <rate>
                  <timebase>24</timebase>
                  <ntsc>FALSE</ntsc>
                </rate>
                <duration>1</duration>
                <enabled>TRUE</enabled>
                <alphatype>straight</alphatype>
                <rate>
                  <timebase>24</timebase>
                  <ntsc>FALSE</ntsc>
                </rate>
                <enabled>TRUE</enabled>
                <start>331</start>
                <end>332</end>
                <file id="file-333"/>
              </clipitem>
              <clipitem frameBlend="FALSE" id="clipitem-1055">
                <name>Scene - Puppet man_0003.332.png</name>
                <masterclipid>masterclip-334</masterclipid>
                <rate>
                  <timebase>24</timebase>
                  <ntsc>FALSE</ntsc>
                </rate>
                <duration>1</duration>
                <enabled>TRUE</enabled>
                <alphatype>straight</alphatype>
                <rate>
                  <timebase>24</timebase>
                  <ntsc>FALSE</ntsc>
                </rate>
                <enabled>TRUE</enabled>
                <start>332</start>
                <end>333</end>
                <file id="file-334"/>
              </clipitem>
              <clipitem frameBlend="FALSE" id="clipitem-1056">
                <name>Scene - Puppet man_0003.333.png</name>
                <masterclipid>masterclip-335</masterclipid>
                <rate>
                  <timebase>24</timebase>
                  <ntsc>FALSE</ntsc>
                </rate>
                <duration>1</duration>
                <enabled>TRUE</enabled>
                <alphatype>straight</alphatype>
                <rate>
                  <timebase>24</timebase>
                  <ntsc>FALSE</ntsc>
                </rate>
                <enabled>TRUE</enabled>
                <start>333</start>
                <end>334</end>
                <file id="file-335"/>
              </clipitem>
              <clipitem frameBlend="FALSE" id="clipitem-1057">
                <name>Scene - Puppet man_0003.334.png</name>
                <masterclipid>masterclip-336</masterclipid>
                <rate>
                  <timebase>24</timebase>
                  <ntsc>FALSE</ntsc>
                </rate>
                <duration>1</duration>
                <enabled>TRUE</enabled>
                <alphatype>straight</alphatype>
                <rate>
                  <timebase>24</timebase>
                  <ntsc>FALSE</ntsc>
                </rate>
                <enabled>TRUE</enabled>
                <start>334</start>
                <end>335</end>
                <file id="file-336"/>
              </clipitem>
              <clipitem frameBlend="FALSE" id="clipitem-1058">
                <name>Scene - Puppet man_0003.335.png</name>
                <masterclipid>masterclip-337</masterclipid>
                <rate>
                  <timebase>24</timebase>
                  <ntsc>FALSE</ntsc>
                </rate>
                <duration>1</duration>
                <enabled>TRUE</enabled>
                <alphatype>straight</alphatype>
                <rate>
                  <timebase>24</timebase>
                  <ntsc>FALSE</ntsc>
                </rate>
                <enabled>TRUE</enabled>
                <start>335</start>
                <end>336</end>
                <file id="file-337"/>
              </clipitem>
              <clipitem frameBlend="FALSE" id="clipitem-1059">
                <name>Scene - Puppet man_0003.336.png</name>
                <masterclipid>masterclip-338</masterclipid>
                <rate>
                  <timebase>24</timebase>
                  <ntsc>FALSE</ntsc>
                </rate>
                <duration>1</duration>
                <enabled>TRUE</enabled>
                <alphatype>straight</alphatype>
                <rate>
                  <timebase>24</timebase>
                  <ntsc>FALSE</ntsc>
                </rate>
                <enabled>TRUE</enabled>
                <start>336</start>
                <end>337</end>
                <file id="file-338"/>
              </clipitem>
              <clipitem frameBlend="FALSE" id="clipitem-1060">
                <name>Scene - Puppet man_0003.337.png</name>
                <masterclipid>masterclip-339</masterclipid>
                <rate>
                  <timebase>24</timebase>
                  <ntsc>FALSE</ntsc>
                </rate>
                <duration>1</duration>
                <enabled>TRUE</enabled>
                <alphatype>straight</alphatype>
                <rate>
                  <timebase>24</timebase>
                  <ntsc>FALSE</ntsc>
                </rate>
                <enabled>TRUE</enabled>
                <start>337</start>
                <end>338</end>
                <file id="file-339"/>
              </clipitem>
              <clipitem frameBlend="FALSE" id="clipitem-1061">
                <name>Scene - Puppet man_0003.338.png</name>
                <masterclipid>masterclip-340</masterclipid>
                <rate>
                  <timebase>24</timebase>
                  <ntsc>FALSE</ntsc>
                </rate>
                <duration>1</duration>
                <enabled>TRUE</enabled>
                <alphatype>straight</alphatype>
                <rate>
                  <timebase>24</timebase>
                  <ntsc>FALSE</ntsc>
                </rate>
                <enabled>TRUE</enabled>
                <start>338</start>
                <end>339</end>
                <file id="file-340"/>
              </clipitem>
              <clipitem frameBlend="FALSE" id="clipitem-1062">
                <name>Scene - Puppet man_0003.339.png</name>
                <masterclipid>masterclip-341</masterclipid>
                <rate>
                  <timebase>24</timebase>
                  <ntsc>FALSE</ntsc>
                </rate>
                <duration>1</duration>
                <enabled>TRUE</enabled>
                <alphatype>straight</alphatype>
                <rate>
                  <timebase>24</timebase>
                  <ntsc>FALSE</ntsc>
                </rate>
                <enabled>TRUE</enabled>
                <start>339</start>
                <end>340</end>
                <file id="file-341"/>
              </clipitem>
              <clipitem frameBlend="FALSE" id="clipitem-1063">
                <name>Scene - Puppet man_0003.340.png</name>
                <masterclipid>masterclip-342</masterclipid>
                <rate>
                  <timebase>24</timebase>
                  <ntsc>FALSE</ntsc>
                </rate>
                <duration>1</duration>
                <enabled>TRUE</enabled>
                <alphatype>straight</alphatype>
                <rate>
                  <timebase>24</timebase>
                  <ntsc>FALSE</ntsc>
                </rate>
                <enabled>TRUE</enabled>
                <start>340</start>
                <end>341</end>
                <file id="file-342"/>
              </clipitem>
              <clipitem frameBlend="FALSE" id="clipitem-1064">
                <name>Scene - Puppet man_0003.341.png</name>
                <masterclipid>masterclip-343</masterclipid>
                <rate>
                  <timebase>24</timebase>
                  <ntsc>FALSE</ntsc>
                </rate>
                <duration>1</duration>
                <enabled>TRUE</enabled>
                <alphatype>straight</alphatype>
                <rate>
                  <timebase>24</timebase>
                  <ntsc>FALSE</ntsc>
                </rate>
                <enabled>TRUE</enabled>
                <start>341</start>
                <end>342</end>
                <file id="file-343"/>
              </clipitem>
              <clipitem frameBlend="FALSE" id="clipitem-1065">
                <name>Scene - Puppet man_0003.342.png</name>
                <masterclipid>masterclip-344</masterclipid>
                <rate>
                  <timebase>24</timebase>
                  <ntsc>FALSE</ntsc>
                </rate>
                <duration>1</duration>
                <enabled>TRUE</enabled>
                <alphatype>straight</alphatype>
                <rate>
                  <timebase>24</timebase>
                  <ntsc>FALSE</ntsc>
                </rate>
                <enabled>TRUE</enabled>
                <start>342</start>
                <end>343</end>
                <file id="file-344"/>
              </clipitem>
              <clipitem frameBlend="FALSE" id="clipitem-1066">
                <name>Scene - Puppet man_0003.343.png</name>
                <masterclipid>masterclip-345</masterclipid>
                <rate>
                  <timebase>24</timebase>
                  <ntsc>FALSE</ntsc>
                </rate>
                <duration>1</duration>
                <enabled>TRUE</enabled>
                <alphatype>straight</alphatype>
                <rate>
                  <timebase>24</timebase>
                  <ntsc>FALSE</ntsc>
                </rate>
                <enabled>TRUE</enabled>
                <start>343</start>
                <end>344</end>
                <file id="file-345"/>
              </clipitem>
              <clipitem frameBlend="FALSE" id="clipitem-1067">
                <name>Scene - Puppet man_0003.344.png</name>
                <masterclipid>masterclip-346</masterclipid>
                <rate>
                  <timebase>24</timebase>
                  <ntsc>FALSE</ntsc>
                </rate>
                <duration>1</duration>
                <enabled>TRUE</enabled>
                <alphatype>straight</alphatype>
                <rate>
                  <timebase>24</timebase>
                  <ntsc>FALSE</ntsc>
                </rate>
                <enabled>TRUE</enabled>
                <start>344</start>
                <end>345</end>
                <file id="file-346"/>
              </clipitem>
              <clipitem frameBlend="FALSE" id="clipitem-1068">
                <name>Scene - Puppet man_0003.345.png</name>
                <masterclipid>masterclip-347</masterclipid>
                <rate>
                  <timebase>24</timebase>
                  <ntsc>FALSE</ntsc>
                </rate>
                <duration>1</duration>
                <enabled>TRUE</enabled>
                <alphatype>straight</alphatype>
                <rate>
                  <timebase>24</timebase>
                  <ntsc>FALSE</ntsc>
                </rate>
                <enabled>TRUE</enabled>
                <start>345</start>
                <end>346</end>
                <file id="file-347"/>
              </clipitem>
              <clipitem frameBlend="FALSE" id="clipitem-1069">
                <name>Scene - Puppet man_0003.346.png</name>
                <masterclipid>masterclip-348</masterclipid>
                <rate>
                  <timebase>24</timebase>
                  <ntsc>FALSE</ntsc>
                </rate>
                <duration>1</duration>
                <enabled>TRUE</enabled>
                <alphatype>straight</alphatype>
                <rate>
                  <timebase>24</timebase>
                  <ntsc>FALSE</ntsc>
                </rate>
                <enabled>TRUE</enabled>
                <start>346</start>
                <end>347</end>
                <file id="file-348"/>
              </clipitem>
              <clipitem frameBlend="FALSE" id="clipitem-1070">
                <name>Scene - Puppet man_0003.347.png</name>
                <masterclipid>masterclip-349</masterclipid>
                <rate>
                  <timebase>24</timebase>
                  <ntsc>FALSE</ntsc>
                </rate>
                <duration>1</duration>
                <enabled>TRUE</enabled>
                <alphatype>straight</alphatype>
                <rate>
                  <timebase>24</timebase>
                  <ntsc>FALSE</ntsc>
                </rate>
                <enabled>TRUE</enabled>
                <start>347</start>
                <end>348</end>
                <file id="file-349"/>
              </clipitem>
              <clipitem frameBlend="FALSE" id="clipitem-1071">
                <name>Scene - Puppet man_0003.348.png</name>
                <masterclipid>masterclip-350</masterclipid>
                <rate>
                  <timebase>24</timebase>
                  <ntsc>FALSE</ntsc>
                </rate>
                <duration>1</duration>
                <enabled>TRUE</enabled>
                <alphatype>straight</alphatype>
                <rate>
                  <timebase>24</timebase>
                  <ntsc>FALSE</ntsc>
                </rate>
                <enabled>TRUE</enabled>
                <start>348</start>
                <end>349</end>
                <file id="file-350"/>
              </clipitem>
              <clipitem frameBlend="FALSE" id="clipitem-1072">
                <name>Scene - Puppet man_0003.349.png</name>
                <masterclipid>masterclip-351</masterclipid>
                <rate>
                  <timebase>24</timebase>
                  <ntsc>FALSE</ntsc>
                </rate>
                <duration>1</duration>
                <enabled>TRUE</enabled>
                <alphatype>straight</alphatype>
                <rate>
                  <timebase>24</timebase>
                  <ntsc>FALSE</ntsc>
                </rate>
                <enabled>TRUE</enabled>
                <start>349</start>
                <end>350</end>
                <file id="file-351"/>
              </clipitem>
              <clipitem frameBlend="FALSE" id="clipitem-1073">
                <name>Scene - Puppet man_0003.350.png</name>
                <masterclipid>masterclip-352</masterclipid>
                <rate>
                  <timebase>24</timebase>
                  <ntsc>FALSE</ntsc>
                </rate>
                <duration>1</duration>
                <enabled>TRUE</enabled>
                <alphatype>straight</alphatype>
                <rate>
                  <timebase>24</timebase>
                  <ntsc>FALSE</ntsc>
                </rate>
                <enabled>TRUE</enabled>
                <start>350</start>
                <end>351</end>
                <file id="file-352"/>
              </clipitem>
              <clipitem frameBlend="FALSE" id="clipitem-1074">
                <name>Scene - Puppet man_0003.351.png</name>
                <masterclipid>masterclip-353</masterclipid>
                <rate>
                  <timebase>24</timebase>
                  <ntsc>FALSE</ntsc>
                </rate>
                <duration>1</duration>
                <enabled>TRUE</enabled>
                <alphatype>straight</alphatype>
                <rate>
                  <timebase>24</timebase>
                  <ntsc>FALSE</ntsc>
                </rate>
                <enabled>TRUE</enabled>
                <start>351</start>
                <end>352</end>
                <file id="file-353"/>
              </clipitem>
              <clipitem frameBlend="FALSE" id="clipitem-1075">
                <name>Scene - Puppet man_0003.352.png</name>
                <masterclipid>masterclip-354</masterclipid>
                <rate>
                  <timebase>24</timebase>
                  <ntsc>FALSE</ntsc>
                </rate>
                <duration>1</duration>
                <enabled>TRUE</enabled>
                <alphatype>straight</alphatype>
                <rate>
                  <timebase>24</timebase>
                  <ntsc>FALSE</ntsc>
                </rate>
                <enabled>TRUE</enabled>
                <start>352</start>
                <end>353</end>
                <file id="file-354"/>
              </clipitem>
              <clipitem frameBlend="FALSE" id="clipitem-1076">
                <name>Scene - Puppet man_0003.353.png</name>
                <masterclipid>masterclip-355</masterclipid>
                <rate>
                  <timebase>24</timebase>
                  <ntsc>FALSE</ntsc>
                </rate>
                <duration>1</duration>
                <enabled>TRUE</enabled>
                <alphatype>straight</alphatype>
                <rate>
                  <timebase>24</timebase>
                  <ntsc>FALSE</ntsc>
                </rate>
                <enabled>TRUE</enabled>
                <start>353</start>
                <end>354</end>
                <file id="file-355"/>
              </clipitem>
              <clipitem frameBlend="FALSE" id="clipitem-1077">
                <name>Scene - Puppet man_0003.354.png</name>
                <masterclipid>masterclip-356</masterclipid>
                <rate>
                  <timebase>24</timebase>
                  <ntsc>FALSE</ntsc>
                </rate>
                <duration>1</duration>
                <enabled>TRUE</enabled>
                <alphatype>straight</alphatype>
                <rate>
                  <timebase>24</timebase>
                  <ntsc>FALSE</ntsc>
                </rate>
                <enabled>TRUE</enabled>
                <start>354</start>
                <end>355</end>
                <file id="file-356"/>
              </clipitem>
              <clipitem frameBlend="FALSE" id="clipitem-1078">
                <name>Scene - Puppet man_0003.355.png</name>
                <masterclipid>masterclip-357</masterclipid>
                <rate>
                  <timebase>24</timebase>
                  <ntsc>FALSE</ntsc>
                </rate>
                <duration>1</duration>
                <enabled>TRUE</enabled>
                <alphatype>straight</alphatype>
                <rate>
                  <timebase>24</timebase>
                  <ntsc>FALSE</ntsc>
                </rate>
                <enabled>TRUE</enabled>
                <start>355</start>
                <end>356</end>
                <file id="file-357"/>
              </clipitem>
              <clipitem frameBlend="FALSE" id="clipitem-1079">
                <name>Scene - Puppet man_0003.356.png</name>
                <masterclipid>masterclip-358</masterclipid>
                <rate>
                  <timebase>24</timebase>
                  <ntsc>FALSE</ntsc>
                </rate>
                <duration>1</duration>
                <enabled>TRUE</enabled>
                <alphatype>straight</alphatype>
                <rate>
                  <timebase>24</timebase>
                  <ntsc>FALSE</ntsc>
                </rate>
                <enabled>TRUE</enabled>
                <start>356</start>
                <end>357</end>
                <file id="file-358"/>
              </clipitem>
              <clipitem frameBlend="FALSE" id="clipitem-1080">
                <name>Scene - Puppet man_0003.357.png</name>
                <masterclipid>masterclip-359</masterclipid>
                <rate>
                  <timebase>24</timebase>
                  <ntsc>FALSE</ntsc>
                </rate>
                <duration>1</duration>
                <enabled>TRUE</enabled>
                <alphatype>straight</alphatype>
                <rate>
                  <timebase>24</timebase>
                  <ntsc>FALSE</ntsc>
                </rate>
                <enabled>TRUE</enabled>
                <start>357</start>
                <end>358</end>
                <file id="file-359"/>
              </clipitem>
              <clipitem frameBlend="FALSE" id="clipitem-1081">
                <name>Scene - Puppet man_0003.358.png</name>
                <masterclipid>masterclip-360</masterclipid>
                <rate>
                  <timebase>24</timebase>
                  <ntsc>FALSE</ntsc>
                </rate>
                <duration>1</duration>
                <enabled>TRUE</enabled>
                <alphatype>straight</alphatype>
                <rate>
                  <timebase>24</timebase>
                  <ntsc>FALSE</ntsc>
                </rate>
                <enabled>TRUE</enabled>
                <start>358</start>
                <end>359</end>
                <file id="file-360"/>
              </clipitem>
              <clipitem frameBlend="FALSE" id="clipitem-1082">
                <name>Scene - Puppet man_0003.359.png</name>
                <masterclipid>masterclip-361</masterclipid>
                <rate>
                  <timebase>24</timebase>
                  <ntsc>FALSE</ntsc>
                </rate>
                <duration>1</duration>
                <enabled>TRUE</enabled>
                <alphatype>straight</alphatype>
                <rate>
                  <timebase>24</timebase>
                  <ntsc>FALSE</ntsc>
                </rate>
                <enabled>TRUE</enabled>
                <start>359</start>
                <end>360</end>
                <file id="file-361"/>
              </clipitem>
              <clipitem frameBlend="FALSE" id="clipitem-1083">
                <name>Scene - Puppet man_0003.360.png</name>
                <masterclipid>masterclip-362</masterclipid>
                <rate>
                  <timebase>24</timebase>
                  <ntsc>FALSE</ntsc>
                </rate>
                <duration>1</duration>
                <enabled>TRUE</enabled>
                <alphatype>straight</alphatype>
                <rate>
                  <timebase>24</timebase>
                  <ntsc>FALSE</ntsc>
                </rate>
                <enabled>TRUE</enabled>
                <start>360</start>
                <end>361</end>
                <file id="file-362"/>
              </clipitem>
              <clipitem frameBlend="FALSE" id="clipitem-1084">
                <name>Scene - Puppet man_0003.361.png</name>
                <masterclipid>masterclip-363</masterclipid>
                <rate>
                  <timebase>24</timebase>
                  <ntsc>FALSE</ntsc>
                </rate>
                <duration>1</duration>
                <enabled>TRUE</enabled>
                <alphatype>straight</alphatype>
                <rate>
                  <timebase>24</timebase>
                  <ntsc>FALSE</ntsc>
                </rate>
                <enabled>TRUE</enabled>
                <start>361</start>
                <end>362</end>
                <file id="file-363"/>
              </clipitem>
              <clipitem frameBlend="FALSE" id="clipitem-1085">
                <name>Scene - Puppet man_0003.362.png</name>
                <masterclipid>masterclip-364</masterclipid>
                <rate>
                  <timebase>24</timebase>
                  <ntsc>FALSE</ntsc>
                </rate>
                <duration>1</duration>
                <enabled>TRUE</enabled>
                <alphatype>straight</alphatype>
                <rate>
                  <timebase>24</timebase>
                  <ntsc>FALSE</ntsc>
                </rate>
                <enabled>TRUE</enabled>
                <start>362</start>
                <end>363</end>
                <file id="file-364"/>
              </clipitem>
              <clipitem frameBlend="FALSE" id="clipitem-1086">
                <name>Scene - Puppet man_0003.363.png</name>
                <masterclipid>masterclip-365</masterclipid>
                <rate>
                  <timebase>24</timebase>
                  <ntsc>FALSE</ntsc>
                </rate>
                <duration>1</duration>
                <enabled>TRUE</enabled>
                <alphatype>straight</alphatype>
                <rate>
                  <timebase>24</timebase>
                  <ntsc>FALSE</ntsc>
                </rate>
                <enabled>TRUE</enabled>
                <start>363</start>
                <end>364</end>
                <file id="file-365"/>
              </clipitem>
              <clipitem frameBlend="FALSE" id="clipitem-1087">
                <name>Scene - Puppet man_0003.364.png</name>
                <masterclipid>masterclip-366</masterclipid>
                <rate>
                  <timebase>24</timebase>
                  <ntsc>FALSE</ntsc>
                </rate>
                <duration>1</duration>
                <enabled>TRUE</enabled>
                <alphatype>straight</alphatype>
                <rate>
                  <timebase>24</timebase>
                  <ntsc>FALSE</ntsc>
                </rate>
                <enabled>TRUE</enabled>
                <start>364</start>
                <end>365</end>
                <file id="file-366"/>
              </clipitem>
              <clipitem frameBlend="FALSE" id="clipitem-1088">
                <name>Scene - Puppet man_0003.365.png</name>
                <masterclipid>masterclip-367</masterclipid>
                <rate>
                  <timebase>24</timebase>
                  <ntsc>FALSE</ntsc>
                </rate>
                <duration>1</duration>
                <enabled>TRUE</enabled>
                <alphatype>straight</alphatype>
                <rate>
                  <timebase>24</timebase>
                  <ntsc>FALSE</ntsc>
                </rate>
                <enabled>TRUE</enabled>
                <start>365</start>
                <end>366</end>
                <file id="file-367"/>
              </clipitem>
              <clipitem frameBlend="FALSE" id="clipitem-1089">
                <name>Scene - Puppet man_0003.366.png</name>
                <masterclipid>masterclip-368</masterclipid>
                <rate>
                  <timebase>24</timebase>
                  <ntsc>FALSE</ntsc>
                </rate>
                <duration>1</duration>
                <enabled>TRUE</enabled>
                <alphatype>straight</alphatype>
                <rate>
                  <timebase>24</timebase>
                  <ntsc>FALSE</ntsc>
                </rate>
                <enabled>TRUE</enabled>
                <start>366</start>
                <end>367</end>
                <file id="file-368"/>
              </clipitem>
              <clipitem frameBlend="FALSE" id="clipitem-1090">
                <name>Scene - Puppet man_0003.367.png</name>
                <masterclipid>masterclip-369</masterclipid>
                <rate>
                  <timebase>24</timebase>
                  <ntsc>FALSE</ntsc>
                </rate>
                <duration>1</duration>
                <enabled>TRUE</enabled>
                <alphatype>straight</alphatype>
                <rate>
                  <timebase>24</timebase>
                  <ntsc>FALSE</ntsc>
                </rate>
                <enabled>TRUE</enabled>
                <start>367</start>
                <end>368</end>
                <file id="file-369"/>
              </clipitem>
              <clipitem frameBlend="FALSE" id="clipitem-1091">
                <name>Scene - Puppet man_0003.368.png</name>
                <masterclipid>masterclip-370</masterclipid>
                <rate>
                  <timebase>24</timebase>
                  <ntsc>FALSE</ntsc>
                </rate>
                <duration>1</duration>
                <enabled>TRUE</enabled>
                <alphatype>straight</alphatype>
                <rate>
                  <timebase>24</timebase>
                  <ntsc>FALSE</ntsc>
                </rate>
                <enabled>TRUE</enabled>
                <start>368</start>
                <end>369</end>
                <file id="file-370"/>
              </clipitem>
              <clipitem frameBlend="FALSE" id="clipitem-1092">
                <name>Scene - Puppet man_0003.369.png</name>
                <masterclipid>masterclip-371</masterclipid>
                <rate>
                  <timebase>24</timebase>
                  <ntsc>FALSE</ntsc>
                </rate>
                <duration>1</duration>
                <enabled>TRUE</enabled>
                <alphatype>straight</alphatype>
                <rate>
                  <timebase>24</timebase>
                  <ntsc>FALSE</ntsc>
                </rate>
                <enabled>TRUE</enabled>
                <start>369</start>
                <end>370</end>
                <file id="file-371"/>
              </clipitem>
              <clipitem frameBlend="FALSE" id="clipitem-1093">
                <name>Scene - Puppet man_0003.370.png</name>
                <masterclipid>masterclip-372</masterclipid>
                <rate>
                  <timebase>24</timebase>
                  <ntsc>FALSE</ntsc>
                </rate>
                <duration>1</duration>
                <enabled>TRUE</enabled>
                <alphatype>straight</alphatype>
                <rate>
                  <timebase>24</timebase>
                  <ntsc>FALSE</ntsc>
                </rate>
                <enabled>TRUE</enabled>
                <start>370</start>
                <end>371</end>
                <file id="file-372"/>
              </clipitem>
              <clipitem frameBlend="FALSE" id="clipitem-1094">
                <name>Scene - Puppet man_0003.371.png</name>
                <masterclipid>masterclip-373</masterclipid>
                <rate>
                  <timebase>24</timebase>
                  <ntsc>FALSE</ntsc>
                </rate>
                <duration>1</duration>
                <enabled>TRUE</enabled>
                <alphatype>straight</alphatype>
                <rate>
                  <timebase>24</timebase>
                  <ntsc>FALSE</ntsc>
                </rate>
                <enabled>TRUE</enabled>
                <start>371</start>
                <end>372</end>
                <file id="file-373"/>
              </clipitem>
              <clipitem frameBlend="FALSE" id="clipitem-1095">
                <name>Scene - Puppet man_0003.372.png</name>
                <masterclipid>masterclip-374</masterclipid>
                <rate>
                  <timebase>24</timebase>
                  <ntsc>FALSE</ntsc>
                </rate>
                <duration>1</duration>
                <enabled>TRUE</enabled>
                <alphatype>straight</alphatype>
                <rate>
                  <timebase>24</timebase>
                  <ntsc>FALSE</ntsc>
                </rate>
                <enabled>TRUE</enabled>
                <start>372</start>
                <end>373</end>
                <file id="file-374"/>
              </clipitem>
              <clipitem frameBlend="FALSE" id="clipitem-1096">
                <name>Scene - Puppet man_0003.373.png</name>
                <masterclipid>masterclip-375</masterclipid>
                <rate>
                  <timebase>24</timebase>
                  <ntsc>FALSE</ntsc>
                </rate>
                <duration>1</duration>
                <enabled>TRUE</enabled>
                <alphatype>straight</alphatype>
                <rate>
                  <timebase>24</timebase>
                  <ntsc>FALSE</ntsc>
                </rate>
                <enabled>TRUE</enabled>
                <start>373</start>
                <end>374</end>
                <file id="file-375"/>
              </clipitem>
              <clipitem frameBlend="FALSE" id="clipitem-1097">
                <name>Scene - Puppet man_0003.374.png</name>
                <masterclipid>masterclip-376</masterclipid>
                <rate>
                  <timebase>24</timebase>
                  <ntsc>FALSE</ntsc>
                </rate>
                <duration>1</duration>
                <enabled>TRUE</enabled>
                <alphatype>straight</alphatype>
                <rate>
                  <timebase>24</timebase>
                  <ntsc>FALSE</ntsc>
                </rate>
                <enabled>TRUE</enabled>
                <start>374</start>
                <end>375</end>
                <file id="file-376"/>
              </clipitem>
              <clipitem frameBlend="FALSE" id="clipitem-1098">
                <name>Scene - Puppet man_0003.375.png</name>
                <masterclipid>masterclip-377</masterclipid>
                <rate>
                  <timebase>24</timebase>
                  <ntsc>FALSE</ntsc>
                </rate>
                <duration>1</duration>
                <enabled>TRUE</enabled>
                <alphatype>straight</alphatype>
                <rate>
                  <timebase>24</timebase>
                  <ntsc>FALSE</ntsc>
                </rate>
                <enabled>TRUE</enabled>
                <start>375</start>
                <end>376</end>
                <file id="file-377"/>
              </clipitem>
              <clipitem frameBlend="FALSE" id="clipitem-1099">
                <name>Scene - Puppet man_0003.376.png</name>
                <masterclipid>masterclip-378</masterclipid>
                <rate>
                  <timebase>24</timebase>
                  <ntsc>FALSE</ntsc>
                </rate>
                <duration>1</duration>
                <enabled>TRUE</enabled>
                <alphatype>straight</alphatype>
                <rate>
                  <timebase>24</timebase>
                  <ntsc>FALSE</ntsc>
                </rate>
                <enabled>TRUE</enabled>
                <start>376</start>
                <end>377</end>
                <file id="file-378"/>
              </clipitem>
              <clipitem frameBlend="FALSE" id="clipitem-1100">
                <name>Scene - Puppet man_0003.377.png</name>
                <masterclipid>masterclip-379</masterclipid>
                <rate>
                  <timebase>24</timebase>
                  <ntsc>FALSE</ntsc>
                </rate>
                <duration>1</duration>
                <enabled>TRUE</enabled>
                <alphatype>straight</alphatype>
                <rate>
                  <timebase>24</timebase>
                  <ntsc>FALSE</ntsc>
                </rate>
                <enabled>TRUE</enabled>
                <start>377</start>
                <end>378</end>
                <file id="file-379"/>
              </clipitem>
              <clipitem frameBlend="FALSE" id="clipitem-1101">
                <name>Scene - Puppet man_0003.378.png</name>
                <masterclipid>masterclip-380</masterclipid>
                <rate>
                  <timebase>24</timebase>
                  <ntsc>FALSE</ntsc>
                </rate>
                <duration>1</duration>
                <enabled>TRUE</enabled>
                <alphatype>straight</alphatype>
                <rate>
                  <timebase>24</timebase>
                  <ntsc>FALSE</ntsc>
                </rate>
                <enabled>TRUE</enabled>
                <start>378</start>
                <end>379</end>
                <file id="file-380"/>
              </clipitem>
              <clipitem frameBlend="FALSE" id="clipitem-1102">
                <name>Scene - Puppet man_0003.379.png</name>
                <masterclipid>masterclip-381</masterclipid>
                <rate>
                  <timebase>24</timebase>
                  <ntsc>FALSE</ntsc>
                </rate>
                <duration>1</duration>
                <enabled>TRUE</enabled>
                <alphatype>straight</alphatype>
                <rate>
                  <timebase>24</timebase>
                  <ntsc>FALSE</ntsc>
                </rate>
                <enabled>TRUE</enabled>
                <start>379</start>
                <end>380</end>
                <file id="file-381"/>
              </clipitem>
              <clipitem frameBlend="FALSE" id="clipitem-1103">
                <name>Scene - Puppet man_0003.380.png</name>
                <masterclipid>masterclip-382</masterclipid>
                <rate>
                  <timebase>24</timebase>
                  <ntsc>FALSE</ntsc>
                </rate>
                <duration>1</duration>
                <enabled>TRUE</enabled>
                <alphatype>straight</alphatype>
                <rate>
                  <timebase>24</timebase>
                  <ntsc>FALSE</ntsc>
                </rate>
                <enabled>TRUE</enabled>
                <start>380</start>
                <end>381</end>
                <file id="file-382"/>
              </clipitem>
              <clipitem frameBlend="FALSE" id="clipitem-1104">
                <name>Scene - Puppet man_0003.381.png</name>
                <masterclipid>masterclip-383</masterclipid>
                <rate>
                  <timebase>24</timebase>
                  <ntsc>FALSE</ntsc>
                </rate>
                <duration>1</duration>
                <enabled>TRUE</enabled>
                <alphatype>straight</alphatype>
                <rate>
                  <timebase>24</timebase>
                  <ntsc>FALSE</ntsc>
                </rate>
                <enabled>TRUE</enabled>
                <start>381</start>
                <end>382</end>
                <file id="file-383"/>
              </clipitem>
              <clipitem frameBlend="FALSE" id="clipitem-1105">
                <name>Scene - Puppet man_0003.382.png</name>
                <masterclipid>masterclip-384</masterclipid>
                <rate>
                  <timebase>24</timebase>
                  <ntsc>FALSE</ntsc>
                </rate>
                <duration>1</duration>
                <enabled>TRUE</enabled>
                <alphatype>straight</alphatype>
                <rate>
                  <timebase>24</timebase>
                  <ntsc>FALSE</ntsc>
                </rate>
                <enabled>TRUE</enabled>
                <start>382</start>
                <end>383</end>
                <file id="file-384"/>
              </clipitem>
              <clipitem frameBlend="FALSE" id="clipitem-1106">
                <name>Scene - Puppet man_0003.383.png</name>
                <masterclipid>masterclip-385</masterclipid>
                <rate>
                  <timebase>24</timebase>
                  <ntsc>FALSE</ntsc>
                </rate>
                <duration>1</duration>
                <enabled>TRUE</enabled>
                <alphatype>straight</alphatype>
                <rate>
                  <timebase>24</timebase>
                  <ntsc>FALSE</ntsc>
                </rate>
                <enabled>TRUE</enabled>
                <start>383</start>
                <end>384</end>
                <file id="file-385"/>
              </clipitem>
              <clipitem frameBlend="FALSE" id="clipitem-1107">
                <name>Scene - Puppet man_0003.384.png</name>
                <masterclipid>masterclip-386</masterclipid>
                <rate>
                  <timebase>24</timebase>
                  <ntsc>FALSE</ntsc>
                </rate>
                <duration>1</duration>
                <enabled>TRUE</enabled>
                <alphatype>straight</alphatype>
                <rate>
                  <timebase>24</timebase>
                  <ntsc>FALSE</ntsc>
                </rate>
                <enabled>TRUE</enabled>
                <start>384</start>
                <end>385</end>
                <file id="file-386"/>
              </clipitem>
              <clipitem frameBlend="FALSE" id="clipitem-1108">
                <name>Scene - Puppet man_0003.385.png</name>
                <masterclipid>masterclip-387</masterclipid>
                <rate>
                  <timebase>24</timebase>
                  <ntsc>FALSE</ntsc>
                </rate>
                <duration>1</duration>
                <enabled>TRUE</enabled>
                <alphatype>straight</alphatype>
                <rate>
                  <timebase>24</timebase>
                  <ntsc>FALSE</ntsc>
                </rate>
                <enabled>TRUE</enabled>
                <start>385</start>
                <end>386</end>
                <file id="file-387"/>
              </clipitem>
              <clipitem frameBlend="FALSE" id="clipitem-1109">
                <name>Scene - Puppet man_0003.386.png</name>
                <masterclipid>masterclip-388</masterclipid>
                <rate>
                  <timebase>24</timebase>
                  <ntsc>FALSE</ntsc>
                </rate>
                <duration>1</duration>
                <enabled>TRUE</enabled>
                <alphatype>straight</alphatype>
                <rate>
                  <timebase>24</timebase>
                  <ntsc>FALSE</ntsc>
                </rate>
                <enabled>TRUE</enabled>
                <start>386</start>
                <end>387</end>
                <file id="file-388"/>
              </clipitem>
              <clipitem frameBlend="FALSE" id="clipitem-1110">
                <name>Scene - Puppet man_0003.387.png</name>
                <masterclipid>masterclip-389</masterclipid>
                <rate>
                  <timebase>24</timebase>
                  <ntsc>FALSE</ntsc>
                </rate>
                <duration>1</duration>
                <enabled>TRUE</enabled>
                <alphatype>straight</alphatype>
                <rate>
                  <timebase>24</timebase>
                  <ntsc>FALSE</ntsc>
                </rate>
                <enabled>TRUE</enabled>
                <start>387</start>
                <end>388</end>
                <file id="file-389"/>
              </clipitem>
              <clipitem frameBlend="FALSE" id="clipitem-1111">
                <name>Scene - Puppet man_0003.388.png</name>
                <masterclipid>masterclip-390</masterclipid>
                <rate>
                  <timebase>24</timebase>
                  <ntsc>FALSE</ntsc>
                </rate>
                <duration>1</duration>
                <enabled>TRUE</enabled>
                <alphatype>straight</alphatype>
                <rate>
                  <timebase>24</timebase>
                  <ntsc>FALSE</ntsc>
                </rate>
                <enabled>TRUE</enabled>
                <start>388</start>
                <end>389</end>
                <file id="file-390"/>
              </clipitem>
              <clipitem frameBlend="FALSE" id="clipitem-1112">
                <name>Scene - Puppet man_0003.389.png</name>
                <masterclipid>masterclip-391</masterclipid>
                <rate>
                  <timebase>24</timebase>
                  <ntsc>FALSE</ntsc>
                </rate>
                <duration>1</duration>
                <enabled>TRUE</enabled>
                <alphatype>straight</alphatype>
                <rate>
                  <timebase>24</timebase>
                  <ntsc>FALSE</ntsc>
                </rate>
                <enabled>TRUE</enabled>
                <start>389</start>
                <end>390</end>
                <file id="file-391"/>
              </clipitem>
              <clipitem frameBlend="FALSE" id="clipitem-1113">
                <name>Scene - Puppet man_0003.390.png</name>
                <masterclipid>masterclip-392</masterclipid>
                <rate>
                  <timebase>24</timebase>
                  <ntsc>FALSE</ntsc>
                </rate>
                <duration>1</duration>
                <enabled>TRUE</enabled>
                <alphatype>straight</alphatype>
                <rate>
                  <timebase>24</timebase>
                  <ntsc>FALSE</ntsc>
                </rate>
                <enabled>TRUE</enabled>
                <start>390</start>
                <end>391</end>
                <file id="file-392"/>
              </clipitem>
              <clipitem frameBlend="FALSE" id="clipitem-1114">
                <name>Scene - Puppet man_0003.391.png</name>
                <masterclipid>masterclip-393</masterclipid>
                <rate>
                  <timebase>24</timebase>
                  <ntsc>FALSE</ntsc>
                </rate>
                <duration>1</duration>
                <enabled>TRUE</enabled>
                <alphatype>straight</alphatype>
                <rate>
                  <timebase>24</timebase>
                  <ntsc>FALSE</ntsc>
                </rate>
                <enabled>TRUE</enabled>
                <start>391</start>
                <end>392</end>
                <file id="file-393"/>
              </clipitem>
              <clipitem frameBlend="FALSE" id="clipitem-1115">
                <name>Scene - Puppet man_0003.392.png</name>
                <masterclipid>masterclip-394</masterclipid>
                <rate>
                  <timebase>24</timebase>
                  <ntsc>FALSE</ntsc>
                </rate>
                <duration>1</duration>
                <enabled>TRUE</enabled>
                <alphatype>straight</alphatype>
                <rate>
                  <timebase>24</timebase>
                  <ntsc>FALSE</ntsc>
                </rate>
                <enabled>TRUE</enabled>
                <start>392</start>
                <end>393</end>
                <file id="file-394"/>
              </clipitem>
              <clipitem frameBlend="FALSE" id="clipitem-1116">
                <name>Scene - Puppet man_0003.393.png</name>
                <masterclipid>masterclip-395</masterclipid>
                <rate>
                  <timebase>24</timebase>
                  <ntsc>FALSE</ntsc>
                </rate>
                <duration>1</duration>
                <enabled>TRUE</enabled>
                <alphatype>straight</alphatype>
                <rate>
                  <timebase>24</timebase>
                  <ntsc>FALSE</ntsc>
                </rate>
                <enabled>TRUE</enabled>
                <start>393</start>
                <end>394</end>
                <file id="file-395"/>
              </clipitem>
              <clipitem frameBlend="FALSE" id="clipitem-1117">
                <name>Scene - Puppet man_0003.394.png</name>
                <masterclipid>masterclip-396</masterclipid>
                <rate>
                  <timebase>24</timebase>
                  <ntsc>FALSE</ntsc>
                </rate>
                <duration>1</duration>
                <enabled>TRUE</enabled>
                <alphatype>straight</alphatype>
                <rate>
                  <timebase>24</timebase>
                  <ntsc>FALSE</ntsc>
                </rate>
                <enabled>TRUE</enabled>
                <start>394</start>
                <end>395</end>
                <file id="file-396"/>
              </clipitem>
              <clipitem frameBlend="FALSE" id="clipitem-1118">
                <name>Scene - Puppet man_0003.395.png</name>
                <masterclipid>masterclip-397</masterclipid>
                <rate>
                  <timebase>24</timebase>
                  <ntsc>FALSE</ntsc>
                </rate>
                <duration>1</duration>
                <enabled>TRUE</enabled>
                <alphatype>straight</alphatype>
                <rate>
                  <timebase>24</timebase>
                  <ntsc>FALSE</ntsc>
                </rate>
                <enabled>TRUE</enabled>
                <start>395</start>
                <end>396</end>
                <file id="file-397"/>
              </clipitem>
              <clipitem frameBlend="FALSE" id="clipitem-1119">
                <name>Scene - Puppet man_0003.396.png</name>
                <masterclipid>masterclip-398</masterclipid>
                <rate>
                  <timebase>24</timebase>
                  <ntsc>FALSE</ntsc>
                </rate>
                <duration>1</duration>
                <enabled>TRUE</enabled>
                <alphatype>straight</alphatype>
                <rate>
                  <timebase>24</timebase>
                  <ntsc>FALSE</ntsc>
                </rate>
                <enabled>TRUE</enabled>
                <start>396</start>
                <end>397</end>
                <file id="file-398"/>
              </clipitem>
              <clipitem frameBlend="FALSE" id="clipitem-1120">
                <name>Scene - Puppet man_0003.397.png</name>
                <masterclipid>masterclip-399</masterclipid>
                <rate>
                  <timebase>24</timebase>
                  <ntsc>FALSE</ntsc>
                </rate>
                <duration>1</duration>
                <enabled>TRUE</enabled>
                <alphatype>straight</alphatype>
                <rate>
                  <timebase>24</timebase>
                  <ntsc>FALSE</ntsc>
                </rate>
                <enabled>TRUE</enabled>
                <start>397</start>
                <end>398</end>
                <file id="file-399"/>
              </clipitem>
              <clipitem frameBlend="FALSE" id="clipitem-1121">
                <name>Scene - Puppet man_0003.398.png</name>
                <masterclipid>masterclip-400</masterclipid>
                <rate>
                  <timebase>24</timebase>
                  <ntsc>FALSE</ntsc>
                </rate>
                <duration>1</duration>
                <enabled>TRUE</enabled>
                <alphatype>straight</alphatype>
                <rate>
                  <timebase>24</timebase>
                  <ntsc>FALSE</ntsc>
                </rate>
                <enabled>TRUE</enabled>
                <start>398</start>
                <end>399</end>
                <file id="file-400"/>
              </clipitem>
              <clipitem frameBlend="FALSE" id="clipitem-1122">
                <name>Scene - Puppet man_0003.399.png</name>
                <masterclipid>masterclip-401</masterclipid>
                <rate>
                  <timebase>24</timebase>
                  <ntsc>FALSE</ntsc>
                </rate>
                <duration>1</duration>
                <enabled>TRUE</enabled>
                <alphatype>straight</alphatype>
                <rate>
                  <timebase>24</timebase>
                  <ntsc>FALSE</ntsc>
                </rate>
                <enabled>TRUE</enabled>
                <start>399</start>
                <end>400</end>
                <file id="file-401"/>
              </clipitem>
              <clipitem frameBlend="FALSE" id="clipitem-1123">
                <name>Scene - Puppet man_0003.400.png</name>
                <masterclipid>masterclip-402</masterclipid>
                <rate>
                  <timebase>24</timebase>
                  <ntsc>FALSE</ntsc>
                </rate>
                <duration>1</duration>
                <enabled>TRUE</enabled>
                <alphatype>straight</alphatype>
                <rate>
                  <timebase>24</timebase>
                  <ntsc>FALSE</ntsc>
                </rate>
                <enabled>TRUE</enabled>
                <start>400</start>
                <end>401</end>
                <file id="file-402"/>
              </clipitem>
              <clipitem frameBlend="FALSE" id="clipitem-1124">
                <name>Scene - Puppet man_0003.401.png</name>
                <masterclipid>masterclip-403</masterclipid>
                <rate>
                  <timebase>24</timebase>
                  <ntsc>FALSE</ntsc>
                </rate>
                <duration>1</duration>
                <enabled>TRUE</enabled>
                <alphatype>straight</alphatype>
                <rate>
                  <timebase>24</timebase>
                  <ntsc>FALSE</ntsc>
                </rate>
                <enabled>TRUE</enabled>
                <start>401</start>
                <end>402</end>
                <file id="file-403"/>
              </clipitem>
              <clipitem frameBlend="FALSE" id="clipitem-1125">
                <name>Scene - Puppet man_0003.402.png</name>
                <masterclipid>masterclip-404</masterclipid>
                <rate>
                  <timebase>24</timebase>
                  <ntsc>FALSE</ntsc>
                </rate>
                <duration>1</duration>
                <enabled>TRUE</enabled>
                <alphatype>straight</alphatype>
                <rate>
                  <timebase>24</timebase>
                  <ntsc>FALSE</ntsc>
                </rate>
                <enabled>TRUE</enabled>
                <start>402</start>
                <end>403</end>
                <file id="file-404"/>
              </clipitem>
              <clipitem frameBlend="FALSE" id="clipitem-1126">
                <name>Scene - Puppet man_0003.403.png</name>
                <masterclipid>masterclip-405</masterclipid>
                <rate>
                  <timebase>24</timebase>
                  <ntsc>FALSE</ntsc>
                </rate>
                <duration>1</duration>
                <enabled>TRUE</enabled>
                <alphatype>straight</alphatype>
                <rate>
                  <timebase>24</timebase>
                  <ntsc>FALSE</ntsc>
                </rate>
                <enabled>TRUE</enabled>
                <start>403</start>
                <end>404</end>
                <file id="file-405"/>
              </clipitem>
              <clipitem frameBlend="FALSE" id="clipitem-1127">
                <name>Scene - Puppet man_0003.404.png</name>
                <masterclipid>masterclip-406</masterclipid>
                <rate>
                  <timebase>24</timebase>
                  <ntsc>FALSE</ntsc>
                </rate>
                <duration>1</duration>
                <enabled>TRUE</enabled>
                <alphatype>straight</alphatype>
                <rate>
                  <timebase>24</timebase>
                  <ntsc>FALSE</ntsc>
                </rate>
                <enabled>TRUE</enabled>
                <start>404</start>
                <end>405</end>
                <file id="file-406"/>
              </clipitem>
              <clipitem frameBlend="FALSE" id="clipitem-1128">
                <name>Scene - Puppet man_0003.405.png</name>
                <masterclipid>masterclip-407</masterclipid>
                <rate>
                  <timebase>24</timebase>
                  <ntsc>FALSE</ntsc>
                </rate>
                <duration>1</duration>
                <enabled>TRUE</enabled>
                <alphatype>straight</alphatype>
                <rate>
                  <timebase>24</timebase>
                  <ntsc>FALSE</ntsc>
                </rate>
                <enabled>TRUE</enabled>
                <start>405</start>
                <end>406</end>
                <file id="file-407"/>
              </clipitem>
              <clipitem frameBlend="FALSE" id="clipitem-1129">
                <name>Scene - Puppet man_0003.406.png</name>
                <masterclipid>masterclip-408</masterclipid>
                <rate>
                  <timebase>24</timebase>
                  <ntsc>FALSE</ntsc>
                </rate>
                <duration>1</duration>
                <enabled>TRUE</enabled>
                <alphatype>straight</alphatype>
                <rate>
                  <timebase>24</timebase>
                  <ntsc>FALSE</ntsc>
                </rate>
                <enabled>TRUE</enabled>
                <start>406</start>
                <end>407</end>
                <file id="file-408"/>
              </clipitem>
              <clipitem frameBlend="FALSE" id="clipitem-1130">
                <name>Scene - Puppet man_0003.407.png</name>
                <masterclipid>masterclip-409</masterclipid>
                <rate>
                  <timebase>24</timebase>
                  <ntsc>FALSE</ntsc>
                </rate>
                <duration>1</duration>
                <enabled>TRUE</enabled>
                <alphatype>straight</alphatype>
                <rate>
                  <timebase>24</timebase>
                  <ntsc>FALSE</ntsc>
                </rate>
                <enabled>TRUE</enabled>
                <start>407</start>
                <end>408</end>
                <file id="file-409"/>
              </clipitem>
              <clipitem frameBlend="FALSE" id="clipitem-1131">
                <name>Scene - Puppet man_0003.408.png</name>
                <masterclipid>masterclip-410</masterclipid>
                <rate>
                  <timebase>24</timebase>
                  <ntsc>FALSE</ntsc>
                </rate>
                <duration>1</duration>
                <enabled>TRUE</enabled>
                <alphatype>straight</alphatype>
                <rate>
                  <timebase>24</timebase>
                  <ntsc>FALSE</ntsc>
                </rate>
                <enabled>TRUE</enabled>
                <start>408</start>
                <end>409</end>
                <file id="file-410"/>
              </clipitem>
              <clipitem frameBlend="FALSE" id="clipitem-1132">
                <name>Scene - Puppet man_0003.409.png</name>
                <masterclipid>masterclip-411</masterclipid>
                <rate>
                  <timebase>24</timebase>
                  <ntsc>FALSE</ntsc>
                </rate>
                <duration>1</duration>
                <enabled>TRUE</enabled>
                <alphatype>straight</alphatype>
                <rate>
                  <timebase>24</timebase>
                  <ntsc>FALSE</ntsc>
                </rate>
                <enabled>TRUE</enabled>
                <start>409</start>
                <end>410</end>
                <file id="file-411"/>
              </clipitem>
              <clipitem frameBlend="FALSE" id="clipitem-1133">
                <name>Scene - Puppet man_0003.410.png</name>
                <masterclipid>masterclip-412</masterclipid>
                <rate>
                  <timebase>24</timebase>
                  <ntsc>FALSE</ntsc>
                </rate>
                <duration>1</duration>
                <enabled>TRUE</enabled>
                <alphatype>straight</alphatype>
                <rate>
                  <timebase>24</timebase>
                  <ntsc>FALSE</ntsc>
                </rate>
                <enabled>TRUE</enabled>
                <start>410</start>
                <end>411</end>
                <file id="file-412"/>
              </clipitem>
              <clipitem frameBlend="FALSE" id="clipitem-1134">
                <name>Scene - Puppet man_0003.411.png</name>
                <masterclipid>masterclip-413</masterclipid>
                <rate>
                  <timebase>24</timebase>
                  <ntsc>FALSE</ntsc>
                </rate>
                <duration>1</duration>
                <enabled>TRUE</enabled>
                <alphatype>straight</alphatype>
                <rate>
                  <timebase>24</timebase>
                  <ntsc>FALSE</ntsc>
                </rate>
                <enabled>TRUE</enabled>
                <start>411</start>
                <end>412</end>
                <file id="file-413"/>
              </clipitem>
              <clipitem frameBlend="FALSE" id="clipitem-1135">
                <name>Scene - Puppet man_0003.412.png</name>
                <masterclipid>masterclip-414</masterclipid>
                <rate>
                  <timebase>24</timebase>
                  <ntsc>FALSE</ntsc>
                </rate>
                <duration>1</duration>
                <enabled>TRUE</enabled>
                <alphatype>straight</alphatype>
                <rate>
                  <timebase>24</timebase>
                  <ntsc>FALSE</ntsc>
                </rate>
                <enabled>TRUE</enabled>
                <start>412</start>
                <end>413</end>
                <file id="file-414"/>
              </clipitem>
              <clipitem frameBlend="FALSE" id="clipitem-1136">
                <name>Scene - Puppet man_0003.413.png</name>
                <masterclipid>masterclip-415</masterclipid>
                <rate>
                  <timebase>24</timebase>
                  <ntsc>FALSE</ntsc>
                </rate>
                <duration>1</duration>
                <enabled>TRUE</enabled>
                <alphatype>straight</alphatype>
                <rate>
                  <timebase>24</timebase>
                  <ntsc>FALSE</ntsc>
                </rate>
                <enabled>TRUE</enabled>
                <start>413</start>
                <end>414</end>
                <file id="file-415"/>
              </clipitem>
              <clipitem frameBlend="FALSE" id="clipitem-1137">
                <name>Scene - Puppet man_0003.414.png</name>
                <masterclipid>masterclip-416</masterclipid>
                <rate>
                  <timebase>24</timebase>
                  <ntsc>FALSE</ntsc>
                </rate>
                <duration>1</duration>
                <enabled>TRUE</enabled>
                <alphatype>straight</alphatype>
                <rate>
                  <timebase>24</timebase>
                  <ntsc>FALSE</ntsc>
                </rate>
                <enabled>TRUE</enabled>
                <start>414</start>
                <end>415</end>
                <file id="file-416"/>
              </clipitem>
              <clipitem frameBlend="FALSE" id="clipitem-1138">
                <name>Scene - Puppet man_0003.415.png</name>
                <masterclipid>masterclip-417</masterclipid>
                <rate>
                  <timebase>24</timebase>
                  <ntsc>FALSE</ntsc>
                </rate>
                <duration>1</duration>
                <enabled>TRUE</enabled>
                <alphatype>straight</alphatype>
                <rate>
                  <timebase>24</timebase>
                  <ntsc>FALSE</ntsc>
                </rate>
                <enabled>TRUE</enabled>
                <start>415</start>
                <end>416</end>
                <file id="file-417"/>
              </clipitem>
              <clipitem frameBlend="FALSE" id="clipitem-1139">
                <name>Scene - Puppet man_0003.416.png</name>
                <masterclipid>masterclip-418</masterclipid>
                <rate>
                  <timebase>24</timebase>
                  <ntsc>FALSE</ntsc>
                </rate>
                <duration>1</duration>
                <enabled>TRUE</enabled>
                <alphatype>straight</alphatype>
                <rate>
                  <timebase>24</timebase>
                  <ntsc>FALSE</ntsc>
                </rate>
                <enabled>TRUE</enabled>
                <start>416</start>
                <end>417</end>
                <file id="file-418"/>
              </clipitem>
              <clipitem frameBlend="FALSE" id="clipitem-1140">
                <name>Scene - Puppet man_0003.417.png</name>
                <masterclipid>masterclip-419</masterclipid>
                <rate>
                  <timebase>24</timebase>
                  <ntsc>FALSE</ntsc>
                </rate>
                <duration>1</duration>
                <enabled>TRUE</enabled>
                <alphatype>straight</alphatype>
                <rate>
                  <timebase>24</timebase>
                  <ntsc>FALSE</ntsc>
                </rate>
                <enabled>TRUE</enabled>
                <start>417</start>
                <end>418</end>
                <file id="file-419"/>
              </clipitem>
              <clipitem frameBlend="FALSE" id="clipitem-1141">
                <name>Scene - Puppet man_0003.418.png</name>
                <masterclipid>masterclip-420</masterclipid>
                <rate>
                  <timebase>24</timebase>
                  <ntsc>FALSE</ntsc>
                </rate>
                <duration>1</duration>
                <enabled>TRUE</enabled>
                <alphatype>straight</alphatype>
                <rate>
                  <timebase>24</timebase>
                  <ntsc>FALSE</ntsc>
                </rate>
                <enabled>TRUE</enabled>
                <start>418</start>
                <end>419</end>
                <file id="file-420"/>
              </clipitem>
              <clipitem frameBlend="FALSE" id="clipitem-1142">
                <name>Scene - Puppet man_0003.419.png</name>
                <masterclipid>masterclip-421</masterclipid>
                <rate>
                  <timebase>24</timebase>
                  <ntsc>FALSE</ntsc>
                </rate>
                <duration>1</duration>
                <enabled>TRUE</enabled>
                <alphatype>straight</alphatype>
                <rate>
                  <timebase>24</timebase>
                  <ntsc>FALSE</ntsc>
                </rate>
                <enabled>TRUE</enabled>
                <start>419</start>
                <end>420</end>
                <file id="file-421"/>
              </clipitem>
              <clipitem frameBlend="FALSE" id="clipitem-1143">
                <name>Scene - Puppet man_0003.420.png</name>
                <masterclipid>masterclip-422</masterclipid>
                <rate>
                  <timebase>24</timebase>
                  <ntsc>FALSE</ntsc>
                </rate>
                <duration>1</duration>
                <enabled>TRUE</enabled>
                <alphatype>straight</alphatype>
                <rate>
                  <timebase>24</timebase>
                  <ntsc>FALSE</ntsc>
                </rate>
                <enabled>TRUE</enabled>
                <start>420</start>
                <end>421</end>
                <file id="file-422"/>
              </clipitem>
              <clipitem frameBlend="FALSE" id="clipitem-1144">
                <name>Scene - Puppet man_0003.421.png</name>
                <masterclipid>masterclip-423</masterclipid>
                <rate>
                  <timebase>24</timebase>
                  <ntsc>FALSE</ntsc>
                </rate>
                <duration>1</duration>
                <enabled>TRUE</enabled>
                <alphatype>straight</alphatype>
                <rate>
                  <timebase>24</timebase>
                  <ntsc>FALSE</ntsc>
                </rate>
                <enabled>TRUE</enabled>
                <start>421</start>
                <end>422</end>
                <file id="file-423"/>
              </clipitem>
              <clipitem frameBlend="FALSE" id="clipitem-1145">
                <name>Scene - Puppet man_0003.422.png</name>
                <masterclipid>masterclip-424</masterclipid>
                <rate>
                  <timebase>24</timebase>
                  <ntsc>FALSE</ntsc>
                </rate>
                <duration>1</duration>
                <enabled>TRUE</enabled>
                <alphatype>straight</alphatype>
                <rate>
                  <timebase>24</timebase>
                  <ntsc>FALSE</ntsc>
                </rate>
                <enabled>TRUE</enabled>
                <start>422</start>
                <end>423</end>
                <file id="file-424"/>
              </clipitem>
              <clipitem frameBlend="FALSE" id="clipitem-1146">
                <name>Scene - Puppet man_0003.423.png</name>
                <masterclipid>masterclip-425</masterclipid>
                <rate>
                  <timebase>24</timebase>
                  <ntsc>FALSE</ntsc>
                </rate>
                <duration>1</duration>
                <enabled>TRUE</enabled>
                <alphatype>straight</alphatype>
                <rate>
                  <timebase>24</timebase>
                  <ntsc>FALSE</ntsc>
                </rate>
                <enabled>TRUE</enabled>
                <start>423</start>
                <end>424</end>
                <file id="file-425"/>
              </clipitem>
              <clipitem frameBlend="FALSE" id="clipitem-1147">
                <name>Scene - Puppet man_0003.424.png</name>
                <masterclipid>masterclip-426</masterclipid>
                <rate>
                  <timebase>24</timebase>
                  <ntsc>FALSE</ntsc>
                </rate>
                <duration>1</duration>
                <enabled>TRUE</enabled>
                <alphatype>straight</alphatype>
                <rate>
                  <timebase>24</timebase>
                  <ntsc>FALSE</ntsc>
                </rate>
                <enabled>TRUE</enabled>
                <start>424</start>
                <end>425</end>
                <file id="file-426"/>
              </clipitem>
              <clipitem frameBlend="FALSE" id="clipitem-1148">
                <name>Scene - Puppet man_0003.425.png</name>
                <masterclipid>masterclip-427</masterclipid>
                <rate>
                  <timebase>24</timebase>
                  <ntsc>FALSE</ntsc>
                </rate>
                <duration>1</duration>
                <enabled>TRUE</enabled>
                <alphatype>straight</alphatype>
                <rate>
                  <timebase>24</timebase>
                  <ntsc>FALSE</ntsc>
                </rate>
                <enabled>TRUE</enabled>
                <start>425</start>
                <end>426</end>
                <file id="file-427"/>
              </clipitem>
              <clipitem frameBlend="FALSE" id="clipitem-1149">
                <name>Scene - Puppet man_0003.426.png</name>
                <masterclipid>masterclip-428</masterclipid>
                <rate>
                  <timebase>24</timebase>
                  <ntsc>FALSE</ntsc>
                </rate>
                <duration>1</duration>
                <enabled>TRUE</enabled>
                <alphatype>straight</alphatype>
                <rate>
                  <timebase>24</timebase>
                  <ntsc>FALSE</ntsc>
                </rate>
                <enabled>TRUE</enabled>
                <start>426</start>
                <end>427</end>
                <file id="file-428"/>
              </clipitem>
              <clipitem frameBlend="FALSE" id="clipitem-1150">
                <name>Scene - Puppet man_0003.427.png</name>
                <masterclipid>masterclip-429</masterclipid>
                <rate>
                  <timebase>24</timebase>
                  <ntsc>FALSE</ntsc>
                </rate>
                <duration>1</duration>
                <enabled>TRUE</enabled>
                <alphatype>straight</alphatype>
                <rate>
                  <timebase>24</timebase>
                  <ntsc>FALSE</ntsc>
                </rate>
                <enabled>TRUE</enabled>
                <start>427</start>
                <end>428</end>
                <file id="file-429"/>
              </clipitem>
              <clipitem frameBlend="FALSE" id="clipitem-1151">
                <name>Scene - Puppet man_0003.428.png</name>
                <masterclipid>masterclip-430</masterclipid>
                <rate>
                  <timebase>24</timebase>
                  <ntsc>FALSE</ntsc>
                </rate>
                <duration>1</duration>
                <enabled>TRUE</enabled>
                <alphatype>straight</alphatype>
                <rate>
                  <timebase>24</timebase>
                  <ntsc>FALSE</ntsc>
                </rate>
                <enabled>TRUE</enabled>
                <start>428</start>
                <end>429</end>
                <file id="file-430"/>
              </clipitem>
              <clipitem frameBlend="FALSE" id="clipitem-1152">
                <name>Scene - Puppet man_0003.429.png</name>
                <masterclipid>masterclip-431</masterclipid>
                <rate>
                  <timebase>24</timebase>
                  <ntsc>FALSE</ntsc>
                </rate>
                <duration>1</duration>
                <enabled>TRUE</enabled>
                <alphatype>straight</alphatype>
                <rate>
                  <timebase>24</timebase>
                  <ntsc>FALSE</ntsc>
                </rate>
                <enabled>TRUE</enabled>
                <start>429</start>
                <end>430</end>
                <file id="file-431"/>
              </clipitem>
              <clipitem frameBlend="FALSE" id="clipitem-1153">
                <name>Scene - Puppet man_0003.430.png</name>
                <masterclipid>masterclip-432</masterclipid>
                <rate>
                  <timebase>24</timebase>
                  <ntsc>FALSE</ntsc>
                </rate>
                <duration>1</duration>
                <enabled>TRUE</enabled>
                <alphatype>straight</alphatype>
                <rate>
                  <timebase>24</timebase>
                  <ntsc>FALSE</ntsc>
                </rate>
                <enabled>TRUE</enabled>
                <start>430</start>
                <end>431</end>
                <file id="file-432"/>
              </clipitem>
              <clipitem frameBlend="FALSE" id="clipitem-1154">
                <name>Scene - Puppet man_0003.431.png</name>
                <masterclipid>masterclip-433</masterclipid>
                <rate>
                  <timebase>24</timebase>
                  <ntsc>FALSE</ntsc>
                </rate>
                <duration>1</duration>
                <enabled>TRUE</enabled>
                <alphatype>straight</alphatype>
                <rate>
                  <timebase>24</timebase>
                  <ntsc>FALSE</ntsc>
                </rate>
                <enabled>TRUE</enabled>
                <start>431</start>
                <end>432</end>
                <file id="file-433"/>
              </clipitem>
              <clipitem frameBlend="FALSE" id="clipitem-1155">
                <name>Scene - Puppet man_0003.432.png</name>
                <masterclipid>masterclip-434</masterclipid>
                <rate>
                  <timebase>24</timebase>
                  <ntsc>FALSE</ntsc>
                </rate>
                <duration>1</duration>
                <enabled>TRUE</enabled>
                <alphatype>straight</alphatype>
                <rate>
                  <timebase>24</timebase>
                  <ntsc>FALSE</ntsc>
                </rate>
                <enabled>TRUE</enabled>
                <start>432</start>
                <end>433</end>
                <file id="file-434"/>
              </clipitem>
              <clipitem frameBlend="FALSE" id="clipitem-1156">
                <name>Scene - Puppet man_0003.433.png</name>
                <masterclipid>masterclip-435</masterclipid>
                <rate>
                  <timebase>24</timebase>
                  <ntsc>FALSE</ntsc>
                </rate>
                <duration>1</duration>
                <enabled>TRUE</enabled>
                <alphatype>straight</alphatype>
                <rate>
                  <timebase>24</timebase>
                  <ntsc>FALSE</ntsc>
                </rate>
                <enabled>TRUE</enabled>
                <start>433</start>
                <end>434</end>
                <file id="file-435"/>
              </clipitem>
              <clipitem frameBlend="FALSE" id="clipitem-1157">
                <name>Scene - Puppet man_0003.434.png</name>
                <masterclipid>masterclip-436</masterclipid>
                <rate>
                  <timebase>24</timebase>
                  <ntsc>FALSE</ntsc>
                </rate>
                <duration>1</duration>
                <enabled>TRUE</enabled>
                <alphatype>straight</alphatype>
                <rate>
                  <timebase>24</timebase>
                  <ntsc>FALSE</ntsc>
                </rate>
                <enabled>TRUE</enabled>
                <start>434</start>
                <end>435</end>
                <file id="file-436"/>
              </clipitem>
              <clipitem frameBlend="FALSE" id="clipitem-1158">
                <name>Scene - Puppet man_0003.435.png</name>
                <masterclipid>masterclip-437</masterclipid>
                <rate>
                  <timebase>24</timebase>
                  <ntsc>FALSE</ntsc>
                </rate>
                <duration>1</duration>
                <enabled>TRUE</enabled>
                <alphatype>straight</alphatype>
                <rate>
                  <timebase>24</timebase>
                  <ntsc>FALSE</ntsc>
                </rate>
                <enabled>TRUE</enabled>
                <start>435</start>
                <end>436</end>
                <file id="file-437"/>
              </clipitem>
              <clipitem frameBlend="FALSE" id="clipitem-1159">
                <name>Scene - Puppet man_0003.436.png</name>
                <masterclipid>masterclip-438</masterclipid>
                <rate>
                  <timebase>24</timebase>
                  <ntsc>FALSE</ntsc>
                </rate>
                <duration>1</duration>
                <enabled>TRUE</enabled>
                <alphatype>straight</alphatype>
                <rate>
                  <timebase>24</timebase>
                  <ntsc>FALSE</ntsc>
                </rate>
                <enabled>TRUE</enabled>
                <start>436</start>
                <end>437</end>
                <file id="file-438"/>
              </clipitem>
              <clipitem frameBlend="FALSE" id="clipitem-1160">
                <name>Scene - Puppet man_0003.437.png</name>
                <masterclipid>masterclip-439</masterclipid>
                <rate>
                  <timebase>24</timebase>
                  <ntsc>FALSE</ntsc>
                </rate>
                <duration>1</duration>
                <enabled>TRUE</enabled>
                <alphatype>straight</alphatype>
                <rate>
                  <timebase>24</timebase>
                  <ntsc>FALSE</ntsc>
                </rate>
                <enabled>TRUE</enabled>
                <start>437</start>
                <end>438</end>
                <file id="file-439"/>
              </clipitem>
              <clipitem frameBlend="FALSE" id="clipitem-1161">
                <name>Scene - Puppet man_0003.438.png</name>
                <masterclipid>masterclip-440</masterclipid>
                <rate>
                  <timebase>24</timebase>
                  <ntsc>FALSE</ntsc>
                </rate>
                <duration>1</duration>
                <enabled>TRUE</enabled>
                <alphatype>straight</alphatype>
                <rate>
                  <timebase>24</timebase>
                  <ntsc>FALSE</ntsc>
                </rate>
                <enabled>TRUE</enabled>
                <start>438</start>
                <end>439</end>
                <file id="file-440"/>
              </clipitem>
              <clipitem frameBlend="FALSE" id="clipitem-1162">
                <name>Scene - Puppet man_0003.439.png</name>
                <masterclipid>masterclip-441</masterclipid>
                <rate>
                  <timebase>24</timebase>
                  <ntsc>FALSE</ntsc>
                </rate>
                <duration>1</duration>
                <enabled>TRUE</enabled>
                <alphatype>straight</alphatype>
                <rate>
                  <timebase>24</timebase>
                  <ntsc>FALSE</ntsc>
                </rate>
                <enabled>TRUE</enabled>
                <start>439</start>
                <end>440</end>
                <file id="file-441"/>
              </clipitem>
              <clipitem frameBlend="FALSE" id="clipitem-1163">
                <name>Scene - Puppet man_0003.440.png</name>
                <masterclipid>masterclip-442</masterclipid>
                <rate>
                  <timebase>24</timebase>
                  <ntsc>FALSE</ntsc>
                </rate>
                <duration>1</duration>
                <enabled>TRUE</enabled>
                <alphatype>straight</alphatype>
                <rate>
                  <timebase>24</timebase>
                  <ntsc>FALSE</ntsc>
                </rate>
                <enabled>TRUE</enabled>
                <start>440</start>
                <end>441</end>
                <file id="file-442"/>
              </clipitem>
              <clipitem frameBlend="FALSE" id="clipitem-1164">
                <name>Scene - Puppet man_0003.441.png</name>
                <masterclipid>masterclip-443</masterclipid>
                <rate>
                  <timebase>24</timebase>
                  <ntsc>FALSE</ntsc>
                </rate>
                <duration>1</duration>
                <enabled>TRUE</enabled>
                <alphatype>straight</alphatype>
                <rate>
                  <timebase>24</timebase>
                  <ntsc>FALSE</ntsc>
                </rate>
                <enabled>TRUE</enabled>
                <start>441</start>
                <end>442</end>
                <file id="file-443"/>
              </clipitem>
              <clipitem frameBlend="FALSE" id="clipitem-1165">
                <name>Scene - Puppet man_0003.442.png</name>
                <masterclipid>masterclip-444</masterclipid>
                <rate>
                  <timebase>24</timebase>
                  <ntsc>FALSE</ntsc>
                </rate>
                <duration>1</duration>
                <enabled>TRUE</enabled>
                <alphatype>straight</alphatype>
                <rate>
                  <timebase>24</timebase>
                  <ntsc>FALSE</ntsc>
                </rate>
                <enabled>TRUE</enabled>
                <start>442</start>
                <end>443</end>
                <file id="file-444"/>
              </clipitem>
              <clipitem frameBlend="FALSE" id="clipitem-1166">
                <name>Scene - Puppet man_0003.443.png</name>
                <masterclipid>masterclip-445</masterclipid>
                <rate>
                  <timebase>24</timebase>
                  <ntsc>FALSE</ntsc>
                </rate>
                <duration>1</duration>
                <enabled>TRUE</enabled>
                <alphatype>straight</alphatype>
                <rate>
                  <timebase>24</timebase>
                  <ntsc>FALSE</ntsc>
                </rate>
                <enabled>TRUE</enabled>
                <start>443</start>
                <end>444</end>
                <file id="file-445"/>
              </clipitem>
              <clipitem frameBlend="FALSE" id="clipitem-1167">
                <name>Scene - Puppet man_0003.444.png</name>
                <masterclipid>masterclip-446</masterclipid>
                <rate>
                  <timebase>24</timebase>
                  <ntsc>FALSE</ntsc>
                </rate>
                <duration>1</duration>
                <enabled>TRUE</enabled>
                <alphatype>straight</alphatype>
                <rate>
                  <timebase>24</timebase>
                  <ntsc>FALSE</ntsc>
                </rate>
                <enabled>TRUE</enabled>
                <start>444</start>
                <end>445</end>
                <file id="file-446"/>
              </clipitem>
              <clipitem frameBlend="FALSE" id="clipitem-1168">
                <name>Scene - Puppet man_0003.445.png</name>
                <masterclipid>masterclip-447</masterclipid>
                <rate>
                  <timebase>24</timebase>
                  <ntsc>FALSE</ntsc>
                </rate>
                <duration>1</duration>
                <enabled>TRUE</enabled>
                <alphatype>straight</alphatype>
                <rate>
                  <timebase>24</timebase>
                  <ntsc>FALSE</ntsc>
                </rate>
                <enabled>TRUE</enabled>
                <start>445</start>
                <end>446</end>
                <file id="file-447"/>
              </clipitem>
              <clipitem frameBlend="FALSE" id="clipitem-1169">
                <name>Scene - Puppet man_0003.446.png</name>
                <masterclipid>masterclip-448</masterclipid>
                <rate>
                  <timebase>24</timebase>
                  <ntsc>FALSE</ntsc>
                </rate>
                <duration>1</duration>
                <enabled>TRUE</enabled>
                <alphatype>straight</alphatype>
                <rate>
                  <timebase>24</timebase>
                  <ntsc>FALSE</ntsc>
                </rate>
                <enabled>TRUE</enabled>
                <start>446</start>
                <end>447</end>
                <file id="file-448"/>
              </clipitem>
              <clipitem frameBlend="FALSE" id="clipitem-1170">
                <name>Scene - Puppet man_0003.447.png</name>
                <masterclipid>masterclip-449</masterclipid>
                <rate>
                  <timebase>24</timebase>
                  <ntsc>FALSE</ntsc>
                </rate>
                <duration>1</duration>
                <enabled>TRUE</enabled>
                <alphatype>straight</alphatype>
                <rate>
                  <timebase>24</timebase>
                  <ntsc>FALSE</ntsc>
                </rate>
                <enabled>TRUE</enabled>
                <start>447</start>
                <end>448</end>
                <file id="file-449"/>
              </clipitem>
              <clipitem frameBlend="FALSE" id="clipitem-1171">
                <name>Scene - Puppet man_0003.448.png</name>
                <masterclipid>masterclip-450</masterclipid>
                <rate>
                  <timebase>24</timebase>
                  <ntsc>FALSE</ntsc>
                </rate>
                <duration>1</duration>
                <enabled>TRUE</enabled>
                <alphatype>straight</alphatype>
                <rate>
                  <timebase>24</timebase>
                  <ntsc>FALSE</ntsc>
                </rate>
                <enabled>TRUE</enabled>
                <start>448</start>
                <end>449</end>
                <file id="file-450"/>
              </clipitem>
              <clipitem frameBlend="FALSE" id="clipitem-1172">
                <name>Scene - Puppet man_0003.449.png</name>
                <masterclipid>masterclip-451</masterclipid>
                <rate>
                  <timebase>24</timebase>
                  <ntsc>FALSE</ntsc>
                </rate>
                <duration>1</duration>
                <enabled>TRUE</enabled>
                <alphatype>straight</alphatype>
                <rate>
                  <timebase>24</timebase>
                  <ntsc>FALSE</ntsc>
                </rate>
                <enabled>TRUE</enabled>
                <start>449</start>
                <end>450</end>
                <file id="file-451"/>
              </clipitem>
              <clipitem frameBlend="FALSE" id="clipitem-1173">
                <name>Scene - Puppet man_0003.450.png</name>
                <masterclipid>masterclip-452</masterclipid>
                <rate>
                  <timebase>24</timebase>
                  <ntsc>FALSE</ntsc>
                </rate>
                <duration>1</duration>
                <enabled>TRUE</enabled>
                <alphatype>straight</alphatype>
                <rate>
                  <timebase>24</timebase>
                  <ntsc>FALSE</ntsc>
                </rate>
                <enabled>TRUE</enabled>
                <start>450</start>
                <end>451</end>
                <file id="file-452"/>
              </clipitem>
              <clipitem frameBlend="FALSE" id="clipitem-1174">
                <name>Scene - Puppet man_0003.451.png</name>
                <masterclipid>masterclip-453</masterclipid>
                <rate>
                  <timebase>24</timebase>
                  <ntsc>FALSE</ntsc>
                </rate>
                <duration>1</duration>
                <enabled>TRUE</enabled>
                <alphatype>straight</alphatype>
                <rate>
                  <timebase>24</timebase>
                  <ntsc>FALSE</ntsc>
                </rate>
                <enabled>TRUE</enabled>
                <start>451</start>
                <end>452</end>
                <file id="file-453"/>
              </clipitem>
              <clipitem frameBlend="FALSE" id="clipitem-1175">
                <name>Scene - Puppet man_0003.452.png</name>
                <masterclipid>masterclip-454</masterclipid>
                <rate>
                  <timebase>24</timebase>
                  <ntsc>FALSE</ntsc>
                </rate>
                <duration>1</duration>
                <enabled>TRUE</enabled>
                <alphatype>straight</alphatype>
                <rate>
                  <timebase>24</timebase>
                  <ntsc>FALSE</ntsc>
                </rate>
                <enabled>TRUE</enabled>
                <start>452</start>
                <end>453</end>
                <file id="file-454"/>
              </clipitem>
              <clipitem frameBlend="FALSE" id="clipitem-1176">
                <name>Scene - Puppet man_0003.453.png</name>
                <masterclipid>masterclip-455</masterclipid>
                <rate>
                  <timebase>24</timebase>
                  <ntsc>FALSE</ntsc>
                </rate>
                <duration>1</duration>
                <enabled>TRUE</enabled>
                <alphatype>straight</alphatype>
                <rate>
                  <timebase>24</timebase>
                  <ntsc>FALSE</ntsc>
                </rate>
                <enabled>TRUE</enabled>
                <start>453</start>
                <end>454</end>
                <file id="file-455"/>
              </clipitem>
              <clipitem frameBlend="FALSE" id="clipitem-1177">
                <name>Scene - Puppet man_0003.454.png</name>
                <masterclipid>masterclip-456</masterclipid>
                <rate>
                  <timebase>24</timebase>
                  <ntsc>FALSE</ntsc>
                </rate>
                <duration>1</duration>
                <enabled>TRUE</enabled>
                <alphatype>straight</alphatype>
                <rate>
                  <timebase>24</timebase>
                  <ntsc>FALSE</ntsc>
                </rate>
                <enabled>TRUE</enabled>
                <start>454</start>
                <end>455</end>
                <file id="file-456"/>
              </clipitem>
              <clipitem frameBlend="FALSE" id="clipitem-1178">
                <name>Scene - Puppet man_0003.455.png</name>
                <masterclipid>masterclip-457</masterclipid>
                <rate>
                  <timebase>24</timebase>
                  <ntsc>FALSE</ntsc>
                </rate>
                <duration>1</duration>
                <enabled>TRUE</enabled>
                <alphatype>straight</alphatype>
                <rate>
                  <timebase>24</timebase>
                  <ntsc>FALSE</ntsc>
                </rate>
                <enabled>TRUE</enabled>
                <start>455</start>
                <end>456</end>
                <file id="file-457"/>
              </clipitem>
              <clipitem frameBlend="FALSE" id="clipitem-1179">
                <name>Scene - Puppet man_0003.456.png</name>
                <masterclipid>masterclip-458</masterclipid>
                <rate>
                  <timebase>24</timebase>
                  <ntsc>FALSE</ntsc>
                </rate>
                <duration>1</duration>
                <enabled>TRUE</enabled>
                <alphatype>straight</alphatype>
                <rate>
                  <timebase>24</timebase>
                  <ntsc>FALSE</ntsc>
                </rate>
                <enabled>TRUE</enabled>
                <start>456</start>
                <end>457</end>
                <file id="file-458"/>
              </clipitem>
              <clipitem frameBlend="FALSE" id="clipitem-1180">
                <name>Scene - Puppet man_0003.457.png</name>
                <masterclipid>masterclip-459</masterclipid>
                <rate>
                  <timebase>24</timebase>
                  <ntsc>FALSE</ntsc>
                </rate>
                <duration>1</duration>
                <enabled>TRUE</enabled>
                <alphatype>straight</alphatype>
                <rate>
                  <timebase>24</timebase>
                  <ntsc>FALSE</ntsc>
                </rate>
                <enabled>TRUE</enabled>
                <start>457</start>
                <end>458</end>
                <file id="file-459"/>
              </clipitem>
              <clipitem frameBlend="FALSE" id="clipitem-1181">
                <name>Scene - Puppet man_0003.458.png</name>
                <masterclipid>masterclip-460</masterclipid>
                <rate>
                  <timebase>24</timebase>
                  <ntsc>FALSE</ntsc>
                </rate>
                <duration>1</duration>
                <enabled>TRUE</enabled>
                <alphatype>straight</alphatype>
                <rate>
                  <timebase>24</timebase>
                  <ntsc>FALSE</ntsc>
                </rate>
                <enabled>TRUE</enabled>
                <start>458</start>
                <end>459</end>
                <file id="file-460"/>
              </clipitem>
              <clipitem frameBlend="FALSE" id="clipitem-1182">
                <name>Scene - Puppet man_0003.459.png</name>
                <masterclipid>masterclip-461</masterclipid>
                <rate>
                  <timebase>24</timebase>
                  <ntsc>FALSE</ntsc>
                </rate>
                <duration>1</duration>
                <enabled>TRUE</enabled>
                <alphatype>straight</alphatype>
                <rate>
                  <timebase>24</timebase>
                  <ntsc>FALSE</ntsc>
                </rate>
                <enabled>TRUE</enabled>
                <start>459</start>
                <end>460</end>
                <file id="file-461"/>
              </clipitem>
              <clipitem frameBlend="FALSE" id="clipitem-1183">
                <name>Scene - Puppet man_0003.460.png</name>
                <masterclipid>masterclip-462</masterclipid>
                <rate>
                  <timebase>24</timebase>
                  <ntsc>FALSE</ntsc>
                </rate>
                <duration>1</duration>
                <enabled>TRUE</enabled>
                <alphatype>straight</alphatype>
                <rate>
                  <timebase>24</timebase>
                  <ntsc>FALSE</ntsc>
                </rate>
                <enabled>TRUE</enabled>
                <start>460</start>
                <end>461</end>
                <file id="file-462"/>
              </clipitem>
              <clipitem frameBlend="FALSE" id="clipitem-1184">
                <name>Scene - Puppet man_0003.461.png</name>
                <masterclipid>masterclip-463</masterclipid>
                <rate>
                  <timebase>24</timebase>
                  <ntsc>FALSE</ntsc>
                </rate>
                <duration>1</duration>
                <enabled>TRUE</enabled>
                <alphatype>straight</alphatype>
                <rate>
                  <timebase>24</timebase>
                  <ntsc>FALSE</ntsc>
                </rate>
                <enabled>TRUE</enabled>
                <start>461</start>
                <end>462</end>
                <file id="file-463"/>
              </clipitem>
              <clipitem frameBlend="FALSE" id="clipitem-1185">
                <name>Scene - Puppet man_0003.462.png</name>
                <masterclipid>masterclip-464</masterclipid>
                <rate>
                  <timebase>24</timebase>
                  <ntsc>FALSE</ntsc>
                </rate>
                <duration>1</duration>
                <enabled>TRUE</enabled>
                <alphatype>straight</alphatype>
                <rate>
                  <timebase>24</timebase>
                  <ntsc>FALSE</ntsc>
                </rate>
                <enabled>TRUE</enabled>
                <start>462</start>
                <end>463</end>
                <file id="file-464"/>
              </clipitem>
              <clipitem frameBlend="FALSE" id="clipitem-1186">
                <name>Scene - Puppet man_0003.463.png</name>
                <masterclipid>masterclip-465</masterclipid>
                <rate>
                  <timebase>24</timebase>
                  <ntsc>FALSE</ntsc>
                </rate>
                <duration>1</duration>
                <enabled>TRUE</enabled>
                <alphatype>straight</alphatype>
                <rate>
                  <timebase>24</timebase>
                  <ntsc>FALSE</ntsc>
                </rate>
                <enabled>TRUE</enabled>
                <start>463</start>
                <end>464</end>
                <file id="file-465"/>
              </clipitem>
              <clipitem frameBlend="FALSE" id="clipitem-1187">
                <name>Scene - Puppet man_0003.464.png</name>
                <masterclipid>masterclip-466</masterclipid>
                <rate>
                  <timebase>24</timebase>
                  <ntsc>FALSE</ntsc>
                </rate>
                <duration>1</duration>
                <enabled>TRUE</enabled>
                <alphatype>straight</alphatype>
                <rate>
                  <timebase>24</timebase>
                  <ntsc>FALSE</ntsc>
                </rate>
                <enabled>TRUE</enabled>
                <start>464</start>
                <end>465</end>
                <file id="file-466"/>
              </clipitem>
              <clipitem frameBlend="FALSE" id="clipitem-1188">
                <name>Scene - Puppet man_0003.465.png</name>
                <masterclipid>masterclip-467</masterclipid>
                <rate>
                  <timebase>24</timebase>
                  <ntsc>FALSE</ntsc>
                </rate>
                <duration>1</duration>
                <enabled>TRUE</enabled>
                <alphatype>straight</alphatype>
                <rate>
                  <timebase>24</timebase>
                  <ntsc>FALSE</ntsc>
                </rate>
                <enabled>TRUE</enabled>
                <start>465</start>
                <end>466</end>
                <file id="file-467"/>
              </clipitem>
              <clipitem frameBlend="FALSE" id="clipitem-1189">
                <name>Scene - Puppet man_0003.466.png</name>
                <masterclipid>masterclip-468</masterclipid>
                <rate>
                  <timebase>24</timebase>
                  <ntsc>FALSE</ntsc>
                </rate>
                <duration>1</duration>
                <enabled>TRUE</enabled>
                <alphatype>straight</alphatype>
                <rate>
                  <timebase>24</timebase>
                  <ntsc>FALSE</ntsc>
                </rate>
                <enabled>TRUE</enabled>
                <start>466</start>
                <end>467</end>
                <file id="file-468"/>
              </clipitem>
              <clipitem frameBlend="FALSE" id="clipitem-1190">
                <name>Scene - Puppet man_0003.467.png</name>
                <masterclipid>masterclip-469</masterclipid>
                <rate>
                  <timebase>24</timebase>
                  <ntsc>FALSE</ntsc>
                </rate>
                <duration>1</duration>
                <enabled>TRUE</enabled>
                <alphatype>straight</alphatype>
                <rate>
                  <timebase>24</timebase>
                  <ntsc>FALSE</ntsc>
                </rate>
                <enabled>TRUE</enabled>
                <start>467</start>
                <end>468</end>
                <file id="file-469"/>
              </clipitem>
              <clipitem frameBlend="FALSE" id="clipitem-1191">
                <name>Scene - Puppet man_0003.468.png</name>
                <masterclipid>masterclip-470</masterclipid>
                <rate>
                  <timebase>24</timebase>
                  <ntsc>FALSE</ntsc>
                </rate>
                <duration>1</duration>
                <enabled>TRUE</enabled>
                <alphatype>straight</alphatype>
                <rate>
                  <timebase>24</timebase>
                  <ntsc>FALSE</ntsc>
                </rate>
                <enabled>TRUE</enabled>
                <start>468</start>
                <end>469</end>
                <file id="file-470"/>
              </clipitem>
              <clipitem frameBlend="FALSE" id="clipitem-1192">
                <name>Scene - Puppet man_0003.469.png</name>
                <masterclipid>masterclip-471</masterclipid>
                <rate>
                  <timebase>24</timebase>
                  <ntsc>FALSE</ntsc>
                </rate>
                <duration>1</duration>
                <enabled>TRUE</enabled>
                <alphatype>straight</alphatype>
                <rate>
                  <timebase>24</timebase>
                  <ntsc>FALSE</ntsc>
                </rate>
                <enabled>TRUE</enabled>
                <start>469</start>
                <end>470</end>
                <file id="file-471"/>
              </clipitem>
              <clipitem frameBlend="FALSE" id="clipitem-1193">
                <name>Scene - Puppet man_0003.470.png</name>
                <masterclipid>masterclip-472</masterclipid>
                <rate>
                  <timebase>24</timebase>
                  <ntsc>FALSE</ntsc>
                </rate>
                <duration>1</duration>
                <enabled>TRUE</enabled>
                <alphatype>straight</alphatype>
                <rate>
                  <timebase>24</timebase>
                  <ntsc>FALSE</ntsc>
                </rate>
                <enabled>TRUE</enabled>
                <start>470</start>
                <end>471</end>
                <file id="file-472"/>
              </clipitem>
              <clipitem frameBlend="FALSE" id="clipitem-1194">
                <name>Scene - Puppet man_0003.471.png</name>
                <masterclipid>masterclip-473</masterclipid>
                <rate>
                  <timebase>24</timebase>
                  <ntsc>FALSE</ntsc>
                </rate>
                <duration>1</duration>
                <enabled>TRUE</enabled>
                <alphatype>straight</alphatype>
                <rate>
                  <timebase>24</timebase>
                  <ntsc>FALSE</ntsc>
                </rate>
                <enabled>TRUE</enabled>
                <start>471</start>
                <end>472</end>
                <file id="file-473"/>
              </clipitem>
              <clipitem frameBlend="FALSE" id="clipitem-1195">
                <name>Scene - Puppet man_0003.472.png</name>
                <masterclipid>masterclip-474</masterclipid>
                <rate>
                  <timebase>24</timebase>
                  <ntsc>FALSE</ntsc>
                </rate>
                <duration>1</duration>
                <enabled>TRUE</enabled>
                <alphatype>straight</alphatype>
                <rate>
                  <timebase>24</timebase>
                  <ntsc>FALSE</ntsc>
                </rate>
                <enabled>TRUE</enabled>
                <start>472</start>
                <end>473</end>
                <file id="file-474"/>
              </clipitem>
              <clipitem frameBlend="FALSE" id="clipitem-1196">
                <name>Scene - Puppet man_0003.473.png</name>
                <masterclipid>masterclip-475</masterclipid>
                <rate>
                  <timebase>24</timebase>
                  <ntsc>FALSE</ntsc>
                </rate>
                <duration>1</duration>
                <enabled>TRUE</enabled>
                <alphatype>straight</alphatype>
                <rate>
                  <timebase>24</timebase>
                  <ntsc>FALSE</ntsc>
                </rate>
                <enabled>TRUE</enabled>
                <start>473</start>
                <end>474</end>
                <file id="file-475"/>
              </clipitem>
              <clipitem frameBlend="FALSE" id="clipitem-1197">
                <name>Scene - Puppet man_0003.474.png</name>
                <masterclipid>masterclip-476</masterclipid>
                <rate>
                  <timebase>24</timebase>
                  <ntsc>FALSE</ntsc>
                </rate>
                <duration>1</duration>
                <enabled>TRUE</enabled>
                <alphatype>straight</alphatype>
                <rate>
                  <timebase>24</timebase>
                  <ntsc>FALSE</ntsc>
                </rate>
                <enabled>TRUE</enabled>
                <start>474</start>
                <end>475</end>
                <file id="file-476"/>
              </clipitem>
              <clipitem frameBlend="FALSE" id="clipitem-1198">
                <name>Scene - Puppet man_0003.475.png</name>
                <masterclipid>masterclip-477</masterclipid>
                <rate>
                  <timebase>24</timebase>
                  <ntsc>FALSE</ntsc>
                </rate>
                <duration>1</duration>
                <enabled>TRUE</enabled>
                <alphatype>straight</alphatype>
                <rate>
                  <timebase>24</timebase>
                  <ntsc>FALSE</ntsc>
                </rate>
                <enabled>TRUE</enabled>
                <start>475</start>
                <end>476</end>
                <file id="file-477"/>
              </clipitem>
              <clipitem frameBlend="FALSE" id="clipitem-1199">
                <name>Scene - Puppet man_0003.476.png</name>
                <masterclipid>masterclip-478</masterclipid>
                <rate>
                  <timebase>24</timebase>
                  <ntsc>FALSE</ntsc>
                </rate>
                <duration>1</duration>
                <enabled>TRUE</enabled>
                <alphatype>straight</alphatype>
                <rate>
                  <timebase>24</timebase>
                  <ntsc>FALSE</ntsc>
                </rate>
                <enabled>TRUE</enabled>
                <start>476</start>
                <end>477</end>
                <file id="file-478"/>
              </clipitem>
              <clipitem frameBlend="FALSE" id="clipitem-1200">
                <name>Scene - Puppet man_0003.477.png</name>
                <masterclipid>masterclip-479</masterclipid>
                <rate>
                  <timebase>24</timebase>
                  <ntsc>FALSE</ntsc>
                </rate>
                <duration>1</duration>
                <enabled>TRUE</enabled>
                <alphatype>straight</alphatype>
                <rate>
                  <timebase>24</timebase>
                  <ntsc>FALSE</ntsc>
                </rate>
                <enabled>TRUE</enabled>
                <start>477</start>
                <end>478</end>
                <file id="file-479"/>
              </clipitem>
              <clipitem frameBlend="FALSE" id="clipitem-1201">
                <name>Scene - Puppet man_0003.478.png</name>
                <masterclipid>masterclip-480</masterclipid>
                <rate>
                  <timebase>24</timebase>
                  <ntsc>FALSE</ntsc>
                </rate>
                <duration>1</duration>
                <enabled>TRUE</enabled>
                <alphatype>straight</alphatype>
                <rate>
                  <timebase>24</timebase>
                  <ntsc>FALSE</ntsc>
                </rate>
                <enabled>TRUE</enabled>
                <start>478</start>
                <end>479</end>
                <file id="file-480"/>
              </clipitem>
              <clipitem frameBlend="FALSE" id="clipitem-1202">
                <name>Scene - Puppet man_0003.479.png</name>
                <masterclipid>masterclip-481</masterclipid>
                <rate>
                  <timebase>24</timebase>
                  <ntsc>FALSE</ntsc>
                </rate>
                <duration>1</duration>
                <enabled>TRUE</enabled>
                <alphatype>straight</alphatype>
                <rate>
                  <timebase>24</timebase>
                  <ntsc>FALSE</ntsc>
                </rate>
                <enabled>TRUE</enabled>
                <start>479</start>
                <end>480</end>
                <file id="file-481"/>
              </clipitem>
              <clipitem frameBlend="FALSE" id="clipitem-1203">
                <name>Scene - Puppet man_0003.480.png</name>
                <masterclipid>masterclip-482</masterclipid>
                <rate>
                  <timebase>24</timebase>
                  <ntsc>FALSE</ntsc>
                </rate>
                <duration>1</duration>
                <enabled>TRUE</enabled>
                <alphatype>straight</alphatype>
                <rate>
                  <timebase>24</timebase>
                  <ntsc>FALSE</ntsc>
                </rate>
                <enabled>TRUE</enabled>
                <start>480</start>
                <end>481</end>
                <file id="file-482"/>
              </clipitem>
              <clipitem frameBlend="FALSE" id="clipitem-1204">
                <name>Scene - Puppet man_0003.481.png</name>
                <masterclipid>masterclip-483</masterclipid>
                <rate>
                  <timebase>24</timebase>
                  <ntsc>FALSE</ntsc>
                </rate>
                <duration>1</duration>
                <enabled>TRUE</enabled>
                <alphatype>straight</alphatype>
                <rate>
                  <timebase>24</timebase>
                  <ntsc>FALSE</ntsc>
                </rate>
                <enabled>TRUE</enabled>
                <start>481</start>
                <end>482</end>
                <file id="file-483"/>
              </clipitem>
              <clipitem frameBlend="FALSE" id="clipitem-1205">
                <name>Scene - Puppet man_0003.482.png</name>
                <masterclipid>masterclip-484</masterclipid>
                <rate>
                  <timebase>24</timebase>
                  <ntsc>FALSE</ntsc>
                </rate>
                <duration>1</duration>
                <enabled>TRUE</enabled>
                <alphatype>straight</alphatype>
                <rate>
                  <timebase>24</timebase>
                  <ntsc>FALSE</ntsc>
                </rate>
                <enabled>TRUE</enabled>
                <start>482</start>
                <end>483</end>
                <file id="file-484"/>
              </clipitem>
              <clipitem frameBlend="FALSE" id="clipitem-1206">
                <name>Scene - Puppet man_0003.483.png</name>
                <masterclipid>masterclip-485</masterclipid>
                <rate>
                  <timebase>24</timebase>
                  <ntsc>FALSE</ntsc>
                </rate>
                <duration>1</duration>
                <enabled>TRUE</enabled>
                <alphatype>straight</alphatype>
                <rate>
                  <timebase>24</timebase>
                  <ntsc>FALSE</ntsc>
                </rate>
                <enabled>TRUE</enabled>
                <start>483</start>
                <end>484</end>
                <file id="file-485"/>
              </clipitem>
              <clipitem frameBlend="FALSE" id="clipitem-1207">
                <name>Scene - Puppet man_0003.484.png</name>
                <masterclipid>masterclip-486</masterclipid>
                <rate>
                  <timebase>24</timebase>
                  <ntsc>FALSE</ntsc>
                </rate>
                <duration>1</duration>
                <enabled>TRUE</enabled>
                <alphatype>straight</alphatype>
                <rate>
                  <timebase>24</timebase>
                  <ntsc>FALSE</ntsc>
                </rate>
                <enabled>TRUE</enabled>
                <start>484</start>
                <end>485</end>
                <file id="file-486"/>
              </clipitem>
              <clipitem frameBlend="FALSE" id="clipitem-1208">
                <name>Scene - Puppet man_0003.485.png</name>
                <masterclipid>masterclip-487</masterclipid>
                <rate>
                  <timebase>24</timebase>
                  <ntsc>FALSE</ntsc>
                </rate>
                <duration>1</duration>
                <enabled>TRUE</enabled>
                <alphatype>straight</alphatype>
                <rate>
                  <timebase>24</timebase>
                  <ntsc>FALSE</ntsc>
                </rate>
                <enabled>TRUE</enabled>
                <start>485</start>
                <end>486</end>
                <file id="file-487"/>
              </clipitem>
              <clipitem frameBlend="FALSE" id="clipitem-1209">
                <name>Scene - Puppet man_0003.486.png</name>
                <masterclipid>masterclip-488</masterclipid>
                <rate>
                  <timebase>24</timebase>
                  <ntsc>FALSE</ntsc>
                </rate>
                <duration>1</duration>
                <enabled>TRUE</enabled>
                <alphatype>straight</alphatype>
                <rate>
                  <timebase>24</timebase>
                  <ntsc>FALSE</ntsc>
                </rate>
                <enabled>TRUE</enabled>
                <start>486</start>
                <end>487</end>
                <file id="file-488"/>
              </clipitem>
              <clipitem frameBlend="FALSE" id="clipitem-1210">
                <name>Scene - Puppet man_0003.487.png</name>
                <masterclipid>masterclip-489</masterclipid>
                <rate>
                  <timebase>24</timebase>
                  <ntsc>FALSE</ntsc>
                </rate>
                <duration>1</duration>
                <enabled>TRUE</enabled>
                <alphatype>straight</alphatype>
                <rate>
                  <timebase>24</timebase>
                  <ntsc>FALSE</ntsc>
                </rate>
                <enabled>TRUE</enabled>
                <start>487</start>
                <end>488</end>
                <file id="file-489"/>
              </clipitem>
              <clipitem frameBlend="FALSE" id="clipitem-1211">
                <name>Scene - Puppet man_0003.488.png</name>
                <masterclipid>masterclip-490</masterclipid>
                <rate>
                  <timebase>24</timebase>
                  <ntsc>FALSE</ntsc>
                </rate>
                <duration>1</duration>
                <enabled>TRUE</enabled>
                <alphatype>straight</alphatype>
                <rate>
                  <timebase>24</timebase>
                  <ntsc>FALSE</ntsc>
                </rate>
                <enabled>TRUE</enabled>
                <start>488</start>
                <end>489</end>
                <file id="file-490"/>
              </clipitem>
              <clipitem frameBlend="FALSE" id="clipitem-1212">
                <name>Scene - Puppet man_0003.489.png</name>
                <masterclipid>masterclip-491</masterclipid>
                <rate>
                  <timebase>24</timebase>
                  <ntsc>FALSE</ntsc>
                </rate>
                <duration>1</duration>
                <enabled>TRUE</enabled>
                <alphatype>straight</alphatype>
                <rate>
                  <timebase>24</timebase>
                  <ntsc>FALSE</ntsc>
                </rate>
                <enabled>TRUE</enabled>
                <start>489</start>
                <end>490</end>
                <file id="file-491"/>
              </clipitem>
              <clipitem frameBlend="FALSE" id="clipitem-1213">
                <name>Scene - Puppet man_0003.490.png</name>
                <masterclipid>masterclip-492</masterclipid>
                <rate>
                  <timebase>24</timebase>
                  <ntsc>FALSE</ntsc>
                </rate>
                <duration>1</duration>
                <enabled>TRUE</enabled>
                <alphatype>straight</alphatype>
                <rate>
                  <timebase>24</timebase>
                  <ntsc>FALSE</ntsc>
                </rate>
                <enabled>TRUE</enabled>
                <start>490</start>
                <end>491</end>
                <file id="file-492"/>
              </clipitem>
              <clipitem frameBlend="FALSE" id="clipitem-1214">
                <name>Scene - Puppet man_0003.491.png</name>
                <masterclipid>masterclip-493</masterclipid>
                <rate>
                  <timebase>24</timebase>
                  <ntsc>FALSE</ntsc>
                </rate>
                <duration>1</duration>
                <enabled>TRUE</enabled>
                <alphatype>straight</alphatype>
                <rate>
                  <timebase>24</timebase>
                  <ntsc>FALSE</ntsc>
                </rate>
                <enabled>TRUE</enabled>
                <start>491</start>
                <end>492</end>
                <file id="file-493"/>
              </clipitem>
              <clipitem frameBlend="FALSE" id="clipitem-1215">
                <name>Scene - Puppet man_0003.492.png</name>
                <masterclipid>masterclip-494</masterclipid>
                <rate>
                  <timebase>24</timebase>
                  <ntsc>FALSE</ntsc>
                </rate>
                <duration>1</duration>
                <enabled>TRUE</enabled>
                <alphatype>straight</alphatype>
                <rate>
                  <timebase>24</timebase>
                  <ntsc>FALSE</ntsc>
                </rate>
                <enabled>TRUE</enabled>
                <start>492</start>
                <end>493</end>
                <file id="file-494"/>
              </clipitem>
              <clipitem frameBlend="FALSE" id="clipitem-1216">
                <name>Scene - Puppet man_0003.493.png</name>
                <masterclipid>masterclip-495</masterclipid>
                <rate>
                  <timebase>24</timebase>
                  <ntsc>FALSE</ntsc>
                </rate>
                <duration>1</duration>
                <enabled>TRUE</enabled>
                <alphatype>straight</alphatype>
                <rate>
                  <timebase>24</timebase>
                  <ntsc>FALSE</ntsc>
                </rate>
                <enabled>TRUE</enabled>
                <start>493</start>
                <end>494</end>
                <file id="file-495"/>
              </clipitem>
              <clipitem frameBlend="FALSE" id="clipitem-1217">
                <name>Scene - Puppet man_0003.494.png</name>
                <masterclipid>masterclip-496</masterclipid>
                <rate>
                  <timebase>24</timebase>
                  <ntsc>FALSE</ntsc>
                </rate>
                <duration>1</duration>
                <enabled>TRUE</enabled>
                <alphatype>straight</alphatype>
                <rate>
                  <timebase>24</timebase>
                  <ntsc>FALSE</ntsc>
                </rate>
                <enabled>TRUE</enabled>
                <start>494</start>
                <end>495</end>
                <file id="file-496"/>
              </clipitem>
              <clipitem frameBlend="FALSE" id="clipitem-1218">
                <name>Scene - Puppet man_0003.495.png</name>
                <masterclipid>masterclip-497</masterclipid>
                <rate>
                  <timebase>24</timebase>
                  <ntsc>FALSE</ntsc>
                </rate>
                <duration>1</duration>
                <enabled>TRUE</enabled>
                <alphatype>straight</alphatype>
                <rate>
                  <timebase>24</timebase>
                  <ntsc>FALSE</ntsc>
                </rate>
                <enabled>TRUE</enabled>
                <start>495</start>
                <end>496</end>
                <file id="file-497"/>
              </clipitem>
              <clipitem frameBlend="FALSE" id="clipitem-1219">
                <name>Scene - Puppet man_0003.496.png</name>
                <masterclipid>masterclip-498</masterclipid>
                <rate>
                  <timebase>24</timebase>
                  <ntsc>FALSE</ntsc>
                </rate>
                <duration>1</duration>
                <enabled>TRUE</enabled>
                <alphatype>straight</alphatype>
                <rate>
                  <timebase>24</timebase>
                  <ntsc>FALSE</ntsc>
                </rate>
                <enabled>TRUE</enabled>
                <start>496</start>
                <end>497</end>
                <file id="file-498"/>
              </clipitem>
              <clipitem frameBlend="FALSE" id="clipitem-1220">
                <name>Scene - Puppet man_0003.497.png</name>
                <masterclipid>masterclip-499</masterclipid>
                <rate>
                  <timebase>24</timebase>
                  <ntsc>FALSE</ntsc>
                </rate>
                <duration>1</duration>
                <enabled>TRUE</enabled>
                <alphatype>straight</alphatype>
                <rate>
                  <timebase>24</timebase>
                  <ntsc>FALSE</ntsc>
                </rate>
                <enabled>TRUE</enabled>
                <start>497</start>
                <end>498</end>
                <file id="file-499"/>
              </clipitem>
              <clipitem frameBlend="FALSE" id="clipitem-1221">
                <name>Scene - Puppet man_0003.498.png</name>
                <masterclipid>masterclip-500</masterclipid>
                <rate>
                  <timebase>24</timebase>
                  <ntsc>FALSE</ntsc>
                </rate>
                <duration>1</duration>
                <enabled>TRUE</enabled>
                <alphatype>straight</alphatype>
                <rate>
                  <timebase>24</timebase>
                  <ntsc>FALSE</ntsc>
                </rate>
                <enabled>TRUE</enabled>
                <start>498</start>
                <end>499</end>
                <file id="file-500"/>
              </clipitem>
              <clipitem frameBlend="FALSE" id="clipitem-1222">
                <name>Scene - Puppet man_0003.499.png</name>
                <masterclipid>masterclip-501</masterclipid>
                <rate>
                  <timebase>24</timebase>
                  <ntsc>FALSE</ntsc>
                </rate>
                <duration>1</duration>
                <enabled>TRUE</enabled>
                <alphatype>straight</alphatype>
                <rate>
                  <timebase>24</timebase>
                  <ntsc>FALSE</ntsc>
                </rate>
                <enabled>TRUE</enabled>
                <start>499</start>
                <end>500</end>
                <file id="file-501"/>
              </clipitem>
              <clipitem frameBlend="FALSE" id="clipitem-1223">
                <name>Scene - Puppet man_0003.500.png</name>
                <masterclipid>masterclip-502</masterclipid>
                <rate>
                  <timebase>24</timebase>
                  <ntsc>FALSE</ntsc>
                </rate>
                <duration>1</duration>
                <enabled>TRUE</enabled>
                <alphatype>straight</alphatype>
                <rate>
                  <timebase>24</timebase>
                  <ntsc>FALSE</ntsc>
                </rate>
                <enabled>TRUE</enabled>
                <start>500</start>
                <end>501</end>
                <file id="file-502"/>
              </clipitem>
              <clipitem frameBlend="FALSE" id="clipitem-1224">
                <name>Scene - Puppet man_0003.501.png</name>
                <masterclipid>masterclip-503</masterclipid>
                <rate>
                  <timebase>24</timebase>
                  <ntsc>FALSE</ntsc>
                </rate>
                <duration>1</duration>
                <enabled>TRUE</enabled>
                <alphatype>straight</alphatype>
                <rate>
                  <timebase>24</timebase>
                  <ntsc>FALSE</ntsc>
                </rate>
                <enabled>TRUE</enabled>
                <start>501</start>
                <end>502</end>
                <file id="file-503"/>
              </clipitem>
              <clipitem frameBlend="FALSE" id="clipitem-1225">
                <name>Scene - Puppet man_0003.502.png</name>
                <masterclipid>masterclip-504</masterclipid>
                <rate>
                  <timebase>24</timebase>
                  <ntsc>FALSE</ntsc>
                </rate>
                <duration>1</duration>
                <enabled>TRUE</enabled>
                <alphatype>straight</alphatype>
                <rate>
                  <timebase>24</timebase>
                  <ntsc>FALSE</ntsc>
                </rate>
                <enabled>TRUE</enabled>
                <start>502</start>
                <end>503</end>
                <file id="file-504"/>
              </clipitem>
              <clipitem frameBlend="FALSE" id="clipitem-1226">
                <name>Scene - Puppet man_0003.503.png</name>
                <masterclipid>masterclip-505</masterclipid>
                <rate>
                  <timebase>24</timebase>
                  <ntsc>FALSE</ntsc>
                </rate>
                <duration>1</duration>
                <enabled>TRUE</enabled>
                <alphatype>straight</alphatype>
                <rate>
                  <timebase>24</timebase>
                  <ntsc>FALSE</ntsc>
                </rate>
                <enabled>TRUE</enabled>
                <start>503</start>
                <end>504</end>
                <file id="file-505"/>
              </clipitem>
              <clipitem frameBlend="FALSE" id="clipitem-1227">
                <name>Scene - Puppet man_0003.504.png</name>
                <masterclipid>masterclip-506</masterclipid>
                <rate>
                  <timebase>24</timebase>
                  <ntsc>FALSE</ntsc>
                </rate>
                <duration>1</duration>
                <enabled>TRUE</enabled>
                <alphatype>straight</alphatype>
                <rate>
                  <timebase>24</timebase>
                  <ntsc>FALSE</ntsc>
                </rate>
                <enabled>TRUE</enabled>
                <start>504</start>
                <end>505</end>
                <file id="file-506"/>
              </clipitem>
              <clipitem frameBlend="FALSE" id="clipitem-1228">
                <name>Scene - Puppet man_0003.505.png</name>
                <masterclipid>masterclip-507</masterclipid>
                <rate>
                  <timebase>24</timebase>
                  <ntsc>FALSE</ntsc>
                </rate>
                <duration>1</duration>
                <enabled>TRUE</enabled>
                <alphatype>straight</alphatype>
                <rate>
                  <timebase>24</timebase>
                  <ntsc>FALSE</ntsc>
                </rate>
                <enabled>TRUE</enabled>
                <start>505</start>
                <end>506</end>
                <file id="file-507"/>
              </clipitem>
              <clipitem frameBlend="FALSE" id="clipitem-1229">
                <name>Scene - Puppet man_0003.506.png</name>
                <masterclipid>masterclip-508</masterclipid>
                <rate>
                  <timebase>24</timebase>
                  <ntsc>FALSE</ntsc>
                </rate>
                <duration>1</duration>
                <enabled>TRUE</enabled>
                <alphatype>straight</alphatype>
                <rate>
                  <timebase>24</timebase>
                  <ntsc>FALSE</ntsc>
                </rate>
                <enabled>TRUE</enabled>
                <start>506</start>
                <end>507</end>
                <file id="file-508"/>
              </clipitem>
              <clipitem frameBlend="FALSE" id="clipitem-1230">
                <name>Scene - Puppet man_0003.507.png</name>
                <masterclipid>masterclip-509</masterclipid>
                <rate>
                  <timebase>24</timebase>
                  <ntsc>FALSE</ntsc>
                </rate>
                <duration>1</duration>
                <enabled>TRUE</enabled>
                <alphatype>straight</alphatype>
                <rate>
                  <timebase>24</timebase>
                  <ntsc>FALSE</ntsc>
                </rate>
                <enabled>TRUE</enabled>
                <start>507</start>
                <end>508</end>
                <file id="file-509"/>
              </clipitem>
              <clipitem frameBlend="FALSE" id="clipitem-1231">
                <name>Scene - Puppet man_0003.508.png</name>
                <masterclipid>masterclip-510</masterclipid>
                <rate>
                  <timebase>24</timebase>
                  <ntsc>FALSE</ntsc>
                </rate>
                <duration>1</duration>
                <enabled>TRUE</enabled>
                <alphatype>straight</alphatype>
                <rate>
                  <timebase>24</timebase>
                  <ntsc>FALSE</ntsc>
                </rate>
                <enabled>TRUE</enabled>
                <start>508</start>
                <end>509</end>
                <file id="file-510"/>
              </clipitem>
              <clipitem frameBlend="FALSE" id="clipitem-1232">
                <name>Scene - Puppet man_0003.509.png</name>
                <masterclipid>masterclip-511</masterclipid>
                <rate>
                  <timebase>24</timebase>
                  <ntsc>FALSE</ntsc>
                </rate>
                <duration>1</duration>
                <enabled>TRUE</enabled>
                <alphatype>straight</alphatype>
                <rate>
                  <timebase>24</timebase>
                  <ntsc>FALSE</ntsc>
                </rate>
                <enabled>TRUE</enabled>
                <start>509</start>
                <end>510</end>
                <file id="file-511"/>
              </clipitem>
              <clipitem frameBlend="FALSE" id="clipitem-1233">
                <name>Scene - Puppet man_0003.510.png</name>
                <masterclipid>masterclip-512</masterclipid>
                <rate>
                  <timebase>24</timebase>
                  <ntsc>FALSE</ntsc>
                </rate>
                <duration>1</duration>
                <enabled>TRUE</enabled>
                <alphatype>straight</alphatype>
                <rate>
                  <timebase>24</timebase>
                  <ntsc>FALSE</ntsc>
                </rate>
                <enabled>TRUE</enabled>
                <start>510</start>
                <end>511</end>
                <file id="file-512"/>
              </clipitem>
              <clipitem frameBlend="FALSE" id="clipitem-1234">
                <name>Scene - Puppet man_0003.511.png</name>
                <masterclipid>masterclip-513</masterclipid>
                <rate>
                  <timebase>24</timebase>
                  <ntsc>FALSE</ntsc>
                </rate>
                <duration>1</duration>
                <enabled>TRUE</enabled>
                <alphatype>straight</alphatype>
                <rate>
                  <timebase>24</timebase>
                  <ntsc>FALSE</ntsc>
                </rate>
                <enabled>TRUE</enabled>
                <start>511</start>
                <end>512</end>
                <file id="file-513"/>
              </clipitem>
              <clipitem frameBlend="FALSE" id="clipitem-1235">
                <name>Scene - Puppet man_0003.512.png</name>
                <masterclipid>masterclip-514</masterclipid>
                <rate>
                  <timebase>24</timebase>
                  <ntsc>FALSE</ntsc>
                </rate>
                <duration>1</duration>
                <enabled>TRUE</enabled>
                <alphatype>straight</alphatype>
                <rate>
                  <timebase>24</timebase>
                  <ntsc>FALSE</ntsc>
                </rate>
                <enabled>TRUE</enabled>
                <start>512</start>
                <end>513</end>
                <file id="file-514"/>
              </clipitem>
              <clipitem frameBlend="FALSE" id="clipitem-1236">
                <name>Scene - Puppet man_0003.513.png</name>
                <masterclipid>masterclip-515</masterclipid>
                <rate>
                  <timebase>24</timebase>
                  <ntsc>FALSE</ntsc>
                </rate>
                <duration>1</duration>
                <enabled>TRUE</enabled>
                <alphatype>straight</alphatype>
                <rate>
                  <timebase>24</timebase>
                  <ntsc>FALSE</ntsc>
                </rate>
                <enabled>TRUE</enabled>
                <start>513</start>
                <end>514</end>
                <file id="file-515"/>
              </clipitem>
              <clipitem frameBlend="FALSE" id="clipitem-1237">
                <name>Scene - Puppet man_0003.514.png</name>
                <masterclipid>masterclip-516</masterclipid>
                <rate>
                  <timebase>24</timebase>
                  <ntsc>FALSE</ntsc>
                </rate>
                <duration>1</duration>
                <enabled>TRUE</enabled>
                <alphatype>straight</alphatype>
                <rate>
                  <timebase>24</timebase>
                  <ntsc>FALSE</ntsc>
                </rate>
                <enabled>TRUE</enabled>
                <start>514</start>
                <end>515</end>
                <file id="file-516"/>
              </clipitem>
              <clipitem frameBlend="FALSE" id="clipitem-1238">
                <name>Scene - Puppet man_0003.515.png</name>
                <masterclipid>masterclip-517</masterclipid>
                <rate>
                  <timebase>24</timebase>
                  <ntsc>FALSE</ntsc>
                </rate>
                <duration>1</duration>
                <enabled>TRUE</enabled>
                <alphatype>straight</alphatype>
                <rate>
                  <timebase>24</timebase>
                  <ntsc>FALSE</ntsc>
                </rate>
                <enabled>TRUE</enabled>
                <start>515</start>
                <end>516</end>
                <file id="file-517"/>
              </clipitem>
              <clipitem frameBlend="FALSE" id="clipitem-1239">
                <name>Scene - Puppet man_0003.516.png</name>
                <masterclipid>masterclip-518</masterclipid>
                <rate>
                  <timebase>24</timebase>
                  <ntsc>FALSE</ntsc>
                </rate>
                <duration>1</duration>
                <enabled>TRUE</enabled>
                <alphatype>straight</alphatype>
                <rate>
                  <timebase>24</timebase>
                  <ntsc>FALSE</ntsc>
                </rate>
                <enabled>TRUE</enabled>
                <start>516</start>
                <end>517</end>
                <file id="file-518"/>
              </clipitem>
              <clipitem frameBlend="FALSE" id="clipitem-1240">
                <name>Scene - Puppet man_0003.517.png</name>
                <masterclipid>masterclip-519</masterclipid>
                <rate>
                  <timebase>24</timebase>
                  <ntsc>FALSE</ntsc>
                </rate>
                <duration>1</duration>
                <enabled>TRUE</enabled>
                <alphatype>straight</alphatype>
                <rate>
                  <timebase>24</timebase>
                  <ntsc>FALSE</ntsc>
                </rate>
                <enabled>TRUE</enabled>
                <start>517</start>
                <end>518</end>
                <file id="file-519"/>
              </clipitem>
              <clipitem frameBlend="FALSE" id="clipitem-1241">
                <name>Scene - Puppet man_0003.518.png</name>
                <masterclipid>masterclip-520</masterclipid>
                <rate>
                  <timebase>24</timebase>
                  <ntsc>FALSE</ntsc>
                </rate>
                <duration>1</duration>
                <enabled>TRUE</enabled>
                <alphatype>straight</alphatype>
                <rate>
                  <timebase>24</timebase>
                  <ntsc>FALSE</ntsc>
                </rate>
                <enabled>TRUE</enabled>
                <start>518</start>
                <end>519</end>
                <file id="file-520"/>
              </clipitem>
              <clipitem frameBlend="FALSE" id="clipitem-1242">
                <name>Scene - Puppet man_0003.519.png</name>
                <masterclipid>masterclip-521</masterclipid>
                <rate>
                  <timebase>24</timebase>
                  <ntsc>FALSE</ntsc>
                </rate>
                <duration>1</duration>
                <enabled>TRUE</enabled>
                <alphatype>straight</alphatype>
                <rate>
                  <timebase>24</timebase>
                  <ntsc>FALSE</ntsc>
                </rate>
                <enabled>TRUE</enabled>
                <start>519</start>
                <end>520</end>
                <file id="file-521"/>
              </clipitem>
              <clipitem frameBlend="FALSE" id="clipitem-1243">
                <name>Scene - Puppet man_0003.520.png</name>
                <masterclipid>masterclip-522</masterclipid>
                <rate>
                  <timebase>24</timebase>
                  <ntsc>FALSE</ntsc>
                </rate>
                <duration>1</duration>
                <enabled>TRUE</enabled>
                <alphatype>straight</alphatype>
                <rate>
                  <timebase>24</timebase>
                  <ntsc>FALSE</ntsc>
                </rate>
                <enabled>TRUE</enabled>
                <start>520</start>
                <end>521</end>
                <file id="file-522"/>
              </clipitem>
              <clipitem frameBlend="FALSE" id="clipitem-1244">
                <name>Scene - Puppet man_0003.521.png</name>
                <masterclipid>masterclip-523</masterclipid>
                <rate>
                  <timebase>24</timebase>
                  <ntsc>FALSE</ntsc>
                </rate>
                <duration>1</duration>
                <enabled>TRUE</enabled>
                <alphatype>straight</alphatype>
                <rate>
                  <timebase>24</timebase>
                  <ntsc>FALSE</ntsc>
                </rate>
                <enabled>TRUE</enabled>
                <start>521</start>
                <end>522</end>
                <file id="file-523"/>
              </clipitem>
              <clipitem frameBlend="FALSE" id="clipitem-1245">
                <name>Scene - Puppet man_0003.522.png</name>
                <masterclipid>masterclip-524</masterclipid>
                <rate>
                  <timebase>24</timebase>
                  <ntsc>FALSE</ntsc>
                </rate>
                <duration>1</duration>
                <enabled>TRUE</enabled>
                <alphatype>straight</alphatype>
                <rate>
                  <timebase>24</timebase>
                  <ntsc>FALSE</ntsc>
                </rate>
                <enabled>TRUE</enabled>
                <start>522</start>
                <end>523</end>
                <file id="file-524"/>
              </clipitem>
              <clipitem frameBlend="FALSE" id="clipitem-1246">
                <name>Scene - Puppet man_0003.523.png</name>
                <masterclipid>masterclip-525</masterclipid>
                <rate>
                  <timebase>24</timebase>
                  <ntsc>FALSE</ntsc>
                </rate>
                <duration>1</duration>
                <enabled>TRUE</enabled>
                <alphatype>straight</alphatype>
                <rate>
                  <timebase>24</timebase>
                  <ntsc>FALSE</ntsc>
                </rate>
                <enabled>TRUE</enabled>
                <start>523</start>
                <end>524</end>
                <file id="file-525"/>
              </clipitem>
              <clipitem frameBlend="FALSE" id="clipitem-1247">
                <name>Scene - Puppet man_0003.524.png</name>
                <masterclipid>masterclip-526</masterclipid>
                <rate>
                  <timebase>24</timebase>
                  <ntsc>FALSE</ntsc>
                </rate>
                <duration>1</duration>
                <enabled>TRUE</enabled>
                <alphatype>straight</alphatype>
                <rate>
                  <timebase>24</timebase>
                  <ntsc>FALSE</ntsc>
                </rate>
                <enabled>TRUE</enabled>
                <start>524</start>
                <end>525</end>
                <file id="file-526"/>
              </clipitem>
              <clipitem frameBlend="FALSE" id="clipitem-1248">
                <name>Scene - Puppet man_0003.525.png</name>
                <masterclipid>masterclip-527</masterclipid>
                <rate>
                  <timebase>24</timebase>
                  <ntsc>FALSE</ntsc>
                </rate>
                <duration>1</duration>
                <enabled>TRUE</enabled>
                <alphatype>straight</alphatype>
                <rate>
                  <timebase>24</timebase>
                  <ntsc>FALSE</ntsc>
                </rate>
                <enabled>TRUE</enabled>
                <start>525</start>
                <end>526</end>
                <file id="file-527"/>
              </clipitem>
              <clipitem frameBlend="FALSE" id="clipitem-1249">
                <name>Scene - Puppet man_0003.526.png</name>
                <masterclipid>masterclip-528</masterclipid>
                <rate>
                  <timebase>24</timebase>
                  <ntsc>FALSE</ntsc>
                </rate>
                <duration>1</duration>
                <enabled>TRUE</enabled>
                <alphatype>straight</alphatype>
                <rate>
                  <timebase>24</timebase>
                  <ntsc>FALSE</ntsc>
                </rate>
                <enabled>TRUE</enabled>
                <start>526</start>
                <end>527</end>
                <file id="file-528"/>
              </clipitem>
              <clipitem frameBlend="FALSE" id="clipitem-1250">
                <name>Scene - Puppet man_0003.527.png</name>
                <masterclipid>masterclip-529</masterclipid>
                <rate>
                  <timebase>24</timebase>
                  <ntsc>FALSE</ntsc>
                </rate>
                <duration>1</duration>
                <enabled>TRUE</enabled>
                <alphatype>straight</alphatype>
                <rate>
                  <timebase>24</timebase>
                  <ntsc>FALSE</ntsc>
                </rate>
                <enabled>TRUE</enabled>
                <start>527</start>
                <end>528</end>
                <file id="file-529"/>
              </clipitem>
              <clipitem frameBlend="FALSE" id="clipitem-1251">
                <name>Scene - Puppet man_0003.528.png</name>
                <masterclipid>masterclip-530</masterclipid>
                <rate>
                  <timebase>24</timebase>
                  <ntsc>FALSE</ntsc>
                </rate>
                <duration>1</duration>
                <enabled>TRUE</enabled>
                <alphatype>straight</alphatype>
                <rate>
                  <timebase>24</timebase>
                  <ntsc>FALSE</ntsc>
                </rate>
                <enabled>TRUE</enabled>
                <start>528</start>
                <end>529</end>
                <file id="file-530"/>
              </clipitem>
              <clipitem frameBlend="FALSE" id="clipitem-1252">
                <name>Scene - Puppet man_0003.529.png</name>
                <masterclipid>masterclip-531</masterclipid>
                <rate>
                  <timebase>24</timebase>
                  <ntsc>FALSE</ntsc>
                </rate>
                <duration>1</duration>
                <enabled>TRUE</enabled>
                <alphatype>straight</alphatype>
                <rate>
                  <timebase>24</timebase>
                  <ntsc>FALSE</ntsc>
                </rate>
                <enabled>TRUE</enabled>
                <start>529</start>
                <end>530</end>
                <file id="file-531"/>
              </clipitem>
              <clipitem frameBlend="FALSE" id="clipitem-1253">
                <name>Scene - Puppet man_0003.530.png</name>
                <masterclipid>masterclip-532</masterclipid>
                <rate>
                  <timebase>24</timebase>
                  <ntsc>FALSE</ntsc>
                </rate>
                <duration>1</duration>
                <enabled>TRUE</enabled>
                <alphatype>straight</alphatype>
                <rate>
                  <timebase>24</timebase>
                  <ntsc>FALSE</ntsc>
                </rate>
                <enabled>TRUE</enabled>
                <start>530</start>
                <end>531</end>
                <file id="file-532"/>
              </clipitem>
              <clipitem frameBlend="FALSE" id="clipitem-1254">
                <name>Scene - Puppet man_0003.531.png</name>
                <masterclipid>masterclip-533</masterclipid>
                <rate>
                  <timebase>24</timebase>
                  <ntsc>FALSE</ntsc>
                </rate>
                <duration>1</duration>
                <enabled>TRUE</enabled>
                <alphatype>straight</alphatype>
                <rate>
                  <timebase>24</timebase>
                  <ntsc>FALSE</ntsc>
                </rate>
                <enabled>TRUE</enabled>
                <start>531</start>
                <end>532</end>
                <file id="file-533"/>
              </clipitem>
              <clipitem frameBlend="FALSE" id="clipitem-1255">
                <name>Scene - Puppet man_0003.532.png</name>
                <masterclipid>masterclip-534</masterclipid>
                <rate>
                  <timebase>24</timebase>
                  <ntsc>FALSE</ntsc>
                </rate>
                <duration>1</duration>
                <enabled>TRUE</enabled>
                <alphatype>straight</alphatype>
                <rate>
                  <timebase>24</timebase>
                  <ntsc>FALSE</ntsc>
                </rate>
                <enabled>TRUE</enabled>
                <start>532</start>
                <end>533</end>
                <file id="file-534"/>
              </clipitem>
              <clipitem frameBlend="FALSE" id="clipitem-1256">
                <name>Scene - Puppet man_0003.533.png</name>
                <masterclipid>masterclip-535</masterclipid>
                <rate>
                  <timebase>24</timebase>
                  <ntsc>FALSE</ntsc>
                </rate>
                <duration>1</duration>
                <enabled>TRUE</enabled>
                <alphatype>straight</alphatype>
                <rate>
                  <timebase>24</timebase>
                  <ntsc>FALSE</ntsc>
                </rate>
                <enabled>TRUE</enabled>
                <start>533</start>
                <end>534</end>
                <file id="file-535"/>
              </clipitem>
              <clipitem frameBlend="FALSE" id="clipitem-1257">
                <name>Scene - Puppet man_0003.534.png</name>
                <masterclipid>masterclip-536</masterclipid>
                <rate>
                  <timebase>24</timebase>
                  <ntsc>FALSE</ntsc>
                </rate>
                <duration>1</duration>
                <enabled>TRUE</enabled>
                <alphatype>straight</alphatype>
                <rate>
                  <timebase>24</timebase>
                  <ntsc>FALSE</ntsc>
                </rate>
                <enabled>TRUE</enabled>
                <start>534</start>
                <end>535</end>
                <file id="file-536"/>
              </clipitem>
              <clipitem frameBlend="FALSE" id="clipitem-1258">
                <name>Scene - Puppet man_0003.535.png</name>
                <masterclipid>masterclip-537</masterclipid>
                <rate>
                  <timebase>24</timebase>
                  <ntsc>FALSE</ntsc>
                </rate>
                <duration>1</duration>
                <enabled>TRUE</enabled>
                <alphatype>straight</alphatype>
                <rate>
                  <timebase>24</timebase>
                  <ntsc>FALSE</ntsc>
                </rate>
                <enabled>TRUE</enabled>
                <start>535</start>
                <end>536</end>
                <file id="file-537"/>
              </clipitem>
              <clipitem frameBlend="FALSE" id="clipitem-1259">
                <name>Scene - Puppet man_0003.536.png</name>
                <masterclipid>masterclip-538</masterclipid>
                <rate>
                  <timebase>24</timebase>
                  <ntsc>FALSE</ntsc>
                </rate>
                <duration>1</duration>
                <enabled>TRUE</enabled>
                <alphatype>straight</alphatype>
                <rate>
                  <timebase>24</timebase>
                  <ntsc>FALSE</ntsc>
                </rate>
                <enabled>TRUE</enabled>
                <start>536</start>
                <end>537</end>
                <file id="file-538"/>
              </clipitem>
              <clipitem frameBlend="FALSE" id="clipitem-1260">
                <name>Scene - Puppet man_0003.537.png</name>
                <masterclipid>masterclip-539</masterclipid>
                <rate>
                  <timebase>24</timebase>
                  <ntsc>FALSE</ntsc>
                </rate>
                <duration>1</duration>
                <enabled>TRUE</enabled>
                <alphatype>straight</alphatype>
                <rate>
                  <timebase>24</timebase>
                  <ntsc>FALSE</ntsc>
                </rate>
                <enabled>TRUE</enabled>
                <start>537</start>
                <end>538</end>
                <file id="file-539"/>
              </clipitem>
              <clipitem frameBlend="FALSE" id="clipitem-1261">
                <name>Scene - Puppet man_0003.538.png</name>
                <masterclipid>masterclip-540</masterclipid>
                <rate>
                  <timebase>24</timebase>
                  <ntsc>FALSE</ntsc>
                </rate>
                <duration>1</duration>
                <enabled>TRUE</enabled>
                <alphatype>straight</alphatype>
                <rate>
                  <timebase>24</timebase>
                  <ntsc>FALSE</ntsc>
                </rate>
                <enabled>TRUE</enabled>
                <start>538</start>
                <end>539</end>
                <file id="file-540"/>
              </clipitem>
              <clipitem frameBlend="FALSE" id="clipitem-1262">
                <name>Scene - Puppet man_0003.539.png</name>
                <masterclipid>masterclip-541</masterclipid>
                <rate>
                  <timebase>24</timebase>
                  <ntsc>FALSE</ntsc>
                </rate>
                <duration>1</duration>
                <enabled>TRUE</enabled>
                <alphatype>straight</alphatype>
                <rate>
                  <timebase>24</timebase>
                  <ntsc>FALSE</ntsc>
                </rate>
                <enabled>TRUE</enabled>
                <start>539</start>
                <end>540</end>
                <file id="file-541"/>
              </clipitem>
              <clipitem frameBlend="FALSE" id="clipitem-1263">
                <name>Scene - Puppet man_0003.540.png</name>
                <masterclipid>masterclip-542</masterclipid>
                <rate>
                  <timebase>24</timebase>
                  <ntsc>FALSE</ntsc>
                </rate>
                <duration>1</duration>
                <enabled>TRUE</enabled>
                <alphatype>straight</alphatype>
                <rate>
                  <timebase>24</timebase>
                  <ntsc>FALSE</ntsc>
                </rate>
                <enabled>TRUE</enabled>
                <start>540</start>
                <end>541</end>
                <file id="file-542"/>
              </clipitem>
              <clipitem frameBlend="FALSE" id="clipitem-1264">
                <name>Scene - Puppet man_0003.541.png</name>
                <masterclipid>masterclip-543</masterclipid>
                <rate>
                  <timebase>24</timebase>
                  <ntsc>FALSE</ntsc>
                </rate>
                <duration>1</duration>
                <enabled>TRUE</enabled>
                <alphatype>straight</alphatype>
                <rate>
                  <timebase>24</timebase>
                  <ntsc>FALSE</ntsc>
                </rate>
                <enabled>TRUE</enabled>
                <start>541</start>
                <end>542</end>
                <file id="file-543"/>
              </clipitem>
              <clipitem frameBlend="FALSE" id="clipitem-1265">
                <name>Scene - Puppet man_0003.542.png</name>
                <masterclipid>masterclip-544</masterclipid>
                <rate>
                  <timebase>24</timebase>
                  <ntsc>FALSE</ntsc>
                </rate>
                <duration>1</duration>
                <enabled>TRUE</enabled>
                <alphatype>straight</alphatype>
                <rate>
                  <timebase>24</timebase>
                  <ntsc>FALSE</ntsc>
                </rate>
                <enabled>TRUE</enabled>
                <start>542</start>
                <end>543</end>
                <file id="file-544"/>
              </clipitem>
              <clipitem frameBlend="FALSE" id="clipitem-1266">
                <name>Scene - Puppet man_0003.543.png</name>
                <masterclipid>masterclip-545</masterclipid>
                <rate>
                  <timebase>24</timebase>
                  <ntsc>FALSE</ntsc>
                </rate>
                <duration>1</duration>
                <enabled>TRUE</enabled>
                <alphatype>straight</alphatype>
                <rate>
                  <timebase>24</timebase>
                  <ntsc>FALSE</ntsc>
                </rate>
                <enabled>TRUE</enabled>
                <start>543</start>
                <end>544</end>
                <file id="file-545"/>
              </clipitem>
              <clipitem frameBlend="FALSE" id="clipitem-1267">
                <name>Scene - Puppet man_0003.544.png</name>
                <masterclipid>masterclip-546</masterclipid>
                <rate>
                  <timebase>24</timebase>
                  <ntsc>FALSE</ntsc>
                </rate>
                <duration>1</duration>
                <enabled>TRUE</enabled>
                <alphatype>straight</alphatype>
                <rate>
                  <timebase>24</timebase>
                  <ntsc>FALSE</ntsc>
                </rate>
                <enabled>TRUE</enabled>
                <start>544</start>
                <end>545</end>
                <file id="file-546"/>
              </clipitem>
              <clipitem frameBlend="FALSE" id="clipitem-1268">
                <name>Scene - Puppet man_0003.545.png</name>
                <masterclipid>masterclip-547</masterclipid>
                <rate>
                  <timebase>24</timebase>
                  <ntsc>FALSE</ntsc>
                </rate>
                <duration>1</duration>
                <enabled>TRUE</enabled>
                <alphatype>straight</alphatype>
                <rate>
                  <timebase>24</timebase>
                  <ntsc>FALSE</ntsc>
                </rate>
                <enabled>TRUE</enabled>
                <start>545</start>
                <end>546</end>
                <file id="file-547"/>
              </clipitem>
              <clipitem frameBlend="FALSE" id="clipitem-1269">
                <name>Scene - Puppet man_0003.546.png</name>
                <masterclipid>masterclip-548</masterclipid>
                <rate>
                  <timebase>24</timebase>
                  <ntsc>FALSE</ntsc>
                </rate>
                <duration>1</duration>
                <enabled>TRUE</enabled>
                <alphatype>straight</alphatype>
                <rate>
                  <timebase>24</timebase>
                  <ntsc>FALSE</ntsc>
                </rate>
                <enabled>TRUE</enabled>
                <start>546</start>
                <end>547</end>
                <file id="file-548"/>
              </clipitem>
              <clipitem frameBlend="FALSE" id="clipitem-1270">
                <name>Scene - Puppet man_0003.547.png</name>
                <masterclipid>masterclip-549</masterclipid>
                <rate>
                  <timebase>24</timebase>
                  <ntsc>FALSE</ntsc>
                </rate>
                <duration>1</duration>
                <enabled>TRUE</enabled>
                <alphatype>straight</alphatype>
                <rate>
                  <timebase>24</timebase>
                  <ntsc>FALSE</ntsc>
                </rate>
                <enabled>TRUE</enabled>
                <start>547</start>
                <end>548</end>
                <file id="file-549"/>
              </clipitem>
              <clipitem frameBlend="FALSE" id="clipitem-1271">
                <name>Scene - Puppet man_0003.548.png</name>
                <masterclipid>masterclip-550</masterclipid>
                <rate>
                  <timebase>24</timebase>
                  <ntsc>FALSE</ntsc>
                </rate>
                <duration>1</duration>
                <enabled>TRUE</enabled>
                <alphatype>straight</alphatype>
                <rate>
                  <timebase>24</timebase>
                  <ntsc>FALSE</ntsc>
                </rate>
                <enabled>TRUE</enabled>
                <start>548</start>
                <end>549</end>
                <file id="file-550"/>
              </clipitem>
              <clipitem frameBlend="FALSE" id="clipitem-1272">
                <name>Scene - Puppet man_0003.549.png</name>
                <masterclipid>masterclip-551</masterclipid>
                <rate>
                  <timebase>24</timebase>
                  <ntsc>FALSE</ntsc>
                </rate>
                <duration>1</duration>
                <enabled>TRUE</enabled>
                <alphatype>straight</alphatype>
                <rate>
                  <timebase>24</timebase>
                  <ntsc>FALSE</ntsc>
                </rate>
                <enabled>TRUE</enabled>
                <start>549</start>
                <end>550</end>
                <file id="file-551"/>
              </clipitem>
              <clipitem frameBlend="FALSE" id="clipitem-1273">
                <name>Scene - Puppet man_0003.550.png</name>
                <masterclipid>masterclip-552</masterclipid>
                <rate>
                  <timebase>24</timebase>
                  <ntsc>FALSE</ntsc>
                </rate>
                <duration>1</duration>
                <enabled>TRUE</enabled>
                <alphatype>straight</alphatype>
                <rate>
                  <timebase>24</timebase>
                  <ntsc>FALSE</ntsc>
                </rate>
                <enabled>TRUE</enabled>
                <start>550</start>
                <end>551</end>
                <file id="file-552"/>
              </clipitem>
              <clipitem frameBlend="FALSE" id="clipitem-1274">
                <name>Scene - Puppet man_0003.551.png</name>
                <masterclipid>masterclip-553</masterclipid>
                <rate>
                  <timebase>24</timebase>
                  <ntsc>FALSE</ntsc>
                </rate>
                <duration>1</duration>
                <enabled>TRUE</enabled>
                <alphatype>straight</alphatype>
                <rate>
                  <timebase>24</timebase>
                  <ntsc>FALSE</ntsc>
                </rate>
                <enabled>TRUE</enabled>
                <start>551</start>
                <end>552</end>
                <file id="file-553"/>
              </clipitem>
              <clipitem frameBlend="FALSE" id="clipitem-1275">
                <name>Scene - Puppet man_0003.552.png</name>
                <masterclipid>masterclip-554</masterclipid>
                <rate>
                  <timebase>24</timebase>
                  <ntsc>FALSE</ntsc>
                </rate>
                <duration>1</duration>
                <enabled>TRUE</enabled>
                <alphatype>straight</alphatype>
                <rate>
                  <timebase>24</timebase>
                  <ntsc>FALSE</ntsc>
                </rate>
                <enabled>TRUE</enabled>
                <start>552</start>
                <end>553</end>
                <file id="file-554"/>
              </clipitem>
              <clipitem frameBlend="FALSE" id="clipitem-1276">
                <name>Scene - Puppet man_0003.553.png</name>
                <masterclipid>masterclip-555</masterclipid>
                <rate>
                  <timebase>24</timebase>
                  <ntsc>FALSE</ntsc>
                </rate>
                <duration>1</duration>
                <enabled>TRUE</enabled>
                <alphatype>straight</alphatype>
                <rate>
                  <timebase>24</timebase>
                  <ntsc>FALSE</ntsc>
                </rate>
                <enabled>TRUE</enabled>
                <start>553</start>
                <end>554</end>
                <file id="file-555"/>
              </clipitem>
              <clipitem frameBlend="FALSE" id="clipitem-1277">
                <name>Scene - Puppet man_0003.554.png</name>
                <masterclipid>masterclip-556</masterclipid>
                <rate>
                  <timebase>24</timebase>
                  <ntsc>FALSE</ntsc>
                </rate>
                <duration>1</duration>
                <enabled>TRUE</enabled>
                <alphatype>straight</alphatype>
                <rate>
                  <timebase>24</timebase>
                  <ntsc>FALSE</ntsc>
                </rate>
                <enabled>TRUE</enabled>
                <start>554</start>
                <end>555</end>
                <file id="file-556"/>
              </clipitem>
              <clipitem frameBlend="FALSE" id="clipitem-1278">
                <name>Scene - Puppet man_0003.555.png</name>
                <masterclipid>masterclip-557</masterclipid>
                <rate>
                  <timebase>24</timebase>
                  <ntsc>FALSE</ntsc>
                </rate>
                <duration>1</duration>
                <enabled>TRUE</enabled>
                <alphatype>straight</alphatype>
                <rate>
                  <timebase>24</timebase>
                  <ntsc>FALSE</ntsc>
                </rate>
                <enabled>TRUE</enabled>
                <start>555</start>
                <end>556</end>
                <file id="file-557"/>
              </clipitem>
              <clipitem frameBlend="FALSE" id="clipitem-1279">
                <name>Scene - Puppet man_0003.556.png</name>
                <masterclipid>masterclip-558</masterclipid>
                <rate>
                  <timebase>24</timebase>
                  <ntsc>FALSE</ntsc>
                </rate>
                <duration>1</duration>
                <enabled>TRUE</enabled>
                <alphatype>straight</alphatype>
                <rate>
                  <timebase>24</timebase>
                  <ntsc>FALSE</ntsc>
                </rate>
                <enabled>TRUE</enabled>
                <start>556</start>
                <end>557</end>
                <file id="file-558"/>
              </clipitem>
              <clipitem frameBlend="FALSE" id="clipitem-1280">
                <name>Scene - Puppet man_0003.557.png</name>
                <masterclipid>masterclip-559</masterclipid>
                <rate>
                  <timebase>24</timebase>
                  <ntsc>FALSE</ntsc>
                </rate>
                <duration>1</duration>
                <enabled>TRUE</enabled>
                <alphatype>straight</alphatype>
                <rate>
                  <timebase>24</timebase>
                  <ntsc>FALSE</ntsc>
                </rate>
                <enabled>TRUE</enabled>
                <start>557</start>
                <end>558</end>
                <file id="file-559"/>
              </clipitem>
              <clipitem frameBlend="FALSE" id="clipitem-1281">
                <name>Scene - Puppet man_0003.558.png</name>
                <masterclipid>masterclip-560</masterclipid>
                <rate>
                  <timebase>24</timebase>
                  <ntsc>FALSE</ntsc>
                </rate>
                <duration>1</duration>
                <enabled>TRUE</enabled>
                <alphatype>straight</alphatype>
                <rate>
                  <timebase>24</timebase>
                  <ntsc>FALSE</ntsc>
                </rate>
                <enabled>TRUE</enabled>
                <start>558</start>
                <end>559</end>
                <file id="file-560"/>
              </clipitem>
              <clipitem frameBlend="FALSE" id="clipitem-1282">
                <name>Scene - Puppet man_0003.559.png</name>
                <masterclipid>masterclip-561</masterclipid>
                <rate>
                  <timebase>24</timebase>
                  <ntsc>FALSE</ntsc>
                </rate>
                <duration>1</duration>
                <enabled>TRUE</enabled>
                <alphatype>straight</alphatype>
                <rate>
                  <timebase>24</timebase>
                  <ntsc>FALSE</ntsc>
                </rate>
                <enabled>TRUE</enabled>
                <start>559</start>
                <end>560</end>
                <file id="file-561"/>
              </clipitem>
              <clipitem frameBlend="FALSE" id="clipitem-1283">
                <name>Scene - Puppet man_0003.560.png</name>
                <masterclipid>masterclip-562</masterclipid>
                <rate>
                  <timebase>24</timebase>
                  <ntsc>FALSE</ntsc>
                </rate>
                <duration>1</duration>
                <enabled>TRUE</enabled>
                <alphatype>straight</alphatype>
                <rate>
                  <timebase>24</timebase>
                  <ntsc>FALSE</ntsc>
                </rate>
                <enabled>TRUE</enabled>
                <start>560</start>
                <end>561</end>
                <file id="file-562"/>
              </clipitem>
              <clipitem frameBlend="FALSE" id="clipitem-1284">
                <name>Scene - Puppet man_0003.561.png</name>
                <masterclipid>masterclip-563</masterclipid>
                <rate>
                  <timebase>24</timebase>
                  <ntsc>FALSE</ntsc>
                </rate>
                <duration>1</duration>
                <enabled>TRUE</enabled>
                <alphatype>straight</alphatype>
                <rate>
                  <timebase>24</timebase>
                  <ntsc>FALSE</ntsc>
                </rate>
                <enabled>TRUE</enabled>
                <start>561</start>
                <end>562</end>
                <file id="file-563"/>
              </clipitem>
              <clipitem frameBlend="FALSE" id="clipitem-1285">
                <name>Scene - Puppet man_0003.562.png</name>
                <masterclipid>masterclip-564</masterclipid>
                <rate>
                  <timebase>24</timebase>
                  <ntsc>FALSE</ntsc>
                </rate>
                <duration>1</duration>
                <enabled>TRUE</enabled>
                <alphatype>straight</alphatype>
                <rate>
                  <timebase>24</timebase>
                  <ntsc>FALSE</ntsc>
                </rate>
                <enabled>TRUE</enabled>
                <start>562</start>
                <end>563</end>
                <file id="file-564"/>
              </clipitem>
              <clipitem frameBlend="FALSE" id="clipitem-1286">
                <name>Scene - Puppet man_0003.563.png</name>
                <masterclipid>masterclip-565</masterclipid>
                <rate>
                  <timebase>24</timebase>
                  <ntsc>FALSE</ntsc>
                </rate>
                <duration>1</duration>
                <enabled>TRUE</enabled>
                <alphatype>straight</alphatype>
                <rate>
                  <timebase>24</timebase>
                  <ntsc>FALSE</ntsc>
                </rate>
                <enabled>TRUE</enabled>
                <start>563</start>
                <end>564</end>
                <file id="file-565"/>
              </clipitem>
              <clipitem frameBlend="FALSE" id="clipitem-1287">
                <name>Scene - Puppet man_0003.564.png</name>
                <masterclipid>masterclip-566</masterclipid>
                <rate>
                  <timebase>24</timebase>
                  <ntsc>FALSE</ntsc>
                </rate>
                <duration>1</duration>
                <enabled>TRUE</enabled>
                <alphatype>straight</alphatype>
                <rate>
                  <timebase>24</timebase>
                  <ntsc>FALSE</ntsc>
                </rate>
                <enabled>TRUE</enabled>
                <start>564</start>
                <end>565</end>
                <file id="file-566"/>
              </clipitem>
              <clipitem frameBlend="FALSE" id="clipitem-1288">
                <name>Scene - Puppet man_0003.565.png</name>
                <masterclipid>masterclip-567</masterclipid>
                <rate>
                  <timebase>24</timebase>
                  <ntsc>FALSE</ntsc>
                </rate>
                <duration>1</duration>
                <enabled>TRUE</enabled>
                <alphatype>straight</alphatype>
                <rate>
                  <timebase>24</timebase>
                  <ntsc>FALSE</ntsc>
                </rate>
                <enabled>TRUE</enabled>
                <start>565</start>
                <end>566</end>
                <file id="file-567"/>
              </clipitem>
              <clipitem frameBlend="FALSE" id="clipitem-1289">
                <name>Scene - Puppet man_0003.566.png</name>
                <masterclipid>masterclip-568</masterclipid>
                <rate>
                  <timebase>24</timebase>
                  <ntsc>FALSE</ntsc>
                </rate>
                <duration>1</duration>
                <enabled>TRUE</enabled>
                <alphatype>straight</alphatype>
                <rate>
                  <timebase>24</timebase>
                  <ntsc>FALSE</ntsc>
                </rate>
                <enabled>TRUE</enabled>
                <start>566</start>
                <end>567</end>
                <file id="file-568"/>
              </clipitem>
              <clipitem frameBlend="FALSE" id="clipitem-1290">
                <name>Scene - Puppet man_0003.567.png</name>
                <masterclipid>masterclip-569</masterclipid>
                <rate>
                  <timebase>24</timebase>
                  <ntsc>FALSE</ntsc>
                </rate>
                <duration>1</duration>
                <enabled>TRUE</enabled>
                <alphatype>straight</alphatype>
                <rate>
                  <timebase>24</timebase>
                  <ntsc>FALSE</ntsc>
                </rate>
                <enabled>TRUE</enabled>
                <start>567</start>
                <end>568</end>
                <file id="file-569"/>
              </clipitem>
              <clipitem frameBlend="FALSE" id="clipitem-1291">
                <name>Scene - Puppet man_0003.568.png</name>
                <masterclipid>masterclip-570</masterclipid>
                <rate>
                  <timebase>24</timebase>
                  <ntsc>FALSE</ntsc>
                </rate>
                <duration>1</duration>
                <enabled>TRUE</enabled>
                <alphatype>straight</alphatype>
                <rate>
                  <timebase>24</timebase>
                  <ntsc>FALSE</ntsc>
                </rate>
                <enabled>TRUE</enabled>
                <start>568</start>
                <end>569</end>
                <file id="file-570"/>
              </clipitem>
              <clipitem frameBlend="FALSE" id="clipitem-1292">
                <name>Scene - Puppet man_0003.569.png</name>
                <masterclipid>masterclip-571</masterclipid>
                <rate>
                  <timebase>24</timebase>
                  <ntsc>FALSE</ntsc>
                </rate>
                <duration>1</duration>
                <enabled>TRUE</enabled>
                <alphatype>straight</alphatype>
                <rate>
                  <timebase>24</timebase>
                  <ntsc>FALSE</ntsc>
                </rate>
                <enabled>TRUE</enabled>
                <start>569</start>
                <end>570</end>
                <file id="file-571"/>
              </clipitem>
              <clipitem frameBlend="FALSE" id="clipitem-1293">
                <name>Scene - Puppet man_0003.570.png</name>
                <masterclipid>masterclip-572</masterclipid>
                <rate>
                  <timebase>24</timebase>
                  <ntsc>FALSE</ntsc>
                </rate>
                <duration>1</duration>
                <enabled>TRUE</enabled>
                <alphatype>straight</alphatype>
                <rate>
                  <timebase>24</timebase>
                  <ntsc>FALSE</ntsc>
                </rate>
                <enabled>TRUE</enabled>
                <start>570</start>
                <end>571</end>
                <file id="file-572"/>
              </clipitem>
              <clipitem frameBlend="FALSE" id="clipitem-1294">
                <name>Scene - Puppet man_0003.571.png</name>
                <masterclipid>masterclip-573</masterclipid>
                <rate>
                  <timebase>24</timebase>
                  <ntsc>FALSE</ntsc>
                </rate>
                <duration>1</duration>
                <enabled>TRUE</enabled>
                <alphatype>straight</alphatype>
                <rate>
                  <timebase>24</timebase>
                  <ntsc>FALSE</ntsc>
                </rate>
                <enabled>TRUE</enabled>
                <start>571</start>
                <end>572</end>
                <file id="file-573"/>
              </clipitem>
              <clipitem frameBlend="FALSE" id="clipitem-1295">
                <name>Scene - Puppet man_0003.572.png</name>
                <masterclipid>masterclip-574</masterclipid>
                <rate>
                  <timebase>24</timebase>
                  <ntsc>FALSE</ntsc>
                </rate>
                <duration>1</duration>
                <enabled>TRUE</enabled>
                <alphatype>straight</alphatype>
                <rate>
                  <timebase>24</timebase>
                  <ntsc>FALSE</ntsc>
                </rate>
                <enabled>TRUE</enabled>
                <start>572</start>
                <end>573</end>
                <file id="file-574"/>
              </clipitem>
              <clipitem frameBlend="FALSE" id="clipitem-1296">
                <name>Scene - Puppet man_0003.573.png</name>
                <masterclipid>masterclip-575</masterclipid>
                <rate>
                  <timebase>24</timebase>
                  <ntsc>FALSE</ntsc>
                </rate>
                <duration>1</duration>
                <enabled>TRUE</enabled>
                <alphatype>straight</alphatype>
                <rate>
                  <timebase>24</timebase>
                  <ntsc>FALSE</ntsc>
                </rate>
                <enabled>TRUE</enabled>
                <start>573</start>
                <end>574</end>
                <file id="file-575"/>
              </clipitem>
              <clipitem frameBlend="FALSE" id="clipitem-1297">
                <name>Scene - Puppet man_0003.574.png</name>
                <masterclipid>masterclip-576</masterclipid>
                <rate>
                  <timebase>24</timebase>
                  <ntsc>FALSE</ntsc>
                </rate>
                <duration>1</duration>
                <enabled>TRUE</enabled>
                <alphatype>straight</alphatype>
                <rate>
                  <timebase>24</timebase>
                  <ntsc>FALSE</ntsc>
                </rate>
                <enabled>TRUE</enabled>
                <start>574</start>
                <end>575</end>
                <file id="file-576"/>
              </clipitem>
              <clipitem frameBlend="FALSE" id="clipitem-1298">
                <name>Scene - Puppet man_0003.575.png</name>
                <masterclipid>masterclip-577</masterclipid>
                <rate>
                  <timebase>24</timebase>
                  <ntsc>FALSE</ntsc>
                </rate>
                <duration>1</duration>
                <enabled>TRUE</enabled>
                <alphatype>straight</alphatype>
                <rate>
                  <timebase>24</timebase>
                  <ntsc>FALSE</ntsc>
                </rate>
                <enabled>TRUE</enabled>
                <start>575</start>
                <end>576</end>
                <file id="file-577"/>
              </clipitem>
              <clipitem frameBlend="FALSE" id="clipitem-1299">
                <name>Scene - Puppet man_0003.576.png</name>
                <masterclipid>masterclip-578</masterclipid>
                <rate>
                  <timebase>24</timebase>
                  <ntsc>FALSE</ntsc>
                </rate>
                <duration>1</duration>
                <enabled>TRUE</enabled>
                <alphatype>straight</alphatype>
                <rate>
                  <timebase>24</timebase>
                  <ntsc>FALSE</ntsc>
                </rate>
                <enabled>TRUE</enabled>
                <start>576</start>
                <end>577</end>
                <file id="file-578"/>
              </clipitem>
              <clipitem frameBlend="FALSE" id="clipitem-1300">
                <name>Scene - Puppet man_0003.577.png</name>
                <masterclipid>masterclip-579</masterclipid>
                <rate>
                  <timebase>24</timebase>
                  <ntsc>FALSE</ntsc>
                </rate>
                <duration>1</duration>
                <enabled>TRUE</enabled>
                <alphatype>straight</alphatype>
                <rate>
                  <timebase>24</timebase>
                  <ntsc>FALSE</ntsc>
                </rate>
                <enabled>TRUE</enabled>
                <start>577</start>
                <end>578</end>
                <file id="file-579"/>
              </clipitem>
              <clipitem frameBlend="FALSE" id="clipitem-1301">
                <name>Scene - Puppet man_0003.578.png</name>
                <masterclipid>masterclip-580</masterclipid>
                <rate>
                  <timebase>24</timebase>
                  <ntsc>FALSE</ntsc>
                </rate>
                <duration>1</duration>
                <enabled>TRUE</enabled>
                <alphatype>straight</alphatype>
                <rate>
                  <timebase>24</timebase>
                  <ntsc>FALSE</ntsc>
                </rate>
                <enabled>TRUE</enabled>
                <start>578</start>
                <end>579</end>
                <file id="file-580"/>
              </clipitem>
              <clipitem frameBlend="FALSE" id="clipitem-1302">
                <name>Scene - Puppet man_0003.579.png</name>
                <masterclipid>masterclip-581</masterclipid>
                <rate>
                  <timebase>24</timebase>
                  <ntsc>FALSE</ntsc>
                </rate>
                <duration>1</duration>
                <enabled>TRUE</enabled>
                <alphatype>straight</alphatype>
                <rate>
                  <timebase>24</timebase>
                  <ntsc>FALSE</ntsc>
                </rate>
                <enabled>TRUE</enabled>
                <start>579</start>
                <end>580</end>
                <file id="file-581"/>
              </clipitem>
              <clipitem frameBlend="FALSE" id="clipitem-1303">
                <name>Scene - Puppet man_0003.580.png</name>
                <masterclipid>masterclip-582</masterclipid>
                <rate>
                  <timebase>24</timebase>
                  <ntsc>FALSE</ntsc>
                </rate>
                <duration>1</duration>
                <enabled>TRUE</enabled>
                <alphatype>straight</alphatype>
                <rate>
                  <timebase>24</timebase>
                  <ntsc>FALSE</ntsc>
                </rate>
                <enabled>TRUE</enabled>
                <start>580</start>
                <end>581</end>
                <file id="file-582"/>
              </clipitem>
              <clipitem frameBlend="FALSE" id="clipitem-1304">
                <name>Scene - Puppet man_0003.581.png</name>
                <masterclipid>masterclip-583</masterclipid>
                <rate>
                  <timebase>24</timebase>
                  <ntsc>FALSE</ntsc>
                </rate>
                <duration>1</duration>
                <enabled>TRUE</enabled>
                <alphatype>straight</alphatype>
                <rate>
                  <timebase>24</timebase>
                  <ntsc>FALSE</ntsc>
                </rate>
                <enabled>TRUE</enabled>
                <start>581</start>
                <end>582</end>
                <file id="file-583"/>
              </clipitem>
              <clipitem frameBlend="FALSE" id="clipitem-1305">
                <name>Scene - Puppet man_0003.582.png</name>
                <masterclipid>masterclip-584</masterclipid>
                <rate>
                  <timebase>24</timebase>
                  <ntsc>FALSE</ntsc>
                </rate>
                <duration>1</duration>
                <enabled>TRUE</enabled>
                <alphatype>straight</alphatype>
                <rate>
                  <timebase>24</timebase>
                  <ntsc>FALSE</ntsc>
                </rate>
                <enabled>TRUE</enabled>
                <start>582</start>
                <end>583</end>
                <file id="file-584"/>
              </clipitem>
              <clipitem frameBlend="FALSE" id="clipitem-1306">
                <name>Scene - Puppet man_0003.583.png</name>
                <masterclipid>masterclip-585</masterclipid>
                <rate>
                  <timebase>24</timebase>
                  <ntsc>FALSE</ntsc>
                </rate>
                <duration>1</duration>
                <enabled>TRUE</enabled>
                <alphatype>straight</alphatype>
                <rate>
                  <timebase>24</timebase>
                  <ntsc>FALSE</ntsc>
                </rate>
                <enabled>TRUE</enabled>
                <start>583</start>
                <end>584</end>
                <file id="file-585"/>
              </clipitem>
              <clipitem frameBlend="FALSE" id="clipitem-1307">
                <name>Scene - Puppet man_0003.584.png</name>
                <masterclipid>masterclip-586</masterclipid>
                <rate>
                  <timebase>24</timebase>
                  <ntsc>FALSE</ntsc>
                </rate>
                <duration>1</duration>
                <enabled>TRUE</enabled>
                <alphatype>straight</alphatype>
                <rate>
                  <timebase>24</timebase>
                  <ntsc>FALSE</ntsc>
                </rate>
                <enabled>TRUE</enabled>
                <start>584</start>
                <end>585</end>
                <file id="file-586"/>
              </clipitem>
              <clipitem frameBlend="FALSE" id="clipitem-1308">
                <name>Scene - Puppet man_0003.585.png</name>
                <masterclipid>masterclip-587</masterclipid>
                <rate>
                  <timebase>24</timebase>
                  <ntsc>FALSE</ntsc>
                </rate>
                <duration>1</duration>
                <enabled>TRUE</enabled>
                <alphatype>straight</alphatype>
                <rate>
                  <timebase>24</timebase>
                  <ntsc>FALSE</ntsc>
                </rate>
                <enabled>TRUE</enabled>
                <start>585</start>
                <end>586</end>
                <file id="file-587"/>
              </clipitem>
              <clipitem frameBlend="FALSE" id="clipitem-1309">
                <name>Scene - Puppet man_0003.586.png</name>
                <masterclipid>masterclip-588</masterclipid>
                <rate>
                  <timebase>24</timebase>
                  <ntsc>FALSE</ntsc>
                </rate>
                <duration>1</duration>
                <enabled>TRUE</enabled>
                <alphatype>straight</alphatype>
                <rate>
                  <timebase>24</timebase>
                  <ntsc>FALSE</ntsc>
                </rate>
                <enabled>TRUE</enabled>
                <start>586</start>
                <end>587</end>
                <file id="file-588"/>
              </clipitem>
              <clipitem frameBlend="FALSE" id="clipitem-1310">
                <name>Scene - Puppet man_0003.587.png</name>
                <masterclipid>masterclip-589</masterclipid>
                <rate>
                  <timebase>24</timebase>
                  <ntsc>FALSE</ntsc>
                </rate>
                <duration>1</duration>
                <enabled>TRUE</enabled>
                <alphatype>straight</alphatype>
                <rate>
                  <timebase>24</timebase>
                  <ntsc>FALSE</ntsc>
                </rate>
                <enabled>TRUE</enabled>
                <start>587</start>
                <end>588</end>
                <file id="file-589"/>
              </clipitem>
              <clipitem frameBlend="FALSE" id="clipitem-1311">
                <name>Scene - Puppet man_0003.588.png</name>
                <masterclipid>masterclip-590</masterclipid>
                <rate>
                  <timebase>24</timebase>
                  <ntsc>FALSE</ntsc>
                </rate>
                <duration>1</duration>
                <enabled>TRUE</enabled>
                <alphatype>straight</alphatype>
                <rate>
                  <timebase>24</timebase>
                  <ntsc>FALSE</ntsc>
                </rate>
                <enabled>TRUE</enabled>
                <start>588</start>
                <end>589</end>
                <file id="file-590"/>
              </clipitem>
              <clipitem frameBlend="FALSE" id="clipitem-1312">
                <name>Scene - Puppet man_0003.589.png</name>
                <masterclipid>masterclip-591</masterclipid>
                <rate>
                  <timebase>24</timebase>
                  <ntsc>FALSE</ntsc>
                </rate>
                <duration>1</duration>
                <enabled>TRUE</enabled>
                <alphatype>straight</alphatype>
                <rate>
                  <timebase>24</timebase>
                  <ntsc>FALSE</ntsc>
                </rate>
                <enabled>TRUE</enabled>
                <start>589</start>
                <end>590</end>
                <file id="file-591"/>
              </clipitem>
              <clipitem frameBlend="FALSE" id="clipitem-1313">
                <name>Scene - Puppet man_0003.590.png</name>
                <masterclipid>masterclip-592</masterclipid>
                <rate>
                  <timebase>24</timebase>
                  <ntsc>FALSE</ntsc>
                </rate>
                <duration>1</duration>
                <enabled>TRUE</enabled>
                <alphatype>straight</alphatype>
                <rate>
                  <timebase>24</timebase>
                  <ntsc>FALSE</ntsc>
                </rate>
                <enabled>TRUE</enabled>
                <start>590</start>
                <end>591</end>
                <file id="file-592"/>
              </clipitem>
              <clipitem frameBlend="FALSE" id="clipitem-1314">
                <name>Scene - Puppet man_0003.591.png</name>
                <masterclipid>masterclip-593</masterclipid>
                <rate>
                  <timebase>24</timebase>
                  <ntsc>FALSE</ntsc>
                </rate>
                <duration>1</duration>
                <enabled>TRUE</enabled>
                <alphatype>straight</alphatype>
                <rate>
                  <timebase>24</timebase>
                  <ntsc>FALSE</ntsc>
                </rate>
                <enabled>TRUE</enabled>
                <start>591</start>
                <end>592</end>
                <file id="file-593"/>
              </clipitem>
              <clipitem frameBlend="FALSE" id="clipitem-1315">
                <name>Scene - Puppet man_0003.592.png</name>
                <masterclipid>masterclip-594</masterclipid>
                <rate>
                  <timebase>24</timebase>
                  <ntsc>FALSE</ntsc>
                </rate>
                <duration>1</duration>
                <enabled>TRUE</enabled>
                <alphatype>straight</alphatype>
                <rate>
                  <timebase>24</timebase>
                  <ntsc>FALSE</ntsc>
                </rate>
                <enabled>TRUE</enabled>
                <start>592</start>
                <end>593</end>
                <file id="file-594"/>
              </clipitem>
              <clipitem frameBlend="FALSE" id="clipitem-1316">
                <name>Scene - Puppet man_0003.593.png</name>
                <masterclipid>masterclip-595</masterclipid>
                <rate>
                  <timebase>24</timebase>
                  <ntsc>FALSE</ntsc>
                </rate>
                <duration>1</duration>
                <enabled>TRUE</enabled>
                <alphatype>straight</alphatype>
                <rate>
                  <timebase>24</timebase>
                  <ntsc>FALSE</ntsc>
                </rate>
                <enabled>TRUE</enabled>
                <start>593</start>
                <end>594</end>
                <file id="file-595"/>
              </clipitem>
              <clipitem frameBlend="FALSE" id="clipitem-1317">
                <name>Scene - Puppet man_0003.594.png</name>
                <masterclipid>masterclip-596</masterclipid>
                <rate>
                  <timebase>24</timebase>
                  <ntsc>FALSE</ntsc>
                </rate>
                <duration>1</duration>
                <enabled>TRUE</enabled>
                <alphatype>straight</alphatype>
                <rate>
                  <timebase>24</timebase>
                  <ntsc>FALSE</ntsc>
                </rate>
                <enabled>TRUE</enabled>
                <start>594</start>
                <end>595</end>
                <file id="file-596"/>
              </clipitem>
              <clipitem frameBlend="FALSE" id="clipitem-1318">
                <name>Scene - Puppet man_0003.595.png</name>
                <masterclipid>masterclip-597</masterclipid>
                <rate>
                  <timebase>24</timebase>
                  <ntsc>FALSE</ntsc>
                </rate>
                <duration>1</duration>
                <enabled>TRUE</enabled>
                <alphatype>straight</alphatype>
                <rate>
                  <timebase>24</timebase>
                  <ntsc>FALSE</ntsc>
                </rate>
                <enabled>TRUE</enabled>
                <start>595</start>
                <end>596</end>
                <file id="file-597"/>
              </clipitem>
              <clipitem frameBlend="FALSE" id="clipitem-1319">
                <name>Scene - Puppet man_0003.596.png</name>
                <masterclipid>masterclip-598</masterclipid>
                <rate>
                  <timebase>24</timebase>
                  <ntsc>FALSE</ntsc>
                </rate>
                <duration>1</duration>
                <enabled>TRUE</enabled>
                <alphatype>straight</alphatype>
                <rate>
                  <timebase>24</timebase>
                  <ntsc>FALSE</ntsc>
                </rate>
                <enabled>TRUE</enabled>
                <start>596</start>
                <end>597</end>
                <file id="file-598"/>
              </clipitem>
              <clipitem frameBlend="FALSE" id="clipitem-1320">
                <name>Scene - Puppet man_0003.597.png</name>
                <masterclipid>masterclip-599</masterclipid>
                <rate>
                  <timebase>24</timebase>
                  <ntsc>FALSE</ntsc>
                </rate>
                <duration>1</duration>
                <enabled>TRUE</enabled>
                <alphatype>straight</alphatype>
                <rate>
                  <timebase>24</timebase>
                  <ntsc>FALSE</ntsc>
                </rate>
                <enabled>TRUE</enabled>
                <start>597</start>
                <end>598</end>
                <file id="file-599"/>
              </clipitem>
              <clipitem frameBlend="FALSE" id="clipitem-1321">
                <name>Scene - Puppet man_0003.598.png</name>
                <masterclipid>masterclip-600</masterclipid>
                <rate>
                  <timebase>24</timebase>
                  <ntsc>FALSE</ntsc>
                </rate>
                <duration>1</duration>
                <enabled>TRUE</enabled>
                <alphatype>straight</alphatype>
                <rate>
                  <timebase>24</timebase>
                  <ntsc>FALSE</ntsc>
                </rate>
                <enabled>TRUE</enabled>
                <start>598</start>
                <end>599</end>
                <file id="file-600"/>
              </clipitem>
              <clipitem frameBlend="FALSE" id="clipitem-1322">
                <name>Scene - Puppet man_0003.599.png</name>
                <masterclipid>masterclip-601</masterclipid>
                <rate>
                  <timebase>24</timebase>
                  <ntsc>FALSE</ntsc>
                </rate>
                <duration>1</duration>
                <enabled>TRUE</enabled>
                <alphatype>straight</alphatype>
                <rate>
                  <timebase>24</timebase>
                  <ntsc>FALSE</ntsc>
                </rate>
                <enabled>TRUE</enabled>
                <start>599</start>
                <end>600</end>
                <file id="file-601"/>
              </clipitem>
              <clipitem frameBlend="FALSE" id="clipitem-1323">
                <name>Scene - Puppet man_0003.600.png</name>
                <masterclipid>masterclip-602</masterclipid>
                <rate>
                  <timebase>24</timebase>
                  <ntsc>FALSE</ntsc>
                </rate>
                <duration>1</duration>
                <enabled>TRUE</enabled>
                <alphatype>straight</alphatype>
                <rate>
                  <timebase>24</timebase>
                  <ntsc>FALSE</ntsc>
                </rate>
                <enabled>TRUE</enabled>
                <start>600</start>
                <end>601</end>
                <file id="file-602"/>
              </clipitem>
              <clipitem frameBlend="FALSE" id="clipitem-1324">
                <name>Scene - Puppet man_0003.601.png</name>
                <masterclipid>masterclip-603</masterclipid>
                <rate>
                  <timebase>24</timebase>
                  <ntsc>FALSE</ntsc>
                </rate>
                <duration>1</duration>
                <enabled>TRUE</enabled>
                <alphatype>straight</alphatype>
                <rate>
                  <timebase>24</timebase>
                  <ntsc>FALSE</ntsc>
                </rate>
                <enabled>TRUE</enabled>
                <start>601</start>
                <end>602</end>
                <file id="file-603"/>
              </clipitem>
              <clipitem frameBlend="FALSE" id="clipitem-1325">
                <name>Scene - Puppet man_0003.602.png</name>
                <masterclipid>masterclip-604</masterclipid>
                <rate>
                  <timebase>24</timebase>
                  <ntsc>FALSE</ntsc>
                </rate>
                <duration>1</duration>
                <enabled>TRUE</enabled>
                <alphatype>straight</alphatype>
                <rate>
                  <timebase>24</timebase>
                  <ntsc>FALSE</ntsc>
                </rate>
                <enabled>TRUE</enabled>
                <start>602</start>
                <end>603</end>
                <file id="file-604"/>
              </clipitem>
              <clipitem frameBlend="FALSE" id="clipitem-1326">
                <name>Scene - Puppet man_0003.603.png</name>
                <masterclipid>masterclip-605</masterclipid>
                <rate>
                  <timebase>24</timebase>
                  <ntsc>FALSE</ntsc>
                </rate>
                <duration>1</duration>
                <enabled>TRUE</enabled>
                <alphatype>straight</alphatype>
                <rate>
                  <timebase>24</timebase>
                  <ntsc>FALSE</ntsc>
                </rate>
                <enabled>TRUE</enabled>
                <start>603</start>
                <end>604</end>
                <file id="file-605"/>
              </clipitem>
              <clipitem frameBlend="FALSE" id="clipitem-1327">
                <name>Scene - Puppet man_0003.604.png</name>
                <masterclipid>masterclip-606</masterclipid>
                <rate>
                  <timebase>24</timebase>
                  <ntsc>FALSE</ntsc>
                </rate>
                <duration>1</duration>
                <enabled>TRUE</enabled>
                <alphatype>straight</alphatype>
                <rate>
                  <timebase>24</timebase>
                  <ntsc>FALSE</ntsc>
                </rate>
                <enabled>TRUE</enabled>
                <start>604</start>
                <end>605</end>
                <file id="file-606"/>
              </clipitem>
              <clipitem frameBlend="FALSE" id="clipitem-1328">
                <name>Scene - Puppet man_0003.605.png</name>
                <masterclipid>masterclip-607</masterclipid>
                <rate>
                  <timebase>24</timebase>
                  <ntsc>FALSE</ntsc>
                </rate>
                <duration>1</duration>
                <enabled>TRUE</enabled>
                <alphatype>straight</alphatype>
                <rate>
                  <timebase>24</timebase>
                  <ntsc>FALSE</ntsc>
                </rate>
                <enabled>TRUE</enabled>
                <start>605</start>
                <end>606</end>
                <file id="file-607"/>
              </clipitem>
              <clipitem frameBlend="FALSE" id="clipitem-1329">
                <name>Scene - Puppet man_0003.606.png</name>
                <masterclipid>masterclip-608</masterclipid>
                <rate>
                  <timebase>24</timebase>
                  <ntsc>FALSE</ntsc>
                </rate>
                <duration>1</duration>
                <enabled>TRUE</enabled>
                <alphatype>straight</alphatype>
                <rate>
                  <timebase>24</timebase>
                  <ntsc>FALSE</ntsc>
                </rate>
                <enabled>TRUE</enabled>
                <start>606</start>
                <end>607</end>
                <file id="file-608"/>
              </clipitem>
              <clipitem frameBlend="FALSE" id="clipitem-1330">
                <name>Scene - Puppet man_0003.607.png</name>
                <masterclipid>masterclip-609</masterclipid>
                <rate>
                  <timebase>24</timebase>
                  <ntsc>FALSE</ntsc>
                </rate>
                <duration>1</duration>
                <enabled>TRUE</enabled>
                <alphatype>straight</alphatype>
                <rate>
                  <timebase>24</timebase>
                  <ntsc>FALSE</ntsc>
                </rate>
                <enabled>TRUE</enabled>
                <start>607</start>
                <end>608</end>
                <file id="file-609"/>
              </clipitem>
              <clipitem frameBlend="FALSE" id="clipitem-1331">
                <name>Scene - Puppet man_0003.608.png</name>
                <masterclipid>masterclip-610</masterclipid>
                <rate>
                  <timebase>24</timebase>
                  <ntsc>FALSE</ntsc>
                </rate>
                <duration>1</duration>
                <enabled>TRUE</enabled>
                <alphatype>straight</alphatype>
                <rate>
                  <timebase>24</timebase>
                  <ntsc>FALSE</ntsc>
                </rate>
                <enabled>TRUE</enabled>
                <start>608</start>
                <end>609</end>
                <file id="file-610"/>
              </clipitem>
              <clipitem frameBlend="FALSE" id="clipitem-1332">
                <name>Scene - Puppet man_0003.609.png</name>
                <masterclipid>masterclip-611</masterclipid>
                <rate>
                  <timebase>24</timebase>
                  <ntsc>FALSE</ntsc>
                </rate>
                <duration>1</duration>
                <enabled>TRUE</enabled>
                <alphatype>straight</alphatype>
                <rate>
                  <timebase>24</timebase>
                  <ntsc>FALSE</ntsc>
                </rate>
                <enabled>TRUE</enabled>
                <start>609</start>
                <end>610</end>
                <file id="file-611"/>
              </clipitem>
              <clipitem frameBlend="FALSE" id="clipitem-1333">
                <name>Scene - Puppet man_0003.610.png</name>
                <masterclipid>masterclip-612</masterclipid>
                <rate>
                  <timebase>24</timebase>
                  <ntsc>FALSE</ntsc>
                </rate>
                <duration>1</duration>
                <enabled>TRUE</enabled>
                <alphatype>straight</alphatype>
                <rate>
                  <timebase>24</timebase>
                  <ntsc>FALSE</ntsc>
                </rate>
                <enabled>TRUE</enabled>
                <start>610</start>
                <end>611</end>
                <file id="file-612"/>
              </clipitem>
              <clipitem frameBlend="FALSE" id="clipitem-1334">
                <name>Scene - Puppet man_0003.611.png</name>
                <masterclipid>masterclip-613</masterclipid>
                <rate>
                  <timebase>24</timebase>
                  <ntsc>FALSE</ntsc>
                </rate>
                <duration>1</duration>
                <enabled>TRUE</enabled>
                <alphatype>straight</alphatype>
                <rate>
                  <timebase>24</timebase>
                  <ntsc>FALSE</ntsc>
                </rate>
                <enabled>TRUE</enabled>
                <start>611</start>
                <end>612</end>
                <file id="file-613"/>
              </clipitem>
              <clipitem frameBlend="FALSE" id="clipitem-1335">
                <name>Scene - Puppet man_0003.612.png</name>
                <masterclipid>masterclip-614</masterclipid>
                <rate>
                  <timebase>24</timebase>
                  <ntsc>FALSE</ntsc>
                </rate>
                <duration>1</duration>
                <enabled>TRUE</enabled>
                <alphatype>straight</alphatype>
                <rate>
                  <timebase>24</timebase>
                  <ntsc>FALSE</ntsc>
                </rate>
                <enabled>TRUE</enabled>
                <start>612</start>
                <end>613</end>
                <file id="file-614"/>
              </clipitem>
              <clipitem frameBlend="FALSE" id="clipitem-1336">
                <name>Scene - Puppet man_0003.613.png</name>
                <masterclipid>masterclip-615</masterclipid>
                <rate>
                  <timebase>24</timebase>
                  <ntsc>FALSE</ntsc>
                </rate>
                <duration>1</duration>
                <enabled>TRUE</enabled>
                <alphatype>straight</alphatype>
                <rate>
                  <timebase>24</timebase>
                  <ntsc>FALSE</ntsc>
                </rate>
                <enabled>TRUE</enabled>
                <start>613</start>
                <end>614</end>
                <file id="file-615"/>
              </clipitem>
              <clipitem frameBlend="FALSE" id="clipitem-1337">
                <name>Scene - Puppet man_0003.614.png</name>
                <masterclipid>masterclip-616</masterclipid>
                <rate>
                  <timebase>24</timebase>
                  <ntsc>FALSE</ntsc>
                </rate>
                <duration>1</duration>
                <enabled>TRUE</enabled>
                <alphatype>straight</alphatype>
                <rate>
                  <timebase>24</timebase>
                  <ntsc>FALSE</ntsc>
                </rate>
                <enabled>TRUE</enabled>
                <start>614</start>
                <end>615</end>
                <file id="file-616"/>
              </clipitem>
              <clipitem frameBlend="FALSE" id="clipitem-1338">
                <name>Scene - Puppet man_0003.615.png</name>
                <masterclipid>masterclip-617</masterclipid>
                <rate>
                  <timebase>24</timebase>
                  <ntsc>FALSE</ntsc>
                </rate>
                <duration>1</duration>
                <enabled>TRUE</enabled>
                <alphatype>straight</alphatype>
                <rate>
                  <timebase>24</timebase>
                  <ntsc>FALSE</ntsc>
                </rate>
                <enabled>TRUE</enabled>
                <start>615</start>
                <end>616</end>
                <file id="file-617"/>
              </clipitem>
              <clipitem frameBlend="FALSE" id="clipitem-1339">
                <name>Scene - Puppet man_0003.616.png</name>
                <masterclipid>masterclip-618</masterclipid>
                <rate>
                  <timebase>24</timebase>
                  <ntsc>FALSE</ntsc>
                </rate>
                <duration>1</duration>
                <enabled>TRUE</enabled>
                <alphatype>straight</alphatype>
                <rate>
                  <timebase>24</timebase>
                  <ntsc>FALSE</ntsc>
                </rate>
                <enabled>TRUE</enabled>
                <start>616</start>
                <end>617</end>
                <file id="file-618"/>
              </clipitem>
              <clipitem frameBlend="FALSE" id="clipitem-1340">
                <name>Scene - Puppet man_0003.617.png</name>
                <masterclipid>masterclip-619</masterclipid>
                <rate>
                  <timebase>24</timebase>
                  <ntsc>FALSE</ntsc>
                </rate>
                <duration>1</duration>
                <enabled>TRUE</enabled>
                <alphatype>straight</alphatype>
                <rate>
                  <timebase>24</timebase>
                  <ntsc>FALSE</ntsc>
                </rate>
                <enabled>TRUE</enabled>
                <start>617</start>
                <end>618</end>
                <file id="file-619"/>
              </clipitem>
              <clipitem frameBlend="FALSE" id="clipitem-1341">
                <name>Scene - Puppet man_0003.618.png</name>
                <masterclipid>masterclip-620</masterclipid>
                <rate>
                  <timebase>24</timebase>
                  <ntsc>FALSE</ntsc>
                </rate>
                <duration>1</duration>
                <enabled>TRUE</enabled>
                <alphatype>straight</alphatype>
                <rate>
                  <timebase>24</timebase>
                  <ntsc>FALSE</ntsc>
                </rate>
                <enabled>TRUE</enabled>
                <start>618</start>
                <end>619</end>
                <file id="file-620"/>
              </clipitem>
              <clipitem frameBlend="FALSE" id="clipitem-1342">
                <name>Scene - Puppet man_0003.619.png</name>
                <masterclipid>masterclip-621</masterclipid>
                <rate>
                  <timebase>24</timebase>
                  <ntsc>FALSE</ntsc>
                </rate>
                <duration>1</duration>
                <enabled>TRUE</enabled>
                <alphatype>straight</alphatype>
                <rate>
                  <timebase>24</timebase>
                  <ntsc>FALSE</ntsc>
                </rate>
                <enabled>TRUE</enabled>
                <start>619</start>
                <end>620</end>
                <file id="file-621"/>
              </clipitem>
              <clipitem frameBlend="FALSE" id="clipitem-1343">
                <name>Scene - Puppet man_0003.620.png</name>
                <masterclipid>masterclip-622</masterclipid>
                <rate>
                  <timebase>24</timebase>
                  <ntsc>FALSE</ntsc>
                </rate>
                <duration>1</duration>
                <enabled>TRUE</enabled>
                <alphatype>straight</alphatype>
                <rate>
                  <timebase>24</timebase>
                  <ntsc>FALSE</ntsc>
                </rate>
                <enabled>TRUE</enabled>
                <start>620</start>
                <end>621</end>
                <file id="file-622"/>
              </clipitem>
              <clipitem frameBlend="FALSE" id="clipitem-1344">
                <name>Scene - Puppet man_0003.621.png</name>
                <masterclipid>masterclip-623</masterclipid>
                <rate>
                  <timebase>24</timebase>
                  <ntsc>FALSE</ntsc>
                </rate>
                <duration>1</duration>
                <enabled>TRUE</enabled>
                <alphatype>straight</alphatype>
                <rate>
                  <timebase>24</timebase>
                  <ntsc>FALSE</ntsc>
                </rate>
                <enabled>TRUE</enabled>
                <start>621</start>
                <end>622</end>
                <file id="file-623"/>
              </clipitem>
              <clipitem frameBlend="FALSE" id="clipitem-1345">
                <name>Scene - Puppet man_0003.622.png</name>
                <masterclipid>masterclip-624</masterclipid>
                <rate>
                  <timebase>24</timebase>
                  <ntsc>FALSE</ntsc>
                </rate>
                <duration>1</duration>
                <enabled>TRUE</enabled>
                <alphatype>straight</alphatype>
                <rate>
                  <timebase>24</timebase>
                  <ntsc>FALSE</ntsc>
                </rate>
                <enabled>TRUE</enabled>
                <start>622</start>
                <end>623</end>
                <file id="file-624"/>
              </clipitem>
              <clipitem frameBlend="FALSE" id="clipitem-1346">
                <name>Scene - Puppet man_0003.623.png</name>
                <masterclipid>masterclip-625</masterclipid>
                <rate>
                  <timebase>24</timebase>
                  <ntsc>FALSE</ntsc>
                </rate>
                <duration>1</duration>
                <enabled>TRUE</enabled>
                <alphatype>straight</alphatype>
                <rate>
                  <timebase>24</timebase>
                  <ntsc>FALSE</ntsc>
                </rate>
                <enabled>TRUE</enabled>
                <start>623</start>
                <end>624</end>
                <file id="file-625"/>
              </clipitem>
              <clipitem frameBlend="FALSE" id="clipitem-1347">
                <name>Scene - Puppet man_0003.624.png</name>
                <masterclipid>masterclip-626</masterclipid>
                <rate>
                  <timebase>24</timebase>
                  <ntsc>FALSE</ntsc>
                </rate>
                <duration>1</duration>
                <enabled>TRUE</enabled>
                <alphatype>straight</alphatype>
                <rate>
                  <timebase>24</timebase>
                  <ntsc>FALSE</ntsc>
                </rate>
                <enabled>TRUE</enabled>
                <start>624</start>
                <end>625</end>
                <file id="file-626"/>
              </clipitem>
              <clipitem frameBlend="FALSE" id="clipitem-1348">
                <name>Scene - Puppet man_0003.625.png</name>
                <masterclipid>masterclip-627</masterclipid>
                <rate>
                  <timebase>24</timebase>
                  <ntsc>FALSE</ntsc>
                </rate>
                <duration>1</duration>
                <enabled>TRUE</enabled>
                <alphatype>straight</alphatype>
                <rate>
                  <timebase>24</timebase>
                  <ntsc>FALSE</ntsc>
                </rate>
                <enabled>TRUE</enabled>
                <start>625</start>
                <end>626</end>
                <file id="file-627"/>
              </clipitem>
              <clipitem frameBlend="FALSE" id="clipitem-1349">
                <name>Scene - Puppet man_0003.626.png</name>
                <masterclipid>masterclip-628</masterclipid>
                <rate>
                  <timebase>24</timebase>
                  <ntsc>FALSE</ntsc>
                </rate>
                <duration>1</duration>
                <enabled>TRUE</enabled>
                <alphatype>straight</alphatype>
                <rate>
                  <timebase>24</timebase>
                  <ntsc>FALSE</ntsc>
                </rate>
                <enabled>TRUE</enabled>
                <start>626</start>
                <end>627</end>
                <file id="file-628"/>
              </clipitem>
              <clipitem frameBlend="FALSE" id="clipitem-1350">
                <name>Scene - Puppet man_0003.627.png</name>
                <masterclipid>masterclip-629</masterclipid>
                <rate>
                  <timebase>24</timebase>
                  <ntsc>FALSE</ntsc>
                </rate>
                <duration>1</duration>
                <enabled>TRUE</enabled>
                <alphatype>straight</alphatype>
                <rate>
                  <timebase>24</timebase>
                  <ntsc>FALSE</ntsc>
                </rate>
                <enabled>TRUE</enabled>
                <start>627</start>
                <end>628</end>
                <file id="file-629"/>
              </clipitem>
              <clipitem frameBlend="FALSE" id="clipitem-1351">
                <name>Scene - Puppet man_0003.628.png</name>
                <masterclipid>masterclip-630</masterclipid>
                <rate>
                  <timebase>24</timebase>
                  <ntsc>FALSE</ntsc>
                </rate>
                <duration>1</duration>
                <enabled>TRUE</enabled>
                <alphatype>straight</alphatype>
                <rate>
                  <timebase>24</timebase>
                  <ntsc>FALSE</ntsc>
                </rate>
                <enabled>TRUE</enabled>
                <start>628</start>
                <end>629</end>
                <file id="file-630"/>
              </clipitem>
              <clipitem frameBlend="FALSE" id="clipitem-1352">
                <name>Scene - Puppet man_0003.629.png</name>
                <masterclipid>masterclip-631</masterclipid>
                <rate>
                  <timebase>24</timebase>
                  <ntsc>FALSE</ntsc>
                </rate>
                <duration>1</duration>
                <enabled>TRUE</enabled>
                <alphatype>straight</alphatype>
                <rate>
                  <timebase>24</timebase>
                  <ntsc>FALSE</ntsc>
                </rate>
                <enabled>TRUE</enabled>
                <start>629</start>
                <end>630</end>
                <file id="file-631"/>
              </clipitem>
              <clipitem frameBlend="FALSE" id="clipitem-1353">
                <name>Scene - Puppet man_0003.630.png</name>
                <masterclipid>masterclip-632</masterclipid>
                <rate>
                  <timebase>24</timebase>
                  <ntsc>FALSE</ntsc>
                </rate>
                <duration>1</duration>
                <enabled>TRUE</enabled>
                <alphatype>straight</alphatype>
                <rate>
                  <timebase>24</timebase>
                  <ntsc>FALSE</ntsc>
                </rate>
                <enabled>TRUE</enabled>
                <start>630</start>
                <end>631</end>
                <file id="file-632"/>
              </clipitem>
              <clipitem frameBlend="FALSE" id="clipitem-1354">
                <name>Scene - Puppet man_0003.631.png</name>
                <masterclipid>masterclip-633</masterclipid>
                <rate>
                  <timebase>24</timebase>
                  <ntsc>FALSE</ntsc>
                </rate>
                <duration>1</duration>
                <enabled>TRUE</enabled>
                <alphatype>straight</alphatype>
                <rate>
                  <timebase>24</timebase>
                  <ntsc>FALSE</ntsc>
                </rate>
                <enabled>TRUE</enabled>
                <start>631</start>
                <end>632</end>
                <file id="file-633"/>
              </clipitem>
              <clipitem frameBlend="FALSE" id="clipitem-1355">
                <name>Scene - Puppet man_0003.632.png</name>
                <masterclipid>masterclip-634</masterclipid>
                <rate>
                  <timebase>24</timebase>
                  <ntsc>FALSE</ntsc>
                </rate>
                <duration>1</duration>
                <enabled>TRUE</enabled>
                <alphatype>straight</alphatype>
                <rate>
                  <timebase>24</timebase>
                  <ntsc>FALSE</ntsc>
                </rate>
                <enabled>TRUE</enabled>
                <start>632</start>
                <end>633</end>
                <file id="file-634"/>
              </clipitem>
              <clipitem frameBlend="FALSE" id="clipitem-1356">
                <name>Scene - Puppet man_0003.633.png</name>
                <masterclipid>masterclip-635</masterclipid>
                <rate>
                  <timebase>24</timebase>
                  <ntsc>FALSE</ntsc>
                </rate>
                <duration>1</duration>
                <enabled>TRUE</enabled>
                <alphatype>straight</alphatype>
                <rate>
                  <timebase>24</timebase>
                  <ntsc>FALSE</ntsc>
                </rate>
                <enabled>TRUE</enabled>
                <start>633</start>
                <end>634</end>
                <file id="file-635"/>
              </clipitem>
              <clipitem frameBlend="FALSE" id="clipitem-1357">
                <name>Scene - Puppet man_0003.634.png</name>
                <masterclipid>masterclip-636</masterclipid>
                <rate>
                  <timebase>24</timebase>
                  <ntsc>FALSE</ntsc>
                </rate>
                <duration>1</duration>
                <enabled>TRUE</enabled>
                <alphatype>straight</alphatype>
                <rate>
                  <timebase>24</timebase>
                  <ntsc>FALSE</ntsc>
                </rate>
                <enabled>TRUE</enabled>
                <start>634</start>
                <end>635</end>
                <file id="file-636"/>
              </clipitem>
              <clipitem frameBlend="FALSE" id="clipitem-1358">
                <name>Scene - Puppet man_0003.635.png</name>
                <masterclipid>masterclip-637</masterclipid>
                <rate>
                  <timebase>24</timebase>
                  <ntsc>FALSE</ntsc>
                </rate>
                <duration>1</duration>
                <enabled>TRUE</enabled>
                <alphatype>straight</alphatype>
                <rate>
                  <timebase>24</timebase>
                  <ntsc>FALSE</ntsc>
                </rate>
                <enabled>TRUE</enabled>
                <start>635</start>
                <end>636</end>
                <file id="file-637"/>
              </clipitem>
              <clipitem frameBlend="FALSE" id="clipitem-1359">
                <name>Scene - Puppet man_0003.636.png</name>
                <masterclipid>masterclip-638</masterclipid>
                <rate>
                  <timebase>24</timebase>
                  <ntsc>FALSE</ntsc>
                </rate>
                <duration>1</duration>
                <enabled>TRUE</enabled>
                <alphatype>straight</alphatype>
                <rate>
                  <timebase>24</timebase>
                  <ntsc>FALSE</ntsc>
                </rate>
                <enabled>TRUE</enabled>
                <start>636</start>
                <end>637</end>
                <file id="file-638"/>
              </clipitem>
              <clipitem frameBlend="FALSE" id="clipitem-1360">
                <name>Scene - Puppet man_0003.637.png</name>
                <masterclipid>masterclip-639</masterclipid>
                <rate>
                  <timebase>24</timebase>
                  <ntsc>FALSE</ntsc>
                </rate>
                <duration>1</duration>
                <enabled>TRUE</enabled>
                <alphatype>straight</alphatype>
                <rate>
                  <timebase>24</timebase>
                  <ntsc>FALSE</ntsc>
                </rate>
                <enabled>TRUE</enabled>
                <start>637</start>
                <end>638</end>
                <file id="file-639"/>
              </clipitem>
              <clipitem frameBlend="FALSE" id="clipitem-1361">
                <name>Scene - Puppet man_0003.638.png</name>
                <masterclipid>masterclip-640</masterclipid>
                <rate>
                  <timebase>24</timebase>
                  <ntsc>FALSE</ntsc>
                </rate>
                <duration>1</duration>
                <enabled>TRUE</enabled>
                <alphatype>straight</alphatype>
                <rate>
                  <timebase>24</timebase>
                  <ntsc>FALSE</ntsc>
                </rate>
                <enabled>TRUE</enabled>
                <start>638</start>
                <end>639</end>
                <file id="file-640"/>
              </clipitem>
              <clipitem frameBlend="FALSE" id="clipitem-1362">
                <name>Scene - Puppet man_0003.639.png</name>
                <masterclipid>masterclip-641</masterclipid>
                <rate>
                  <timebase>24</timebase>
                  <ntsc>FALSE</ntsc>
                </rate>
                <duration>1</duration>
                <enabled>TRUE</enabled>
                <alphatype>straight</alphatype>
                <rate>
                  <timebase>24</timebase>
                  <ntsc>FALSE</ntsc>
                </rate>
                <enabled>TRUE</enabled>
                <start>639</start>
                <end>640</end>
                <file id="file-641"/>
              </clipitem>
              <clipitem frameBlend="FALSE" id="clipitem-1363">
                <name>Scene - Puppet man_0003.640.png</name>
                <masterclipid>masterclip-642</masterclipid>
                <rate>
                  <timebase>24</timebase>
                  <ntsc>FALSE</ntsc>
                </rate>
                <duration>1</duration>
                <enabled>TRUE</enabled>
                <alphatype>straight</alphatype>
                <rate>
                  <timebase>24</timebase>
                  <ntsc>FALSE</ntsc>
                </rate>
                <enabled>TRUE</enabled>
                <start>640</start>
                <end>641</end>
                <file id="file-642"/>
              </clipitem>
              <clipitem frameBlend="FALSE" id="clipitem-1364">
                <name>Scene - Puppet man_0003.641.png</name>
                <masterclipid>masterclip-643</masterclipid>
                <rate>
                  <timebase>24</timebase>
                  <ntsc>FALSE</ntsc>
                </rate>
                <duration>1</duration>
                <enabled>TRUE</enabled>
                <alphatype>straight</alphatype>
                <rate>
                  <timebase>24</timebase>
                  <ntsc>FALSE</ntsc>
                </rate>
                <enabled>TRUE</enabled>
                <start>641</start>
                <end>642</end>
                <file id="file-643"/>
              </clipitem>
              <clipitem frameBlend="FALSE" id="clipitem-1365">
                <name>Scene - Puppet man_0003.642.png</name>
                <masterclipid>masterclip-644</masterclipid>
                <rate>
                  <timebase>24</timebase>
                  <ntsc>FALSE</ntsc>
                </rate>
                <duration>1</duration>
                <enabled>TRUE</enabled>
                <alphatype>straight</alphatype>
                <rate>
                  <timebase>24</timebase>
                  <ntsc>FALSE</ntsc>
                </rate>
                <enabled>TRUE</enabled>
                <start>642</start>
                <end>643</end>
                <file id="file-644"/>
              </clipitem>
              <clipitem frameBlend="FALSE" id="clipitem-1366">
                <name>Scene - Puppet man_0003.643.png</name>
                <masterclipid>masterclip-645</masterclipid>
                <rate>
                  <timebase>24</timebase>
                  <ntsc>FALSE</ntsc>
                </rate>
                <duration>1</duration>
                <enabled>TRUE</enabled>
                <alphatype>straight</alphatype>
                <rate>
                  <timebase>24</timebase>
                  <ntsc>FALSE</ntsc>
                </rate>
                <enabled>TRUE</enabled>
                <start>643</start>
                <end>644</end>
                <file id="file-645"/>
              </clipitem>
              <clipitem frameBlend="FALSE" id="clipitem-1367">
                <name>Scene - Puppet man_0003.644.png</name>
                <masterclipid>masterclip-646</masterclipid>
                <rate>
                  <timebase>24</timebase>
                  <ntsc>FALSE</ntsc>
                </rate>
                <duration>1</duration>
                <enabled>TRUE</enabled>
                <alphatype>straight</alphatype>
                <rate>
                  <timebase>24</timebase>
                  <ntsc>FALSE</ntsc>
                </rate>
                <enabled>TRUE</enabled>
                <start>644</start>
                <end>645</end>
                <file id="file-646"/>
              </clipitem>
              <clipitem frameBlend="FALSE" id="clipitem-1368">
                <name>Scene - Puppet man_0003.645.png</name>
                <masterclipid>masterclip-647</masterclipid>
                <rate>
                  <timebase>24</timebase>
                  <ntsc>FALSE</ntsc>
                </rate>
                <duration>1</duration>
                <enabled>TRUE</enabled>
                <alphatype>straight</alphatype>
                <rate>
                  <timebase>24</timebase>
                  <ntsc>FALSE</ntsc>
                </rate>
                <enabled>TRUE</enabled>
                <start>645</start>
                <end>646</end>
                <file id="file-647"/>
              </clipitem>
              <clipitem frameBlend="FALSE" id="clipitem-1369">
                <name>Scene - Puppet man_0003.646.png</name>
                <masterclipid>masterclip-648</masterclipid>
                <rate>
                  <timebase>24</timebase>
                  <ntsc>FALSE</ntsc>
                </rate>
                <duration>1</duration>
                <enabled>TRUE</enabled>
                <alphatype>straight</alphatype>
                <rate>
                  <timebase>24</timebase>
                  <ntsc>FALSE</ntsc>
                </rate>
                <enabled>TRUE</enabled>
                <start>646</start>
                <end>647</end>
                <file id="file-648"/>
              </clipitem>
              <clipitem frameBlend="FALSE" id="clipitem-1370">
                <name>Scene - Puppet man_0003.647.png</name>
                <masterclipid>masterclip-649</masterclipid>
                <rate>
                  <timebase>24</timebase>
                  <ntsc>FALSE</ntsc>
                </rate>
                <duration>1</duration>
                <enabled>TRUE</enabled>
                <alphatype>straight</alphatype>
                <rate>
                  <timebase>24</timebase>
                  <ntsc>FALSE</ntsc>
                </rate>
                <enabled>TRUE</enabled>
                <start>647</start>
                <end>648</end>
                <file id="file-649"/>
              </clipitem>
              <clipitem frameBlend="FALSE" id="clipitem-1371">
                <name>Scene - Puppet man_0003.648.png</name>
                <masterclipid>masterclip-650</masterclipid>
                <rate>
                  <timebase>24</timebase>
                  <ntsc>FALSE</ntsc>
                </rate>
                <duration>1</duration>
                <enabled>TRUE</enabled>
                <alphatype>straight</alphatype>
                <rate>
                  <timebase>24</timebase>
                  <ntsc>FALSE</ntsc>
                </rate>
                <enabled>TRUE</enabled>
                <start>648</start>
                <end>649</end>
                <file id="file-650"/>
              </clipitem>
              <clipitem frameBlend="FALSE" id="clipitem-1372">
                <name>Scene - Puppet man_0003.649.png</name>
                <masterclipid>masterclip-651</masterclipid>
                <rate>
                  <timebase>24</timebase>
                  <ntsc>FALSE</ntsc>
                </rate>
                <duration>1</duration>
                <enabled>TRUE</enabled>
                <alphatype>straight</alphatype>
                <rate>
                  <timebase>24</timebase>
                  <ntsc>FALSE</ntsc>
                </rate>
                <enabled>TRUE</enabled>
                <start>649</start>
                <end>650</end>
                <file id="file-651"/>
              </clipitem>
              <clipitem frameBlend="FALSE" id="clipitem-1373">
                <name>Scene - Puppet man_0003.650.png</name>
                <masterclipid>masterclip-652</masterclipid>
                <rate>
                  <timebase>24</timebase>
                  <ntsc>FALSE</ntsc>
                </rate>
                <duration>1</duration>
                <enabled>TRUE</enabled>
                <alphatype>straight</alphatype>
                <rate>
                  <timebase>24</timebase>
                  <ntsc>FALSE</ntsc>
                </rate>
                <enabled>TRUE</enabled>
                <start>650</start>
                <end>651</end>
                <file id="file-652"/>
              </clipitem>
              <clipitem frameBlend="FALSE" id="clipitem-1374">
                <name>Scene - Puppet man_0003.651.png</name>
                <masterclipid>masterclip-653</masterclipid>
                <rate>
                  <timebase>24</timebase>
                  <ntsc>FALSE</ntsc>
                </rate>
                <duration>1</duration>
                <enabled>TRUE</enabled>
                <alphatype>straight</alphatype>
                <rate>
                  <timebase>24</timebase>
                  <ntsc>FALSE</ntsc>
                </rate>
                <enabled>TRUE</enabled>
                <start>651</start>
                <end>652</end>
                <file id="file-653"/>
              </clipitem>
              <clipitem frameBlend="FALSE" id="clipitem-1375">
                <name>Scene - Puppet man_0003.652.png</name>
                <masterclipid>masterclip-654</masterclipid>
                <rate>
                  <timebase>24</timebase>
                  <ntsc>FALSE</ntsc>
                </rate>
                <duration>1</duration>
                <enabled>TRUE</enabled>
                <alphatype>straight</alphatype>
                <rate>
                  <timebase>24</timebase>
                  <ntsc>FALSE</ntsc>
                </rate>
                <enabled>TRUE</enabled>
                <start>652</start>
                <end>653</end>
                <file id="file-654"/>
              </clipitem>
              <clipitem frameBlend="FALSE" id="clipitem-1376">
                <name>Scene - Puppet man_0003.653.png</name>
                <masterclipid>masterclip-655</masterclipid>
                <rate>
                  <timebase>24</timebase>
                  <ntsc>FALSE</ntsc>
                </rate>
                <duration>1</duration>
                <enabled>TRUE</enabled>
                <alphatype>straight</alphatype>
                <rate>
                  <timebase>24</timebase>
                  <ntsc>FALSE</ntsc>
                </rate>
                <enabled>TRUE</enabled>
                <start>653</start>
                <end>654</end>
                <file id="file-655"/>
              </clipitem>
              <clipitem frameBlend="FALSE" id="clipitem-1377">
                <name>Scene - Puppet man_0003.654.png</name>
                <masterclipid>masterclip-656</masterclipid>
                <rate>
                  <timebase>24</timebase>
                  <ntsc>FALSE</ntsc>
                </rate>
                <duration>1</duration>
                <enabled>TRUE</enabled>
                <alphatype>straight</alphatype>
                <rate>
                  <timebase>24</timebase>
                  <ntsc>FALSE</ntsc>
                </rate>
                <enabled>TRUE</enabled>
                <start>654</start>
                <end>655</end>
                <file id="file-656"/>
              </clipitem>
              <clipitem frameBlend="FALSE" id="clipitem-1378">
                <name>Scene - Puppet man_0003.655.png</name>
                <masterclipid>masterclip-657</masterclipid>
                <rate>
                  <timebase>24</timebase>
                  <ntsc>FALSE</ntsc>
                </rate>
                <duration>1</duration>
                <enabled>TRUE</enabled>
                <alphatype>straight</alphatype>
                <rate>
                  <timebase>24</timebase>
                  <ntsc>FALSE</ntsc>
                </rate>
                <enabled>TRUE</enabled>
                <start>655</start>
                <end>656</end>
                <file id="file-657"/>
              </clipitem>
              <clipitem frameBlend="FALSE" id="clipitem-1379">
                <name>Scene - Puppet man_0003.656.png</name>
                <masterclipid>masterclip-658</masterclipid>
                <rate>
                  <timebase>24</timebase>
                  <ntsc>FALSE</ntsc>
                </rate>
                <duration>1</duration>
                <enabled>TRUE</enabled>
                <alphatype>straight</alphatype>
                <rate>
                  <timebase>24</timebase>
                  <ntsc>FALSE</ntsc>
                </rate>
                <enabled>TRUE</enabled>
                <start>656</start>
                <end>657</end>
                <file id="file-658"/>
              </clipitem>
              <clipitem frameBlend="FALSE" id="clipitem-1380">
                <name>Scene - Puppet man_0003.657.png</name>
                <masterclipid>masterclip-659</masterclipid>
                <rate>
                  <timebase>24</timebase>
                  <ntsc>FALSE</ntsc>
                </rate>
                <duration>1</duration>
                <enabled>TRUE</enabled>
                <alphatype>straight</alphatype>
                <rate>
                  <timebase>24</timebase>
                  <ntsc>FALSE</ntsc>
                </rate>
                <enabled>TRUE</enabled>
                <start>657</start>
                <end>658</end>
                <file id="file-659"/>
              </clipitem>
              <clipitem frameBlend="FALSE" id="clipitem-1381">
                <name>Scene - Puppet man_0003.658.png</name>
                <masterclipid>masterclip-660</masterclipid>
                <rate>
                  <timebase>24</timebase>
                  <ntsc>FALSE</ntsc>
                </rate>
                <duration>1</duration>
                <enabled>TRUE</enabled>
                <alphatype>straight</alphatype>
                <rate>
                  <timebase>24</timebase>
                  <ntsc>FALSE</ntsc>
                </rate>
                <enabled>TRUE</enabled>
                <start>658</start>
                <end>659</end>
                <file id="file-660"/>
              </clipitem>
              <clipitem frameBlend="FALSE" id="clipitem-1382">
                <name>Scene - Puppet man_0003.659.png</name>
                <masterclipid>masterclip-661</masterclipid>
                <rate>
                  <timebase>24</timebase>
                  <ntsc>FALSE</ntsc>
                </rate>
                <duration>1</duration>
                <enabled>TRUE</enabled>
                <alphatype>straight</alphatype>
                <rate>
                  <timebase>24</timebase>
                  <ntsc>FALSE</ntsc>
                </rate>
                <enabled>TRUE</enabled>
                <start>659</start>
                <end>660</end>
                <file id="file-661"/>
              </clipitem>
              <clipitem frameBlend="FALSE" id="clipitem-1383">
                <name>Scene - Puppet man_0003.660.png</name>
                <masterclipid>masterclip-662</masterclipid>
                <rate>
                  <timebase>24</timebase>
                  <ntsc>FALSE</ntsc>
                </rate>
                <duration>1</duration>
                <enabled>TRUE</enabled>
                <alphatype>straight</alphatype>
                <rate>
                  <timebase>24</timebase>
                  <ntsc>FALSE</ntsc>
                </rate>
                <enabled>TRUE</enabled>
                <start>660</start>
                <end>661</end>
                <file id="file-662"/>
              </clipitem>
              <clipitem frameBlend="FALSE" id="clipitem-1384">
                <name>Scene - Puppet man_0003.661.png</name>
                <masterclipid>masterclip-663</masterclipid>
                <rate>
                  <timebase>24</timebase>
                  <ntsc>FALSE</ntsc>
                </rate>
                <duration>1</duration>
                <enabled>TRUE</enabled>
                <alphatype>straight</alphatype>
                <rate>
                  <timebase>24</timebase>
                  <ntsc>FALSE</ntsc>
                </rate>
                <enabled>TRUE</enabled>
                <start>661</start>
                <end>662</end>
                <file id="file-663"/>
              </clipitem>
              <clipitem frameBlend="FALSE" id="clipitem-1385">
                <name>Scene - Puppet man_0003.662.png</name>
                <masterclipid>masterclip-664</masterclipid>
                <rate>
                  <timebase>24</timebase>
                  <ntsc>FALSE</ntsc>
                </rate>
                <duration>1</duration>
                <enabled>TRUE</enabled>
                <alphatype>straight</alphatype>
                <rate>
                  <timebase>24</timebase>
                  <ntsc>FALSE</ntsc>
                </rate>
                <enabled>TRUE</enabled>
                <start>662</start>
                <end>663</end>
                <file id="file-664"/>
              </clipitem>
              <clipitem frameBlend="FALSE" id="clipitem-1386">
                <name>Scene - Puppet man_0003.663.png</name>
                <masterclipid>masterclip-665</masterclipid>
                <rate>
                  <timebase>24</timebase>
                  <ntsc>FALSE</ntsc>
                </rate>
                <duration>1</duration>
                <enabled>TRUE</enabled>
                <alphatype>straight</alphatype>
                <rate>
                  <timebase>24</timebase>
                  <ntsc>FALSE</ntsc>
                </rate>
                <enabled>TRUE</enabled>
                <start>663</start>
                <end>664</end>
                <file id="file-665"/>
              </clipitem>
              <clipitem frameBlend="FALSE" id="clipitem-1387">
                <name>Scene - Puppet man_0003.664.png</name>
                <masterclipid>masterclip-666</masterclipid>
                <rate>
                  <timebase>24</timebase>
                  <ntsc>FALSE</ntsc>
                </rate>
                <duration>1</duration>
                <enabled>TRUE</enabled>
                <alphatype>straight</alphatype>
                <rate>
                  <timebase>24</timebase>
                  <ntsc>FALSE</ntsc>
                </rate>
                <enabled>TRUE</enabled>
                <start>664</start>
                <end>665</end>
                <file id="file-666"/>
              </clipitem>
              <clipitem frameBlend="FALSE" id="clipitem-1388">
                <name>Scene - Puppet man_0003.665.png</name>
                <masterclipid>masterclip-667</masterclipid>
                <rate>
                  <timebase>24</timebase>
                  <ntsc>FALSE</ntsc>
                </rate>
                <duration>1</duration>
                <enabled>TRUE</enabled>
                <alphatype>straight</alphatype>
                <rate>
                  <timebase>24</timebase>
                  <ntsc>FALSE</ntsc>
                </rate>
                <enabled>TRUE</enabled>
                <start>665</start>
                <end>666</end>
                <file id="file-667"/>
              </clipitem>
              <clipitem frameBlend="FALSE" id="clipitem-1389">
                <name>Scene - Puppet man_0003.666.png</name>
                <masterclipid>masterclip-668</masterclipid>
                <rate>
                  <timebase>24</timebase>
                  <ntsc>FALSE</ntsc>
                </rate>
                <duration>1</duration>
                <enabled>TRUE</enabled>
                <alphatype>straight</alphatype>
                <rate>
                  <timebase>24</timebase>
                  <ntsc>FALSE</ntsc>
                </rate>
                <enabled>TRUE</enabled>
                <start>666</start>
                <end>667</end>
                <file id="file-668"/>
              </clipitem>
              <clipitem frameBlend="FALSE" id="clipitem-1390">
                <name>Scene - Puppet man_0003.667.png</name>
                <masterclipid>masterclip-669</masterclipid>
                <rate>
                  <timebase>24</timebase>
                  <ntsc>FALSE</ntsc>
                </rate>
                <duration>1</duration>
                <enabled>TRUE</enabled>
                <alphatype>straight</alphatype>
                <rate>
                  <timebase>24</timebase>
                  <ntsc>FALSE</ntsc>
                </rate>
                <enabled>TRUE</enabled>
                <start>667</start>
                <end>668</end>
                <file id="file-669"/>
              </clipitem>
              <clipitem frameBlend="FALSE" id="clipitem-1391">
                <name>Scene - Puppet man_0003.668.png</name>
                <masterclipid>masterclip-670</masterclipid>
                <rate>
                  <timebase>24</timebase>
                  <ntsc>FALSE</ntsc>
                </rate>
                <duration>1</duration>
                <enabled>TRUE</enabled>
                <alphatype>straight</alphatype>
                <rate>
                  <timebase>24</timebase>
                  <ntsc>FALSE</ntsc>
                </rate>
                <enabled>TRUE</enabled>
                <start>668</start>
                <end>669</end>
                <file id="file-670"/>
              </clipitem>
              <clipitem frameBlend="FALSE" id="clipitem-1392">
                <name>Scene - Puppet man_0003.669.png</name>
                <masterclipid>masterclip-671</masterclipid>
                <rate>
                  <timebase>24</timebase>
                  <ntsc>FALSE</ntsc>
                </rate>
                <duration>1</duration>
                <enabled>TRUE</enabled>
                <alphatype>straight</alphatype>
                <rate>
                  <timebase>24</timebase>
                  <ntsc>FALSE</ntsc>
                </rate>
                <enabled>TRUE</enabled>
                <start>669</start>
                <end>670</end>
                <file id="file-671"/>
              </clipitem>
              <clipitem frameBlend="FALSE" id="clipitem-1393">
                <name>Scene - Puppet man_0003.670.png</name>
                <masterclipid>masterclip-672</masterclipid>
                <rate>
                  <timebase>24</timebase>
                  <ntsc>FALSE</ntsc>
                </rate>
                <duration>1</duration>
                <enabled>TRUE</enabled>
                <alphatype>straight</alphatype>
                <rate>
                  <timebase>24</timebase>
                  <ntsc>FALSE</ntsc>
                </rate>
                <enabled>TRUE</enabled>
                <start>670</start>
                <end>671</end>
                <file id="file-672"/>
              </clipitem>
              <clipitem frameBlend="FALSE" id="clipitem-1394">
                <name>Scene - Puppet man_0003.671.png</name>
                <masterclipid>masterclip-673</masterclipid>
                <rate>
                  <timebase>24</timebase>
                  <ntsc>FALSE</ntsc>
                </rate>
                <duration>1</duration>
                <enabled>TRUE</enabled>
                <alphatype>straight</alphatype>
                <rate>
                  <timebase>24</timebase>
                  <ntsc>FALSE</ntsc>
                </rate>
                <enabled>TRUE</enabled>
                <start>671</start>
                <end>672</end>
                <file id="file-673"/>
              </clipitem>
              <clipitem frameBlend="FALSE" id="clipitem-1395">
                <name>Scene - Puppet man_0003.672.png</name>
                <masterclipid>masterclip-674</masterclipid>
                <rate>
                  <timebase>24</timebase>
                  <ntsc>FALSE</ntsc>
                </rate>
                <duration>1</duration>
                <enabled>TRUE</enabled>
                <alphatype>straight</alphatype>
                <rate>
                  <timebase>24</timebase>
                  <ntsc>FALSE</ntsc>
                </rate>
                <enabled>TRUE</enabled>
                <start>672</start>
                <end>673</end>
                <file id="file-674"/>
              </clipitem>
              <clipitem frameBlend="FALSE" id="clipitem-1396">
                <name>Scene - Puppet man_0003.673.png</name>
                <masterclipid>masterclip-675</masterclipid>
                <rate>
                  <timebase>24</timebase>
                  <ntsc>FALSE</ntsc>
                </rate>
                <duration>1</duration>
                <enabled>TRUE</enabled>
                <alphatype>straight</alphatype>
                <rate>
                  <timebase>24</timebase>
                  <ntsc>FALSE</ntsc>
                </rate>
                <enabled>TRUE</enabled>
                <start>673</start>
                <end>674</end>
                <file id="file-675"/>
              </clipitem>
              <clipitem frameBlend="FALSE" id="clipitem-1397">
                <name>Scene - Puppet man_0003.674.png</name>
                <masterclipid>masterclip-676</masterclipid>
                <rate>
                  <timebase>24</timebase>
                  <ntsc>FALSE</ntsc>
                </rate>
                <duration>1</duration>
                <enabled>TRUE</enabled>
                <alphatype>straight</alphatype>
                <rate>
                  <timebase>24</timebase>
                  <ntsc>FALSE</ntsc>
                </rate>
                <enabled>TRUE</enabled>
                <start>674</start>
                <end>675</end>
                <file id="file-676"/>
              </clipitem>
              <clipitem frameBlend="FALSE" id="clipitem-1398">
                <name>Scene - Puppet man_0003.675.png</name>
                <masterclipid>masterclip-677</masterclipid>
                <rate>
                  <timebase>24</timebase>
                  <ntsc>FALSE</ntsc>
                </rate>
                <duration>1</duration>
                <enabled>TRUE</enabled>
                <alphatype>straight</alphatype>
                <rate>
                  <timebase>24</timebase>
                  <ntsc>FALSE</ntsc>
                </rate>
                <enabled>TRUE</enabled>
                <start>675</start>
                <end>676</end>
                <file id="file-677"/>
              </clipitem>
              <clipitem frameBlend="FALSE" id="clipitem-1399">
                <name>Scene - Puppet man_0003.676.png</name>
                <masterclipid>masterclip-678</masterclipid>
                <rate>
                  <timebase>24</timebase>
                  <ntsc>FALSE</ntsc>
                </rate>
                <duration>1</duration>
                <enabled>TRUE</enabled>
                <alphatype>straight</alphatype>
                <rate>
                  <timebase>24</timebase>
                  <ntsc>FALSE</ntsc>
                </rate>
                <enabled>TRUE</enabled>
                <start>676</start>
                <end>677</end>
                <file id="file-678"/>
              </clipitem>
              <clipitem frameBlend="FALSE" id="clipitem-1400">
                <name>Scene - Puppet man_0003.677.png</name>
                <masterclipid>masterclip-679</masterclipid>
                <rate>
                  <timebase>24</timebase>
                  <ntsc>FALSE</ntsc>
                </rate>
                <duration>1</duration>
                <enabled>TRUE</enabled>
                <alphatype>straight</alphatype>
                <rate>
                  <timebase>24</timebase>
                  <ntsc>FALSE</ntsc>
                </rate>
                <enabled>TRUE</enabled>
                <start>677</start>
                <end>678</end>
                <file id="file-679"/>
              </clipitem>
              <clipitem frameBlend="FALSE" id="clipitem-1401">
                <name>Scene - Puppet man_0003.678.png</name>
                <masterclipid>masterclip-680</masterclipid>
                <rate>
                  <timebase>24</timebase>
                  <ntsc>FALSE</ntsc>
                </rate>
                <duration>1</duration>
                <enabled>TRUE</enabled>
                <alphatype>straight</alphatype>
                <rate>
                  <timebase>24</timebase>
                  <ntsc>FALSE</ntsc>
                </rate>
                <enabled>TRUE</enabled>
                <start>678</start>
                <end>679</end>
                <file id="file-680"/>
              </clipitem>
              <clipitem frameBlend="FALSE" id="clipitem-1402">
                <name>Scene - Puppet man_0003.679.png</name>
                <masterclipid>masterclip-681</masterclipid>
                <rate>
                  <timebase>24</timebase>
                  <ntsc>FALSE</ntsc>
                </rate>
                <duration>1</duration>
                <enabled>TRUE</enabled>
                <alphatype>straight</alphatype>
                <rate>
                  <timebase>24</timebase>
                  <ntsc>FALSE</ntsc>
                </rate>
                <enabled>TRUE</enabled>
                <start>679</start>
                <end>680</end>
                <file id="file-681"/>
              </clipitem>
              <clipitem frameBlend="FALSE" id="clipitem-1403">
                <name>Scene - Puppet man_0003.680.png</name>
                <masterclipid>masterclip-682</masterclipid>
                <rate>
                  <timebase>24</timebase>
                  <ntsc>FALSE</ntsc>
                </rate>
                <duration>1</duration>
                <enabled>TRUE</enabled>
                <alphatype>straight</alphatype>
                <rate>
                  <timebase>24</timebase>
                  <ntsc>FALSE</ntsc>
                </rate>
                <enabled>TRUE</enabled>
                <start>680</start>
                <end>681</end>
                <file id="file-682"/>
              </clipitem>
              <clipitem frameBlend="FALSE" id="clipitem-1404">
                <name>Scene - Puppet man_0003.681.png</name>
                <masterclipid>masterclip-683</masterclipid>
                <rate>
                  <timebase>24</timebase>
                  <ntsc>FALSE</ntsc>
                </rate>
                <duration>1</duration>
                <enabled>TRUE</enabled>
                <alphatype>straight</alphatype>
                <rate>
                  <timebase>24</timebase>
                  <ntsc>FALSE</ntsc>
                </rate>
                <enabled>TRUE</enabled>
                <start>681</start>
                <end>682</end>
                <file id="file-683"/>
              </clipitem>
              <clipitem frameBlend="FALSE" id="clipitem-1405">
                <name>Scene - Puppet man_0003.682.png</name>
                <masterclipid>masterclip-684</masterclipid>
                <rate>
                  <timebase>24</timebase>
                  <ntsc>FALSE</ntsc>
                </rate>
                <duration>1</duration>
                <enabled>TRUE</enabled>
                <alphatype>straight</alphatype>
                <rate>
                  <timebase>24</timebase>
                  <ntsc>FALSE</ntsc>
                </rate>
                <enabled>TRUE</enabled>
                <start>682</start>
                <end>683</end>
                <file id="file-684"/>
              </clipitem>
              <clipitem frameBlend="FALSE" id="clipitem-1406">
                <name>Scene - Puppet man_0003.683.png</name>
                <masterclipid>masterclip-685</masterclipid>
                <rate>
                  <timebase>24</timebase>
                  <ntsc>FALSE</ntsc>
                </rate>
                <duration>1</duration>
                <enabled>TRUE</enabled>
                <alphatype>straight</alphatype>
                <rate>
                  <timebase>24</timebase>
                  <ntsc>FALSE</ntsc>
                </rate>
                <enabled>TRUE</enabled>
                <start>683</start>
                <end>684</end>
                <file id="file-685"/>
              </clipitem>
              <clipitem frameBlend="FALSE" id="clipitem-1407">
                <name>Scene - Puppet man_0003.684.png</name>
                <masterclipid>masterclip-686</masterclipid>
                <rate>
                  <timebase>24</timebase>
                  <ntsc>FALSE</ntsc>
                </rate>
                <duration>1</duration>
                <enabled>TRUE</enabled>
                <alphatype>straight</alphatype>
                <rate>
                  <timebase>24</timebase>
                  <ntsc>FALSE</ntsc>
                </rate>
                <enabled>TRUE</enabled>
                <start>684</start>
                <end>685</end>
                <file id="file-686"/>
              </clipitem>
              <clipitem frameBlend="FALSE" id="clipitem-1408">
                <name>Scene - Puppet man_0003.685.png</name>
                <masterclipid>masterclip-687</masterclipid>
                <rate>
                  <timebase>24</timebase>
                  <ntsc>FALSE</ntsc>
                </rate>
                <duration>1</duration>
                <enabled>TRUE</enabled>
                <alphatype>straight</alphatype>
                <rate>
                  <timebase>24</timebase>
                  <ntsc>FALSE</ntsc>
                </rate>
                <enabled>TRUE</enabled>
                <start>685</start>
                <end>686</end>
                <file id="file-687"/>
              </clipitem>
              <clipitem frameBlend="FALSE" id="clipitem-1409">
                <name>Scene - Puppet man_0003.686.png</name>
                <masterclipid>masterclip-688</masterclipid>
                <rate>
                  <timebase>24</timebase>
                  <ntsc>FALSE</ntsc>
                </rate>
                <duration>1</duration>
                <enabled>TRUE</enabled>
                <alphatype>straight</alphatype>
                <rate>
                  <timebase>24</timebase>
                  <ntsc>FALSE</ntsc>
                </rate>
                <enabled>TRUE</enabled>
                <start>686</start>
                <end>687</end>
                <file id="file-688"/>
              </clipitem>
              <clipitem frameBlend="FALSE" id="clipitem-1410">
                <name>Scene - Puppet man_0003.687.png</name>
                <masterclipid>masterclip-689</masterclipid>
                <rate>
                  <timebase>24</timebase>
                  <ntsc>FALSE</ntsc>
                </rate>
                <duration>1</duration>
                <enabled>TRUE</enabled>
                <alphatype>straight</alphatype>
                <rate>
                  <timebase>24</timebase>
                  <ntsc>FALSE</ntsc>
                </rate>
                <enabled>TRUE</enabled>
                <start>687</start>
                <end>688</end>
                <file id="file-689"/>
              </clipitem>
              <clipitem frameBlend="FALSE" id="clipitem-1411">
                <name>Scene - Puppet man_0003.688.png</name>
                <masterclipid>masterclip-690</masterclipid>
                <rate>
                  <timebase>24</timebase>
                  <ntsc>FALSE</ntsc>
                </rate>
                <duration>1</duration>
                <enabled>TRUE</enabled>
                <alphatype>straight</alphatype>
                <rate>
                  <timebase>24</timebase>
                  <ntsc>FALSE</ntsc>
                </rate>
                <enabled>TRUE</enabled>
                <start>688</start>
                <end>689</end>
                <file id="file-690"/>
              </clipitem>
              <clipitem frameBlend="FALSE" id="clipitem-1412">
                <name>Scene - Puppet man_0003.689.png</name>
                <masterclipid>masterclip-691</masterclipid>
                <rate>
                  <timebase>24</timebase>
                  <ntsc>FALSE</ntsc>
                </rate>
                <duration>1</duration>
                <enabled>TRUE</enabled>
                <alphatype>straight</alphatype>
                <rate>
                  <timebase>24</timebase>
                  <ntsc>FALSE</ntsc>
                </rate>
                <enabled>TRUE</enabled>
                <start>689</start>
                <end>690</end>
                <file id="file-691"/>
              </clipitem>
              <clipitem frameBlend="FALSE" id="clipitem-1413">
                <name>Scene - Puppet man_0003.690.png</name>
                <masterclipid>masterclip-692</masterclipid>
                <rate>
                  <timebase>24</timebase>
                  <ntsc>FALSE</ntsc>
                </rate>
                <duration>1</duration>
                <enabled>TRUE</enabled>
                <alphatype>straight</alphatype>
                <rate>
                  <timebase>24</timebase>
                  <ntsc>FALSE</ntsc>
                </rate>
                <enabled>TRUE</enabled>
                <start>690</start>
                <end>691</end>
                <file id="file-692"/>
              </clipitem>
              <clipitem frameBlend="FALSE" id="clipitem-1414">
                <name>Scene - Puppet man_0003.691.png</name>
                <masterclipid>masterclip-693</masterclipid>
                <rate>
                  <timebase>24</timebase>
                  <ntsc>FALSE</ntsc>
                </rate>
                <duration>1</duration>
                <enabled>TRUE</enabled>
                <alphatype>straight</alphatype>
                <rate>
                  <timebase>24</timebase>
                  <ntsc>FALSE</ntsc>
                </rate>
                <enabled>TRUE</enabled>
                <start>691</start>
                <end>692</end>
                <file id="file-693"/>
              </clipitem>
              <clipitem frameBlend="FALSE" id="clipitem-1415">
                <name>Scene - Puppet man_0003.692.png</name>
                <masterclipid>masterclip-694</masterclipid>
                <rate>
                  <timebase>24</timebase>
                  <ntsc>FALSE</ntsc>
                </rate>
                <duration>1</duration>
                <enabled>TRUE</enabled>
                <alphatype>straight</alphatype>
                <rate>
                  <timebase>24</timebase>
                  <ntsc>FALSE</ntsc>
                </rate>
                <enabled>TRUE</enabled>
                <start>692</start>
                <end>693</end>
                <file id="file-694"/>
              </clipitem>
              <clipitem frameBlend="FALSE" id="clipitem-1416">
                <name>Scene - Puppet man_0003.693.png</name>
                <masterclipid>masterclip-695</masterclipid>
                <rate>
                  <timebase>24</timebase>
                  <ntsc>FALSE</ntsc>
                </rate>
                <duration>1</duration>
                <enabled>TRUE</enabled>
                <alphatype>straight</alphatype>
                <rate>
                  <timebase>24</timebase>
                  <ntsc>FALSE</ntsc>
                </rate>
                <enabled>TRUE</enabled>
                <start>693</start>
                <end>694</end>
                <file id="file-695"/>
              </clipitem>
              <clipitem frameBlend="FALSE" id="clipitem-1417">
                <name>Scene - Puppet man_0003.694.png</name>
                <masterclipid>masterclip-696</masterclipid>
                <rate>
                  <timebase>24</timebase>
                  <ntsc>FALSE</ntsc>
                </rate>
                <duration>1</duration>
                <enabled>TRUE</enabled>
                <alphatype>straight</alphatype>
                <rate>
                  <timebase>24</timebase>
                  <ntsc>FALSE</ntsc>
                </rate>
                <enabled>TRUE</enabled>
                <start>694</start>
                <end>695</end>
                <file id="file-696"/>
              </clipitem>
              <clipitem frameBlend="FALSE" id="clipitem-1418">
                <name>Scene - Puppet man_0003.695.png</name>
                <masterclipid>masterclip-697</masterclipid>
                <rate>
                  <timebase>24</timebase>
                  <ntsc>FALSE</ntsc>
                </rate>
                <duration>1</duration>
                <enabled>TRUE</enabled>
                <alphatype>straight</alphatype>
                <rate>
                  <timebase>24</timebase>
                  <ntsc>FALSE</ntsc>
                </rate>
                <enabled>TRUE</enabled>
                <start>695</start>
                <end>696</end>
                <file id="file-697"/>
              </clipitem>
              <clipitem frameBlend="FALSE" id="clipitem-1419">
                <name>Scene - Puppet man_0003.696.png</name>
                <masterclipid>masterclip-698</masterclipid>
                <rate>
                  <timebase>24</timebase>
                  <ntsc>FALSE</ntsc>
                </rate>
                <duration>1</duration>
                <enabled>TRUE</enabled>
                <alphatype>straight</alphatype>
                <rate>
                  <timebase>24</timebase>
                  <ntsc>FALSE</ntsc>
                </rate>
                <enabled>TRUE</enabled>
                <start>696</start>
                <end>697</end>
                <file id="file-698"/>
              </clipitem>
              <clipitem frameBlend="FALSE" id="clipitem-1420">
                <name>Scene - Puppet man_0003.697.png</name>
                <masterclipid>masterclip-699</masterclipid>
                <rate>
                  <timebase>24</timebase>
                  <ntsc>FALSE</ntsc>
                </rate>
                <duration>1</duration>
                <enabled>TRUE</enabled>
                <alphatype>straight</alphatype>
                <rate>
                  <timebase>24</timebase>
                  <ntsc>FALSE</ntsc>
                </rate>
                <enabled>TRUE</enabled>
                <start>697</start>
                <end>698</end>
                <file id="file-699"/>
              </clipitem>
              <clipitem frameBlend="FALSE" id="clipitem-1421">
                <name>Scene - Puppet man_0003.698.png</name>
                <masterclipid>masterclip-700</masterclipid>
                <rate>
                  <timebase>24</timebase>
                  <ntsc>FALSE</ntsc>
                </rate>
                <duration>1</duration>
                <enabled>TRUE</enabled>
                <alphatype>straight</alphatype>
                <rate>
                  <timebase>24</timebase>
                  <ntsc>FALSE</ntsc>
                </rate>
                <enabled>TRUE</enabled>
                <start>698</start>
                <end>699</end>
                <file id="file-700"/>
              </clipitem>
              <clipitem frameBlend="FALSE" id="clipitem-1422">
                <name>Scene - Puppet man_0003.699.png</name>
                <masterclipid>masterclip-701</masterclipid>
                <rate>
                  <timebase>24</timebase>
                  <ntsc>FALSE</ntsc>
                </rate>
                <duration>1</duration>
                <enabled>TRUE</enabled>
                <alphatype>straight</alphatype>
                <rate>
                  <timebase>24</timebase>
                  <ntsc>FALSE</ntsc>
                </rate>
                <enabled>TRUE</enabled>
                <start>699</start>
                <end>700</end>
                <file id="file-701"/>
              </clipitem>
              <clipitem frameBlend="FALSE" id="clipitem-1423">
                <name>Scene - Puppet man_0003.700.png</name>
                <masterclipid>masterclip-702</masterclipid>
                <rate>
                  <timebase>24</timebase>
                  <ntsc>FALSE</ntsc>
                </rate>
                <duration>1</duration>
                <enabled>TRUE</enabled>
                <alphatype>straight</alphatype>
                <rate>
                  <timebase>24</timebase>
                  <ntsc>FALSE</ntsc>
                </rate>
                <enabled>TRUE</enabled>
                <start>700</start>
                <end>701</end>
                <file id="file-702"/>
              </clipitem>
              <clipitem frameBlend="FALSE" id="clipitem-1424">
                <name>Scene - Puppet man_0003.701.png</name>
                <masterclipid>masterclip-703</masterclipid>
                <rate>
                  <timebase>24</timebase>
                  <ntsc>FALSE</ntsc>
                </rate>
                <duration>1</duration>
                <enabled>TRUE</enabled>
                <alphatype>straight</alphatype>
                <rate>
                  <timebase>24</timebase>
                  <ntsc>FALSE</ntsc>
                </rate>
                <enabled>TRUE</enabled>
                <start>701</start>
                <end>702</end>
                <file id="file-703"/>
              </clipitem>
              <clipitem frameBlend="FALSE" id="clipitem-1425">
                <name>Scene - Puppet man_0003.702.png</name>
                <masterclipid>masterclip-704</masterclipid>
                <rate>
                  <timebase>24</timebase>
                  <ntsc>FALSE</ntsc>
                </rate>
                <duration>1</duration>
                <enabled>TRUE</enabled>
                <alphatype>straight</alphatype>
                <rate>
                  <timebase>24</timebase>
                  <ntsc>FALSE</ntsc>
                </rate>
                <enabled>TRUE</enabled>
                <start>702</start>
                <end>703</end>
                <file id="file-704"/>
              </clipitem>
              <clipitem frameBlend="FALSE" id="clipitem-1426">
                <name>Scene - Puppet man_0003.703.png</name>
                <masterclipid>masterclip-705</masterclipid>
                <rate>
                  <timebase>24</timebase>
                  <ntsc>FALSE</ntsc>
                </rate>
                <duration>1</duration>
                <enabled>TRUE</enabled>
                <alphatype>straight</alphatype>
                <rate>
                  <timebase>24</timebase>
                  <ntsc>FALSE</ntsc>
                </rate>
                <enabled>TRUE</enabled>
                <start>703</start>
                <end>704</end>
                <file id="file-705"/>
              </clipitem>
              <clipitem frameBlend="FALSE" id="clipitem-1427">
                <name>Scene - Puppet man_0003.704.png</name>
                <masterclipid>masterclip-706</masterclipid>
                <rate>
                  <timebase>24</timebase>
                  <ntsc>FALSE</ntsc>
                </rate>
                <duration>1</duration>
                <enabled>TRUE</enabled>
                <alphatype>straight</alphatype>
                <rate>
                  <timebase>24</timebase>
                  <ntsc>FALSE</ntsc>
                </rate>
                <enabled>TRUE</enabled>
                <start>704</start>
                <end>705</end>
                <file id="file-706"/>
              </clipitem>
              <clipitem frameBlend="FALSE" id="clipitem-1428">
                <name>Scene - Puppet man_0003.705.png</name>
                <masterclipid>masterclip-707</masterclipid>
                <rate>
                  <timebase>24</timebase>
                  <ntsc>FALSE</ntsc>
                </rate>
                <duration>1</duration>
                <enabled>TRUE</enabled>
                <alphatype>straight</alphatype>
                <rate>
                  <timebase>24</timebase>
                  <ntsc>FALSE</ntsc>
                </rate>
                <enabled>TRUE</enabled>
                <start>705</start>
                <end>706</end>
                <file id="file-707"/>
              </clipitem>
              <clipitem frameBlend="FALSE" id="clipitem-1429">
                <name>Scene - Puppet man_0003.706.png</name>
                <masterclipid>masterclip-708</masterclipid>
                <rate>
                  <timebase>24</timebase>
                  <ntsc>FALSE</ntsc>
                </rate>
                <duration>1</duration>
                <enabled>TRUE</enabled>
                <alphatype>straight</alphatype>
                <rate>
                  <timebase>24</timebase>
                  <ntsc>FALSE</ntsc>
                </rate>
                <enabled>TRUE</enabled>
                <start>706</start>
                <end>707</end>
                <file id="file-708"/>
              </clipitem>
              <clipitem frameBlend="FALSE" id="clipitem-1430">
                <name>Scene - Puppet man_0003.707.png</name>
                <masterclipid>masterclip-709</masterclipid>
                <rate>
                  <timebase>24</timebase>
                  <ntsc>FALSE</ntsc>
                </rate>
                <duration>1</duration>
                <enabled>TRUE</enabled>
                <alphatype>straight</alphatype>
                <rate>
                  <timebase>24</timebase>
                  <ntsc>FALSE</ntsc>
                </rate>
                <enabled>TRUE</enabled>
                <start>707</start>
                <end>708</end>
                <file id="file-709"/>
              </clipitem>
              <clipitem frameBlend="FALSE" id="clipitem-1431">
                <name>Scene - Puppet man_0003.708.png</name>
                <masterclipid>masterclip-710</masterclipid>
                <rate>
                  <timebase>24</timebase>
                  <ntsc>FALSE</ntsc>
                </rate>
                <duration>1</duration>
                <enabled>TRUE</enabled>
                <alphatype>straight</alphatype>
                <rate>
                  <timebase>24</timebase>
                  <ntsc>FALSE</ntsc>
                </rate>
                <enabled>TRUE</enabled>
                <start>708</start>
                <end>709</end>
                <file id="file-710"/>
              </clipitem>
              <clipitem frameBlend="FALSE" id="clipitem-1432">
                <name>Scene - Puppet man_0003.709.png</name>
                <masterclipid>masterclip-711</masterclipid>
                <rate>
                  <timebase>24</timebase>
                  <ntsc>FALSE</ntsc>
                </rate>
                <duration>1</duration>
                <enabled>TRUE</enabled>
                <alphatype>straight</alphatype>
                <rate>
                  <timebase>24</timebase>
                  <ntsc>FALSE</ntsc>
                </rate>
                <enabled>TRUE</enabled>
                <start>709</start>
                <end>710</end>
                <file id="file-711"/>
              </clipitem>
              <clipitem frameBlend="FALSE" id="clipitem-1433">
                <name>Scene - Puppet man_0003.710.png</name>
                <masterclipid>masterclip-712</masterclipid>
                <rate>
                  <timebase>24</timebase>
                  <ntsc>FALSE</ntsc>
                </rate>
                <duration>1</duration>
                <enabled>TRUE</enabled>
                <alphatype>straight</alphatype>
                <rate>
                  <timebase>24</timebase>
                  <ntsc>FALSE</ntsc>
                </rate>
                <enabled>TRUE</enabled>
                <start>710</start>
                <end>711</end>
                <file id="file-712"/>
              </clipitem>
              <clipitem frameBlend="FALSE" id="clipitem-1434">
                <name>Scene - Puppet man_0003.711.png</name>
                <masterclipid>masterclip-713</masterclipid>
                <rate>
                  <timebase>24</timebase>
                  <ntsc>FALSE</ntsc>
                </rate>
                <duration>1</duration>
                <enabled>TRUE</enabled>
                <alphatype>straight</alphatype>
                <rate>
                  <timebase>24</timebase>
                  <ntsc>FALSE</ntsc>
                </rate>
                <enabled>TRUE</enabled>
                <start>711</start>
                <end>712</end>
                <file id="file-713"/>
              </clipitem>
              <clipitem frameBlend="FALSE" id="clipitem-1435">
                <name>Scene - Puppet man_0003.712.png</name>
                <masterclipid>masterclip-714</masterclipid>
                <rate>
                  <timebase>24</timebase>
                  <ntsc>FALSE</ntsc>
                </rate>
                <duration>1</duration>
                <enabled>TRUE</enabled>
                <alphatype>straight</alphatype>
                <rate>
                  <timebase>24</timebase>
                  <ntsc>FALSE</ntsc>
                </rate>
                <enabled>TRUE</enabled>
                <start>712</start>
                <end>713</end>
                <file id="file-714"/>
              </clipitem>
              <clipitem frameBlend="FALSE" id="clipitem-1436">
                <name>Scene - Puppet man_0003.713.png</name>
                <masterclipid>masterclip-715</masterclipid>
                <rate>
                  <timebase>24</timebase>
                  <ntsc>FALSE</ntsc>
                </rate>
                <duration>1</duration>
                <enabled>TRUE</enabled>
                <alphatype>straight</alphatype>
                <rate>
                  <timebase>24</timebase>
                  <ntsc>FALSE</ntsc>
                </rate>
                <enabled>TRUE</enabled>
                <start>713</start>
                <end>714</end>
                <file id="file-715"/>
              </clipitem>
              <clipitem frameBlend="FALSE" id="clipitem-1437">
                <name>Scene - Puppet man_0003.714.png</name>
                <masterclipid>masterclip-716</masterclipid>
                <rate>
                  <timebase>24</timebase>
                  <ntsc>FALSE</ntsc>
                </rate>
                <duration>1</duration>
                <enabled>TRUE</enabled>
                <alphatype>straight</alphatype>
                <rate>
                  <timebase>24</timebase>
                  <ntsc>FALSE</ntsc>
                </rate>
                <enabled>TRUE</enabled>
                <start>714</start>
                <end>715</end>
                <file id="file-716"/>
              </clipitem>
              <clipitem frameBlend="FALSE" id="clipitem-1438">
                <name>Scene - Puppet man_0003.715.png</name>
                <masterclipid>masterclip-717</masterclipid>
                <rate>
                  <timebase>24</timebase>
                  <ntsc>FALSE</ntsc>
                </rate>
                <duration>1</duration>
                <enabled>TRUE</enabled>
                <alphatype>straight</alphatype>
                <rate>
                  <timebase>24</timebase>
                  <ntsc>FALSE</ntsc>
                </rate>
                <enabled>TRUE</enabled>
                <start>715</start>
                <end>716</end>
                <file id="file-717"/>
              </clipitem>
              <clipitem frameBlend="FALSE" id="clipitem-1439">
                <name>Scene - Puppet man_0003.716.png</name>
                <masterclipid>masterclip-718</masterclipid>
                <rate>
                  <timebase>24</timebase>
                  <ntsc>FALSE</ntsc>
                </rate>
                <duration>1</duration>
                <enabled>TRUE</enabled>
                <alphatype>straight</alphatype>
                <rate>
                  <timebase>24</timebase>
                  <ntsc>FALSE</ntsc>
                </rate>
                <enabled>TRUE</enabled>
                <start>716</start>
                <end>717</end>
                <file id="file-718"/>
              </clipitem>
              <clipitem frameBlend="FALSE" id="clipitem-1440">
                <name>Scene - Puppet man_0003.717.png</name>
                <masterclipid>masterclip-719</masterclipid>
                <rate>
                  <timebase>24</timebase>
                  <ntsc>FALSE</ntsc>
                </rate>
                <duration>1</duration>
                <enabled>TRUE</enabled>
                <alphatype>straight</alphatype>
                <rate>
                  <timebase>24</timebase>
                  <ntsc>FALSE</ntsc>
                </rate>
                <enabled>TRUE</enabled>
                <start>717</start>
                <end>718</end>
                <file id="file-719"/>
              </clipitem>
              <clipitem frameBlend="FALSE" id="clipitem-1441">
                <name>Scene - Puppet man_0003.718.png</name>
                <masterclipid>masterclip-720</masterclipid>
                <rate>
                  <timebase>24</timebase>
                  <ntsc>FALSE</ntsc>
                </rate>
                <duration>1</duration>
                <enabled>TRUE</enabled>
                <alphatype>straight</alphatype>
                <rate>
                  <timebase>24</timebase>
                  <ntsc>FALSE</ntsc>
                </rate>
                <enabled>TRUE</enabled>
                <start>718</start>
                <end>719</end>
                <file id="file-720"/>
              </clipitem>
              <clipitem frameBlend="FALSE" id="clipitem-1442">
                <name>Scene - Puppet man_0003.719.png</name>
                <masterclipid>masterclip-721</masterclipid>
                <rate>
                  <timebase>24</timebase>
                  <ntsc>FALSE</ntsc>
                </rate>
                <duration>1</duration>
                <enabled>TRUE</enabled>
                <alphatype>straight</alphatype>
                <rate>
                  <timebase>24</timebase>
                  <ntsc>FALSE</ntsc>
                </rate>
                <enabled>TRUE</enabled>
                <start>719</start>
                <end>720</end>
                <file id="file-721"/>
              </clipitem>
            </track>
            <format>
              <samplecharacteristics>
                <anamorphic>FALSE</anamorphic>
                <pixelaspectratio>square</pixelaspectratio>
                <fielddominance>none</fielddominance>
                <width>1920</width>
                <height>1080</height>
                <rate>
                  <timebase>24</timebase>
                  <ntsc>FALSE</ntsc>
                </rate>
              </samplecharacteristics>
            </format>
          </video>
          <audio>
            <numOutputChannels>2</numOutputChannels>
            <track frameBlend="FALSE" premiereChannelType="Stereo">
              <clipitem frameBlend="FALSE" id="clipitem-1" premiereChannelType="stereo">
                <name>Scene - Puppet man_0003.wav</name>
                <masterclipid>masterclip-1</masterclipid>
                <rate>
                  <timebase>24</timebase>
                  <ntsc>FALSE</ntsc>
                </rate>
                <start>0</start>
                <end>720</end>
                <in>0</in>
                <out>720</out>
                <sourcetrack>
                  <mediatype>audio</mediatype>
                  <trackindex>1</trackindex>
                </sourcetrack>
                <link>
                  <linkclipref>clipitem-1</linkclipref>
                  <mediatype>audio</mediatype>
                  <trackindex>1</trackindex>
                  <clipindex>1</clipindex>
                  <groupindex>1</groupindex>
                </link>
                <link>
                  <linkclipref>clipitem-2</linkclipref>
                  <mediatype>audio</mediatype>
                  <trackindex>2</trackindex>
                  <clipindex>1</clipindex>
                  <groupindex>1</groupindex>
                </link>
                <file id="file-1"/>
              </clipitem>
              <enabled>TRUE</enabled>
              <outputchannelindex>1</outputchannelindex>
            </track>
            <track frameBlend="FALSE" premiereChannelType="Stereo">
              <clipitem frameBlend="FALSE" id="clipitem-2" premiereChannelType="stereo">
                <name>Scene - Puppet man_0003.wav</name>
                <masterclipid>masterclip-1</masterclipid>
                <rate>
                  <timebase>24</timebase>
                  <ntsc>FALSE</ntsc>
                </rate>
                <start>0</start>
                <end>720</end>
                <in>0</in>
                <out>720</out>
                <sourcetrack>
                  <mediatype>audio</mediatype>
                  <trackindex>2</trackindex>
                </sourcetrack>
                <link>
                  <linkclipref>clipitem-1</linkclipref>
                  <mediatype>audio</mediatype>
                  <trackindex>1</trackindex>
                  <clipindex>1</clipindex>
                  <groupindex>1</groupindex>
                </link>
                <link>
                  <linkclipref>clipitem-2</linkclipref>
                  <mediatype>audio</mediatype>
                  <trackindex>2</trackindex>
                  <clipindex>1</clipindex>
                  <groupindex>1</groupindex>
                </link>
                <file id="file-1"/>
              </clipitem>
              <enabled>TRUE</enabled>
              <outputchannelindex>2</outputchannelindex>
            </track>
            <outputs>
              <group>
                <index>0</index>
                <numchannels>1</numchannels>
                <downmix>0</downmix>
                <group>
                  <index>0</index>
                </group>
              </group>
              <group>
                <index>1</index>
                <numchannels>1</numchannels>
                <downmix>0</downmix>
                <group>
                  <index>1</index>
                </group>
              </group>
            </outputs>
            <format>
              <samplecharacteristics>
                <samplerate>48000</samplerate>
                <depth>32</depth>
              </samplecharacteristics>
            </format>
          </audio>
        </media>
        <timecode>
          <rate>
            <timebase>24</timebase>
            <ntsc>FALSE</ntsc>
          </rate>
        </timecode>
      </sequence>
      <bin>
        <name>Scene - Puppet man_0003 Bin</name>
        <children>
          <clip explodedTracks="true" frameBlend="FALSE" id="masterclip-1">
            <uuid>5ce62818-ef7e-48a0-9456-bf913dc6c6ec</uuid>
            <masterclipid>masterclip-1</masterclipid>
            <ismasterclip>TRUE</ismasterclip>
            <duration>720</duration>
            <in>0</in>
            <out>720</out>
            <name>Scene - Puppet man_0003.wav</name>
            <rate>
              <timebase>24</timebase>
              <ntsc>FALSE</ntsc>
            </rate>
            <media>
              <audio>
                <track>
                  <clipitem frameBlend="FALSE" id="clipitem-1">
                    <name>Scene - Puppet man_0003.wav</name>
                    <masterclipid>masterclip-1</masterclipid>
                    <rate>
                      <timebase>24</timebase>
                      <ntsc>FALSE</ntsc>
                    </rate>
                    <file id="file-1">
                      <name>Scene - Puppet man_0003.wav</name>
                      <pathurl>file://localhost/C:/Users/jmrey/OneDrive/Desktop/Programmin Stuff/Projects/conversation-simulator/resources/videos/Scene - Puppet man_0003/Scene - Puppet man_0003.wav</pathurl>
                      <rate>
                        <timebase>24</timebase>
                        <ntsc>FALSE</ntsc>
                      </rate>
                      <duration>720</duration>
                      <timecode>
                        <rate>
                          <timebase>24</timebase>
                          <ntsc>FALSE</ntsc>
                        </rate>
                      </timecode>
                      <media>
                        <audio>
                          <samplecharacteristics>
                            <samplerate>48000</samplerate>
                            <depth>32</depth>
                          </samplecharacteristics>
                          <channelcount>2</channelcount>
                        </audio>
                      </media>
                    </file>
                    <sourcetrack>
                      <mediatype>audio</mediatype>
                      <trackindex>1</trackindex>
                    </sourcetrack>
                    <link>
                      <linkclipref>clipitem-1</linkclipref>
                      <mediatype>audio</mediatype>
                      <trackindex>1</trackindex>
                      <clipindex>1</clipindex>
                      <groupindex>1</groupindex>
                    </link>
                    <link>
                      <linkclipref>clipitem-2</linkclipref>
                      <mediatype>audio</mediatype>
                      <trackindex>2</trackindex>
                      <clipindex>1</clipindex>
                      <groupindex>1</groupindex>
                    </link>
                  </clipitem>
                </track>
                <track>
                  <clipitem frameBlend="FALSE" id="clipitem-2">
                    <name>Scene - Puppet man_0003.wav</name>
                    <masterclipid>masterclip-1</masterclipid>
                    <rate>
                      <timebase>24</timebase>
                      <ntsc>FALSE</ntsc>
                    </rate>
                    <sourcetrack>
                      <mediatype>audio</mediatype>
                      <trackindex>2</trackindex>
                    </sourcetrack>
                    <link>
                      <linkclipref>clipitem-1</linkclipref>
                      <mediatype>audio</mediatype>
                      <trackindex>1</trackindex>
                      <clipindex>1</clipindex>
                      <groupindex>1</groupindex>
                    </link>
                    <link>
                      <linkclipref>clipitem-2</linkclipref>
                      <mediatype>audio</mediatype>
                      <trackindex>2</trackindex>
                      <clipindex>1</clipindex>
                      <groupindex>1</groupindex>
                    </link>
                  </clipitem>
                </track>
              </audio>
            </media>
          </clip>
          <clip explodedTracks="true" frameBlend="FALSE" id="masterclip-2">
            <uuid>70b0b24e-068c-4431-a627-d3ea060519e6</uuid>
            <masterclipid>masterclip-2</masterclipid>
            <ismasterclip>TRUE</ismasterclip>
            <duration>720</duration>
            <in>0</in>
            <out>720</out>
            <name>Scene - Puppet man_0003.000.png</name>
            <rate>
              <timebase>24</timebase>
              <ntsc>FALSE</ntsc>
            </rate>
            <media>
              <video>
                <track>
                  <clipitem frameBlend="FALSE" id="clipitem-3">
                    <name>Scene - Puppet man_0003.000.png</name>
                    <masterclipid>masterclip-2</masterclipid>
                    <rate>
                      <timebase>24</timebase>
                      <ntsc>FALSE</ntsc>
                    </rate>
                    <alphatype>straight</alphatype>
                    <pixelaspectratio>square</pixelaspectratio>
                    <anamorphic>FALSE</anamorphic>
                    <file id="file-2">
                      <name>Scene - Puppet man_0003.000.png</name>
                      <pathurl>file://localhost/C:/Users/jmrey/OneDrive/Desktop/Programmin Stuff/Projects/conversation-simulator/resources/videos/Scene - Puppet man_0003/Scene - Puppet man_0003.000.png</pathurl>
                      <rate>
                        <timebase>24</timebase>
                        <ntsc>FALSE</ntsc>
                      </rate>
                      <duration>720</duration>
                      <timecode>
                        <rate>
                          <timebase>24</timebase>
                          <ntsc>FALSE</ntsc>
                        </rate>
                      </timecode>
                      <media>
                        <video>
                          <duration>1</duration>
                          <samplecharacteristics>
                            <anamorphic>FALSE</anamorphic>
                            <pixelaspectratio>square</pixelaspectratio>
                            <fielddominance>none</fielddominance>
                            <width>1920</width>
                            <height>1080</height>
                          </samplecharacteristics>
                        </video>
                      </media>
                    </file>
                  </clipitem>
                </track>
              </video>
            </media>
          </clip>
          <clip explodedTracks="true" frameBlend="FALSE" id="masterclip-3">
            <uuid>45af20f5-4512-47ac-91eb-05888ab26d9e</uuid>
            <masterclipid>masterclip-3</masterclipid>
            <ismasterclip>TRUE</ismasterclip>
            <duration>720</duration>
            <in>0</in>
            <out>720</out>
            <name>Scene - Puppet man_0003.001.png</name>
            <rate>
              <timebase>24</timebase>
              <ntsc>FALSE</ntsc>
            </rate>
            <media>
              <video>
                <track>
                  <clipitem frameBlend="FALSE" id="clipitem-4">
                    <name>Scene - Puppet man_0003.001.png</name>
                    <masterclipid>masterclip-3</masterclipid>
                    <rate>
                      <timebase>24</timebase>
                      <ntsc>FALSE</ntsc>
                    </rate>
                    <alphatype>straight</alphatype>
                    <pixelaspectratio>square</pixelaspectratio>
                    <anamorphic>FALSE</anamorphic>
                    <file id="file-3">
                      <name>Scene - Puppet man_0003.001.png</name>
                      <pathurl>file://localhost/C:/Users/jmrey/OneDrive/Desktop/Programmin Stuff/Projects/conversation-simulator/resources/videos/Scene - Puppet man_0003/Scene - Puppet man_0003.001.png</pathurl>
                      <rate>
                        <timebase>24</timebase>
                        <ntsc>FALSE</ntsc>
                      </rate>
                      <duration>720</duration>
                      <timecode>
                        <rate>
                          <timebase>24</timebase>
                          <ntsc>FALSE</ntsc>
                        </rate>
                      </timecode>
                      <media>
                        <video>
                          <duration>1</duration>
                          <samplecharacteristics>
                            <anamorphic>FALSE</anamorphic>
                            <pixelaspectratio>square</pixelaspectratio>
                            <fielddominance>none</fielddominance>
                            <width>1920</width>
                            <height>1080</height>
                          </samplecharacteristics>
                        </video>
                      </media>
                    </file>
                  </clipitem>
                </track>
              </video>
            </media>
          </clip>
          <clip explodedTracks="true" frameBlend="FALSE" id="masterclip-4">
            <uuid>65f02e71-28de-4e1c-b625-c96e57260d04</uuid>
            <masterclipid>masterclip-4</masterclipid>
            <ismasterclip>TRUE</ismasterclip>
            <duration>720</duration>
            <in>0</in>
            <out>720</out>
            <name>Scene - Puppet man_0003.002.png</name>
            <rate>
              <timebase>24</timebase>
              <ntsc>FALSE</ntsc>
            </rate>
            <media>
              <video>
                <track>
                  <clipitem frameBlend="FALSE" id="clipitem-5">
                    <name>Scene - Puppet man_0003.002.png</name>
                    <masterclipid>masterclip-4</masterclipid>
                    <rate>
                      <timebase>24</timebase>
                      <ntsc>FALSE</ntsc>
                    </rate>
                    <alphatype>straight</alphatype>
                    <pixelaspectratio>square</pixelaspectratio>
                    <anamorphic>FALSE</anamorphic>
                    <file id="file-4">
                      <name>Scene - Puppet man_0003.002.png</name>
                      <pathurl>file://localhost/C:/Users/jmrey/OneDrive/Desktop/Programmin Stuff/Projects/conversation-simulator/resources/videos/Scene - Puppet man_0003/Scene - Puppet man_0003.002.png</pathurl>
                      <rate>
                        <timebase>24</timebase>
                        <ntsc>FALSE</ntsc>
                      </rate>
                      <duration>720</duration>
                      <timecode>
                        <rate>
                          <timebase>24</timebase>
                          <ntsc>FALSE</ntsc>
                        </rate>
                      </timecode>
                      <media>
                        <video>
                          <duration>1</duration>
                          <samplecharacteristics>
                            <anamorphic>FALSE</anamorphic>
                            <pixelaspectratio>square</pixelaspectratio>
                            <fielddominance>none</fielddominance>
                            <width>1920</width>
                            <height>1080</height>
                          </samplecharacteristics>
                        </video>
                      </media>
                    </file>
                  </clipitem>
                </track>
              </video>
            </media>
          </clip>
          <clip explodedTracks="true" frameBlend="FALSE" id="masterclip-5">
            <uuid>da66365d-fcfb-4119-956d-ff564dffbb88</uuid>
            <masterclipid>masterclip-5</masterclipid>
            <ismasterclip>TRUE</ismasterclip>
            <duration>720</duration>
            <in>0</in>
            <out>720</out>
            <name>Scene - Puppet man_0003.003.png</name>
            <rate>
              <timebase>24</timebase>
              <ntsc>FALSE</ntsc>
            </rate>
            <media>
              <video>
                <track>
                  <clipitem frameBlend="FALSE" id="clipitem-6">
                    <name>Scene - Puppet man_0003.003.png</name>
                    <masterclipid>masterclip-5</masterclipid>
                    <rate>
                      <timebase>24</timebase>
                      <ntsc>FALSE</ntsc>
                    </rate>
                    <alphatype>straight</alphatype>
                    <pixelaspectratio>square</pixelaspectratio>
                    <anamorphic>FALSE</anamorphic>
                    <file id="file-5">
                      <name>Scene - Puppet man_0003.003.png</name>
                      <pathurl>file://localhost/C:/Users/jmrey/OneDrive/Desktop/Programmin Stuff/Projects/conversation-simulator/resources/videos/Scene - Puppet man_0003/Scene - Puppet man_0003.003.png</pathurl>
                      <rate>
                        <timebase>24</timebase>
                        <ntsc>FALSE</ntsc>
                      </rate>
                      <duration>720</duration>
                      <timecode>
                        <rate>
                          <timebase>24</timebase>
                          <ntsc>FALSE</ntsc>
                        </rate>
                      </timecode>
                      <media>
                        <video>
                          <duration>1</duration>
                          <samplecharacteristics>
                            <anamorphic>FALSE</anamorphic>
                            <pixelaspectratio>square</pixelaspectratio>
                            <fielddominance>none</fielddominance>
                            <width>1920</width>
                            <height>1080</height>
                          </samplecharacteristics>
                        </video>
                      </media>
                    </file>
                  </clipitem>
                </track>
              </video>
            </media>
          </clip>
          <clip explodedTracks="true" frameBlend="FALSE" id="masterclip-6">
            <uuid>1f4d2c18-9120-40c6-99b7-1d0d89818ebc</uuid>
            <masterclipid>masterclip-6</masterclipid>
            <ismasterclip>TRUE</ismasterclip>
            <duration>720</duration>
            <in>0</in>
            <out>720</out>
            <name>Scene - Puppet man_0003.004.png</name>
            <rate>
              <timebase>24</timebase>
              <ntsc>FALSE</ntsc>
            </rate>
            <media>
              <video>
                <track>
                  <clipitem frameBlend="FALSE" id="clipitem-7">
                    <name>Scene - Puppet man_0003.004.png</name>
                    <masterclipid>masterclip-6</masterclipid>
                    <rate>
                      <timebase>24</timebase>
                      <ntsc>FALSE</ntsc>
                    </rate>
                    <alphatype>straight</alphatype>
                    <pixelaspectratio>square</pixelaspectratio>
                    <anamorphic>FALSE</anamorphic>
                    <file id="file-6">
                      <name>Scene - Puppet man_0003.004.png</name>
                      <pathurl>file://localhost/C:/Users/jmrey/OneDrive/Desktop/Programmin Stuff/Projects/conversation-simulator/resources/videos/Scene - Puppet man_0003/Scene - Puppet man_0003.004.png</pathurl>
                      <rate>
                        <timebase>24</timebase>
                        <ntsc>FALSE</ntsc>
                      </rate>
                      <duration>720</duration>
                      <timecode>
                        <rate>
                          <timebase>24</timebase>
                          <ntsc>FALSE</ntsc>
                        </rate>
                      </timecode>
                      <media>
                        <video>
                          <duration>1</duration>
                          <samplecharacteristics>
                            <anamorphic>FALSE</anamorphic>
                            <pixelaspectratio>square</pixelaspectratio>
                            <fielddominance>none</fielddominance>
                            <width>1920</width>
                            <height>1080</height>
                          </samplecharacteristics>
                        </video>
                      </media>
                    </file>
                  </clipitem>
                </track>
              </video>
            </media>
          </clip>
          <clip explodedTracks="true" frameBlend="FALSE" id="masterclip-7">
            <uuid>5dfa64bb-41e7-4a56-bd8b-aa6b8644ab17</uuid>
            <masterclipid>masterclip-7</masterclipid>
            <ismasterclip>TRUE</ismasterclip>
            <duration>720</duration>
            <in>0</in>
            <out>720</out>
            <name>Scene - Puppet man_0003.005.png</name>
            <rate>
              <timebase>24</timebase>
              <ntsc>FALSE</ntsc>
            </rate>
            <media>
              <video>
                <track>
                  <clipitem frameBlend="FALSE" id="clipitem-8">
                    <name>Scene - Puppet man_0003.005.png</name>
                    <masterclipid>masterclip-7</masterclipid>
                    <rate>
                      <timebase>24</timebase>
                      <ntsc>FALSE</ntsc>
                    </rate>
                    <alphatype>straight</alphatype>
                    <pixelaspectratio>square</pixelaspectratio>
                    <anamorphic>FALSE</anamorphic>
                    <file id="file-7">
                      <name>Scene - Puppet man_0003.005.png</name>
                      <pathurl>file://localhost/C:/Users/jmrey/OneDrive/Desktop/Programmin Stuff/Projects/conversation-simulator/resources/videos/Scene - Puppet man_0003/Scene - Puppet man_0003.005.png</pathurl>
                      <rate>
                        <timebase>24</timebase>
                        <ntsc>FALSE</ntsc>
                      </rate>
                      <duration>720</duration>
                      <timecode>
                        <rate>
                          <timebase>24</timebase>
                          <ntsc>FALSE</ntsc>
                        </rate>
                      </timecode>
                      <media>
                        <video>
                          <duration>1</duration>
                          <samplecharacteristics>
                            <anamorphic>FALSE</anamorphic>
                            <pixelaspectratio>square</pixelaspectratio>
                            <fielddominance>none</fielddominance>
                            <width>1920</width>
                            <height>1080</height>
                          </samplecharacteristics>
                        </video>
                      </media>
                    </file>
                  </clipitem>
                </track>
              </video>
            </media>
          </clip>
          <clip explodedTracks="true" frameBlend="FALSE" id="masterclip-8">
            <uuid>44e5fd87-db90-4033-b94a-309d8715f687</uuid>
            <masterclipid>masterclip-8</masterclipid>
            <ismasterclip>TRUE</ismasterclip>
            <duration>720</duration>
            <in>0</in>
            <out>720</out>
            <name>Scene - Puppet man_0003.006.png</name>
            <rate>
              <timebase>24</timebase>
              <ntsc>FALSE</ntsc>
            </rate>
            <media>
              <video>
                <track>
                  <clipitem frameBlend="FALSE" id="clipitem-9">
                    <name>Scene - Puppet man_0003.006.png</name>
                    <masterclipid>masterclip-8</masterclipid>
                    <rate>
                      <timebase>24</timebase>
                      <ntsc>FALSE</ntsc>
                    </rate>
                    <alphatype>straight</alphatype>
                    <pixelaspectratio>square</pixelaspectratio>
                    <anamorphic>FALSE</anamorphic>
                    <file id="file-8">
                      <name>Scene - Puppet man_0003.006.png</name>
                      <pathurl>file://localhost/C:/Users/jmrey/OneDrive/Desktop/Programmin Stuff/Projects/conversation-simulator/resources/videos/Scene - Puppet man_0003/Scene - Puppet man_0003.006.png</pathurl>
                      <rate>
                        <timebase>24</timebase>
                        <ntsc>FALSE</ntsc>
                      </rate>
                      <duration>720</duration>
                      <timecode>
                        <rate>
                          <timebase>24</timebase>
                          <ntsc>FALSE</ntsc>
                        </rate>
                      </timecode>
                      <media>
                        <video>
                          <duration>1</duration>
                          <samplecharacteristics>
                            <anamorphic>FALSE</anamorphic>
                            <pixelaspectratio>square</pixelaspectratio>
                            <fielddominance>none</fielddominance>
                            <width>1920</width>
                            <height>1080</height>
                          </samplecharacteristics>
                        </video>
                      </media>
                    </file>
                  </clipitem>
                </track>
              </video>
            </media>
          </clip>
          <clip explodedTracks="true" frameBlend="FALSE" id="masterclip-9">
            <uuid>40ef5ab9-be5e-47d9-8a16-938c6f58476c</uuid>
            <masterclipid>masterclip-9</masterclipid>
            <ismasterclip>TRUE</ismasterclip>
            <duration>720</duration>
            <in>0</in>
            <out>720</out>
            <name>Scene - Puppet man_0003.007.png</name>
            <rate>
              <timebase>24</timebase>
              <ntsc>FALSE</ntsc>
            </rate>
            <media>
              <video>
                <track>
                  <clipitem frameBlend="FALSE" id="clipitem-10">
                    <name>Scene - Puppet man_0003.007.png</name>
                    <masterclipid>masterclip-9</masterclipid>
                    <rate>
                      <timebase>24</timebase>
                      <ntsc>FALSE</ntsc>
                    </rate>
                    <alphatype>straight</alphatype>
                    <pixelaspectratio>square</pixelaspectratio>
                    <anamorphic>FALSE</anamorphic>
                    <file id="file-9">
                      <name>Scene - Puppet man_0003.007.png</name>
                      <pathurl>file://localhost/C:/Users/jmrey/OneDrive/Desktop/Programmin Stuff/Projects/conversation-simulator/resources/videos/Scene - Puppet man_0003/Scene - Puppet man_0003.007.png</pathurl>
                      <rate>
                        <timebase>24</timebase>
                        <ntsc>FALSE</ntsc>
                      </rate>
                      <duration>720</duration>
                      <timecode>
                        <rate>
                          <timebase>24</timebase>
                          <ntsc>FALSE</ntsc>
                        </rate>
                      </timecode>
                      <media>
                        <video>
                          <duration>1</duration>
                          <samplecharacteristics>
                            <anamorphic>FALSE</anamorphic>
                            <pixelaspectratio>square</pixelaspectratio>
                            <fielddominance>none</fielddominance>
                            <width>1920</width>
                            <height>1080</height>
                          </samplecharacteristics>
                        </video>
                      </media>
                    </file>
                  </clipitem>
                </track>
              </video>
            </media>
          </clip>
          <clip explodedTracks="true" frameBlend="FALSE" id="masterclip-10">
            <uuid>28c58393-591a-448c-8d3f-e0a5e7d8a30e</uuid>
            <masterclipid>masterclip-10</masterclipid>
            <ismasterclip>TRUE</ismasterclip>
            <duration>720</duration>
            <in>0</in>
            <out>720</out>
            <name>Scene - Puppet man_0003.008.png</name>
            <rate>
              <timebase>24</timebase>
              <ntsc>FALSE</ntsc>
            </rate>
            <media>
              <video>
                <track>
                  <clipitem frameBlend="FALSE" id="clipitem-11">
                    <name>Scene - Puppet man_0003.008.png</name>
                    <masterclipid>masterclip-10</masterclipid>
                    <rate>
                      <timebase>24</timebase>
                      <ntsc>FALSE</ntsc>
                    </rate>
                    <alphatype>straight</alphatype>
                    <pixelaspectratio>square</pixelaspectratio>
                    <anamorphic>FALSE</anamorphic>
                    <file id="file-10">
                      <name>Scene - Puppet man_0003.008.png</name>
                      <pathurl>file://localhost/C:/Users/jmrey/OneDrive/Desktop/Programmin Stuff/Projects/conversation-simulator/resources/videos/Scene - Puppet man_0003/Scene - Puppet man_0003.008.png</pathurl>
                      <rate>
                        <timebase>24</timebase>
                        <ntsc>FALSE</ntsc>
                      </rate>
                      <duration>720</duration>
                      <timecode>
                        <rate>
                          <timebase>24</timebase>
                          <ntsc>FALSE</ntsc>
                        </rate>
                      </timecode>
                      <media>
                        <video>
                          <duration>1</duration>
                          <samplecharacteristics>
                            <anamorphic>FALSE</anamorphic>
                            <pixelaspectratio>square</pixelaspectratio>
                            <fielddominance>none</fielddominance>
                            <width>1920</width>
                            <height>1080</height>
                          </samplecharacteristics>
                        </video>
                      </media>
                    </file>
                  </clipitem>
                </track>
              </video>
            </media>
          </clip>
          <clip explodedTracks="true" frameBlend="FALSE" id="masterclip-11">
            <uuid>e8d0c55b-76fb-4055-a5ed-68b74f17c75a</uuid>
            <masterclipid>masterclip-11</masterclipid>
            <ismasterclip>TRUE</ismasterclip>
            <duration>720</duration>
            <in>0</in>
            <out>720</out>
            <name>Scene - Puppet man_0003.009.png</name>
            <rate>
              <timebase>24</timebase>
              <ntsc>FALSE</ntsc>
            </rate>
            <media>
              <video>
                <track>
                  <clipitem frameBlend="FALSE" id="clipitem-12">
                    <name>Scene - Puppet man_0003.009.png</name>
                    <masterclipid>masterclip-11</masterclipid>
                    <rate>
                      <timebase>24</timebase>
                      <ntsc>FALSE</ntsc>
                    </rate>
                    <alphatype>straight</alphatype>
                    <pixelaspectratio>square</pixelaspectratio>
                    <anamorphic>FALSE</anamorphic>
                    <file id="file-11">
                      <name>Scene - Puppet man_0003.009.png</name>
                      <pathurl>file://localhost/C:/Users/jmrey/OneDrive/Desktop/Programmin Stuff/Projects/conversation-simulator/resources/videos/Scene - Puppet man_0003/Scene - Puppet man_0003.009.png</pathurl>
                      <rate>
                        <timebase>24</timebase>
                        <ntsc>FALSE</ntsc>
                      </rate>
                      <duration>720</duration>
                      <timecode>
                        <rate>
                          <timebase>24</timebase>
                          <ntsc>FALSE</ntsc>
                        </rate>
                      </timecode>
                      <media>
                        <video>
                          <duration>1</duration>
                          <samplecharacteristics>
                            <anamorphic>FALSE</anamorphic>
                            <pixelaspectratio>square</pixelaspectratio>
                            <fielddominance>none</fielddominance>
                            <width>1920</width>
                            <height>1080</height>
                          </samplecharacteristics>
                        </video>
                      </media>
                    </file>
                  </clipitem>
                </track>
              </video>
            </media>
          </clip>
          <clip explodedTracks="true" frameBlend="FALSE" id="masterclip-12">
            <uuid>ac9b1e16-3cc1-4547-bb7e-ef78f3342f0a</uuid>
            <masterclipid>masterclip-12</masterclipid>
            <ismasterclip>TRUE</ismasterclip>
            <duration>720</duration>
            <in>0</in>
            <out>720</out>
            <name>Scene - Puppet man_0003.010.png</name>
            <rate>
              <timebase>24</timebase>
              <ntsc>FALSE</ntsc>
            </rate>
            <media>
              <video>
                <track>
                  <clipitem frameBlend="FALSE" id="clipitem-13">
                    <name>Scene - Puppet man_0003.010.png</name>
                    <masterclipid>masterclip-12</masterclipid>
                    <rate>
                      <timebase>24</timebase>
                      <ntsc>FALSE</ntsc>
                    </rate>
                    <alphatype>straight</alphatype>
                    <pixelaspectratio>square</pixelaspectratio>
                    <anamorphic>FALSE</anamorphic>
                    <file id="file-12">
                      <name>Scene - Puppet man_0003.010.png</name>
                      <pathurl>file://localhost/C:/Users/jmrey/OneDrive/Desktop/Programmin Stuff/Projects/conversation-simulator/resources/videos/Scene - Puppet man_0003/Scene - Puppet man_0003.010.png</pathurl>
                      <rate>
                        <timebase>24</timebase>
                        <ntsc>FALSE</ntsc>
                      </rate>
                      <duration>720</duration>
                      <timecode>
                        <rate>
                          <timebase>24</timebase>
                          <ntsc>FALSE</ntsc>
                        </rate>
                      </timecode>
                      <media>
                        <video>
                          <duration>1</duration>
                          <samplecharacteristics>
                            <anamorphic>FALSE</anamorphic>
                            <pixelaspectratio>square</pixelaspectratio>
                            <fielddominance>none</fielddominance>
                            <width>1920</width>
                            <height>1080</height>
                          </samplecharacteristics>
                        </video>
                      </media>
                    </file>
                  </clipitem>
                </track>
              </video>
            </media>
          </clip>
          <clip explodedTracks="true" frameBlend="FALSE" id="masterclip-13">
            <uuid>b9d86677-84ea-4404-86dd-4862b8607489</uuid>
            <masterclipid>masterclip-13</masterclipid>
            <ismasterclip>TRUE</ismasterclip>
            <duration>720</duration>
            <in>0</in>
            <out>720</out>
            <name>Scene - Puppet man_0003.011.png</name>
            <rate>
              <timebase>24</timebase>
              <ntsc>FALSE</ntsc>
            </rate>
            <media>
              <video>
                <track>
                  <clipitem frameBlend="FALSE" id="clipitem-14">
                    <name>Scene - Puppet man_0003.011.png</name>
                    <masterclipid>masterclip-13</masterclipid>
                    <rate>
                      <timebase>24</timebase>
                      <ntsc>FALSE</ntsc>
                    </rate>
                    <alphatype>straight</alphatype>
                    <pixelaspectratio>square</pixelaspectratio>
                    <anamorphic>FALSE</anamorphic>
                    <file id="file-13">
                      <name>Scene - Puppet man_0003.011.png</name>
                      <pathurl>file://localhost/C:/Users/jmrey/OneDrive/Desktop/Programmin Stuff/Projects/conversation-simulator/resources/videos/Scene - Puppet man_0003/Scene - Puppet man_0003.011.png</pathurl>
                      <rate>
                        <timebase>24</timebase>
                        <ntsc>FALSE</ntsc>
                      </rate>
                      <duration>720</duration>
                      <timecode>
                        <rate>
                          <timebase>24</timebase>
                          <ntsc>FALSE</ntsc>
                        </rate>
                      </timecode>
                      <media>
                        <video>
                          <duration>1</duration>
                          <samplecharacteristics>
                            <anamorphic>FALSE</anamorphic>
                            <pixelaspectratio>square</pixelaspectratio>
                            <fielddominance>none</fielddominance>
                            <width>1920</width>
                            <height>1080</height>
                          </samplecharacteristics>
                        </video>
                      </media>
                    </file>
                  </clipitem>
                </track>
              </video>
            </media>
          </clip>
          <clip explodedTracks="true" frameBlend="FALSE" id="masterclip-14">
            <uuid>3c86eed2-a077-4237-817d-be64e780a7e3</uuid>
            <masterclipid>masterclip-14</masterclipid>
            <ismasterclip>TRUE</ismasterclip>
            <duration>720</duration>
            <in>0</in>
            <out>720</out>
            <name>Scene - Puppet man_0003.012.png</name>
            <rate>
              <timebase>24</timebase>
              <ntsc>FALSE</ntsc>
            </rate>
            <media>
              <video>
                <track>
                  <clipitem frameBlend="FALSE" id="clipitem-15">
                    <name>Scene - Puppet man_0003.012.png</name>
                    <masterclipid>masterclip-14</masterclipid>
                    <rate>
                      <timebase>24</timebase>
                      <ntsc>FALSE</ntsc>
                    </rate>
                    <alphatype>straight</alphatype>
                    <pixelaspectratio>square</pixelaspectratio>
                    <anamorphic>FALSE</anamorphic>
                    <file id="file-14">
                      <name>Scene - Puppet man_0003.012.png</name>
                      <pathurl>file://localhost/C:/Users/jmrey/OneDrive/Desktop/Programmin Stuff/Projects/conversation-simulator/resources/videos/Scene - Puppet man_0003/Scene - Puppet man_0003.012.png</pathurl>
                      <rate>
                        <timebase>24</timebase>
                        <ntsc>FALSE</ntsc>
                      </rate>
                      <duration>720</duration>
                      <timecode>
                        <rate>
                          <timebase>24</timebase>
                          <ntsc>FALSE</ntsc>
                        </rate>
                      </timecode>
                      <media>
                        <video>
                          <duration>1</duration>
                          <samplecharacteristics>
                            <anamorphic>FALSE</anamorphic>
                            <pixelaspectratio>square</pixelaspectratio>
                            <fielddominance>none</fielddominance>
                            <width>1920</width>
                            <height>1080</height>
                          </samplecharacteristics>
                        </video>
                      </media>
                    </file>
                  </clipitem>
                </track>
              </video>
            </media>
          </clip>
          <clip explodedTracks="true" frameBlend="FALSE" id="masterclip-15">
            <uuid>57980e6d-7f9b-4c89-95e6-8e5a4e536911</uuid>
            <masterclipid>masterclip-15</masterclipid>
            <ismasterclip>TRUE</ismasterclip>
            <duration>720</duration>
            <in>0</in>
            <out>720</out>
            <name>Scene - Puppet man_0003.013.png</name>
            <rate>
              <timebase>24</timebase>
              <ntsc>FALSE</ntsc>
            </rate>
            <media>
              <video>
                <track>
                  <clipitem frameBlend="FALSE" id="clipitem-16">
                    <name>Scene - Puppet man_0003.013.png</name>
                    <masterclipid>masterclip-15</masterclipid>
                    <rate>
                      <timebase>24</timebase>
                      <ntsc>FALSE</ntsc>
                    </rate>
                    <alphatype>straight</alphatype>
                    <pixelaspectratio>square</pixelaspectratio>
                    <anamorphic>FALSE</anamorphic>
                    <file id="file-15">
                      <name>Scene - Puppet man_0003.013.png</name>
                      <pathurl>file://localhost/C:/Users/jmrey/OneDrive/Desktop/Programmin Stuff/Projects/conversation-simulator/resources/videos/Scene - Puppet man_0003/Scene - Puppet man_0003.013.png</pathurl>
                      <rate>
                        <timebase>24</timebase>
                        <ntsc>FALSE</ntsc>
                      </rate>
                      <duration>720</duration>
                      <timecode>
                        <rate>
                          <timebase>24</timebase>
                          <ntsc>FALSE</ntsc>
                        </rate>
                      </timecode>
                      <media>
                        <video>
                          <duration>1</duration>
                          <samplecharacteristics>
                            <anamorphic>FALSE</anamorphic>
                            <pixelaspectratio>square</pixelaspectratio>
                            <fielddominance>none</fielddominance>
                            <width>1920</width>
                            <height>1080</height>
                          </samplecharacteristics>
                        </video>
                      </media>
                    </file>
                  </clipitem>
                </track>
              </video>
            </media>
          </clip>
          <clip explodedTracks="true" frameBlend="FALSE" id="masterclip-16">
            <uuid>4adeff7b-a649-406f-b6c8-5a1a5704a3a6</uuid>
            <masterclipid>masterclip-16</masterclipid>
            <ismasterclip>TRUE</ismasterclip>
            <duration>720</duration>
            <in>0</in>
            <out>720</out>
            <name>Scene - Puppet man_0003.014.png</name>
            <rate>
              <timebase>24</timebase>
              <ntsc>FALSE</ntsc>
            </rate>
            <media>
              <video>
                <track>
                  <clipitem frameBlend="FALSE" id="clipitem-17">
                    <name>Scene - Puppet man_0003.014.png</name>
                    <masterclipid>masterclip-16</masterclipid>
                    <rate>
                      <timebase>24</timebase>
                      <ntsc>FALSE</ntsc>
                    </rate>
                    <alphatype>straight</alphatype>
                    <pixelaspectratio>square</pixelaspectratio>
                    <anamorphic>FALSE</anamorphic>
                    <file id="file-16">
                      <name>Scene - Puppet man_0003.014.png</name>
                      <pathurl>file://localhost/C:/Users/jmrey/OneDrive/Desktop/Programmin Stuff/Projects/conversation-simulator/resources/videos/Scene - Puppet man_0003/Scene - Puppet man_0003.014.png</pathurl>
                      <rate>
                        <timebase>24</timebase>
                        <ntsc>FALSE</ntsc>
                      </rate>
                      <duration>720</duration>
                      <timecode>
                        <rate>
                          <timebase>24</timebase>
                          <ntsc>FALSE</ntsc>
                        </rate>
                      </timecode>
                      <media>
                        <video>
                          <duration>1</duration>
                          <samplecharacteristics>
                            <anamorphic>FALSE</anamorphic>
                            <pixelaspectratio>square</pixelaspectratio>
                            <fielddominance>none</fielddominance>
                            <width>1920</width>
                            <height>1080</height>
                          </samplecharacteristics>
                        </video>
                      </media>
                    </file>
                  </clipitem>
                </track>
              </video>
            </media>
          </clip>
          <clip explodedTracks="true" frameBlend="FALSE" id="masterclip-17">
            <uuid>2492cd81-5dee-40fd-b386-0635eb521a63</uuid>
            <masterclipid>masterclip-17</masterclipid>
            <ismasterclip>TRUE</ismasterclip>
            <duration>720</duration>
            <in>0</in>
            <out>720</out>
            <name>Scene - Puppet man_0003.015.png</name>
            <rate>
              <timebase>24</timebase>
              <ntsc>FALSE</ntsc>
            </rate>
            <media>
              <video>
                <track>
                  <clipitem frameBlend="FALSE" id="clipitem-18">
                    <name>Scene - Puppet man_0003.015.png</name>
                    <masterclipid>masterclip-17</masterclipid>
                    <rate>
                      <timebase>24</timebase>
                      <ntsc>FALSE</ntsc>
                    </rate>
                    <alphatype>straight</alphatype>
                    <pixelaspectratio>square</pixelaspectratio>
                    <anamorphic>FALSE</anamorphic>
                    <file id="file-17">
                      <name>Scene - Puppet man_0003.015.png</name>
                      <pathurl>file://localhost/C:/Users/jmrey/OneDrive/Desktop/Programmin Stuff/Projects/conversation-simulator/resources/videos/Scene - Puppet man_0003/Scene - Puppet man_0003.015.png</pathurl>
                      <rate>
                        <timebase>24</timebase>
                        <ntsc>FALSE</ntsc>
                      </rate>
                      <duration>720</duration>
                      <timecode>
                        <rate>
                          <timebase>24</timebase>
                          <ntsc>FALSE</ntsc>
                        </rate>
                      </timecode>
                      <media>
                        <video>
                          <duration>1</duration>
                          <samplecharacteristics>
                            <anamorphic>FALSE</anamorphic>
                            <pixelaspectratio>square</pixelaspectratio>
                            <fielddominance>none</fielddominance>
                            <width>1920</width>
                            <height>1080</height>
                          </samplecharacteristics>
                        </video>
                      </media>
                    </file>
                  </clipitem>
                </track>
              </video>
            </media>
          </clip>
          <clip explodedTracks="true" frameBlend="FALSE" id="masterclip-18">
            <uuid>c1bc2799-e547-448d-807d-2842bc78509e</uuid>
            <masterclipid>masterclip-18</masterclipid>
            <ismasterclip>TRUE</ismasterclip>
            <duration>720</duration>
            <in>0</in>
            <out>720</out>
            <name>Scene - Puppet man_0003.016.png</name>
            <rate>
              <timebase>24</timebase>
              <ntsc>FALSE</ntsc>
            </rate>
            <media>
              <video>
                <track>
                  <clipitem frameBlend="FALSE" id="clipitem-19">
                    <name>Scene - Puppet man_0003.016.png</name>
                    <masterclipid>masterclip-18</masterclipid>
                    <rate>
                      <timebase>24</timebase>
                      <ntsc>FALSE</ntsc>
                    </rate>
                    <alphatype>straight</alphatype>
                    <pixelaspectratio>square</pixelaspectratio>
                    <anamorphic>FALSE</anamorphic>
                    <file id="file-18">
                      <name>Scene - Puppet man_0003.016.png</name>
                      <pathurl>file://localhost/C:/Users/jmrey/OneDrive/Desktop/Programmin Stuff/Projects/conversation-simulator/resources/videos/Scene - Puppet man_0003/Scene - Puppet man_0003.016.png</pathurl>
                      <rate>
                        <timebase>24</timebase>
                        <ntsc>FALSE</ntsc>
                      </rate>
                      <duration>720</duration>
                      <timecode>
                        <rate>
                          <timebase>24</timebase>
                          <ntsc>FALSE</ntsc>
                        </rate>
                      </timecode>
                      <media>
                        <video>
                          <duration>1</duration>
                          <samplecharacteristics>
                            <anamorphic>FALSE</anamorphic>
                            <pixelaspectratio>square</pixelaspectratio>
                            <fielddominance>none</fielddominance>
                            <width>1920</width>
                            <height>1080</height>
                          </samplecharacteristics>
                        </video>
                      </media>
                    </file>
                  </clipitem>
                </track>
              </video>
            </media>
          </clip>
          <clip explodedTracks="true" frameBlend="FALSE" id="masterclip-19">
            <uuid>cc9c422f-7890-47ef-9c9e-dd0c73066a11</uuid>
            <masterclipid>masterclip-19</masterclipid>
            <ismasterclip>TRUE</ismasterclip>
            <duration>720</duration>
            <in>0</in>
            <out>720</out>
            <name>Scene - Puppet man_0003.017.png</name>
            <rate>
              <timebase>24</timebase>
              <ntsc>FALSE</ntsc>
            </rate>
            <media>
              <video>
                <track>
                  <clipitem frameBlend="FALSE" id="clipitem-20">
                    <name>Scene - Puppet man_0003.017.png</name>
                    <masterclipid>masterclip-19</masterclipid>
                    <rate>
                      <timebase>24</timebase>
                      <ntsc>FALSE</ntsc>
                    </rate>
                    <alphatype>straight</alphatype>
                    <pixelaspectratio>square</pixelaspectratio>
                    <anamorphic>FALSE</anamorphic>
                    <file id="file-19">
                      <name>Scene - Puppet man_0003.017.png</name>
                      <pathurl>file://localhost/C:/Users/jmrey/OneDrive/Desktop/Programmin Stuff/Projects/conversation-simulator/resources/videos/Scene - Puppet man_0003/Scene - Puppet man_0003.017.png</pathurl>
                      <rate>
                        <timebase>24</timebase>
                        <ntsc>FALSE</ntsc>
                      </rate>
                      <duration>720</duration>
                      <timecode>
                        <rate>
                          <timebase>24</timebase>
                          <ntsc>FALSE</ntsc>
                        </rate>
                      </timecode>
                      <media>
                        <video>
                          <duration>1</duration>
                          <samplecharacteristics>
                            <anamorphic>FALSE</anamorphic>
                            <pixelaspectratio>square</pixelaspectratio>
                            <fielddominance>none</fielddominance>
                            <width>1920</width>
                            <height>1080</height>
                          </samplecharacteristics>
                        </video>
                      </media>
                    </file>
                  </clipitem>
                </track>
              </video>
            </media>
          </clip>
          <clip explodedTracks="true" frameBlend="FALSE" id="masterclip-20">
            <uuid>e2676447-1072-4c33-816f-cdcd44147927</uuid>
            <masterclipid>masterclip-20</masterclipid>
            <ismasterclip>TRUE</ismasterclip>
            <duration>720</duration>
            <in>0</in>
            <out>720</out>
            <name>Scene - Puppet man_0003.018.png</name>
            <rate>
              <timebase>24</timebase>
              <ntsc>FALSE</ntsc>
            </rate>
            <media>
              <video>
                <track>
                  <clipitem frameBlend="FALSE" id="clipitem-21">
                    <name>Scene - Puppet man_0003.018.png</name>
                    <masterclipid>masterclip-20</masterclipid>
                    <rate>
                      <timebase>24</timebase>
                      <ntsc>FALSE</ntsc>
                    </rate>
                    <alphatype>straight</alphatype>
                    <pixelaspectratio>square</pixelaspectratio>
                    <anamorphic>FALSE</anamorphic>
                    <file id="file-20">
                      <name>Scene - Puppet man_0003.018.png</name>
                      <pathurl>file://localhost/C:/Users/jmrey/OneDrive/Desktop/Programmin Stuff/Projects/conversation-simulator/resources/videos/Scene - Puppet man_0003/Scene - Puppet man_0003.018.png</pathurl>
                      <rate>
                        <timebase>24</timebase>
                        <ntsc>FALSE</ntsc>
                      </rate>
                      <duration>720</duration>
                      <timecode>
                        <rate>
                          <timebase>24</timebase>
                          <ntsc>FALSE</ntsc>
                        </rate>
                      </timecode>
                      <media>
                        <video>
                          <duration>1</duration>
                          <samplecharacteristics>
                            <anamorphic>FALSE</anamorphic>
                            <pixelaspectratio>square</pixelaspectratio>
                            <fielddominance>none</fielddominance>
                            <width>1920</width>
                            <height>1080</height>
                          </samplecharacteristics>
                        </video>
                      </media>
                    </file>
                  </clipitem>
                </track>
              </video>
            </media>
          </clip>
          <clip explodedTracks="true" frameBlend="FALSE" id="masterclip-21">
            <uuid>368225bb-ef04-4d44-af5c-cd423ec49056</uuid>
            <masterclipid>masterclip-21</masterclipid>
            <ismasterclip>TRUE</ismasterclip>
            <duration>720</duration>
            <in>0</in>
            <out>720</out>
            <name>Scene - Puppet man_0003.019.png</name>
            <rate>
              <timebase>24</timebase>
              <ntsc>FALSE</ntsc>
            </rate>
            <media>
              <video>
                <track>
                  <clipitem frameBlend="FALSE" id="clipitem-22">
                    <name>Scene - Puppet man_0003.019.png</name>
                    <masterclipid>masterclip-21</masterclipid>
                    <rate>
                      <timebase>24</timebase>
                      <ntsc>FALSE</ntsc>
                    </rate>
                    <alphatype>straight</alphatype>
                    <pixelaspectratio>square</pixelaspectratio>
                    <anamorphic>FALSE</anamorphic>
                    <file id="file-21">
                      <name>Scene - Puppet man_0003.019.png</name>
                      <pathurl>file://localhost/C:/Users/jmrey/OneDrive/Desktop/Programmin Stuff/Projects/conversation-simulator/resources/videos/Scene - Puppet man_0003/Scene - Puppet man_0003.019.png</pathurl>
                      <rate>
                        <timebase>24</timebase>
                        <ntsc>FALSE</ntsc>
                      </rate>
                      <duration>720</duration>
                      <timecode>
                        <rate>
                          <timebase>24</timebase>
                          <ntsc>FALSE</ntsc>
                        </rate>
                      </timecode>
                      <media>
                        <video>
                          <duration>1</duration>
                          <samplecharacteristics>
                            <anamorphic>FALSE</anamorphic>
                            <pixelaspectratio>square</pixelaspectratio>
                            <fielddominance>none</fielddominance>
                            <width>1920</width>
                            <height>1080</height>
                          </samplecharacteristics>
                        </video>
                      </media>
                    </file>
                  </clipitem>
                </track>
              </video>
            </media>
          </clip>
          <clip explodedTracks="true" frameBlend="FALSE" id="masterclip-22">
            <uuid>a4e609a6-f858-4300-afd0-2c78b2746b67</uuid>
            <masterclipid>masterclip-22</masterclipid>
            <ismasterclip>TRUE</ismasterclip>
            <duration>720</duration>
            <in>0</in>
            <out>720</out>
            <name>Scene - Puppet man_0003.020.png</name>
            <rate>
              <timebase>24</timebase>
              <ntsc>FALSE</ntsc>
            </rate>
            <media>
              <video>
                <track>
                  <clipitem frameBlend="FALSE" id="clipitem-23">
                    <name>Scene - Puppet man_0003.020.png</name>
                    <masterclipid>masterclip-22</masterclipid>
                    <rate>
                      <timebase>24</timebase>
                      <ntsc>FALSE</ntsc>
                    </rate>
                    <alphatype>straight</alphatype>
                    <pixelaspectratio>square</pixelaspectratio>
                    <anamorphic>FALSE</anamorphic>
                    <file id="file-22">
                      <name>Scene - Puppet man_0003.020.png</name>
                      <pathurl>file://localhost/C:/Users/jmrey/OneDrive/Desktop/Programmin Stuff/Projects/conversation-simulator/resources/videos/Scene - Puppet man_0003/Scene - Puppet man_0003.020.png</pathurl>
                      <rate>
                        <timebase>24</timebase>
                        <ntsc>FALSE</ntsc>
                      </rate>
                      <duration>720</duration>
                      <timecode>
                        <rate>
                          <timebase>24</timebase>
                          <ntsc>FALSE</ntsc>
                        </rate>
                      </timecode>
                      <media>
                        <video>
                          <duration>1</duration>
                          <samplecharacteristics>
                            <anamorphic>FALSE</anamorphic>
                            <pixelaspectratio>square</pixelaspectratio>
                            <fielddominance>none</fielddominance>
                            <width>1920</width>
                            <height>1080</height>
                          </samplecharacteristics>
                        </video>
                      </media>
                    </file>
                  </clipitem>
                </track>
              </video>
            </media>
          </clip>
          <clip explodedTracks="true" frameBlend="FALSE" id="masterclip-23">
            <uuid>059d1173-1309-4ee1-bbc1-a8901ee032bd</uuid>
            <masterclipid>masterclip-23</masterclipid>
            <ismasterclip>TRUE</ismasterclip>
            <duration>720</duration>
            <in>0</in>
            <out>720</out>
            <name>Scene - Puppet man_0003.021.png</name>
            <rate>
              <timebase>24</timebase>
              <ntsc>FALSE</ntsc>
            </rate>
            <media>
              <video>
                <track>
                  <clipitem frameBlend="FALSE" id="clipitem-24">
                    <name>Scene - Puppet man_0003.021.png</name>
                    <masterclipid>masterclip-23</masterclipid>
                    <rate>
                      <timebase>24</timebase>
                      <ntsc>FALSE</ntsc>
                    </rate>
                    <alphatype>straight</alphatype>
                    <pixelaspectratio>square</pixelaspectratio>
                    <anamorphic>FALSE</anamorphic>
                    <file id="file-23">
                      <name>Scene - Puppet man_0003.021.png</name>
                      <pathurl>file://localhost/C:/Users/jmrey/OneDrive/Desktop/Programmin Stuff/Projects/conversation-simulator/resources/videos/Scene - Puppet man_0003/Scene - Puppet man_0003.021.png</pathurl>
                      <rate>
                        <timebase>24</timebase>
                        <ntsc>FALSE</ntsc>
                      </rate>
                      <duration>720</duration>
                      <timecode>
                        <rate>
                          <timebase>24</timebase>
                          <ntsc>FALSE</ntsc>
                        </rate>
                      </timecode>
                      <media>
                        <video>
                          <duration>1</duration>
                          <samplecharacteristics>
                            <anamorphic>FALSE</anamorphic>
                            <pixelaspectratio>square</pixelaspectratio>
                            <fielddominance>none</fielddominance>
                            <width>1920</width>
                            <height>1080</height>
                          </samplecharacteristics>
                        </video>
                      </media>
                    </file>
                  </clipitem>
                </track>
              </video>
            </media>
          </clip>
          <clip explodedTracks="true" frameBlend="FALSE" id="masterclip-24">
            <uuid>8e533a49-b09e-4e00-9667-69f228d3f709</uuid>
            <masterclipid>masterclip-24</masterclipid>
            <ismasterclip>TRUE</ismasterclip>
            <duration>720</duration>
            <in>0</in>
            <out>720</out>
            <name>Scene - Puppet man_0003.022.png</name>
            <rate>
              <timebase>24</timebase>
              <ntsc>FALSE</ntsc>
            </rate>
            <media>
              <video>
                <track>
                  <clipitem frameBlend="FALSE" id="clipitem-25">
                    <name>Scene - Puppet man_0003.022.png</name>
                    <masterclipid>masterclip-24</masterclipid>
                    <rate>
                      <timebase>24</timebase>
                      <ntsc>FALSE</ntsc>
                    </rate>
                    <alphatype>straight</alphatype>
                    <pixelaspectratio>square</pixelaspectratio>
                    <anamorphic>FALSE</anamorphic>
                    <file id="file-24">
                      <name>Scene - Puppet man_0003.022.png</name>
                      <pathurl>file://localhost/C:/Users/jmrey/OneDrive/Desktop/Programmin Stuff/Projects/conversation-simulator/resources/videos/Scene - Puppet man_0003/Scene - Puppet man_0003.022.png</pathurl>
                      <rate>
                        <timebase>24</timebase>
                        <ntsc>FALSE</ntsc>
                      </rate>
                      <duration>720</duration>
                      <timecode>
                        <rate>
                          <timebase>24</timebase>
                          <ntsc>FALSE</ntsc>
                        </rate>
                      </timecode>
                      <media>
                        <video>
                          <duration>1</duration>
                          <samplecharacteristics>
                            <anamorphic>FALSE</anamorphic>
                            <pixelaspectratio>square</pixelaspectratio>
                            <fielddominance>none</fielddominance>
                            <width>1920</width>
                            <height>1080</height>
                          </samplecharacteristics>
                        </video>
                      </media>
                    </file>
                  </clipitem>
                </track>
              </video>
            </media>
          </clip>
          <clip explodedTracks="true" frameBlend="FALSE" id="masterclip-25">
            <uuid>9b70b74f-a7d9-4e3b-ae60-2f4eb82fd274</uuid>
            <masterclipid>masterclip-25</masterclipid>
            <ismasterclip>TRUE</ismasterclip>
            <duration>720</duration>
            <in>0</in>
            <out>720</out>
            <name>Scene - Puppet man_0003.023.png</name>
            <rate>
              <timebase>24</timebase>
              <ntsc>FALSE</ntsc>
            </rate>
            <media>
              <video>
                <track>
                  <clipitem frameBlend="FALSE" id="clipitem-26">
                    <name>Scene - Puppet man_0003.023.png</name>
                    <masterclipid>masterclip-25</masterclipid>
                    <rate>
                      <timebase>24</timebase>
                      <ntsc>FALSE</ntsc>
                    </rate>
                    <alphatype>straight</alphatype>
                    <pixelaspectratio>square</pixelaspectratio>
                    <anamorphic>FALSE</anamorphic>
                    <file id="file-25">
                      <name>Scene - Puppet man_0003.023.png</name>
                      <pathurl>file://localhost/C:/Users/jmrey/OneDrive/Desktop/Programmin Stuff/Projects/conversation-simulator/resources/videos/Scene - Puppet man_0003/Scene - Puppet man_0003.023.png</pathurl>
                      <rate>
                        <timebase>24</timebase>
                        <ntsc>FALSE</ntsc>
                      </rate>
                      <duration>720</duration>
                      <timecode>
                        <rate>
                          <timebase>24</timebase>
                          <ntsc>FALSE</ntsc>
                        </rate>
                      </timecode>
                      <media>
                        <video>
                          <duration>1</duration>
                          <samplecharacteristics>
                            <anamorphic>FALSE</anamorphic>
                            <pixelaspectratio>square</pixelaspectratio>
                            <fielddominance>none</fielddominance>
                            <width>1920</width>
                            <height>1080</height>
                          </samplecharacteristics>
                        </video>
                      </media>
                    </file>
                  </clipitem>
                </track>
              </video>
            </media>
          </clip>
          <clip explodedTracks="true" frameBlend="FALSE" id="masterclip-26">
            <uuid>9c50e89d-7523-4658-bc00-2641a718861b</uuid>
            <masterclipid>masterclip-26</masterclipid>
            <ismasterclip>TRUE</ismasterclip>
            <duration>720</duration>
            <in>0</in>
            <out>720</out>
            <name>Scene - Puppet man_0003.024.png</name>
            <rate>
              <timebase>24</timebase>
              <ntsc>FALSE</ntsc>
            </rate>
            <media>
              <video>
                <track>
                  <clipitem frameBlend="FALSE" id="clipitem-27">
                    <name>Scene - Puppet man_0003.024.png</name>
                    <masterclipid>masterclip-26</masterclipid>
                    <rate>
                      <timebase>24</timebase>
                      <ntsc>FALSE</ntsc>
                    </rate>
                    <alphatype>straight</alphatype>
                    <pixelaspectratio>square</pixelaspectratio>
                    <anamorphic>FALSE</anamorphic>
                    <file id="file-26">
                      <name>Scene - Puppet man_0003.024.png</name>
                      <pathurl>file://localhost/C:/Users/jmrey/OneDrive/Desktop/Programmin Stuff/Projects/conversation-simulator/resources/videos/Scene - Puppet man_0003/Scene - Puppet man_0003.024.png</pathurl>
                      <rate>
                        <timebase>24</timebase>
                        <ntsc>FALSE</ntsc>
                      </rate>
                      <duration>720</duration>
                      <timecode>
                        <rate>
                          <timebase>24</timebase>
                          <ntsc>FALSE</ntsc>
                        </rate>
                      </timecode>
                      <media>
                        <video>
                          <duration>1</duration>
                          <samplecharacteristics>
                            <anamorphic>FALSE</anamorphic>
                            <pixelaspectratio>square</pixelaspectratio>
                            <fielddominance>none</fielddominance>
                            <width>1920</width>
                            <height>1080</height>
                          </samplecharacteristics>
                        </video>
                      </media>
                    </file>
                  </clipitem>
                </track>
              </video>
            </media>
          </clip>
          <clip explodedTracks="true" frameBlend="FALSE" id="masterclip-27">
            <uuid>50a0b706-ee28-4c2b-9ea0-5af4b793c54b</uuid>
            <masterclipid>masterclip-27</masterclipid>
            <ismasterclip>TRUE</ismasterclip>
            <duration>720</duration>
            <in>0</in>
            <out>720</out>
            <name>Scene - Puppet man_0003.025.png</name>
            <rate>
              <timebase>24</timebase>
              <ntsc>FALSE</ntsc>
            </rate>
            <media>
              <video>
                <track>
                  <clipitem frameBlend="FALSE" id="clipitem-28">
                    <name>Scene - Puppet man_0003.025.png</name>
                    <masterclipid>masterclip-27</masterclipid>
                    <rate>
                      <timebase>24</timebase>
                      <ntsc>FALSE</ntsc>
                    </rate>
                    <alphatype>straight</alphatype>
                    <pixelaspectratio>square</pixelaspectratio>
                    <anamorphic>FALSE</anamorphic>
                    <file id="file-27">
                      <name>Scene - Puppet man_0003.025.png</name>
                      <pathurl>file://localhost/C:/Users/jmrey/OneDrive/Desktop/Programmin Stuff/Projects/conversation-simulator/resources/videos/Scene - Puppet man_0003/Scene - Puppet man_0003.025.png</pathurl>
                      <rate>
                        <timebase>24</timebase>
                        <ntsc>FALSE</ntsc>
                      </rate>
                      <duration>720</duration>
                      <timecode>
                        <rate>
                          <timebase>24</timebase>
                          <ntsc>FALSE</ntsc>
                        </rate>
                      </timecode>
                      <media>
                        <video>
                          <duration>1</duration>
                          <samplecharacteristics>
                            <anamorphic>FALSE</anamorphic>
                            <pixelaspectratio>square</pixelaspectratio>
                            <fielddominance>none</fielddominance>
                            <width>1920</width>
                            <height>1080</height>
                          </samplecharacteristics>
                        </video>
                      </media>
                    </file>
                  </clipitem>
                </track>
              </video>
            </media>
          </clip>
          <clip explodedTracks="true" frameBlend="FALSE" id="masterclip-28">
            <uuid>e323cbe2-af43-425e-8469-f312ddf8f734</uuid>
            <masterclipid>masterclip-28</masterclipid>
            <ismasterclip>TRUE</ismasterclip>
            <duration>720</duration>
            <in>0</in>
            <out>720</out>
            <name>Scene - Puppet man_0003.026.png</name>
            <rate>
              <timebase>24</timebase>
              <ntsc>FALSE</ntsc>
            </rate>
            <media>
              <video>
                <track>
                  <clipitem frameBlend="FALSE" id="clipitem-29">
                    <name>Scene - Puppet man_0003.026.png</name>
                    <masterclipid>masterclip-28</masterclipid>
                    <rate>
                      <timebase>24</timebase>
                      <ntsc>FALSE</ntsc>
                    </rate>
                    <alphatype>straight</alphatype>
                    <pixelaspectratio>square</pixelaspectratio>
                    <anamorphic>FALSE</anamorphic>
                    <file id="file-28">
                      <name>Scene - Puppet man_0003.026.png</name>
                      <pathurl>file://localhost/C:/Users/jmrey/OneDrive/Desktop/Programmin Stuff/Projects/conversation-simulator/resources/videos/Scene - Puppet man_0003/Scene - Puppet man_0003.026.png</pathurl>
                      <rate>
                        <timebase>24</timebase>
                        <ntsc>FALSE</ntsc>
                      </rate>
                      <duration>720</duration>
                      <timecode>
                        <rate>
                          <timebase>24</timebase>
                          <ntsc>FALSE</ntsc>
                        </rate>
                      </timecode>
                      <media>
                        <video>
                          <duration>1</duration>
                          <samplecharacteristics>
                            <anamorphic>FALSE</anamorphic>
                            <pixelaspectratio>square</pixelaspectratio>
                            <fielddominance>none</fielddominance>
                            <width>1920</width>
                            <height>1080</height>
                          </samplecharacteristics>
                        </video>
                      </media>
                    </file>
                  </clipitem>
                </track>
              </video>
            </media>
          </clip>
          <clip explodedTracks="true" frameBlend="FALSE" id="masterclip-29">
            <uuid>f9f2b31d-0d39-4964-bdc8-3a6ac7e0b6b8</uuid>
            <masterclipid>masterclip-29</masterclipid>
            <ismasterclip>TRUE</ismasterclip>
            <duration>720</duration>
            <in>0</in>
            <out>720</out>
            <name>Scene - Puppet man_0003.027.png</name>
            <rate>
              <timebase>24</timebase>
              <ntsc>FALSE</ntsc>
            </rate>
            <media>
              <video>
                <track>
                  <clipitem frameBlend="FALSE" id="clipitem-30">
                    <name>Scene - Puppet man_0003.027.png</name>
                    <masterclipid>masterclip-29</masterclipid>
                    <rate>
                      <timebase>24</timebase>
                      <ntsc>FALSE</ntsc>
                    </rate>
                    <alphatype>straight</alphatype>
                    <pixelaspectratio>square</pixelaspectratio>
                    <anamorphic>FALSE</anamorphic>
                    <file id="file-29">
                      <name>Scene - Puppet man_0003.027.png</name>
                      <pathurl>file://localhost/C:/Users/jmrey/OneDrive/Desktop/Programmin Stuff/Projects/conversation-simulator/resources/videos/Scene - Puppet man_0003/Scene - Puppet man_0003.027.png</pathurl>
                      <rate>
                        <timebase>24</timebase>
                        <ntsc>FALSE</ntsc>
                      </rate>
                      <duration>720</duration>
                      <timecode>
                        <rate>
                          <timebase>24</timebase>
                          <ntsc>FALSE</ntsc>
                        </rate>
                      </timecode>
                      <media>
                        <video>
                          <duration>1</duration>
                          <samplecharacteristics>
                            <anamorphic>FALSE</anamorphic>
                            <pixelaspectratio>square</pixelaspectratio>
                            <fielddominance>none</fielddominance>
                            <width>1920</width>
                            <height>1080</height>
                          </samplecharacteristics>
                        </video>
                      </media>
                    </file>
                  </clipitem>
                </track>
              </video>
            </media>
          </clip>
          <clip explodedTracks="true" frameBlend="FALSE" id="masterclip-30">
            <uuid>4f12b8e3-708b-45e9-8a42-4348babc2272</uuid>
            <masterclipid>masterclip-30</masterclipid>
            <ismasterclip>TRUE</ismasterclip>
            <duration>720</duration>
            <in>0</in>
            <out>720</out>
            <name>Scene - Puppet man_0003.028.png</name>
            <rate>
              <timebase>24</timebase>
              <ntsc>FALSE</ntsc>
            </rate>
            <media>
              <video>
                <track>
                  <clipitem frameBlend="FALSE" id="clipitem-31">
                    <name>Scene - Puppet man_0003.028.png</name>
                    <masterclipid>masterclip-30</masterclipid>
                    <rate>
                      <timebase>24</timebase>
                      <ntsc>FALSE</ntsc>
                    </rate>
                    <alphatype>straight</alphatype>
                    <pixelaspectratio>square</pixelaspectratio>
                    <anamorphic>FALSE</anamorphic>
                    <file id="file-30">
                      <name>Scene - Puppet man_0003.028.png</name>
                      <pathurl>file://localhost/C:/Users/jmrey/OneDrive/Desktop/Programmin Stuff/Projects/conversation-simulator/resources/videos/Scene - Puppet man_0003/Scene - Puppet man_0003.028.png</pathurl>
                      <rate>
                        <timebase>24</timebase>
                        <ntsc>FALSE</ntsc>
                      </rate>
                      <duration>720</duration>
                      <timecode>
                        <rate>
                          <timebase>24</timebase>
                          <ntsc>FALSE</ntsc>
                        </rate>
                      </timecode>
                      <media>
                        <video>
                          <duration>1</duration>
                          <samplecharacteristics>
                            <anamorphic>FALSE</anamorphic>
                            <pixelaspectratio>square</pixelaspectratio>
                            <fielddominance>none</fielddominance>
                            <width>1920</width>
                            <height>1080</height>
                          </samplecharacteristics>
                        </video>
                      </media>
                    </file>
                  </clipitem>
                </track>
              </video>
            </media>
          </clip>
          <clip explodedTracks="true" frameBlend="FALSE" id="masterclip-31">
            <uuid>58ddc485-1c81-4802-b97a-030e805e9cde</uuid>
            <masterclipid>masterclip-31</masterclipid>
            <ismasterclip>TRUE</ismasterclip>
            <duration>720</duration>
            <in>0</in>
            <out>720</out>
            <name>Scene - Puppet man_0003.029.png</name>
            <rate>
              <timebase>24</timebase>
              <ntsc>FALSE</ntsc>
            </rate>
            <media>
              <video>
                <track>
                  <clipitem frameBlend="FALSE" id="clipitem-32">
                    <name>Scene - Puppet man_0003.029.png</name>
                    <masterclipid>masterclip-31</masterclipid>
                    <rate>
                      <timebase>24</timebase>
                      <ntsc>FALSE</ntsc>
                    </rate>
                    <alphatype>straight</alphatype>
                    <pixelaspectratio>square</pixelaspectratio>
                    <anamorphic>FALSE</anamorphic>
                    <file id="file-31">
                      <name>Scene - Puppet man_0003.029.png</name>
                      <pathurl>file://localhost/C:/Users/jmrey/OneDrive/Desktop/Programmin Stuff/Projects/conversation-simulator/resources/videos/Scene - Puppet man_0003/Scene - Puppet man_0003.029.png</pathurl>
                      <rate>
                        <timebase>24</timebase>
                        <ntsc>FALSE</ntsc>
                      </rate>
                      <duration>720</duration>
                      <timecode>
                        <rate>
                          <timebase>24</timebase>
                          <ntsc>FALSE</ntsc>
                        </rate>
                      </timecode>
                      <media>
                        <video>
                          <duration>1</duration>
                          <samplecharacteristics>
                            <anamorphic>FALSE</anamorphic>
                            <pixelaspectratio>square</pixelaspectratio>
                            <fielddominance>none</fielddominance>
                            <width>1920</width>
                            <height>1080</height>
                          </samplecharacteristics>
                        </video>
                      </media>
                    </file>
                  </clipitem>
                </track>
              </video>
            </media>
          </clip>
          <clip explodedTracks="true" frameBlend="FALSE" id="masterclip-32">
            <uuid>1e40ba24-81eb-4abf-b350-cc7a1006a4ae</uuid>
            <masterclipid>masterclip-32</masterclipid>
            <ismasterclip>TRUE</ismasterclip>
            <duration>720</duration>
            <in>0</in>
            <out>720</out>
            <name>Scene - Puppet man_0003.030.png</name>
            <rate>
              <timebase>24</timebase>
              <ntsc>FALSE</ntsc>
            </rate>
            <media>
              <video>
                <track>
                  <clipitem frameBlend="FALSE" id="clipitem-33">
                    <name>Scene - Puppet man_0003.030.png</name>
                    <masterclipid>masterclip-32</masterclipid>
                    <rate>
                      <timebase>24</timebase>
                      <ntsc>FALSE</ntsc>
                    </rate>
                    <alphatype>straight</alphatype>
                    <pixelaspectratio>square</pixelaspectratio>
                    <anamorphic>FALSE</anamorphic>
                    <file id="file-32">
                      <name>Scene - Puppet man_0003.030.png</name>
                      <pathurl>file://localhost/C:/Users/jmrey/OneDrive/Desktop/Programmin Stuff/Projects/conversation-simulator/resources/videos/Scene - Puppet man_0003/Scene - Puppet man_0003.030.png</pathurl>
                      <rate>
                        <timebase>24</timebase>
                        <ntsc>FALSE</ntsc>
                      </rate>
                      <duration>720</duration>
                      <timecode>
                        <rate>
                          <timebase>24</timebase>
                          <ntsc>FALSE</ntsc>
                        </rate>
                      </timecode>
                      <media>
                        <video>
                          <duration>1</duration>
                          <samplecharacteristics>
                            <anamorphic>FALSE</anamorphic>
                            <pixelaspectratio>square</pixelaspectratio>
                            <fielddominance>none</fielddominance>
                            <width>1920</width>
                            <height>1080</height>
                          </samplecharacteristics>
                        </video>
                      </media>
                    </file>
                  </clipitem>
                </track>
              </video>
            </media>
          </clip>
          <clip explodedTracks="true" frameBlend="FALSE" id="masterclip-33">
            <uuid>95d0d9df-401d-4013-b6be-f1a6e630c241</uuid>
            <masterclipid>masterclip-33</masterclipid>
            <ismasterclip>TRUE</ismasterclip>
            <duration>720</duration>
            <in>0</in>
            <out>720</out>
            <name>Scene - Puppet man_0003.031.png</name>
            <rate>
              <timebase>24</timebase>
              <ntsc>FALSE</ntsc>
            </rate>
            <media>
              <video>
                <track>
                  <clipitem frameBlend="FALSE" id="clipitem-34">
                    <name>Scene - Puppet man_0003.031.png</name>
                    <masterclipid>masterclip-33</masterclipid>
                    <rate>
                      <timebase>24</timebase>
                      <ntsc>FALSE</ntsc>
                    </rate>
                    <alphatype>straight</alphatype>
                    <pixelaspectratio>square</pixelaspectratio>
                    <anamorphic>FALSE</anamorphic>
                    <file id="file-33">
                      <name>Scene - Puppet man_0003.031.png</name>
                      <pathurl>file://localhost/C:/Users/jmrey/OneDrive/Desktop/Programmin Stuff/Projects/conversation-simulator/resources/videos/Scene - Puppet man_0003/Scene - Puppet man_0003.031.png</pathurl>
                      <rate>
                        <timebase>24</timebase>
                        <ntsc>FALSE</ntsc>
                      </rate>
                      <duration>720</duration>
                      <timecode>
                        <rate>
                          <timebase>24</timebase>
                          <ntsc>FALSE</ntsc>
                        </rate>
                      </timecode>
                      <media>
                        <video>
                          <duration>1</duration>
                          <samplecharacteristics>
                            <anamorphic>FALSE</anamorphic>
                            <pixelaspectratio>square</pixelaspectratio>
                            <fielddominance>none</fielddominance>
                            <width>1920</width>
                            <height>1080</height>
                          </samplecharacteristics>
                        </video>
                      </media>
                    </file>
                  </clipitem>
                </track>
              </video>
            </media>
          </clip>
          <clip explodedTracks="true" frameBlend="FALSE" id="masterclip-34">
            <uuid>89b7087f-3d38-4084-8c87-51781644a08b</uuid>
            <masterclipid>masterclip-34</masterclipid>
            <ismasterclip>TRUE</ismasterclip>
            <duration>720</duration>
            <in>0</in>
            <out>720</out>
            <name>Scene - Puppet man_0003.032.png</name>
            <rate>
              <timebase>24</timebase>
              <ntsc>FALSE</ntsc>
            </rate>
            <media>
              <video>
                <track>
                  <clipitem frameBlend="FALSE" id="clipitem-35">
                    <name>Scene - Puppet man_0003.032.png</name>
                    <masterclipid>masterclip-34</masterclipid>
                    <rate>
                      <timebase>24</timebase>
                      <ntsc>FALSE</ntsc>
                    </rate>
                    <alphatype>straight</alphatype>
                    <pixelaspectratio>square</pixelaspectratio>
                    <anamorphic>FALSE</anamorphic>
                    <file id="file-34">
                      <name>Scene - Puppet man_0003.032.png</name>
                      <pathurl>file://localhost/C:/Users/jmrey/OneDrive/Desktop/Programmin Stuff/Projects/conversation-simulator/resources/videos/Scene - Puppet man_0003/Scene - Puppet man_0003.032.png</pathurl>
                      <rate>
                        <timebase>24</timebase>
                        <ntsc>FALSE</ntsc>
                      </rate>
                      <duration>720</duration>
                      <timecode>
                        <rate>
                          <timebase>24</timebase>
                          <ntsc>FALSE</ntsc>
                        </rate>
                      </timecode>
                      <media>
                        <video>
                          <duration>1</duration>
                          <samplecharacteristics>
                            <anamorphic>FALSE</anamorphic>
                            <pixelaspectratio>square</pixelaspectratio>
                            <fielddominance>none</fielddominance>
                            <width>1920</width>
                            <height>1080</height>
                          </samplecharacteristics>
                        </video>
                      </media>
                    </file>
                  </clipitem>
                </track>
              </video>
            </media>
          </clip>
          <clip explodedTracks="true" frameBlend="FALSE" id="masterclip-35">
            <uuid>389f9018-4f70-41f0-8670-38e776810c60</uuid>
            <masterclipid>masterclip-35</masterclipid>
            <ismasterclip>TRUE</ismasterclip>
            <duration>720</duration>
            <in>0</in>
            <out>720</out>
            <name>Scene - Puppet man_0003.033.png</name>
            <rate>
              <timebase>24</timebase>
              <ntsc>FALSE</ntsc>
            </rate>
            <media>
              <video>
                <track>
                  <clipitem frameBlend="FALSE" id="clipitem-36">
                    <name>Scene - Puppet man_0003.033.png</name>
                    <masterclipid>masterclip-35</masterclipid>
                    <rate>
                      <timebase>24</timebase>
                      <ntsc>FALSE</ntsc>
                    </rate>
                    <alphatype>straight</alphatype>
                    <pixelaspectratio>square</pixelaspectratio>
                    <anamorphic>FALSE</anamorphic>
                    <file id="file-35">
                      <name>Scene - Puppet man_0003.033.png</name>
                      <pathurl>file://localhost/C:/Users/jmrey/OneDrive/Desktop/Programmin Stuff/Projects/conversation-simulator/resources/videos/Scene - Puppet man_0003/Scene - Puppet man_0003.033.png</pathurl>
                      <rate>
                        <timebase>24</timebase>
                        <ntsc>FALSE</ntsc>
                      </rate>
                      <duration>720</duration>
                      <timecode>
                        <rate>
                          <timebase>24</timebase>
                          <ntsc>FALSE</ntsc>
                        </rate>
                      </timecode>
                      <media>
                        <video>
                          <duration>1</duration>
                          <samplecharacteristics>
                            <anamorphic>FALSE</anamorphic>
                            <pixelaspectratio>square</pixelaspectratio>
                            <fielddominance>none</fielddominance>
                            <width>1920</width>
                            <height>1080</height>
                          </samplecharacteristics>
                        </video>
                      </media>
                    </file>
                  </clipitem>
                </track>
              </video>
            </media>
          </clip>
          <clip explodedTracks="true" frameBlend="FALSE" id="masterclip-36">
            <uuid>87ab6f1c-d488-4e20-b8a2-f99249b6da51</uuid>
            <masterclipid>masterclip-36</masterclipid>
            <ismasterclip>TRUE</ismasterclip>
            <duration>720</duration>
            <in>0</in>
            <out>720</out>
            <name>Scene - Puppet man_0003.034.png</name>
            <rate>
              <timebase>24</timebase>
              <ntsc>FALSE</ntsc>
            </rate>
            <media>
              <video>
                <track>
                  <clipitem frameBlend="FALSE" id="clipitem-37">
                    <name>Scene - Puppet man_0003.034.png</name>
                    <masterclipid>masterclip-36</masterclipid>
                    <rate>
                      <timebase>24</timebase>
                      <ntsc>FALSE</ntsc>
                    </rate>
                    <alphatype>straight</alphatype>
                    <pixelaspectratio>square</pixelaspectratio>
                    <anamorphic>FALSE</anamorphic>
                    <file id="file-36">
                      <name>Scene - Puppet man_0003.034.png</name>
                      <pathurl>file://localhost/C:/Users/jmrey/OneDrive/Desktop/Programmin Stuff/Projects/conversation-simulator/resources/videos/Scene - Puppet man_0003/Scene - Puppet man_0003.034.png</pathurl>
                      <rate>
                        <timebase>24</timebase>
                        <ntsc>FALSE</ntsc>
                      </rate>
                      <duration>720</duration>
                      <timecode>
                        <rate>
                          <timebase>24</timebase>
                          <ntsc>FALSE</ntsc>
                        </rate>
                      </timecode>
                      <media>
                        <video>
                          <duration>1</duration>
                          <samplecharacteristics>
                            <anamorphic>FALSE</anamorphic>
                            <pixelaspectratio>square</pixelaspectratio>
                            <fielddominance>none</fielddominance>
                            <width>1920</width>
                            <height>1080</height>
                          </samplecharacteristics>
                        </video>
                      </media>
                    </file>
                  </clipitem>
                </track>
              </video>
            </media>
          </clip>
          <clip explodedTracks="true" frameBlend="FALSE" id="masterclip-37">
            <uuid>435ade20-6a03-46d6-983c-5d048dfad7a5</uuid>
            <masterclipid>masterclip-37</masterclipid>
            <ismasterclip>TRUE</ismasterclip>
            <duration>720</duration>
            <in>0</in>
            <out>720</out>
            <name>Scene - Puppet man_0003.035.png</name>
            <rate>
              <timebase>24</timebase>
              <ntsc>FALSE</ntsc>
            </rate>
            <media>
              <video>
                <track>
                  <clipitem frameBlend="FALSE" id="clipitem-38">
                    <name>Scene - Puppet man_0003.035.png</name>
                    <masterclipid>masterclip-37</masterclipid>
                    <rate>
                      <timebase>24</timebase>
                      <ntsc>FALSE</ntsc>
                    </rate>
                    <alphatype>straight</alphatype>
                    <pixelaspectratio>square</pixelaspectratio>
                    <anamorphic>FALSE</anamorphic>
                    <file id="file-37">
                      <name>Scene - Puppet man_0003.035.png</name>
                      <pathurl>file://localhost/C:/Users/jmrey/OneDrive/Desktop/Programmin Stuff/Projects/conversation-simulator/resources/videos/Scene - Puppet man_0003/Scene - Puppet man_0003.035.png</pathurl>
                      <rate>
                        <timebase>24</timebase>
                        <ntsc>FALSE</ntsc>
                      </rate>
                      <duration>720</duration>
                      <timecode>
                        <rate>
                          <timebase>24</timebase>
                          <ntsc>FALSE</ntsc>
                        </rate>
                      </timecode>
                      <media>
                        <video>
                          <duration>1</duration>
                          <samplecharacteristics>
                            <anamorphic>FALSE</anamorphic>
                            <pixelaspectratio>square</pixelaspectratio>
                            <fielddominance>none</fielddominance>
                            <width>1920</width>
                            <height>1080</height>
                          </samplecharacteristics>
                        </video>
                      </media>
                    </file>
                  </clipitem>
                </track>
              </video>
            </media>
          </clip>
          <clip explodedTracks="true" frameBlend="FALSE" id="masterclip-38">
            <uuid>36ade079-2205-4aa7-a01d-41dc73d23f6a</uuid>
            <masterclipid>masterclip-38</masterclipid>
            <ismasterclip>TRUE</ismasterclip>
            <duration>720</duration>
            <in>0</in>
            <out>720</out>
            <name>Scene - Puppet man_0003.036.png</name>
            <rate>
              <timebase>24</timebase>
              <ntsc>FALSE</ntsc>
            </rate>
            <media>
              <video>
                <track>
                  <clipitem frameBlend="FALSE" id="clipitem-39">
                    <name>Scene - Puppet man_0003.036.png</name>
                    <masterclipid>masterclip-38</masterclipid>
                    <rate>
                      <timebase>24</timebase>
                      <ntsc>FALSE</ntsc>
                    </rate>
                    <alphatype>straight</alphatype>
                    <pixelaspectratio>square</pixelaspectratio>
                    <anamorphic>FALSE</anamorphic>
                    <file id="file-38">
                      <name>Scene - Puppet man_0003.036.png</name>
                      <pathurl>file://localhost/C:/Users/jmrey/OneDrive/Desktop/Programmin Stuff/Projects/conversation-simulator/resources/videos/Scene - Puppet man_0003/Scene - Puppet man_0003.036.png</pathurl>
                      <rate>
                        <timebase>24</timebase>
                        <ntsc>FALSE</ntsc>
                      </rate>
                      <duration>720</duration>
                      <timecode>
                        <rate>
                          <timebase>24</timebase>
                          <ntsc>FALSE</ntsc>
                        </rate>
                      </timecode>
                      <media>
                        <video>
                          <duration>1</duration>
                          <samplecharacteristics>
                            <anamorphic>FALSE</anamorphic>
                            <pixelaspectratio>square</pixelaspectratio>
                            <fielddominance>none</fielddominance>
                            <width>1920</width>
                            <height>1080</height>
                          </samplecharacteristics>
                        </video>
                      </media>
                    </file>
                  </clipitem>
                </track>
              </video>
            </media>
          </clip>
          <clip explodedTracks="true" frameBlend="FALSE" id="masterclip-39">
            <uuid>a7ce26c1-c8dd-48e7-9cb8-98444e0469c2</uuid>
            <masterclipid>masterclip-39</masterclipid>
            <ismasterclip>TRUE</ismasterclip>
            <duration>720</duration>
            <in>0</in>
            <out>720</out>
            <name>Scene - Puppet man_0003.037.png</name>
            <rate>
              <timebase>24</timebase>
              <ntsc>FALSE</ntsc>
            </rate>
            <media>
              <video>
                <track>
                  <clipitem frameBlend="FALSE" id="clipitem-40">
                    <name>Scene - Puppet man_0003.037.png</name>
                    <masterclipid>masterclip-39</masterclipid>
                    <rate>
                      <timebase>24</timebase>
                      <ntsc>FALSE</ntsc>
                    </rate>
                    <alphatype>straight</alphatype>
                    <pixelaspectratio>square</pixelaspectratio>
                    <anamorphic>FALSE</anamorphic>
                    <file id="file-39">
                      <name>Scene - Puppet man_0003.037.png</name>
                      <pathurl>file://localhost/C:/Users/jmrey/OneDrive/Desktop/Programmin Stuff/Projects/conversation-simulator/resources/videos/Scene - Puppet man_0003/Scene - Puppet man_0003.037.png</pathurl>
                      <rate>
                        <timebase>24</timebase>
                        <ntsc>FALSE</ntsc>
                      </rate>
                      <duration>720</duration>
                      <timecode>
                        <rate>
                          <timebase>24</timebase>
                          <ntsc>FALSE</ntsc>
                        </rate>
                      </timecode>
                      <media>
                        <video>
                          <duration>1</duration>
                          <samplecharacteristics>
                            <anamorphic>FALSE</anamorphic>
                            <pixelaspectratio>square</pixelaspectratio>
                            <fielddominance>none</fielddominance>
                            <width>1920</width>
                            <height>1080</height>
                          </samplecharacteristics>
                        </video>
                      </media>
                    </file>
                  </clipitem>
                </track>
              </video>
            </media>
          </clip>
          <clip explodedTracks="true" frameBlend="FALSE" id="masterclip-40">
            <uuid>e7cf37cf-daa0-4106-b2af-eb4845d300ab</uuid>
            <masterclipid>masterclip-40</masterclipid>
            <ismasterclip>TRUE</ismasterclip>
            <duration>720</duration>
            <in>0</in>
            <out>720</out>
            <name>Scene - Puppet man_0003.038.png</name>
            <rate>
              <timebase>24</timebase>
              <ntsc>FALSE</ntsc>
            </rate>
            <media>
              <video>
                <track>
                  <clipitem frameBlend="FALSE" id="clipitem-41">
                    <name>Scene - Puppet man_0003.038.png</name>
                    <masterclipid>masterclip-40</masterclipid>
                    <rate>
                      <timebase>24</timebase>
                      <ntsc>FALSE</ntsc>
                    </rate>
                    <alphatype>straight</alphatype>
                    <pixelaspectratio>square</pixelaspectratio>
                    <anamorphic>FALSE</anamorphic>
                    <file id="file-40">
                      <name>Scene - Puppet man_0003.038.png</name>
                      <pathurl>file://localhost/C:/Users/jmrey/OneDrive/Desktop/Programmin Stuff/Projects/conversation-simulator/resources/videos/Scene - Puppet man_0003/Scene - Puppet man_0003.038.png</pathurl>
                      <rate>
                        <timebase>24</timebase>
                        <ntsc>FALSE</ntsc>
                      </rate>
                      <duration>720</duration>
                      <timecode>
                        <rate>
                          <timebase>24</timebase>
                          <ntsc>FALSE</ntsc>
                        </rate>
                      </timecode>
                      <media>
                        <video>
                          <duration>1</duration>
                          <samplecharacteristics>
                            <anamorphic>FALSE</anamorphic>
                            <pixelaspectratio>square</pixelaspectratio>
                            <fielddominance>none</fielddominance>
                            <width>1920</width>
                            <height>1080</height>
                          </samplecharacteristics>
                        </video>
                      </media>
                    </file>
                  </clipitem>
                </track>
              </video>
            </media>
          </clip>
          <clip explodedTracks="true" frameBlend="FALSE" id="masterclip-41">
            <uuid>aa42d3d7-0dbd-440f-a658-30a11c741748</uuid>
            <masterclipid>masterclip-41</masterclipid>
            <ismasterclip>TRUE</ismasterclip>
            <duration>720</duration>
            <in>0</in>
            <out>720</out>
            <name>Scene - Puppet man_0003.039.png</name>
            <rate>
              <timebase>24</timebase>
              <ntsc>FALSE</ntsc>
            </rate>
            <media>
              <video>
                <track>
                  <clipitem frameBlend="FALSE" id="clipitem-42">
                    <name>Scene - Puppet man_0003.039.png</name>
                    <masterclipid>masterclip-41</masterclipid>
                    <rate>
                      <timebase>24</timebase>
                      <ntsc>FALSE</ntsc>
                    </rate>
                    <alphatype>straight</alphatype>
                    <pixelaspectratio>square</pixelaspectratio>
                    <anamorphic>FALSE</anamorphic>
                    <file id="file-41">
                      <name>Scene - Puppet man_0003.039.png</name>
                      <pathurl>file://localhost/C:/Users/jmrey/OneDrive/Desktop/Programmin Stuff/Projects/conversation-simulator/resources/videos/Scene - Puppet man_0003/Scene - Puppet man_0003.039.png</pathurl>
                      <rate>
                        <timebase>24</timebase>
                        <ntsc>FALSE</ntsc>
                      </rate>
                      <duration>720</duration>
                      <timecode>
                        <rate>
                          <timebase>24</timebase>
                          <ntsc>FALSE</ntsc>
                        </rate>
                      </timecode>
                      <media>
                        <video>
                          <duration>1</duration>
                          <samplecharacteristics>
                            <anamorphic>FALSE</anamorphic>
                            <pixelaspectratio>square</pixelaspectratio>
                            <fielddominance>none</fielddominance>
                            <width>1920</width>
                            <height>1080</height>
                          </samplecharacteristics>
                        </video>
                      </media>
                    </file>
                  </clipitem>
                </track>
              </video>
            </media>
          </clip>
          <clip explodedTracks="true" frameBlend="FALSE" id="masterclip-42">
            <uuid>ccd2cf73-133d-4cdd-89ec-fc9b56781a2b</uuid>
            <masterclipid>masterclip-42</masterclipid>
            <ismasterclip>TRUE</ismasterclip>
            <duration>720</duration>
            <in>0</in>
            <out>720</out>
            <name>Scene - Puppet man_0003.040.png</name>
            <rate>
              <timebase>24</timebase>
              <ntsc>FALSE</ntsc>
            </rate>
            <media>
              <video>
                <track>
                  <clipitem frameBlend="FALSE" id="clipitem-43">
                    <name>Scene - Puppet man_0003.040.png</name>
                    <masterclipid>masterclip-42</masterclipid>
                    <rate>
                      <timebase>24</timebase>
                      <ntsc>FALSE</ntsc>
                    </rate>
                    <alphatype>straight</alphatype>
                    <pixelaspectratio>square</pixelaspectratio>
                    <anamorphic>FALSE</anamorphic>
                    <file id="file-42">
                      <name>Scene - Puppet man_0003.040.png</name>
                      <pathurl>file://localhost/C:/Users/jmrey/OneDrive/Desktop/Programmin Stuff/Projects/conversation-simulator/resources/videos/Scene - Puppet man_0003/Scene - Puppet man_0003.040.png</pathurl>
                      <rate>
                        <timebase>24</timebase>
                        <ntsc>FALSE</ntsc>
                      </rate>
                      <duration>720</duration>
                      <timecode>
                        <rate>
                          <timebase>24</timebase>
                          <ntsc>FALSE</ntsc>
                        </rate>
                      </timecode>
                      <media>
                        <video>
                          <duration>1</duration>
                          <samplecharacteristics>
                            <anamorphic>FALSE</anamorphic>
                            <pixelaspectratio>square</pixelaspectratio>
                            <fielddominance>none</fielddominance>
                            <width>1920</width>
                            <height>1080</height>
                          </samplecharacteristics>
                        </video>
                      </media>
                    </file>
                  </clipitem>
                </track>
              </video>
            </media>
          </clip>
          <clip explodedTracks="true" frameBlend="FALSE" id="masterclip-43">
            <uuid>3f454f12-0b85-42be-a426-c6f3f5b44016</uuid>
            <masterclipid>masterclip-43</masterclipid>
            <ismasterclip>TRUE</ismasterclip>
            <duration>720</duration>
            <in>0</in>
            <out>720</out>
            <name>Scene - Puppet man_0003.041.png</name>
            <rate>
              <timebase>24</timebase>
              <ntsc>FALSE</ntsc>
            </rate>
            <media>
              <video>
                <track>
                  <clipitem frameBlend="FALSE" id="clipitem-44">
                    <name>Scene - Puppet man_0003.041.png</name>
                    <masterclipid>masterclip-43</masterclipid>
                    <rate>
                      <timebase>24</timebase>
                      <ntsc>FALSE</ntsc>
                    </rate>
                    <alphatype>straight</alphatype>
                    <pixelaspectratio>square</pixelaspectratio>
                    <anamorphic>FALSE</anamorphic>
                    <file id="file-43">
                      <name>Scene - Puppet man_0003.041.png</name>
                      <pathurl>file://localhost/C:/Users/jmrey/OneDrive/Desktop/Programmin Stuff/Projects/conversation-simulator/resources/videos/Scene - Puppet man_0003/Scene - Puppet man_0003.041.png</pathurl>
                      <rate>
                        <timebase>24</timebase>
                        <ntsc>FALSE</ntsc>
                      </rate>
                      <duration>720</duration>
                      <timecode>
                        <rate>
                          <timebase>24</timebase>
                          <ntsc>FALSE</ntsc>
                        </rate>
                      </timecode>
                      <media>
                        <video>
                          <duration>1</duration>
                          <samplecharacteristics>
                            <anamorphic>FALSE</anamorphic>
                            <pixelaspectratio>square</pixelaspectratio>
                            <fielddominance>none</fielddominance>
                            <width>1920</width>
                            <height>1080</height>
                          </samplecharacteristics>
                        </video>
                      </media>
                    </file>
                  </clipitem>
                </track>
              </video>
            </media>
          </clip>
          <clip explodedTracks="true" frameBlend="FALSE" id="masterclip-44">
            <uuid>c7e1e6bb-904f-49b9-aebc-22a1a95d5275</uuid>
            <masterclipid>masterclip-44</masterclipid>
            <ismasterclip>TRUE</ismasterclip>
            <duration>720</duration>
            <in>0</in>
            <out>720</out>
            <name>Scene - Puppet man_0003.042.png</name>
            <rate>
              <timebase>24</timebase>
              <ntsc>FALSE</ntsc>
            </rate>
            <media>
              <video>
                <track>
                  <clipitem frameBlend="FALSE" id="clipitem-45">
                    <name>Scene - Puppet man_0003.042.png</name>
                    <masterclipid>masterclip-44</masterclipid>
                    <rate>
                      <timebase>24</timebase>
                      <ntsc>FALSE</ntsc>
                    </rate>
                    <alphatype>straight</alphatype>
                    <pixelaspectratio>square</pixelaspectratio>
                    <anamorphic>FALSE</anamorphic>
                    <file id="file-44">
                      <name>Scene - Puppet man_0003.042.png</name>
                      <pathurl>file://localhost/C:/Users/jmrey/OneDrive/Desktop/Programmin Stuff/Projects/conversation-simulator/resources/videos/Scene - Puppet man_0003/Scene - Puppet man_0003.042.png</pathurl>
                      <rate>
                        <timebase>24</timebase>
                        <ntsc>FALSE</ntsc>
                      </rate>
                      <duration>720</duration>
                      <timecode>
                        <rate>
                          <timebase>24</timebase>
                          <ntsc>FALSE</ntsc>
                        </rate>
                      </timecode>
                      <media>
                        <video>
                          <duration>1</duration>
                          <samplecharacteristics>
                            <anamorphic>FALSE</anamorphic>
                            <pixelaspectratio>square</pixelaspectratio>
                            <fielddominance>none</fielddominance>
                            <width>1920</width>
                            <height>1080</height>
                          </samplecharacteristics>
                        </video>
                      </media>
                    </file>
                  </clipitem>
                </track>
              </video>
            </media>
          </clip>
          <clip explodedTracks="true" frameBlend="FALSE" id="masterclip-45">
            <uuid>1bcad997-3722-40c5-952a-3511eca7e0a6</uuid>
            <masterclipid>masterclip-45</masterclipid>
            <ismasterclip>TRUE</ismasterclip>
            <duration>720</duration>
            <in>0</in>
            <out>720</out>
            <name>Scene - Puppet man_0003.043.png</name>
            <rate>
              <timebase>24</timebase>
              <ntsc>FALSE</ntsc>
            </rate>
            <media>
              <video>
                <track>
                  <clipitem frameBlend="FALSE" id="clipitem-46">
                    <name>Scene - Puppet man_0003.043.png</name>
                    <masterclipid>masterclip-45</masterclipid>
                    <rate>
                      <timebase>24</timebase>
                      <ntsc>FALSE</ntsc>
                    </rate>
                    <alphatype>straight</alphatype>
                    <pixelaspectratio>square</pixelaspectratio>
                    <anamorphic>FALSE</anamorphic>
                    <file id="file-45">
                      <name>Scene - Puppet man_0003.043.png</name>
                      <pathurl>file://localhost/C:/Users/jmrey/OneDrive/Desktop/Programmin Stuff/Projects/conversation-simulator/resources/videos/Scene - Puppet man_0003/Scene - Puppet man_0003.043.png</pathurl>
                      <rate>
                        <timebase>24</timebase>
                        <ntsc>FALSE</ntsc>
                      </rate>
                      <duration>720</duration>
                      <timecode>
                        <rate>
                          <timebase>24</timebase>
                          <ntsc>FALSE</ntsc>
                        </rate>
                      </timecode>
                      <media>
                        <video>
                          <duration>1</duration>
                          <samplecharacteristics>
                            <anamorphic>FALSE</anamorphic>
                            <pixelaspectratio>square</pixelaspectratio>
                            <fielddominance>none</fielddominance>
                            <width>1920</width>
                            <height>1080</height>
                          </samplecharacteristics>
                        </video>
                      </media>
                    </file>
                  </clipitem>
                </track>
              </video>
            </media>
          </clip>
          <clip explodedTracks="true" frameBlend="FALSE" id="masterclip-46">
            <uuid>d7f55f98-4f38-4dbe-8769-982d274c6f89</uuid>
            <masterclipid>masterclip-46</masterclipid>
            <ismasterclip>TRUE</ismasterclip>
            <duration>720</duration>
            <in>0</in>
            <out>720</out>
            <name>Scene - Puppet man_0003.044.png</name>
            <rate>
              <timebase>24</timebase>
              <ntsc>FALSE</ntsc>
            </rate>
            <media>
              <video>
                <track>
                  <clipitem frameBlend="FALSE" id="clipitem-47">
                    <name>Scene - Puppet man_0003.044.png</name>
                    <masterclipid>masterclip-46</masterclipid>
                    <rate>
                      <timebase>24</timebase>
                      <ntsc>FALSE</ntsc>
                    </rate>
                    <alphatype>straight</alphatype>
                    <pixelaspectratio>square</pixelaspectratio>
                    <anamorphic>FALSE</anamorphic>
                    <file id="file-46">
                      <name>Scene - Puppet man_0003.044.png</name>
                      <pathurl>file://localhost/C:/Users/jmrey/OneDrive/Desktop/Programmin Stuff/Projects/conversation-simulator/resources/videos/Scene - Puppet man_0003/Scene - Puppet man_0003.044.png</pathurl>
                      <rate>
                        <timebase>24</timebase>
                        <ntsc>FALSE</ntsc>
                      </rate>
                      <duration>720</duration>
                      <timecode>
                        <rate>
                          <timebase>24</timebase>
                          <ntsc>FALSE</ntsc>
                        </rate>
                      </timecode>
                      <media>
                        <video>
                          <duration>1</duration>
                          <samplecharacteristics>
                            <anamorphic>FALSE</anamorphic>
                            <pixelaspectratio>square</pixelaspectratio>
                            <fielddominance>none</fielddominance>
                            <width>1920</width>
                            <height>1080</height>
                          </samplecharacteristics>
                        </video>
                      </media>
                    </file>
                  </clipitem>
                </track>
              </video>
            </media>
          </clip>
          <clip explodedTracks="true" frameBlend="FALSE" id="masterclip-47">
            <uuid>7f6c1187-49f4-4f1b-b103-e8e800531e85</uuid>
            <masterclipid>masterclip-47</masterclipid>
            <ismasterclip>TRUE</ismasterclip>
            <duration>720</duration>
            <in>0</in>
            <out>720</out>
            <name>Scene - Puppet man_0003.045.png</name>
            <rate>
              <timebase>24</timebase>
              <ntsc>FALSE</ntsc>
            </rate>
            <media>
              <video>
                <track>
                  <clipitem frameBlend="FALSE" id="clipitem-48">
                    <name>Scene - Puppet man_0003.045.png</name>
                    <masterclipid>masterclip-47</masterclipid>
                    <rate>
                      <timebase>24</timebase>
                      <ntsc>FALSE</ntsc>
                    </rate>
                    <alphatype>straight</alphatype>
                    <pixelaspectratio>square</pixelaspectratio>
                    <anamorphic>FALSE</anamorphic>
                    <file id="file-47">
                      <name>Scene - Puppet man_0003.045.png</name>
                      <pathurl>file://localhost/C:/Users/jmrey/OneDrive/Desktop/Programmin Stuff/Projects/conversation-simulator/resources/videos/Scene - Puppet man_0003/Scene - Puppet man_0003.045.png</pathurl>
                      <rate>
                        <timebase>24</timebase>
                        <ntsc>FALSE</ntsc>
                      </rate>
                      <duration>720</duration>
                      <timecode>
                        <rate>
                          <timebase>24</timebase>
                          <ntsc>FALSE</ntsc>
                        </rate>
                      </timecode>
                      <media>
                        <video>
                          <duration>1</duration>
                          <samplecharacteristics>
                            <anamorphic>FALSE</anamorphic>
                            <pixelaspectratio>square</pixelaspectratio>
                            <fielddominance>none</fielddominance>
                            <width>1920</width>
                            <height>1080</height>
                          </samplecharacteristics>
                        </video>
                      </media>
                    </file>
                  </clipitem>
                </track>
              </video>
            </media>
          </clip>
          <clip explodedTracks="true" frameBlend="FALSE" id="masterclip-48">
            <uuid>a35ffd01-b6c2-499b-a741-853560fabab0</uuid>
            <masterclipid>masterclip-48</masterclipid>
            <ismasterclip>TRUE</ismasterclip>
            <duration>720</duration>
            <in>0</in>
            <out>720</out>
            <name>Scene - Puppet man_0003.046.png</name>
            <rate>
              <timebase>24</timebase>
              <ntsc>FALSE</ntsc>
            </rate>
            <media>
              <video>
                <track>
                  <clipitem frameBlend="FALSE" id="clipitem-49">
                    <name>Scene - Puppet man_0003.046.png</name>
                    <masterclipid>masterclip-48</masterclipid>
                    <rate>
                      <timebase>24</timebase>
                      <ntsc>FALSE</ntsc>
                    </rate>
                    <alphatype>straight</alphatype>
                    <pixelaspectratio>square</pixelaspectratio>
                    <anamorphic>FALSE</anamorphic>
                    <file id="file-48">
                      <name>Scene - Puppet man_0003.046.png</name>
                      <pathurl>file://localhost/C:/Users/jmrey/OneDrive/Desktop/Programmin Stuff/Projects/conversation-simulator/resources/videos/Scene - Puppet man_0003/Scene - Puppet man_0003.046.png</pathurl>
                      <rate>
                        <timebase>24</timebase>
                        <ntsc>FALSE</ntsc>
                      </rate>
                      <duration>720</duration>
                      <timecode>
                        <rate>
                          <timebase>24</timebase>
                          <ntsc>FALSE</ntsc>
                        </rate>
                      </timecode>
                      <media>
                        <video>
                          <duration>1</duration>
                          <samplecharacteristics>
                            <anamorphic>FALSE</anamorphic>
                            <pixelaspectratio>square</pixelaspectratio>
                            <fielddominance>none</fielddominance>
                            <width>1920</width>
                            <height>1080</height>
                          </samplecharacteristics>
                        </video>
                      </media>
                    </file>
                  </clipitem>
                </track>
              </video>
            </media>
          </clip>
          <clip explodedTracks="true" frameBlend="FALSE" id="masterclip-49">
            <uuid>10857339-4486-4c0c-97f5-c654b92136f9</uuid>
            <masterclipid>masterclip-49</masterclipid>
            <ismasterclip>TRUE</ismasterclip>
            <duration>720</duration>
            <in>0</in>
            <out>720</out>
            <name>Scene - Puppet man_0003.047.png</name>
            <rate>
              <timebase>24</timebase>
              <ntsc>FALSE</ntsc>
            </rate>
            <media>
              <video>
                <track>
                  <clipitem frameBlend="FALSE" id="clipitem-50">
                    <name>Scene - Puppet man_0003.047.png</name>
                    <masterclipid>masterclip-49</masterclipid>
                    <rate>
                      <timebase>24</timebase>
                      <ntsc>FALSE</ntsc>
                    </rate>
                    <alphatype>straight</alphatype>
                    <pixelaspectratio>square</pixelaspectratio>
                    <anamorphic>FALSE</anamorphic>
                    <file id="file-49">
                      <name>Scene - Puppet man_0003.047.png</name>
                      <pathurl>file://localhost/C:/Users/jmrey/OneDrive/Desktop/Programmin Stuff/Projects/conversation-simulator/resources/videos/Scene - Puppet man_0003/Scene - Puppet man_0003.047.png</pathurl>
                      <rate>
                        <timebase>24</timebase>
                        <ntsc>FALSE</ntsc>
                      </rate>
                      <duration>720</duration>
                      <timecode>
                        <rate>
                          <timebase>24</timebase>
                          <ntsc>FALSE</ntsc>
                        </rate>
                      </timecode>
                      <media>
                        <video>
                          <duration>1</duration>
                          <samplecharacteristics>
                            <anamorphic>FALSE</anamorphic>
                            <pixelaspectratio>square</pixelaspectratio>
                            <fielddominance>none</fielddominance>
                            <width>1920</width>
                            <height>1080</height>
                          </samplecharacteristics>
                        </video>
                      </media>
                    </file>
                  </clipitem>
                </track>
              </video>
            </media>
          </clip>
          <clip explodedTracks="true" frameBlend="FALSE" id="masterclip-50">
            <uuid>8d804eb4-065c-43a2-82b0-a5728bb72d4c</uuid>
            <masterclipid>masterclip-50</masterclipid>
            <ismasterclip>TRUE</ismasterclip>
            <duration>720</duration>
            <in>0</in>
            <out>720</out>
            <name>Scene - Puppet man_0003.048.png</name>
            <rate>
              <timebase>24</timebase>
              <ntsc>FALSE</ntsc>
            </rate>
            <media>
              <video>
                <track>
                  <clipitem frameBlend="FALSE" id="clipitem-51">
                    <name>Scene - Puppet man_0003.048.png</name>
                    <masterclipid>masterclip-50</masterclipid>
                    <rate>
                      <timebase>24</timebase>
                      <ntsc>FALSE</ntsc>
                    </rate>
                    <alphatype>straight</alphatype>
                    <pixelaspectratio>square</pixelaspectratio>
                    <anamorphic>FALSE</anamorphic>
                    <file id="file-50">
                      <name>Scene - Puppet man_0003.048.png</name>
                      <pathurl>file://localhost/C:/Users/jmrey/OneDrive/Desktop/Programmin Stuff/Projects/conversation-simulator/resources/videos/Scene - Puppet man_0003/Scene - Puppet man_0003.048.png</pathurl>
                      <rate>
                        <timebase>24</timebase>
                        <ntsc>FALSE</ntsc>
                      </rate>
                      <duration>720</duration>
                      <timecode>
                        <rate>
                          <timebase>24</timebase>
                          <ntsc>FALSE</ntsc>
                        </rate>
                      </timecode>
                      <media>
                        <video>
                          <duration>1</duration>
                          <samplecharacteristics>
                            <anamorphic>FALSE</anamorphic>
                            <pixelaspectratio>square</pixelaspectratio>
                            <fielddominance>none</fielddominance>
                            <width>1920</width>
                            <height>1080</height>
                          </samplecharacteristics>
                        </video>
                      </media>
                    </file>
                  </clipitem>
                </track>
              </video>
            </media>
          </clip>
          <clip explodedTracks="true" frameBlend="FALSE" id="masterclip-51">
            <uuid>8e21d022-bb3f-4a30-b392-9cea52cc5206</uuid>
            <masterclipid>masterclip-51</masterclipid>
            <ismasterclip>TRUE</ismasterclip>
            <duration>720</duration>
            <in>0</in>
            <out>720</out>
            <name>Scene - Puppet man_0003.049.png</name>
            <rate>
              <timebase>24</timebase>
              <ntsc>FALSE</ntsc>
            </rate>
            <media>
              <video>
                <track>
                  <clipitem frameBlend="FALSE" id="clipitem-52">
                    <name>Scene - Puppet man_0003.049.png</name>
                    <masterclipid>masterclip-51</masterclipid>
                    <rate>
                      <timebase>24</timebase>
                      <ntsc>FALSE</ntsc>
                    </rate>
                    <alphatype>straight</alphatype>
                    <pixelaspectratio>square</pixelaspectratio>
                    <anamorphic>FALSE</anamorphic>
                    <file id="file-51">
                      <name>Scene - Puppet man_0003.049.png</name>
                      <pathurl>file://localhost/C:/Users/jmrey/OneDrive/Desktop/Programmin Stuff/Projects/conversation-simulator/resources/videos/Scene - Puppet man_0003/Scene - Puppet man_0003.049.png</pathurl>
                      <rate>
                        <timebase>24</timebase>
                        <ntsc>FALSE</ntsc>
                      </rate>
                      <duration>720</duration>
                      <timecode>
                        <rate>
                          <timebase>24</timebase>
                          <ntsc>FALSE</ntsc>
                        </rate>
                      </timecode>
                      <media>
                        <video>
                          <duration>1</duration>
                          <samplecharacteristics>
                            <anamorphic>FALSE</anamorphic>
                            <pixelaspectratio>square</pixelaspectratio>
                            <fielddominance>none</fielddominance>
                            <width>1920</width>
                            <height>1080</height>
                          </samplecharacteristics>
                        </video>
                      </media>
                    </file>
                  </clipitem>
                </track>
              </video>
            </media>
          </clip>
          <clip explodedTracks="true" frameBlend="FALSE" id="masterclip-52">
            <uuid>9b1b413b-9a25-4724-998b-bb9706ddec49</uuid>
            <masterclipid>masterclip-52</masterclipid>
            <ismasterclip>TRUE</ismasterclip>
            <duration>720</duration>
            <in>0</in>
            <out>720</out>
            <name>Scene - Puppet man_0003.050.png</name>
            <rate>
              <timebase>24</timebase>
              <ntsc>FALSE</ntsc>
            </rate>
            <media>
              <video>
                <track>
                  <clipitem frameBlend="FALSE" id="clipitem-53">
                    <name>Scene - Puppet man_0003.050.png</name>
                    <masterclipid>masterclip-52</masterclipid>
                    <rate>
                      <timebase>24</timebase>
                      <ntsc>FALSE</ntsc>
                    </rate>
                    <alphatype>straight</alphatype>
                    <pixelaspectratio>square</pixelaspectratio>
                    <anamorphic>FALSE</anamorphic>
                    <file id="file-52">
                      <name>Scene - Puppet man_0003.050.png</name>
                      <pathurl>file://localhost/C:/Users/jmrey/OneDrive/Desktop/Programmin Stuff/Projects/conversation-simulator/resources/videos/Scene - Puppet man_0003/Scene - Puppet man_0003.050.png</pathurl>
                      <rate>
                        <timebase>24</timebase>
                        <ntsc>FALSE</ntsc>
                      </rate>
                      <duration>720</duration>
                      <timecode>
                        <rate>
                          <timebase>24</timebase>
                          <ntsc>FALSE</ntsc>
                        </rate>
                      </timecode>
                      <media>
                        <video>
                          <duration>1</duration>
                          <samplecharacteristics>
                            <anamorphic>FALSE</anamorphic>
                            <pixelaspectratio>square</pixelaspectratio>
                            <fielddominance>none</fielddominance>
                            <width>1920</width>
                            <height>1080</height>
                          </samplecharacteristics>
                        </video>
                      </media>
                    </file>
                  </clipitem>
                </track>
              </video>
            </media>
          </clip>
          <clip explodedTracks="true" frameBlend="FALSE" id="masterclip-53">
            <uuid>61595d65-c391-4a3e-ad05-2d4735d5ea0c</uuid>
            <masterclipid>masterclip-53</masterclipid>
            <ismasterclip>TRUE</ismasterclip>
            <duration>720</duration>
            <in>0</in>
            <out>720</out>
            <name>Scene - Puppet man_0003.051.png</name>
            <rate>
              <timebase>24</timebase>
              <ntsc>FALSE</ntsc>
            </rate>
            <media>
              <video>
                <track>
                  <clipitem frameBlend="FALSE" id="clipitem-54">
                    <name>Scene - Puppet man_0003.051.png</name>
                    <masterclipid>masterclip-53</masterclipid>
                    <rate>
                      <timebase>24</timebase>
                      <ntsc>FALSE</ntsc>
                    </rate>
                    <alphatype>straight</alphatype>
                    <pixelaspectratio>square</pixelaspectratio>
                    <anamorphic>FALSE</anamorphic>
                    <file id="file-53">
                      <name>Scene - Puppet man_0003.051.png</name>
                      <pathurl>file://localhost/C:/Users/jmrey/OneDrive/Desktop/Programmin Stuff/Projects/conversation-simulator/resources/videos/Scene - Puppet man_0003/Scene - Puppet man_0003.051.png</pathurl>
                      <rate>
                        <timebase>24</timebase>
                        <ntsc>FALSE</ntsc>
                      </rate>
                      <duration>720</duration>
                      <timecode>
                        <rate>
                          <timebase>24</timebase>
                          <ntsc>FALSE</ntsc>
                        </rate>
                      </timecode>
                      <media>
                        <video>
                          <duration>1</duration>
                          <samplecharacteristics>
                            <anamorphic>FALSE</anamorphic>
                            <pixelaspectratio>square</pixelaspectratio>
                            <fielddominance>none</fielddominance>
                            <width>1920</width>
                            <height>1080</height>
                          </samplecharacteristics>
                        </video>
                      </media>
                    </file>
                  </clipitem>
                </track>
              </video>
            </media>
          </clip>
          <clip explodedTracks="true" frameBlend="FALSE" id="masterclip-54">
            <uuid>352d3ea8-f591-480d-b50e-9bc120fa0d5f</uuid>
            <masterclipid>masterclip-54</masterclipid>
            <ismasterclip>TRUE</ismasterclip>
            <duration>720</duration>
            <in>0</in>
            <out>720</out>
            <name>Scene - Puppet man_0003.052.png</name>
            <rate>
              <timebase>24</timebase>
              <ntsc>FALSE</ntsc>
            </rate>
            <media>
              <video>
                <track>
                  <clipitem frameBlend="FALSE" id="clipitem-55">
                    <name>Scene - Puppet man_0003.052.png</name>
                    <masterclipid>masterclip-54</masterclipid>
                    <rate>
                      <timebase>24</timebase>
                      <ntsc>FALSE</ntsc>
                    </rate>
                    <alphatype>straight</alphatype>
                    <pixelaspectratio>square</pixelaspectratio>
                    <anamorphic>FALSE</anamorphic>
                    <file id="file-54">
                      <name>Scene - Puppet man_0003.052.png</name>
                      <pathurl>file://localhost/C:/Users/jmrey/OneDrive/Desktop/Programmin Stuff/Projects/conversation-simulator/resources/videos/Scene - Puppet man_0003/Scene - Puppet man_0003.052.png</pathurl>
                      <rate>
                        <timebase>24</timebase>
                        <ntsc>FALSE</ntsc>
                      </rate>
                      <duration>720</duration>
                      <timecode>
                        <rate>
                          <timebase>24</timebase>
                          <ntsc>FALSE</ntsc>
                        </rate>
                      </timecode>
                      <media>
                        <video>
                          <duration>1</duration>
                          <samplecharacteristics>
                            <anamorphic>FALSE</anamorphic>
                            <pixelaspectratio>square</pixelaspectratio>
                            <fielddominance>none</fielddominance>
                            <width>1920</width>
                            <height>1080</height>
                          </samplecharacteristics>
                        </video>
                      </media>
                    </file>
                  </clipitem>
                </track>
              </video>
            </media>
          </clip>
          <clip explodedTracks="true" frameBlend="FALSE" id="masterclip-55">
            <uuid>827d8950-79c2-44c9-981e-1560b8c7db5c</uuid>
            <masterclipid>masterclip-55</masterclipid>
            <ismasterclip>TRUE</ismasterclip>
            <duration>720</duration>
            <in>0</in>
            <out>720</out>
            <name>Scene - Puppet man_0003.053.png</name>
            <rate>
              <timebase>24</timebase>
              <ntsc>FALSE</ntsc>
            </rate>
            <media>
              <video>
                <track>
                  <clipitem frameBlend="FALSE" id="clipitem-56">
                    <name>Scene - Puppet man_0003.053.png</name>
                    <masterclipid>masterclip-55</masterclipid>
                    <rate>
                      <timebase>24</timebase>
                      <ntsc>FALSE</ntsc>
                    </rate>
                    <alphatype>straight</alphatype>
                    <pixelaspectratio>square</pixelaspectratio>
                    <anamorphic>FALSE</anamorphic>
                    <file id="file-55">
                      <name>Scene - Puppet man_0003.053.png</name>
                      <pathurl>file://localhost/C:/Users/jmrey/OneDrive/Desktop/Programmin Stuff/Projects/conversation-simulator/resources/videos/Scene - Puppet man_0003/Scene - Puppet man_0003.053.png</pathurl>
                      <rate>
                        <timebase>24</timebase>
                        <ntsc>FALSE</ntsc>
                      </rate>
                      <duration>720</duration>
                      <timecode>
                        <rate>
                          <timebase>24</timebase>
                          <ntsc>FALSE</ntsc>
                        </rate>
                      </timecode>
                      <media>
                        <video>
                          <duration>1</duration>
                          <samplecharacteristics>
                            <anamorphic>FALSE</anamorphic>
                            <pixelaspectratio>square</pixelaspectratio>
                            <fielddominance>none</fielddominance>
                            <width>1920</width>
                            <height>1080</height>
                          </samplecharacteristics>
                        </video>
                      </media>
                    </file>
                  </clipitem>
                </track>
              </video>
            </media>
          </clip>
          <clip explodedTracks="true" frameBlend="FALSE" id="masterclip-56">
            <uuid>31b06e76-7a63-4579-b340-f4564b606e18</uuid>
            <masterclipid>masterclip-56</masterclipid>
            <ismasterclip>TRUE</ismasterclip>
            <duration>720</duration>
            <in>0</in>
            <out>720</out>
            <name>Scene - Puppet man_0003.054.png</name>
            <rate>
              <timebase>24</timebase>
              <ntsc>FALSE</ntsc>
            </rate>
            <media>
              <video>
                <track>
                  <clipitem frameBlend="FALSE" id="clipitem-57">
                    <name>Scene - Puppet man_0003.054.png</name>
                    <masterclipid>masterclip-56</masterclipid>
                    <rate>
                      <timebase>24</timebase>
                      <ntsc>FALSE</ntsc>
                    </rate>
                    <alphatype>straight</alphatype>
                    <pixelaspectratio>square</pixelaspectratio>
                    <anamorphic>FALSE</anamorphic>
                    <file id="file-56">
                      <name>Scene - Puppet man_0003.054.png</name>
                      <pathurl>file://localhost/C:/Users/jmrey/OneDrive/Desktop/Programmin Stuff/Projects/conversation-simulator/resources/videos/Scene - Puppet man_0003/Scene - Puppet man_0003.054.png</pathurl>
                      <rate>
                        <timebase>24</timebase>
                        <ntsc>FALSE</ntsc>
                      </rate>
                      <duration>720</duration>
                      <timecode>
                        <rate>
                          <timebase>24</timebase>
                          <ntsc>FALSE</ntsc>
                        </rate>
                      </timecode>
                      <media>
                        <video>
                          <duration>1</duration>
                          <samplecharacteristics>
                            <anamorphic>FALSE</anamorphic>
                            <pixelaspectratio>square</pixelaspectratio>
                            <fielddominance>none</fielddominance>
                            <width>1920</width>
                            <height>1080</height>
                          </samplecharacteristics>
                        </video>
                      </media>
                    </file>
                  </clipitem>
                </track>
              </video>
            </media>
          </clip>
          <clip explodedTracks="true" frameBlend="FALSE" id="masterclip-57">
            <uuid>7682c453-bfc1-4060-8718-31502565a556</uuid>
            <masterclipid>masterclip-57</masterclipid>
            <ismasterclip>TRUE</ismasterclip>
            <duration>720</duration>
            <in>0</in>
            <out>720</out>
            <name>Scene - Puppet man_0003.055.png</name>
            <rate>
              <timebase>24</timebase>
              <ntsc>FALSE</ntsc>
            </rate>
            <media>
              <video>
                <track>
                  <clipitem frameBlend="FALSE" id="clipitem-58">
                    <name>Scene - Puppet man_0003.055.png</name>
                    <masterclipid>masterclip-57</masterclipid>
                    <rate>
                      <timebase>24</timebase>
                      <ntsc>FALSE</ntsc>
                    </rate>
                    <alphatype>straight</alphatype>
                    <pixelaspectratio>square</pixelaspectratio>
                    <anamorphic>FALSE</anamorphic>
                    <file id="file-57">
                      <name>Scene - Puppet man_0003.055.png</name>
                      <pathurl>file://localhost/C:/Users/jmrey/OneDrive/Desktop/Programmin Stuff/Projects/conversation-simulator/resources/videos/Scene - Puppet man_0003/Scene - Puppet man_0003.055.png</pathurl>
                      <rate>
                        <timebase>24</timebase>
                        <ntsc>FALSE</ntsc>
                      </rate>
                      <duration>720</duration>
                      <timecode>
                        <rate>
                          <timebase>24</timebase>
                          <ntsc>FALSE</ntsc>
                        </rate>
                      </timecode>
                      <media>
                        <video>
                          <duration>1</duration>
                          <samplecharacteristics>
                            <anamorphic>FALSE</anamorphic>
                            <pixelaspectratio>square</pixelaspectratio>
                            <fielddominance>none</fielddominance>
                            <width>1920</width>
                            <height>1080</height>
                          </samplecharacteristics>
                        </video>
                      </media>
                    </file>
                  </clipitem>
                </track>
              </video>
            </media>
          </clip>
          <clip explodedTracks="true" frameBlend="FALSE" id="masterclip-58">
            <uuid>15dc584e-2886-40d1-ad38-7cf93f4cbd94</uuid>
            <masterclipid>masterclip-58</masterclipid>
            <ismasterclip>TRUE</ismasterclip>
            <duration>720</duration>
            <in>0</in>
            <out>720</out>
            <name>Scene - Puppet man_0003.056.png</name>
            <rate>
              <timebase>24</timebase>
              <ntsc>FALSE</ntsc>
            </rate>
            <media>
              <video>
                <track>
                  <clipitem frameBlend="FALSE" id="clipitem-59">
                    <name>Scene - Puppet man_0003.056.png</name>
                    <masterclipid>masterclip-58</masterclipid>
                    <rate>
                      <timebase>24</timebase>
                      <ntsc>FALSE</ntsc>
                    </rate>
                    <alphatype>straight</alphatype>
                    <pixelaspectratio>square</pixelaspectratio>
                    <anamorphic>FALSE</anamorphic>
                    <file id="file-58">
                      <name>Scene - Puppet man_0003.056.png</name>
                      <pathurl>file://localhost/C:/Users/jmrey/OneDrive/Desktop/Programmin Stuff/Projects/conversation-simulator/resources/videos/Scene - Puppet man_0003/Scene - Puppet man_0003.056.png</pathurl>
                      <rate>
                        <timebase>24</timebase>
                        <ntsc>FALSE</ntsc>
                      </rate>
                      <duration>720</duration>
                      <timecode>
                        <rate>
                          <timebase>24</timebase>
                          <ntsc>FALSE</ntsc>
                        </rate>
                      </timecode>
                      <media>
                        <video>
                          <duration>1</duration>
                          <samplecharacteristics>
                            <anamorphic>FALSE</anamorphic>
                            <pixelaspectratio>square</pixelaspectratio>
                            <fielddominance>none</fielddominance>
                            <width>1920</width>
                            <height>1080</height>
                          </samplecharacteristics>
                        </video>
                      </media>
                    </file>
                  </clipitem>
                </track>
              </video>
            </media>
          </clip>
          <clip explodedTracks="true" frameBlend="FALSE" id="masterclip-59">
            <uuid>a603671f-1888-4854-bff2-31e64cba93fe</uuid>
            <masterclipid>masterclip-59</masterclipid>
            <ismasterclip>TRUE</ismasterclip>
            <duration>720</duration>
            <in>0</in>
            <out>720</out>
            <name>Scene - Puppet man_0003.057.png</name>
            <rate>
              <timebase>24</timebase>
              <ntsc>FALSE</ntsc>
            </rate>
            <media>
              <video>
                <track>
                  <clipitem frameBlend="FALSE" id="clipitem-60">
                    <name>Scene - Puppet man_0003.057.png</name>
                    <masterclipid>masterclip-59</masterclipid>
                    <rate>
                      <timebase>24</timebase>
                      <ntsc>FALSE</ntsc>
                    </rate>
                    <alphatype>straight</alphatype>
                    <pixelaspectratio>square</pixelaspectratio>
                    <anamorphic>FALSE</anamorphic>
                    <file id="file-59">
                      <name>Scene - Puppet man_0003.057.png</name>
                      <pathurl>file://localhost/C:/Users/jmrey/OneDrive/Desktop/Programmin Stuff/Projects/conversation-simulator/resources/videos/Scene - Puppet man_0003/Scene - Puppet man_0003.057.png</pathurl>
                      <rate>
                        <timebase>24</timebase>
                        <ntsc>FALSE</ntsc>
                      </rate>
                      <duration>720</duration>
                      <timecode>
                        <rate>
                          <timebase>24</timebase>
                          <ntsc>FALSE</ntsc>
                        </rate>
                      </timecode>
                      <media>
                        <video>
                          <duration>1</duration>
                          <samplecharacteristics>
                            <anamorphic>FALSE</anamorphic>
                            <pixelaspectratio>square</pixelaspectratio>
                            <fielddominance>none</fielddominance>
                            <width>1920</width>
                            <height>1080</height>
                          </samplecharacteristics>
                        </video>
                      </media>
                    </file>
                  </clipitem>
                </track>
              </video>
            </media>
          </clip>
          <clip explodedTracks="true" frameBlend="FALSE" id="masterclip-60">
            <uuid>c89fa0b0-107a-4e37-9d9c-be5dddd2c46b</uuid>
            <masterclipid>masterclip-60</masterclipid>
            <ismasterclip>TRUE</ismasterclip>
            <duration>720</duration>
            <in>0</in>
            <out>720</out>
            <name>Scene - Puppet man_0003.058.png</name>
            <rate>
              <timebase>24</timebase>
              <ntsc>FALSE</ntsc>
            </rate>
            <media>
              <video>
                <track>
                  <clipitem frameBlend="FALSE" id="clipitem-61">
                    <name>Scene - Puppet man_0003.058.png</name>
                    <masterclipid>masterclip-60</masterclipid>
                    <rate>
                      <timebase>24</timebase>
                      <ntsc>FALSE</ntsc>
                    </rate>
                    <alphatype>straight</alphatype>
                    <pixelaspectratio>square</pixelaspectratio>
                    <anamorphic>FALSE</anamorphic>
                    <file id="file-60">
                      <name>Scene - Puppet man_0003.058.png</name>
                      <pathurl>file://localhost/C:/Users/jmrey/OneDrive/Desktop/Programmin Stuff/Projects/conversation-simulator/resources/videos/Scene - Puppet man_0003/Scene - Puppet man_0003.058.png</pathurl>
                      <rate>
                        <timebase>24</timebase>
                        <ntsc>FALSE</ntsc>
                      </rate>
                      <duration>720</duration>
                      <timecode>
                        <rate>
                          <timebase>24</timebase>
                          <ntsc>FALSE</ntsc>
                        </rate>
                      </timecode>
                      <media>
                        <video>
                          <duration>1</duration>
                          <samplecharacteristics>
                            <anamorphic>FALSE</anamorphic>
                            <pixelaspectratio>square</pixelaspectratio>
                            <fielddominance>none</fielddominance>
                            <width>1920</width>
                            <height>1080</height>
                          </samplecharacteristics>
                        </video>
                      </media>
                    </file>
                  </clipitem>
                </track>
              </video>
            </media>
          </clip>
          <clip explodedTracks="true" frameBlend="FALSE" id="masterclip-61">
            <uuid>393f24ac-dc7a-40da-89a6-30cb60f0f1b8</uuid>
            <masterclipid>masterclip-61</masterclipid>
            <ismasterclip>TRUE</ismasterclip>
            <duration>720</duration>
            <in>0</in>
            <out>720</out>
            <name>Scene - Puppet man_0003.059.png</name>
            <rate>
              <timebase>24</timebase>
              <ntsc>FALSE</ntsc>
            </rate>
            <media>
              <video>
                <track>
                  <clipitem frameBlend="FALSE" id="clipitem-62">
                    <name>Scene - Puppet man_0003.059.png</name>
                    <masterclipid>masterclip-61</masterclipid>
                    <rate>
                      <timebase>24</timebase>
                      <ntsc>FALSE</ntsc>
                    </rate>
                    <alphatype>straight</alphatype>
                    <pixelaspectratio>square</pixelaspectratio>
                    <anamorphic>FALSE</anamorphic>
                    <file id="file-61">
                      <name>Scene - Puppet man_0003.059.png</name>
                      <pathurl>file://localhost/C:/Users/jmrey/OneDrive/Desktop/Programmin Stuff/Projects/conversation-simulator/resources/videos/Scene - Puppet man_0003/Scene - Puppet man_0003.059.png</pathurl>
                      <rate>
                        <timebase>24</timebase>
                        <ntsc>FALSE</ntsc>
                      </rate>
                      <duration>720</duration>
                      <timecode>
                        <rate>
                          <timebase>24</timebase>
                          <ntsc>FALSE</ntsc>
                        </rate>
                      </timecode>
                      <media>
                        <video>
                          <duration>1</duration>
                          <samplecharacteristics>
                            <anamorphic>FALSE</anamorphic>
                            <pixelaspectratio>square</pixelaspectratio>
                            <fielddominance>none</fielddominance>
                            <width>1920</width>
                            <height>1080</height>
                          </samplecharacteristics>
                        </video>
                      </media>
                    </file>
                  </clipitem>
                </track>
              </video>
            </media>
          </clip>
          <clip explodedTracks="true" frameBlend="FALSE" id="masterclip-62">
            <uuid>febce6a2-6759-4641-963c-6680d5b53a0e</uuid>
            <masterclipid>masterclip-62</masterclipid>
            <ismasterclip>TRUE</ismasterclip>
            <duration>720</duration>
            <in>0</in>
            <out>720</out>
            <name>Scene - Puppet man_0003.060.png</name>
            <rate>
              <timebase>24</timebase>
              <ntsc>FALSE</ntsc>
            </rate>
            <media>
              <video>
                <track>
                  <clipitem frameBlend="FALSE" id="clipitem-63">
                    <name>Scene - Puppet man_0003.060.png</name>
                    <masterclipid>masterclip-62</masterclipid>
                    <rate>
                      <timebase>24</timebase>
                      <ntsc>FALSE</ntsc>
                    </rate>
                    <alphatype>straight</alphatype>
                    <pixelaspectratio>square</pixelaspectratio>
                    <anamorphic>FALSE</anamorphic>
                    <file id="file-62">
                      <name>Scene - Puppet man_0003.060.png</name>
                      <pathurl>file://localhost/C:/Users/jmrey/OneDrive/Desktop/Programmin Stuff/Projects/conversation-simulator/resources/videos/Scene - Puppet man_0003/Scene - Puppet man_0003.060.png</pathurl>
                      <rate>
                        <timebase>24</timebase>
                        <ntsc>FALSE</ntsc>
                      </rate>
                      <duration>720</duration>
                      <timecode>
                        <rate>
                          <timebase>24</timebase>
                          <ntsc>FALSE</ntsc>
                        </rate>
                      </timecode>
                      <media>
                        <video>
                          <duration>1</duration>
                          <samplecharacteristics>
                            <anamorphic>FALSE</anamorphic>
                            <pixelaspectratio>square</pixelaspectratio>
                            <fielddominance>none</fielddominance>
                            <width>1920</width>
                            <height>1080</height>
                          </samplecharacteristics>
                        </video>
                      </media>
                    </file>
                  </clipitem>
                </track>
              </video>
            </media>
          </clip>
          <clip explodedTracks="true" frameBlend="FALSE" id="masterclip-63">
            <uuid>f54880f9-ffe7-4284-af24-6a3131360103</uuid>
            <masterclipid>masterclip-63</masterclipid>
            <ismasterclip>TRUE</ismasterclip>
            <duration>720</duration>
            <in>0</in>
            <out>720</out>
            <name>Scene - Puppet man_0003.061.png</name>
            <rate>
              <timebase>24</timebase>
              <ntsc>FALSE</ntsc>
            </rate>
            <media>
              <video>
                <track>
                  <clipitem frameBlend="FALSE" id="clipitem-64">
                    <name>Scene - Puppet man_0003.061.png</name>
                    <masterclipid>masterclip-63</masterclipid>
                    <rate>
                      <timebase>24</timebase>
                      <ntsc>FALSE</ntsc>
                    </rate>
                    <alphatype>straight</alphatype>
                    <pixelaspectratio>square</pixelaspectratio>
                    <anamorphic>FALSE</anamorphic>
                    <file id="file-63">
                      <name>Scene - Puppet man_0003.061.png</name>
                      <pathurl>file://localhost/C:/Users/jmrey/OneDrive/Desktop/Programmin Stuff/Projects/conversation-simulator/resources/videos/Scene - Puppet man_0003/Scene - Puppet man_0003.061.png</pathurl>
                      <rate>
                        <timebase>24</timebase>
                        <ntsc>FALSE</ntsc>
                      </rate>
                      <duration>720</duration>
                      <timecode>
                        <rate>
                          <timebase>24</timebase>
                          <ntsc>FALSE</ntsc>
                        </rate>
                      </timecode>
                      <media>
                        <video>
                          <duration>1</duration>
                          <samplecharacteristics>
                            <anamorphic>FALSE</anamorphic>
                            <pixelaspectratio>square</pixelaspectratio>
                            <fielddominance>none</fielddominance>
                            <width>1920</width>
                            <height>1080</height>
                          </samplecharacteristics>
                        </video>
                      </media>
                    </file>
                  </clipitem>
                </track>
              </video>
            </media>
          </clip>
          <clip explodedTracks="true" frameBlend="FALSE" id="masterclip-64">
            <uuid>901ece2c-9eef-466f-ba6b-9666a2b9f8c6</uuid>
            <masterclipid>masterclip-64</masterclipid>
            <ismasterclip>TRUE</ismasterclip>
            <duration>720</duration>
            <in>0</in>
            <out>720</out>
            <name>Scene - Puppet man_0003.062.png</name>
            <rate>
              <timebase>24</timebase>
              <ntsc>FALSE</ntsc>
            </rate>
            <media>
              <video>
                <track>
                  <clipitem frameBlend="FALSE" id="clipitem-65">
                    <name>Scene - Puppet man_0003.062.png</name>
                    <masterclipid>masterclip-64</masterclipid>
                    <rate>
                      <timebase>24</timebase>
                      <ntsc>FALSE</ntsc>
                    </rate>
                    <alphatype>straight</alphatype>
                    <pixelaspectratio>square</pixelaspectratio>
                    <anamorphic>FALSE</anamorphic>
                    <file id="file-64">
                      <name>Scene - Puppet man_0003.062.png</name>
                      <pathurl>file://localhost/C:/Users/jmrey/OneDrive/Desktop/Programmin Stuff/Projects/conversation-simulator/resources/videos/Scene - Puppet man_0003/Scene - Puppet man_0003.062.png</pathurl>
                      <rate>
                        <timebase>24</timebase>
                        <ntsc>FALSE</ntsc>
                      </rate>
                      <duration>720</duration>
                      <timecode>
                        <rate>
                          <timebase>24</timebase>
                          <ntsc>FALSE</ntsc>
                        </rate>
                      </timecode>
                      <media>
                        <video>
                          <duration>1</duration>
                          <samplecharacteristics>
                            <anamorphic>FALSE</anamorphic>
                            <pixelaspectratio>square</pixelaspectratio>
                            <fielddominance>none</fielddominance>
                            <width>1920</width>
                            <height>1080</height>
                          </samplecharacteristics>
                        </video>
                      </media>
                    </file>
                  </clipitem>
                </track>
              </video>
            </media>
          </clip>
          <clip explodedTracks="true" frameBlend="FALSE" id="masterclip-65">
            <uuid>028bbc01-38ec-4c8f-a068-29f6c8342718</uuid>
            <masterclipid>masterclip-65</masterclipid>
            <ismasterclip>TRUE</ismasterclip>
            <duration>720</duration>
            <in>0</in>
            <out>720</out>
            <name>Scene - Puppet man_0003.063.png</name>
            <rate>
              <timebase>24</timebase>
              <ntsc>FALSE</ntsc>
            </rate>
            <media>
              <video>
                <track>
                  <clipitem frameBlend="FALSE" id="clipitem-66">
                    <name>Scene - Puppet man_0003.063.png</name>
                    <masterclipid>masterclip-65</masterclipid>
                    <rate>
                      <timebase>24</timebase>
                      <ntsc>FALSE</ntsc>
                    </rate>
                    <alphatype>straight</alphatype>
                    <pixelaspectratio>square</pixelaspectratio>
                    <anamorphic>FALSE</anamorphic>
                    <file id="file-65">
                      <name>Scene - Puppet man_0003.063.png</name>
                      <pathurl>file://localhost/C:/Users/jmrey/OneDrive/Desktop/Programmin Stuff/Projects/conversation-simulator/resources/videos/Scene - Puppet man_0003/Scene - Puppet man_0003.063.png</pathurl>
                      <rate>
                        <timebase>24</timebase>
                        <ntsc>FALSE</ntsc>
                      </rate>
                      <duration>720</duration>
                      <timecode>
                        <rate>
                          <timebase>24</timebase>
                          <ntsc>FALSE</ntsc>
                        </rate>
                      </timecode>
                      <media>
                        <video>
                          <duration>1</duration>
                          <samplecharacteristics>
                            <anamorphic>FALSE</anamorphic>
                            <pixelaspectratio>square</pixelaspectratio>
                            <fielddominance>none</fielddominance>
                            <width>1920</width>
                            <height>1080</height>
                          </samplecharacteristics>
                        </video>
                      </media>
                    </file>
                  </clipitem>
                </track>
              </video>
            </media>
          </clip>
          <clip explodedTracks="true" frameBlend="FALSE" id="masterclip-66">
            <uuid>4301f423-34bf-4c3d-9d97-8a6f3f6ed624</uuid>
            <masterclipid>masterclip-66</masterclipid>
            <ismasterclip>TRUE</ismasterclip>
            <duration>720</duration>
            <in>0</in>
            <out>720</out>
            <name>Scene - Puppet man_0003.064.png</name>
            <rate>
              <timebase>24</timebase>
              <ntsc>FALSE</ntsc>
            </rate>
            <media>
              <video>
                <track>
                  <clipitem frameBlend="FALSE" id="clipitem-67">
                    <name>Scene - Puppet man_0003.064.png</name>
                    <masterclipid>masterclip-66</masterclipid>
                    <rate>
                      <timebase>24</timebase>
                      <ntsc>FALSE</ntsc>
                    </rate>
                    <alphatype>straight</alphatype>
                    <pixelaspectratio>square</pixelaspectratio>
                    <anamorphic>FALSE</anamorphic>
                    <file id="file-66">
                      <name>Scene - Puppet man_0003.064.png</name>
                      <pathurl>file://localhost/C:/Users/jmrey/OneDrive/Desktop/Programmin Stuff/Projects/conversation-simulator/resources/videos/Scene - Puppet man_0003/Scene - Puppet man_0003.064.png</pathurl>
                      <rate>
                        <timebase>24</timebase>
                        <ntsc>FALSE</ntsc>
                      </rate>
                      <duration>720</duration>
                      <timecode>
                        <rate>
                          <timebase>24</timebase>
                          <ntsc>FALSE</ntsc>
                        </rate>
                      </timecode>
                      <media>
                        <video>
                          <duration>1</duration>
                          <samplecharacteristics>
                            <anamorphic>FALSE</anamorphic>
                            <pixelaspectratio>square</pixelaspectratio>
                            <fielddominance>none</fielddominance>
                            <width>1920</width>
                            <height>1080</height>
                          </samplecharacteristics>
                        </video>
                      </media>
                    </file>
                  </clipitem>
                </track>
              </video>
            </media>
          </clip>
          <clip explodedTracks="true" frameBlend="FALSE" id="masterclip-67">
            <uuid>5f40b58e-20e2-4b3d-92f6-f998123c82d0</uuid>
            <masterclipid>masterclip-67</masterclipid>
            <ismasterclip>TRUE</ismasterclip>
            <duration>720</duration>
            <in>0</in>
            <out>720</out>
            <name>Scene - Puppet man_0003.065.png</name>
            <rate>
              <timebase>24</timebase>
              <ntsc>FALSE</ntsc>
            </rate>
            <media>
              <video>
                <track>
                  <clipitem frameBlend="FALSE" id="clipitem-68">
                    <name>Scene - Puppet man_0003.065.png</name>
                    <masterclipid>masterclip-67</masterclipid>
                    <rate>
                      <timebase>24</timebase>
                      <ntsc>FALSE</ntsc>
                    </rate>
                    <alphatype>straight</alphatype>
                    <pixelaspectratio>square</pixelaspectratio>
                    <anamorphic>FALSE</anamorphic>
                    <file id="file-67">
                      <name>Scene - Puppet man_0003.065.png</name>
                      <pathurl>file://localhost/C:/Users/jmrey/OneDrive/Desktop/Programmin Stuff/Projects/conversation-simulator/resources/videos/Scene - Puppet man_0003/Scene - Puppet man_0003.065.png</pathurl>
                      <rate>
                        <timebase>24</timebase>
                        <ntsc>FALSE</ntsc>
                      </rate>
                      <duration>720</duration>
                      <timecode>
                        <rate>
                          <timebase>24</timebase>
                          <ntsc>FALSE</ntsc>
                        </rate>
                      </timecode>
                      <media>
                        <video>
                          <duration>1</duration>
                          <samplecharacteristics>
                            <anamorphic>FALSE</anamorphic>
                            <pixelaspectratio>square</pixelaspectratio>
                            <fielddominance>none</fielddominance>
                            <width>1920</width>
                            <height>1080</height>
                          </samplecharacteristics>
                        </video>
                      </media>
                    </file>
                  </clipitem>
                </track>
              </video>
            </media>
          </clip>
          <clip explodedTracks="true" frameBlend="FALSE" id="masterclip-68">
            <uuid>7bfe9e1b-773d-4090-ab3f-92fe59a4c1a2</uuid>
            <masterclipid>masterclip-68</masterclipid>
            <ismasterclip>TRUE</ismasterclip>
            <duration>720</duration>
            <in>0</in>
            <out>720</out>
            <name>Scene - Puppet man_0003.066.png</name>
            <rate>
              <timebase>24</timebase>
              <ntsc>FALSE</ntsc>
            </rate>
            <media>
              <video>
                <track>
                  <clipitem frameBlend="FALSE" id="clipitem-69">
                    <name>Scene - Puppet man_0003.066.png</name>
                    <masterclipid>masterclip-68</masterclipid>
                    <rate>
                      <timebase>24</timebase>
                      <ntsc>FALSE</ntsc>
                    </rate>
                    <alphatype>straight</alphatype>
                    <pixelaspectratio>square</pixelaspectratio>
                    <anamorphic>FALSE</anamorphic>
                    <file id="file-68">
                      <name>Scene - Puppet man_0003.066.png</name>
                      <pathurl>file://localhost/C:/Users/jmrey/OneDrive/Desktop/Programmin Stuff/Projects/conversation-simulator/resources/videos/Scene - Puppet man_0003/Scene - Puppet man_0003.066.png</pathurl>
                      <rate>
                        <timebase>24</timebase>
                        <ntsc>FALSE</ntsc>
                      </rate>
                      <duration>720</duration>
                      <timecode>
                        <rate>
                          <timebase>24</timebase>
                          <ntsc>FALSE</ntsc>
                        </rate>
                      </timecode>
                      <media>
                        <video>
                          <duration>1</duration>
                          <samplecharacteristics>
                            <anamorphic>FALSE</anamorphic>
                            <pixelaspectratio>square</pixelaspectratio>
                            <fielddominance>none</fielddominance>
                            <width>1920</width>
                            <height>1080</height>
                          </samplecharacteristics>
                        </video>
                      </media>
                    </file>
                  </clipitem>
                </track>
              </video>
            </media>
          </clip>
          <clip explodedTracks="true" frameBlend="FALSE" id="masterclip-69">
            <uuid>c42d2a69-8c00-427b-83de-1db8796e8418</uuid>
            <masterclipid>masterclip-69</masterclipid>
            <ismasterclip>TRUE</ismasterclip>
            <duration>720</duration>
            <in>0</in>
            <out>720</out>
            <name>Scene - Puppet man_0003.067.png</name>
            <rate>
              <timebase>24</timebase>
              <ntsc>FALSE</ntsc>
            </rate>
            <media>
              <video>
                <track>
                  <clipitem frameBlend="FALSE" id="clipitem-70">
                    <name>Scene - Puppet man_0003.067.png</name>
                    <masterclipid>masterclip-69</masterclipid>
                    <rate>
                      <timebase>24</timebase>
                      <ntsc>FALSE</ntsc>
                    </rate>
                    <alphatype>straight</alphatype>
                    <pixelaspectratio>square</pixelaspectratio>
                    <anamorphic>FALSE</anamorphic>
                    <file id="file-69">
                      <name>Scene - Puppet man_0003.067.png</name>
                      <pathurl>file://localhost/C:/Users/jmrey/OneDrive/Desktop/Programmin Stuff/Projects/conversation-simulator/resources/videos/Scene - Puppet man_0003/Scene - Puppet man_0003.067.png</pathurl>
                      <rate>
                        <timebase>24</timebase>
                        <ntsc>FALSE</ntsc>
                      </rate>
                      <duration>720</duration>
                      <timecode>
                        <rate>
                          <timebase>24</timebase>
                          <ntsc>FALSE</ntsc>
                        </rate>
                      </timecode>
                      <media>
                        <video>
                          <duration>1</duration>
                          <samplecharacteristics>
                            <anamorphic>FALSE</anamorphic>
                            <pixelaspectratio>square</pixelaspectratio>
                            <fielddominance>none</fielddominance>
                            <width>1920</width>
                            <height>1080</height>
                          </samplecharacteristics>
                        </video>
                      </media>
                    </file>
                  </clipitem>
                </track>
              </video>
            </media>
          </clip>
          <clip explodedTracks="true" frameBlend="FALSE" id="masterclip-70">
            <uuid>a94f05f0-3236-4b60-867b-a0259c849172</uuid>
            <masterclipid>masterclip-70</masterclipid>
            <ismasterclip>TRUE</ismasterclip>
            <duration>720</duration>
            <in>0</in>
            <out>720</out>
            <name>Scene - Puppet man_0003.068.png</name>
            <rate>
              <timebase>24</timebase>
              <ntsc>FALSE</ntsc>
            </rate>
            <media>
              <video>
                <track>
                  <clipitem frameBlend="FALSE" id="clipitem-71">
                    <name>Scene - Puppet man_0003.068.png</name>
                    <masterclipid>masterclip-70</masterclipid>
                    <rate>
                      <timebase>24</timebase>
                      <ntsc>FALSE</ntsc>
                    </rate>
                    <alphatype>straight</alphatype>
                    <pixelaspectratio>square</pixelaspectratio>
                    <anamorphic>FALSE</anamorphic>
                    <file id="file-70">
                      <name>Scene - Puppet man_0003.068.png</name>
                      <pathurl>file://localhost/C:/Users/jmrey/OneDrive/Desktop/Programmin Stuff/Projects/conversation-simulator/resources/videos/Scene - Puppet man_0003/Scene - Puppet man_0003.068.png</pathurl>
                      <rate>
                        <timebase>24</timebase>
                        <ntsc>FALSE</ntsc>
                      </rate>
                      <duration>720</duration>
                      <timecode>
                        <rate>
                          <timebase>24</timebase>
                          <ntsc>FALSE</ntsc>
                        </rate>
                      </timecode>
                      <media>
                        <video>
                          <duration>1</duration>
                          <samplecharacteristics>
                            <anamorphic>FALSE</anamorphic>
                            <pixelaspectratio>square</pixelaspectratio>
                            <fielddominance>none</fielddominance>
                            <width>1920</width>
                            <height>1080</height>
                          </samplecharacteristics>
                        </video>
                      </media>
                    </file>
                  </clipitem>
                </track>
              </video>
            </media>
          </clip>
          <clip explodedTracks="true" frameBlend="FALSE" id="masterclip-71">
            <uuid>f636e4a2-172d-430b-8e9a-7776942486ef</uuid>
            <masterclipid>masterclip-71</masterclipid>
            <ismasterclip>TRUE</ismasterclip>
            <duration>720</duration>
            <in>0</in>
            <out>720</out>
            <name>Scene - Puppet man_0003.069.png</name>
            <rate>
              <timebase>24</timebase>
              <ntsc>FALSE</ntsc>
            </rate>
            <media>
              <video>
                <track>
                  <clipitem frameBlend="FALSE" id="clipitem-72">
                    <name>Scene - Puppet man_0003.069.png</name>
                    <masterclipid>masterclip-71</masterclipid>
                    <rate>
                      <timebase>24</timebase>
                      <ntsc>FALSE</ntsc>
                    </rate>
                    <alphatype>straight</alphatype>
                    <pixelaspectratio>square</pixelaspectratio>
                    <anamorphic>FALSE</anamorphic>
                    <file id="file-71">
                      <name>Scene - Puppet man_0003.069.png</name>
                      <pathurl>file://localhost/C:/Users/jmrey/OneDrive/Desktop/Programmin Stuff/Projects/conversation-simulator/resources/videos/Scene - Puppet man_0003/Scene - Puppet man_0003.069.png</pathurl>
                      <rate>
                        <timebase>24</timebase>
                        <ntsc>FALSE</ntsc>
                      </rate>
                      <duration>720</duration>
                      <timecode>
                        <rate>
                          <timebase>24</timebase>
                          <ntsc>FALSE</ntsc>
                        </rate>
                      </timecode>
                      <media>
                        <video>
                          <duration>1</duration>
                          <samplecharacteristics>
                            <anamorphic>FALSE</anamorphic>
                            <pixelaspectratio>square</pixelaspectratio>
                            <fielddominance>none</fielddominance>
                            <width>1920</width>
                            <height>1080</height>
                          </samplecharacteristics>
                        </video>
                      </media>
                    </file>
                  </clipitem>
                </track>
              </video>
            </media>
          </clip>
          <clip explodedTracks="true" frameBlend="FALSE" id="masterclip-72">
            <uuid>e1a7dd60-55f1-4d41-9979-34abe2804ec8</uuid>
            <masterclipid>masterclip-72</masterclipid>
            <ismasterclip>TRUE</ismasterclip>
            <duration>720</duration>
            <in>0</in>
            <out>720</out>
            <name>Scene - Puppet man_0003.070.png</name>
            <rate>
              <timebase>24</timebase>
              <ntsc>FALSE</ntsc>
            </rate>
            <media>
              <video>
                <track>
                  <clipitem frameBlend="FALSE" id="clipitem-73">
                    <name>Scene - Puppet man_0003.070.png</name>
                    <masterclipid>masterclip-72</masterclipid>
                    <rate>
                      <timebase>24</timebase>
                      <ntsc>FALSE</ntsc>
                    </rate>
                    <alphatype>straight</alphatype>
                    <pixelaspectratio>square</pixelaspectratio>
                    <anamorphic>FALSE</anamorphic>
                    <file id="file-72">
                      <name>Scene - Puppet man_0003.070.png</name>
                      <pathurl>file://localhost/C:/Users/jmrey/OneDrive/Desktop/Programmin Stuff/Projects/conversation-simulator/resources/videos/Scene - Puppet man_0003/Scene - Puppet man_0003.070.png</pathurl>
                      <rate>
                        <timebase>24</timebase>
                        <ntsc>FALSE</ntsc>
                      </rate>
                      <duration>720</duration>
                      <timecode>
                        <rate>
                          <timebase>24</timebase>
                          <ntsc>FALSE</ntsc>
                        </rate>
                      </timecode>
                      <media>
                        <video>
                          <duration>1</duration>
                          <samplecharacteristics>
                            <anamorphic>FALSE</anamorphic>
                            <pixelaspectratio>square</pixelaspectratio>
                            <fielddominance>none</fielddominance>
                            <width>1920</width>
                            <height>1080</height>
                          </samplecharacteristics>
                        </video>
                      </media>
                    </file>
                  </clipitem>
                </track>
              </video>
            </media>
          </clip>
          <clip explodedTracks="true" frameBlend="FALSE" id="masterclip-73">
            <uuid>74f362ff-6a59-4473-88f5-6f824c614956</uuid>
            <masterclipid>masterclip-73</masterclipid>
            <ismasterclip>TRUE</ismasterclip>
            <duration>720</duration>
            <in>0</in>
            <out>720</out>
            <name>Scene - Puppet man_0003.071.png</name>
            <rate>
              <timebase>24</timebase>
              <ntsc>FALSE</ntsc>
            </rate>
            <media>
              <video>
                <track>
                  <clipitem frameBlend="FALSE" id="clipitem-74">
                    <name>Scene - Puppet man_0003.071.png</name>
                    <masterclipid>masterclip-73</masterclipid>
                    <rate>
                      <timebase>24</timebase>
                      <ntsc>FALSE</ntsc>
                    </rate>
                    <alphatype>straight</alphatype>
                    <pixelaspectratio>square</pixelaspectratio>
                    <anamorphic>FALSE</anamorphic>
                    <file id="file-73">
                      <name>Scene - Puppet man_0003.071.png</name>
                      <pathurl>file://localhost/C:/Users/jmrey/OneDrive/Desktop/Programmin Stuff/Projects/conversation-simulator/resources/videos/Scene - Puppet man_0003/Scene - Puppet man_0003.071.png</pathurl>
                      <rate>
                        <timebase>24</timebase>
                        <ntsc>FALSE</ntsc>
                      </rate>
                      <duration>720</duration>
                      <timecode>
                        <rate>
                          <timebase>24</timebase>
                          <ntsc>FALSE</ntsc>
                        </rate>
                      </timecode>
                      <media>
                        <video>
                          <duration>1</duration>
                          <samplecharacteristics>
                            <anamorphic>FALSE</anamorphic>
                            <pixelaspectratio>square</pixelaspectratio>
                            <fielddominance>none</fielddominance>
                            <width>1920</width>
                            <height>1080</height>
                          </samplecharacteristics>
                        </video>
                      </media>
                    </file>
                  </clipitem>
                </track>
              </video>
            </media>
          </clip>
          <clip explodedTracks="true" frameBlend="FALSE" id="masterclip-74">
            <uuid>f0d9c560-9a3f-4f45-881d-b1fac323aa0c</uuid>
            <masterclipid>masterclip-74</masterclipid>
            <ismasterclip>TRUE</ismasterclip>
            <duration>720</duration>
            <in>0</in>
            <out>720</out>
            <name>Scene - Puppet man_0003.072.png</name>
            <rate>
              <timebase>24</timebase>
              <ntsc>FALSE</ntsc>
            </rate>
            <media>
              <video>
                <track>
                  <clipitem frameBlend="FALSE" id="clipitem-75">
                    <name>Scene - Puppet man_0003.072.png</name>
                    <masterclipid>masterclip-74</masterclipid>
                    <rate>
                      <timebase>24</timebase>
                      <ntsc>FALSE</ntsc>
                    </rate>
                    <alphatype>straight</alphatype>
                    <pixelaspectratio>square</pixelaspectratio>
                    <anamorphic>FALSE</anamorphic>
                    <file id="file-74">
                      <name>Scene - Puppet man_0003.072.png</name>
                      <pathurl>file://localhost/C:/Users/jmrey/OneDrive/Desktop/Programmin Stuff/Projects/conversation-simulator/resources/videos/Scene - Puppet man_0003/Scene - Puppet man_0003.072.png</pathurl>
                      <rate>
                        <timebase>24</timebase>
                        <ntsc>FALSE</ntsc>
                      </rate>
                      <duration>720</duration>
                      <timecode>
                        <rate>
                          <timebase>24</timebase>
                          <ntsc>FALSE</ntsc>
                        </rate>
                      </timecode>
                      <media>
                        <video>
                          <duration>1</duration>
                          <samplecharacteristics>
                            <anamorphic>FALSE</anamorphic>
                            <pixelaspectratio>square</pixelaspectratio>
                            <fielddominance>none</fielddominance>
                            <width>1920</width>
                            <height>1080</height>
                          </samplecharacteristics>
                        </video>
                      </media>
                    </file>
                  </clipitem>
                </track>
              </video>
            </media>
          </clip>
          <clip explodedTracks="true" frameBlend="FALSE" id="masterclip-75">
            <uuid>1dc37e75-0bd0-4459-a0f0-94e832d1bcc7</uuid>
            <masterclipid>masterclip-75</masterclipid>
            <ismasterclip>TRUE</ismasterclip>
            <duration>720</duration>
            <in>0</in>
            <out>720</out>
            <name>Scene - Puppet man_0003.073.png</name>
            <rate>
              <timebase>24</timebase>
              <ntsc>FALSE</ntsc>
            </rate>
            <media>
              <video>
                <track>
                  <clipitem frameBlend="FALSE" id="clipitem-76">
                    <name>Scene - Puppet man_0003.073.png</name>
                    <masterclipid>masterclip-75</masterclipid>
                    <rate>
                      <timebase>24</timebase>
                      <ntsc>FALSE</ntsc>
                    </rate>
                    <alphatype>straight</alphatype>
                    <pixelaspectratio>square</pixelaspectratio>
                    <anamorphic>FALSE</anamorphic>
                    <file id="file-75">
                      <name>Scene - Puppet man_0003.073.png</name>
                      <pathurl>file://localhost/C:/Users/jmrey/OneDrive/Desktop/Programmin Stuff/Projects/conversation-simulator/resources/videos/Scene - Puppet man_0003/Scene - Puppet man_0003.073.png</pathurl>
                      <rate>
                        <timebase>24</timebase>
                        <ntsc>FALSE</ntsc>
                      </rate>
                      <duration>720</duration>
                      <timecode>
                        <rate>
                          <timebase>24</timebase>
                          <ntsc>FALSE</ntsc>
                        </rate>
                      </timecode>
                      <media>
                        <video>
                          <duration>1</duration>
                          <samplecharacteristics>
                            <anamorphic>FALSE</anamorphic>
                            <pixelaspectratio>square</pixelaspectratio>
                            <fielddominance>none</fielddominance>
                            <width>1920</width>
                            <height>1080</height>
                          </samplecharacteristics>
                        </video>
                      </media>
                    </file>
                  </clipitem>
                </track>
              </video>
            </media>
          </clip>
          <clip explodedTracks="true" frameBlend="FALSE" id="masterclip-76">
            <uuid>d5d7c6ea-dd35-4841-bc71-360cce33b9f5</uuid>
            <masterclipid>masterclip-76</masterclipid>
            <ismasterclip>TRUE</ismasterclip>
            <duration>720</duration>
            <in>0</in>
            <out>720</out>
            <name>Scene - Puppet man_0003.074.png</name>
            <rate>
              <timebase>24</timebase>
              <ntsc>FALSE</ntsc>
            </rate>
            <media>
              <video>
                <track>
                  <clipitem frameBlend="FALSE" id="clipitem-77">
                    <name>Scene - Puppet man_0003.074.png</name>
                    <masterclipid>masterclip-76</masterclipid>
                    <rate>
                      <timebase>24</timebase>
                      <ntsc>FALSE</ntsc>
                    </rate>
                    <alphatype>straight</alphatype>
                    <pixelaspectratio>square</pixelaspectratio>
                    <anamorphic>FALSE</anamorphic>
                    <file id="file-76">
                      <name>Scene - Puppet man_0003.074.png</name>
                      <pathurl>file://localhost/C:/Users/jmrey/OneDrive/Desktop/Programmin Stuff/Projects/conversation-simulator/resources/videos/Scene - Puppet man_0003/Scene - Puppet man_0003.074.png</pathurl>
                      <rate>
                        <timebase>24</timebase>
                        <ntsc>FALSE</ntsc>
                      </rate>
                      <duration>720</duration>
                      <timecode>
                        <rate>
                          <timebase>24</timebase>
                          <ntsc>FALSE</ntsc>
                        </rate>
                      </timecode>
                      <media>
                        <video>
                          <duration>1</duration>
                          <samplecharacteristics>
                            <anamorphic>FALSE</anamorphic>
                            <pixelaspectratio>square</pixelaspectratio>
                            <fielddominance>none</fielddominance>
                            <width>1920</width>
                            <height>1080</height>
                          </samplecharacteristics>
                        </video>
                      </media>
                    </file>
                  </clipitem>
                </track>
              </video>
            </media>
          </clip>
          <clip explodedTracks="true" frameBlend="FALSE" id="masterclip-77">
            <uuid>34bbf75d-52b4-4674-b070-8de527f281c2</uuid>
            <masterclipid>masterclip-77</masterclipid>
            <ismasterclip>TRUE</ismasterclip>
            <duration>720</duration>
            <in>0</in>
            <out>720</out>
            <name>Scene - Puppet man_0003.075.png</name>
            <rate>
              <timebase>24</timebase>
              <ntsc>FALSE</ntsc>
            </rate>
            <media>
              <video>
                <track>
                  <clipitem frameBlend="FALSE" id="clipitem-78">
                    <name>Scene - Puppet man_0003.075.png</name>
                    <masterclipid>masterclip-77</masterclipid>
                    <rate>
                      <timebase>24</timebase>
                      <ntsc>FALSE</ntsc>
                    </rate>
                    <alphatype>straight</alphatype>
                    <pixelaspectratio>square</pixelaspectratio>
                    <anamorphic>FALSE</anamorphic>
                    <file id="file-77">
                      <name>Scene - Puppet man_0003.075.png</name>
                      <pathurl>file://localhost/C:/Users/jmrey/OneDrive/Desktop/Programmin Stuff/Projects/conversation-simulator/resources/videos/Scene - Puppet man_0003/Scene - Puppet man_0003.075.png</pathurl>
                      <rate>
                        <timebase>24</timebase>
                        <ntsc>FALSE</ntsc>
                      </rate>
                      <duration>720</duration>
                      <timecode>
                        <rate>
                          <timebase>24</timebase>
                          <ntsc>FALSE</ntsc>
                        </rate>
                      </timecode>
                      <media>
                        <video>
                          <duration>1</duration>
                          <samplecharacteristics>
                            <anamorphic>FALSE</anamorphic>
                            <pixelaspectratio>square</pixelaspectratio>
                            <fielddominance>none</fielddominance>
                            <width>1920</width>
                            <height>1080</height>
                          </samplecharacteristics>
                        </video>
                      </media>
                    </file>
                  </clipitem>
                </track>
              </video>
            </media>
          </clip>
          <clip explodedTracks="true" frameBlend="FALSE" id="masterclip-78">
            <uuid>724ee596-2a7c-432a-a314-112f76bbc861</uuid>
            <masterclipid>masterclip-78</masterclipid>
            <ismasterclip>TRUE</ismasterclip>
            <duration>720</duration>
            <in>0</in>
            <out>720</out>
            <name>Scene - Puppet man_0003.076.png</name>
            <rate>
              <timebase>24</timebase>
              <ntsc>FALSE</ntsc>
            </rate>
            <media>
              <video>
                <track>
                  <clipitem frameBlend="FALSE" id="clipitem-79">
                    <name>Scene - Puppet man_0003.076.png</name>
                    <masterclipid>masterclip-78</masterclipid>
                    <rate>
                      <timebase>24</timebase>
                      <ntsc>FALSE</ntsc>
                    </rate>
                    <alphatype>straight</alphatype>
                    <pixelaspectratio>square</pixelaspectratio>
                    <anamorphic>FALSE</anamorphic>
                    <file id="file-78">
                      <name>Scene - Puppet man_0003.076.png</name>
                      <pathurl>file://localhost/C:/Users/jmrey/OneDrive/Desktop/Programmin Stuff/Projects/conversation-simulator/resources/videos/Scene - Puppet man_0003/Scene - Puppet man_0003.076.png</pathurl>
                      <rate>
                        <timebase>24</timebase>
                        <ntsc>FALSE</ntsc>
                      </rate>
                      <duration>720</duration>
                      <timecode>
                        <rate>
                          <timebase>24</timebase>
                          <ntsc>FALSE</ntsc>
                        </rate>
                      </timecode>
                      <media>
                        <video>
                          <duration>1</duration>
                          <samplecharacteristics>
                            <anamorphic>FALSE</anamorphic>
                            <pixelaspectratio>square</pixelaspectratio>
                            <fielddominance>none</fielddominance>
                            <width>1920</width>
                            <height>1080</height>
                          </samplecharacteristics>
                        </video>
                      </media>
                    </file>
                  </clipitem>
                </track>
              </video>
            </media>
          </clip>
          <clip explodedTracks="true" frameBlend="FALSE" id="masterclip-79">
            <uuid>1689f22b-cb11-482c-93c2-1ae183082b3b</uuid>
            <masterclipid>masterclip-79</masterclipid>
            <ismasterclip>TRUE</ismasterclip>
            <duration>720</duration>
            <in>0</in>
            <out>720</out>
            <name>Scene - Puppet man_0003.077.png</name>
            <rate>
              <timebase>24</timebase>
              <ntsc>FALSE</ntsc>
            </rate>
            <media>
              <video>
                <track>
                  <clipitem frameBlend="FALSE" id="clipitem-80">
                    <name>Scene - Puppet man_0003.077.png</name>
                    <masterclipid>masterclip-79</masterclipid>
                    <rate>
                      <timebase>24</timebase>
                      <ntsc>FALSE</ntsc>
                    </rate>
                    <alphatype>straight</alphatype>
                    <pixelaspectratio>square</pixelaspectratio>
                    <anamorphic>FALSE</anamorphic>
                    <file id="file-79">
                      <name>Scene - Puppet man_0003.077.png</name>
                      <pathurl>file://localhost/C:/Users/jmrey/OneDrive/Desktop/Programmin Stuff/Projects/conversation-simulator/resources/videos/Scene - Puppet man_0003/Scene - Puppet man_0003.077.png</pathurl>
                      <rate>
                        <timebase>24</timebase>
                        <ntsc>FALSE</ntsc>
                      </rate>
                      <duration>720</duration>
                      <timecode>
                        <rate>
                          <timebase>24</timebase>
                          <ntsc>FALSE</ntsc>
                        </rate>
                      </timecode>
                      <media>
                        <video>
                          <duration>1</duration>
                          <samplecharacteristics>
                            <anamorphic>FALSE</anamorphic>
                            <pixelaspectratio>square</pixelaspectratio>
                            <fielddominance>none</fielddominance>
                            <width>1920</width>
                            <height>1080</height>
                          </samplecharacteristics>
                        </video>
                      </media>
                    </file>
                  </clipitem>
                </track>
              </video>
            </media>
          </clip>
          <clip explodedTracks="true" frameBlend="FALSE" id="masterclip-80">
            <uuid>b8c03825-4fee-4105-8953-97cabf315002</uuid>
            <masterclipid>masterclip-80</masterclipid>
            <ismasterclip>TRUE</ismasterclip>
            <duration>720</duration>
            <in>0</in>
            <out>720</out>
            <name>Scene - Puppet man_0003.078.png</name>
            <rate>
              <timebase>24</timebase>
              <ntsc>FALSE</ntsc>
            </rate>
            <media>
              <video>
                <track>
                  <clipitem frameBlend="FALSE" id="clipitem-81">
                    <name>Scene - Puppet man_0003.078.png</name>
                    <masterclipid>masterclip-80</masterclipid>
                    <rate>
                      <timebase>24</timebase>
                      <ntsc>FALSE</ntsc>
                    </rate>
                    <alphatype>straight</alphatype>
                    <pixelaspectratio>square</pixelaspectratio>
                    <anamorphic>FALSE</anamorphic>
                    <file id="file-80">
                      <name>Scene - Puppet man_0003.078.png</name>
                      <pathurl>file://localhost/C:/Users/jmrey/OneDrive/Desktop/Programmin Stuff/Projects/conversation-simulator/resources/videos/Scene - Puppet man_0003/Scene - Puppet man_0003.078.png</pathurl>
                      <rate>
                        <timebase>24</timebase>
                        <ntsc>FALSE</ntsc>
                      </rate>
                      <duration>720</duration>
                      <timecode>
                        <rate>
                          <timebase>24</timebase>
                          <ntsc>FALSE</ntsc>
                        </rate>
                      </timecode>
                      <media>
                        <video>
                          <duration>1</duration>
                          <samplecharacteristics>
                            <anamorphic>FALSE</anamorphic>
                            <pixelaspectratio>square</pixelaspectratio>
                            <fielddominance>none</fielddominance>
                            <width>1920</width>
                            <height>1080</height>
                          </samplecharacteristics>
                        </video>
                      </media>
                    </file>
                  </clipitem>
                </track>
              </video>
            </media>
          </clip>
          <clip explodedTracks="true" frameBlend="FALSE" id="masterclip-81">
            <uuid>21f3e982-11fb-4cec-84e9-04e245b5fb08</uuid>
            <masterclipid>masterclip-81</masterclipid>
            <ismasterclip>TRUE</ismasterclip>
            <duration>720</duration>
            <in>0</in>
            <out>720</out>
            <name>Scene - Puppet man_0003.079.png</name>
            <rate>
              <timebase>24</timebase>
              <ntsc>FALSE</ntsc>
            </rate>
            <media>
              <video>
                <track>
                  <clipitem frameBlend="FALSE" id="clipitem-82">
                    <name>Scene - Puppet man_0003.079.png</name>
                    <masterclipid>masterclip-81</masterclipid>
                    <rate>
                      <timebase>24</timebase>
                      <ntsc>FALSE</ntsc>
                    </rate>
                    <alphatype>straight</alphatype>
                    <pixelaspectratio>square</pixelaspectratio>
                    <anamorphic>FALSE</anamorphic>
                    <file id="file-81">
                      <name>Scene - Puppet man_0003.079.png</name>
                      <pathurl>file://localhost/C:/Users/jmrey/OneDrive/Desktop/Programmin Stuff/Projects/conversation-simulator/resources/videos/Scene - Puppet man_0003/Scene - Puppet man_0003.079.png</pathurl>
                      <rate>
                        <timebase>24</timebase>
                        <ntsc>FALSE</ntsc>
                      </rate>
                      <duration>720</duration>
                      <timecode>
                        <rate>
                          <timebase>24</timebase>
                          <ntsc>FALSE</ntsc>
                        </rate>
                      </timecode>
                      <media>
                        <video>
                          <duration>1</duration>
                          <samplecharacteristics>
                            <anamorphic>FALSE</anamorphic>
                            <pixelaspectratio>square</pixelaspectratio>
                            <fielddominance>none</fielddominance>
                            <width>1920</width>
                            <height>1080</height>
                          </samplecharacteristics>
                        </video>
                      </media>
                    </file>
                  </clipitem>
                </track>
              </video>
            </media>
          </clip>
          <clip explodedTracks="true" frameBlend="FALSE" id="masterclip-82">
            <uuid>1e43aeaf-10f3-4710-8032-1debfbfb3c1c</uuid>
            <masterclipid>masterclip-82</masterclipid>
            <ismasterclip>TRUE</ismasterclip>
            <duration>720</duration>
            <in>0</in>
            <out>720</out>
            <name>Scene - Puppet man_0003.080.png</name>
            <rate>
              <timebase>24</timebase>
              <ntsc>FALSE</ntsc>
            </rate>
            <media>
              <video>
                <track>
                  <clipitem frameBlend="FALSE" id="clipitem-83">
                    <name>Scene - Puppet man_0003.080.png</name>
                    <masterclipid>masterclip-82</masterclipid>
                    <rate>
                      <timebase>24</timebase>
                      <ntsc>FALSE</ntsc>
                    </rate>
                    <alphatype>straight</alphatype>
                    <pixelaspectratio>square</pixelaspectratio>
                    <anamorphic>FALSE</anamorphic>
                    <file id="file-82">
                      <name>Scene - Puppet man_0003.080.png</name>
                      <pathurl>file://localhost/C:/Users/jmrey/OneDrive/Desktop/Programmin Stuff/Projects/conversation-simulator/resources/videos/Scene - Puppet man_0003/Scene - Puppet man_0003.080.png</pathurl>
                      <rate>
                        <timebase>24</timebase>
                        <ntsc>FALSE</ntsc>
                      </rate>
                      <duration>720</duration>
                      <timecode>
                        <rate>
                          <timebase>24</timebase>
                          <ntsc>FALSE</ntsc>
                        </rate>
                      </timecode>
                      <media>
                        <video>
                          <duration>1</duration>
                          <samplecharacteristics>
                            <anamorphic>FALSE</anamorphic>
                            <pixelaspectratio>square</pixelaspectratio>
                            <fielddominance>none</fielddominance>
                            <width>1920</width>
                            <height>1080</height>
                          </samplecharacteristics>
                        </video>
                      </media>
                    </file>
                  </clipitem>
                </track>
              </video>
            </media>
          </clip>
          <clip explodedTracks="true" frameBlend="FALSE" id="masterclip-83">
            <uuid>8fe01adc-04c7-4ba7-9440-9623282138d6</uuid>
            <masterclipid>masterclip-83</masterclipid>
            <ismasterclip>TRUE</ismasterclip>
            <duration>720</duration>
            <in>0</in>
            <out>720</out>
            <name>Scene - Puppet man_0003.081.png</name>
            <rate>
              <timebase>24</timebase>
              <ntsc>FALSE</ntsc>
            </rate>
            <media>
              <video>
                <track>
                  <clipitem frameBlend="FALSE" id="clipitem-84">
                    <name>Scene - Puppet man_0003.081.png</name>
                    <masterclipid>masterclip-83</masterclipid>
                    <rate>
                      <timebase>24</timebase>
                      <ntsc>FALSE</ntsc>
                    </rate>
                    <alphatype>straight</alphatype>
                    <pixelaspectratio>square</pixelaspectratio>
                    <anamorphic>FALSE</anamorphic>
                    <file id="file-83">
                      <name>Scene - Puppet man_0003.081.png</name>
                      <pathurl>file://localhost/C:/Users/jmrey/OneDrive/Desktop/Programmin Stuff/Projects/conversation-simulator/resources/videos/Scene - Puppet man_0003/Scene - Puppet man_0003.081.png</pathurl>
                      <rate>
                        <timebase>24</timebase>
                        <ntsc>FALSE</ntsc>
                      </rate>
                      <duration>720</duration>
                      <timecode>
                        <rate>
                          <timebase>24</timebase>
                          <ntsc>FALSE</ntsc>
                        </rate>
                      </timecode>
                      <media>
                        <video>
                          <duration>1</duration>
                          <samplecharacteristics>
                            <anamorphic>FALSE</anamorphic>
                            <pixelaspectratio>square</pixelaspectratio>
                            <fielddominance>none</fielddominance>
                            <width>1920</width>
                            <height>1080</height>
                          </samplecharacteristics>
                        </video>
                      </media>
                    </file>
                  </clipitem>
                </track>
              </video>
            </media>
          </clip>
          <clip explodedTracks="true" frameBlend="FALSE" id="masterclip-84">
            <uuid>16e53d67-282c-4f9e-8f83-8134cb65150a</uuid>
            <masterclipid>masterclip-84</masterclipid>
            <ismasterclip>TRUE</ismasterclip>
            <duration>720</duration>
            <in>0</in>
            <out>720</out>
            <name>Scene - Puppet man_0003.082.png</name>
            <rate>
              <timebase>24</timebase>
              <ntsc>FALSE</ntsc>
            </rate>
            <media>
              <video>
                <track>
                  <clipitem frameBlend="FALSE" id="clipitem-85">
                    <name>Scene - Puppet man_0003.082.png</name>
                    <masterclipid>masterclip-84</masterclipid>
                    <rate>
                      <timebase>24</timebase>
                      <ntsc>FALSE</ntsc>
                    </rate>
                    <alphatype>straight</alphatype>
                    <pixelaspectratio>square</pixelaspectratio>
                    <anamorphic>FALSE</anamorphic>
                    <file id="file-84">
                      <name>Scene - Puppet man_0003.082.png</name>
                      <pathurl>file://localhost/C:/Users/jmrey/OneDrive/Desktop/Programmin Stuff/Projects/conversation-simulator/resources/videos/Scene - Puppet man_0003/Scene - Puppet man_0003.082.png</pathurl>
                      <rate>
                        <timebase>24</timebase>
                        <ntsc>FALSE</ntsc>
                      </rate>
                      <duration>720</duration>
                      <timecode>
                        <rate>
                          <timebase>24</timebase>
                          <ntsc>FALSE</ntsc>
                        </rate>
                      </timecode>
                      <media>
                        <video>
                          <duration>1</duration>
                          <samplecharacteristics>
                            <anamorphic>FALSE</anamorphic>
                            <pixelaspectratio>square</pixelaspectratio>
                            <fielddominance>none</fielddominance>
                            <width>1920</width>
                            <height>1080</height>
                          </samplecharacteristics>
                        </video>
                      </media>
                    </file>
                  </clipitem>
                </track>
              </video>
            </media>
          </clip>
          <clip explodedTracks="true" frameBlend="FALSE" id="masterclip-85">
            <uuid>b7fd45ce-911b-4cc8-90b7-cc42e157648d</uuid>
            <masterclipid>masterclip-85</masterclipid>
            <ismasterclip>TRUE</ismasterclip>
            <duration>720</duration>
            <in>0</in>
            <out>720</out>
            <name>Scene - Puppet man_0003.083.png</name>
            <rate>
              <timebase>24</timebase>
              <ntsc>FALSE</ntsc>
            </rate>
            <media>
              <video>
                <track>
                  <clipitem frameBlend="FALSE" id="clipitem-86">
                    <name>Scene - Puppet man_0003.083.png</name>
                    <masterclipid>masterclip-85</masterclipid>
                    <rate>
                      <timebase>24</timebase>
                      <ntsc>FALSE</ntsc>
                    </rate>
                    <alphatype>straight</alphatype>
                    <pixelaspectratio>square</pixelaspectratio>
                    <anamorphic>FALSE</anamorphic>
                    <file id="file-85">
                      <name>Scene - Puppet man_0003.083.png</name>
                      <pathurl>file://localhost/C:/Users/jmrey/OneDrive/Desktop/Programmin Stuff/Projects/conversation-simulator/resources/videos/Scene - Puppet man_0003/Scene - Puppet man_0003.083.png</pathurl>
                      <rate>
                        <timebase>24</timebase>
                        <ntsc>FALSE</ntsc>
                      </rate>
                      <duration>720</duration>
                      <timecode>
                        <rate>
                          <timebase>24</timebase>
                          <ntsc>FALSE</ntsc>
                        </rate>
                      </timecode>
                      <media>
                        <video>
                          <duration>1</duration>
                          <samplecharacteristics>
                            <anamorphic>FALSE</anamorphic>
                            <pixelaspectratio>square</pixelaspectratio>
                            <fielddominance>none</fielddominance>
                            <width>1920</width>
                            <height>1080</height>
                          </samplecharacteristics>
                        </video>
                      </media>
                    </file>
                  </clipitem>
                </track>
              </video>
            </media>
          </clip>
          <clip explodedTracks="true" frameBlend="FALSE" id="masterclip-86">
            <uuid>0fbe08d6-aacd-48fd-b183-05f758f60bcb</uuid>
            <masterclipid>masterclip-86</masterclipid>
            <ismasterclip>TRUE</ismasterclip>
            <duration>720</duration>
            <in>0</in>
            <out>720</out>
            <name>Scene - Puppet man_0003.084.png</name>
            <rate>
              <timebase>24</timebase>
              <ntsc>FALSE</ntsc>
            </rate>
            <media>
              <video>
                <track>
                  <clipitem frameBlend="FALSE" id="clipitem-87">
                    <name>Scene - Puppet man_0003.084.png</name>
                    <masterclipid>masterclip-86</masterclipid>
                    <rate>
                      <timebase>24</timebase>
                      <ntsc>FALSE</ntsc>
                    </rate>
                    <alphatype>straight</alphatype>
                    <pixelaspectratio>square</pixelaspectratio>
                    <anamorphic>FALSE</anamorphic>
                    <file id="file-86">
                      <name>Scene - Puppet man_0003.084.png</name>
                      <pathurl>file://localhost/C:/Users/jmrey/OneDrive/Desktop/Programmin Stuff/Projects/conversation-simulator/resources/videos/Scene - Puppet man_0003/Scene - Puppet man_0003.084.png</pathurl>
                      <rate>
                        <timebase>24</timebase>
                        <ntsc>FALSE</ntsc>
                      </rate>
                      <duration>720</duration>
                      <timecode>
                        <rate>
                          <timebase>24</timebase>
                          <ntsc>FALSE</ntsc>
                        </rate>
                      </timecode>
                      <media>
                        <video>
                          <duration>1</duration>
                          <samplecharacteristics>
                            <anamorphic>FALSE</anamorphic>
                            <pixelaspectratio>square</pixelaspectratio>
                            <fielddominance>none</fielddominance>
                            <width>1920</width>
                            <height>1080</height>
                          </samplecharacteristics>
                        </video>
                      </media>
                    </file>
                  </clipitem>
                </track>
              </video>
            </media>
          </clip>
          <clip explodedTracks="true" frameBlend="FALSE" id="masterclip-87">
            <uuid>e70395f4-2d27-409f-bdb7-aabccd204d21</uuid>
            <masterclipid>masterclip-87</masterclipid>
            <ismasterclip>TRUE</ismasterclip>
            <duration>720</duration>
            <in>0</in>
            <out>720</out>
            <name>Scene - Puppet man_0003.085.png</name>
            <rate>
              <timebase>24</timebase>
              <ntsc>FALSE</ntsc>
            </rate>
            <media>
              <video>
                <track>
                  <clipitem frameBlend="FALSE" id="clipitem-88">
                    <name>Scene - Puppet man_0003.085.png</name>
                    <masterclipid>masterclip-87</masterclipid>
                    <rate>
                      <timebase>24</timebase>
                      <ntsc>FALSE</ntsc>
                    </rate>
                    <alphatype>straight</alphatype>
                    <pixelaspectratio>square</pixelaspectratio>
                    <anamorphic>FALSE</anamorphic>
                    <file id="file-87">
                      <name>Scene - Puppet man_0003.085.png</name>
                      <pathurl>file://localhost/C:/Users/jmrey/OneDrive/Desktop/Programmin Stuff/Projects/conversation-simulator/resources/videos/Scene - Puppet man_0003/Scene - Puppet man_0003.085.png</pathurl>
                      <rate>
                        <timebase>24</timebase>
                        <ntsc>FALSE</ntsc>
                      </rate>
                      <duration>720</duration>
                      <timecode>
                        <rate>
                          <timebase>24</timebase>
                          <ntsc>FALSE</ntsc>
                        </rate>
                      </timecode>
                      <media>
                        <video>
                          <duration>1</duration>
                          <samplecharacteristics>
                            <anamorphic>FALSE</anamorphic>
                            <pixelaspectratio>square</pixelaspectratio>
                            <fielddominance>none</fielddominance>
                            <width>1920</width>
                            <height>1080</height>
                          </samplecharacteristics>
                        </video>
                      </media>
                    </file>
                  </clipitem>
                </track>
              </video>
            </media>
          </clip>
          <clip explodedTracks="true" frameBlend="FALSE" id="masterclip-88">
            <uuid>d7f486cc-9b7d-43ab-b841-cf7867aa87eb</uuid>
            <masterclipid>masterclip-88</masterclipid>
            <ismasterclip>TRUE</ismasterclip>
            <duration>720</duration>
            <in>0</in>
            <out>720</out>
            <name>Scene - Puppet man_0003.086.png</name>
            <rate>
              <timebase>24</timebase>
              <ntsc>FALSE</ntsc>
            </rate>
            <media>
              <video>
                <track>
                  <clipitem frameBlend="FALSE" id="clipitem-89">
                    <name>Scene - Puppet man_0003.086.png</name>
                    <masterclipid>masterclip-88</masterclipid>
                    <rate>
                      <timebase>24</timebase>
                      <ntsc>FALSE</ntsc>
                    </rate>
                    <alphatype>straight</alphatype>
                    <pixelaspectratio>square</pixelaspectratio>
                    <anamorphic>FALSE</anamorphic>
                    <file id="file-88">
                      <name>Scene - Puppet man_0003.086.png</name>
                      <pathurl>file://localhost/C:/Users/jmrey/OneDrive/Desktop/Programmin Stuff/Projects/conversation-simulator/resources/videos/Scene - Puppet man_0003/Scene - Puppet man_0003.086.png</pathurl>
                      <rate>
                        <timebase>24</timebase>
                        <ntsc>FALSE</ntsc>
                      </rate>
                      <duration>720</duration>
                      <timecode>
                        <rate>
                          <timebase>24</timebase>
                          <ntsc>FALSE</ntsc>
                        </rate>
                      </timecode>
                      <media>
                        <video>
                          <duration>1</duration>
                          <samplecharacteristics>
                            <anamorphic>FALSE</anamorphic>
                            <pixelaspectratio>square</pixelaspectratio>
                            <fielddominance>none</fielddominance>
                            <width>1920</width>
                            <height>1080</height>
                          </samplecharacteristics>
                        </video>
                      </media>
                    </file>
                  </clipitem>
                </track>
              </video>
            </media>
          </clip>
          <clip explodedTracks="true" frameBlend="FALSE" id="masterclip-89">
            <uuid>44448398-a03a-4901-8753-fbb46712adfb</uuid>
            <masterclipid>masterclip-89</masterclipid>
            <ismasterclip>TRUE</ismasterclip>
            <duration>720</duration>
            <in>0</in>
            <out>720</out>
            <name>Scene - Puppet man_0003.087.png</name>
            <rate>
              <timebase>24</timebase>
              <ntsc>FALSE</ntsc>
            </rate>
            <media>
              <video>
                <track>
                  <clipitem frameBlend="FALSE" id="clipitem-90">
                    <name>Scene - Puppet man_0003.087.png</name>
                    <masterclipid>masterclip-89</masterclipid>
                    <rate>
                      <timebase>24</timebase>
                      <ntsc>FALSE</ntsc>
                    </rate>
                    <alphatype>straight</alphatype>
                    <pixelaspectratio>square</pixelaspectratio>
                    <anamorphic>FALSE</anamorphic>
                    <file id="file-89">
                      <name>Scene - Puppet man_0003.087.png</name>
                      <pathurl>file://localhost/C:/Users/jmrey/OneDrive/Desktop/Programmin Stuff/Projects/conversation-simulator/resources/videos/Scene - Puppet man_0003/Scene - Puppet man_0003.087.png</pathurl>
                      <rate>
                        <timebase>24</timebase>
                        <ntsc>FALSE</ntsc>
                      </rate>
                      <duration>720</duration>
                      <timecode>
                        <rate>
                          <timebase>24</timebase>
                          <ntsc>FALSE</ntsc>
                        </rate>
                      </timecode>
                      <media>
                        <video>
                          <duration>1</duration>
                          <samplecharacteristics>
                            <anamorphic>FALSE</anamorphic>
                            <pixelaspectratio>square</pixelaspectratio>
                            <fielddominance>none</fielddominance>
                            <width>1920</width>
                            <height>1080</height>
                          </samplecharacteristics>
                        </video>
                      </media>
                    </file>
                  </clipitem>
                </track>
              </video>
            </media>
          </clip>
          <clip explodedTracks="true" frameBlend="FALSE" id="masterclip-90">
            <uuid>10facd82-1a86-4791-89aa-c18451797280</uuid>
            <masterclipid>masterclip-90</masterclipid>
            <ismasterclip>TRUE</ismasterclip>
            <duration>720</duration>
            <in>0</in>
            <out>720</out>
            <name>Scene - Puppet man_0003.088.png</name>
            <rate>
              <timebase>24</timebase>
              <ntsc>FALSE</ntsc>
            </rate>
            <media>
              <video>
                <track>
                  <clipitem frameBlend="FALSE" id="clipitem-91">
                    <name>Scene - Puppet man_0003.088.png</name>
                    <masterclipid>masterclip-90</masterclipid>
                    <rate>
                      <timebase>24</timebase>
                      <ntsc>FALSE</ntsc>
                    </rate>
                    <alphatype>straight</alphatype>
                    <pixelaspectratio>square</pixelaspectratio>
                    <anamorphic>FALSE</anamorphic>
                    <file id="file-90">
                      <name>Scene - Puppet man_0003.088.png</name>
                      <pathurl>file://localhost/C:/Users/jmrey/OneDrive/Desktop/Programmin Stuff/Projects/conversation-simulator/resources/videos/Scene - Puppet man_0003/Scene - Puppet man_0003.088.png</pathurl>
                      <rate>
                        <timebase>24</timebase>
                        <ntsc>FALSE</ntsc>
                      </rate>
                      <duration>720</duration>
                      <timecode>
                        <rate>
                          <timebase>24</timebase>
                          <ntsc>FALSE</ntsc>
                        </rate>
                      </timecode>
                      <media>
                        <video>
                          <duration>1</duration>
                          <samplecharacteristics>
                            <anamorphic>FALSE</anamorphic>
                            <pixelaspectratio>square</pixelaspectratio>
                            <fielddominance>none</fielddominance>
                            <width>1920</width>
                            <height>1080</height>
                          </samplecharacteristics>
                        </video>
                      </media>
                    </file>
                  </clipitem>
                </track>
              </video>
            </media>
          </clip>
          <clip explodedTracks="true" frameBlend="FALSE" id="masterclip-91">
            <uuid>e5f8ba94-9955-44f4-bc2f-62b6a8c64dcd</uuid>
            <masterclipid>masterclip-91</masterclipid>
            <ismasterclip>TRUE</ismasterclip>
            <duration>720</duration>
            <in>0</in>
            <out>720</out>
            <name>Scene - Puppet man_0003.089.png</name>
            <rate>
              <timebase>24</timebase>
              <ntsc>FALSE</ntsc>
            </rate>
            <media>
              <video>
                <track>
                  <clipitem frameBlend="FALSE" id="clipitem-92">
                    <name>Scene - Puppet man_0003.089.png</name>
                    <masterclipid>masterclip-91</masterclipid>
                    <rate>
                      <timebase>24</timebase>
                      <ntsc>FALSE</ntsc>
                    </rate>
                    <alphatype>straight</alphatype>
                    <pixelaspectratio>square</pixelaspectratio>
                    <anamorphic>FALSE</anamorphic>
                    <file id="file-91">
                      <name>Scene - Puppet man_0003.089.png</name>
                      <pathurl>file://localhost/C:/Users/jmrey/OneDrive/Desktop/Programmin Stuff/Projects/conversation-simulator/resources/videos/Scene - Puppet man_0003/Scene - Puppet man_0003.089.png</pathurl>
                      <rate>
                        <timebase>24</timebase>
                        <ntsc>FALSE</ntsc>
                      </rate>
                      <duration>720</duration>
                      <timecode>
                        <rate>
                          <timebase>24</timebase>
                          <ntsc>FALSE</ntsc>
                        </rate>
                      </timecode>
                      <media>
                        <video>
                          <duration>1</duration>
                          <samplecharacteristics>
                            <anamorphic>FALSE</anamorphic>
                            <pixelaspectratio>square</pixelaspectratio>
                            <fielddominance>none</fielddominance>
                            <width>1920</width>
                            <height>1080</height>
                          </samplecharacteristics>
                        </video>
                      </media>
                    </file>
                  </clipitem>
                </track>
              </video>
            </media>
          </clip>
          <clip explodedTracks="true" frameBlend="FALSE" id="masterclip-92">
            <uuid>87d62e15-c6b6-4581-891e-5a468c3ee6af</uuid>
            <masterclipid>masterclip-92</masterclipid>
            <ismasterclip>TRUE</ismasterclip>
            <duration>720</duration>
            <in>0</in>
            <out>720</out>
            <name>Scene - Puppet man_0003.090.png</name>
            <rate>
              <timebase>24</timebase>
              <ntsc>FALSE</ntsc>
            </rate>
            <media>
              <video>
                <track>
                  <clipitem frameBlend="FALSE" id="clipitem-93">
                    <name>Scene - Puppet man_0003.090.png</name>
                    <masterclipid>masterclip-92</masterclipid>
                    <rate>
                      <timebase>24</timebase>
                      <ntsc>FALSE</ntsc>
                    </rate>
                    <alphatype>straight</alphatype>
                    <pixelaspectratio>square</pixelaspectratio>
                    <anamorphic>FALSE</anamorphic>
                    <file id="file-92">
                      <name>Scene - Puppet man_0003.090.png</name>
                      <pathurl>file://localhost/C:/Users/jmrey/OneDrive/Desktop/Programmin Stuff/Projects/conversation-simulator/resources/videos/Scene - Puppet man_0003/Scene - Puppet man_0003.090.png</pathurl>
                      <rate>
                        <timebase>24</timebase>
                        <ntsc>FALSE</ntsc>
                      </rate>
                      <duration>720</duration>
                      <timecode>
                        <rate>
                          <timebase>24</timebase>
                          <ntsc>FALSE</ntsc>
                        </rate>
                      </timecode>
                      <media>
                        <video>
                          <duration>1</duration>
                          <samplecharacteristics>
                            <anamorphic>FALSE</anamorphic>
                            <pixelaspectratio>square</pixelaspectratio>
                            <fielddominance>none</fielddominance>
                            <width>1920</width>
                            <height>1080</height>
                          </samplecharacteristics>
                        </video>
                      </media>
                    </file>
                  </clipitem>
                </track>
              </video>
            </media>
          </clip>
          <clip explodedTracks="true" frameBlend="FALSE" id="masterclip-93">
            <uuid>96be52af-266d-4ba6-9a3e-4db0a8ef9512</uuid>
            <masterclipid>masterclip-93</masterclipid>
            <ismasterclip>TRUE</ismasterclip>
            <duration>720</duration>
            <in>0</in>
            <out>720</out>
            <name>Scene - Puppet man_0003.091.png</name>
            <rate>
              <timebase>24</timebase>
              <ntsc>FALSE</ntsc>
            </rate>
            <media>
              <video>
                <track>
                  <clipitem frameBlend="FALSE" id="clipitem-94">
                    <name>Scene - Puppet man_0003.091.png</name>
                    <masterclipid>masterclip-93</masterclipid>
                    <rate>
                      <timebase>24</timebase>
                      <ntsc>FALSE</ntsc>
                    </rate>
                    <alphatype>straight</alphatype>
                    <pixelaspectratio>square</pixelaspectratio>
                    <anamorphic>FALSE</anamorphic>
                    <file id="file-93">
                      <name>Scene - Puppet man_0003.091.png</name>
                      <pathurl>file://localhost/C:/Users/jmrey/OneDrive/Desktop/Programmin Stuff/Projects/conversation-simulator/resources/videos/Scene - Puppet man_0003/Scene - Puppet man_0003.091.png</pathurl>
                      <rate>
                        <timebase>24</timebase>
                        <ntsc>FALSE</ntsc>
                      </rate>
                      <duration>720</duration>
                      <timecode>
                        <rate>
                          <timebase>24</timebase>
                          <ntsc>FALSE</ntsc>
                        </rate>
                      </timecode>
                      <media>
                        <video>
                          <duration>1</duration>
                          <samplecharacteristics>
                            <anamorphic>FALSE</anamorphic>
                            <pixelaspectratio>square</pixelaspectratio>
                            <fielddominance>none</fielddominance>
                            <width>1920</width>
                            <height>1080</height>
                          </samplecharacteristics>
                        </video>
                      </media>
                    </file>
                  </clipitem>
                </track>
              </video>
            </media>
          </clip>
          <clip explodedTracks="true" frameBlend="FALSE" id="masterclip-94">
            <uuid>90ee1480-2e26-43ae-931c-522c7db7de2b</uuid>
            <masterclipid>masterclip-94</masterclipid>
            <ismasterclip>TRUE</ismasterclip>
            <duration>720</duration>
            <in>0</in>
            <out>720</out>
            <name>Scene - Puppet man_0003.092.png</name>
            <rate>
              <timebase>24</timebase>
              <ntsc>FALSE</ntsc>
            </rate>
            <media>
              <video>
                <track>
                  <clipitem frameBlend="FALSE" id="clipitem-95">
                    <name>Scene - Puppet man_0003.092.png</name>
                    <masterclipid>masterclip-94</masterclipid>
                    <rate>
                      <timebase>24</timebase>
                      <ntsc>FALSE</ntsc>
                    </rate>
                    <alphatype>straight</alphatype>
                    <pixelaspectratio>square</pixelaspectratio>
                    <anamorphic>FALSE</anamorphic>
                    <file id="file-94">
                      <name>Scene - Puppet man_0003.092.png</name>
                      <pathurl>file://localhost/C:/Users/jmrey/OneDrive/Desktop/Programmin Stuff/Projects/conversation-simulator/resources/videos/Scene - Puppet man_0003/Scene - Puppet man_0003.092.png</pathurl>
                      <rate>
                        <timebase>24</timebase>
                        <ntsc>FALSE</ntsc>
                      </rate>
                      <duration>720</duration>
                      <timecode>
                        <rate>
                          <timebase>24</timebase>
                          <ntsc>FALSE</ntsc>
                        </rate>
                      </timecode>
                      <media>
                        <video>
                          <duration>1</duration>
                          <samplecharacteristics>
                            <anamorphic>FALSE</anamorphic>
                            <pixelaspectratio>square</pixelaspectratio>
                            <fielddominance>none</fielddominance>
                            <width>1920</width>
                            <height>1080</height>
                          </samplecharacteristics>
                        </video>
                      </media>
                    </file>
                  </clipitem>
                </track>
              </video>
            </media>
          </clip>
          <clip explodedTracks="true" frameBlend="FALSE" id="masterclip-95">
            <uuid>fd9cde70-d81f-4033-88aa-c21bc6208dd0</uuid>
            <masterclipid>masterclip-95</masterclipid>
            <ismasterclip>TRUE</ismasterclip>
            <duration>720</duration>
            <in>0</in>
            <out>720</out>
            <name>Scene - Puppet man_0003.093.png</name>
            <rate>
              <timebase>24</timebase>
              <ntsc>FALSE</ntsc>
            </rate>
            <media>
              <video>
                <track>
                  <clipitem frameBlend="FALSE" id="clipitem-96">
                    <name>Scene - Puppet man_0003.093.png</name>
                    <masterclipid>masterclip-95</masterclipid>
                    <rate>
                      <timebase>24</timebase>
                      <ntsc>FALSE</ntsc>
                    </rate>
                    <alphatype>straight</alphatype>
                    <pixelaspectratio>square</pixelaspectratio>
                    <anamorphic>FALSE</anamorphic>
                    <file id="file-95">
                      <name>Scene - Puppet man_0003.093.png</name>
                      <pathurl>file://localhost/C:/Users/jmrey/OneDrive/Desktop/Programmin Stuff/Projects/conversation-simulator/resources/videos/Scene - Puppet man_0003/Scene - Puppet man_0003.093.png</pathurl>
                      <rate>
                        <timebase>24</timebase>
                        <ntsc>FALSE</ntsc>
                      </rate>
                      <duration>720</duration>
                      <timecode>
                        <rate>
                          <timebase>24</timebase>
                          <ntsc>FALSE</ntsc>
                        </rate>
                      </timecode>
                      <media>
                        <video>
                          <duration>1</duration>
                          <samplecharacteristics>
                            <anamorphic>FALSE</anamorphic>
                            <pixelaspectratio>square</pixelaspectratio>
                            <fielddominance>none</fielddominance>
                            <width>1920</width>
                            <height>1080</height>
                          </samplecharacteristics>
                        </video>
                      </media>
                    </file>
                  </clipitem>
                </track>
              </video>
            </media>
          </clip>
          <clip explodedTracks="true" frameBlend="FALSE" id="masterclip-96">
            <uuid>13dc0ec2-51da-47be-90e6-b06467526425</uuid>
            <masterclipid>masterclip-96</masterclipid>
            <ismasterclip>TRUE</ismasterclip>
            <duration>720</duration>
            <in>0</in>
            <out>720</out>
            <name>Scene - Puppet man_0003.094.png</name>
            <rate>
              <timebase>24</timebase>
              <ntsc>FALSE</ntsc>
            </rate>
            <media>
              <video>
                <track>
                  <clipitem frameBlend="FALSE" id="clipitem-97">
                    <name>Scene - Puppet man_0003.094.png</name>
                    <masterclipid>masterclip-96</masterclipid>
                    <rate>
                      <timebase>24</timebase>
                      <ntsc>FALSE</ntsc>
                    </rate>
                    <alphatype>straight</alphatype>
                    <pixelaspectratio>square</pixelaspectratio>
                    <anamorphic>FALSE</anamorphic>
                    <file id="file-96">
                      <name>Scene - Puppet man_0003.094.png</name>
                      <pathurl>file://localhost/C:/Users/jmrey/OneDrive/Desktop/Programmin Stuff/Projects/conversation-simulator/resources/videos/Scene - Puppet man_0003/Scene - Puppet man_0003.094.png</pathurl>
                      <rate>
                        <timebase>24</timebase>
                        <ntsc>FALSE</ntsc>
                      </rate>
                      <duration>720</duration>
                      <timecode>
                        <rate>
                          <timebase>24</timebase>
                          <ntsc>FALSE</ntsc>
                        </rate>
                      </timecode>
                      <media>
                        <video>
                          <duration>1</duration>
                          <samplecharacteristics>
                            <anamorphic>FALSE</anamorphic>
                            <pixelaspectratio>square</pixelaspectratio>
                            <fielddominance>none</fielddominance>
                            <width>1920</width>
                            <height>1080</height>
                          </samplecharacteristics>
                        </video>
                      </media>
                    </file>
                  </clipitem>
                </track>
              </video>
            </media>
          </clip>
          <clip explodedTracks="true" frameBlend="FALSE" id="masterclip-97">
            <uuid>0e5821c0-c841-4b30-87ec-393b1ee1bea6</uuid>
            <masterclipid>masterclip-97</masterclipid>
            <ismasterclip>TRUE</ismasterclip>
            <duration>720</duration>
            <in>0</in>
            <out>720</out>
            <name>Scene - Puppet man_0003.095.png</name>
            <rate>
              <timebase>24</timebase>
              <ntsc>FALSE</ntsc>
            </rate>
            <media>
              <video>
                <track>
                  <clipitem frameBlend="FALSE" id="clipitem-98">
                    <name>Scene - Puppet man_0003.095.png</name>
                    <masterclipid>masterclip-97</masterclipid>
                    <rate>
                      <timebase>24</timebase>
                      <ntsc>FALSE</ntsc>
                    </rate>
                    <alphatype>straight</alphatype>
                    <pixelaspectratio>square</pixelaspectratio>
                    <anamorphic>FALSE</anamorphic>
                    <file id="file-97">
                      <name>Scene - Puppet man_0003.095.png</name>
                      <pathurl>file://localhost/C:/Users/jmrey/OneDrive/Desktop/Programmin Stuff/Projects/conversation-simulator/resources/videos/Scene - Puppet man_0003/Scene - Puppet man_0003.095.png</pathurl>
                      <rate>
                        <timebase>24</timebase>
                        <ntsc>FALSE</ntsc>
                      </rate>
                      <duration>720</duration>
                      <timecode>
                        <rate>
                          <timebase>24</timebase>
                          <ntsc>FALSE</ntsc>
                        </rate>
                      </timecode>
                      <media>
                        <video>
                          <duration>1</duration>
                          <samplecharacteristics>
                            <anamorphic>FALSE</anamorphic>
                            <pixelaspectratio>square</pixelaspectratio>
                            <fielddominance>none</fielddominance>
                            <width>1920</width>
                            <height>1080</height>
                          </samplecharacteristics>
                        </video>
                      </media>
                    </file>
                  </clipitem>
                </track>
              </video>
            </media>
          </clip>
          <clip explodedTracks="true" frameBlend="FALSE" id="masterclip-98">
            <uuid>8792dc3b-7443-4f67-9b8a-7ba3aa9e1ca9</uuid>
            <masterclipid>masterclip-98</masterclipid>
            <ismasterclip>TRUE</ismasterclip>
            <duration>720</duration>
            <in>0</in>
            <out>720</out>
            <name>Scene - Puppet man_0003.096.png</name>
            <rate>
              <timebase>24</timebase>
              <ntsc>FALSE</ntsc>
            </rate>
            <media>
              <video>
                <track>
                  <clipitem frameBlend="FALSE" id="clipitem-99">
                    <name>Scene - Puppet man_0003.096.png</name>
                    <masterclipid>masterclip-98</masterclipid>
                    <rate>
                      <timebase>24</timebase>
                      <ntsc>FALSE</ntsc>
                    </rate>
                    <alphatype>straight</alphatype>
                    <pixelaspectratio>square</pixelaspectratio>
                    <anamorphic>FALSE</anamorphic>
                    <file id="file-98">
                      <name>Scene - Puppet man_0003.096.png</name>
                      <pathurl>file://localhost/C:/Users/jmrey/OneDrive/Desktop/Programmin Stuff/Projects/conversation-simulator/resources/videos/Scene - Puppet man_0003/Scene - Puppet man_0003.096.png</pathurl>
                      <rate>
                        <timebase>24</timebase>
                        <ntsc>FALSE</ntsc>
                      </rate>
                      <duration>720</duration>
                      <timecode>
                        <rate>
                          <timebase>24</timebase>
                          <ntsc>FALSE</ntsc>
                        </rate>
                      </timecode>
                      <media>
                        <video>
                          <duration>1</duration>
                          <samplecharacteristics>
                            <anamorphic>FALSE</anamorphic>
                            <pixelaspectratio>square</pixelaspectratio>
                            <fielddominance>none</fielddominance>
                            <width>1920</width>
                            <height>1080</height>
                          </samplecharacteristics>
                        </video>
                      </media>
                    </file>
                  </clipitem>
                </track>
              </video>
            </media>
          </clip>
          <clip explodedTracks="true" frameBlend="FALSE" id="masterclip-99">
            <uuid>2cd2d7fa-4b63-4d1f-b8c2-1d29a5a5bcdd</uuid>
            <masterclipid>masterclip-99</masterclipid>
            <ismasterclip>TRUE</ismasterclip>
            <duration>720</duration>
            <in>0</in>
            <out>720</out>
            <name>Scene - Puppet man_0003.097.png</name>
            <rate>
              <timebase>24</timebase>
              <ntsc>FALSE</ntsc>
            </rate>
            <media>
              <video>
                <track>
                  <clipitem frameBlend="FALSE" id="clipitem-100">
                    <name>Scene - Puppet man_0003.097.png</name>
                    <masterclipid>masterclip-99</masterclipid>
                    <rate>
                      <timebase>24</timebase>
                      <ntsc>FALSE</ntsc>
                    </rate>
                    <alphatype>straight</alphatype>
                    <pixelaspectratio>square</pixelaspectratio>
                    <anamorphic>FALSE</anamorphic>
                    <file id="file-99">
                      <name>Scene - Puppet man_0003.097.png</name>
                      <pathurl>file://localhost/C:/Users/jmrey/OneDrive/Desktop/Programmin Stuff/Projects/conversation-simulator/resources/videos/Scene - Puppet man_0003/Scene - Puppet man_0003.097.png</pathurl>
                      <rate>
                        <timebase>24</timebase>
                        <ntsc>FALSE</ntsc>
                      </rate>
                      <duration>720</duration>
                      <timecode>
                        <rate>
                          <timebase>24</timebase>
                          <ntsc>FALSE</ntsc>
                        </rate>
                      </timecode>
                      <media>
                        <video>
                          <duration>1</duration>
                          <samplecharacteristics>
                            <anamorphic>FALSE</anamorphic>
                            <pixelaspectratio>square</pixelaspectratio>
                            <fielddominance>none</fielddominance>
                            <width>1920</width>
                            <height>1080</height>
                          </samplecharacteristics>
                        </video>
                      </media>
                    </file>
                  </clipitem>
                </track>
              </video>
            </media>
          </clip>
          <clip explodedTracks="true" frameBlend="FALSE" id="masterclip-100">
            <uuid>9a612a5a-a61f-48e5-babf-3e5076d4cec9</uuid>
            <masterclipid>masterclip-100</masterclipid>
            <ismasterclip>TRUE</ismasterclip>
            <duration>720</duration>
            <in>0</in>
            <out>720</out>
            <name>Scene - Puppet man_0003.098.png</name>
            <rate>
              <timebase>24</timebase>
              <ntsc>FALSE</ntsc>
            </rate>
            <media>
              <video>
                <track>
                  <clipitem frameBlend="FALSE" id="clipitem-101">
                    <name>Scene - Puppet man_0003.098.png</name>
                    <masterclipid>masterclip-100</masterclipid>
                    <rate>
                      <timebase>24</timebase>
                      <ntsc>FALSE</ntsc>
                    </rate>
                    <alphatype>straight</alphatype>
                    <pixelaspectratio>square</pixelaspectratio>
                    <anamorphic>FALSE</anamorphic>
                    <file id="file-100">
                      <name>Scene - Puppet man_0003.098.png</name>
                      <pathurl>file://localhost/C:/Users/jmrey/OneDrive/Desktop/Programmin Stuff/Projects/conversation-simulator/resources/videos/Scene - Puppet man_0003/Scene - Puppet man_0003.098.png</pathurl>
                      <rate>
                        <timebase>24</timebase>
                        <ntsc>FALSE</ntsc>
                      </rate>
                      <duration>720</duration>
                      <timecode>
                        <rate>
                          <timebase>24</timebase>
                          <ntsc>FALSE</ntsc>
                        </rate>
                      </timecode>
                      <media>
                        <video>
                          <duration>1</duration>
                          <samplecharacteristics>
                            <anamorphic>FALSE</anamorphic>
                            <pixelaspectratio>square</pixelaspectratio>
                            <fielddominance>none</fielddominance>
                            <width>1920</width>
                            <height>1080</height>
                          </samplecharacteristics>
                        </video>
                      </media>
                    </file>
                  </clipitem>
                </track>
              </video>
            </media>
          </clip>
          <clip explodedTracks="true" frameBlend="FALSE" id="masterclip-101">
            <uuid>94b1e3bd-66cc-4ab9-8aa3-8d2a91da3e81</uuid>
            <masterclipid>masterclip-101</masterclipid>
            <ismasterclip>TRUE</ismasterclip>
            <duration>720</duration>
            <in>0</in>
            <out>720</out>
            <name>Scene - Puppet man_0003.099.png</name>
            <rate>
              <timebase>24</timebase>
              <ntsc>FALSE</ntsc>
            </rate>
            <media>
              <video>
                <track>
                  <clipitem frameBlend="FALSE" id="clipitem-102">
                    <name>Scene - Puppet man_0003.099.png</name>
                    <masterclipid>masterclip-101</masterclipid>
                    <rate>
                      <timebase>24</timebase>
                      <ntsc>FALSE</ntsc>
                    </rate>
                    <alphatype>straight</alphatype>
                    <pixelaspectratio>square</pixelaspectratio>
                    <anamorphic>FALSE</anamorphic>
                    <file id="file-101">
                      <name>Scene - Puppet man_0003.099.png</name>
                      <pathurl>file://localhost/C:/Users/jmrey/OneDrive/Desktop/Programmin Stuff/Projects/conversation-simulator/resources/videos/Scene - Puppet man_0003/Scene - Puppet man_0003.099.png</pathurl>
                      <rate>
                        <timebase>24</timebase>
                        <ntsc>FALSE</ntsc>
                      </rate>
                      <duration>720</duration>
                      <timecode>
                        <rate>
                          <timebase>24</timebase>
                          <ntsc>FALSE</ntsc>
                        </rate>
                      </timecode>
                      <media>
                        <video>
                          <duration>1</duration>
                          <samplecharacteristics>
                            <anamorphic>FALSE</anamorphic>
                            <pixelaspectratio>square</pixelaspectratio>
                            <fielddominance>none</fielddominance>
                            <width>1920</width>
                            <height>1080</height>
                          </samplecharacteristics>
                        </video>
                      </media>
                    </file>
                  </clipitem>
                </track>
              </video>
            </media>
          </clip>
          <clip explodedTracks="true" frameBlend="FALSE" id="masterclip-102">
            <uuid>3da9b8d1-2507-498f-9abe-e92e7bb0dca9</uuid>
            <masterclipid>masterclip-102</masterclipid>
            <ismasterclip>TRUE</ismasterclip>
            <duration>720</duration>
            <in>0</in>
            <out>720</out>
            <name>Scene - Puppet man_0003.100.png</name>
            <rate>
              <timebase>24</timebase>
              <ntsc>FALSE</ntsc>
            </rate>
            <media>
              <video>
                <track>
                  <clipitem frameBlend="FALSE" id="clipitem-103">
                    <name>Scene - Puppet man_0003.100.png</name>
                    <masterclipid>masterclip-102</masterclipid>
                    <rate>
                      <timebase>24</timebase>
                      <ntsc>FALSE</ntsc>
                    </rate>
                    <alphatype>straight</alphatype>
                    <pixelaspectratio>square</pixelaspectratio>
                    <anamorphic>FALSE</anamorphic>
                    <file id="file-102">
                      <name>Scene - Puppet man_0003.100.png</name>
                      <pathurl>file://localhost/C:/Users/jmrey/OneDrive/Desktop/Programmin Stuff/Projects/conversation-simulator/resources/videos/Scene - Puppet man_0003/Scene - Puppet man_0003.100.png</pathurl>
                      <rate>
                        <timebase>24</timebase>
                        <ntsc>FALSE</ntsc>
                      </rate>
                      <duration>720</duration>
                      <timecode>
                        <rate>
                          <timebase>24</timebase>
                          <ntsc>FALSE</ntsc>
                        </rate>
                      </timecode>
                      <media>
                        <video>
                          <duration>1</duration>
                          <samplecharacteristics>
                            <anamorphic>FALSE</anamorphic>
                            <pixelaspectratio>square</pixelaspectratio>
                            <fielddominance>none</fielddominance>
                            <width>1920</width>
                            <height>1080</height>
                          </samplecharacteristics>
                        </video>
                      </media>
                    </file>
                  </clipitem>
                </track>
              </video>
            </media>
          </clip>
          <clip explodedTracks="true" frameBlend="FALSE" id="masterclip-103">
            <uuid>d7f029b8-0fd8-4730-b87e-00e2226c497c</uuid>
            <masterclipid>masterclip-103</masterclipid>
            <ismasterclip>TRUE</ismasterclip>
            <duration>720</duration>
            <in>0</in>
            <out>720</out>
            <name>Scene - Puppet man_0003.101.png</name>
            <rate>
              <timebase>24</timebase>
              <ntsc>FALSE</ntsc>
            </rate>
            <media>
              <video>
                <track>
                  <clipitem frameBlend="FALSE" id="clipitem-104">
                    <name>Scene - Puppet man_0003.101.png</name>
                    <masterclipid>masterclip-103</masterclipid>
                    <rate>
                      <timebase>24</timebase>
                      <ntsc>FALSE</ntsc>
                    </rate>
                    <alphatype>straight</alphatype>
                    <pixelaspectratio>square</pixelaspectratio>
                    <anamorphic>FALSE</anamorphic>
                    <file id="file-103">
                      <name>Scene - Puppet man_0003.101.png</name>
                      <pathurl>file://localhost/C:/Users/jmrey/OneDrive/Desktop/Programmin Stuff/Projects/conversation-simulator/resources/videos/Scene - Puppet man_0003/Scene - Puppet man_0003.101.png</pathurl>
                      <rate>
                        <timebase>24</timebase>
                        <ntsc>FALSE</ntsc>
                      </rate>
                      <duration>720</duration>
                      <timecode>
                        <rate>
                          <timebase>24</timebase>
                          <ntsc>FALSE</ntsc>
                        </rate>
                      </timecode>
                      <media>
                        <video>
                          <duration>1</duration>
                          <samplecharacteristics>
                            <anamorphic>FALSE</anamorphic>
                            <pixelaspectratio>square</pixelaspectratio>
                            <fielddominance>none</fielddominance>
                            <width>1920</width>
                            <height>1080</height>
                          </samplecharacteristics>
                        </video>
                      </media>
                    </file>
                  </clipitem>
                </track>
              </video>
            </media>
          </clip>
          <clip explodedTracks="true" frameBlend="FALSE" id="masterclip-104">
            <uuid>e906b70d-2e93-4aab-b0b4-c7ec54316268</uuid>
            <masterclipid>masterclip-104</masterclipid>
            <ismasterclip>TRUE</ismasterclip>
            <duration>720</duration>
            <in>0</in>
            <out>720</out>
            <name>Scene - Puppet man_0003.102.png</name>
            <rate>
              <timebase>24</timebase>
              <ntsc>FALSE</ntsc>
            </rate>
            <media>
              <video>
                <track>
                  <clipitem frameBlend="FALSE" id="clipitem-105">
                    <name>Scene - Puppet man_0003.102.png</name>
                    <masterclipid>masterclip-104</masterclipid>
                    <rate>
                      <timebase>24</timebase>
                      <ntsc>FALSE</ntsc>
                    </rate>
                    <alphatype>straight</alphatype>
                    <pixelaspectratio>square</pixelaspectratio>
                    <anamorphic>FALSE</anamorphic>
                    <file id="file-104">
                      <name>Scene - Puppet man_0003.102.png</name>
                      <pathurl>file://localhost/C:/Users/jmrey/OneDrive/Desktop/Programmin Stuff/Projects/conversation-simulator/resources/videos/Scene - Puppet man_0003/Scene - Puppet man_0003.102.png</pathurl>
                      <rate>
                        <timebase>24</timebase>
                        <ntsc>FALSE</ntsc>
                      </rate>
                      <duration>720</duration>
                      <timecode>
                        <rate>
                          <timebase>24</timebase>
                          <ntsc>FALSE</ntsc>
                        </rate>
                      </timecode>
                      <media>
                        <video>
                          <duration>1</duration>
                          <samplecharacteristics>
                            <anamorphic>FALSE</anamorphic>
                            <pixelaspectratio>square</pixelaspectratio>
                            <fielddominance>none</fielddominance>
                            <width>1920</width>
                            <height>1080</height>
                          </samplecharacteristics>
                        </video>
                      </media>
                    </file>
                  </clipitem>
                </track>
              </video>
            </media>
          </clip>
          <clip explodedTracks="true" frameBlend="FALSE" id="masterclip-105">
            <uuid>12a33e33-21ab-4f4f-8552-34002b37f857</uuid>
            <masterclipid>masterclip-105</masterclipid>
            <ismasterclip>TRUE</ismasterclip>
            <duration>720</duration>
            <in>0</in>
            <out>720</out>
            <name>Scene - Puppet man_0003.103.png</name>
            <rate>
              <timebase>24</timebase>
              <ntsc>FALSE</ntsc>
            </rate>
            <media>
              <video>
                <track>
                  <clipitem frameBlend="FALSE" id="clipitem-106">
                    <name>Scene - Puppet man_0003.103.png</name>
                    <masterclipid>masterclip-105</masterclipid>
                    <rate>
                      <timebase>24</timebase>
                      <ntsc>FALSE</ntsc>
                    </rate>
                    <alphatype>straight</alphatype>
                    <pixelaspectratio>square</pixelaspectratio>
                    <anamorphic>FALSE</anamorphic>
                    <file id="file-105">
                      <name>Scene - Puppet man_0003.103.png</name>
                      <pathurl>file://localhost/C:/Users/jmrey/OneDrive/Desktop/Programmin Stuff/Projects/conversation-simulator/resources/videos/Scene - Puppet man_0003/Scene - Puppet man_0003.103.png</pathurl>
                      <rate>
                        <timebase>24</timebase>
                        <ntsc>FALSE</ntsc>
                      </rate>
                      <duration>720</duration>
                      <timecode>
                        <rate>
                          <timebase>24</timebase>
                          <ntsc>FALSE</ntsc>
                        </rate>
                      </timecode>
                      <media>
                        <video>
                          <duration>1</duration>
                          <samplecharacteristics>
                            <anamorphic>FALSE</anamorphic>
                            <pixelaspectratio>square</pixelaspectratio>
                            <fielddominance>none</fielddominance>
                            <width>1920</width>
                            <height>1080</height>
                          </samplecharacteristics>
                        </video>
                      </media>
                    </file>
                  </clipitem>
                </track>
              </video>
            </media>
          </clip>
          <clip explodedTracks="true" frameBlend="FALSE" id="masterclip-106">
            <uuid>3058cdc5-ea57-4f5c-9305-c1748c36d4f3</uuid>
            <masterclipid>masterclip-106</masterclipid>
            <ismasterclip>TRUE</ismasterclip>
            <duration>720</duration>
            <in>0</in>
            <out>720</out>
            <name>Scene - Puppet man_0003.104.png</name>
            <rate>
              <timebase>24</timebase>
              <ntsc>FALSE</ntsc>
            </rate>
            <media>
              <video>
                <track>
                  <clipitem frameBlend="FALSE" id="clipitem-107">
                    <name>Scene - Puppet man_0003.104.png</name>
                    <masterclipid>masterclip-106</masterclipid>
                    <rate>
                      <timebase>24</timebase>
                      <ntsc>FALSE</ntsc>
                    </rate>
                    <alphatype>straight</alphatype>
                    <pixelaspectratio>square</pixelaspectratio>
                    <anamorphic>FALSE</anamorphic>
                    <file id="file-106">
                      <name>Scene - Puppet man_0003.104.png</name>
                      <pathurl>file://localhost/C:/Users/jmrey/OneDrive/Desktop/Programmin Stuff/Projects/conversation-simulator/resources/videos/Scene - Puppet man_0003/Scene - Puppet man_0003.104.png</pathurl>
                      <rate>
                        <timebase>24</timebase>
                        <ntsc>FALSE</ntsc>
                      </rate>
                      <duration>720</duration>
                      <timecode>
                        <rate>
                          <timebase>24</timebase>
                          <ntsc>FALSE</ntsc>
                        </rate>
                      </timecode>
                      <media>
                        <video>
                          <duration>1</duration>
                          <samplecharacteristics>
                            <anamorphic>FALSE</anamorphic>
                            <pixelaspectratio>square</pixelaspectratio>
                            <fielddominance>none</fielddominance>
                            <width>1920</width>
                            <height>1080</height>
                          </samplecharacteristics>
                        </video>
                      </media>
                    </file>
                  </clipitem>
                </track>
              </video>
            </media>
          </clip>
          <clip explodedTracks="true" frameBlend="FALSE" id="masterclip-107">
            <uuid>626ec7c6-b5f7-453f-9584-55a92e7019f5</uuid>
            <masterclipid>masterclip-107</masterclipid>
            <ismasterclip>TRUE</ismasterclip>
            <duration>720</duration>
            <in>0</in>
            <out>720</out>
            <name>Scene - Puppet man_0003.105.png</name>
            <rate>
              <timebase>24</timebase>
              <ntsc>FALSE</ntsc>
            </rate>
            <media>
              <video>
                <track>
                  <clipitem frameBlend="FALSE" id="clipitem-108">
                    <name>Scene - Puppet man_0003.105.png</name>
                    <masterclipid>masterclip-107</masterclipid>
                    <rate>
                      <timebase>24</timebase>
                      <ntsc>FALSE</ntsc>
                    </rate>
                    <alphatype>straight</alphatype>
                    <pixelaspectratio>square</pixelaspectratio>
                    <anamorphic>FALSE</anamorphic>
                    <file id="file-107">
                      <name>Scene - Puppet man_0003.105.png</name>
                      <pathurl>file://localhost/C:/Users/jmrey/OneDrive/Desktop/Programmin Stuff/Projects/conversation-simulator/resources/videos/Scene - Puppet man_0003/Scene - Puppet man_0003.105.png</pathurl>
                      <rate>
                        <timebase>24</timebase>
                        <ntsc>FALSE</ntsc>
                      </rate>
                      <duration>720</duration>
                      <timecode>
                        <rate>
                          <timebase>24</timebase>
                          <ntsc>FALSE</ntsc>
                        </rate>
                      </timecode>
                      <media>
                        <video>
                          <duration>1</duration>
                          <samplecharacteristics>
                            <anamorphic>FALSE</anamorphic>
                            <pixelaspectratio>square</pixelaspectratio>
                            <fielddominance>none</fielddominance>
                            <width>1920</width>
                            <height>1080</height>
                          </samplecharacteristics>
                        </video>
                      </media>
                    </file>
                  </clipitem>
                </track>
              </video>
            </media>
          </clip>
          <clip explodedTracks="true" frameBlend="FALSE" id="masterclip-108">
            <uuid>b02f110b-d868-4ed8-80bb-da7c77d33183</uuid>
            <masterclipid>masterclip-108</masterclipid>
            <ismasterclip>TRUE</ismasterclip>
            <duration>720</duration>
            <in>0</in>
            <out>720</out>
            <name>Scene - Puppet man_0003.106.png</name>
            <rate>
              <timebase>24</timebase>
              <ntsc>FALSE</ntsc>
            </rate>
            <media>
              <video>
                <track>
                  <clipitem frameBlend="FALSE" id="clipitem-109">
                    <name>Scene - Puppet man_0003.106.png</name>
                    <masterclipid>masterclip-108</masterclipid>
                    <rate>
                      <timebase>24</timebase>
                      <ntsc>FALSE</ntsc>
                    </rate>
                    <alphatype>straight</alphatype>
                    <pixelaspectratio>square</pixelaspectratio>
                    <anamorphic>FALSE</anamorphic>
                    <file id="file-108">
                      <name>Scene - Puppet man_0003.106.png</name>
                      <pathurl>file://localhost/C:/Users/jmrey/OneDrive/Desktop/Programmin Stuff/Projects/conversation-simulator/resources/videos/Scene - Puppet man_0003/Scene - Puppet man_0003.106.png</pathurl>
                      <rate>
                        <timebase>24</timebase>
                        <ntsc>FALSE</ntsc>
                      </rate>
                      <duration>720</duration>
                      <timecode>
                        <rate>
                          <timebase>24</timebase>
                          <ntsc>FALSE</ntsc>
                        </rate>
                      </timecode>
                      <media>
                        <video>
                          <duration>1</duration>
                          <samplecharacteristics>
                            <anamorphic>FALSE</anamorphic>
                            <pixelaspectratio>square</pixelaspectratio>
                            <fielddominance>none</fielddominance>
                            <width>1920</width>
                            <height>1080</height>
                          </samplecharacteristics>
                        </video>
                      </media>
                    </file>
                  </clipitem>
                </track>
              </video>
            </media>
          </clip>
          <clip explodedTracks="true" frameBlend="FALSE" id="masterclip-109">
            <uuid>726bd349-dd50-44eb-8ef2-0ce2cbc878c0</uuid>
            <masterclipid>masterclip-109</masterclipid>
            <ismasterclip>TRUE</ismasterclip>
            <duration>720</duration>
            <in>0</in>
            <out>720</out>
            <name>Scene - Puppet man_0003.107.png</name>
            <rate>
              <timebase>24</timebase>
              <ntsc>FALSE</ntsc>
            </rate>
            <media>
              <video>
                <track>
                  <clipitem frameBlend="FALSE" id="clipitem-110">
                    <name>Scene - Puppet man_0003.107.png</name>
                    <masterclipid>masterclip-109</masterclipid>
                    <rate>
                      <timebase>24</timebase>
                      <ntsc>FALSE</ntsc>
                    </rate>
                    <alphatype>straight</alphatype>
                    <pixelaspectratio>square</pixelaspectratio>
                    <anamorphic>FALSE</anamorphic>
                    <file id="file-109">
                      <name>Scene - Puppet man_0003.107.png</name>
                      <pathurl>file://localhost/C:/Users/jmrey/OneDrive/Desktop/Programmin Stuff/Projects/conversation-simulator/resources/videos/Scene - Puppet man_0003/Scene - Puppet man_0003.107.png</pathurl>
                      <rate>
                        <timebase>24</timebase>
                        <ntsc>FALSE</ntsc>
                      </rate>
                      <duration>720</duration>
                      <timecode>
                        <rate>
                          <timebase>24</timebase>
                          <ntsc>FALSE</ntsc>
                        </rate>
                      </timecode>
                      <media>
                        <video>
                          <duration>1</duration>
                          <samplecharacteristics>
                            <anamorphic>FALSE</anamorphic>
                            <pixelaspectratio>square</pixelaspectratio>
                            <fielddominance>none</fielddominance>
                            <width>1920</width>
                            <height>1080</height>
                          </samplecharacteristics>
                        </video>
                      </media>
                    </file>
                  </clipitem>
                </track>
              </video>
            </media>
          </clip>
          <clip explodedTracks="true" frameBlend="FALSE" id="masterclip-110">
            <uuid>5a86265c-d111-4aa5-91af-e064a7fef0d8</uuid>
            <masterclipid>masterclip-110</masterclipid>
            <ismasterclip>TRUE</ismasterclip>
            <duration>720</duration>
            <in>0</in>
            <out>720</out>
            <name>Scene - Puppet man_0003.108.png</name>
            <rate>
              <timebase>24</timebase>
              <ntsc>FALSE</ntsc>
            </rate>
            <media>
              <video>
                <track>
                  <clipitem frameBlend="FALSE" id="clipitem-111">
                    <name>Scene - Puppet man_0003.108.png</name>
                    <masterclipid>masterclip-110</masterclipid>
                    <rate>
                      <timebase>24</timebase>
                      <ntsc>FALSE</ntsc>
                    </rate>
                    <alphatype>straight</alphatype>
                    <pixelaspectratio>square</pixelaspectratio>
                    <anamorphic>FALSE</anamorphic>
                    <file id="file-110">
                      <name>Scene - Puppet man_0003.108.png</name>
                      <pathurl>file://localhost/C:/Users/jmrey/OneDrive/Desktop/Programmin Stuff/Projects/conversation-simulator/resources/videos/Scene - Puppet man_0003/Scene - Puppet man_0003.108.png</pathurl>
                      <rate>
                        <timebase>24</timebase>
                        <ntsc>FALSE</ntsc>
                      </rate>
                      <duration>720</duration>
                      <timecode>
                        <rate>
                          <timebase>24</timebase>
                          <ntsc>FALSE</ntsc>
                        </rate>
                      </timecode>
                      <media>
                        <video>
                          <duration>1</duration>
                          <samplecharacteristics>
                            <anamorphic>FALSE</anamorphic>
                            <pixelaspectratio>square</pixelaspectratio>
                            <fielddominance>none</fielddominance>
                            <width>1920</width>
                            <height>1080</height>
                          </samplecharacteristics>
                        </video>
                      </media>
                    </file>
                  </clipitem>
                </track>
              </video>
            </media>
          </clip>
          <clip explodedTracks="true" frameBlend="FALSE" id="masterclip-111">
            <uuid>139e85ce-f344-4d8d-959f-c34bf6554067</uuid>
            <masterclipid>masterclip-111</masterclipid>
            <ismasterclip>TRUE</ismasterclip>
            <duration>720</duration>
            <in>0</in>
            <out>720</out>
            <name>Scene - Puppet man_0003.109.png</name>
            <rate>
              <timebase>24</timebase>
              <ntsc>FALSE</ntsc>
            </rate>
            <media>
              <video>
                <track>
                  <clipitem frameBlend="FALSE" id="clipitem-112">
                    <name>Scene - Puppet man_0003.109.png</name>
                    <masterclipid>masterclip-111</masterclipid>
                    <rate>
                      <timebase>24</timebase>
                      <ntsc>FALSE</ntsc>
                    </rate>
                    <alphatype>straight</alphatype>
                    <pixelaspectratio>square</pixelaspectratio>
                    <anamorphic>FALSE</anamorphic>
                    <file id="file-111">
                      <name>Scene - Puppet man_0003.109.png</name>
                      <pathurl>file://localhost/C:/Users/jmrey/OneDrive/Desktop/Programmin Stuff/Projects/conversation-simulator/resources/videos/Scene - Puppet man_0003/Scene - Puppet man_0003.109.png</pathurl>
                      <rate>
                        <timebase>24</timebase>
                        <ntsc>FALSE</ntsc>
                      </rate>
                      <duration>720</duration>
                      <timecode>
                        <rate>
                          <timebase>24</timebase>
                          <ntsc>FALSE</ntsc>
                        </rate>
                      </timecode>
                      <media>
                        <video>
                          <duration>1</duration>
                          <samplecharacteristics>
                            <anamorphic>FALSE</anamorphic>
                            <pixelaspectratio>square</pixelaspectratio>
                            <fielddominance>none</fielddominance>
                            <width>1920</width>
                            <height>1080</height>
                          </samplecharacteristics>
                        </video>
                      </media>
                    </file>
                  </clipitem>
                </track>
              </video>
            </media>
          </clip>
          <clip explodedTracks="true" frameBlend="FALSE" id="masterclip-112">
            <uuid>bd69aafb-b9fe-4a90-96af-83dbc379c71e</uuid>
            <masterclipid>masterclip-112</masterclipid>
            <ismasterclip>TRUE</ismasterclip>
            <duration>720</duration>
            <in>0</in>
            <out>720</out>
            <name>Scene - Puppet man_0003.110.png</name>
            <rate>
              <timebase>24</timebase>
              <ntsc>FALSE</ntsc>
            </rate>
            <media>
              <video>
                <track>
                  <clipitem frameBlend="FALSE" id="clipitem-113">
                    <name>Scene - Puppet man_0003.110.png</name>
                    <masterclipid>masterclip-112</masterclipid>
                    <rate>
                      <timebase>24</timebase>
                      <ntsc>FALSE</ntsc>
                    </rate>
                    <alphatype>straight</alphatype>
                    <pixelaspectratio>square</pixelaspectratio>
                    <anamorphic>FALSE</anamorphic>
                    <file id="file-112">
                      <name>Scene - Puppet man_0003.110.png</name>
                      <pathurl>file://localhost/C:/Users/jmrey/OneDrive/Desktop/Programmin Stuff/Projects/conversation-simulator/resources/videos/Scene - Puppet man_0003/Scene - Puppet man_0003.110.png</pathurl>
                      <rate>
                        <timebase>24</timebase>
                        <ntsc>FALSE</ntsc>
                      </rate>
                      <duration>720</duration>
                      <timecode>
                        <rate>
                          <timebase>24</timebase>
                          <ntsc>FALSE</ntsc>
                        </rate>
                      </timecode>
                      <media>
                        <video>
                          <duration>1</duration>
                          <samplecharacteristics>
                            <anamorphic>FALSE</anamorphic>
                            <pixelaspectratio>square</pixelaspectratio>
                            <fielddominance>none</fielddominance>
                            <width>1920</width>
                            <height>1080</height>
                          </samplecharacteristics>
                        </video>
                      </media>
                    </file>
                  </clipitem>
                </track>
              </video>
            </media>
          </clip>
          <clip explodedTracks="true" frameBlend="FALSE" id="masterclip-113">
            <uuid>521ffb80-3ce4-4da3-8258-61d94140a416</uuid>
            <masterclipid>masterclip-113</masterclipid>
            <ismasterclip>TRUE</ismasterclip>
            <duration>720</duration>
            <in>0</in>
            <out>720</out>
            <name>Scene - Puppet man_0003.111.png</name>
            <rate>
              <timebase>24</timebase>
              <ntsc>FALSE</ntsc>
            </rate>
            <media>
              <video>
                <track>
                  <clipitem frameBlend="FALSE" id="clipitem-114">
                    <name>Scene - Puppet man_0003.111.png</name>
                    <masterclipid>masterclip-113</masterclipid>
                    <rate>
                      <timebase>24</timebase>
                      <ntsc>FALSE</ntsc>
                    </rate>
                    <alphatype>straight</alphatype>
                    <pixelaspectratio>square</pixelaspectratio>
                    <anamorphic>FALSE</anamorphic>
                    <file id="file-113">
                      <name>Scene - Puppet man_0003.111.png</name>
                      <pathurl>file://localhost/C:/Users/jmrey/OneDrive/Desktop/Programmin Stuff/Projects/conversation-simulator/resources/videos/Scene - Puppet man_0003/Scene - Puppet man_0003.111.png</pathurl>
                      <rate>
                        <timebase>24</timebase>
                        <ntsc>FALSE</ntsc>
                      </rate>
                      <duration>720</duration>
                      <timecode>
                        <rate>
                          <timebase>24</timebase>
                          <ntsc>FALSE</ntsc>
                        </rate>
                      </timecode>
                      <media>
                        <video>
                          <duration>1</duration>
                          <samplecharacteristics>
                            <anamorphic>FALSE</anamorphic>
                            <pixelaspectratio>square</pixelaspectratio>
                            <fielddominance>none</fielddominance>
                            <width>1920</width>
                            <height>1080</height>
                          </samplecharacteristics>
                        </video>
                      </media>
                    </file>
                  </clipitem>
                </track>
              </video>
            </media>
          </clip>
          <clip explodedTracks="true" frameBlend="FALSE" id="masterclip-114">
            <uuid>06c61570-fb95-43ff-93c1-bc4c1707208b</uuid>
            <masterclipid>masterclip-114</masterclipid>
            <ismasterclip>TRUE</ismasterclip>
            <duration>720</duration>
            <in>0</in>
            <out>720</out>
            <name>Scene - Puppet man_0003.112.png</name>
            <rate>
              <timebase>24</timebase>
              <ntsc>FALSE</ntsc>
            </rate>
            <media>
              <video>
                <track>
                  <clipitem frameBlend="FALSE" id="clipitem-115">
                    <name>Scene - Puppet man_0003.112.png</name>
                    <masterclipid>masterclip-114</masterclipid>
                    <rate>
                      <timebase>24</timebase>
                      <ntsc>FALSE</ntsc>
                    </rate>
                    <alphatype>straight</alphatype>
                    <pixelaspectratio>square</pixelaspectratio>
                    <anamorphic>FALSE</anamorphic>
                    <file id="file-114">
                      <name>Scene - Puppet man_0003.112.png</name>
                      <pathurl>file://localhost/C:/Users/jmrey/OneDrive/Desktop/Programmin Stuff/Projects/conversation-simulator/resources/videos/Scene - Puppet man_0003/Scene - Puppet man_0003.112.png</pathurl>
                      <rate>
                        <timebase>24</timebase>
                        <ntsc>FALSE</ntsc>
                      </rate>
                      <duration>720</duration>
                      <timecode>
                        <rate>
                          <timebase>24</timebase>
                          <ntsc>FALSE</ntsc>
                        </rate>
                      </timecode>
                      <media>
                        <video>
                          <duration>1</duration>
                          <samplecharacteristics>
                            <anamorphic>FALSE</anamorphic>
                            <pixelaspectratio>square</pixelaspectratio>
                            <fielddominance>none</fielddominance>
                            <width>1920</width>
                            <height>1080</height>
                          </samplecharacteristics>
                        </video>
                      </media>
                    </file>
                  </clipitem>
                </track>
              </video>
            </media>
          </clip>
          <clip explodedTracks="true" frameBlend="FALSE" id="masterclip-115">
            <uuid>471cb2b7-369b-4759-8017-747bf828e19c</uuid>
            <masterclipid>masterclip-115</masterclipid>
            <ismasterclip>TRUE</ismasterclip>
            <duration>720</duration>
            <in>0</in>
            <out>720</out>
            <name>Scene - Puppet man_0003.113.png</name>
            <rate>
              <timebase>24</timebase>
              <ntsc>FALSE</ntsc>
            </rate>
            <media>
              <video>
                <track>
                  <clipitem frameBlend="FALSE" id="clipitem-116">
                    <name>Scene - Puppet man_0003.113.png</name>
                    <masterclipid>masterclip-115</masterclipid>
                    <rate>
                      <timebase>24</timebase>
                      <ntsc>FALSE</ntsc>
                    </rate>
                    <alphatype>straight</alphatype>
                    <pixelaspectratio>square</pixelaspectratio>
                    <anamorphic>FALSE</anamorphic>
                    <file id="file-115">
                      <name>Scene - Puppet man_0003.113.png</name>
                      <pathurl>file://localhost/C:/Users/jmrey/OneDrive/Desktop/Programmin Stuff/Projects/conversation-simulator/resources/videos/Scene - Puppet man_0003/Scene - Puppet man_0003.113.png</pathurl>
                      <rate>
                        <timebase>24</timebase>
                        <ntsc>FALSE</ntsc>
                      </rate>
                      <duration>720</duration>
                      <timecode>
                        <rate>
                          <timebase>24</timebase>
                          <ntsc>FALSE</ntsc>
                        </rate>
                      </timecode>
                      <media>
                        <video>
                          <duration>1</duration>
                          <samplecharacteristics>
                            <anamorphic>FALSE</anamorphic>
                            <pixelaspectratio>square</pixelaspectratio>
                            <fielddominance>none</fielddominance>
                            <width>1920</width>
                            <height>1080</height>
                          </samplecharacteristics>
                        </video>
                      </media>
                    </file>
                  </clipitem>
                </track>
              </video>
            </media>
          </clip>
          <clip explodedTracks="true" frameBlend="FALSE" id="masterclip-116">
            <uuid>c3361980-0dfc-4003-a523-d136911afba3</uuid>
            <masterclipid>masterclip-116</masterclipid>
            <ismasterclip>TRUE</ismasterclip>
            <duration>720</duration>
            <in>0</in>
            <out>720</out>
            <name>Scene - Puppet man_0003.114.png</name>
            <rate>
              <timebase>24</timebase>
              <ntsc>FALSE</ntsc>
            </rate>
            <media>
              <video>
                <track>
                  <clipitem frameBlend="FALSE" id="clipitem-117">
                    <name>Scene - Puppet man_0003.114.png</name>
                    <masterclipid>masterclip-116</masterclipid>
                    <rate>
                      <timebase>24</timebase>
                      <ntsc>FALSE</ntsc>
                    </rate>
                    <alphatype>straight</alphatype>
                    <pixelaspectratio>square</pixelaspectratio>
                    <anamorphic>FALSE</anamorphic>
                    <file id="file-116">
                      <name>Scene - Puppet man_0003.114.png</name>
                      <pathurl>file://localhost/C:/Users/jmrey/OneDrive/Desktop/Programmin Stuff/Projects/conversation-simulator/resources/videos/Scene - Puppet man_0003/Scene - Puppet man_0003.114.png</pathurl>
                      <rate>
                        <timebase>24</timebase>
                        <ntsc>FALSE</ntsc>
                      </rate>
                      <duration>720</duration>
                      <timecode>
                        <rate>
                          <timebase>24</timebase>
                          <ntsc>FALSE</ntsc>
                        </rate>
                      </timecode>
                      <media>
                        <video>
                          <duration>1</duration>
                          <samplecharacteristics>
                            <anamorphic>FALSE</anamorphic>
                            <pixelaspectratio>square</pixelaspectratio>
                            <fielddominance>none</fielddominance>
                            <width>1920</width>
                            <height>1080</height>
                          </samplecharacteristics>
                        </video>
                      </media>
                    </file>
                  </clipitem>
                </track>
              </video>
            </media>
          </clip>
          <clip explodedTracks="true" frameBlend="FALSE" id="masterclip-117">
            <uuid>8945f393-d22d-4915-8cd3-32662b8e6c1e</uuid>
            <masterclipid>masterclip-117</masterclipid>
            <ismasterclip>TRUE</ismasterclip>
            <duration>720</duration>
            <in>0</in>
            <out>720</out>
            <name>Scene - Puppet man_0003.115.png</name>
            <rate>
              <timebase>24</timebase>
              <ntsc>FALSE</ntsc>
            </rate>
            <media>
              <video>
                <track>
                  <clipitem frameBlend="FALSE" id="clipitem-118">
                    <name>Scene - Puppet man_0003.115.png</name>
                    <masterclipid>masterclip-117</masterclipid>
                    <rate>
                      <timebase>24</timebase>
                      <ntsc>FALSE</ntsc>
                    </rate>
                    <alphatype>straight</alphatype>
                    <pixelaspectratio>square</pixelaspectratio>
                    <anamorphic>FALSE</anamorphic>
                    <file id="file-117">
                      <name>Scene - Puppet man_0003.115.png</name>
                      <pathurl>file://localhost/C:/Users/jmrey/OneDrive/Desktop/Programmin Stuff/Projects/conversation-simulator/resources/videos/Scene - Puppet man_0003/Scene - Puppet man_0003.115.png</pathurl>
                      <rate>
                        <timebase>24</timebase>
                        <ntsc>FALSE</ntsc>
                      </rate>
                      <duration>720</duration>
                      <timecode>
                        <rate>
                          <timebase>24</timebase>
                          <ntsc>FALSE</ntsc>
                        </rate>
                      </timecode>
                      <media>
                        <video>
                          <duration>1</duration>
                          <samplecharacteristics>
                            <anamorphic>FALSE</anamorphic>
                            <pixelaspectratio>square</pixelaspectratio>
                            <fielddominance>none</fielddominance>
                            <width>1920</width>
                            <height>1080</height>
                          </samplecharacteristics>
                        </video>
                      </media>
                    </file>
                  </clipitem>
                </track>
              </video>
            </media>
          </clip>
          <clip explodedTracks="true" frameBlend="FALSE" id="masterclip-118">
            <uuid>a7baeb1b-61c5-4aa4-9db6-ca213b1c2f02</uuid>
            <masterclipid>masterclip-118</masterclipid>
            <ismasterclip>TRUE</ismasterclip>
            <duration>720</duration>
            <in>0</in>
            <out>720</out>
            <name>Scene - Puppet man_0003.116.png</name>
            <rate>
              <timebase>24</timebase>
              <ntsc>FALSE</ntsc>
            </rate>
            <media>
              <video>
                <track>
                  <clipitem frameBlend="FALSE" id="clipitem-119">
                    <name>Scene - Puppet man_0003.116.png</name>
                    <masterclipid>masterclip-118</masterclipid>
                    <rate>
                      <timebase>24</timebase>
                      <ntsc>FALSE</ntsc>
                    </rate>
                    <alphatype>straight</alphatype>
                    <pixelaspectratio>square</pixelaspectratio>
                    <anamorphic>FALSE</anamorphic>
                    <file id="file-118">
                      <name>Scene - Puppet man_0003.116.png</name>
                      <pathurl>file://localhost/C:/Users/jmrey/OneDrive/Desktop/Programmin Stuff/Projects/conversation-simulator/resources/videos/Scene - Puppet man_0003/Scene - Puppet man_0003.116.png</pathurl>
                      <rate>
                        <timebase>24</timebase>
                        <ntsc>FALSE</ntsc>
                      </rate>
                      <duration>720</duration>
                      <timecode>
                        <rate>
                          <timebase>24</timebase>
                          <ntsc>FALSE</ntsc>
                        </rate>
                      </timecode>
                      <media>
                        <video>
                          <duration>1</duration>
                          <samplecharacteristics>
                            <anamorphic>FALSE</anamorphic>
                            <pixelaspectratio>square</pixelaspectratio>
                            <fielddominance>none</fielddominance>
                            <width>1920</width>
                            <height>1080</height>
                          </samplecharacteristics>
                        </video>
                      </media>
                    </file>
                  </clipitem>
                </track>
              </video>
            </media>
          </clip>
          <clip explodedTracks="true" frameBlend="FALSE" id="masterclip-119">
            <uuid>32103cc6-9a05-4ad8-ba22-da3260e3df6c</uuid>
            <masterclipid>masterclip-119</masterclipid>
            <ismasterclip>TRUE</ismasterclip>
            <duration>720</duration>
            <in>0</in>
            <out>720</out>
            <name>Scene - Puppet man_0003.117.png</name>
            <rate>
              <timebase>24</timebase>
              <ntsc>FALSE</ntsc>
            </rate>
            <media>
              <video>
                <track>
                  <clipitem frameBlend="FALSE" id="clipitem-120">
                    <name>Scene - Puppet man_0003.117.png</name>
                    <masterclipid>masterclip-119</masterclipid>
                    <rate>
                      <timebase>24</timebase>
                      <ntsc>FALSE</ntsc>
                    </rate>
                    <alphatype>straight</alphatype>
                    <pixelaspectratio>square</pixelaspectratio>
                    <anamorphic>FALSE</anamorphic>
                    <file id="file-119">
                      <name>Scene - Puppet man_0003.117.png</name>
                      <pathurl>file://localhost/C:/Users/jmrey/OneDrive/Desktop/Programmin Stuff/Projects/conversation-simulator/resources/videos/Scene - Puppet man_0003/Scene - Puppet man_0003.117.png</pathurl>
                      <rate>
                        <timebase>24</timebase>
                        <ntsc>FALSE</ntsc>
                      </rate>
                      <duration>720</duration>
                      <timecode>
                        <rate>
                          <timebase>24</timebase>
                          <ntsc>FALSE</ntsc>
                        </rate>
                      </timecode>
                      <media>
                        <video>
                          <duration>1</duration>
                          <samplecharacteristics>
                            <anamorphic>FALSE</anamorphic>
                            <pixelaspectratio>square</pixelaspectratio>
                            <fielddominance>none</fielddominance>
                            <width>1920</width>
                            <height>1080</height>
                          </samplecharacteristics>
                        </video>
                      </media>
                    </file>
                  </clipitem>
                </track>
              </video>
            </media>
          </clip>
          <clip explodedTracks="true" frameBlend="FALSE" id="masterclip-120">
            <uuid>7f2b687a-2f17-44ae-9123-d4c7ee381e74</uuid>
            <masterclipid>masterclip-120</masterclipid>
            <ismasterclip>TRUE</ismasterclip>
            <duration>720</duration>
            <in>0</in>
            <out>720</out>
            <name>Scene - Puppet man_0003.118.png</name>
            <rate>
              <timebase>24</timebase>
              <ntsc>FALSE</ntsc>
            </rate>
            <media>
              <video>
                <track>
                  <clipitem frameBlend="FALSE" id="clipitem-121">
                    <name>Scene - Puppet man_0003.118.png</name>
                    <masterclipid>masterclip-120</masterclipid>
                    <rate>
                      <timebase>24</timebase>
                      <ntsc>FALSE</ntsc>
                    </rate>
                    <alphatype>straight</alphatype>
                    <pixelaspectratio>square</pixelaspectratio>
                    <anamorphic>FALSE</anamorphic>
                    <file id="file-120">
                      <name>Scene - Puppet man_0003.118.png</name>
                      <pathurl>file://localhost/C:/Users/jmrey/OneDrive/Desktop/Programmin Stuff/Projects/conversation-simulator/resources/videos/Scene - Puppet man_0003/Scene - Puppet man_0003.118.png</pathurl>
                      <rate>
                        <timebase>24</timebase>
                        <ntsc>FALSE</ntsc>
                      </rate>
                      <duration>720</duration>
                      <timecode>
                        <rate>
                          <timebase>24</timebase>
                          <ntsc>FALSE</ntsc>
                        </rate>
                      </timecode>
                      <media>
                        <video>
                          <duration>1</duration>
                          <samplecharacteristics>
                            <anamorphic>FALSE</anamorphic>
                            <pixelaspectratio>square</pixelaspectratio>
                            <fielddominance>none</fielddominance>
                            <width>1920</width>
                            <height>1080</height>
                          </samplecharacteristics>
                        </video>
                      </media>
                    </file>
                  </clipitem>
                </track>
              </video>
            </media>
          </clip>
          <clip explodedTracks="true" frameBlend="FALSE" id="masterclip-121">
            <uuid>274e9cd2-e1e2-448c-8201-ef91b6dc9f3c</uuid>
            <masterclipid>masterclip-121</masterclipid>
            <ismasterclip>TRUE</ismasterclip>
            <duration>720</duration>
            <in>0</in>
            <out>720</out>
            <name>Scene - Puppet man_0003.119.png</name>
            <rate>
              <timebase>24</timebase>
              <ntsc>FALSE</ntsc>
            </rate>
            <media>
              <video>
                <track>
                  <clipitem frameBlend="FALSE" id="clipitem-122">
                    <name>Scene - Puppet man_0003.119.png</name>
                    <masterclipid>masterclip-121</masterclipid>
                    <rate>
                      <timebase>24</timebase>
                      <ntsc>FALSE</ntsc>
                    </rate>
                    <alphatype>straight</alphatype>
                    <pixelaspectratio>square</pixelaspectratio>
                    <anamorphic>FALSE</anamorphic>
                    <file id="file-121">
                      <name>Scene - Puppet man_0003.119.png</name>
                      <pathurl>file://localhost/C:/Users/jmrey/OneDrive/Desktop/Programmin Stuff/Projects/conversation-simulator/resources/videos/Scene - Puppet man_0003/Scene - Puppet man_0003.119.png</pathurl>
                      <rate>
                        <timebase>24</timebase>
                        <ntsc>FALSE</ntsc>
                      </rate>
                      <duration>720</duration>
                      <timecode>
                        <rate>
                          <timebase>24</timebase>
                          <ntsc>FALSE</ntsc>
                        </rate>
                      </timecode>
                      <media>
                        <video>
                          <duration>1</duration>
                          <samplecharacteristics>
                            <anamorphic>FALSE</anamorphic>
                            <pixelaspectratio>square</pixelaspectratio>
                            <fielddominance>none</fielddominance>
                            <width>1920</width>
                            <height>1080</height>
                          </samplecharacteristics>
                        </video>
                      </media>
                    </file>
                  </clipitem>
                </track>
              </video>
            </media>
          </clip>
          <clip explodedTracks="true" frameBlend="FALSE" id="masterclip-122">
            <uuid>88e22331-16aa-4144-8710-6336539ef7b8</uuid>
            <masterclipid>masterclip-122</masterclipid>
            <ismasterclip>TRUE</ismasterclip>
            <duration>720</duration>
            <in>0</in>
            <out>720</out>
            <name>Scene - Puppet man_0003.120.png</name>
            <rate>
              <timebase>24</timebase>
              <ntsc>FALSE</ntsc>
            </rate>
            <media>
              <video>
                <track>
                  <clipitem frameBlend="FALSE" id="clipitem-123">
                    <name>Scene - Puppet man_0003.120.png</name>
                    <masterclipid>masterclip-122</masterclipid>
                    <rate>
                      <timebase>24</timebase>
                      <ntsc>FALSE</ntsc>
                    </rate>
                    <alphatype>straight</alphatype>
                    <pixelaspectratio>square</pixelaspectratio>
                    <anamorphic>FALSE</anamorphic>
                    <file id="file-122">
                      <name>Scene - Puppet man_0003.120.png</name>
                      <pathurl>file://localhost/C:/Users/jmrey/OneDrive/Desktop/Programmin Stuff/Projects/conversation-simulator/resources/videos/Scene - Puppet man_0003/Scene - Puppet man_0003.120.png</pathurl>
                      <rate>
                        <timebase>24</timebase>
                        <ntsc>FALSE</ntsc>
                      </rate>
                      <duration>720</duration>
                      <timecode>
                        <rate>
                          <timebase>24</timebase>
                          <ntsc>FALSE</ntsc>
                        </rate>
                      </timecode>
                      <media>
                        <video>
                          <duration>1</duration>
                          <samplecharacteristics>
                            <anamorphic>FALSE</anamorphic>
                            <pixelaspectratio>square</pixelaspectratio>
                            <fielddominance>none</fielddominance>
                            <width>1920</width>
                            <height>1080</height>
                          </samplecharacteristics>
                        </video>
                      </media>
                    </file>
                  </clipitem>
                </track>
              </video>
            </media>
          </clip>
          <clip explodedTracks="true" frameBlend="FALSE" id="masterclip-123">
            <uuid>92bad889-4063-43bf-a955-d5e887de0f55</uuid>
            <masterclipid>masterclip-123</masterclipid>
            <ismasterclip>TRUE</ismasterclip>
            <duration>720</duration>
            <in>0</in>
            <out>720</out>
            <name>Scene - Puppet man_0003.121.png</name>
            <rate>
              <timebase>24</timebase>
              <ntsc>FALSE</ntsc>
            </rate>
            <media>
              <video>
                <track>
                  <clipitem frameBlend="FALSE" id="clipitem-124">
                    <name>Scene - Puppet man_0003.121.png</name>
                    <masterclipid>masterclip-123</masterclipid>
                    <rate>
                      <timebase>24</timebase>
                      <ntsc>FALSE</ntsc>
                    </rate>
                    <alphatype>straight</alphatype>
                    <pixelaspectratio>square</pixelaspectratio>
                    <anamorphic>FALSE</anamorphic>
                    <file id="file-123">
                      <name>Scene - Puppet man_0003.121.png</name>
                      <pathurl>file://localhost/C:/Users/jmrey/OneDrive/Desktop/Programmin Stuff/Projects/conversation-simulator/resources/videos/Scene - Puppet man_0003/Scene - Puppet man_0003.121.png</pathurl>
                      <rate>
                        <timebase>24</timebase>
                        <ntsc>FALSE</ntsc>
                      </rate>
                      <duration>720</duration>
                      <timecode>
                        <rate>
                          <timebase>24</timebase>
                          <ntsc>FALSE</ntsc>
                        </rate>
                      </timecode>
                      <media>
                        <video>
                          <duration>1</duration>
                          <samplecharacteristics>
                            <anamorphic>FALSE</anamorphic>
                            <pixelaspectratio>square</pixelaspectratio>
                            <fielddominance>none</fielddominance>
                            <width>1920</width>
                            <height>1080</height>
                          </samplecharacteristics>
                        </video>
                      </media>
                    </file>
                  </clipitem>
                </track>
              </video>
            </media>
          </clip>
          <clip explodedTracks="true" frameBlend="FALSE" id="masterclip-124">
            <uuid>6c5f7c6c-a167-48cc-b1fd-b56f43f16b30</uuid>
            <masterclipid>masterclip-124</masterclipid>
            <ismasterclip>TRUE</ismasterclip>
            <duration>720</duration>
            <in>0</in>
            <out>720</out>
            <name>Scene - Puppet man_0003.122.png</name>
            <rate>
              <timebase>24</timebase>
              <ntsc>FALSE</ntsc>
            </rate>
            <media>
              <video>
                <track>
                  <clipitem frameBlend="FALSE" id="clipitem-125">
                    <name>Scene - Puppet man_0003.122.png</name>
                    <masterclipid>masterclip-124</masterclipid>
                    <rate>
                      <timebase>24</timebase>
                      <ntsc>FALSE</ntsc>
                    </rate>
                    <alphatype>straight</alphatype>
                    <pixelaspectratio>square</pixelaspectratio>
                    <anamorphic>FALSE</anamorphic>
                    <file id="file-124">
                      <name>Scene - Puppet man_0003.122.png</name>
                      <pathurl>file://localhost/C:/Users/jmrey/OneDrive/Desktop/Programmin Stuff/Projects/conversation-simulator/resources/videos/Scene - Puppet man_0003/Scene - Puppet man_0003.122.png</pathurl>
                      <rate>
                        <timebase>24</timebase>
                        <ntsc>FALSE</ntsc>
                      </rate>
                      <duration>720</duration>
                      <timecode>
                        <rate>
                          <timebase>24</timebase>
                          <ntsc>FALSE</ntsc>
                        </rate>
                      </timecode>
                      <media>
                        <video>
                          <duration>1</duration>
                          <samplecharacteristics>
                            <anamorphic>FALSE</anamorphic>
                            <pixelaspectratio>square</pixelaspectratio>
                            <fielddominance>none</fielddominance>
                            <width>1920</width>
                            <height>1080</height>
                          </samplecharacteristics>
                        </video>
                      </media>
                    </file>
                  </clipitem>
                </track>
              </video>
            </media>
          </clip>
          <clip explodedTracks="true" frameBlend="FALSE" id="masterclip-125">
            <uuid>4f8d2d03-5b0b-401c-980a-10695e57576c</uuid>
            <masterclipid>masterclip-125</masterclipid>
            <ismasterclip>TRUE</ismasterclip>
            <duration>720</duration>
            <in>0</in>
            <out>720</out>
            <name>Scene - Puppet man_0003.123.png</name>
            <rate>
              <timebase>24</timebase>
              <ntsc>FALSE</ntsc>
            </rate>
            <media>
              <video>
                <track>
                  <clipitem frameBlend="FALSE" id="clipitem-126">
                    <name>Scene - Puppet man_0003.123.png</name>
                    <masterclipid>masterclip-125</masterclipid>
                    <rate>
                      <timebase>24</timebase>
                      <ntsc>FALSE</ntsc>
                    </rate>
                    <alphatype>straight</alphatype>
                    <pixelaspectratio>square</pixelaspectratio>
                    <anamorphic>FALSE</anamorphic>
                    <file id="file-125">
                      <name>Scene - Puppet man_0003.123.png</name>
                      <pathurl>file://localhost/C:/Users/jmrey/OneDrive/Desktop/Programmin Stuff/Projects/conversation-simulator/resources/videos/Scene - Puppet man_0003/Scene - Puppet man_0003.123.png</pathurl>
                      <rate>
                        <timebase>24</timebase>
                        <ntsc>FALSE</ntsc>
                      </rate>
                      <duration>720</duration>
                      <timecode>
                        <rate>
                          <timebase>24</timebase>
                          <ntsc>FALSE</ntsc>
                        </rate>
                      </timecode>
                      <media>
                        <video>
                          <duration>1</duration>
                          <samplecharacteristics>
                            <anamorphic>FALSE</anamorphic>
                            <pixelaspectratio>square</pixelaspectratio>
                            <fielddominance>none</fielddominance>
                            <width>1920</width>
                            <height>1080</height>
                          </samplecharacteristics>
                        </video>
                      </media>
                    </file>
                  </clipitem>
                </track>
              </video>
            </media>
          </clip>
          <clip explodedTracks="true" frameBlend="FALSE" id="masterclip-126">
            <uuid>57c4f2e1-6d55-4208-996b-2dea9817664c</uuid>
            <masterclipid>masterclip-126</masterclipid>
            <ismasterclip>TRUE</ismasterclip>
            <duration>720</duration>
            <in>0</in>
            <out>720</out>
            <name>Scene - Puppet man_0003.124.png</name>
            <rate>
              <timebase>24</timebase>
              <ntsc>FALSE</ntsc>
            </rate>
            <media>
              <video>
                <track>
                  <clipitem frameBlend="FALSE" id="clipitem-127">
                    <name>Scene - Puppet man_0003.124.png</name>
                    <masterclipid>masterclip-126</masterclipid>
                    <rate>
                      <timebase>24</timebase>
                      <ntsc>FALSE</ntsc>
                    </rate>
                    <alphatype>straight</alphatype>
                    <pixelaspectratio>square</pixelaspectratio>
                    <anamorphic>FALSE</anamorphic>
                    <file id="file-126">
                      <name>Scene - Puppet man_0003.124.png</name>
                      <pathurl>file://localhost/C:/Users/jmrey/OneDrive/Desktop/Programmin Stuff/Projects/conversation-simulator/resources/videos/Scene - Puppet man_0003/Scene - Puppet man_0003.124.png</pathurl>
                      <rate>
                        <timebase>24</timebase>
                        <ntsc>FALSE</ntsc>
                      </rate>
                      <duration>720</duration>
                      <timecode>
                        <rate>
                          <timebase>24</timebase>
                          <ntsc>FALSE</ntsc>
                        </rate>
                      </timecode>
                      <media>
                        <video>
                          <duration>1</duration>
                          <samplecharacteristics>
                            <anamorphic>FALSE</anamorphic>
                            <pixelaspectratio>square</pixelaspectratio>
                            <fielddominance>none</fielddominance>
                            <width>1920</width>
                            <height>1080</height>
                          </samplecharacteristics>
                        </video>
                      </media>
                    </file>
                  </clipitem>
                </track>
              </video>
            </media>
          </clip>
          <clip explodedTracks="true" frameBlend="FALSE" id="masterclip-127">
            <uuid>c8dfa423-489c-41d6-888b-74fbbaf0f115</uuid>
            <masterclipid>masterclip-127</masterclipid>
            <ismasterclip>TRUE</ismasterclip>
            <duration>720</duration>
            <in>0</in>
            <out>720</out>
            <name>Scene - Puppet man_0003.125.png</name>
            <rate>
              <timebase>24</timebase>
              <ntsc>FALSE</ntsc>
            </rate>
            <media>
              <video>
                <track>
                  <clipitem frameBlend="FALSE" id="clipitem-128">
                    <name>Scene - Puppet man_0003.125.png</name>
                    <masterclipid>masterclip-127</masterclipid>
                    <rate>
                      <timebase>24</timebase>
                      <ntsc>FALSE</ntsc>
                    </rate>
                    <alphatype>straight</alphatype>
                    <pixelaspectratio>square</pixelaspectratio>
                    <anamorphic>FALSE</anamorphic>
                    <file id="file-127">
                      <name>Scene - Puppet man_0003.125.png</name>
                      <pathurl>file://localhost/C:/Users/jmrey/OneDrive/Desktop/Programmin Stuff/Projects/conversation-simulator/resources/videos/Scene - Puppet man_0003/Scene - Puppet man_0003.125.png</pathurl>
                      <rate>
                        <timebase>24</timebase>
                        <ntsc>FALSE</ntsc>
                      </rate>
                      <duration>720</duration>
                      <timecode>
                        <rate>
                          <timebase>24</timebase>
                          <ntsc>FALSE</ntsc>
                        </rate>
                      </timecode>
                      <media>
                        <video>
                          <duration>1</duration>
                          <samplecharacteristics>
                            <anamorphic>FALSE</anamorphic>
                            <pixelaspectratio>square</pixelaspectratio>
                            <fielddominance>none</fielddominance>
                            <width>1920</width>
                            <height>1080</height>
                          </samplecharacteristics>
                        </video>
                      </media>
                    </file>
                  </clipitem>
                </track>
              </video>
            </media>
          </clip>
          <clip explodedTracks="true" frameBlend="FALSE" id="masterclip-128">
            <uuid>e483d7d3-e969-432d-9fe5-a668e2eeefa8</uuid>
            <masterclipid>masterclip-128</masterclipid>
            <ismasterclip>TRUE</ismasterclip>
            <duration>720</duration>
            <in>0</in>
            <out>720</out>
            <name>Scene - Puppet man_0003.126.png</name>
            <rate>
              <timebase>24</timebase>
              <ntsc>FALSE</ntsc>
            </rate>
            <media>
              <video>
                <track>
                  <clipitem frameBlend="FALSE" id="clipitem-129">
                    <name>Scene - Puppet man_0003.126.png</name>
                    <masterclipid>masterclip-128</masterclipid>
                    <rate>
                      <timebase>24</timebase>
                      <ntsc>FALSE</ntsc>
                    </rate>
                    <alphatype>straight</alphatype>
                    <pixelaspectratio>square</pixelaspectratio>
                    <anamorphic>FALSE</anamorphic>
                    <file id="file-128">
                      <name>Scene - Puppet man_0003.126.png</name>
                      <pathurl>file://localhost/C:/Users/jmrey/OneDrive/Desktop/Programmin Stuff/Projects/conversation-simulator/resources/videos/Scene - Puppet man_0003/Scene - Puppet man_0003.126.png</pathurl>
                      <rate>
                        <timebase>24</timebase>
                        <ntsc>FALSE</ntsc>
                      </rate>
                      <duration>720</duration>
                      <timecode>
                        <rate>
                          <timebase>24</timebase>
                          <ntsc>FALSE</ntsc>
                        </rate>
                      </timecode>
                      <media>
                        <video>
                          <duration>1</duration>
                          <samplecharacteristics>
                            <anamorphic>FALSE</anamorphic>
                            <pixelaspectratio>square</pixelaspectratio>
                            <fielddominance>none</fielddominance>
                            <width>1920</width>
                            <height>1080</height>
                          </samplecharacteristics>
                        </video>
                      </media>
                    </file>
                  </clipitem>
                </track>
              </video>
            </media>
          </clip>
          <clip explodedTracks="true" frameBlend="FALSE" id="masterclip-129">
            <uuid>6e0c2ff5-b966-4530-a26a-48b2d4c58d15</uuid>
            <masterclipid>masterclip-129</masterclipid>
            <ismasterclip>TRUE</ismasterclip>
            <duration>720</duration>
            <in>0</in>
            <out>720</out>
            <name>Scene - Puppet man_0003.127.png</name>
            <rate>
              <timebase>24</timebase>
              <ntsc>FALSE</ntsc>
            </rate>
            <media>
              <video>
                <track>
                  <clipitem frameBlend="FALSE" id="clipitem-130">
                    <name>Scene - Puppet man_0003.127.png</name>
                    <masterclipid>masterclip-129</masterclipid>
                    <rate>
                      <timebase>24</timebase>
                      <ntsc>FALSE</ntsc>
                    </rate>
                    <alphatype>straight</alphatype>
                    <pixelaspectratio>square</pixelaspectratio>
                    <anamorphic>FALSE</anamorphic>
                    <file id="file-129">
                      <name>Scene - Puppet man_0003.127.png</name>
                      <pathurl>file://localhost/C:/Users/jmrey/OneDrive/Desktop/Programmin Stuff/Projects/conversation-simulator/resources/videos/Scene - Puppet man_0003/Scene - Puppet man_0003.127.png</pathurl>
                      <rate>
                        <timebase>24</timebase>
                        <ntsc>FALSE</ntsc>
                      </rate>
                      <duration>720</duration>
                      <timecode>
                        <rate>
                          <timebase>24</timebase>
                          <ntsc>FALSE</ntsc>
                        </rate>
                      </timecode>
                      <media>
                        <video>
                          <duration>1</duration>
                          <samplecharacteristics>
                            <anamorphic>FALSE</anamorphic>
                            <pixelaspectratio>square</pixelaspectratio>
                            <fielddominance>none</fielddominance>
                            <width>1920</width>
                            <height>1080</height>
                          </samplecharacteristics>
                        </video>
                      </media>
                    </file>
                  </clipitem>
                </track>
              </video>
            </media>
          </clip>
          <clip explodedTracks="true" frameBlend="FALSE" id="masterclip-130">
            <uuid>1784ff75-ebd1-4b7d-b11b-4c7edecf70ae</uuid>
            <masterclipid>masterclip-130</masterclipid>
            <ismasterclip>TRUE</ismasterclip>
            <duration>720</duration>
            <in>0</in>
            <out>720</out>
            <name>Scene - Puppet man_0003.128.png</name>
            <rate>
              <timebase>24</timebase>
              <ntsc>FALSE</ntsc>
            </rate>
            <media>
              <video>
                <track>
                  <clipitem frameBlend="FALSE" id="clipitem-131">
                    <name>Scene - Puppet man_0003.128.png</name>
                    <masterclipid>masterclip-130</masterclipid>
                    <rate>
                      <timebase>24</timebase>
                      <ntsc>FALSE</ntsc>
                    </rate>
                    <alphatype>straight</alphatype>
                    <pixelaspectratio>square</pixelaspectratio>
                    <anamorphic>FALSE</anamorphic>
                    <file id="file-130">
                      <name>Scene - Puppet man_0003.128.png</name>
                      <pathurl>file://localhost/C:/Users/jmrey/OneDrive/Desktop/Programmin Stuff/Projects/conversation-simulator/resources/videos/Scene - Puppet man_0003/Scene - Puppet man_0003.128.png</pathurl>
                      <rate>
                        <timebase>24</timebase>
                        <ntsc>FALSE</ntsc>
                      </rate>
                      <duration>720</duration>
                      <timecode>
                        <rate>
                          <timebase>24</timebase>
                          <ntsc>FALSE</ntsc>
                        </rate>
                      </timecode>
                      <media>
                        <video>
                          <duration>1</duration>
                          <samplecharacteristics>
                            <anamorphic>FALSE</anamorphic>
                            <pixelaspectratio>square</pixelaspectratio>
                            <fielddominance>none</fielddominance>
                            <width>1920</width>
                            <height>1080</height>
                          </samplecharacteristics>
                        </video>
                      </media>
                    </file>
                  </clipitem>
                </track>
              </video>
            </media>
          </clip>
          <clip explodedTracks="true" frameBlend="FALSE" id="masterclip-131">
            <uuid>6683ddb0-81a8-4df1-a10d-f8500fc4b203</uuid>
            <masterclipid>masterclip-131</masterclipid>
            <ismasterclip>TRUE</ismasterclip>
            <duration>720</duration>
            <in>0</in>
            <out>720</out>
            <name>Scene - Puppet man_0003.129.png</name>
            <rate>
              <timebase>24</timebase>
              <ntsc>FALSE</ntsc>
            </rate>
            <media>
              <video>
                <track>
                  <clipitem frameBlend="FALSE" id="clipitem-132">
                    <name>Scene - Puppet man_0003.129.png</name>
                    <masterclipid>masterclip-131</masterclipid>
                    <rate>
                      <timebase>24</timebase>
                      <ntsc>FALSE</ntsc>
                    </rate>
                    <alphatype>straight</alphatype>
                    <pixelaspectratio>square</pixelaspectratio>
                    <anamorphic>FALSE</anamorphic>
                    <file id="file-131">
                      <name>Scene - Puppet man_0003.129.png</name>
                      <pathurl>file://localhost/C:/Users/jmrey/OneDrive/Desktop/Programmin Stuff/Projects/conversation-simulator/resources/videos/Scene - Puppet man_0003/Scene - Puppet man_0003.129.png</pathurl>
                      <rate>
                        <timebase>24</timebase>
                        <ntsc>FALSE</ntsc>
                      </rate>
                      <duration>720</duration>
                      <timecode>
                        <rate>
                          <timebase>24</timebase>
                          <ntsc>FALSE</ntsc>
                        </rate>
                      </timecode>
                      <media>
                        <video>
                          <duration>1</duration>
                          <samplecharacteristics>
                            <anamorphic>FALSE</anamorphic>
                            <pixelaspectratio>square</pixelaspectratio>
                            <fielddominance>none</fielddominance>
                            <width>1920</width>
                            <height>1080</height>
                          </samplecharacteristics>
                        </video>
                      </media>
                    </file>
                  </clipitem>
                </track>
              </video>
            </media>
          </clip>
          <clip explodedTracks="true" frameBlend="FALSE" id="masterclip-132">
            <uuid>9300e9ba-fe89-41c8-9373-04cc23b8ac4f</uuid>
            <masterclipid>masterclip-132</masterclipid>
            <ismasterclip>TRUE</ismasterclip>
            <duration>720</duration>
            <in>0</in>
            <out>720</out>
            <name>Scene - Puppet man_0003.130.png</name>
            <rate>
              <timebase>24</timebase>
              <ntsc>FALSE</ntsc>
            </rate>
            <media>
              <video>
                <track>
                  <clipitem frameBlend="FALSE" id="clipitem-133">
                    <name>Scene - Puppet man_0003.130.png</name>
                    <masterclipid>masterclip-132</masterclipid>
                    <rate>
                      <timebase>24</timebase>
                      <ntsc>FALSE</ntsc>
                    </rate>
                    <alphatype>straight</alphatype>
                    <pixelaspectratio>square</pixelaspectratio>
                    <anamorphic>FALSE</anamorphic>
                    <file id="file-132">
                      <name>Scene - Puppet man_0003.130.png</name>
                      <pathurl>file://localhost/C:/Users/jmrey/OneDrive/Desktop/Programmin Stuff/Projects/conversation-simulator/resources/videos/Scene - Puppet man_0003/Scene - Puppet man_0003.130.png</pathurl>
                      <rate>
                        <timebase>24</timebase>
                        <ntsc>FALSE</ntsc>
                      </rate>
                      <duration>720</duration>
                      <timecode>
                        <rate>
                          <timebase>24</timebase>
                          <ntsc>FALSE</ntsc>
                        </rate>
                      </timecode>
                      <media>
                        <video>
                          <duration>1</duration>
                          <samplecharacteristics>
                            <anamorphic>FALSE</anamorphic>
                            <pixelaspectratio>square</pixelaspectratio>
                            <fielddominance>none</fielddominance>
                            <width>1920</width>
                            <height>1080</height>
                          </samplecharacteristics>
                        </video>
                      </media>
                    </file>
                  </clipitem>
                </track>
              </video>
            </media>
          </clip>
          <clip explodedTracks="true" frameBlend="FALSE" id="masterclip-133">
            <uuid>be06c2b0-9ae2-4469-8ad2-bf89766c3ede</uuid>
            <masterclipid>masterclip-133</masterclipid>
            <ismasterclip>TRUE</ismasterclip>
            <duration>720</duration>
            <in>0</in>
            <out>720</out>
            <name>Scene - Puppet man_0003.131.png</name>
            <rate>
              <timebase>24</timebase>
              <ntsc>FALSE</ntsc>
            </rate>
            <media>
              <video>
                <track>
                  <clipitem frameBlend="FALSE" id="clipitem-134">
                    <name>Scene - Puppet man_0003.131.png</name>
                    <masterclipid>masterclip-133</masterclipid>
                    <rate>
                      <timebase>24</timebase>
                      <ntsc>FALSE</ntsc>
                    </rate>
                    <alphatype>straight</alphatype>
                    <pixelaspectratio>square</pixelaspectratio>
                    <anamorphic>FALSE</anamorphic>
                    <file id="file-133">
                      <name>Scene - Puppet man_0003.131.png</name>
                      <pathurl>file://localhost/C:/Users/jmrey/OneDrive/Desktop/Programmin Stuff/Projects/conversation-simulator/resources/videos/Scene - Puppet man_0003/Scene - Puppet man_0003.131.png</pathurl>
                      <rate>
                        <timebase>24</timebase>
                        <ntsc>FALSE</ntsc>
                      </rate>
                      <duration>720</duration>
                      <timecode>
                        <rate>
                          <timebase>24</timebase>
                          <ntsc>FALSE</ntsc>
                        </rate>
                      </timecode>
                      <media>
                        <video>
                          <duration>1</duration>
                          <samplecharacteristics>
                            <anamorphic>FALSE</anamorphic>
                            <pixelaspectratio>square</pixelaspectratio>
                            <fielddominance>none</fielddominance>
                            <width>1920</width>
                            <height>1080</height>
                          </samplecharacteristics>
                        </video>
                      </media>
                    </file>
                  </clipitem>
                </track>
              </video>
            </media>
          </clip>
          <clip explodedTracks="true" frameBlend="FALSE" id="masterclip-134">
            <uuid>d72b5046-af87-4625-9043-85a03bdc501f</uuid>
            <masterclipid>masterclip-134</masterclipid>
            <ismasterclip>TRUE</ismasterclip>
            <duration>720</duration>
            <in>0</in>
            <out>720</out>
            <name>Scene - Puppet man_0003.132.png</name>
            <rate>
              <timebase>24</timebase>
              <ntsc>FALSE</ntsc>
            </rate>
            <media>
              <video>
                <track>
                  <clipitem frameBlend="FALSE" id="clipitem-135">
                    <name>Scene - Puppet man_0003.132.png</name>
                    <masterclipid>masterclip-134</masterclipid>
                    <rate>
                      <timebase>24</timebase>
                      <ntsc>FALSE</ntsc>
                    </rate>
                    <alphatype>straight</alphatype>
                    <pixelaspectratio>square</pixelaspectratio>
                    <anamorphic>FALSE</anamorphic>
                    <file id="file-134">
                      <name>Scene - Puppet man_0003.132.png</name>
                      <pathurl>file://localhost/C:/Users/jmrey/OneDrive/Desktop/Programmin Stuff/Projects/conversation-simulator/resources/videos/Scene - Puppet man_0003/Scene - Puppet man_0003.132.png</pathurl>
                      <rate>
                        <timebase>24</timebase>
                        <ntsc>FALSE</ntsc>
                      </rate>
                      <duration>720</duration>
                      <timecode>
                        <rate>
                          <timebase>24</timebase>
                          <ntsc>FALSE</ntsc>
                        </rate>
                      </timecode>
                      <media>
                        <video>
                          <duration>1</duration>
                          <samplecharacteristics>
                            <anamorphic>FALSE</anamorphic>
                            <pixelaspectratio>square</pixelaspectratio>
                            <fielddominance>none</fielddominance>
                            <width>1920</width>
                            <height>1080</height>
                          </samplecharacteristics>
                        </video>
                      </media>
                    </file>
                  </clipitem>
                </track>
              </video>
            </media>
          </clip>
          <clip explodedTracks="true" frameBlend="FALSE" id="masterclip-135">
            <uuid>7b073198-59be-4dd4-8fad-309968d3995f</uuid>
            <masterclipid>masterclip-135</masterclipid>
            <ismasterclip>TRUE</ismasterclip>
            <duration>720</duration>
            <in>0</in>
            <out>720</out>
            <name>Scene - Puppet man_0003.133.png</name>
            <rate>
              <timebase>24</timebase>
              <ntsc>FALSE</ntsc>
            </rate>
            <media>
              <video>
                <track>
                  <clipitem frameBlend="FALSE" id="clipitem-136">
                    <name>Scene - Puppet man_0003.133.png</name>
                    <masterclipid>masterclip-135</masterclipid>
                    <rate>
                      <timebase>24</timebase>
                      <ntsc>FALSE</ntsc>
                    </rate>
                    <alphatype>straight</alphatype>
                    <pixelaspectratio>square</pixelaspectratio>
                    <anamorphic>FALSE</anamorphic>
                    <file id="file-135">
                      <name>Scene - Puppet man_0003.133.png</name>
                      <pathurl>file://localhost/C:/Users/jmrey/OneDrive/Desktop/Programmin Stuff/Projects/conversation-simulator/resources/videos/Scene - Puppet man_0003/Scene - Puppet man_0003.133.png</pathurl>
                      <rate>
                        <timebase>24</timebase>
                        <ntsc>FALSE</ntsc>
                      </rate>
                      <duration>720</duration>
                      <timecode>
                        <rate>
                          <timebase>24</timebase>
                          <ntsc>FALSE</ntsc>
                        </rate>
                      </timecode>
                      <media>
                        <video>
                          <duration>1</duration>
                          <samplecharacteristics>
                            <anamorphic>FALSE</anamorphic>
                            <pixelaspectratio>square</pixelaspectratio>
                            <fielddominance>none</fielddominance>
                            <width>1920</width>
                            <height>1080</height>
                          </samplecharacteristics>
                        </video>
                      </media>
                    </file>
                  </clipitem>
                </track>
              </video>
            </media>
          </clip>
          <clip explodedTracks="true" frameBlend="FALSE" id="masterclip-136">
            <uuid>94cebff0-44ea-4d60-96b6-9a14f850d2bb</uuid>
            <masterclipid>masterclip-136</masterclipid>
            <ismasterclip>TRUE</ismasterclip>
            <duration>720</duration>
            <in>0</in>
            <out>720</out>
            <name>Scene - Puppet man_0003.134.png</name>
            <rate>
              <timebase>24</timebase>
              <ntsc>FALSE</ntsc>
            </rate>
            <media>
              <video>
                <track>
                  <clipitem frameBlend="FALSE" id="clipitem-137">
                    <name>Scene - Puppet man_0003.134.png</name>
                    <masterclipid>masterclip-136</masterclipid>
                    <rate>
                      <timebase>24</timebase>
                      <ntsc>FALSE</ntsc>
                    </rate>
                    <alphatype>straight</alphatype>
                    <pixelaspectratio>square</pixelaspectratio>
                    <anamorphic>FALSE</anamorphic>
                    <file id="file-136">
                      <name>Scene - Puppet man_0003.134.png</name>
                      <pathurl>file://localhost/C:/Users/jmrey/OneDrive/Desktop/Programmin Stuff/Projects/conversation-simulator/resources/videos/Scene - Puppet man_0003/Scene - Puppet man_0003.134.png</pathurl>
                      <rate>
                        <timebase>24</timebase>
                        <ntsc>FALSE</ntsc>
                      </rate>
                      <duration>720</duration>
                      <timecode>
                        <rate>
                          <timebase>24</timebase>
                          <ntsc>FALSE</ntsc>
                        </rate>
                      </timecode>
                      <media>
                        <video>
                          <duration>1</duration>
                          <samplecharacteristics>
                            <anamorphic>FALSE</anamorphic>
                            <pixelaspectratio>square</pixelaspectratio>
                            <fielddominance>none</fielddominance>
                            <width>1920</width>
                            <height>1080</height>
                          </samplecharacteristics>
                        </video>
                      </media>
                    </file>
                  </clipitem>
                </track>
              </video>
            </media>
          </clip>
          <clip explodedTracks="true" frameBlend="FALSE" id="masterclip-137">
            <uuid>84e4a5ed-d113-4a48-94cf-abc67ec5f959</uuid>
            <masterclipid>masterclip-137</masterclipid>
            <ismasterclip>TRUE</ismasterclip>
            <duration>720</duration>
            <in>0</in>
            <out>720</out>
            <name>Scene - Puppet man_0003.135.png</name>
            <rate>
              <timebase>24</timebase>
              <ntsc>FALSE</ntsc>
            </rate>
            <media>
              <video>
                <track>
                  <clipitem frameBlend="FALSE" id="clipitem-138">
                    <name>Scene - Puppet man_0003.135.png</name>
                    <masterclipid>masterclip-137</masterclipid>
                    <rate>
                      <timebase>24</timebase>
                      <ntsc>FALSE</ntsc>
                    </rate>
                    <alphatype>straight</alphatype>
                    <pixelaspectratio>square</pixelaspectratio>
                    <anamorphic>FALSE</anamorphic>
                    <file id="file-137">
                      <name>Scene - Puppet man_0003.135.png</name>
                      <pathurl>file://localhost/C:/Users/jmrey/OneDrive/Desktop/Programmin Stuff/Projects/conversation-simulator/resources/videos/Scene - Puppet man_0003/Scene - Puppet man_0003.135.png</pathurl>
                      <rate>
                        <timebase>24</timebase>
                        <ntsc>FALSE</ntsc>
                      </rate>
                      <duration>720</duration>
                      <timecode>
                        <rate>
                          <timebase>24</timebase>
                          <ntsc>FALSE</ntsc>
                        </rate>
                      </timecode>
                      <media>
                        <video>
                          <duration>1</duration>
                          <samplecharacteristics>
                            <anamorphic>FALSE</anamorphic>
                            <pixelaspectratio>square</pixelaspectratio>
                            <fielddominance>none</fielddominance>
                            <width>1920</width>
                            <height>1080</height>
                          </samplecharacteristics>
                        </video>
                      </media>
                    </file>
                  </clipitem>
                </track>
              </video>
            </media>
          </clip>
          <clip explodedTracks="true" frameBlend="FALSE" id="masterclip-138">
            <uuid>e9b7def2-4509-4147-a871-c78eda05b2b2</uuid>
            <masterclipid>masterclip-138</masterclipid>
            <ismasterclip>TRUE</ismasterclip>
            <duration>720</duration>
            <in>0</in>
            <out>720</out>
            <name>Scene - Puppet man_0003.136.png</name>
            <rate>
              <timebase>24</timebase>
              <ntsc>FALSE</ntsc>
            </rate>
            <media>
              <video>
                <track>
                  <clipitem frameBlend="FALSE" id="clipitem-139">
                    <name>Scene - Puppet man_0003.136.png</name>
                    <masterclipid>masterclip-138</masterclipid>
                    <rate>
                      <timebase>24</timebase>
                      <ntsc>FALSE</ntsc>
                    </rate>
                    <alphatype>straight</alphatype>
                    <pixelaspectratio>square</pixelaspectratio>
                    <anamorphic>FALSE</anamorphic>
                    <file id="file-138">
                      <name>Scene - Puppet man_0003.136.png</name>
                      <pathurl>file://localhost/C:/Users/jmrey/OneDrive/Desktop/Programmin Stuff/Projects/conversation-simulator/resources/videos/Scene - Puppet man_0003/Scene - Puppet man_0003.136.png</pathurl>
                      <rate>
                        <timebase>24</timebase>
                        <ntsc>FALSE</ntsc>
                      </rate>
                      <duration>720</duration>
                      <timecode>
                        <rate>
                          <timebase>24</timebase>
                          <ntsc>FALSE</ntsc>
                        </rate>
                      </timecode>
                      <media>
                        <video>
                          <duration>1</duration>
                          <samplecharacteristics>
                            <anamorphic>FALSE</anamorphic>
                            <pixelaspectratio>square</pixelaspectratio>
                            <fielddominance>none</fielddominance>
                            <width>1920</width>
                            <height>1080</height>
                          </samplecharacteristics>
                        </video>
                      </media>
                    </file>
                  </clipitem>
                </track>
              </video>
            </media>
          </clip>
          <clip explodedTracks="true" frameBlend="FALSE" id="masterclip-139">
            <uuid>2c885a07-fa0d-48c7-976a-6d88df12bb53</uuid>
            <masterclipid>masterclip-139</masterclipid>
            <ismasterclip>TRUE</ismasterclip>
            <duration>720</duration>
            <in>0</in>
            <out>720</out>
            <name>Scene - Puppet man_0003.137.png</name>
            <rate>
              <timebase>24</timebase>
              <ntsc>FALSE</ntsc>
            </rate>
            <media>
              <video>
                <track>
                  <clipitem frameBlend="FALSE" id="clipitem-140">
                    <name>Scene - Puppet man_0003.137.png</name>
                    <masterclipid>masterclip-139</masterclipid>
                    <rate>
                      <timebase>24</timebase>
                      <ntsc>FALSE</ntsc>
                    </rate>
                    <alphatype>straight</alphatype>
                    <pixelaspectratio>square</pixelaspectratio>
                    <anamorphic>FALSE</anamorphic>
                    <file id="file-139">
                      <name>Scene - Puppet man_0003.137.png</name>
                      <pathurl>file://localhost/C:/Users/jmrey/OneDrive/Desktop/Programmin Stuff/Projects/conversation-simulator/resources/videos/Scene - Puppet man_0003/Scene - Puppet man_0003.137.png</pathurl>
                      <rate>
                        <timebase>24</timebase>
                        <ntsc>FALSE</ntsc>
                      </rate>
                      <duration>720</duration>
                      <timecode>
                        <rate>
                          <timebase>24</timebase>
                          <ntsc>FALSE</ntsc>
                        </rate>
                      </timecode>
                      <media>
                        <video>
                          <duration>1</duration>
                          <samplecharacteristics>
                            <anamorphic>FALSE</anamorphic>
                            <pixelaspectratio>square</pixelaspectratio>
                            <fielddominance>none</fielddominance>
                            <width>1920</width>
                            <height>1080</height>
                          </samplecharacteristics>
                        </video>
                      </media>
                    </file>
                  </clipitem>
                </track>
              </video>
            </media>
          </clip>
          <clip explodedTracks="true" frameBlend="FALSE" id="masterclip-140">
            <uuid>f91278df-d022-4e3d-88d9-4c02e0ed14ba</uuid>
            <masterclipid>masterclip-140</masterclipid>
            <ismasterclip>TRUE</ismasterclip>
            <duration>720</duration>
            <in>0</in>
            <out>720</out>
            <name>Scene - Puppet man_0003.138.png</name>
            <rate>
              <timebase>24</timebase>
              <ntsc>FALSE</ntsc>
            </rate>
            <media>
              <video>
                <track>
                  <clipitem frameBlend="FALSE" id="clipitem-141">
                    <name>Scene - Puppet man_0003.138.png</name>
                    <masterclipid>masterclip-140</masterclipid>
                    <rate>
                      <timebase>24</timebase>
                      <ntsc>FALSE</ntsc>
                    </rate>
                    <alphatype>straight</alphatype>
                    <pixelaspectratio>square</pixelaspectratio>
                    <anamorphic>FALSE</anamorphic>
                    <file id="file-140">
                      <name>Scene - Puppet man_0003.138.png</name>
                      <pathurl>file://localhost/C:/Users/jmrey/OneDrive/Desktop/Programmin Stuff/Projects/conversation-simulator/resources/videos/Scene - Puppet man_0003/Scene - Puppet man_0003.138.png</pathurl>
                      <rate>
                        <timebase>24</timebase>
                        <ntsc>FALSE</ntsc>
                      </rate>
                      <duration>720</duration>
                      <timecode>
                        <rate>
                          <timebase>24</timebase>
                          <ntsc>FALSE</ntsc>
                        </rate>
                      </timecode>
                      <media>
                        <video>
                          <duration>1</duration>
                          <samplecharacteristics>
                            <anamorphic>FALSE</anamorphic>
                            <pixelaspectratio>square</pixelaspectratio>
                            <fielddominance>none</fielddominance>
                            <width>1920</width>
                            <height>1080</height>
                          </samplecharacteristics>
                        </video>
                      </media>
                    </file>
                  </clipitem>
                </track>
              </video>
            </media>
          </clip>
          <clip explodedTracks="true" frameBlend="FALSE" id="masterclip-141">
            <uuid>58eca2de-4a0f-4bf4-ab1a-c4237b46025d</uuid>
            <masterclipid>masterclip-141</masterclipid>
            <ismasterclip>TRUE</ismasterclip>
            <duration>720</duration>
            <in>0</in>
            <out>720</out>
            <name>Scene - Puppet man_0003.139.png</name>
            <rate>
              <timebase>24</timebase>
              <ntsc>FALSE</ntsc>
            </rate>
            <media>
              <video>
                <track>
                  <clipitem frameBlend="FALSE" id="clipitem-142">
                    <name>Scene - Puppet man_0003.139.png</name>
                    <masterclipid>masterclip-141</masterclipid>
                    <rate>
                      <timebase>24</timebase>
                      <ntsc>FALSE</ntsc>
                    </rate>
                    <alphatype>straight</alphatype>
                    <pixelaspectratio>square</pixelaspectratio>
                    <anamorphic>FALSE</anamorphic>
                    <file id="file-141">
                      <name>Scene - Puppet man_0003.139.png</name>
                      <pathurl>file://localhost/C:/Users/jmrey/OneDrive/Desktop/Programmin Stuff/Projects/conversation-simulator/resources/videos/Scene - Puppet man_0003/Scene - Puppet man_0003.139.png</pathurl>
                      <rate>
                        <timebase>24</timebase>
                        <ntsc>FALSE</ntsc>
                      </rate>
                      <duration>720</duration>
                      <timecode>
                        <rate>
                          <timebase>24</timebase>
                          <ntsc>FALSE</ntsc>
                        </rate>
                      </timecode>
                      <media>
                        <video>
                          <duration>1</duration>
                          <samplecharacteristics>
                            <anamorphic>FALSE</anamorphic>
                            <pixelaspectratio>square</pixelaspectratio>
                            <fielddominance>none</fielddominance>
                            <width>1920</width>
                            <height>1080</height>
                          </samplecharacteristics>
                        </video>
                      </media>
                    </file>
                  </clipitem>
                </track>
              </video>
            </media>
          </clip>
          <clip explodedTracks="true" frameBlend="FALSE" id="masterclip-142">
            <uuid>af1f147f-fe69-4d50-b284-45bfa8c91510</uuid>
            <masterclipid>masterclip-142</masterclipid>
            <ismasterclip>TRUE</ismasterclip>
            <duration>720</duration>
            <in>0</in>
            <out>720</out>
            <name>Scene - Puppet man_0003.140.png</name>
            <rate>
              <timebase>24</timebase>
              <ntsc>FALSE</ntsc>
            </rate>
            <media>
              <video>
                <track>
                  <clipitem frameBlend="FALSE" id="clipitem-143">
                    <name>Scene - Puppet man_0003.140.png</name>
                    <masterclipid>masterclip-142</masterclipid>
                    <rate>
                      <timebase>24</timebase>
                      <ntsc>FALSE</ntsc>
                    </rate>
                    <alphatype>straight</alphatype>
                    <pixelaspectratio>square</pixelaspectratio>
                    <anamorphic>FALSE</anamorphic>
                    <file id="file-142">
                      <name>Scene - Puppet man_0003.140.png</name>
                      <pathurl>file://localhost/C:/Users/jmrey/OneDrive/Desktop/Programmin Stuff/Projects/conversation-simulator/resources/videos/Scene - Puppet man_0003/Scene - Puppet man_0003.140.png</pathurl>
                      <rate>
                        <timebase>24</timebase>
                        <ntsc>FALSE</ntsc>
                      </rate>
                      <duration>720</duration>
                      <timecode>
                        <rate>
                          <timebase>24</timebase>
                          <ntsc>FALSE</ntsc>
                        </rate>
                      </timecode>
                      <media>
                        <video>
                          <duration>1</duration>
                          <samplecharacteristics>
                            <anamorphic>FALSE</anamorphic>
                            <pixelaspectratio>square</pixelaspectratio>
                            <fielddominance>none</fielddominance>
                            <width>1920</width>
                            <height>1080</height>
                          </samplecharacteristics>
                        </video>
                      </media>
                    </file>
                  </clipitem>
                </track>
              </video>
            </media>
          </clip>
          <clip explodedTracks="true" frameBlend="FALSE" id="masterclip-143">
            <uuid>8e9d3179-60ac-416a-9f89-7e22014678f2</uuid>
            <masterclipid>masterclip-143</masterclipid>
            <ismasterclip>TRUE</ismasterclip>
            <duration>720</duration>
            <in>0</in>
            <out>720</out>
            <name>Scene - Puppet man_0003.141.png</name>
            <rate>
              <timebase>24</timebase>
              <ntsc>FALSE</ntsc>
            </rate>
            <media>
              <video>
                <track>
                  <clipitem frameBlend="FALSE" id="clipitem-144">
                    <name>Scene - Puppet man_0003.141.png</name>
                    <masterclipid>masterclip-143</masterclipid>
                    <rate>
                      <timebase>24</timebase>
                      <ntsc>FALSE</ntsc>
                    </rate>
                    <alphatype>straight</alphatype>
                    <pixelaspectratio>square</pixelaspectratio>
                    <anamorphic>FALSE</anamorphic>
                    <file id="file-143">
                      <name>Scene - Puppet man_0003.141.png</name>
                      <pathurl>file://localhost/C:/Users/jmrey/OneDrive/Desktop/Programmin Stuff/Projects/conversation-simulator/resources/videos/Scene - Puppet man_0003/Scene - Puppet man_0003.141.png</pathurl>
                      <rate>
                        <timebase>24</timebase>
                        <ntsc>FALSE</ntsc>
                      </rate>
                      <duration>720</duration>
                      <timecode>
                        <rate>
                          <timebase>24</timebase>
                          <ntsc>FALSE</ntsc>
                        </rate>
                      </timecode>
                      <media>
                        <video>
                          <duration>1</duration>
                          <samplecharacteristics>
                            <anamorphic>FALSE</anamorphic>
                            <pixelaspectratio>square</pixelaspectratio>
                            <fielddominance>none</fielddominance>
                            <width>1920</width>
                            <height>1080</height>
                          </samplecharacteristics>
                        </video>
                      </media>
                    </file>
                  </clipitem>
                </track>
              </video>
            </media>
          </clip>
          <clip explodedTracks="true" frameBlend="FALSE" id="masterclip-144">
            <uuid>bf7ff3df-6011-4b48-bbb0-dcfcd7a236ef</uuid>
            <masterclipid>masterclip-144</masterclipid>
            <ismasterclip>TRUE</ismasterclip>
            <duration>720</duration>
            <in>0</in>
            <out>720</out>
            <name>Scene - Puppet man_0003.142.png</name>
            <rate>
              <timebase>24</timebase>
              <ntsc>FALSE</ntsc>
            </rate>
            <media>
              <video>
                <track>
                  <clipitem frameBlend="FALSE" id="clipitem-145">
                    <name>Scene - Puppet man_0003.142.png</name>
                    <masterclipid>masterclip-144</masterclipid>
                    <rate>
                      <timebase>24</timebase>
                      <ntsc>FALSE</ntsc>
                    </rate>
                    <alphatype>straight</alphatype>
                    <pixelaspectratio>square</pixelaspectratio>
                    <anamorphic>FALSE</anamorphic>
                    <file id="file-144">
                      <name>Scene - Puppet man_0003.142.png</name>
                      <pathurl>file://localhost/C:/Users/jmrey/OneDrive/Desktop/Programmin Stuff/Projects/conversation-simulator/resources/videos/Scene - Puppet man_0003/Scene - Puppet man_0003.142.png</pathurl>
                      <rate>
                        <timebase>24</timebase>
                        <ntsc>FALSE</ntsc>
                      </rate>
                      <duration>720</duration>
                      <timecode>
                        <rate>
                          <timebase>24</timebase>
                          <ntsc>FALSE</ntsc>
                        </rate>
                      </timecode>
                      <media>
                        <video>
                          <duration>1</duration>
                          <samplecharacteristics>
                            <anamorphic>FALSE</anamorphic>
                            <pixelaspectratio>square</pixelaspectratio>
                            <fielddominance>none</fielddominance>
                            <width>1920</width>
                            <height>1080</height>
                          </samplecharacteristics>
                        </video>
                      </media>
                    </file>
                  </clipitem>
                </track>
              </video>
            </media>
          </clip>
          <clip explodedTracks="true" frameBlend="FALSE" id="masterclip-145">
            <uuid>b0aa6455-b02d-4ea1-a670-4d4c3405f4a4</uuid>
            <masterclipid>masterclip-145</masterclipid>
            <ismasterclip>TRUE</ismasterclip>
            <duration>720</duration>
            <in>0</in>
            <out>720</out>
            <name>Scene - Puppet man_0003.143.png</name>
            <rate>
              <timebase>24</timebase>
              <ntsc>FALSE</ntsc>
            </rate>
            <media>
              <video>
                <track>
                  <clipitem frameBlend="FALSE" id="clipitem-146">
                    <name>Scene - Puppet man_0003.143.png</name>
                    <masterclipid>masterclip-145</masterclipid>
                    <rate>
                      <timebase>24</timebase>
                      <ntsc>FALSE</ntsc>
                    </rate>
                    <alphatype>straight</alphatype>
                    <pixelaspectratio>square</pixelaspectratio>
                    <anamorphic>FALSE</anamorphic>
                    <file id="file-145">
                      <name>Scene - Puppet man_0003.143.png</name>
                      <pathurl>file://localhost/C:/Users/jmrey/OneDrive/Desktop/Programmin Stuff/Projects/conversation-simulator/resources/videos/Scene - Puppet man_0003/Scene - Puppet man_0003.143.png</pathurl>
                      <rate>
                        <timebase>24</timebase>
                        <ntsc>FALSE</ntsc>
                      </rate>
                      <duration>720</duration>
                      <timecode>
                        <rate>
                          <timebase>24</timebase>
                          <ntsc>FALSE</ntsc>
                        </rate>
                      </timecode>
                      <media>
                        <video>
                          <duration>1</duration>
                          <samplecharacteristics>
                            <anamorphic>FALSE</anamorphic>
                            <pixelaspectratio>square</pixelaspectratio>
                            <fielddominance>none</fielddominance>
                            <width>1920</width>
                            <height>1080</height>
                          </samplecharacteristics>
                        </video>
                      </media>
                    </file>
                  </clipitem>
                </track>
              </video>
            </media>
          </clip>
          <clip explodedTracks="true" frameBlend="FALSE" id="masterclip-146">
            <uuid>44b51d29-8faf-470f-a3a4-9d066d418c93</uuid>
            <masterclipid>masterclip-146</masterclipid>
            <ismasterclip>TRUE</ismasterclip>
            <duration>720</duration>
            <in>0</in>
            <out>720</out>
            <name>Scene - Puppet man_0003.144.png</name>
            <rate>
              <timebase>24</timebase>
              <ntsc>FALSE</ntsc>
            </rate>
            <media>
              <video>
                <track>
                  <clipitem frameBlend="FALSE" id="clipitem-147">
                    <name>Scene - Puppet man_0003.144.png</name>
                    <masterclipid>masterclip-146</masterclipid>
                    <rate>
                      <timebase>24</timebase>
                      <ntsc>FALSE</ntsc>
                    </rate>
                    <alphatype>straight</alphatype>
                    <pixelaspectratio>square</pixelaspectratio>
                    <anamorphic>FALSE</anamorphic>
                    <file id="file-146">
                      <name>Scene - Puppet man_0003.144.png</name>
                      <pathurl>file://localhost/C:/Users/jmrey/OneDrive/Desktop/Programmin Stuff/Projects/conversation-simulator/resources/videos/Scene - Puppet man_0003/Scene - Puppet man_0003.144.png</pathurl>
                      <rate>
                        <timebase>24</timebase>
                        <ntsc>FALSE</ntsc>
                      </rate>
                      <duration>720</duration>
                      <timecode>
                        <rate>
                          <timebase>24</timebase>
                          <ntsc>FALSE</ntsc>
                        </rate>
                      </timecode>
                      <media>
                        <video>
                          <duration>1</duration>
                          <samplecharacteristics>
                            <anamorphic>FALSE</anamorphic>
                            <pixelaspectratio>square</pixelaspectratio>
                            <fielddominance>none</fielddominance>
                            <width>1920</width>
                            <height>1080</height>
                          </samplecharacteristics>
                        </video>
                      </media>
                    </file>
                  </clipitem>
                </track>
              </video>
            </media>
          </clip>
          <clip explodedTracks="true" frameBlend="FALSE" id="masterclip-147">
            <uuid>8c38ab97-e41f-4db4-be46-f364f7a5a1f2</uuid>
            <masterclipid>masterclip-147</masterclipid>
            <ismasterclip>TRUE</ismasterclip>
            <duration>720</duration>
            <in>0</in>
            <out>720</out>
            <name>Scene - Puppet man_0003.145.png</name>
            <rate>
              <timebase>24</timebase>
              <ntsc>FALSE</ntsc>
            </rate>
            <media>
              <video>
                <track>
                  <clipitem frameBlend="FALSE" id="clipitem-148">
                    <name>Scene - Puppet man_0003.145.png</name>
                    <masterclipid>masterclip-147</masterclipid>
                    <rate>
                      <timebase>24</timebase>
                      <ntsc>FALSE</ntsc>
                    </rate>
                    <alphatype>straight</alphatype>
                    <pixelaspectratio>square</pixelaspectratio>
                    <anamorphic>FALSE</anamorphic>
                    <file id="file-147">
                      <name>Scene - Puppet man_0003.145.png</name>
                      <pathurl>file://localhost/C:/Users/jmrey/OneDrive/Desktop/Programmin Stuff/Projects/conversation-simulator/resources/videos/Scene - Puppet man_0003/Scene - Puppet man_0003.145.png</pathurl>
                      <rate>
                        <timebase>24</timebase>
                        <ntsc>FALSE</ntsc>
                      </rate>
                      <duration>720</duration>
                      <timecode>
                        <rate>
                          <timebase>24</timebase>
                          <ntsc>FALSE</ntsc>
                        </rate>
                      </timecode>
                      <media>
                        <video>
                          <duration>1</duration>
                          <samplecharacteristics>
                            <anamorphic>FALSE</anamorphic>
                            <pixelaspectratio>square</pixelaspectratio>
                            <fielddominance>none</fielddominance>
                            <width>1920</width>
                            <height>1080</height>
                          </samplecharacteristics>
                        </video>
                      </media>
                    </file>
                  </clipitem>
                </track>
              </video>
            </media>
          </clip>
          <clip explodedTracks="true" frameBlend="FALSE" id="masterclip-148">
            <uuid>e89ae36f-ae54-43e8-90a7-061e4bb2caa2</uuid>
            <masterclipid>masterclip-148</masterclipid>
            <ismasterclip>TRUE</ismasterclip>
            <duration>720</duration>
            <in>0</in>
            <out>720</out>
            <name>Scene - Puppet man_0003.146.png</name>
            <rate>
              <timebase>24</timebase>
              <ntsc>FALSE</ntsc>
            </rate>
            <media>
              <video>
                <track>
                  <clipitem frameBlend="FALSE" id="clipitem-149">
                    <name>Scene - Puppet man_0003.146.png</name>
                    <masterclipid>masterclip-148</masterclipid>
                    <rate>
                      <timebase>24</timebase>
                      <ntsc>FALSE</ntsc>
                    </rate>
                    <alphatype>straight</alphatype>
                    <pixelaspectratio>square</pixelaspectratio>
                    <anamorphic>FALSE</anamorphic>
                    <file id="file-148">
                      <name>Scene - Puppet man_0003.146.png</name>
                      <pathurl>file://localhost/C:/Users/jmrey/OneDrive/Desktop/Programmin Stuff/Projects/conversation-simulator/resources/videos/Scene - Puppet man_0003/Scene - Puppet man_0003.146.png</pathurl>
                      <rate>
                        <timebase>24</timebase>
                        <ntsc>FALSE</ntsc>
                      </rate>
                      <duration>720</duration>
                      <timecode>
                        <rate>
                          <timebase>24</timebase>
                          <ntsc>FALSE</ntsc>
                        </rate>
                      </timecode>
                      <media>
                        <video>
                          <duration>1</duration>
                          <samplecharacteristics>
                            <anamorphic>FALSE</anamorphic>
                            <pixelaspectratio>square</pixelaspectratio>
                            <fielddominance>none</fielddominance>
                            <width>1920</width>
                            <height>1080</height>
                          </samplecharacteristics>
                        </video>
                      </media>
                    </file>
                  </clipitem>
                </track>
              </video>
            </media>
          </clip>
          <clip explodedTracks="true" frameBlend="FALSE" id="masterclip-149">
            <uuid>38b065c9-de5f-4299-bb5a-dbf995b25820</uuid>
            <masterclipid>masterclip-149</masterclipid>
            <ismasterclip>TRUE</ismasterclip>
            <duration>720</duration>
            <in>0</in>
            <out>720</out>
            <name>Scene - Puppet man_0003.147.png</name>
            <rate>
              <timebase>24</timebase>
              <ntsc>FALSE</ntsc>
            </rate>
            <media>
              <video>
                <track>
                  <clipitem frameBlend="FALSE" id="clipitem-150">
                    <name>Scene - Puppet man_0003.147.png</name>
                    <masterclipid>masterclip-149</masterclipid>
                    <rate>
                      <timebase>24</timebase>
                      <ntsc>FALSE</ntsc>
                    </rate>
                    <alphatype>straight</alphatype>
                    <pixelaspectratio>square</pixelaspectratio>
                    <anamorphic>FALSE</anamorphic>
                    <file id="file-149">
                      <name>Scene - Puppet man_0003.147.png</name>
                      <pathurl>file://localhost/C:/Users/jmrey/OneDrive/Desktop/Programmin Stuff/Projects/conversation-simulator/resources/videos/Scene - Puppet man_0003/Scene - Puppet man_0003.147.png</pathurl>
                      <rate>
                        <timebase>24</timebase>
                        <ntsc>FALSE</ntsc>
                      </rate>
                      <duration>720</duration>
                      <timecode>
                        <rate>
                          <timebase>24</timebase>
                          <ntsc>FALSE</ntsc>
                        </rate>
                      </timecode>
                      <media>
                        <video>
                          <duration>1</duration>
                          <samplecharacteristics>
                            <anamorphic>FALSE</anamorphic>
                            <pixelaspectratio>square</pixelaspectratio>
                            <fielddominance>none</fielddominance>
                            <width>1920</width>
                            <height>1080</height>
                          </samplecharacteristics>
                        </video>
                      </media>
                    </file>
                  </clipitem>
                </track>
              </video>
            </media>
          </clip>
          <clip explodedTracks="true" frameBlend="FALSE" id="masterclip-150">
            <uuid>0052698f-841f-467c-92fe-3d6c10a1a68c</uuid>
            <masterclipid>masterclip-150</masterclipid>
            <ismasterclip>TRUE</ismasterclip>
            <duration>720</duration>
            <in>0</in>
            <out>720</out>
            <name>Scene - Puppet man_0003.148.png</name>
            <rate>
              <timebase>24</timebase>
              <ntsc>FALSE</ntsc>
            </rate>
            <media>
              <video>
                <track>
                  <clipitem frameBlend="FALSE" id="clipitem-151">
                    <name>Scene - Puppet man_0003.148.png</name>
                    <masterclipid>masterclip-150</masterclipid>
                    <rate>
                      <timebase>24</timebase>
                      <ntsc>FALSE</ntsc>
                    </rate>
                    <alphatype>straight</alphatype>
                    <pixelaspectratio>square</pixelaspectratio>
                    <anamorphic>FALSE</anamorphic>
                    <file id="file-150">
                      <name>Scene - Puppet man_0003.148.png</name>
                      <pathurl>file://localhost/C:/Users/jmrey/OneDrive/Desktop/Programmin Stuff/Projects/conversation-simulator/resources/videos/Scene - Puppet man_0003/Scene - Puppet man_0003.148.png</pathurl>
                      <rate>
                        <timebase>24</timebase>
                        <ntsc>FALSE</ntsc>
                      </rate>
                      <duration>720</duration>
                      <timecode>
                        <rate>
                          <timebase>24</timebase>
                          <ntsc>FALSE</ntsc>
                        </rate>
                      </timecode>
                      <media>
                        <video>
                          <duration>1</duration>
                          <samplecharacteristics>
                            <anamorphic>FALSE</anamorphic>
                            <pixelaspectratio>square</pixelaspectratio>
                            <fielddominance>none</fielddominance>
                            <width>1920</width>
                            <height>1080</height>
                          </samplecharacteristics>
                        </video>
                      </media>
                    </file>
                  </clipitem>
                </track>
              </video>
            </media>
          </clip>
          <clip explodedTracks="true" frameBlend="FALSE" id="masterclip-151">
            <uuid>238bc8c4-058f-45a9-bebc-f2df0abfa9c2</uuid>
            <masterclipid>masterclip-151</masterclipid>
            <ismasterclip>TRUE</ismasterclip>
            <duration>720</duration>
            <in>0</in>
            <out>720</out>
            <name>Scene - Puppet man_0003.149.png</name>
            <rate>
              <timebase>24</timebase>
              <ntsc>FALSE</ntsc>
            </rate>
            <media>
              <video>
                <track>
                  <clipitem frameBlend="FALSE" id="clipitem-152">
                    <name>Scene - Puppet man_0003.149.png</name>
                    <masterclipid>masterclip-151</masterclipid>
                    <rate>
                      <timebase>24</timebase>
                      <ntsc>FALSE</ntsc>
                    </rate>
                    <alphatype>straight</alphatype>
                    <pixelaspectratio>square</pixelaspectratio>
                    <anamorphic>FALSE</anamorphic>
                    <file id="file-151">
                      <name>Scene - Puppet man_0003.149.png</name>
                      <pathurl>file://localhost/C:/Users/jmrey/OneDrive/Desktop/Programmin Stuff/Projects/conversation-simulator/resources/videos/Scene - Puppet man_0003/Scene - Puppet man_0003.149.png</pathurl>
                      <rate>
                        <timebase>24</timebase>
                        <ntsc>FALSE</ntsc>
                      </rate>
                      <duration>720</duration>
                      <timecode>
                        <rate>
                          <timebase>24</timebase>
                          <ntsc>FALSE</ntsc>
                        </rate>
                      </timecode>
                      <media>
                        <video>
                          <duration>1</duration>
                          <samplecharacteristics>
                            <anamorphic>FALSE</anamorphic>
                            <pixelaspectratio>square</pixelaspectratio>
                            <fielddominance>none</fielddominance>
                            <width>1920</width>
                            <height>1080</height>
                          </samplecharacteristics>
                        </video>
                      </media>
                    </file>
                  </clipitem>
                </track>
              </video>
            </media>
          </clip>
          <clip explodedTracks="true" frameBlend="FALSE" id="masterclip-152">
            <uuid>f0627687-f6ab-4884-8c80-6a87f70de555</uuid>
            <masterclipid>masterclip-152</masterclipid>
            <ismasterclip>TRUE</ismasterclip>
            <duration>720</duration>
            <in>0</in>
            <out>720</out>
            <name>Scene - Puppet man_0003.150.png</name>
            <rate>
              <timebase>24</timebase>
              <ntsc>FALSE</ntsc>
            </rate>
            <media>
              <video>
                <track>
                  <clipitem frameBlend="FALSE" id="clipitem-153">
                    <name>Scene - Puppet man_0003.150.png</name>
                    <masterclipid>masterclip-152</masterclipid>
                    <rate>
                      <timebase>24</timebase>
                      <ntsc>FALSE</ntsc>
                    </rate>
                    <alphatype>straight</alphatype>
                    <pixelaspectratio>square</pixelaspectratio>
                    <anamorphic>FALSE</anamorphic>
                    <file id="file-152">
                      <name>Scene - Puppet man_0003.150.png</name>
                      <pathurl>file://localhost/C:/Users/jmrey/OneDrive/Desktop/Programmin Stuff/Projects/conversation-simulator/resources/videos/Scene - Puppet man_0003/Scene - Puppet man_0003.150.png</pathurl>
                      <rate>
                        <timebase>24</timebase>
                        <ntsc>FALSE</ntsc>
                      </rate>
                      <duration>720</duration>
                      <timecode>
                        <rate>
                          <timebase>24</timebase>
                          <ntsc>FALSE</ntsc>
                        </rate>
                      </timecode>
                      <media>
                        <video>
                          <duration>1</duration>
                          <samplecharacteristics>
                            <anamorphic>FALSE</anamorphic>
                            <pixelaspectratio>square</pixelaspectratio>
                            <fielddominance>none</fielddominance>
                            <width>1920</width>
                            <height>1080</height>
                          </samplecharacteristics>
                        </video>
                      </media>
                    </file>
                  </clipitem>
                </track>
              </video>
            </media>
          </clip>
          <clip explodedTracks="true" frameBlend="FALSE" id="masterclip-153">
            <uuid>37ab95a9-9952-41cb-b505-e156c1d76acf</uuid>
            <masterclipid>masterclip-153</masterclipid>
            <ismasterclip>TRUE</ismasterclip>
            <duration>720</duration>
            <in>0</in>
            <out>720</out>
            <name>Scene - Puppet man_0003.151.png</name>
            <rate>
              <timebase>24</timebase>
              <ntsc>FALSE</ntsc>
            </rate>
            <media>
              <video>
                <track>
                  <clipitem frameBlend="FALSE" id="clipitem-154">
                    <name>Scene - Puppet man_0003.151.png</name>
                    <masterclipid>masterclip-153</masterclipid>
                    <rate>
                      <timebase>24</timebase>
                      <ntsc>FALSE</ntsc>
                    </rate>
                    <alphatype>straight</alphatype>
                    <pixelaspectratio>square</pixelaspectratio>
                    <anamorphic>FALSE</anamorphic>
                    <file id="file-153">
                      <name>Scene - Puppet man_0003.151.png</name>
                      <pathurl>file://localhost/C:/Users/jmrey/OneDrive/Desktop/Programmin Stuff/Projects/conversation-simulator/resources/videos/Scene - Puppet man_0003/Scene - Puppet man_0003.151.png</pathurl>
                      <rate>
                        <timebase>24</timebase>
                        <ntsc>FALSE</ntsc>
                      </rate>
                      <duration>720</duration>
                      <timecode>
                        <rate>
                          <timebase>24</timebase>
                          <ntsc>FALSE</ntsc>
                        </rate>
                      </timecode>
                      <media>
                        <video>
                          <duration>1</duration>
                          <samplecharacteristics>
                            <anamorphic>FALSE</anamorphic>
                            <pixelaspectratio>square</pixelaspectratio>
                            <fielddominance>none</fielddominance>
                            <width>1920</width>
                            <height>1080</height>
                          </samplecharacteristics>
                        </video>
                      </media>
                    </file>
                  </clipitem>
                </track>
              </video>
            </media>
          </clip>
          <clip explodedTracks="true" frameBlend="FALSE" id="masterclip-154">
            <uuid>701f2d1e-3458-4765-976c-7fde0d95234b</uuid>
            <masterclipid>masterclip-154</masterclipid>
            <ismasterclip>TRUE</ismasterclip>
            <duration>720</duration>
            <in>0</in>
            <out>720</out>
            <name>Scene - Puppet man_0003.152.png</name>
            <rate>
              <timebase>24</timebase>
              <ntsc>FALSE</ntsc>
            </rate>
            <media>
              <video>
                <track>
                  <clipitem frameBlend="FALSE" id="clipitem-155">
                    <name>Scene - Puppet man_0003.152.png</name>
                    <masterclipid>masterclip-154</masterclipid>
                    <rate>
                      <timebase>24</timebase>
                      <ntsc>FALSE</ntsc>
                    </rate>
                    <alphatype>straight</alphatype>
                    <pixelaspectratio>square</pixelaspectratio>
                    <anamorphic>FALSE</anamorphic>
                    <file id="file-154">
                      <name>Scene - Puppet man_0003.152.png</name>
                      <pathurl>file://localhost/C:/Users/jmrey/OneDrive/Desktop/Programmin Stuff/Projects/conversation-simulator/resources/videos/Scene - Puppet man_0003/Scene - Puppet man_0003.152.png</pathurl>
                      <rate>
                        <timebase>24</timebase>
                        <ntsc>FALSE</ntsc>
                      </rate>
                      <duration>720</duration>
                      <timecode>
                        <rate>
                          <timebase>24</timebase>
                          <ntsc>FALSE</ntsc>
                        </rate>
                      </timecode>
                      <media>
                        <video>
                          <duration>1</duration>
                          <samplecharacteristics>
                            <anamorphic>FALSE</anamorphic>
                            <pixelaspectratio>square</pixelaspectratio>
                            <fielddominance>none</fielddominance>
                            <width>1920</width>
                            <height>1080</height>
                          </samplecharacteristics>
                        </video>
                      </media>
                    </file>
                  </clipitem>
                </track>
              </video>
            </media>
          </clip>
          <clip explodedTracks="true" frameBlend="FALSE" id="masterclip-155">
            <uuid>143f4c11-e15d-4e0a-980e-c0bd626b5355</uuid>
            <masterclipid>masterclip-155</masterclipid>
            <ismasterclip>TRUE</ismasterclip>
            <duration>720</duration>
            <in>0</in>
            <out>720</out>
            <name>Scene - Puppet man_0003.153.png</name>
            <rate>
              <timebase>24</timebase>
              <ntsc>FALSE</ntsc>
            </rate>
            <media>
              <video>
                <track>
                  <clipitem frameBlend="FALSE" id="clipitem-156">
                    <name>Scene - Puppet man_0003.153.png</name>
                    <masterclipid>masterclip-155</masterclipid>
                    <rate>
                      <timebase>24</timebase>
                      <ntsc>FALSE</ntsc>
                    </rate>
                    <alphatype>straight</alphatype>
                    <pixelaspectratio>square</pixelaspectratio>
                    <anamorphic>FALSE</anamorphic>
                    <file id="file-155">
                      <name>Scene - Puppet man_0003.153.png</name>
                      <pathurl>file://localhost/C:/Users/jmrey/OneDrive/Desktop/Programmin Stuff/Projects/conversation-simulator/resources/videos/Scene - Puppet man_0003/Scene - Puppet man_0003.153.png</pathurl>
                      <rate>
                        <timebase>24</timebase>
                        <ntsc>FALSE</ntsc>
                      </rate>
                      <duration>720</duration>
                      <timecode>
                        <rate>
                          <timebase>24</timebase>
                          <ntsc>FALSE</ntsc>
                        </rate>
                      </timecode>
                      <media>
                        <video>
                          <duration>1</duration>
                          <samplecharacteristics>
                            <anamorphic>FALSE</anamorphic>
                            <pixelaspectratio>square</pixelaspectratio>
                            <fielddominance>none</fielddominance>
                            <width>1920</width>
                            <height>1080</height>
                          </samplecharacteristics>
                        </video>
                      </media>
                    </file>
                  </clipitem>
                </track>
              </video>
            </media>
          </clip>
          <clip explodedTracks="true" frameBlend="FALSE" id="masterclip-156">
            <uuid>f7d92aaa-0102-416c-98de-53bf83a9b053</uuid>
            <masterclipid>masterclip-156</masterclipid>
            <ismasterclip>TRUE</ismasterclip>
            <duration>720</duration>
            <in>0</in>
            <out>720</out>
            <name>Scene - Puppet man_0003.154.png</name>
            <rate>
              <timebase>24</timebase>
              <ntsc>FALSE</ntsc>
            </rate>
            <media>
              <video>
                <track>
                  <clipitem frameBlend="FALSE" id="clipitem-157">
                    <name>Scene - Puppet man_0003.154.png</name>
                    <masterclipid>masterclip-156</masterclipid>
                    <rate>
                      <timebase>24</timebase>
                      <ntsc>FALSE</ntsc>
                    </rate>
                    <alphatype>straight</alphatype>
                    <pixelaspectratio>square</pixelaspectratio>
                    <anamorphic>FALSE</anamorphic>
                    <file id="file-156">
                      <name>Scene - Puppet man_0003.154.png</name>
                      <pathurl>file://localhost/C:/Users/jmrey/OneDrive/Desktop/Programmin Stuff/Projects/conversation-simulator/resources/videos/Scene - Puppet man_0003/Scene - Puppet man_0003.154.png</pathurl>
                      <rate>
                        <timebase>24</timebase>
                        <ntsc>FALSE</ntsc>
                      </rate>
                      <duration>720</duration>
                      <timecode>
                        <rate>
                          <timebase>24</timebase>
                          <ntsc>FALSE</ntsc>
                        </rate>
                      </timecode>
                      <media>
                        <video>
                          <duration>1</duration>
                          <samplecharacteristics>
                            <anamorphic>FALSE</anamorphic>
                            <pixelaspectratio>square</pixelaspectratio>
                            <fielddominance>none</fielddominance>
                            <width>1920</width>
                            <height>1080</height>
                          </samplecharacteristics>
                        </video>
                      </media>
                    </file>
                  </clipitem>
                </track>
              </video>
            </media>
          </clip>
          <clip explodedTracks="true" frameBlend="FALSE" id="masterclip-157">
            <uuid>e1d42b93-1be5-4eeb-b380-6e13b13d4307</uuid>
            <masterclipid>masterclip-157</masterclipid>
            <ismasterclip>TRUE</ismasterclip>
            <duration>720</duration>
            <in>0</in>
            <out>720</out>
            <name>Scene - Puppet man_0003.155.png</name>
            <rate>
              <timebase>24</timebase>
              <ntsc>FALSE</ntsc>
            </rate>
            <media>
              <video>
                <track>
                  <clipitem frameBlend="FALSE" id="clipitem-158">
                    <name>Scene - Puppet man_0003.155.png</name>
                    <masterclipid>masterclip-157</masterclipid>
                    <rate>
                      <timebase>24</timebase>
                      <ntsc>FALSE</ntsc>
                    </rate>
                    <alphatype>straight</alphatype>
                    <pixelaspectratio>square</pixelaspectratio>
                    <anamorphic>FALSE</anamorphic>
                    <file id="file-157">
                      <name>Scene - Puppet man_0003.155.png</name>
                      <pathurl>file://localhost/C:/Users/jmrey/OneDrive/Desktop/Programmin Stuff/Projects/conversation-simulator/resources/videos/Scene - Puppet man_0003/Scene - Puppet man_0003.155.png</pathurl>
                      <rate>
                        <timebase>24</timebase>
                        <ntsc>FALSE</ntsc>
                      </rate>
                      <duration>720</duration>
                      <timecode>
                        <rate>
                          <timebase>24</timebase>
                          <ntsc>FALSE</ntsc>
                        </rate>
                      </timecode>
                      <media>
                        <video>
                          <duration>1</duration>
                          <samplecharacteristics>
                            <anamorphic>FALSE</anamorphic>
                            <pixelaspectratio>square</pixelaspectratio>
                            <fielddominance>none</fielddominance>
                            <width>1920</width>
                            <height>1080</height>
                          </samplecharacteristics>
                        </video>
                      </media>
                    </file>
                  </clipitem>
                </track>
              </video>
            </media>
          </clip>
          <clip explodedTracks="true" frameBlend="FALSE" id="masterclip-158">
            <uuid>b71b73d9-5e37-4cec-8aa3-11ee9e06dfa6</uuid>
            <masterclipid>masterclip-158</masterclipid>
            <ismasterclip>TRUE</ismasterclip>
            <duration>720</duration>
            <in>0</in>
            <out>720</out>
            <name>Scene - Puppet man_0003.156.png</name>
            <rate>
              <timebase>24</timebase>
              <ntsc>FALSE</ntsc>
            </rate>
            <media>
              <video>
                <track>
                  <clipitem frameBlend="FALSE" id="clipitem-159">
                    <name>Scene - Puppet man_0003.156.png</name>
                    <masterclipid>masterclip-158</masterclipid>
                    <rate>
                      <timebase>24</timebase>
                      <ntsc>FALSE</ntsc>
                    </rate>
                    <alphatype>straight</alphatype>
                    <pixelaspectratio>square</pixelaspectratio>
                    <anamorphic>FALSE</anamorphic>
                    <file id="file-158">
                      <name>Scene - Puppet man_0003.156.png</name>
                      <pathurl>file://localhost/C:/Users/jmrey/OneDrive/Desktop/Programmin Stuff/Projects/conversation-simulator/resources/videos/Scene - Puppet man_0003/Scene - Puppet man_0003.156.png</pathurl>
                      <rate>
                        <timebase>24</timebase>
                        <ntsc>FALSE</ntsc>
                      </rate>
                      <duration>720</duration>
                      <timecode>
                        <rate>
                          <timebase>24</timebase>
                          <ntsc>FALSE</ntsc>
                        </rate>
                      </timecode>
                      <media>
                        <video>
                          <duration>1</duration>
                          <samplecharacteristics>
                            <anamorphic>FALSE</anamorphic>
                            <pixelaspectratio>square</pixelaspectratio>
                            <fielddominance>none</fielddominance>
                            <width>1920</width>
                            <height>1080</height>
                          </samplecharacteristics>
                        </video>
                      </media>
                    </file>
                  </clipitem>
                </track>
              </video>
            </media>
          </clip>
          <clip explodedTracks="true" frameBlend="FALSE" id="masterclip-159">
            <uuid>084df45b-c6f1-4f44-ac29-6781ed75df96</uuid>
            <masterclipid>masterclip-159</masterclipid>
            <ismasterclip>TRUE</ismasterclip>
            <duration>720</duration>
            <in>0</in>
            <out>720</out>
            <name>Scene - Puppet man_0003.157.png</name>
            <rate>
              <timebase>24</timebase>
              <ntsc>FALSE</ntsc>
            </rate>
            <media>
              <video>
                <track>
                  <clipitem frameBlend="FALSE" id="clipitem-160">
                    <name>Scene - Puppet man_0003.157.png</name>
                    <masterclipid>masterclip-159</masterclipid>
                    <rate>
                      <timebase>24</timebase>
                      <ntsc>FALSE</ntsc>
                    </rate>
                    <alphatype>straight</alphatype>
                    <pixelaspectratio>square</pixelaspectratio>
                    <anamorphic>FALSE</anamorphic>
                    <file id="file-159">
                      <name>Scene - Puppet man_0003.157.png</name>
                      <pathurl>file://localhost/C:/Users/jmrey/OneDrive/Desktop/Programmin Stuff/Projects/conversation-simulator/resources/videos/Scene - Puppet man_0003/Scene - Puppet man_0003.157.png</pathurl>
                      <rate>
                        <timebase>24</timebase>
                        <ntsc>FALSE</ntsc>
                      </rate>
                      <duration>720</duration>
                      <timecode>
                        <rate>
                          <timebase>24</timebase>
                          <ntsc>FALSE</ntsc>
                        </rate>
                      </timecode>
                      <media>
                        <video>
                          <duration>1</duration>
                          <samplecharacteristics>
                            <anamorphic>FALSE</anamorphic>
                            <pixelaspectratio>square</pixelaspectratio>
                            <fielddominance>none</fielddominance>
                            <width>1920</width>
                            <height>1080</height>
                          </samplecharacteristics>
                        </video>
                      </media>
                    </file>
                  </clipitem>
                </track>
              </video>
            </media>
          </clip>
          <clip explodedTracks="true" frameBlend="FALSE" id="masterclip-160">
            <uuid>95c19e44-c2eb-4507-a0b5-77bde65cc588</uuid>
            <masterclipid>masterclip-160</masterclipid>
            <ismasterclip>TRUE</ismasterclip>
            <duration>720</duration>
            <in>0</in>
            <out>720</out>
            <name>Scene - Puppet man_0003.158.png</name>
            <rate>
              <timebase>24</timebase>
              <ntsc>FALSE</ntsc>
            </rate>
            <media>
              <video>
                <track>
                  <clipitem frameBlend="FALSE" id="clipitem-161">
                    <name>Scene - Puppet man_0003.158.png</name>
                    <masterclipid>masterclip-160</masterclipid>
                    <rate>
                      <timebase>24</timebase>
                      <ntsc>FALSE</ntsc>
                    </rate>
                    <alphatype>straight</alphatype>
                    <pixelaspectratio>square</pixelaspectratio>
                    <anamorphic>FALSE</anamorphic>
                    <file id="file-160">
                      <name>Scene - Puppet man_0003.158.png</name>
                      <pathurl>file://localhost/C:/Users/jmrey/OneDrive/Desktop/Programmin Stuff/Projects/conversation-simulator/resources/videos/Scene - Puppet man_0003/Scene - Puppet man_0003.158.png</pathurl>
                      <rate>
                        <timebase>24</timebase>
                        <ntsc>FALSE</ntsc>
                      </rate>
                      <duration>720</duration>
                      <timecode>
                        <rate>
                          <timebase>24</timebase>
                          <ntsc>FALSE</ntsc>
                        </rate>
                      </timecode>
                      <media>
                        <video>
                          <duration>1</duration>
                          <samplecharacteristics>
                            <anamorphic>FALSE</anamorphic>
                            <pixelaspectratio>square</pixelaspectratio>
                            <fielddominance>none</fielddominance>
                            <width>1920</width>
                            <height>1080</height>
                          </samplecharacteristics>
                        </video>
                      </media>
                    </file>
                  </clipitem>
                </track>
              </video>
            </media>
          </clip>
          <clip explodedTracks="true" frameBlend="FALSE" id="masterclip-161">
            <uuid>6e8df86b-6ed8-47e5-940c-9c9454f07ee1</uuid>
            <masterclipid>masterclip-161</masterclipid>
            <ismasterclip>TRUE</ismasterclip>
            <duration>720</duration>
            <in>0</in>
            <out>720</out>
            <name>Scene - Puppet man_0003.159.png</name>
            <rate>
              <timebase>24</timebase>
              <ntsc>FALSE</ntsc>
            </rate>
            <media>
              <video>
                <track>
                  <clipitem frameBlend="FALSE" id="clipitem-162">
                    <name>Scene - Puppet man_0003.159.png</name>
                    <masterclipid>masterclip-161</masterclipid>
                    <rate>
                      <timebase>24</timebase>
                      <ntsc>FALSE</ntsc>
                    </rate>
                    <alphatype>straight</alphatype>
                    <pixelaspectratio>square</pixelaspectratio>
                    <anamorphic>FALSE</anamorphic>
                    <file id="file-161">
                      <name>Scene - Puppet man_0003.159.png</name>
                      <pathurl>file://localhost/C:/Users/jmrey/OneDrive/Desktop/Programmin Stuff/Projects/conversation-simulator/resources/videos/Scene - Puppet man_0003/Scene - Puppet man_0003.159.png</pathurl>
                      <rate>
                        <timebase>24</timebase>
                        <ntsc>FALSE</ntsc>
                      </rate>
                      <duration>720</duration>
                      <timecode>
                        <rate>
                          <timebase>24</timebase>
                          <ntsc>FALSE</ntsc>
                        </rate>
                      </timecode>
                      <media>
                        <video>
                          <duration>1</duration>
                          <samplecharacteristics>
                            <anamorphic>FALSE</anamorphic>
                            <pixelaspectratio>square</pixelaspectratio>
                            <fielddominance>none</fielddominance>
                            <width>1920</width>
                            <height>1080</height>
                          </samplecharacteristics>
                        </video>
                      </media>
                    </file>
                  </clipitem>
                </track>
              </video>
            </media>
          </clip>
          <clip explodedTracks="true" frameBlend="FALSE" id="masterclip-162">
            <uuid>c94dddf8-bb29-4a9f-821b-7a5ce2bd74ac</uuid>
            <masterclipid>masterclip-162</masterclipid>
            <ismasterclip>TRUE</ismasterclip>
            <duration>720</duration>
            <in>0</in>
            <out>720</out>
            <name>Scene - Puppet man_0003.160.png</name>
            <rate>
              <timebase>24</timebase>
              <ntsc>FALSE</ntsc>
            </rate>
            <media>
              <video>
                <track>
                  <clipitem frameBlend="FALSE" id="clipitem-163">
                    <name>Scene - Puppet man_0003.160.png</name>
                    <masterclipid>masterclip-162</masterclipid>
                    <rate>
                      <timebase>24</timebase>
                      <ntsc>FALSE</ntsc>
                    </rate>
                    <alphatype>straight</alphatype>
                    <pixelaspectratio>square</pixelaspectratio>
                    <anamorphic>FALSE</anamorphic>
                    <file id="file-162">
                      <name>Scene - Puppet man_0003.160.png</name>
                      <pathurl>file://localhost/C:/Users/jmrey/OneDrive/Desktop/Programmin Stuff/Projects/conversation-simulator/resources/videos/Scene - Puppet man_0003/Scene - Puppet man_0003.160.png</pathurl>
                      <rate>
                        <timebase>24</timebase>
                        <ntsc>FALSE</ntsc>
                      </rate>
                      <duration>720</duration>
                      <timecode>
                        <rate>
                          <timebase>24</timebase>
                          <ntsc>FALSE</ntsc>
                        </rate>
                      </timecode>
                      <media>
                        <video>
                          <duration>1</duration>
                          <samplecharacteristics>
                            <anamorphic>FALSE</anamorphic>
                            <pixelaspectratio>square</pixelaspectratio>
                            <fielddominance>none</fielddominance>
                            <width>1920</width>
                            <height>1080</height>
                          </samplecharacteristics>
                        </video>
                      </media>
                    </file>
                  </clipitem>
                </track>
              </video>
            </media>
          </clip>
          <clip explodedTracks="true" frameBlend="FALSE" id="masterclip-163">
            <uuid>5fb883e7-24ec-4ffb-afc5-355b28e68f2d</uuid>
            <masterclipid>masterclip-163</masterclipid>
            <ismasterclip>TRUE</ismasterclip>
            <duration>720</duration>
            <in>0</in>
            <out>720</out>
            <name>Scene - Puppet man_0003.161.png</name>
            <rate>
              <timebase>24</timebase>
              <ntsc>FALSE</ntsc>
            </rate>
            <media>
              <video>
                <track>
                  <clipitem frameBlend="FALSE" id="clipitem-164">
                    <name>Scene - Puppet man_0003.161.png</name>
                    <masterclipid>masterclip-163</masterclipid>
                    <rate>
                      <timebase>24</timebase>
                      <ntsc>FALSE</ntsc>
                    </rate>
                    <alphatype>straight</alphatype>
                    <pixelaspectratio>square</pixelaspectratio>
                    <anamorphic>FALSE</anamorphic>
                    <file id="file-163">
                      <name>Scene - Puppet man_0003.161.png</name>
                      <pathurl>file://localhost/C:/Users/jmrey/OneDrive/Desktop/Programmin Stuff/Projects/conversation-simulator/resources/videos/Scene - Puppet man_0003/Scene - Puppet man_0003.161.png</pathurl>
                      <rate>
                        <timebase>24</timebase>
                        <ntsc>FALSE</ntsc>
                      </rate>
                      <duration>720</duration>
                      <timecode>
                        <rate>
                          <timebase>24</timebase>
                          <ntsc>FALSE</ntsc>
                        </rate>
                      </timecode>
                      <media>
                        <video>
                          <duration>1</duration>
                          <samplecharacteristics>
                            <anamorphic>FALSE</anamorphic>
                            <pixelaspectratio>square</pixelaspectratio>
                            <fielddominance>none</fielddominance>
                            <width>1920</width>
                            <height>1080</height>
                          </samplecharacteristics>
                        </video>
                      </media>
                    </file>
                  </clipitem>
                </track>
              </video>
            </media>
          </clip>
          <clip explodedTracks="true" frameBlend="FALSE" id="masterclip-164">
            <uuid>5788f893-b38c-4297-9de6-db682604d22b</uuid>
            <masterclipid>masterclip-164</masterclipid>
            <ismasterclip>TRUE</ismasterclip>
            <duration>720</duration>
            <in>0</in>
            <out>720</out>
            <name>Scene - Puppet man_0003.162.png</name>
            <rate>
              <timebase>24</timebase>
              <ntsc>FALSE</ntsc>
            </rate>
            <media>
              <video>
                <track>
                  <clipitem frameBlend="FALSE" id="clipitem-165">
                    <name>Scene - Puppet man_0003.162.png</name>
                    <masterclipid>masterclip-164</masterclipid>
                    <rate>
                      <timebase>24</timebase>
                      <ntsc>FALSE</ntsc>
                    </rate>
                    <alphatype>straight</alphatype>
                    <pixelaspectratio>square</pixelaspectratio>
                    <anamorphic>FALSE</anamorphic>
                    <file id="file-164">
                      <name>Scene - Puppet man_0003.162.png</name>
                      <pathurl>file://localhost/C:/Users/jmrey/OneDrive/Desktop/Programmin Stuff/Projects/conversation-simulator/resources/videos/Scene - Puppet man_0003/Scene - Puppet man_0003.162.png</pathurl>
                      <rate>
                        <timebase>24</timebase>
                        <ntsc>FALSE</ntsc>
                      </rate>
                      <duration>720</duration>
                      <timecode>
                        <rate>
                          <timebase>24</timebase>
                          <ntsc>FALSE</ntsc>
                        </rate>
                      </timecode>
                      <media>
                        <video>
                          <duration>1</duration>
                          <samplecharacteristics>
                            <anamorphic>FALSE</anamorphic>
                            <pixelaspectratio>square</pixelaspectratio>
                            <fielddominance>none</fielddominance>
                            <width>1920</width>
                            <height>1080</height>
                          </samplecharacteristics>
                        </video>
                      </media>
                    </file>
                  </clipitem>
                </track>
              </video>
            </media>
          </clip>
          <clip explodedTracks="true" frameBlend="FALSE" id="masterclip-165">
            <uuid>9538f806-4526-41e0-a22f-54920f2f0b4a</uuid>
            <masterclipid>masterclip-165</masterclipid>
            <ismasterclip>TRUE</ismasterclip>
            <duration>720</duration>
            <in>0</in>
            <out>720</out>
            <name>Scene - Puppet man_0003.163.png</name>
            <rate>
              <timebase>24</timebase>
              <ntsc>FALSE</ntsc>
            </rate>
            <media>
              <video>
                <track>
                  <clipitem frameBlend="FALSE" id="clipitem-166">
                    <name>Scene - Puppet man_0003.163.png</name>
                    <masterclipid>masterclip-165</masterclipid>
                    <rate>
                      <timebase>24</timebase>
                      <ntsc>FALSE</ntsc>
                    </rate>
                    <alphatype>straight</alphatype>
                    <pixelaspectratio>square</pixelaspectratio>
                    <anamorphic>FALSE</anamorphic>
                    <file id="file-165">
                      <name>Scene - Puppet man_0003.163.png</name>
                      <pathurl>file://localhost/C:/Users/jmrey/OneDrive/Desktop/Programmin Stuff/Projects/conversation-simulator/resources/videos/Scene - Puppet man_0003/Scene - Puppet man_0003.163.png</pathurl>
                      <rate>
                        <timebase>24</timebase>
                        <ntsc>FALSE</ntsc>
                      </rate>
                      <duration>720</duration>
                      <timecode>
                        <rate>
                          <timebase>24</timebase>
                          <ntsc>FALSE</ntsc>
                        </rate>
                      </timecode>
                      <media>
                        <video>
                          <duration>1</duration>
                          <samplecharacteristics>
                            <anamorphic>FALSE</anamorphic>
                            <pixelaspectratio>square</pixelaspectratio>
                            <fielddominance>none</fielddominance>
                            <width>1920</width>
                            <height>1080</height>
                          </samplecharacteristics>
                        </video>
                      </media>
                    </file>
                  </clipitem>
                </track>
              </video>
            </media>
          </clip>
          <clip explodedTracks="true" frameBlend="FALSE" id="masterclip-166">
            <uuid>72813437-2b0c-4033-b6df-d73842885954</uuid>
            <masterclipid>masterclip-166</masterclipid>
            <ismasterclip>TRUE</ismasterclip>
            <duration>720</duration>
            <in>0</in>
            <out>720</out>
            <name>Scene - Puppet man_0003.164.png</name>
            <rate>
              <timebase>24</timebase>
              <ntsc>FALSE</ntsc>
            </rate>
            <media>
              <video>
                <track>
                  <clipitem frameBlend="FALSE" id="clipitem-167">
                    <name>Scene - Puppet man_0003.164.png</name>
                    <masterclipid>masterclip-166</masterclipid>
                    <rate>
                      <timebase>24</timebase>
                      <ntsc>FALSE</ntsc>
                    </rate>
                    <alphatype>straight</alphatype>
                    <pixelaspectratio>square</pixelaspectratio>
                    <anamorphic>FALSE</anamorphic>
                    <file id="file-166">
                      <name>Scene - Puppet man_0003.164.png</name>
                      <pathurl>file://localhost/C:/Users/jmrey/OneDrive/Desktop/Programmin Stuff/Projects/conversation-simulator/resources/videos/Scene - Puppet man_0003/Scene - Puppet man_0003.164.png</pathurl>
                      <rate>
                        <timebase>24</timebase>
                        <ntsc>FALSE</ntsc>
                      </rate>
                      <duration>720</duration>
                      <timecode>
                        <rate>
                          <timebase>24</timebase>
                          <ntsc>FALSE</ntsc>
                        </rate>
                      </timecode>
                      <media>
                        <video>
                          <duration>1</duration>
                          <samplecharacteristics>
                            <anamorphic>FALSE</anamorphic>
                            <pixelaspectratio>square</pixelaspectratio>
                            <fielddominance>none</fielddominance>
                            <width>1920</width>
                            <height>1080</height>
                          </samplecharacteristics>
                        </video>
                      </media>
                    </file>
                  </clipitem>
                </track>
              </video>
            </media>
          </clip>
          <clip explodedTracks="true" frameBlend="FALSE" id="masterclip-167">
            <uuid>51903219-1e8c-4872-8359-401f24387588</uuid>
            <masterclipid>masterclip-167</masterclipid>
            <ismasterclip>TRUE</ismasterclip>
            <duration>720</duration>
            <in>0</in>
            <out>720</out>
            <name>Scene - Puppet man_0003.165.png</name>
            <rate>
              <timebase>24</timebase>
              <ntsc>FALSE</ntsc>
            </rate>
            <media>
              <video>
                <track>
                  <clipitem frameBlend="FALSE" id="clipitem-168">
                    <name>Scene - Puppet man_0003.165.png</name>
                    <masterclipid>masterclip-167</masterclipid>
                    <rate>
                      <timebase>24</timebase>
                      <ntsc>FALSE</ntsc>
                    </rate>
                    <alphatype>straight</alphatype>
                    <pixelaspectratio>square</pixelaspectratio>
                    <anamorphic>FALSE</anamorphic>
                    <file id="file-167">
                      <name>Scene - Puppet man_0003.165.png</name>
                      <pathurl>file://localhost/C:/Users/jmrey/OneDrive/Desktop/Programmin Stuff/Projects/conversation-simulator/resources/videos/Scene - Puppet man_0003/Scene - Puppet man_0003.165.png</pathurl>
                      <rate>
                        <timebase>24</timebase>
                        <ntsc>FALSE</ntsc>
                      </rate>
                      <duration>720</duration>
                      <timecode>
                        <rate>
                          <timebase>24</timebase>
                          <ntsc>FALSE</ntsc>
                        </rate>
                      </timecode>
                      <media>
                        <video>
                          <duration>1</duration>
                          <samplecharacteristics>
                            <anamorphic>FALSE</anamorphic>
                            <pixelaspectratio>square</pixelaspectratio>
                            <fielddominance>none</fielddominance>
                            <width>1920</width>
                            <height>1080</height>
                          </samplecharacteristics>
                        </video>
                      </media>
                    </file>
                  </clipitem>
                </track>
              </video>
            </media>
          </clip>
          <clip explodedTracks="true" frameBlend="FALSE" id="masterclip-168">
            <uuid>06def223-2c5b-4a43-b199-b30f515c6aff</uuid>
            <masterclipid>masterclip-168</masterclipid>
            <ismasterclip>TRUE</ismasterclip>
            <duration>720</duration>
            <in>0</in>
            <out>720</out>
            <name>Scene - Puppet man_0003.166.png</name>
            <rate>
              <timebase>24</timebase>
              <ntsc>FALSE</ntsc>
            </rate>
            <media>
              <video>
                <track>
                  <clipitem frameBlend="FALSE" id="clipitem-169">
                    <name>Scene - Puppet man_0003.166.png</name>
                    <masterclipid>masterclip-168</masterclipid>
                    <rate>
                      <timebase>24</timebase>
                      <ntsc>FALSE</ntsc>
                    </rate>
                    <alphatype>straight</alphatype>
                    <pixelaspectratio>square</pixelaspectratio>
                    <anamorphic>FALSE</anamorphic>
                    <file id="file-168">
                      <name>Scene - Puppet man_0003.166.png</name>
                      <pathurl>file://localhost/C:/Users/jmrey/OneDrive/Desktop/Programmin Stuff/Projects/conversation-simulator/resources/videos/Scene - Puppet man_0003/Scene - Puppet man_0003.166.png</pathurl>
                      <rate>
                        <timebase>24</timebase>
                        <ntsc>FALSE</ntsc>
                      </rate>
                      <duration>720</duration>
                      <timecode>
                        <rate>
                          <timebase>24</timebase>
                          <ntsc>FALSE</ntsc>
                        </rate>
                      </timecode>
                      <media>
                        <video>
                          <duration>1</duration>
                          <samplecharacteristics>
                            <anamorphic>FALSE</anamorphic>
                            <pixelaspectratio>square</pixelaspectratio>
                            <fielddominance>none</fielddominance>
                            <width>1920</width>
                            <height>1080</height>
                          </samplecharacteristics>
                        </video>
                      </media>
                    </file>
                  </clipitem>
                </track>
              </video>
            </media>
          </clip>
          <clip explodedTracks="true" frameBlend="FALSE" id="masterclip-169">
            <uuid>20fa1079-c427-4db1-9ceb-d1cf4f7793f8</uuid>
            <masterclipid>masterclip-169</masterclipid>
            <ismasterclip>TRUE</ismasterclip>
            <duration>720</duration>
            <in>0</in>
            <out>720</out>
            <name>Scene - Puppet man_0003.167.png</name>
            <rate>
              <timebase>24</timebase>
              <ntsc>FALSE</ntsc>
            </rate>
            <media>
              <video>
                <track>
                  <clipitem frameBlend="FALSE" id="clipitem-170">
                    <name>Scene - Puppet man_0003.167.png</name>
                    <masterclipid>masterclip-169</masterclipid>
                    <rate>
                      <timebase>24</timebase>
                      <ntsc>FALSE</ntsc>
                    </rate>
                    <alphatype>straight</alphatype>
                    <pixelaspectratio>square</pixelaspectratio>
                    <anamorphic>FALSE</anamorphic>
                    <file id="file-169">
                      <name>Scene - Puppet man_0003.167.png</name>
                      <pathurl>file://localhost/C:/Users/jmrey/OneDrive/Desktop/Programmin Stuff/Projects/conversation-simulator/resources/videos/Scene - Puppet man_0003/Scene - Puppet man_0003.167.png</pathurl>
                      <rate>
                        <timebase>24</timebase>
                        <ntsc>FALSE</ntsc>
                      </rate>
                      <duration>720</duration>
                      <timecode>
                        <rate>
                          <timebase>24</timebase>
                          <ntsc>FALSE</ntsc>
                        </rate>
                      </timecode>
                      <media>
                        <video>
                          <duration>1</duration>
                          <samplecharacteristics>
                            <anamorphic>FALSE</anamorphic>
                            <pixelaspectratio>square</pixelaspectratio>
                            <fielddominance>none</fielddominance>
                            <width>1920</width>
                            <height>1080</height>
                          </samplecharacteristics>
                        </video>
                      </media>
                    </file>
                  </clipitem>
                </track>
              </video>
            </media>
          </clip>
          <clip explodedTracks="true" frameBlend="FALSE" id="masterclip-170">
            <uuid>c8b09cdd-435c-482b-ac37-cc5302d1df35</uuid>
            <masterclipid>masterclip-170</masterclipid>
            <ismasterclip>TRUE</ismasterclip>
            <duration>720</duration>
            <in>0</in>
            <out>720</out>
            <name>Scene - Puppet man_0003.168.png</name>
            <rate>
              <timebase>24</timebase>
              <ntsc>FALSE</ntsc>
            </rate>
            <media>
              <video>
                <track>
                  <clipitem frameBlend="FALSE" id="clipitem-171">
                    <name>Scene - Puppet man_0003.168.png</name>
                    <masterclipid>masterclip-170</masterclipid>
                    <rate>
                      <timebase>24</timebase>
                      <ntsc>FALSE</ntsc>
                    </rate>
                    <alphatype>straight</alphatype>
                    <pixelaspectratio>square</pixelaspectratio>
                    <anamorphic>FALSE</anamorphic>
                    <file id="file-170">
                      <name>Scene - Puppet man_0003.168.png</name>
                      <pathurl>file://localhost/C:/Users/jmrey/OneDrive/Desktop/Programmin Stuff/Projects/conversation-simulator/resources/videos/Scene - Puppet man_0003/Scene - Puppet man_0003.168.png</pathurl>
                      <rate>
                        <timebase>24</timebase>
                        <ntsc>FALSE</ntsc>
                      </rate>
                      <duration>720</duration>
                      <timecode>
                        <rate>
                          <timebase>24</timebase>
                          <ntsc>FALSE</ntsc>
                        </rate>
                      </timecode>
                      <media>
                        <video>
                          <duration>1</duration>
                          <samplecharacteristics>
                            <anamorphic>FALSE</anamorphic>
                            <pixelaspectratio>square</pixelaspectratio>
                            <fielddominance>none</fielddominance>
                            <width>1920</width>
                            <height>1080</height>
                          </samplecharacteristics>
                        </video>
                      </media>
                    </file>
                  </clipitem>
                </track>
              </video>
            </media>
          </clip>
          <clip explodedTracks="true" frameBlend="FALSE" id="masterclip-171">
            <uuid>805a7b63-50c8-44a2-be6b-1eddf6605fef</uuid>
            <masterclipid>masterclip-171</masterclipid>
            <ismasterclip>TRUE</ismasterclip>
            <duration>720</duration>
            <in>0</in>
            <out>720</out>
            <name>Scene - Puppet man_0003.169.png</name>
            <rate>
              <timebase>24</timebase>
              <ntsc>FALSE</ntsc>
            </rate>
            <media>
              <video>
                <track>
                  <clipitem frameBlend="FALSE" id="clipitem-172">
                    <name>Scene - Puppet man_0003.169.png</name>
                    <masterclipid>masterclip-171</masterclipid>
                    <rate>
                      <timebase>24</timebase>
                      <ntsc>FALSE</ntsc>
                    </rate>
                    <alphatype>straight</alphatype>
                    <pixelaspectratio>square</pixelaspectratio>
                    <anamorphic>FALSE</anamorphic>
                    <file id="file-171">
                      <name>Scene - Puppet man_0003.169.png</name>
                      <pathurl>file://localhost/C:/Users/jmrey/OneDrive/Desktop/Programmin Stuff/Projects/conversation-simulator/resources/videos/Scene - Puppet man_0003/Scene - Puppet man_0003.169.png</pathurl>
                      <rate>
                        <timebase>24</timebase>
                        <ntsc>FALSE</ntsc>
                      </rate>
                      <duration>720</duration>
                      <timecode>
                        <rate>
                          <timebase>24</timebase>
                          <ntsc>FALSE</ntsc>
                        </rate>
                      </timecode>
                      <media>
                        <video>
                          <duration>1</duration>
                          <samplecharacteristics>
                            <anamorphic>FALSE</anamorphic>
                            <pixelaspectratio>square</pixelaspectratio>
                            <fielddominance>none</fielddominance>
                            <width>1920</width>
                            <height>1080</height>
                          </samplecharacteristics>
                        </video>
                      </media>
                    </file>
                  </clipitem>
                </track>
              </video>
            </media>
          </clip>
          <clip explodedTracks="true" frameBlend="FALSE" id="masterclip-172">
            <uuid>ec0d9bb7-e34d-4fd0-ae57-26d494517cd1</uuid>
            <masterclipid>masterclip-172</masterclipid>
            <ismasterclip>TRUE</ismasterclip>
            <duration>720</duration>
            <in>0</in>
            <out>720</out>
            <name>Scene - Puppet man_0003.170.png</name>
            <rate>
              <timebase>24</timebase>
              <ntsc>FALSE</ntsc>
            </rate>
            <media>
              <video>
                <track>
                  <clipitem frameBlend="FALSE" id="clipitem-173">
                    <name>Scene - Puppet man_0003.170.png</name>
                    <masterclipid>masterclip-172</masterclipid>
                    <rate>
                      <timebase>24</timebase>
                      <ntsc>FALSE</ntsc>
                    </rate>
                    <alphatype>straight</alphatype>
                    <pixelaspectratio>square</pixelaspectratio>
                    <anamorphic>FALSE</anamorphic>
                    <file id="file-172">
                      <name>Scene - Puppet man_0003.170.png</name>
                      <pathurl>file://localhost/C:/Users/jmrey/OneDrive/Desktop/Programmin Stuff/Projects/conversation-simulator/resources/videos/Scene - Puppet man_0003/Scene - Puppet man_0003.170.png</pathurl>
                      <rate>
                        <timebase>24</timebase>
                        <ntsc>FALSE</ntsc>
                      </rate>
                      <duration>720</duration>
                      <timecode>
                        <rate>
                          <timebase>24</timebase>
                          <ntsc>FALSE</ntsc>
                        </rate>
                      </timecode>
                      <media>
                        <video>
                          <duration>1</duration>
                          <samplecharacteristics>
                            <anamorphic>FALSE</anamorphic>
                            <pixelaspectratio>square</pixelaspectratio>
                            <fielddominance>none</fielddominance>
                            <width>1920</width>
                            <height>1080</height>
                          </samplecharacteristics>
                        </video>
                      </media>
                    </file>
                  </clipitem>
                </track>
              </video>
            </media>
          </clip>
          <clip explodedTracks="true" frameBlend="FALSE" id="masterclip-173">
            <uuid>eeb0c69d-fc16-45d9-b8d6-bfae166f323d</uuid>
            <masterclipid>masterclip-173</masterclipid>
            <ismasterclip>TRUE</ismasterclip>
            <duration>720</duration>
            <in>0</in>
            <out>720</out>
            <name>Scene - Puppet man_0003.171.png</name>
            <rate>
              <timebase>24</timebase>
              <ntsc>FALSE</ntsc>
            </rate>
            <media>
              <video>
                <track>
                  <clipitem frameBlend="FALSE" id="clipitem-174">
                    <name>Scene - Puppet man_0003.171.png</name>
                    <masterclipid>masterclip-173</masterclipid>
                    <rate>
                      <timebase>24</timebase>
                      <ntsc>FALSE</ntsc>
                    </rate>
                    <alphatype>straight</alphatype>
                    <pixelaspectratio>square</pixelaspectratio>
                    <anamorphic>FALSE</anamorphic>
                    <file id="file-173">
                      <name>Scene - Puppet man_0003.171.png</name>
                      <pathurl>file://localhost/C:/Users/jmrey/OneDrive/Desktop/Programmin Stuff/Projects/conversation-simulator/resources/videos/Scene - Puppet man_0003/Scene - Puppet man_0003.171.png</pathurl>
                      <rate>
                        <timebase>24</timebase>
                        <ntsc>FALSE</ntsc>
                      </rate>
                      <duration>720</duration>
                      <timecode>
                        <rate>
                          <timebase>24</timebase>
                          <ntsc>FALSE</ntsc>
                        </rate>
                      </timecode>
                      <media>
                        <video>
                          <duration>1</duration>
                          <samplecharacteristics>
                            <anamorphic>FALSE</anamorphic>
                            <pixelaspectratio>square</pixelaspectratio>
                            <fielddominance>none</fielddominance>
                            <width>1920</width>
                            <height>1080</height>
                          </samplecharacteristics>
                        </video>
                      </media>
                    </file>
                  </clipitem>
                </track>
              </video>
            </media>
          </clip>
          <clip explodedTracks="true" frameBlend="FALSE" id="masterclip-174">
            <uuid>82989719-d966-4067-bd58-0d096c7d0395</uuid>
            <masterclipid>masterclip-174</masterclipid>
            <ismasterclip>TRUE</ismasterclip>
            <duration>720</duration>
            <in>0</in>
            <out>720</out>
            <name>Scene - Puppet man_0003.172.png</name>
            <rate>
              <timebase>24</timebase>
              <ntsc>FALSE</ntsc>
            </rate>
            <media>
              <video>
                <track>
                  <clipitem frameBlend="FALSE" id="clipitem-175">
                    <name>Scene - Puppet man_0003.172.png</name>
                    <masterclipid>masterclip-174</masterclipid>
                    <rate>
                      <timebase>24</timebase>
                      <ntsc>FALSE</ntsc>
                    </rate>
                    <alphatype>straight</alphatype>
                    <pixelaspectratio>square</pixelaspectratio>
                    <anamorphic>FALSE</anamorphic>
                    <file id="file-174">
                      <name>Scene - Puppet man_0003.172.png</name>
                      <pathurl>file://localhost/C:/Users/jmrey/OneDrive/Desktop/Programmin Stuff/Projects/conversation-simulator/resources/videos/Scene - Puppet man_0003/Scene - Puppet man_0003.172.png</pathurl>
                      <rate>
                        <timebase>24</timebase>
                        <ntsc>FALSE</ntsc>
                      </rate>
                      <duration>720</duration>
                      <timecode>
                        <rate>
                          <timebase>24</timebase>
                          <ntsc>FALSE</ntsc>
                        </rate>
                      </timecode>
                      <media>
                        <video>
                          <duration>1</duration>
                          <samplecharacteristics>
                            <anamorphic>FALSE</anamorphic>
                            <pixelaspectratio>square</pixelaspectratio>
                            <fielddominance>none</fielddominance>
                            <width>1920</width>
                            <height>1080</height>
                          </samplecharacteristics>
                        </video>
                      </media>
                    </file>
                  </clipitem>
                </track>
              </video>
            </media>
          </clip>
          <clip explodedTracks="true" frameBlend="FALSE" id="masterclip-175">
            <uuid>c5942ecd-ce69-4fd9-9e3b-88b839db1588</uuid>
            <masterclipid>masterclip-175</masterclipid>
            <ismasterclip>TRUE</ismasterclip>
            <duration>720</duration>
            <in>0</in>
            <out>720</out>
            <name>Scene - Puppet man_0003.173.png</name>
            <rate>
              <timebase>24</timebase>
              <ntsc>FALSE</ntsc>
            </rate>
            <media>
              <video>
                <track>
                  <clipitem frameBlend="FALSE" id="clipitem-176">
                    <name>Scene - Puppet man_0003.173.png</name>
                    <masterclipid>masterclip-175</masterclipid>
                    <rate>
                      <timebase>24</timebase>
                      <ntsc>FALSE</ntsc>
                    </rate>
                    <alphatype>straight</alphatype>
                    <pixelaspectratio>square</pixelaspectratio>
                    <anamorphic>FALSE</anamorphic>
                    <file id="file-175">
                      <name>Scene - Puppet man_0003.173.png</name>
                      <pathurl>file://localhost/C:/Users/jmrey/OneDrive/Desktop/Programmin Stuff/Projects/conversation-simulator/resources/videos/Scene - Puppet man_0003/Scene - Puppet man_0003.173.png</pathurl>
                      <rate>
                        <timebase>24</timebase>
                        <ntsc>FALSE</ntsc>
                      </rate>
                      <duration>720</duration>
                      <timecode>
                        <rate>
                          <timebase>24</timebase>
                          <ntsc>FALSE</ntsc>
                        </rate>
                      </timecode>
                      <media>
                        <video>
                          <duration>1</duration>
                          <samplecharacteristics>
                            <anamorphic>FALSE</anamorphic>
                            <pixelaspectratio>square</pixelaspectratio>
                            <fielddominance>none</fielddominance>
                            <width>1920</width>
                            <height>1080</height>
                          </samplecharacteristics>
                        </video>
                      </media>
                    </file>
                  </clipitem>
                </track>
              </video>
            </media>
          </clip>
          <clip explodedTracks="true" frameBlend="FALSE" id="masterclip-176">
            <uuid>34703ff0-127f-4799-9066-136d04c06120</uuid>
            <masterclipid>masterclip-176</masterclipid>
            <ismasterclip>TRUE</ismasterclip>
            <duration>720</duration>
            <in>0</in>
            <out>720</out>
            <name>Scene - Puppet man_0003.174.png</name>
            <rate>
              <timebase>24</timebase>
              <ntsc>FALSE</ntsc>
            </rate>
            <media>
              <video>
                <track>
                  <clipitem frameBlend="FALSE" id="clipitem-177">
                    <name>Scene - Puppet man_0003.174.png</name>
                    <masterclipid>masterclip-176</masterclipid>
                    <rate>
                      <timebase>24</timebase>
                      <ntsc>FALSE</ntsc>
                    </rate>
                    <alphatype>straight</alphatype>
                    <pixelaspectratio>square</pixelaspectratio>
                    <anamorphic>FALSE</anamorphic>
                    <file id="file-176">
                      <name>Scene - Puppet man_0003.174.png</name>
                      <pathurl>file://localhost/C:/Users/jmrey/OneDrive/Desktop/Programmin Stuff/Projects/conversation-simulator/resources/videos/Scene - Puppet man_0003/Scene - Puppet man_0003.174.png</pathurl>
                      <rate>
                        <timebase>24</timebase>
                        <ntsc>FALSE</ntsc>
                      </rate>
                      <duration>720</duration>
                      <timecode>
                        <rate>
                          <timebase>24</timebase>
                          <ntsc>FALSE</ntsc>
                        </rate>
                      </timecode>
                      <media>
                        <video>
                          <duration>1</duration>
                          <samplecharacteristics>
                            <anamorphic>FALSE</anamorphic>
                            <pixelaspectratio>square</pixelaspectratio>
                            <fielddominance>none</fielddominance>
                            <width>1920</width>
                            <height>1080</height>
                          </samplecharacteristics>
                        </video>
                      </media>
                    </file>
                  </clipitem>
                </track>
              </video>
            </media>
          </clip>
          <clip explodedTracks="true" frameBlend="FALSE" id="masterclip-177">
            <uuid>eae69a84-702b-4d0a-aee6-e92ca19f0b00</uuid>
            <masterclipid>masterclip-177</masterclipid>
            <ismasterclip>TRUE</ismasterclip>
            <duration>720</duration>
            <in>0</in>
            <out>720</out>
            <name>Scene - Puppet man_0003.175.png</name>
            <rate>
              <timebase>24</timebase>
              <ntsc>FALSE</ntsc>
            </rate>
            <media>
              <video>
                <track>
                  <clipitem frameBlend="FALSE" id="clipitem-178">
                    <name>Scene - Puppet man_0003.175.png</name>
                    <masterclipid>masterclip-177</masterclipid>
                    <rate>
                      <timebase>24</timebase>
                      <ntsc>FALSE</ntsc>
                    </rate>
                    <alphatype>straight</alphatype>
                    <pixelaspectratio>square</pixelaspectratio>
                    <anamorphic>FALSE</anamorphic>
                    <file id="file-177">
                      <name>Scene - Puppet man_0003.175.png</name>
                      <pathurl>file://localhost/C:/Users/jmrey/OneDrive/Desktop/Programmin Stuff/Projects/conversation-simulator/resources/videos/Scene - Puppet man_0003/Scene - Puppet man_0003.175.png</pathurl>
                      <rate>
                        <timebase>24</timebase>
                        <ntsc>FALSE</ntsc>
                      </rate>
                      <duration>720</duration>
                      <timecode>
                        <rate>
                          <timebase>24</timebase>
                          <ntsc>FALSE</ntsc>
                        </rate>
                      </timecode>
                      <media>
                        <video>
                          <duration>1</duration>
                          <samplecharacteristics>
                            <anamorphic>FALSE</anamorphic>
                            <pixelaspectratio>square</pixelaspectratio>
                            <fielddominance>none</fielddominance>
                            <width>1920</width>
                            <height>1080</height>
                          </samplecharacteristics>
                        </video>
                      </media>
                    </file>
                  </clipitem>
                </track>
              </video>
            </media>
          </clip>
          <clip explodedTracks="true" frameBlend="FALSE" id="masterclip-178">
            <uuid>cb7526ac-c440-42dd-9bd2-c2fe11e7aa90</uuid>
            <masterclipid>masterclip-178</masterclipid>
            <ismasterclip>TRUE</ismasterclip>
            <duration>720</duration>
            <in>0</in>
            <out>720</out>
            <name>Scene - Puppet man_0003.176.png</name>
            <rate>
              <timebase>24</timebase>
              <ntsc>FALSE</ntsc>
            </rate>
            <media>
              <video>
                <track>
                  <clipitem frameBlend="FALSE" id="clipitem-179">
                    <name>Scene - Puppet man_0003.176.png</name>
                    <masterclipid>masterclip-178</masterclipid>
                    <rate>
                      <timebase>24</timebase>
                      <ntsc>FALSE</ntsc>
                    </rate>
                    <alphatype>straight</alphatype>
                    <pixelaspectratio>square</pixelaspectratio>
                    <anamorphic>FALSE</anamorphic>
                    <file id="file-178">
                      <name>Scene - Puppet man_0003.176.png</name>
                      <pathurl>file://localhost/C:/Users/jmrey/OneDrive/Desktop/Programmin Stuff/Projects/conversation-simulator/resources/videos/Scene - Puppet man_0003/Scene - Puppet man_0003.176.png</pathurl>
                      <rate>
                        <timebase>24</timebase>
                        <ntsc>FALSE</ntsc>
                      </rate>
                      <duration>720</duration>
                      <timecode>
                        <rate>
                          <timebase>24</timebase>
                          <ntsc>FALSE</ntsc>
                        </rate>
                      </timecode>
                      <media>
                        <video>
                          <duration>1</duration>
                          <samplecharacteristics>
                            <anamorphic>FALSE</anamorphic>
                            <pixelaspectratio>square</pixelaspectratio>
                            <fielddominance>none</fielddominance>
                            <width>1920</width>
                            <height>1080</height>
                          </samplecharacteristics>
                        </video>
                      </media>
                    </file>
                  </clipitem>
                </track>
              </video>
            </media>
          </clip>
          <clip explodedTracks="true" frameBlend="FALSE" id="masterclip-179">
            <uuid>f3d15518-a79d-4300-8031-7f0208a03487</uuid>
            <masterclipid>masterclip-179</masterclipid>
            <ismasterclip>TRUE</ismasterclip>
            <duration>720</duration>
            <in>0</in>
            <out>720</out>
            <name>Scene - Puppet man_0003.177.png</name>
            <rate>
              <timebase>24</timebase>
              <ntsc>FALSE</ntsc>
            </rate>
            <media>
              <video>
                <track>
                  <clipitem frameBlend="FALSE" id="clipitem-180">
                    <name>Scene - Puppet man_0003.177.png</name>
                    <masterclipid>masterclip-179</masterclipid>
                    <rate>
                      <timebase>24</timebase>
                      <ntsc>FALSE</ntsc>
                    </rate>
                    <alphatype>straight</alphatype>
                    <pixelaspectratio>square</pixelaspectratio>
                    <anamorphic>FALSE</anamorphic>
                    <file id="file-179">
                      <name>Scene - Puppet man_0003.177.png</name>
                      <pathurl>file://localhost/C:/Users/jmrey/OneDrive/Desktop/Programmin Stuff/Projects/conversation-simulator/resources/videos/Scene - Puppet man_0003/Scene - Puppet man_0003.177.png</pathurl>
                      <rate>
                        <timebase>24</timebase>
                        <ntsc>FALSE</ntsc>
                      </rate>
                      <duration>720</duration>
                      <timecode>
                        <rate>
                          <timebase>24</timebase>
                          <ntsc>FALSE</ntsc>
                        </rate>
                      </timecode>
                      <media>
                        <video>
                          <duration>1</duration>
                          <samplecharacteristics>
                            <anamorphic>FALSE</anamorphic>
                            <pixelaspectratio>square</pixelaspectratio>
                            <fielddominance>none</fielddominance>
                            <width>1920</width>
                            <height>1080</height>
                          </samplecharacteristics>
                        </video>
                      </media>
                    </file>
                  </clipitem>
                </track>
              </video>
            </media>
          </clip>
          <clip explodedTracks="true" frameBlend="FALSE" id="masterclip-180">
            <uuid>2d66dac9-5ec1-4da8-96ed-19f661bb8351</uuid>
            <masterclipid>masterclip-180</masterclipid>
            <ismasterclip>TRUE</ismasterclip>
            <duration>720</duration>
            <in>0</in>
            <out>720</out>
            <name>Scene - Puppet man_0003.178.png</name>
            <rate>
              <timebase>24</timebase>
              <ntsc>FALSE</ntsc>
            </rate>
            <media>
              <video>
                <track>
                  <clipitem frameBlend="FALSE" id="clipitem-181">
                    <name>Scene - Puppet man_0003.178.png</name>
                    <masterclipid>masterclip-180</masterclipid>
                    <rate>
                      <timebase>24</timebase>
                      <ntsc>FALSE</ntsc>
                    </rate>
                    <alphatype>straight</alphatype>
                    <pixelaspectratio>square</pixelaspectratio>
                    <anamorphic>FALSE</anamorphic>
                    <file id="file-180">
                      <name>Scene - Puppet man_0003.178.png</name>
                      <pathurl>file://localhost/C:/Users/jmrey/OneDrive/Desktop/Programmin Stuff/Projects/conversation-simulator/resources/videos/Scene - Puppet man_0003/Scene - Puppet man_0003.178.png</pathurl>
                      <rate>
                        <timebase>24</timebase>
                        <ntsc>FALSE</ntsc>
                      </rate>
                      <duration>720</duration>
                      <timecode>
                        <rate>
                          <timebase>24</timebase>
                          <ntsc>FALSE</ntsc>
                        </rate>
                      </timecode>
                      <media>
                        <video>
                          <duration>1</duration>
                          <samplecharacteristics>
                            <anamorphic>FALSE</anamorphic>
                            <pixelaspectratio>square</pixelaspectratio>
                            <fielddominance>none</fielddominance>
                            <width>1920</width>
                            <height>1080</height>
                          </samplecharacteristics>
                        </video>
                      </media>
                    </file>
                  </clipitem>
                </track>
              </video>
            </media>
          </clip>
          <clip explodedTracks="true" frameBlend="FALSE" id="masterclip-181">
            <uuid>d8b6bc78-5050-4088-8918-f862789aa3c1</uuid>
            <masterclipid>masterclip-181</masterclipid>
            <ismasterclip>TRUE</ismasterclip>
            <duration>720</duration>
            <in>0</in>
            <out>720</out>
            <name>Scene - Puppet man_0003.179.png</name>
            <rate>
              <timebase>24</timebase>
              <ntsc>FALSE</ntsc>
            </rate>
            <media>
              <video>
                <track>
                  <clipitem frameBlend="FALSE" id="clipitem-182">
                    <name>Scene - Puppet man_0003.179.png</name>
                    <masterclipid>masterclip-181</masterclipid>
                    <rate>
                      <timebase>24</timebase>
                      <ntsc>FALSE</ntsc>
                    </rate>
                    <alphatype>straight</alphatype>
                    <pixelaspectratio>square</pixelaspectratio>
                    <anamorphic>FALSE</anamorphic>
                    <file id="file-181">
                      <name>Scene - Puppet man_0003.179.png</name>
                      <pathurl>file://localhost/C:/Users/jmrey/OneDrive/Desktop/Programmin Stuff/Projects/conversation-simulator/resources/videos/Scene - Puppet man_0003/Scene - Puppet man_0003.179.png</pathurl>
                      <rate>
                        <timebase>24</timebase>
                        <ntsc>FALSE</ntsc>
                      </rate>
                      <duration>720</duration>
                      <timecode>
                        <rate>
                          <timebase>24</timebase>
                          <ntsc>FALSE</ntsc>
                        </rate>
                      </timecode>
                      <media>
                        <video>
                          <duration>1</duration>
                          <samplecharacteristics>
                            <anamorphic>FALSE</anamorphic>
                            <pixelaspectratio>square</pixelaspectratio>
                            <fielddominance>none</fielddominance>
                            <width>1920</width>
                            <height>1080</height>
                          </samplecharacteristics>
                        </video>
                      </media>
                    </file>
                  </clipitem>
                </track>
              </video>
            </media>
          </clip>
          <clip explodedTracks="true" frameBlend="FALSE" id="masterclip-182">
            <uuid>9de3036e-f3fc-463e-a813-4b5c83c40cfe</uuid>
            <masterclipid>masterclip-182</masterclipid>
            <ismasterclip>TRUE</ismasterclip>
            <duration>720</duration>
            <in>0</in>
            <out>720</out>
            <name>Scene - Puppet man_0003.180.png</name>
            <rate>
              <timebase>24</timebase>
              <ntsc>FALSE</ntsc>
            </rate>
            <media>
              <video>
                <track>
                  <clipitem frameBlend="FALSE" id="clipitem-183">
                    <name>Scene - Puppet man_0003.180.png</name>
                    <masterclipid>masterclip-182</masterclipid>
                    <rate>
                      <timebase>24</timebase>
                      <ntsc>FALSE</ntsc>
                    </rate>
                    <alphatype>straight</alphatype>
                    <pixelaspectratio>square</pixelaspectratio>
                    <anamorphic>FALSE</anamorphic>
                    <file id="file-182">
                      <name>Scene - Puppet man_0003.180.png</name>
                      <pathurl>file://localhost/C:/Users/jmrey/OneDrive/Desktop/Programmin Stuff/Projects/conversation-simulator/resources/videos/Scene - Puppet man_0003/Scene - Puppet man_0003.180.png</pathurl>
                      <rate>
                        <timebase>24</timebase>
                        <ntsc>FALSE</ntsc>
                      </rate>
                      <duration>720</duration>
                      <timecode>
                        <rate>
                          <timebase>24</timebase>
                          <ntsc>FALSE</ntsc>
                        </rate>
                      </timecode>
                      <media>
                        <video>
                          <duration>1</duration>
                          <samplecharacteristics>
                            <anamorphic>FALSE</anamorphic>
                            <pixelaspectratio>square</pixelaspectratio>
                            <fielddominance>none</fielddominance>
                            <width>1920</width>
                            <height>1080</height>
                          </samplecharacteristics>
                        </video>
                      </media>
                    </file>
                  </clipitem>
                </track>
              </video>
            </media>
          </clip>
          <clip explodedTracks="true" frameBlend="FALSE" id="masterclip-183">
            <uuid>eb9b44d8-0aae-407b-a3a8-ba6ae8c81b2a</uuid>
            <masterclipid>masterclip-183</masterclipid>
            <ismasterclip>TRUE</ismasterclip>
            <duration>720</duration>
            <in>0</in>
            <out>720</out>
            <name>Scene - Puppet man_0003.181.png</name>
            <rate>
              <timebase>24</timebase>
              <ntsc>FALSE</ntsc>
            </rate>
            <media>
              <video>
                <track>
                  <clipitem frameBlend="FALSE" id="clipitem-184">
                    <name>Scene - Puppet man_0003.181.png</name>
                    <masterclipid>masterclip-183</masterclipid>
                    <rate>
                      <timebase>24</timebase>
                      <ntsc>FALSE</ntsc>
                    </rate>
                    <alphatype>straight</alphatype>
                    <pixelaspectratio>square</pixelaspectratio>
                    <anamorphic>FALSE</anamorphic>
                    <file id="file-183">
                      <name>Scene - Puppet man_0003.181.png</name>
                      <pathurl>file://localhost/C:/Users/jmrey/OneDrive/Desktop/Programmin Stuff/Projects/conversation-simulator/resources/videos/Scene - Puppet man_0003/Scene - Puppet man_0003.181.png</pathurl>
                      <rate>
                        <timebase>24</timebase>
                        <ntsc>FALSE</ntsc>
                      </rate>
                      <duration>720</duration>
                      <timecode>
                        <rate>
                          <timebase>24</timebase>
                          <ntsc>FALSE</ntsc>
                        </rate>
                      </timecode>
                      <media>
                        <video>
                          <duration>1</duration>
                          <samplecharacteristics>
                            <anamorphic>FALSE</anamorphic>
                            <pixelaspectratio>square</pixelaspectratio>
                            <fielddominance>none</fielddominance>
                            <width>1920</width>
                            <height>1080</height>
                          </samplecharacteristics>
                        </video>
                      </media>
                    </file>
                  </clipitem>
                </track>
              </video>
            </media>
          </clip>
          <clip explodedTracks="true" frameBlend="FALSE" id="masterclip-184">
            <uuid>9b2a32fe-367e-4686-9910-99eea6c9fd2d</uuid>
            <masterclipid>masterclip-184</masterclipid>
            <ismasterclip>TRUE</ismasterclip>
            <duration>720</duration>
            <in>0</in>
            <out>720</out>
            <name>Scene - Puppet man_0003.182.png</name>
            <rate>
              <timebase>24</timebase>
              <ntsc>FALSE</ntsc>
            </rate>
            <media>
              <video>
                <track>
                  <clipitem frameBlend="FALSE" id="clipitem-185">
                    <name>Scene - Puppet man_0003.182.png</name>
                    <masterclipid>masterclip-184</masterclipid>
                    <rate>
                      <timebase>24</timebase>
                      <ntsc>FALSE</ntsc>
                    </rate>
                    <alphatype>straight</alphatype>
                    <pixelaspectratio>square</pixelaspectratio>
                    <anamorphic>FALSE</anamorphic>
                    <file id="file-184">
                      <name>Scene - Puppet man_0003.182.png</name>
                      <pathurl>file://localhost/C:/Users/jmrey/OneDrive/Desktop/Programmin Stuff/Projects/conversation-simulator/resources/videos/Scene - Puppet man_0003/Scene - Puppet man_0003.182.png</pathurl>
                      <rate>
                        <timebase>24</timebase>
                        <ntsc>FALSE</ntsc>
                      </rate>
                      <duration>720</duration>
                      <timecode>
                        <rate>
                          <timebase>24</timebase>
                          <ntsc>FALSE</ntsc>
                        </rate>
                      </timecode>
                      <media>
                        <video>
                          <duration>1</duration>
                          <samplecharacteristics>
                            <anamorphic>FALSE</anamorphic>
                            <pixelaspectratio>square</pixelaspectratio>
                            <fielddominance>none</fielddominance>
                            <width>1920</width>
                            <height>1080</height>
                          </samplecharacteristics>
                        </video>
                      </media>
                    </file>
                  </clipitem>
                </track>
              </video>
            </media>
          </clip>
          <clip explodedTracks="true" frameBlend="FALSE" id="masterclip-185">
            <uuid>611a0f8d-3129-4c16-9a7f-0ec7d7e5a87e</uuid>
            <masterclipid>masterclip-185</masterclipid>
            <ismasterclip>TRUE</ismasterclip>
            <duration>720</duration>
            <in>0</in>
            <out>720</out>
            <name>Scene - Puppet man_0003.183.png</name>
            <rate>
              <timebase>24</timebase>
              <ntsc>FALSE</ntsc>
            </rate>
            <media>
              <video>
                <track>
                  <clipitem frameBlend="FALSE" id="clipitem-186">
                    <name>Scene - Puppet man_0003.183.png</name>
                    <masterclipid>masterclip-185</masterclipid>
                    <rate>
                      <timebase>24</timebase>
                      <ntsc>FALSE</ntsc>
                    </rate>
                    <alphatype>straight</alphatype>
                    <pixelaspectratio>square</pixelaspectratio>
                    <anamorphic>FALSE</anamorphic>
                    <file id="file-185">
                      <name>Scene - Puppet man_0003.183.png</name>
                      <pathurl>file://localhost/C:/Users/jmrey/OneDrive/Desktop/Programmin Stuff/Projects/conversation-simulator/resources/videos/Scene - Puppet man_0003/Scene - Puppet man_0003.183.png</pathurl>
                      <rate>
                        <timebase>24</timebase>
                        <ntsc>FALSE</ntsc>
                      </rate>
                      <duration>720</duration>
                      <timecode>
                        <rate>
                          <timebase>24</timebase>
                          <ntsc>FALSE</ntsc>
                        </rate>
                      </timecode>
                      <media>
                        <video>
                          <duration>1</duration>
                          <samplecharacteristics>
                            <anamorphic>FALSE</anamorphic>
                            <pixelaspectratio>square</pixelaspectratio>
                            <fielddominance>none</fielddominance>
                            <width>1920</width>
                            <height>1080</height>
                          </samplecharacteristics>
                        </video>
                      </media>
                    </file>
                  </clipitem>
                </track>
              </video>
            </media>
          </clip>
          <clip explodedTracks="true" frameBlend="FALSE" id="masterclip-186">
            <uuid>faa53f62-f827-493a-8f08-3a7ff4e274a5</uuid>
            <masterclipid>masterclip-186</masterclipid>
            <ismasterclip>TRUE</ismasterclip>
            <duration>720</duration>
            <in>0</in>
            <out>720</out>
            <name>Scene - Puppet man_0003.184.png</name>
            <rate>
              <timebase>24</timebase>
              <ntsc>FALSE</ntsc>
            </rate>
            <media>
              <video>
                <track>
                  <clipitem frameBlend="FALSE" id="clipitem-187">
                    <name>Scene - Puppet man_0003.184.png</name>
                    <masterclipid>masterclip-186</masterclipid>
                    <rate>
                      <timebase>24</timebase>
                      <ntsc>FALSE</ntsc>
                    </rate>
                    <alphatype>straight</alphatype>
                    <pixelaspectratio>square</pixelaspectratio>
                    <anamorphic>FALSE</anamorphic>
                    <file id="file-186">
                      <name>Scene - Puppet man_0003.184.png</name>
                      <pathurl>file://localhost/C:/Users/jmrey/OneDrive/Desktop/Programmin Stuff/Projects/conversation-simulator/resources/videos/Scene - Puppet man_0003/Scene - Puppet man_0003.184.png</pathurl>
                      <rate>
                        <timebase>24</timebase>
                        <ntsc>FALSE</ntsc>
                      </rate>
                      <duration>720</duration>
                      <timecode>
                        <rate>
                          <timebase>24</timebase>
                          <ntsc>FALSE</ntsc>
                        </rate>
                      </timecode>
                      <media>
                        <video>
                          <duration>1</duration>
                          <samplecharacteristics>
                            <anamorphic>FALSE</anamorphic>
                            <pixelaspectratio>square</pixelaspectratio>
                            <fielddominance>none</fielddominance>
                            <width>1920</width>
                            <height>1080</height>
                          </samplecharacteristics>
                        </video>
                      </media>
                    </file>
                  </clipitem>
                </track>
              </video>
            </media>
          </clip>
          <clip explodedTracks="true" frameBlend="FALSE" id="masterclip-187">
            <uuid>681844f8-aa16-43be-9bd1-7c45d25927d9</uuid>
            <masterclipid>masterclip-187</masterclipid>
            <ismasterclip>TRUE</ismasterclip>
            <duration>720</duration>
            <in>0</in>
            <out>720</out>
            <name>Scene - Puppet man_0003.185.png</name>
            <rate>
              <timebase>24</timebase>
              <ntsc>FALSE</ntsc>
            </rate>
            <media>
              <video>
                <track>
                  <clipitem frameBlend="FALSE" id="clipitem-188">
                    <name>Scene - Puppet man_0003.185.png</name>
                    <masterclipid>masterclip-187</masterclipid>
                    <rate>
                      <timebase>24</timebase>
                      <ntsc>FALSE</ntsc>
                    </rate>
                    <alphatype>straight</alphatype>
                    <pixelaspectratio>square</pixelaspectratio>
                    <anamorphic>FALSE</anamorphic>
                    <file id="file-187">
                      <name>Scene - Puppet man_0003.185.png</name>
                      <pathurl>file://localhost/C:/Users/jmrey/OneDrive/Desktop/Programmin Stuff/Projects/conversation-simulator/resources/videos/Scene - Puppet man_0003/Scene - Puppet man_0003.185.png</pathurl>
                      <rate>
                        <timebase>24</timebase>
                        <ntsc>FALSE</ntsc>
                      </rate>
                      <duration>720</duration>
                      <timecode>
                        <rate>
                          <timebase>24</timebase>
                          <ntsc>FALSE</ntsc>
                        </rate>
                      </timecode>
                      <media>
                        <video>
                          <duration>1</duration>
                          <samplecharacteristics>
                            <anamorphic>FALSE</anamorphic>
                            <pixelaspectratio>square</pixelaspectratio>
                            <fielddominance>none</fielddominance>
                            <width>1920</width>
                            <height>1080</height>
                          </samplecharacteristics>
                        </video>
                      </media>
                    </file>
                  </clipitem>
                </track>
              </video>
            </media>
          </clip>
          <clip explodedTracks="true" frameBlend="FALSE" id="masterclip-188">
            <uuid>60767b81-6b55-4517-b83d-02b0a40a9ba6</uuid>
            <masterclipid>masterclip-188</masterclipid>
            <ismasterclip>TRUE</ismasterclip>
            <duration>720</duration>
            <in>0</in>
            <out>720</out>
            <name>Scene - Puppet man_0003.186.png</name>
            <rate>
              <timebase>24</timebase>
              <ntsc>FALSE</ntsc>
            </rate>
            <media>
              <video>
                <track>
                  <clipitem frameBlend="FALSE" id="clipitem-189">
                    <name>Scene - Puppet man_0003.186.png</name>
                    <masterclipid>masterclip-188</masterclipid>
                    <rate>
                      <timebase>24</timebase>
                      <ntsc>FALSE</ntsc>
                    </rate>
                    <alphatype>straight</alphatype>
                    <pixelaspectratio>square</pixelaspectratio>
                    <anamorphic>FALSE</anamorphic>
                    <file id="file-188">
                      <name>Scene - Puppet man_0003.186.png</name>
                      <pathurl>file://localhost/C:/Users/jmrey/OneDrive/Desktop/Programmin Stuff/Projects/conversation-simulator/resources/videos/Scene - Puppet man_0003/Scene - Puppet man_0003.186.png</pathurl>
                      <rate>
                        <timebase>24</timebase>
                        <ntsc>FALSE</ntsc>
                      </rate>
                      <duration>720</duration>
                      <timecode>
                        <rate>
                          <timebase>24</timebase>
                          <ntsc>FALSE</ntsc>
                        </rate>
                      </timecode>
                      <media>
                        <video>
                          <duration>1</duration>
                          <samplecharacteristics>
                            <anamorphic>FALSE</anamorphic>
                            <pixelaspectratio>square</pixelaspectratio>
                            <fielddominance>none</fielddominance>
                            <width>1920</width>
                            <height>1080</height>
                          </samplecharacteristics>
                        </video>
                      </media>
                    </file>
                  </clipitem>
                </track>
              </video>
            </media>
          </clip>
          <clip explodedTracks="true" frameBlend="FALSE" id="masterclip-189">
            <uuid>7c43bc93-14c8-44c1-8e00-1f8572ce4a1a</uuid>
            <masterclipid>masterclip-189</masterclipid>
            <ismasterclip>TRUE</ismasterclip>
            <duration>720</duration>
            <in>0</in>
            <out>720</out>
            <name>Scene - Puppet man_0003.187.png</name>
            <rate>
              <timebase>24</timebase>
              <ntsc>FALSE</ntsc>
            </rate>
            <media>
              <video>
                <track>
                  <clipitem frameBlend="FALSE" id="clipitem-190">
                    <name>Scene - Puppet man_0003.187.png</name>
                    <masterclipid>masterclip-189</masterclipid>
                    <rate>
                      <timebase>24</timebase>
                      <ntsc>FALSE</ntsc>
                    </rate>
                    <alphatype>straight</alphatype>
                    <pixelaspectratio>square</pixelaspectratio>
                    <anamorphic>FALSE</anamorphic>
                    <file id="file-189">
                      <name>Scene - Puppet man_0003.187.png</name>
                      <pathurl>file://localhost/C:/Users/jmrey/OneDrive/Desktop/Programmin Stuff/Projects/conversation-simulator/resources/videos/Scene - Puppet man_0003/Scene - Puppet man_0003.187.png</pathurl>
                      <rate>
                        <timebase>24</timebase>
                        <ntsc>FALSE</ntsc>
                      </rate>
                      <duration>720</duration>
                      <timecode>
                        <rate>
                          <timebase>24</timebase>
                          <ntsc>FALSE</ntsc>
                        </rate>
                      </timecode>
                      <media>
                        <video>
                          <duration>1</duration>
                          <samplecharacteristics>
                            <anamorphic>FALSE</anamorphic>
                            <pixelaspectratio>square</pixelaspectratio>
                            <fielddominance>none</fielddominance>
                            <width>1920</width>
                            <height>1080</height>
                          </samplecharacteristics>
                        </video>
                      </media>
                    </file>
                  </clipitem>
                </track>
              </video>
            </media>
          </clip>
          <clip explodedTracks="true" frameBlend="FALSE" id="masterclip-190">
            <uuid>536c00e8-56d1-4287-ada9-01f34078809d</uuid>
            <masterclipid>masterclip-190</masterclipid>
            <ismasterclip>TRUE</ismasterclip>
            <duration>720</duration>
            <in>0</in>
            <out>720</out>
            <name>Scene - Puppet man_0003.188.png</name>
            <rate>
              <timebase>24</timebase>
              <ntsc>FALSE</ntsc>
            </rate>
            <media>
              <video>
                <track>
                  <clipitem frameBlend="FALSE" id="clipitem-191">
                    <name>Scene - Puppet man_0003.188.png</name>
                    <masterclipid>masterclip-190</masterclipid>
                    <rate>
                      <timebase>24</timebase>
                      <ntsc>FALSE</ntsc>
                    </rate>
                    <alphatype>straight</alphatype>
                    <pixelaspectratio>square</pixelaspectratio>
                    <anamorphic>FALSE</anamorphic>
                    <file id="file-190">
                      <name>Scene - Puppet man_0003.188.png</name>
                      <pathurl>file://localhost/C:/Users/jmrey/OneDrive/Desktop/Programmin Stuff/Projects/conversation-simulator/resources/videos/Scene - Puppet man_0003/Scene - Puppet man_0003.188.png</pathurl>
                      <rate>
                        <timebase>24</timebase>
                        <ntsc>FALSE</ntsc>
                      </rate>
                      <duration>720</duration>
                      <timecode>
                        <rate>
                          <timebase>24</timebase>
                          <ntsc>FALSE</ntsc>
                        </rate>
                      </timecode>
                      <media>
                        <video>
                          <duration>1</duration>
                          <samplecharacteristics>
                            <anamorphic>FALSE</anamorphic>
                            <pixelaspectratio>square</pixelaspectratio>
                            <fielddominance>none</fielddominance>
                            <width>1920</width>
                            <height>1080</height>
                          </samplecharacteristics>
                        </video>
                      </media>
                    </file>
                  </clipitem>
                </track>
              </video>
            </media>
          </clip>
          <clip explodedTracks="true" frameBlend="FALSE" id="masterclip-191">
            <uuid>1e9c03d5-ec33-4dd6-a164-18638577ff23</uuid>
            <masterclipid>masterclip-191</masterclipid>
            <ismasterclip>TRUE</ismasterclip>
            <duration>720</duration>
            <in>0</in>
            <out>720</out>
            <name>Scene - Puppet man_0003.189.png</name>
            <rate>
              <timebase>24</timebase>
              <ntsc>FALSE</ntsc>
            </rate>
            <media>
              <video>
                <track>
                  <clipitem frameBlend="FALSE" id="clipitem-192">
                    <name>Scene - Puppet man_0003.189.png</name>
                    <masterclipid>masterclip-191</masterclipid>
                    <rate>
                      <timebase>24</timebase>
                      <ntsc>FALSE</ntsc>
                    </rate>
                    <alphatype>straight</alphatype>
                    <pixelaspectratio>square</pixelaspectratio>
                    <anamorphic>FALSE</anamorphic>
                    <file id="file-191">
                      <name>Scene - Puppet man_0003.189.png</name>
                      <pathurl>file://localhost/C:/Users/jmrey/OneDrive/Desktop/Programmin Stuff/Projects/conversation-simulator/resources/videos/Scene - Puppet man_0003/Scene - Puppet man_0003.189.png</pathurl>
                      <rate>
                        <timebase>24</timebase>
                        <ntsc>FALSE</ntsc>
                      </rate>
                      <duration>720</duration>
                      <timecode>
                        <rate>
                          <timebase>24</timebase>
                          <ntsc>FALSE</ntsc>
                        </rate>
                      </timecode>
                      <media>
                        <video>
                          <duration>1</duration>
                          <samplecharacteristics>
                            <anamorphic>FALSE</anamorphic>
                            <pixelaspectratio>square</pixelaspectratio>
                            <fielddominance>none</fielddominance>
                            <width>1920</width>
                            <height>1080</height>
                          </samplecharacteristics>
                        </video>
                      </media>
                    </file>
                  </clipitem>
                </track>
              </video>
            </media>
          </clip>
          <clip explodedTracks="true" frameBlend="FALSE" id="masterclip-192">
            <uuid>ba3305eb-18ae-4fc7-9e5f-20d7d2ec37dc</uuid>
            <masterclipid>masterclip-192</masterclipid>
            <ismasterclip>TRUE</ismasterclip>
            <duration>720</duration>
            <in>0</in>
            <out>720</out>
            <name>Scene - Puppet man_0003.190.png</name>
            <rate>
              <timebase>24</timebase>
              <ntsc>FALSE</ntsc>
            </rate>
            <media>
              <video>
                <track>
                  <clipitem frameBlend="FALSE" id="clipitem-193">
                    <name>Scene - Puppet man_0003.190.png</name>
                    <masterclipid>masterclip-192</masterclipid>
                    <rate>
                      <timebase>24</timebase>
                      <ntsc>FALSE</ntsc>
                    </rate>
                    <alphatype>straight</alphatype>
                    <pixelaspectratio>square</pixelaspectratio>
                    <anamorphic>FALSE</anamorphic>
                    <file id="file-192">
                      <name>Scene - Puppet man_0003.190.png</name>
                      <pathurl>file://localhost/C:/Users/jmrey/OneDrive/Desktop/Programmin Stuff/Projects/conversation-simulator/resources/videos/Scene - Puppet man_0003/Scene - Puppet man_0003.190.png</pathurl>
                      <rate>
                        <timebase>24</timebase>
                        <ntsc>FALSE</ntsc>
                      </rate>
                      <duration>720</duration>
                      <timecode>
                        <rate>
                          <timebase>24</timebase>
                          <ntsc>FALSE</ntsc>
                        </rate>
                      </timecode>
                      <media>
                        <video>
                          <duration>1</duration>
                          <samplecharacteristics>
                            <anamorphic>FALSE</anamorphic>
                            <pixelaspectratio>square</pixelaspectratio>
                            <fielddominance>none</fielddominance>
                            <width>1920</width>
                            <height>1080</height>
                          </samplecharacteristics>
                        </video>
                      </media>
                    </file>
                  </clipitem>
                </track>
              </video>
            </media>
          </clip>
          <clip explodedTracks="true" frameBlend="FALSE" id="masterclip-193">
            <uuid>a227823c-6ab2-4f81-9d0c-c015b490cc4d</uuid>
            <masterclipid>masterclip-193</masterclipid>
            <ismasterclip>TRUE</ismasterclip>
            <duration>720</duration>
            <in>0</in>
            <out>720</out>
            <name>Scene - Puppet man_0003.191.png</name>
            <rate>
              <timebase>24</timebase>
              <ntsc>FALSE</ntsc>
            </rate>
            <media>
              <video>
                <track>
                  <clipitem frameBlend="FALSE" id="clipitem-194">
                    <name>Scene - Puppet man_0003.191.png</name>
                    <masterclipid>masterclip-193</masterclipid>
                    <rate>
                      <timebase>24</timebase>
                      <ntsc>FALSE</ntsc>
                    </rate>
                    <alphatype>straight</alphatype>
                    <pixelaspectratio>square</pixelaspectratio>
                    <anamorphic>FALSE</anamorphic>
                    <file id="file-193">
                      <name>Scene - Puppet man_0003.191.png</name>
                      <pathurl>file://localhost/C:/Users/jmrey/OneDrive/Desktop/Programmin Stuff/Projects/conversation-simulator/resources/videos/Scene - Puppet man_0003/Scene - Puppet man_0003.191.png</pathurl>
                      <rate>
                        <timebase>24</timebase>
                        <ntsc>FALSE</ntsc>
                      </rate>
                      <duration>720</duration>
                      <timecode>
                        <rate>
                          <timebase>24</timebase>
                          <ntsc>FALSE</ntsc>
                        </rate>
                      </timecode>
                      <media>
                        <video>
                          <duration>1</duration>
                          <samplecharacteristics>
                            <anamorphic>FALSE</anamorphic>
                            <pixelaspectratio>square</pixelaspectratio>
                            <fielddominance>none</fielddominance>
                            <width>1920</width>
                            <height>1080</height>
                          </samplecharacteristics>
                        </video>
                      </media>
                    </file>
                  </clipitem>
                </track>
              </video>
            </media>
          </clip>
          <clip explodedTracks="true" frameBlend="FALSE" id="masterclip-194">
            <uuid>31000ebc-1299-48bb-8c3c-b2c2ee7a0027</uuid>
            <masterclipid>masterclip-194</masterclipid>
            <ismasterclip>TRUE</ismasterclip>
            <duration>720</duration>
            <in>0</in>
            <out>720</out>
            <name>Scene - Puppet man_0003.192.png</name>
            <rate>
              <timebase>24</timebase>
              <ntsc>FALSE</ntsc>
            </rate>
            <media>
              <video>
                <track>
                  <clipitem frameBlend="FALSE" id="clipitem-195">
                    <name>Scene - Puppet man_0003.192.png</name>
                    <masterclipid>masterclip-194</masterclipid>
                    <rate>
                      <timebase>24</timebase>
                      <ntsc>FALSE</ntsc>
                    </rate>
                    <alphatype>straight</alphatype>
                    <pixelaspectratio>square</pixelaspectratio>
                    <anamorphic>FALSE</anamorphic>
                    <file id="file-194">
                      <name>Scene - Puppet man_0003.192.png</name>
                      <pathurl>file://localhost/C:/Users/jmrey/OneDrive/Desktop/Programmin Stuff/Projects/conversation-simulator/resources/videos/Scene - Puppet man_0003/Scene - Puppet man_0003.192.png</pathurl>
                      <rate>
                        <timebase>24</timebase>
                        <ntsc>FALSE</ntsc>
                      </rate>
                      <duration>720</duration>
                      <timecode>
                        <rate>
                          <timebase>24</timebase>
                          <ntsc>FALSE</ntsc>
                        </rate>
                      </timecode>
                      <media>
                        <video>
                          <duration>1</duration>
                          <samplecharacteristics>
                            <anamorphic>FALSE</anamorphic>
                            <pixelaspectratio>square</pixelaspectratio>
                            <fielddominance>none</fielddominance>
                            <width>1920</width>
                            <height>1080</height>
                          </samplecharacteristics>
                        </video>
                      </media>
                    </file>
                  </clipitem>
                </track>
              </video>
            </media>
          </clip>
          <clip explodedTracks="true" frameBlend="FALSE" id="masterclip-195">
            <uuid>9e33feb3-1191-4ee9-8207-7a03c32151f1</uuid>
            <masterclipid>masterclip-195</masterclipid>
            <ismasterclip>TRUE</ismasterclip>
            <duration>720</duration>
            <in>0</in>
            <out>720</out>
            <name>Scene - Puppet man_0003.193.png</name>
            <rate>
              <timebase>24</timebase>
              <ntsc>FALSE</ntsc>
            </rate>
            <media>
              <video>
                <track>
                  <clipitem frameBlend="FALSE" id="clipitem-196">
                    <name>Scene - Puppet man_0003.193.png</name>
                    <masterclipid>masterclip-195</masterclipid>
                    <rate>
                      <timebase>24</timebase>
                      <ntsc>FALSE</ntsc>
                    </rate>
                    <alphatype>straight</alphatype>
                    <pixelaspectratio>square</pixelaspectratio>
                    <anamorphic>FALSE</anamorphic>
                    <file id="file-195">
                      <name>Scene - Puppet man_0003.193.png</name>
                      <pathurl>file://localhost/C:/Users/jmrey/OneDrive/Desktop/Programmin Stuff/Projects/conversation-simulator/resources/videos/Scene - Puppet man_0003/Scene - Puppet man_0003.193.png</pathurl>
                      <rate>
                        <timebase>24</timebase>
                        <ntsc>FALSE</ntsc>
                      </rate>
                      <duration>720</duration>
                      <timecode>
                        <rate>
                          <timebase>24</timebase>
                          <ntsc>FALSE</ntsc>
                        </rate>
                      </timecode>
                      <media>
                        <video>
                          <duration>1</duration>
                          <samplecharacteristics>
                            <anamorphic>FALSE</anamorphic>
                            <pixelaspectratio>square</pixelaspectratio>
                            <fielddominance>none</fielddominance>
                            <width>1920</width>
                            <height>1080</height>
                          </samplecharacteristics>
                        </video>
                      </media>
                    </file>
                  </clipitem>
                </track>
              </video>
            </media>
          </clip>
          <clip explodedTracks="true" frameBlend="FALSE" id="masterclip-196">
            <uuid>9efb2818-e451-4de0-8bce-fd6d40b91dcf</uuid>
            <masterclipid>masterclip-196</masterclipid>
            <ismasterclip>TRUE</ismasterclip>
            <duration>720</duration>
            <in>0</in>
            <out>720</out>
            <name>Scene - Puppet man_0003.194.png</name>
            <rate>
              <timebase>24</timebase>
              <ntsc>FALSE</ntsc>
            </rate>
            <media>
              <video>
                <track>
                  <clipitem frameBlend="FALSE" id="clipitem-197">
                    <name>Scene - Puppet man_0003.194.png</name>
                    <masterclipid>masterclip-196</masterclipid>
                    <rate>
                      <timebase>24</timebase>
                      <ntsc>FALSE</ntsc>
                    </rate>
                    <alphatype>straight</alphatype>
                    <pixelaspectratio>square</pixelaspectratio>
                    <anamorphic>FALSE</anamorphic>
                    <file id="file-196">
                      <name>Scene - Puppet man_0003.194.png</name>
                      <pathurl>file://localhost/C:/Users/jmrey/OneDrive/Desktop/Programmin Stuff/Projects/conversation-simulator/resources/videos/Scene - Puppet man_0003/Scene - Puppet man_0003.194.png</pathurl>
                      <rate>
                        <timebase>24</timebase>
                        <ntsc>FALSE</ntsc>
                      </rate>
                      <duration>720</duration>
                      <timecode>
                        <rate>
                          <timebase>24</timebase>
                          <ntsc>FALSE</ntsc>
                        </rate>
                      </timecode>
                      <media>
                        <video>
                          <duration>1</duration>
                          <samplecharacteristics>
                            <anamorphic>FALSE</anamorphic>
                            <pixelaspectratio>square</pixelaspectratio>
                            <fielddominance>none</fielddominance>
                            <width>1920</width>
                            <height>1080</height>
                          </samplecharacteristics>
                        </video>
                      </media>
                    </file>
                  </clipitem>
                </track>
              </video>
            </media>
          </clip>
          <clip explodedTracks="true" frameBlend="FALSE" id="masterclip-197">
            <uuid>8e3f2c0e-40c7-4256-9c57-07013e4578be</uuid>
            <masterclipid>masterclip-197</masterclipid>
            <ismasterclip>TRUE</ismasterclip>
            <duration>720</duration>
            <in>0</in>
            <out>720</out>
            <name>Scene - Puppet man_0003.195.png</name>
            <rate>
              <timebase>24</timebase>
              <ntsc>FALSE</ntsc>
            </rate>
            <media>
              <video>
                <track>
                  <clipitem frameBlend="FALSE" id="clipitem-198">
                    <name>Scene - Puppet man_0003.195.png</name>
                    <masterclipid>masterclip-197</masterclipid>
                    <rate>
                      <timebase>24</timebase>
                      <ntsc>FALSE</ntsc>
                    </rate>
                    <alphatype>straight</alphatype>
                    <pixelaspectratio>square</pixelaspectratio>
                    <anamorphic>FALSE</anamorphic>
                    <file id="file-197">
                      <name>Scene - Puppet man_0003.195.png</name>
                      <pathurl>file://localhost/C:/Users/jmrey/OneDrive/Desktop/Programmin Stuff/Projects/conversation-simulator/resources/videos/Scene - Puppet man_0003/Scene - Puppet man_0003.195.png</pathurl>
                      <rate>
                        <timebase>24</timebase>
                        <ntsc>FALSE</ntsc>
                      </rate>
                      <duration>720</duration>
                      <timecode>
                        <rate>
                          <timebase>24</timebase>
                          <ntsc>FALSE</ntsc>
                        </rate>
                      </timecode>
                      <media>
                        <video>
                          <duration>1</duration>
                          <samplecharacteristics>
                            <anamorphic>FALSE</anamorphic>
                            <pixelaspectratio>square</pixelaspectratio>
                            <fielddominance>none</fielddominance>
                            <width>1920</width>
                            <height>1080</height>
                          </samplecharacteristics>
                        </video>
                      </media>
                    </file>
                  </clipitem>
                </track>
              </video>
            </media>
          </clip>
          <clip explodedTracks="true" frameBlend="FALSE" id="masterclip-198">
            <uuid>b7973b26-277b-4679-905e-37d85a347593</uuid>
            <masterclipid>masterclip-198</masterclipid>
            <ismasterclip>TRUE</ismasterclip>
            <duration>720</duration>
            <in>0</in>
            <out>720</out>
            <name>Scene - Puppet man_0003.196.png</name>
            <rate>
              <timebase>24</timebase>
              <ntsc>FALSE</ntsc>
            </rate>
            <media>
              <video>
                <track>
                  <clipitem frameBlend="FALSE" id="clipitem-199">
                    <name>Scene - Puppet man_0003.196.png</name>
                    <masterclipid>masterclip-198</masterclipid>
                    <rate>
                      <timebase>24</timebase>
                      <ntsc>FALSE</ntsc>
                    </rate>
                    <alphatype>straight</alphatype>
                    <pixelaspectratio>square</pixelaspectratio>
                    <anamorphic>FALSE</anamorphic>
                    <file id="file-198">
                      <name>Scene - Puppet man_0003.196.png</name>
                      <pathurl>file://localhost/C:/Users/jmrey/OneDrive/Desktop/Programmin Stuff/Projects/conversation-simulator/resources/videos/Scene - Puppet man_0003/Scene - Puppet man_0003.196.png</pathurl>
                      <rate>
                        <timebase>24</timebase>
                        <ntsc>FALSE</ntsc>
                      </rate>
                      <duration>720</duration>
                      <timecode>
                        <rate>
                          <timebase>24</timebase>
                          <ntsc>FALSE</ntsc>
                        </rate>
                      </timecode>
                      <media>
                        <video>
                          <duration>1</duration>
                          <samplecharacteristics>
                            <anamorphic>FALSE</anamorphic>
                            <pixelaspectratio>square</pixelaspectratio>
                            <fielddominance>none</fielddominance>
                            <width>1920</width>
                            <height>1080</height>
                          </samplecharacteristics>
                        </video>
                      </media>
                    </file>
                  </clipitem>
                </track>
              </video>
            </media>
          </clip>
          <clip explodedTracks="true" frameBlend="FALSE" id="masterclip-199">
            <uuid>14b5b25d-2aff-43ee-9766-e2ef3ad4d348</uuid>
            <masterclipid>masterclip-199</masterclipid>
            <ismasterclip>TRUE</ismasterclip>
            <duration>720</duration>
            <in>0</in>
            <out>720</out>
            <name>Scene - Puppet man_0003.197.png</name>
            <rate>
              <timebase>24</timebase>
              <ntsc>FALSE</ntsc>
            </rate>
            <media>
              <video>
                <track>
                  <clipitem frameBlend="FALSE" id="clipitem-200">
                    <name>Scene - Puppet man_0003.197.png</name>
                    <masterclipid>masterclip-199</masterclipid>
                    <rate>
                      <timebase>24</timebase>
                      <ntsc>FALSE</ntsc>
                    </rate>
                    <alphatype>straight</alphatype>
                    <pixelaspectratio>square</pixelaspectratio>
                    <anamorphic>FALSE</anamorphic>
                    <file id="file-199">
                      <name>Scene - Puppet man_0003.197.png</name>
                      <pathurl>file://localhost/C:/Users/jmrey/OneDrive/Desktop/Programmin Stuff/Projects/conversation-simulator/resources/videos/Scene - Puppet man_0003/Scene - Puppet man_0003.197.png</pathurl>
                      <rate>
                        <timebase>24</timebase>
                        <ntsc>FALSE</ntsc>
                      </rate>
                      <duration>720</duration>
                      <timecode>
                        <rate>
                          <timebase>24</timebase>
                          <ntsc>FALSE</ntsc>
                        </rate>
                      </timecode>
                      <media>
                        <video>
                          <duration>1</duration>
                          <samplecharacteristics>
                            <anamorphic>FALSE</anamorphic>
                            <pixelaspectratio>square</pixelaspectratio>
                            <fielddominance>none</fielddominance>
                            <width>1920</width>
                            <height>1080</height>
                          </samplecharacteristics>
                        </video>
                      </media>
                    </file>
                  </clipitem>
                </track>
              </video>
            </media>
          </clip>
          <clip explodedTracks="true" frameBlend="FALSE" id="masterclip-200">
            <uuid>f22b140c-62be-496c-956a-0ff2e21b7d9a</uuid>
            <masterclipid>masterclip-200</masterclipid>
            <ismasterclip>TRUE</ismasterclip>
            <duration>720</duration>
            <in>0</in>
            <out>720</out>
            <name>Scene - Puppet man_0003.198.png</name>
            <rate>
              <timebase>24</timebase>
              <ntsc>FALSE</ntsc>
            </rate>
            <media>
              <video>
                <track>
                  <clipitem frameBlend="FALSE" id="clipitem-201">
                    <name>Scene - Puppet man_0003.198.png</name>
                    <masterclipid>masterclip-200</masterclipid>
                    <rate>
                      <timebase>24</timebase>
                      <ntsc>FALSE</ntsc>
                    </rate>
                    <alphatype>straight</alphatype>
                    <pixelaspectratio>square</pixelaspectratio>
                    <anamorphic>FALSE</anamorphic>
                    <file id="file-200">
                      <name>Scene - Puppet man_0003.198.png</name>
                      <pathurl>file://localhost/C:/Users/jmrey/OneDrive/Desktop/Programmin Stuff/Projects/conversation-simulator/resources/videos/Scene - Puppet man_0003/Scene - Puppet man_0003.198.png</pathurl>
                      <rate>
                        <timebase>24</timebase>
                        <ntsc>FALSE</ntsc>
                      </rate>
                      <duration>720</duration>
                      <timecode>
                        <rate>
                          <timebase>24</timebase>
                          <ntsc>FALSE</ntsc>
                        </rate>
                      </timecode>
                      <media>
                        <video>
                          <duration>1</duration>
                          <samplecharacteristics>
                            <anamorphic>FALSE</anamorphic>
                            <pixelaspectratio>square</pixelaspectratio>
                            <fielddominance>none</fielddominance>
                            <width>1920</width>
                            <height>1080</height>
                          </samplecharacteristics>
                        </video>
                      </media>
                    </file>
                  </clipitem>
                </track>
              </video>
            </media>
          </clip>
          <clip explodedTracks="true" frameBlend="FALSE" id="masterclip-201">
            <uuid>31821ebc-1cec-4cf4-a250-b232fc2f5e19</uuid>
            <masterclipid>masterclip-201</masterclipid>
            <ismasterclip>TRUE</ismasterclip>
            <duration>720</duration>
            <in>0</in>
            <out>720</out>
            <name>Scene - Puppet man_0003.199.png</name>
            <rate>
              <timebase>24</timebase>
              <ntsc>FALSE</ntsc>
            </rate>
            <media>
              <video>
                <track>
                  <clipitem frameBlend="FALSE" id="clipitem-202">
                    <name>Scene - Puppet man_0003.199.png</name>
                    <masterclipid>masterclip-201</masterclipid>
                    <rate>
                      <timebase>24</timebase>
                      <ntsc>FALSE</ntsc>
                    </rate>
                    <alphatype>straight</alphatype>
                    <pixelaspectratio>square</pixelaspectratio>
                    <anamorphic>FALSE</anamorphic>
                    <file id="file-201">
                      <name>Scene - Puppet man_0003.199.png</name>
                      <pathurl>file://localhost/C:/Users/jmrey/OneDrive/Desktop/Programmin Stuff/Projects/conversation-simulator/resources/videos/Scene - Puppet man_0003/Scene - Puppet man_0003.199.png</pathurl>
                      <rate>
                        <timebase>24</timebase>
                        <ntsc>FALSE</ntsc>
                      </rate>
                      <duration>720</duration>
                      <timecode>
                        <rate>
                          <timebase>24</timebase>
                          <ntsc>FALSE</ntsc>
                        </rate>
                      </timecode>
                      <media>
                        <video>
                          <duration>1</duration>
                          <samplecharacteristics>
                            <anamorphic>FALSE</anamorphic>
                            <pixelaspectratio>square</pixelaspectratio>
                            <fielddominance>none</fielddominance>
                            <width>1920</width>
                            <height>1080</height>
                          </samplecharacteristics>
                        </video>
                      </media>
                    </file>
                  </clipitem>
                </track>
              </video>
            </media>
          </clip>
          <clip explodedTracks="true" frameBlend="FALSE" id="masterclip-202">
            <uuid>9d1b6984-ec67-4e54-a9e1-2fe467c6f341</uuid>
            <masterclipid>masterclip-202</masterclipid>
            <ismasterclip>TRUE</ismasterclip>
            <duration>720</duration>
            <in>0</in>
            <out>720</out>
            <name>Scene - Puppet man_0003.200.png</name>
            <rate>
              <timebase>24</timebase>
              <ntsc>FALSE</ntsc>
            </rate>
            <media>
              <video>
                <track>
                  <clipitem frameBlend="FALSE" id="clipitem-203">
                    <name>Scene - Puppet man_0003.200.png</name>
                    <masterclipid>masterclip-202</masterclipid>
                    <rate>
                      <timebase>24</timebase>
                      <ntsc>FALSE</ntsc>
                    </rate>
                    <alphatype>straight</alphatype>
                    <pixelaspectratio>square</pixelaspectratio>
                    <anamorphic>FALSE</anamorphic>
                    <file id="file-202">
                      <name>Scene - Puppet man_0003.200.png</name>
                      <pathurl>file://localhost/C:/Users/jmrey/OneDrive/Desktop/Programmin Stuff/Projects/conversation-simulator/resources/videos/Scene - Puppet man_0003/Scene - Puppet man_0003.200.png</pathurl>
                      <rate>
                        <timebase>24</timebase>
                        <ntsc>FALSE</ntsc>
                      </rate>
                      <duration>720</duration>
                      <timecode>
                        <rate>
                          <timebase>24</timebase>
                          <ntsc>FALSE</ntsc>
                        </rate>
                      </timecode>
                      <media>
                        <video>
                          <duration>1</duration>
                          <samplecharacteristics>
                            <anamorphic>FALSE</anamorphic>
                            <pixelaspectratio>square</pixelaspectratio>
                            <fielddominance>none</fielddominance>
                            <width>1920</width>
                            <height>1080</height>
                          </samplecharacteristics>
                        </video>
                      </media>
                    </file>
                  </clipitem>
                </track>
              </video>
            </media>
          </clip>
          <clip explodedTracks="true" frameBlend="FALSE" id="masterclip-203">
            <uuid>f1b1fa66-2d27-436e-b8b6-9dc45655bd23</uuid>
            <masterclipid>masterclip-203</masterclipid>
            <ismasterclip>TRUE</ismasterclip>
            <duration>720</duration>
            <in>0</in>
            <out>720</out>
            <name>Scene - Puppet man_0003.201.png</name>
            <rate>
              <timebase>24</timebase>
              <ntsc>FALSE</ntsc>
            </rate>
            <media>
              <video>
                <track>
                  <clipitem frameBlend="FALSE" id="clipitem-204">
                    <name>Scene - Puppet man_0003.201.png</name>
                    <masterclipid>masterclip-203</masterclipid>
                    <rate>
                      <timebase>24</timebase>
                      <ntsc>FALSE</ntsc>
                    </rate>
                    <alphatype>straight</alphatype>
                    <pixelaspectratio>square</pixelaspectratio>
                    <anamorphic>FALSE</anamorphic>
                    <file id="file-203">
                      <name>Scene - Puppet man_0003.201.png</name>
                      <pathurl>file://localhost/C:/Users/jmrey/OneDrive/Desktop/Programmin Stuff/Projects/conversation-simulator/resources/videos/Scene - Puppet man_0003/Scene - Puppet man_0003.201.png</pathurl>
                      <rate>
                        <timebase>24</timebase>
                        <ntsc>FALSE</ntsc>
                      </rate>
                      <duration>720</duration>
                      <timecode>
                        <rate>
                          <timebase>24</timebase>
                          <ntsc>FALSE</ntsc>
                        </rate>
                      </timecode>
                      <media>
                        <video>
                          <duration>1</duration>
                          <samplecharacteristics>
                            <anamorphic>FALSE</anamorphic>
                            <pixelaspectratio>square</pixelaspectratio>
                            <fielddominance>none</fielddominance>
                            <width>1920</width>
                            <height>1080</height>
                          </samplecharacteristics>
                        </video>
                      </media>
                    </file>
                  </clipitem>
                </track>
              </video>
            </media>
          </clip>
          <clip explodedTracks="true" frameBlend="FALSE" id="masterclip-204">
            <uuid>de5b4212-16b1-43f4-87b2-89edd849443e</uuid>
            <masterclipid>masterclip-204</masterclipid>
            <ismasterclip>TRUE</ismasterclip>
            <duration>720</duration>
            <in>0</in>
            <out>720</out>
            <name>Scene - Puppet man_0003.202.png</name>
            <rate>
              <timebase>24</timebase>
              <ntsc>FALSE</ntsc>
            </rate>
            <media>
              <video>
                <track>
                  <clipitem frameBlend="FALSE" id="clipitem-205">
                    <name>Scene - Puppet man_0003.202.png</name>
                    <masterclipid>masterclip-204</masterclipid>
                    <rate>
                      <timebase>24</timebase>
                      <ntsc>FALSE</ntsc>
                    </rate>
                    <alphatype>straight</alphatype>
                    <pixelaspectratio>square</pixelaspectratio>
                    <anamorphic>FALSE</anamorphic>
                    <file id="file-204">
                      <name>Scene - Puppet man_0003.202.png</name>
                      <pathurl>file://localhost/C:/Users/jmrey/OneDrive/Desktop/Programmin Stuff/Projects/conversation-simulator/resources/videos/Scene - Puppet man_0003/Scene - Puppet man_0003.202.png</pathurl>
                      <rate>
                        <timebase>24</timebase>
                        <ntsc>FALSE</ntsc>
                      </rate>
                      <duration>720</duration>
                      <timecode>
                        <rate>
                          <timebase>24</timebase>
                          <ntsc>FALSE</ntsc>
                        </rate>
                      </timecode>
                      <media>
                        <video>
                          <duration>1</duration>
                          <samplecharacteristics>
                            <anamorphic>FALSE</anamorphic>
                            <pixelaspectratio>square</pixelaspectratio>
                            <fielddominance>none</fielddominance>
                            <width>1920</width>
                            <height>1080</height>
                          </samplecharacteristics>
                        </video>
                      </media>
                    </file>
                  </clipitem>
                </track>
              </video>
            </media>
          </clip>
          <clip explodedTracks="true" frameBlend="FALSE" id="masterclip-205">
            <uuid>7138e28e-482c-4caf-98b5-2cf09fa7c1d7</uuid>
            <masterclipid>masterclip-205</masterclipid>
            <ismasterclip>TRUE</ismasterclip>
            <duration>720</duration>
            <in>0</in>
            <out>720</out>
            <name>Scene - Puppet man_0003.203.png</name>
            <rate>
              <timebase>24</timebase>
              <ntsc>FALSE</ntsc>
            </rate>
            <media>
              <video>
                <track>
                  <clipitem frameBlend="FALSE" id="clipitem-206">
                    <name>Scene - Puppet man_0003.203.png</name>
                    <masterclipid>masterclip-205</masterclipid>
                    <rate>
                      <timebase>24</timebase>
                      <ntsc>FALSE</ntsc>
                    </rate>
                    <alphatype>straight</alphatype>
                    <pixelaspectratio>square</pixelaspectratio>
                    <anamorphic>FALSE</anamorphic>
                    <file id="file-205">
                      <name>Scene - Puppet man_0003.203.png</name>
                      <pathurl>file://localhost/C:/Users/jmrey/OneDrive/Desktop/Programmin Stuff/Projects/conversation-simulator/resources/videos/Scene - Puppet man_0003/Scene - Puppet man_0003.203.png</pathurl>
                      <rate>
                        <timebase>24</timebase>
                        <ntsc>FALSE</ntsc>
                      </rate>
                      <duration>720</duration>
                      <timecode>
                        <rate>
                          <timebase>24</timebase>
                          <ntsc>FALSE</ntsc>
                        </rate>
                      </timecode>
                      <media>
                        <video>
                          <duration>1</duration>
                          <samplecharacteristics>
                            <anamorphic>FALSE</anamorphic>
                            <pixelaspectratio>square</pixelaspectratio>
                            <fielddominance>none</fielddominance>
                            <width>1920</width>
                            <height>1080</height>
                          </samplecharacteristics>
                        </video>
                      </media>
                    </file>
                  </clipitem>
                </track>
              </video>
            </media>
          </clip>
          <clip explodedTracks="true" frameBlend="FALSE" id="masterclip-206">
            <uuid>1a832614-2df4-4649-80f1-ab7016dd6eec</uuid>
            <masterclipid>masterclip-206</masterclipid>
            <ismasterclip>TRUE</ismasterclip>
            <duration>720</duration>
            <in>0</in>
            <out>720</out>
            <name>Scene - Puppet man_0003.204.png</name>
            <rate>
              <timebase>24</timebase>
              <ntsc>FALSE</ntsc>
            </rate>
            <media>
              <video>
                <track>
                  <clipitem frameBlend="FALSE" id="clipitem-207">
                    <name>Scene - Puppet man_0003.204.png</name>
                    <masterclipid>masterclip-206</masterclipid>
                    <rate>
                      <timebase>24</timebase>
                      <ntsc>FALSE</ntsc>
                    </rate>
                    <alphatype>straight</alphatype>
                    <pixelaspectratio>square</pixelaspectratio>
                    <anamorphic>FALSE</anamorphic>
                    <file id="file-206">
                      <name>Scene - Puppet man_0003.204.png</name>
                      <pathurl>file://localhost/C:/Users/jmrey/OneDrive/Desktop/Programmin Stuff/Projects/conversation-simulator/resources/videos/Scene - Puppet man_0003/Scene - Puppet man_0003.204.png</pathurl>
                      <rate>
                        <timebase>24</timebase>
                        <ntsc>FALSE</ntsc>
                      </rate>
                      <duration>720</duration>
                      <timecode>
                        <rate>
                          <timebase>24</timebase>
                          <ntsc>FALSE</ntsc>
                        </rate>
                      </timecode>
                      <media>
                        <video>
                          <duration>1</duration>
                          <samplecharacteristics>
                            <anamorphic>FALSE</anamorphic>
                            <pixelaspectratio>square</pixelaspectratio>
                            <fielddominance>none</fielddominance>
                            <width>1920</width>
                            <height>1080</height>
                          </samplecharacteristics>
                        </video>
                      </media>
                    </file>
                  </clipitem>
                </track>
              </video>
            </media>
          </clip>
          <clip explodedTracks="true" frameBlend="FALSE" id="masterclip-207">
            <uuid>bf9c9c48-4b8b-4964-bfa4-e1f6990a8c26</uuid>
            <masterclipid>masterclip-207</masterclipid>
            <ismasterclip>TRUE</ismasterclip>
            <duration>720</duration>
            <in>0</in>
            <out>720</out>
            <name>Scene - Puppet man_0003.205.png</name>
            <rate>
              <timebase>24</timebase>
              <ntsc>FALSE</ntsc>
            </rate>
            <media>
              <video>
                <track>
                  <clipitem frameBlend="FALSE" id="clipitem-208">
                    <name>Scene - Puppet man_0003.205.png</name>
                    <masterclipid>masterclip-207</masterclipid>
                    <rate>
                      <timebase>24</timebase>
                      <ntsc>FALSE</ntsc>
                    </rate>
                    <alphatype>straight</alphatype>
                    <pixelaspectratio>square</pixelaspectratio>
                    <anamorphic>FALSE</anamorphic>
                    <file id="file-207">
                      <name>Scene - Puppet man_0003.205.png</name>
                      <pathurl>file://localhost/C:/Users/jmrey/OneDrive/Desktop/Programmin Stuff/Projects/conversation-simulator/resources/videos/Scene - Puppet man_0003/Scene - Puppet man_0003.205.png</pathurl>
                      <rate>
                        <timebase>24</timebase>
                        <ntsc>FALSE</ntsc>
                      </rate>
                      <duration>720</duration>
                      <timecode>
                        <rate>
                          <timebase>24</timebase>
                          <ntsc>FALSE</ntsc>
                        </rate>
                      </timecode>
                      <media>
                        <video>
                          <duration>1</duration>
                          <samplecharacteristics>
                            <anamorphic>FALSE</anamorphic>
                            <pixelaspectratio>square</pixelaspectratio>
                            <fielddominance>none</fielddominance>
                            <width>1920</width>
                            <height>1080</height>
                          </samplecharacteristics>
                        </video>
                      </media>
                    </file>
                  </clipitem>
                </track>
              </video>
            </media>
          </clip>
          <clip explodedTracks="true" frameBlend="FALSE" id="masterclip-208">
            <uuid>b1a58bd7-0ae5-4643-866a-b369814b48a0</uuid>
            <masterclipid>masterclip-208</masterclipid>
            <ismasterclip>TRUE</ismasterclip>
            <duration>720</duration>
            <in>0</in>
            <out>720</out>
            <name>Scene - Puppet man_0003.206.png</name>
            <rate>
              <timebase>24</timebase>
              <ntsc>FALSE</ntsc>
            </rate>
            <media>
              <video>
                <track>
                  <clipitem frameBlend="FALSE" id="clipitem-209">
                    <name>Scene - Puppet man_0003.206.png</name>
                    <masterclipid>masterclip-208</masterclipid>
                    <rate>
                      <timebase>24</timebase>
                      <ntsc>FALSE</ntsc>
                    </rate>
                    <alphatype>straight</alphatype>
                    <pixelaspectratio>square</pixelaspectratio>
                    <anamorphic>FALSE</anamorphic>
                    <file id="file-208">
                      <name>Scene - Puppet man_0003.206.png</name>
                      <pathurl>file://localhost/C:/Users/jmrey/OneDrive/Desktop/Programmin Stuff/Projects/conversation-simulator/resources/videos/Scene - Puppet man_0003/Scene - Puppet man_0003.206.png</pathurl>
                      <rate>
                        <timebase>24</timebase>
                        <ntsc>FALSE</ntsc>
                      </rate>
                      <duration>720</duration>
                      <timecode>
                        <rate>
                          <timebase>24</timebase>
                          <ntsc>FALSE</ntsc>
                        </rate>
                      </timecode>
                      <media>
                        <video>
                          <duration>1</duration>
                          <samplecharacteristics>
                            <anamorphic>FALSE</anamorphic>
                            <pixelaspectratio>square</pixelaspectratio>
                            <fielddominance>none</fielddominance>
                            <width>1920</width>
                            <height>1080</height>
                          </samplecharacteristics>
                        </video>
                      </media>
                    </file>
                  </clipitem>
                </track>
              </video>
            </media>
          </clip>
          <clip explodedTracks="true" frameBlend="FALSE" id="masterclip-209">
            <uuid>c6b365a0-9d9e-4c51-82c3-a1bb553fca06</uuid>
            <masterclipid>masterclip-209</masterclipid>
            <ismasterclip>TRUE</ismasterclip>
            <duration>720</duration>
            <in>0</in>
            <out>720</out>
            <name>Scene - Puppet man_0003.207.png</name>
            <rate>
              <timebase>24</timebase>
              <ntsc>FALSE</ntsc>
            </rate>
            <media>
              <video>
                <track>
                  <clipitem frameBlend="FALSE" id="clipitem-210">
                    <name>Scene - Puppet man_0003.207.png</name>
                    <masterclipid>masterclip-209</masterclipid>
                    <rate>
                      <timebase>24</timebase>
                      <ntsc>FALSE</ntsc>
                    </rate>
                    <alphatype>straight</alphatype>
                    <pixelaspectratio>square</pixelaspectratio>
                    <anamorphic>FALSE</anamorphic>
                    <file id="file-209">
                      <name>Scene - Puppet man_0003.207.png</name>
                      <pathurl>file://localhost/C:/Users/jmrey/OneDrive/Desktop/Programmin Stuff/Projects/conversation-simulator/resources/videos/Scene - Puppet man_0003/Scene - Puppet man_0003.207.png</pathurl>
                      <rate>
                        <timebase>24</timebase>
                        <ntsc>FALSE</ntsc>
                      </rate>
                      <duration>720</duration>
                      <timecode>
                        <rate>
                          <timebase>24</timebase>
                          <ntsc>FALSE</ntsc>
                        </rate>
                      </timecode>
                      <media>
                        <video>
                          <duration>1</duration>
                          <samplecharacteristics>
                            <anamorphic>FALSE</anamorphic>
                            <pixelaspectratio>square</pixelaspectratio>
                            <fielddominance>none</fielddominance>
                            <width>1920</width>
                            <height>1080</height>
                          </samplecharacteristics>
                        </video>
                      </media>
                    </file>
                  </clipitem>
                </track>
              </video>
            </media>
          </clip>
          <clip explodedTracks="true" frameBlend="FALSE" id="masterclip-210">
            <uuid>8eca468c-87b5-4ebd-a066-65145719261d</uuid>
            <masterclipid>masterclip-210</masterclipid>
            <ismasterclip>TRUE</ismasterclip>
            <duration>720</duration>
            <in>0</in>
            <out>720</out>
            <name>Scene - Puppet man_0003.208.png</name>
            <rate>
              <timebase>24</timebase>
              <ntsc>FALSE</ntsc>
            </rate>
            <media>
              <video>
                <track>
                  <clipitem frameBlend="FALSE" id="clipitem-211">
                    <name>Scene - Puppet man_0003.208.png</name>
                    <masterclipid>masterclip-210</masterclipid>
                    <rate>
                      <timebase>24</timebase>
                      <ntsc>FALSE</ntsc>
                    </rate>
                    <alphatype>straight</alphatype>
                    <pixelaspectratio>square</pixelaspectratio>
                    <anamorphic>FALSE</anamorphic>
                    <file id="file-210">
                      <name>Scene - Puppet man_0003.208.png</name>
                      <pathurl>file://localhost/C:/Users/jmrey/OneDrive/Desktop/Programmin Stuff/Projects/conversation-simulator/resources/videos/Scene - Puppet man_0003/Scene - Puppet man_0003.208.png</pathurl>
                      <rate>
                        <timebase>24</timebase>
                        <ntsc>FALSE</ntsc>
                      </rate>
                      <duration>720</duration>
                      <timecode>
                        <rate>
                          <timebase>24</timebase>
                          <ntsc>FALSE</ntsc>
                        </rate>
                      </timecode>
                      <media>
                        <video>
                          <duration>1</duration>
                          <samplecharacteristics>
                            <anamorphic>FALSE</anamorphic>
                            <pixelaspectratio>square</pixelaspectratio>
                            <fielddominance>none</fielddominance>
                            <width>1920</width>
                            <height>1080</height>
                          </samplecharacteristics>
                        </video>
                      </media>
                    </file>
                  </clipitem>
                </track>
              </video>
            </media>
          </clip>
          <clip explodedTracks="true" frameBlend="FALSE" id="masterclip-211">
            <uuid>2900488b-3d3b-4e44-824b-c8665ddd465d</uuid>
            <masterclipid>masterclip-211</masterclipid>
            <ismasterclip>TRUE</ismasterclip>
            <duration>720</duration>
            <in>0</in>
            <out>720</out>
            <name>Scene - Puppet man_0003.209.png</name>
            <rate>
              <timebase>24</timebase>
              <ntsc>FALSE</ntsc>
            </rate>
            <media>
              <video>
                <track>
                  <clipitem frameBlend="FALSE" id="clipitem-212">
                    <name>Scene - Puppet man_0003.209.png</name>
                    <masterclipid>masterclip-211</masterclipid>
                    <rate>
                      <timebase>24</timebase>
                      <ntsc>FALSE</ntsc>
                    </rate>
                    <alphatype>straight</alphatype>
                    <pixelaspectratio>square</pixelaspectratio>
                    <anamorphic>FALSE</anamorphic>
                    <file id="file-211">
                      <name>Scene - Puppet man_0003.209.png</name>
                      <pathurl>file://localhost/C:/Users/jmrey/OneDrive/Desktop/Programmin Stuff/Projects/conversation-simulator/resources/videos/Scene - Puppet man_0003/Scene - Puppet man_0003.209.png</pathurl>
                      <rate>
                        <timebase>24</timebase>
                        <ntsc>FALSE</ntsc>
                      </rate>
                      <duration>720</duration>
                      <timecode>
                        <rate>
                          <timebase>24</timebase>
                          <ntsc>FALSE</ntsc>
                        </rate>
                      </timecode>
                      <media>
                        <video>
                          <duration>1</duration>
                          <samplecharacteristics>
                            <anamorphic>FALSE</anamorphic>
                            <pixelaspectratio>square</pixelaspectratio>
                            <fielddominance>none</fielddominance>
                            <width>1920</width>
                            <height>1080</height>
                          </samplecharacteristics>
                        </video>
                      </media>
                    </file>
                  </clipitem>
                </track>
              </video>
            </media>
          </clip>
          <clip explodedTracks="true" frameBlend="FALSE" id="masterclip-212">
            <uuid>a87ca197-e494-4089-9320-ff3755ca54c3</uuid>
            <masterclipid>masterclip-212</masterclipid>
            <ismasterclip>TRUE</ismasterclip>
            <duration>720</duration>
            <in>0</in>
            <out>720</out>
            <name>Scene - Puppet man_0003.210.png</name>
            <rate>
              <timebase>24</timebase>
              <ntsc>FALSE</ntsc>
            </rate>
            <media>
              <video>
                <track>
                  <clipitem frameBlend="FALSE" id="clipitem-213">
                    <name>Scene - Puppet man_0003.210.png</name>
                    <masterclipid>masterclip-212</masterclipid>
                    <rate>
                      <timebase>24</timebase>
                      <ntsc>FALSE</ntsc>
                    </rate>
                    <alphatype>straight</alphatype>
                    <pixelaspectratio>square</pixelaspectratio>
                    <anamorphic>FALSE</anamorphic>
                    <file id="file-212">
                      <name>Scene - Puppet man_0003.210.png</name>
                      <pathurl>file://localhost/C:/Users/jmrey/OneDrive/Desktop/Programmin Stuff/Projects/conversation-simulator/resources/videos/Scene - Puppet man_0003/Scene - Puppet man_0003.210.png</pathurl>
                      <rate>
                        <timebase>24</timebase>
                        <ntsc>FALSE</ntsc>
                      </rate>
                      <duration>720</duration>
                      <timecode>
                        <rate>
                          <timebase>24</timebase>
                          <ntsc>FALSE</ntsc>
                        </rate>
                      </timecode>
                      <media>
                        <video>
                          <duration>1</duration>
                          <samplecharacteristics>
                            <anamorphic>FALSE</anamorphic>
                            <pixelaspectratio>square</pixelaspectratio>
                            <fielddominance>none</fielddominance>
                            <width>1920</width>
                            <height>1080</height>
                          </samplecharacteristics>
                        </video>
                      </media>
                    </file>
                  </clipitem>
                </track>
              </video>
            </media>
          </clip>
          <clip explodedTracks="true" frameBlend="FALSE" id="masterclip-213">
            <uuid>df5641db-a893-4fb5-9049-6276fcc6696a</uuid>
            <masterclipid>masterclip-213</masterclipid>
            <ismasterclip>TRUE</ismasterclip>
            <duration>720</duration>
            <in>0</in>
            <out>720</out>
            <name>Scene - Puppet man_0003.211.png</name>
            <rate>
              <timebase>24</timebase>
              <ntsc>FALSE</ntsc>
            </rate>
            <media>
              <video>
                <track>
                  <clipitem frameBlend="FALSE" id="clipitem-214">
                    <name>Scene - Puppet man_0003.211.png</name>
                    <masterclipid>masterclip-213</masterclipid>
                    <rate>
                      <timebase>24</timebase>
                      <ntsc>FALSE</ntsc>
                    </rate>
                    <alphatype>straight</alphatype>
                    <pixelaspectratio>square</pixelaspectratio>
                    <anamorphic>FALSE</anamorphic>
                    <file id="file-213">
                      <name>Scene - Puppet man_0003.211.png</name>
                      <pathurl>file://localhost/C:/Users/jmrey/OneDrive/Desktop/Programmin Stuff/Projects/conversation-simulator/resources/videos/Scene - Puppet man_0003/Scene - Puppet man_0003.211.png</pathurl>
                      <rate>
                        <timebase>24</timebase>
                        <ntsc>FALSE</ntsc>
                      </rate>
                      <duration>720</duration>
                      <timecode>
                        <rate>
                          <timebase>24</timebase>
                          <ntsc>FALSE</ntsc>
                        </rate>
                      </timecode>
                      <media>
                        <video>
                          <duration>1</duration>
                          <samplecharacteristics>
                            <anamorphic>FALSE</anamorphic>
                            <pixelaspectratio>square</pixelaspectratio>
                            <fielddominance>none</fielddominance>
                            <width>1920</width>
                            <height>1080</height>
                          </samplecharacteristics>
                        </video>
                      </media>
                    </file>
                  </clipitem>
                </track>
              </video>
            </media>
          </clip>
          <clip explodedTracks="true" frameBlend="FALSE" id="masterclip-214">
            <uuid>a191b0fe-add5-4c6b-8cd4-bd95b2698338</uuid>
            <masterclipid>masterclip-214</masterclipid>
            <ismasterclip>TRUE</ismasterclip>
            <duration>720</duration>
            <in>0</in>
            <out>720</out>
            <name>Scene - Puppet man_0003.212.png</name>
            <rate>
              <timebase>24</timebase>
              <ntsc>FALSE</ntsc>
            </rate>
            <media>
              <video>
                <track>
                  <clipitem frameBlend="FALSE" id="clipitem-215">
                    <name>Scene - Puppet man_0003.212.png</name>
                    <masterclipid>masterclip-214</masterclipid>
                    <rate>
                      <timebase>24</timebase>
                      <ntsc>FALSE</ntsc>
                    </rate>
                    <alphatype>straight</alphatype>
                    <pixelaspectratio>square</pixelaspectratio>
                    <anamorphic>FALSE</anamorphic>
                    <file id="file-214">
                      <name>Scene - Puppet man_0003.212.png</name>
                      <pathurl>file://localhost/C:/Users/jmrey/OneDrive/Desktop/Programmin Stuff/Projects/conversation-simulator/resources/videos/Scene - Puppet man_0003/Scene - Puppet man_0003.212.png</pathurl>
                      <rate>
                        <timebase>24</timebase>
                        <ntsc>FALSE</ntsc>
                      </rate>
                      <duration>720</duration>
                      <timecode>
                        <rate>
                          <timebase>24</timebase>
                          <ntsc>FALSE</ntsc>
                        </rate>
                      </timecode>
                      <media>
                        <video>
                          <duration>1</duration>
                          <samplecharacteristics>
                            <anamorphic>FALSE</anamorphic>
                            <pixelaspectratio>square</pixelaspectratio>
                            <fielddominance>none</fielddominance>
                            <width>1920</width>
                            <height>1080</height>
                          </samplecharacteristics>
                        </video>
                      </media>
                    </file>
                  </clipitem>
                </track>
              </video>
            </media>
          </clip>
          <clip explodedTracks="true" frameBlend="FALSE" id="masterclip-215">
            <uuid>c6d69b6c-2766-4b82-8457-5b1025f3a879</uuid>
            <masterclipid>masterclip-215</masterclipid>
            <ismasterclip>TRUE</ismasterclip>
            <duration>720</duration>
            <in>0</in>
            <out>720</out>
            <name>Scene - Puppet man_0003.213.png</name>
            <rate>
              <timebase>24</timebase>
              <ntsc>FALSE</ntsc>
            </rate>
            <media>
              <video>
                <track>
                  <clipitem frameBlend="FALSE" id="clipitem-216">
                    <name>Scene - Puppet man_0003.213.png</name>
                    <masterclipid>masterclip-215</masterclipid>
                    <rate>
                      <timebase>24</timebase>
                      <ntsc>FALSE</ntsc>
                    </rate>
                    <alphatype>straight</alphatype>
                    <pixelaspectratio>square</pixelaspectratio>
                    <anamorphic>FALSE</anamorphic>
                    <file id="file-215">
                      <name>Scene - Puppet man_0003.213.png</name>
                      <pathurl>file://localhost/C:/Users/jmrey/OneDrive/Desktop/Programmin Stuff/Projects/conversation-simulator/resources/videos/Scene - Puppet man_0003/Scene - Puppet man_0003.213.png</pathurl>
                      <rate>
                        <timebase>24</timebase>
                        <ntsc>FALSE</ntsc>
                      </rate>
                      <duration>720</duration>
                      <timecode>
                        <rate>
                          <timebase>24</timebase>
                          <ntsc>FALSE</ntsc>
                        </rate>
                      </timecode>
                      <media>
                        <video>
                          <duration>1</duration>
                          <samplecharacteristics>
                            <anamorphic>FALSE</anamorphic>
                            <pixelaspectratio>square</pixelaspectratio>
                            <fielddominance>none</fielddominance>
                            <width>1920</width>
                            <height>1080</height>
                          </samplecharacteristics>
                        </video>
                      </media>
                    </file>
                  </clipitem>
                </track>
              </video>
            </media>
          </clip>
          <clip explodedTracks="true" frameBlend="FALSE" id="masterclip-216">
            <uuid>b372eb1d-3e58-4f85-a3b6-4970278f2172</uuid>
            <masterclipid>masterclip-216</masterclipid>
            <ismasterclip>TRUE</ismasterclip>
            <duration>720</duration>
            <in>0</in>
            <out>720</out>
            <name>Scene - Puppet man_0003.214.png</name>
            <rate>
              <timebase>24</timebase>
              <ntsc>FALSE</ntsc>
            </rate>
            <media>
              <video>
                <track>
                  <clipitem frameBlend="FALSE" id="clipitem-217">
                    <name>Scene - Puppet man_0003.214.png</name>
                    <masterclipid>masterclip-216</masterclipid>
                    <rate>
                      <timebase>24</timebase>
                      <ntsc>FALSE</ntsc>
                    </rate>
                    <alphatype>straight</alphatype>
                    <pixelaspectratio>square</pixelaspectratio>
                    <anamorphic>FALSE</anamorphic>
                    <file id="file-216">
                      <name>Scene - Puppet man_0003.214.png</name>
                      <pathurl>file://localhost/C:/Users/jmrey/OneDrive/Desktop/Programmin Stuff/Projects/conversation-simulator/resources/videos/Scene - Puppet man_0003/Scene - Puppet man_0003.214.png</pathurl>
                      <rate>
                        <timebase>24</timebase>
                        <ntsc>FALSE</ntsc>
                      </rate>
                      <duration>720</duration>
                      <timecode>
                        <rate>
                          <timebase>24</timebase>
                          <ntsc>FALSE</ntsc>
                        </rate>
                      </timecode>
                      <media>
                        <video>
                          <duration>1</duration>
                          <samplecharacteristics>
                            <anamorphic>FALSE</anamorphic>
                            <pixelaspectratio>square</pixelaspectratio>
                            <fielddominance>none</fielddominance>
                            <width>1920</width>
                            <height>1080</height>
                          </samplecharacteristics>
                        </video>
                      </media>
                    </file>
                  </clipitem>
                </track>
              </video>
            </media>
          </clip>
          <clip explodedTracks="true" frameBlend="FALSE" id="masterclip-217">
            <uuid>820eb34f-c2c5-4b03-a5cf-e56f8580b39f</uuid>
            <masterclipid>masterclip-217</masterclipid>
            <ismasterclip>TRUE</ismasterclip>
            <duration>720</duration>
            <in>0</in>
            <out>720</out>
            <name>Scene - Puppet man_0003.215.png</name>
            <rate>
              <timebase>24</timebase>
              <ntsc>FALSE</ntsc>
            </rate>
            <media>
              <video>
                <track>
                  <clipitem frameBlend="FALSE" id="clipitem-218">
                    <name>Scene - Puppet man_0003.215.png</name>
                    <masterclipid>masterclip-217</masterclipid>
                    <rate>
                      <timebase>24</timebase>
                      <ntsc>FALSE</ntsc>
                    </rate>
                    <alphatype>straight</alphatype>
                    <pixelaspectratio>square</pixelaspectratio>
                    <anamorphic>FALSE</anamorphic>
                    <file id="file-217">
                      <name>Scene - Puppet man_0003.215.png</name>
                      <pathurl>file://localhost/C:/Users/jmrey/OneDrive/Desktop/Programmin Stuff/Projects/conversation-simulator/resources/videos/Scene - Puppet man_0003/Scene - Puppet man_0003.215.png</pathurl>
                      <rate>
                        <timebase>24</timebase>
                        <ntsc>FALSE</ntsc>
                      </rate>
                      <duration>720</duration>
                      <timecode>
                        <rate>
                          <timebase>24</timebase>
                          <ntsc>FALSE</ntsc>
                        </rate>
                      </timecode>
                      <media>
                        <video>
                          <duration>1</duration>
                          <samplecharacteristics>
                            <anamorphic>FALSE</anamorphic>
                            <pixelaspectratio>square</pixelaspectratio>
                            <fielddominance>none</fielddominance>
                            <width>1920</width>
                            <height>1080</height>
                          </samplecharacteristics>
                        </video>
                      </media>
                    </file>
                  </clipitem>
                </track>
              </video>
            </media>
          </clip>
          <clip explodedTracks="true" frameBlend="FALSE" id="masterclip-218">
            <uuid>eab70701-ea02-40be-9564-42756b81af7d</uuid>
            <masterclipid>masterclip-218</masterclipid>
            <ismasterclip>TRUE</ismasterclip>
            <duration>720</duration>
            <in>0</in>
            <out>720</out>
            <name>Scene - Puppet man_0003.216.png</name>
            <rate>
              <timebase>24</timebase>
              <ntsc>FALSE</ntsc>
            </rate>
            <media>
              <video>
                <track>
                  <clipitem frameBlend="FALSE" id="clipitem-219">
                    <name>Scene - Puppet man_0003.216.png</name>
                    <masterclipid>masterclip-218</masterclipid>
                    <rate>
                      <timebase>24</timebase>
                      <ntsc>FALSE</ntsc>
                    </rate>
                    <alphatype>straight</alphatype>
                    <pixelaspectratio>square</pixelaspectratio>
                    <anamorphic>FALSE</anamorphic>
                    <file id="file-218">
                      <name>Scene - Puppet man_0003.216.png</name>
                      <pathurl>file://localhost/C:/Users/jmrey/OneDrive/Desktop/Programmin Stuff/Projects/conversation-simulator/resources/videos/Scene - Puppet man_0003/Scene - Puppet man_0003.216.png</pathurl>
                      <rate>
                        <timebase>24</timebase>
                        <ntsc>FALSE</ntsc>
                      </rate>
                      <duration>720</duration>
                      <timecode>
                        <rate>
                          <timebase>24</timebase>
                          <ntsc>FALSE</ntsc>
                        </rate>
                      </timecode>
                      <media>
                        <video>
                          <duration>1</duration>
                          <samplecharacteristics>
                            <anamorphic>FALSE</anamorphic>
                            <pixelaspectratio>square</pixelaspectratio>
                            <fielddominance>none</fielddominance>
                            <width>1920</width>
                            <height>1080</height>
                          </samplecharacteristics>
                        </video>
                      </media>
                    </file>
                  </clipitem>
                </track>
              </video>
            </media>
          </clip>
          <clip explodedTracks="true" frameBlend="FALSE" id="masterclip-219">
            <uuid>51bff6fd-537e-44d0-843d-96132c4b4351</uuid>
            <masterclipid>masterclip-219</masterclipid>
            <ismasterclip>TRUE</ismasterclip>
            <duration>720</duration>
            <in>0</in>
            <out>720</out>
            <name>Scene - Puppet man_0003.217.png</name>
            <rate>
              <timebase>24</timebase>
              <ntsc>FALSE</ntsc>
            </rate>
            <media>
              <video>
                <track>
                  <clipitem frameBlend="FALSE" id="clipitem-220">
                    <name>Scene - Puppet man_0003.217.png</name>
                    <masterclipid>masterclip-219</masterclipid>
                    <rate>
                      <timebase>24</timebase>
                      <ntsc>FALSE</ntsc>
                    </rate>
                    <alphatype>straight</alphatype>
                    <pixelaspectratio>square</pixelaspectratio>
                    <anamorphic>FALSE</anamorphic>
                    <file id="file-219">
                      <name>Scene - Puppet man_0003.217.png</name>
                      <pathurl>file://localhost/C:/Users/jmrey/OneDrive/Desktop/Programmin Stuff/Projects/conversation-simulator/resources/videos/Scene - Puppet man_0003/Scene - Puppet man_0003.217.png</pathurl>
                      <rate>
                        <timebase>24</timebase>
                        <ntsc>FALSE</ntsc>
                      </rate>
                      <duration>720</duration>
                      <timecode>
                        <rate>
                          <timebase>24</timebase>
                          <ntsc>FALSE</ntsc>
                        </rate>
                      </timecode>
                      <media>
                        <video>
                          <duration>1</duration>
                          <samplecharacteristics>
                            <anamorphic>FALSE</anamorphic>
                            <pixelaspectratio>square</pixelaspectratio>
                            <fielddominance>none</fielddominance>
                            <width>1920</width>
                            <height>1080</height>
                          </samplecharacteristics>
                        </video>
                      </media>
                    </file>
                  </clipitem>
                </track>
              </video>
            </media>
          </clip>
          <clip explodedTracks="true" frameBlend="FALSE" id="masterclip-220">
            <uuid>1802e71b-b207-4cfb-acbc-e65b45a1c4cf</uuid>
            <masterclipid>masterclip-220</masterclipid>
            <ismasterclip>TRUE</ismasterclip>
            <duration>720</duration>
            <in>0</in>
            <out>720</out>
            <name>Scene - Puppet man_0003.218.png</name>
            <rate>
              <timebase>24</timebase>
              <ntsc>FALSE</ntsc>
            </rate>
            <media>
              <video>
                <track>
                  <clipitem frameBlend="FALSE" id="clipitem-221">
                    <name>Scene - Puppet man_0003.218.png</name>
                    <masterclipid>masterclip-220</masterclipid>
                    <rate>
                      <timebase>24</timebase>
                      <ntsc>FALSE</ntsc>
                    </rate>
                    <alphatype>straight</alphatype>
                    <pixelaspectratio>square</pixelaspectratio>
                    <anamorphic>FALSE</anamorphic>
                    <file id="file-220">
                      <name>Scene - Puppet man_0003.218.png</name>
                      <pathurl>file://localhost/C:/Users/jmrey/OneDrive/Desktop/Programmin Stuff/Projects/conversation-simulator/resources/videos/Scene - Puppet man_0003/Scene - Puppet man_0003.218.png</pathurl>
                      <rate>
                        <timebase>24</timebase>
                        <ntsc>FALSE</ntsc>
                      </rate>
                      <duration>720</duration>
                      <timecode>
                        <rate>
                          <timebase>24</timebase>
                          <ntsc>FALSE</ntsc>
                        </rate>
                      </timecode>
                      <media>
                        <video>
                          <duration>1</duration>
                          <samplecharacteristics>
                            <anamorphic>FALSE</anamorphic>
                            <pixelaspectratio>square</pixelaspectratio>
                            <fielddominance>none</fielddominance>
                            <width>1920</width>
                            <height>1080</height>
                          </samplecharacteristics>
                        </video>
                      </media>
                    </file>
                  </clipitem>
                </track>
              </video>
            </media>
          </clip>
          <clip explodedTracks="true" frameBlend="FALSE" id="masterclip-221">
            <uuid>c821311b-6c05-4ae4-9ee1-b2c122943174</uuid>
            <masterclipid>masterclip-221</masterclipid>
            <ismasterclip>TRUE</ismasterclip>
            <duration>720</duration>
            <in>0</in>
            <out>720</out>
            <name>Scene - Puppet man_0003.219.png</name>
            <rate>
              <timebase>24</timebase>
              <ntsc>FALSE</ntsc>
            </rate>
            <media>
              <video>
                <track>
                  <clipitem frameBlend="FALSE" id="clipitem-222">
                    <name>Scene - Puppet man_0003.219.png</name>
                    <masterclipid>masterclip-221</masterclipid>
                    <rate>
                      <timebase>24</timebase>
                      <ntsc>FALSE</ntsc>
                    </rate>
                    <alphatype>straight</alphatype>
                    <pixelaspectratio>square</pixelaspectratio>
                    <anamorphic>FALSE</anamorphic>
                    <file id="file-221">
                      <name>Scene - Puppet man_0003.219.png</name>
                      <pathurl>file://localhost/C:/Users/jmrey/OneDrive/Desktop/Programmin Stuff/Projects/conversation-simulator/resources/videos/Scene - Puppet man_0003/Scene - Puppet man_0003.219.png</pathurl>
                      <rate>
                        <timebase>24</timebase>
                        <ntsc>FALSE</ntsc>
                      </rate>
                      <duration>720</duration>
                      <timecode>
                        <rate>
                          <timebase>24</timebase>
                          <ntsc>FALSE</ntsc>
                        </rate>
                      </timecode>
                      <media>
                        <video>
                          <duration>1</duration>
                          <samplecharacteristics>
                            <anamorphic>FALSE</anamorphic>
                            <pixelaspectratio>square</pixelaspectratio>
                            <fielddominance>none</fielddominance>
                            <width>1920</width>
                            <height>1080</height>
                          </samplecharacteristics>
                        </video>
                      </media>
                    </file>
                  </clipitem>
                </track>
              </video>
            </media>
          </clip>
          <clip explodedTracks="true" frameBlend="FALSE" id="masterclip-222">
            <uuid>77f5d432-02c3-4833-a750-cfb1e29dcc05</uuid>
            <masterclipid>masterclip-222</masterclipid>
            <ismasterclip>TRUE</ismasterclip>
            <duration>720</duration>
            <in>0</in>
            <out>720</out>
            <name>Scene - Puppet man_0003.220.png</name>
            <rate>
              <timebase>24</timebase>
              <ntsc>FALSE</ntsc>
            </rate>
            <media>
              <video>
                <track>
                  <clipitem frameBlend="FALSE" id="clipitem-223">
                    <name>Scene - Puppet man_0003.220.png</name>
                    <masterclipid>masterclip-222</masterclipid>
                    <rate>
                      <timebase>24</timebase>
                      <ntsc>FALSE</ntsc>
                    </rate>
                    <alphatype>straight</alphatype>
                    <pixelaspectratio>square</pixelaspectratio>
                    <anamorphic>FALSE</anamorphic>
                    <file id="file-222">
                      <name>Scene - Puppet man_0003.220.png</name>
                      <pathurl>file://localhost/C:/Users/jmrey/OneDrive/Desktop/Programmin Stuff/Projects/conversation-simulator/resources/videos/Scene - Puppet man_0003/Scene - Puppet man_0003.220.png</pathurl>
                      <rate>
                        <timebase>24</timebase>
                        <ntsc>FALSE</ntsc>
                      </rate>
                      <duration>720</duration>
                      <timecode>
                        <rate>
                          <timebase>24</timebase>
                          <ntsc>FALSE</ntsc>
                        </rate>
                      </timecode>
                      <media>
                        <video>
                          <duration>1</duration>
                          <samplecharacteristics>
                            <anamorphic>FALSE</anamorphic>
                            <pixelaspectratio>square</pixelaspectratio>
                            <fielddominance>none</fielddominance>
                            <width>1920</width>
                            <height>1080</height>
                          </samplecharacteristics>
                        </video>
                      </media>
                    </file>
                  </clipitem>
                </track>
              </video>
            </media>
          </clip>
          <clip explodedTracks="true" frameBlend="FALSE" id="masterclip-223">
            <uuid>d91840fc-3ccb-4a2c-bf94-896daa33939d</uuid>
            <masterclipid>masterclip-223</masterclipid>
            <ismasterclip>TRUE</ismasterclip>
            <duration>720</duration>
            <in>0</in>
            <out>720</out>
            <name>Scene - Puppet man_0003.221.png</name>
            <rate>
              <timebase>24</timebase>
              <ntsc>FALSE</ntsc>
            </rate>
            <media>
              <video>
                <track>
                  <clipitem frameBlend="FALSE" id="clipitem-224">
                    <name>Scene - Puppet man_0003.221.png</name>
                    <masterclipid>masterclip-223</masterclipid>
                    <rate>
                      <timebase>24</timebase>
                      <ntsc>FALSE</ntsc>
                    </rate>
                    <alphatype>straight</alphatype>
                    <pixelaspectratio>square</pixelaspectratio>
                    <anamorphic>FALSE</anamorphic>
                    <file id="file-223">
                      <name>Scene - Puppet man_0003.221.png</name>
                      <pathurl>file://localhost/C:/Users/jmrey/OneDrive/Desktop/Programmin Stuff/Projects/conversation-simulator/resources/videos/Scene - Puppet man_0003/Scene - Puppet man_0003.221.png</pathurl>
                      <rate>
                        <timebase>24</timebase>
                        <ntsc>FALSE</ntsc>
                      </rate>
                      <duration>720</duration>
                      <timecode>
                        <rate>
                          <timebase>24</timebase>
                          <ntsc>FALSE</ntsc>
                        </rate>
                      </timecode>
                      <media>
                        <video>
                          <duration>1</duration>
                          <samplecharacteristics>
                            <anamorphic>FALSE</anamorphic>
                            <pixelaspectratio>square</pixelaspectratio>
                            <fielddominance>none</fielddominance>
                            <width>1920</width>
                            <height>1080</height>
                          </samplecharacteristics>
                        </video>
                      </media>
                    </file>
                  </clipitem>
                </track>
              </video>
            </media>
          </clip>
          <clip explodedTracks="true" frameBlend="FALSE" id="masterclip-224">
            <uuid>6d7b1213-6ead-4195-b2ce-9d0b657ad721</uuid>
            <masterclipid>masterclip-224</masterclipid>
            <ismasterclip>TRUE</ismasterclip>
            <duration>720</duration>
            <in>0</in>
            <out>720</out>
            <name>Scene - Puppet man_0003.222.png</name>
            <rate>
              <timebase>24</timebase>
              <ntsc>FALSE</ntsc>
            </rate>
            <media>
              <video>
                <track>
                  <clipitem frameBlend="FALSE" id="clipitem-225">
                    <name>Scene - Puppet man_0003.222.png</name>
                    <masterclipid>masterclip-224</masterclipid>
                    <rate>
                      <timebase>24</timebase>
                      <ntsc>FALSE</ntsc>
                    </rate>
                    <alphatype>straight</alphatype>
                    <pixelaspectratio>square</pixelaspectratio>
                    <anamorphic>FALSE</anamorphic>
                    <file id="file-224">
                      <name>Scene - Puppet man_0003.222.png</name>
                      <pathurl>file://localhost/C:/Users/jmrey/OneDrive/Desktop/Programmin Stuff/Projects/conversation-simulator/resources/videos/Scene - Puppet man_0003/Scene - Puppet man_0003.222.png</pathurl>
                      <rate>
                        <timebase>24</timebase>
                        <ntsc>FALSE</ntsc>
                      </rate>
                      <duration>720</duration>
                      <timecode>
                        <rate>
                          <timebase>24</timebase>
                          <ntsc>FALSE</ntsc>
                        </rate>
                      </timecode>
                      <media>
                        <video>
                          <duration>1</duration>
                          <samplecharacteristics>
                            <anamorphic>FALSE</anamorphic>
                            <pixelaspectratio>square</pixelaspectratio>
                            <fielddominance>none</fielddominance>
                            <width>1920</width>
                            <height>1080</height>
                          </samplecharacteristics>
                        </video>
                      </media>
                    </file>
                  </clipitem>
                </track>
              </video>
            </media>
          </clip>
          <clip explodedTracks="true" frameBlend="FALSE" id="masterclip-225">
            <uuid>75f2fc7e-876b-465d-b741-ea64b8fee60b</uuid>
            <masterclipid>masterclip-225</masterclipid>
            <ismasterclip>TRUE</ismasterclip>
            <duration>720</duration>
            <in>0</in>
            <out>720</out>
            <name>Scene - Puppet man_0003.223.png</name>
            <rate>
              <timebase>24</timebase>
              <ntsc>FALSE</ntsc>
            </rate>
            <media>
              <video>
                <track>
                  <clipitem frameBlend="FALSE" id="clipitem-226">
                    <name>Scene - Puppet man_0003.223.png</name>
                    <masterclipid>masterclip-225</masterclipid>
                    <rate>
                      <timebase>24</timebase>
                      <ntsc>FALSE</ntsc>
                    </rate>
                    <alphatype>straight</alphatype>
                    <pixelaspectratio>square</pixelaspectratio>
                    <anamorphic>FALSE</anamorphic>
                    <file id="file-225">
                      <name>Scene - Puppet man_0003.223.png</name>
                      <pathurl>file://localhost/C:/Users/jmrey/OneDrive/Desktop/Programmin Stuff/Projects/conversation-simulator/resources/videos/Scene - Puppet man_0003/Scene - Puppet man_0003.223.png</pathurl>
                      <rate>
                        <timebase>24</timebase>
                        <ntsc>FALSE</ntsc>
                      </rate>
                      <duration>720</duration>
                      <timecode>
                        <rate>
                          <timebase>24</timebase>
                          <ntsc>FALSE</ntsc>
                        </rate>
                      </timecode>
                      <media>
                        <video>
                          <duration>1</duration>
                          <samplecharacteristics>
                            <anamorphic>FALSE</anamorphic>
                            <pixelaspectratio>square</pixelaspectratio>
                            <fielddominance>none</fielddominance>
                            <width>1920</width>
                            <height>1080</height>
                          </samplecharacteristics>
                        </video>
                      </media>
                    </file>
                  </clipitem>
                </track>
              </video>
            </media>
          </clip>
          <clip explodedTracks="true" frameBlend="FALSE" id="masterclip-226">
            <uuid>fed51654-a54d-4e1c-a696-da86b2ff6559</uuid>
            <masterclipid>masterclip-226</masterclipid>
            <ismasterclip>TRUE</ismasterclip>
            <duration>720</duration>
            <in>0</in>
            <out>720</out>
            <name>Scene - Puppet man_0003.224.png</name>
            <rate>
              <timebase>24</timebase>
              <ntsc>FALSE</ntsc>
            </rate>
            <media>
              <video>
                <track>
                  <clipitem frameBlend="FALSE" id="clipitem-227">
                    <name>Scene - Puppet man_0003.224.png</name>
                    <masterclipid>masterclip-226</masterclipid>
                    <rate>
                      <timebase>24</timebase>
                      <ntsc>FALSE</ntsc>
                    </rate>
                    <alphatype>straight</alphatype>
                    <pixelaspectratio>square</pixelaspectratio>
                    <anamorphic>FALSE</anamorphic>
                    <file id="file-226">
                      <name>Scene - Puppet man_0003.224.png</name>
                      <pathurl>file://localhost/C:/Users/jmrey/OneDrive/Desktop/Programmin Stuff/Projects/conversation-simulator/resources/videos/Scene - Puppet man_0003/Scene - Puppet man_0003.224.png</pathurl>
                      <rate>
                        <timebase>24</timebase>
                        <ntsc>FALSE</ntsc>
                      </rate>
                      <duration>720</duration>
                      <timecode>
                        <rate>
                          <timebase>24</timebase>
                          <ntsc>FALSE</ntsc>
                        </rate>
                      </timecode>
                      <media>
                        <video>
                          <duration>1</duration>
                          <samplecharacteristics>
                            <anamorphic>FALSE</anamorphic>
                            <pixelaspectratio>square</pixelaspectratio>
                            <fielddominance>none</fielddominance>
                            <width>1920</width>
                            <height>1080</height>
                          </samplecharacteristics>
                        </video>
                      </media>
                    </file>
                  </clipitem>
                </track>
              </video>
            </media>
          </clip>
          <clip explodedTracks="true" frameBlend="FALSE" id="masterclip-227">
            <uuid>a7c84a87-d44e-4408-8003-097b79b067a6</uuid>
            <masterclipid>masterclip-227</masterclipid>
            <ismasterclip>TRUE</ismasterclip>
            <duration>720</duration>
            <in>0</in>
            <out>720</out>
            <name>Scene - Puppet man_0003.225.png</name>
            <rate>
              <timebase>24</timebase>
              <ntsc>FALSE</ntsc>
            </rate>
            <media>
              <video>
                <track>
                  <clipitem frameBlend="FALSE" id="clipitem-228">
                    <name>Scene - Puppet man_0003.225.png</name>
                    <masterclipid>masterclip-227</masterclipid>
                    <rate>
                      <timebase>24</timebase>
                      <ntsc>FALSE</ntsc>
                    </rate>
                    <alphatype>straight</alphatype>
                    <pixelaspectratio>square</pixelaspectratio>
                    <anamorphic>FALSE</anamorphic>
                    <file id="file-227">
                      <name>Scene - Puppet man_0003.225.png</name>
                      <pathurl>file://localhost/C:/Users/jmrey/OneDrive/Desktop/Programmin Stuff/Projects/conversation-simulator/resources/videos/Scene - Puppet man_0003/Scene - Puppet man_0003.225.png</pathurl>
                      <rate>
                        <timebase>24</timebase>
                        <ntsc>FALSE</ntsc>
                      </rate>
                      <duration>720</duration>
                      <timecode>
                        <rate>
                          <timebase>24</timebase>
                          <ntsc>FALSE</ntsc>
                        </rate>
                      </timecode>
                      <media>
                        <video>
                          <duration>1</duration>
                          <samplecharacteristics>
                            <anamorphic>FALSE</anamorphic>
                            <pixelaspectratio>square</pixelaspectratio>
                            <fielddominance>none</fielddominance>
                            <width>1920</width>
                            <height>1080</height>
                          </samplecharacteristics>
                        </video>
                      </media>
                    </file>
                  </clipitem>
                </track>
              </video>
            </media>
          </clip>
          <clip explodedTracks="true" frameBlend="FALSE" id="masterclip-228">
            <uuid>5fe7b830-da5c-48aa-b65f-abb9d7f3d034</uuid>
            <masterclipid>masterclip-228</masterclipid>
            <ismasterclip>TRUE</ismasterclip>
            <duration>720</duration>
            <in>0</in>
            <out>720</out>
            <name>Scene - Puppet man_0003.226.png</name>
            <rate>
              <timebase>24</timebase>
              <ntsc>FALSE</ntsc>
            </rate>
            <media>
              <video>
                <track>
                  <clipitem frameBlend="FALSE" id="clipitem-229">
                    <name>Scene - Puppet man_0003.226.png</name>
                    <masterclipid>masterclip-228</masterclipid>
                    <rate>
                      <timebase>24</timebase>
                      <ntsc>FALSE</ntsc>
                    </rate>
                    <alphatype>straight</alphatype>
                    <pixelaspectratio>square</pixelaspectratio>
                    <anamorphic>FALSE</anamorphic>
                    <file id="file-228">
                      <name>Scene - Puppet man_0003.226.png</name>
                      <pathurl>file://localhost/C:/Users/jmrey/OneDrive/Desktop/Programmin Stuff/Projects/conversation-simulator/resources/videos/Scene - Puppet man_0003/Scene - Puppet man_0003.226.png</pathurl>
                      <rate>
                        <timebase>24</timebase>
                        <ntsc>FALSE</ntsc>
                      </rate>
                      <duration>720</duration>
                      <timecode>
                        <rate>
                          <timebase>24</timebase>
                          <ntsc>FALSE</ntsc>
                        </rate>
                      </timecode>
                      <media>
                        <video>
                          <duration>1</duration>
                          <samplecharacteristics>
                            <anamorphic>FALSE</anamorphic>
                            <pixelaspectratio>square</pixelaspectratio>
                            <fielddominance>none</fielddominance>
                            <width>1920</width>
                            <height>1080</height>
                          </samplecharacteristics>
                        </video>
                      </media>
                    </file>
                  </clipitem>
                </track>
              </video>
            </media>
          </clip>
          <clip explodedTracks="true" frameBlend="FALSE" id="masterclip-229">
            <uuid>88bad199-1279-4ff5-8de8-7bd93265fca6</uuid>
            <masterclipid>masterclip-229</masterclipid>
            <ismasterclip>TRUE</ismasterclip>
            <duration>720</duration>
            <in>0</in>
            <out>720</out>
            <name>Scene - Puppet man_0003.227.png</name>
            <rate>
              <timebase>24</timebase>
              <ntsc>FALSE</ntsc>
            </rate>
            <media>
              <video>
                <track>
                  <clipitem frameBlend="FALSE" id="clipitem-230">
                    <name>Scene - Puppet man_0003.227.png</name>
                    <masterclipid>masterclip-229</masterclipid>
                    <rate>
                      <timebase>24</timebase>
                      <ntsc>FALSE</ntsc>
                    </rate>
                    <alphatype>straight</alphatype>
                    <pixelaspectratio>square</pixelaspectratio>
                    <anamorphic>FALSE</anamorphic>
                    <file id="file-229">
                      <name>Scene - Puppet man_0003.227.png</name>
                      <pathurl>file://localhost/C:/Users/jmrey/OneDrive/Desktop/Programmin Stuff/Projects/conversation-simulator/resources/videos/Scene - Puppet man_0003/Scene - Puppet man_0003.227.png</pathurl>
                      <rate>
                        <timebase>24</timebase>
                        <ntsc>FALSE</ntsc>
                      </rate>
                      <duration>720</duration>
                      <timecode>
                        <rate>
                          <timebase>24</timebase>
                          <ntsc>FALSE</ntsc>
                        </rate>
                      </timecode>
                      <media>
                        <video>
                          <duration>1</duration>
                          <samplecharacteristics>
                            <anamorphic>FALSE</anamorphic>
                            <pixelaspectratio>square</pixelaspectratio>
                            <fielddominance>none</fielddominance>
                            <width>1920</width>
                            <height>1080</height>
                          </samplecharacteristics>
                        </video>
                      </media>
                    </file>
                  </clipitem>
                </track>
              </video>
            </media>
          </clip>
          <clip explodedTracks="true" frameBlend="FALSE" id="masterclip-230">
            <uuid>b1eca65f-14b6-443c-9a44-93c67386de39</uuid>
            <masterclipid>masterclip-230</masterclipid>
            <ismasterclip>TRUE</ismasterclip>
            <duration>720</duration>
            <in>0</in>
            <out>720</out>
            <name>Scene - Puppet man_0003.228.png</name>
            <rate>
              <timebase>24</timebase>
              <ntsc>FALSE</ntsc>
            </rate>
            <media>
              <video>
                <track>
                  <clipitem frameBlend="FALSE" id="clipitem-231">
                    <name>Scene - Puppet man_0003.228.png</name>
                    <masterclipid>masterclip-230</masterclipid>
                    <rate>
                      <timebase>24</timebase>
                      <ntsc>FALSE</ntsc>
                    </rate>
                    <alphatype>straight</alphatype>
                    <pixelaspectratio>square</pixelaspectratio>
                    <anamorphic>FALSE</anamorphic>
                    <file id="file-230">
                      <name>Scene - Puppet man_0003.228.png</name>
                      <pathurl>file://localhost/C:/Users/jmrey/OneDrive/Desktop/Programmin Stuff/Projects/conversation-simulator/resources/videos/Scene - Puppet man_0003/Scene - Puppet man_0003.228.png</pathurl>
                      <rate>
                        <timebase>24</timebase>
                        <ntsc>FALSE</ntsc>
                      </rate>
                      <duration>720</duration>
                      <timecode>
                        <rate>
                          <timebase>24</timebase>
                          <ntsc>FALSE</ntsc>
                        </rate>
                      </timecode>
                      <media>
                        <video>
                          <duration>1</duration>
                          <samplecharacteristics>
                            <anamorphic>FALSE</anamorphic>
                            <pixelaspectratio>square</pixelaspectratio>
                            <fielddominance>none</fielddominance>
                            <width>1920</width>
                            <height>1080</height>
                          </samplecharacteristics>
                        </video>
                      </media>
                    </file>
                  </clipitem>
                </track>
              </video>
            </media>
          </clip>
          <clip explodedTracks="true" frameBlend="FALSE" id="masterclip-231">
            <uuid>e73674de-3867-412a-960f-1de741b66e89</uuid>
            <masterclipid>masterclip-231</masterclipid>
            <ismasterclip>TRUE</ismasterclip>
            <duration>720</duration>
            <in>0</in>
            <out>720</out>
            <name>Scene - Puppet man_0003.229.png</name>
            <rate>
              <timebase>24</timebase>
              <ntsc>FALSE</ntsc>
            </rate>
            <media>
              <video>
                <track>
                  <clipitem frameBlend="FALSE" id="clipitem-232">
                    <name>Scene - Puppet man_0003.229.png</name>
                    <masterclipid>masterclip-231</masterclipid>
                    <rate>
                      <timebase>24</timebase>
                      <ntsc>FALSE</ntsc>
                    </rate>
                    <alphatype>straight</alphatype>
                    <pixelaspectratio>square</pixelaspectratio>
                    <anamorphic>FALSE</anamorphic>
                    <file id="file-231">
                      <name>Scene - Puppet man_0003.229.png</name>
                      <pathurl>file://localhost/C:/Users/jmrey/OneDrive/Desktop/Programmin Stuff/Projects/conversation-simulator/resources/videos/Scene - Puppet man_0003/Scene - Puppet man_0003.229.png</pathurl>
                      <rate>
                        <timebase>24</timebase>
                        <ntsc>FALSE</ntsc>
                      </rate>
                      <duration>720</duration>
                      <timecode>
                        <rate>
                          <timebase>24</timebase>
                          <ntsc>FALSE</ntsc>
                        </rate>
                      </timecode>
                      <media>
                        <video>
                          <duration>1</duration>
                          <samplecharacteristics>
                            <anamorphic>FALSE</anamorphic>
                            <pixelaspectratio>square</pixelaspectratio>
                            <fielddominance>none</fielddominance>
                            <width>1920</width>
                            <height>1080</height>
                          </samplecharacteristics>
                        </video>
                      </media>
                    </file>
                  </clipitem>
                </track>
              </video>
            </media>
          </clip>
          <clip explodedTracks="true" frameBlend="FALSE" id="masterclip-232">
            <uuid>52e0ee25-8338-4007-a06a-23fe2c2283a1</uuid>
            <masterclipid>masterclip-232</masterclipid>
            <ismasterclip>TRUE</ismasterclip>
            <duration>720</duration>
            <in>0</in>
            <out>720</out>
            <name>Scene - Puppet man_0003.230.png</name>
            <rate>
              <timebase>24</timebase>
              <ntsc>FALSE</ntsc>
            </rate>
            <media>
              <video>
                <track>
                  <clipitem frameBlend="FALSE" id="clipitem-233">
                    <name>Scene - Puppet man_0003.230.png</name>
                    <masterclipid>masterclip-232</masterclipid>
                    <rate>
                      <timebase>24</timebase>
                      <ntsc>FALSE</ntsc>
                    </rate>
                    <alphatype>straight</alphatype>
                    <pixelaspectratio>square</pixelaspectratio>
                    <anamorphic>FALSE</anamorphic>
                    <file id="file-232">
                      <name>Scene - Puppet man_0003.230.png</name>
                      <pathurl>file://localhost/C:/Users/jmrey/OneDrive/Desktop/Programmin Stuff/Projects/conversation-simulator/resources/videos/Scene - Puppet man_0003/Scene - Puppet man_0003.230.png</pathurl>
                      <rate>
                        <timebase>24</timebase>
                        <ntsc>FALSE</ntsc>
                      </rate>
                      <duration>720</duration>
                      <timecode>
                        <rate>
                          <timebase>24</timebase>
                          <ntsc>FALSE</ntsc>
                        </rate>
                      </timecode>
                      <media>
                        <video>
                          <duration>1</duration>
                          <samplecharacteristics>
                            <anamorphic>FALSE</anamorphic>
                            <pixelaspectratio>square</pixelaspectratio>
                            <fielddominance>none</fielddominance>
                            <width>1920</width>
                            <height>1080</height>
                          </samplecharacteristics>
                        </video>
                      </media>
                    </file>
                  </clipitem>
                </track>
              </video>
            </media>
          </clip>
          <clip explodedTracks="true" frameBlend="FALSE" id="masterclip-233">
            <uuid>1ac9c129-d77c-4ef5-a6dd-7579e843085f</uuid>
            <masterclipid>masterclip-233</masterclipid>
            <ismasterclip>TRUE</ismasterclip>
            <duration>720</duration>
            <in>0</in>
            <out>720</out>
            <name>Scene - Puppet man_0003.231.png</name>
            <rate>
              <timebase>24</timebase>
              <ntsc>FALSE</ntsc>
            </rate>
            <media>
              <video>
                <track>
                  <clipitem frameBlend="FALSE" id="clipitem-234">
                    <name>Scene - Puppet man_0003.231.png</name>
                    <masterclipid>masterclip-233</masterclipid>
                    <rate>
                      <timebase>24</timebase>
                      <ntsc>FALSE</ntsc>
                    </rate>
                    <alphatype>straight</alphatype>
                    <pixelaspectratio>square</pixelaspectratio>
                    <anamorphic>FALSE</anamorphic>
                    <file id="file-233">
                      <name>Scene - Puppet man_0003.231.png</name>
                      <pathurl>file://localhost/C:/Users/jmrey/OneDrive/Desktop/Programmin Stuff/Projects/conversation-simulator/resources/videos/Scene - Puppet man_0003/Scene - Puppet man_0003.231.png</pathurl>
                      <rate>
                        <timebase>24</timebase>
                        <ntsc>FALSE</ntsc>
                      </rate>
                      <duration>720</duration>
                      <timecode>
                        <rate>
                          <timebase>24</timebase>
                          <ntsc>FALSE</ntsc>
                        </rate>
                      </timecode>
                      <media>
                        <video>
                          <duration>1</duration>
                          <samplecharacteristics>
                            <anamorphic>FALSE</anamorphic>
                            <pixelaspectratio>square</pixelaspectratio>
                            <fielddominance>none</fielddominance>
                            <width>1920</width>
                            <height>1080</height>
                          </samplecharacteristics>
                        </video>
                      </media>
                    </file>
                  </clipitem>
                </track>
              </video>
            </media>
          </clip>
          <clip explodedTracks="true" frameBlend="FALSE" id="masterclip-234">
            <uuid>47c38b11-f0c9-4c03-bd6f-8122fc429c42</uuid>
            <masterclipid>masterclip-234</masterclipid>
            <ismasterclip>TRUE</ismasterclip>
            <duration>720</duration>
            <in>0</in>
            <out>720</out>
            <name>Scene - Puppet man_0003.232.png</name>
            <rate>
              <timebase>24</timebase>
              <ntsc>FALSE</ntsc>
            </rate>
            <media>
              <video>
                <track>
                  <clipitem frameBlend="FALSE" id="clipitem-235">
                    <name>Scene - Puppet man_0003.232.png</name>
                    <masterclipid>masterclip-234</masterclipid>
                    <rate>
                      <timebase>24</timebase>
                      <ntsc>FALSE</ntsc>
                    </rate>
                    <alphatype>straight</alphatype>
                    <pixelaspectratio>square</pixelaspectratio>
                    <anamorphic>FALSE</anamorphic>
                    <file id="file-234">
                      <name>Scene - Puppet man_0003.232.png</name>
                      <pathurl>file://localhost/C:/Users/jmrey/OneDrive/Desktop/Programmin Stuff/Projects/conversation-simulator/resources/videos/Scene - Puppet man_0003/Scene - Puppet man_0003.232.png</pathurl>
                      <rate>
                        <timebase>24</timebase>
                        <ntsc>FALSE</ntsc>
                      </rate>
                      <duration>720</duration>
                      <timecode>
                        <rate>
                          <timebase>24</timebase>
                          <ntsc>FALSE</ntsc>
                        </rate>
                      </timecode>
                      <media>
                        <video>
                          <duration>1</duration>
                          <samplecharacteristics>
                            <anamorphic>FALSE</anamorphic>
                            <pixelaspectratio>square</pixelaspectratio>
                            <fielddominance>none</fielddominance>
                            <width>1920</width>
                            <height>1080</height>
                          </samplecharacteristics>
                        </video>
                      </media>
                    </file>
                  </clipitem>
                </track>
              </video>
            </media>
          </clip>
          <clip explodedTracks="true" frameBlend="FALSE" id="masterclip-235">
            <uuid>f6fe1900-1fdd-4f23-bf0f-3dfba7bc9b2b</uuid>
            <masterclipid>masterclip-235</masterclipid>
            <ismasterclip>TRUE</ismasterclip>
            <duration>720</duration>
            <in>0</in>
            <out>720</out>
            <name>Scene - Puppet man_0003.233.png</name>
            <rate>
              <timebase>24</timebase>
              <ntsc>FALSE</ntsc>
            </rate>
            <media>
              <video>
                <track>
                  <clipitem frameBlend="FALSE" id="clipitem-236">
                    <name>Scene - Puppet man_0003.233.png</name>
                    <masterclipid>masterclip-235</masterclipid>
                    <rate>
                      <timebase>24</timebase>
                      <ntsc>FALSE</ntsc>
                    </rate>
                    <alphatype>straight</alphatype>
                    <pixelaspectratio>square</pixelaspectratio>
                    <anamorphic>FALSE</anamorphic>
                    <file id="file-235">
                      <name>Scene - Puppet man_0003.233.png</name>
                      <pathurl>file://localhost/C:/Users/jmrey/OneDrive/Desktop/Programmin Stuff/Projects/conversation-simulator/resources/videos/Scene - Puppet man_0003/Scene - Puppet man_0003.233.png</pathurl>
                      <rate>
                        <timebase>24</timebase>
                        <ntsc>FALSE</ntsc>
                      </rate>
                      <duration>720</duration>
                      <timecode>
                        <rate>
                          <timebase>24</timebase>
                          <ntsc>FALSE</ntsc>
                        </rate>
                      </timecode>
                      <media>
                        <video>
                          <duration>1</duration>
                          <samplecharacteristics>
                            <anamorphic>FALSE</anamorphic>
                            <pixelaspectratio>square</pixelaspectratio>
                            <fielddominance>none</fielddominance>
                            <width>1920</width>
                            <height>1080</height>
                          </samplecharacteristics>
                        </video>
                      </media>
                    </file>
                  </clipitem>
                </track>
              </video>
            </media>
          </clip>
          <clip explodedTracks="true" frameBlend="FALSE" id="masterclip-236">
            <uuid>a1708adb-11fb-4ade-a99b-59378cec0f3b</uuid>
            <masterclipid>masterclip-236</masterclipid>
            <ismasterclip>TRUE</ismasterclip>
            <duration>720</duration>
            <in>0</in>
            <out>720</out>
            <name>Scene - Puppet man_0003.234.png</name>
            <rate>
              <timebase>24</timebase>
              <ntsc>FALSE</ntsc>
            </rate>
            <media>
              <video>
                <track>
                  <clipitem frameBlend="FALSE" id="clipitem-237">
                    <name>Scene - Puppet man_0003.234.png</name>
                    <masterclipid>masterclip-236</masterclipid>
                    <rate>
                      <timebase>24</timebase>
                      <ntsc>FALSE</ntsc>
                    </rate>
                    <alphatype>straight</alphatype>
                    <pixelaspectratio>square</pixelaspectratio>
                    <anamorphic>FALSE</anamorphic>
                    <file id="file-236">
                      <name>Scene - Puppet man_0003.234.png</name>
                      <pathurl>file://localhost/C:/Users/jmrey/OneDrive/Desktop/Programmin Stuff/Projects/conversation-simulator/resources/videos/Scene - Puppet man_0003/Scene - Puppet man_0003.234.png</pathurl>
                      <rate>
                        <timebase>24</timebase>
                        <ntsc>FALSE</ntsc>
                      </rate>
                      <duration>720</duration>
                      <timecode>
                        <rate>
                          <timebase>24</timebase>
                          <ntsc>FALSE</ntsc>
                        </rate>
                      </timecode>
                      <media>
                        <video>
                          <duration>1</duration>
                          <samplecharacteristics>
                            <anamorphic>FALSE</anamorphic>
                            <pixelaspectratio>square</pixelaspectratio>
                            <fielddominance>none</fielddominance>
                            <width>1920</width>
                            <height>1080</height>
                          </samplecharacteristics>
                        </video>
                      </media>
                    </file>
                  </clipitem>
                </track>
              </video>
            </media>
          </clip>
          <clip explodedTracks="true" frameBlend="FALSE" id="masterclip-237">
            <uuid>28594d17-5440-4769-b52a-2a353c969893</uuid>
            <masterclipid>masterclip-237</masterclipid>
            <ismasterclip>TRUE</ismasterclip>
            <duration>720</duration>
            <in>0</in>
            <out>720</out>
            <name>Scene - Puppet man_0003.235.png</name>
            <rate>
              <timebase>24</timebase>
              <ntsc>FALSE</ntsc>
            </rate>
            <media>
              <video>
                <track>
                  <clipitem frameBlend="FALSE" id="clipitem-238">
                    <name>Scene - Puppet man_0003.235.png</name>
                    <masterclipid>masterclip-237</masterclipid>
                    <rate>
                      <timebase>24</timebase>
                      <ntsc>FALSE</ntsc>
                    </rate>
                    <alphatype>straight</alphatype>
                    <pixelaspectratio>square</pixelaspectratio>
                    <anamorphic>FALSE</anamorphic>
                    <file id="file-237">
                      <name>Scene - Puppet man_0003.235.png</name>
                      <pathurl>file://localhost/C:/Users/jmrey/OneDrive/Desktop/Programmin Stuff/Projects/conversation-simulator/resources/videos/Scene - Puppet man_0003/Scene - Puppet man_0003.235.png</pathurl>
                      <rate>
                        <timebase>24</timebase>
                        <ntsc>FALSE</ntsc>
                      </rate>
                      <duration>720</duration>
                      <timecode>
                        <rate>
                          <timebase>24</timebase>
                          <ntsc>FALSE</ntsc>
                        </rate>
                      </timecode>
                      <media>
                        <video>
                          <duration>1</duration>
                          <samplecharacteristics>
                            <anamorphic>FALSE</anamorphic>
                            <pixelaspectratio>square</pixelaspectratio>
                            <fielddominance>none</fielddominance>
                            <width>1920</width>
                            <height>1080</height>
                          </samplecharacteristics>
                        </video>
                      </media>
                    </file>
                  </clipitem>
                </track>
              </video>
            </media>
          </clip>
          <clip explodedTracks="true" frameBlend="FALSE" id="masterclip-238">
            <uuid>9ab659ef-f2aa-456f-9033-2b0cf2695577</uuid>
            <masterclipid>masterclip-238</masterclipid>
            <ismasterclip>TRUE</ismasterclip>
            <duration>720</duration>
            <in>0</in>
            <out>720</out>
            <name>Scene - Puppet man_0003.236.png</name>
            <rate>
              <timebase>24</timebase>
              <ntsc>FALSE</ntsc>
            </rate>
            <media>
              <video>
                <track>
                  <clipitem frameBlend="FALSE" id="clipitem-239">
                    <name>Scene - Puppet man_0003.236.png</name>
                    <masterclipid>masterclip-238</masterclipid>
                    <rate>
                      <timebase>24</timebase>
                      <ntsc>FALSE</ntsc>
                    </rate>
                    <alphatype>straight</alphatype>
                    <pixelaspectratio>square</pixelaspectratio>
                    <anamorphic>FALSE</anamorphic>
                    <file id="file-238">
                      <name>Scene - Puppet man_0003.236.png</name>
                      <pathurl>file://localhost/C:/Users/jmrey/OneDrive/Desktop/Programmin Stuff/Projects/conversation-simulator/resources/videos/Scene - Puppet man_0003/Scene - Puppet man_0003.236.png</pathurl>
                      <rate>
                        <timebase>24</timebase>
                        <ntsc>FALSE</ntsc>
                      </rate>
                      <duration>720</duration>
                      <timecode>
                        <rate>
                          <timebase>24</timebase>
                          <ntsc>FALSE</ntsc>
                        </rate>
                      </timecode>
                      <media>
                        <video>
                          <duration>1</duration>
                          <samplecharacteristics>
                            <anamorphic>FALSE</anamorphic>
                            <pixelaspectratio>square</pixelaspectratio>
                            <fielddominance>none</fielddominance>
                            <width>1920</width>
                            <height>1080</height>
                          </samplecharacteristics>
                        </video>
                      </media>
                    </file>
                  </clipitem>
                </track>
              </video>
            </media>
          </clip>
          <clip explodedTracks="true" frameBlend="FALSE" id="masterclip-239">
            <uuid>8d887d3d-2011-4255-bf7b-cf1b69ca2726</uuid>
            <masterclipid>masterclip-239</masterclipid>
            <ismasterclip>TRUE</ismasterclip>
            <duration>720</duration>
            <in>0</in>
            <out>720</out>
            <name>Scene - Puppet man_0003.237.png</name>
            <rate>
              <timebase>24</timebase>
              <ntsc>FALSE</ntsc>
            </rate>
            <media>
              <video>
                <track>
                  <clipitem frameBlend="FALSE" id="clipitem-240">
                    <name>Scene - Puppet man_0003.237.png</name>
                    <masterclipid>masterclip-239</masterclipid>
                    <rate>
                      <timebase>24</timebase>
                      <ntsc>FALSE</ntsc>
                    </rate>
                    <alphatype>straight</alphatype>
                    <pixelaspectratio>square</pixelaspectratio>
                    <anamorphic>FALSE</anamorphic>
                    <file id="file-239">
                      <name>Scene - Puppet man_0003.237.png</name>
                      <pathurl>file://localhost/C:/Users/jmrey/OneDrive/Desktop/Programmin Stuff/Projects/conversation-simulator/resources/videos/Scene - Puppet man_0003/Scene - Puppet man_0003.237.png</pathurl>
                      <rate>
                        <timebase>24</timebase>
                        <ntsc>FALSE</ntsc>
                      </rate>
                      <duration>720</duration>
                      <timecode>
                        <rate>
                          <timebase>24</timebase>
                          <ntsc>FALSE</ntsc>
                        </rate>
                      </timecode>
                      <media>
                        <video>
                          <duration>1</duration>
                          <samplecharacteristics>
                            <anamorphic>FALSE</anamorphic>
                            <pixelaspectratio>square</pixelaspectratio>
                            <fielddominance>none</fielddominance>
                            <width>1920</width>
                            <height>1080</height>
                          </samplecharacteristics>
                        </video>
                      </media>
                    </file>
                  </clipitem>
                </track>
              </video>
            </media>
          </clip>
          <clip explodedTracks="true" frameBlend="FALSE" id="masterclip-240">
            <uuid>4fdc4bce-0267-4a37-9685-ef42c3d1cc5c</uuid>
            <masterclipid>masterclip-240</masterclipid>
            <ismasterclip>TRUE</ismasterclip>
            <duration>720</duration>
            <in>0</in>
            <out>720</out>
            <name>Scene - Puppet man_0003.238.png</name>
            <rate>
              <timebase>24</timebase>
              <ntsc>FALSE</ntsc>
            </rate>
            <media>
              <video>
                <track>
                  <clipitem frameBlend="FALSE" id="clipitem-241">
                    <name>Scene - Puppet man_0003.238.png</name>
                    <masterclipid>masterclip-240</masterclipid>
                    <rate>
                      <timebase>24</timebase>
                      <ntsc>FALSE</ntsc>
                    </rate>
                    <alphatype>straight</alphatype>
                    <pixelaspectratio>square</pixelaspectratio>
                    <anamorphic>FALSE</anamorphic>
                    <file id="file-240">
                      <name>Scene - Puppet man_0003.238.png</name>
                      <pathurl>file://localhost/C:/Users/jmrey/OneDrive/Desktop/Programmin Stuff/Projects/conversation-simulator/resources/videos/Scene - Puppet man_0003/Scene - Puppet man_0003.238.png</pathurl>
                      <rate>
                        <timebase>24</timebase>
                        <ntsc>FALSE</ntsc>
                      </rate>
                      <duration>720</duration>
                      <timecode>
                        <rate>
                          <timebase>24</timebase>
                          <ntsc>FALSE</ntsc>
                        </rate>
                      </timecode>
                      <media>
                        <video>
                          <duration>1</duration>
                          <samplecharacteristics>
                            <anamorphic>FALSE</anamorphic>
                            <pixelaspectratio>square</pixelaspectratio>
                            <fielddominance>none</fielddominance>
                            <width>1920</width>
                            <height>1080</height>
                          </samplecharacteristics>
                        </video>
                      </media>
                    </file>
                  </clipitem>
                </track>
              </video>
            </media>
          </clip>
          <clip explodedTracks="true" frameBlend="FALSE" id="masterclip-241">
            <uuid>786c5a40-3bdc-4672-a44e-e9d760da4d22</uuid>
            <masterclipid>masterclip-241</masterclipid>
            <ismasterclip>TRUE</ismasterclip>
            <duration>720</duration>
            <in>0</in>
            <out>720</out>
            <name>Scene - Puppet man_0003.239.png</name>
            <rate>
              <timebase>24</timebase>
              <ntsc>FALSE</ntsc>
            </rate>
            <media>
              <video>
                <track>
                  <clipitem frameBlend="FALSE" id="clipitem-242">
                    <name>Scene - Puppet man_0003.239.png</name>
                    <masterclipid>masterclip-241</masterclipid>
                    <rate>
                      <timebase>24</timebase>
                      <ntsc>FALSE</ntsc>
                    </rate>
                    <alphatype>straight</alphatype>
                    <pixelaspectratio>square</pixelaspectratio>
                    <anamorphic>FALSE</anamorphic>
                    <file id="file-241">
                      <name>Scene - Puppet man_0003.239.png</name>
                      <pathurl>file://localhost/C:/Users/jmrey/OneDrive/Desktop/Programmin Stuff/Projects/conversation-simulator/resources/videos/Scene - Puppet man_0003/Scene - Puppet man_0003.239.png</pathurl>
                      <rate>
                        <timebase>24</timebase>
                        <ntsc>FALSE</ntsc>
                      </rate>
                      <duration>720</duration>
                      <timecode>
                        <rate>
                          <timebase>24</timebase>
                          <ntsc>FALSE</ntsc>
                        </rate>
                      </timecode>
                      <media>
                        <video>
                          <duration>1</duration>
                          <samplecharacteristics>
                            <anamorphic>FALSE</anamorphic>
                            <pixelaspectratio>square</pixelaspectratio>
                            <fielddominance>none</fielddominance>
                            <width>1920</width>
                            <height>1080</height>
                          </samplecharacteristics>
                        </video>
                      </media>
                    </file>
                  </clipitem>
                </track>
              </video>
            </media>
          </clip>
          <clip explodedTracks="true" frameBlend="FALSE" id="masterclip-242">
            <uuid>e6eae543-f90e-40b6-8660-32aaa868f9cf</uuid>
            <masterclipid>masterclip-242</masterclipid>
            <ismasterclip>TRUE</ismasterclip>
            <duration>720</duration>
            <in>0</in>
            <out>720</out>
            <name>Scene - Puppet man_0003.240.png</name>
            <rate>
              <timebase>24</timebase>
              <ntsc>FALSE</ntsc>
            </rate>
            <media>
              <video>
                <track>
                  <clipitem frameBlend="FALSE" id="clipitem-243">
                    <name>Scene - Puppet man_0003.240.png</name>
                    <masterclipid>masterclip-242</masterclipid>
                    <rate>
                      <timebase>24</timebase>
                      <ntsc>FALSE</ntsc>
                    </rate>
                    <alphatype>straight</alphatype>
                    <pixelaspectratio>square</pixelaspectratio>
                    <anamorphic>FALSE</anamorphic>
                    <file id="file-242">
                      <name>Scene - Puppet man_0003.240.png</name>
                      <pathurl>file://localhost/C:/Users/jmrey/OneDrive/Desktop/Programmin Stuff/Projects/conversation-simulator/resources/videos/Scene - Puppet man_0003/Scene - Puppet man_0003.240.png</pathurl>
                      <rate>
                        <timebase>24</timebase>
                        <ntsc>FALSE</ntsc>
                      </rate>
                      <duration>720</duration>
                      <timecode>
                        <rate>
                          <timebase>24</timebase>
                          <ntsc>FALSE</ntsc>
                        </rate>
                      </timecode>
                      <media>
                        <video>
                          <duration>1</duration>
                          <samplecharacteristics>
                            <anamorphic>FALSE</anamorphic>
                            <pixelaspectratio>square</pixelaspectratio>
                            <fielddominance>none</fielddominance>
                            <width>1920</width>
                            <height>1080</height>
                          </samplecharacteristics>
                        </video>
                      </media>
                    </file>
                  </clipitem>
                </track>
              </video>
            </media>
          </clip>
          <clip explodedTracks="true" frameBlend="FALSE" id="masterclip-243">
            <uuid>4017f230-9e39-4a4d-959d-7ae5b811d19a</uuid>
            <masterclipid>masterclip-243</masterclipid>
            <ismasterclip>TRUE</ismasterclip>
            <duration>720</duration>
            <in>0</in>
            <out>720</out>
            <name>Scene - Puppet man_0003.241.png</name>
            <rate>
              <timebase>24</timebase>
              <ntsc>FALSE</ntsc>
            </rate>
            <media>
              <video>
                <track>
                  <clipitem frameBlend="FALSE" id="clipitem-244">
                    <name>Scene - Puppet man_0003.241.png</name>
                    <masterclipid>masterclip-243</masterclipid>
                    <rate>
                      <timebase>24</timebase>
                      <ntsc>FALSE</ntsc>
                    </rate>
                    <alphatype>straight</alphatype>
                    <pixelaspectratio>square</pixelaspectratio>
                    <anamorphic>FALSE</anamorphic>
                    <file id="file-243">
                      <name>Scene - Puppet man_0003.241.png</name>
                      <pathurl>file://localhost/C:/Users/jmrey/OneDrive/Desktop/Programmin Stuff/Projects/conversation-simulator/resources/videos/Scene - Puppet man_0003/Scene - Puppet man_0003.241.png</pathurl>
                      <rate>
                        <timebase>24</timebase>
                        <ntsc>FALSE</ntsc>
                      </rate>
                      <duration>720</duration>
                      <timecode>
                        <rate>
                          <timebase>24</timebase>
                          <ntsc>FALSE</ntsc>
                        </rate>
                      </timecode>
                      <media>
                        <video>
                          <duration>1</duration>
                          <samplecharacteristics>
                            <anamorphic>FALSE</anamorphic>
                            <pixelaspectratio>square</pixelaspectratio>
                            <fielddominance>none</fielddominance>
                            <width>1920</width>
                            <height>1080</height>
                          </samplecharacteristics>
                        </video>
                      </media>
                    </file>
                  </clipitem>
                </track>
              </video>
            </media>
          </clip>
          <clip explodedTracks="true" frameBlend="FALSE" id="masterclip-244">
            <uuid>253face5-94d4-4116-8b85-49161a3d3128</uuid>
            <masterclipid>masterclip-244</masterclipid>
            <ismasterclip>TRUE</ismasterclip>
            <duration>720</duration>
            <in>0</in>
            <out>720</out>
            <name>Scene - Puppet man_0003.242.png</name>
            <rate>
              <timebase>24</timebase>
              <ntsc>FALSE</ntsc>
            </rate>
            <media>
              <video>
                <track>
                  <clipitem frameBlend="FALSE" id="clipitem-245">
                    <name>Scene - Puppet man_0003.242.png</name>
                    <masterclipid>masterclip-244</masterclipid>
                    <rate>
                      <timebase>24</timebase>
                      <ntsc>FALSE</ntsc>
                    </rate>
                    <alphatype>straight</alphatype>
                    <pixelaspectratio>square</pixelaspectratio>
                    <anamorphic>FALSE</anamorphic>
                    <file id="file-244">
                      <name>Scene - Puppet man_0003.242.png</name>
                      <pathurl>file://localhost/C:/Users/jmrey/OneDrive/Desktop/Programmin Stuff/Projects/conversation-simulator/resources/videos/Scene - Puppet man_0003/Scene - Puppet man_0003.242.png</pathurl>
                      <rate>
                        <timebase>24</timebase>
                        <ntsc>FALSE</ntsc>
                      </rate>
                      <duration>720</duration>
                      <timecode>
                        <rate>
                          <timebase>24</timebase>
                          <ntsc>FALSE</ntsc>
                        </rate>
                      </timecode>
                      <media>
                        <video>
                          <duration>1</duration>
                          <samplecharacteristics>
                            <anamorphic>FALSE</anamorphic>
                            <pixelaspectratio>square</pixelaspectratio>
                            <fielddominance>none</fielddominance>
                            <width>1920</width>
                            <height>1080</height>
                          </samplecharacteristics>
                        </video>
                      </media>
                    </file>
                  </clipitem>
                </track>
              </video>
            </media>
          </clip>
          <clip explodedTracks="true" frameBlend="FALSE" id="masterclip-245">
            <uuid>cba56b11-175d-48f7-b7c0-2655d9714ea8</uuid>
            <masterclipid>masterclip-245</masterclipid>
            <ismasterclip>TRUE</ismasterclip>
            <duration>720</duration>
            <in>0</in>
            <out>720</out>
            <name>Scene - Puppet man_0003.243.png</name>
            <rate>
              <timebase>24</timebase>
              <ntsc>FALSE</ntsc>
            </rate>
            <media>
              <video>
                <track>
                  <clipitem frameBlend="FALSE" id="clipitem-246">
                    <name>Scene - Puppet man_0003.243.png</name>
                    <masterclipid>masterclip-245</masterclipid>
                    <rate>
                      <timebase>24</timebase>
                      <ntsc>FALSE</ntsc>
                    </rate>
                    <alphatype>straight</alphatype>
                    <pixelaspectratio>square</pixelaspectratio>
                    <anamorphic>FALSE</anamorphic>
                    <file id="file-245">
                      <name>Scene - Puppet man_0003.243.png</name>
                      <pathurl>file://localhost/C:/Users/jmrey/OneDrive/Desktop/Programmin Stuff/Projects/conversation-simulator/resources/videos/Scene - Puppet man_0003/Scene - Puppet man_0003.243.png</pathurl>
                      <rate>
                        <timebase>24</timebase>
                        <ntsc>FALSE</ntsc>
                      </rate>
                      <duration>720</duration>
                      <timecode>
                        <rate>
                          <timebase>24</timebase>
                          <ntsc>FALSE</ntsc>
                        </rate>
                      </timecode>
                      <media>
                        <video>
                          <duration>1</duration>
                          <samplecharacteristics>
                            <anamorphic>FALSE</anamorphic>
                            <pixelaspectratio>square</pixelaspectratio>
                            <fielddominance>none</fielddominance>
                            <width>1920</width>
                            <height>1080</height>
                          </samplecharacteristics>
                        </video>
                      </media>
                    </file>
                  </clipitem>
                </track>
              </video>
            </media>
          </clip>
          <clip explodedTracks="true" frameBlend="FALSE" id="masterclip-246">
            <uuid>b14d1a72-40ed-414f-bbf7-b309c0a88cef</uuid>
            <masterclipid>masterclip-246</masterclipid>
            <ismasterclip>TRUE</ismasterclip>
            <duration>720</duration>
            <in>0</in>
            <out>720</out>
            <name>Scene - Puppet man_0003.244.png</name>
            <rate>
              <timebase>24</timebase>
              <ntsc>FALSE</ntsc>
            </rate>
            <media>
              <video>
                <track>
                  <clipitem frameBlend="FALSE" id="clipitem-247">
                    <name>Scene - Puppet man_0003.244.png</name>
                    <masterclipid>masterclip-246</masterclipid>
                    <rate>
                      <timebase>24</timebase>
                      <ntsc>FALSE</ntsc>
                    </rate>
                    <alphatype>straight</alphatype>
                    <pixelaspectratio>square</pixelaspectratio>
                    <anamorphic>FALSE</anamorphic>
                    <file id="file-246">
                      <name>Scene - Puppet man_0003.244.png</name>
                      <pathurl>file://localhost/C:/Users/jmrey/OneDrive/Desktop/Programmin Stuff/Projects/conversation-simulator/resources/videos/Scene - Puppet man_0003/Scene - Puppet man_0003.244.png</pathurl>
                      <rate>
                        <timebase>24</timebase>
                        <ntsc>FALSE</ntsc>
                      </rate>
                      <duration>720</duration>
                      <timecode>
                        <rate>
                          <timebase>24</timebase>
                          <ntsc>FALSE</ntsc>
                        </rate>
                      </timecode>
                      <media>
                        <video>
                          <duration>1</duration>
                          <samplecharacteristics>
                            <anamorphic>FALSE</anamorphic>
                            <pixelaspectratio>square</pixelaspectratio>
                            <fielddominance>none</fielddominance>
                            <width>1920</width>
                            <height>1080</height>
                          </samplecharacteristics>
                        </video>
                      </media>
                    </file>
                  </clipitem>
                </track>
              </video>
            </media>
          </clip>
          <clip explodedTracks="true" frameBlend="FALSE" id="masterclip-247">
            <uuid>d777f4a6-030d-4a0b-ae84-40dd2686960d</uuid>
            <masterclipid>masterclip-247</masterclipid>
            <ismasterclip>TRUE</ismasterclip>
            <duration>720</duration>
            <in>0</in>
            <out>720</out>
            <name>Scene - Puppet man_0003.245.png</name>
            <rate>
              <timebase>24</timebase>
              <ntsc>FALSE</ntsc>
            </rate>
            <media>
              <video>
                <track>
                  <clipitem frameBlend="FALSE" id="clipitem-248">
                    <name>Scene - Puppet man_0003.245.png</name>
                    <masterclipid>masterclip-247</masterclipid>
                    <rate>
                      <timebase>24</timebase>
                      <ntsc>FALSE</ntsc>
                    </rate>
                    <alphatype>straight</alphatype>
                    <pixelaspectratio>square</pixelaspectratio>
                    <anamorphic>FALSE</anamorphic>
                    <file id="file-247">
                      <name>Scene - Puppet man_0003.245.png</name>
                      <pathurl>file://localhost/C:/Users/jmrey/OneDrive/Desktop/Programmin Stuff/Projects/conversation-simulator/resources/videos/Scene - Puppet man_0003/Scene - Puppet man_0003.245.png</pathurl>
                      <rate>
                        <timebase>24</timebase>
                        <ntsc>FALSE</ntsc>
                      </rate>
                      <duration>720</duration>
                      <timecode>
                        <rate>
                          <timebase>24</timebase>
                          <ntsc>FALSE</ntsc>
                        </rate>
                      </timecode>
                      <media>
                        <video>
                          <duration>1</duration>
                          <samplecharacteristics>
                            <anamorphic>FALSE</anamorphic>
                            <pixelaspectratio>square</pixelaspectratio>
                            <fielddominance>none</fielddominance>
                            <width>1920</width>
                            <height>1080</height>
                          </samplecharacteristics>
                        </video>
                      </media>
                    </file>
                  </clipitem>
                </track>
              </video>
            </media>
          </clip>
          <clip explodedTracks="true" frameBlend="FALSE" id="masterclip-248">
            <uuid>69aebe51-86ac-4990-8bd5-53aa26c5e21e</uuid>
            <masterclipid>masterclip-248</masterclipid>
            <ismasterclip>TRUE</ismasterclip>
            <duration>720</duration>
            <in>0</in>
            <out>720</out>
            <name>Scene - Puppet man_0003.246.png</name>
            <rate>
              <timebase>24</timebase>
              <ntsc>FALSE</ntsc>
            </rate>
            <media>
              <video>
                <track>
                  <clipitem frameBlend="FALSE" id="clipitem-249">
                    <name>Scene - Puppet man_0003.246.png</name>
                    <masterclipid>masterclip-248</masterclipid>
                    <rate>
                      <timebase>24</timebase>
                      <ntsc>FALSE</ntsc>
                    </rate>
                    <alphatype>straight</alphatype>
                    <pixelaspectratio>square</pixelaspectratio>
                    <anamorphic>FALSE</anamorphic>
                    <file id="file-248">
                      <name>Scene - Puppet man_0003.246.png</name>
                      <pathurl>file://localhost/C:/Users/jmrey/OneDrive/Desktop/Programmin Stuff/Projects/conversation-simulator/resources/videos/Scene - Puppet man_0003/Scene - Puppet man_0003.246.png</pathurl>
                      <rate>
                        <timebase>24</timebase>
                        <ntsc>FALSE</ntsc>
                      </rate>
                      <duration>720</duration>
                      <timecode>
                        <rate>
                          <timebase>24</timebase>
                          <ntsc>FALSE</ntsc>
                        </rate>
                      </timecode>
                      <media>
                        <video>
                          <duration>1</duration>
                          <samplecharacteristics>
                            <anamorphic>FALSE</anamorphic>
                            <pixelaspectratio>square</pixelaspectratio>
                            <fielddominance>none</fielddominance>
                            <width>1920</width>
                            <height>1080</height>
                          </samplecharacteristics>
                        </video>
                      </media>
                    </file>
                  </clipitem>
                </track>
              </video>
            </media>
          </clip>
          <clip explodedTracks="true" frameBlend="FALSE" id="masterclip-249">
            <uuid>2371bdb5-10bf-4749-8728-9137a679b681</uuid>
            <masterclipid>masterclip-249</masterclipid>
            <ismasterclip>TRUE</ismasterclip>
            <duration>720</duration>
            <in>0</in>
            <out>720</out>
            <name>Scene - Puppet man_0003.247.png</name>
            <rate>
              <timebase>24</timebase>
              <ntsc>FALSE</ntsc>
            </rate>
            <media>
              <video>
                <track>
                  <clipitem frameBlend="FALSE" id="clipitem-250">
                    <name>Scene - Puppet man_0003.247.png</name>
                    <masterclipid>masterclip-249</masterclipid>
                    <rate>
                      <timebase>24</timebase>
                      <ntsc>FALSE</ntsc>
                    </rate>
                    <alphatype>straight</alphatype>
                    <pixelaspectratio>square</pixelaspectratio>
                    <anamorphic>FALSE</anamorphic>
                    <file id="file-249">
                      <name>Scene - Puppet man_0003.247.png</name>
                      <pathurl>file://localhost/C:/Users/jmrey/OneDrive/Desktop/Programmin Stuff/Projects/conversation-simulator/resources/videos/Scene - Puppet man_0003/Scene - Puppet man_0003.247.png</pathurl>
                      <rate>
                        <timebase>24</timebase>
                        <ntsc>FALSE</ntsc>
                      </rate>
                      <duration>720</duration>
                      <timecode>
                        <rate>
                          <timebase>24</timebase>
                          <ntsc>FALSE</ntsc>
                        </rate>
                      </timecode>
                      <media>
                        <video>
                          <duration>1</duration>
                          <samplecharacteristics>
                            <anamorphic>FALSE</anamorphic>
                            <pixelaspectratio>square</pixelaspectratio>
                            <fielddominance>none</fielddominance>
                            <width>1920</width>
                            <height>1080</height>
                          </samplecharacteristics>
                        </video>
                      </media>
                    </file>
                  </clipitem>
                </track>
              </video>
            </media>
          </clip>
          <clip explodedTracks="true" frameBlend="FALSE" id="masterclip-250">
            <uuid>b640f335-8f0a-4eb5-adf1-a552f49f42c1</uuid>
            <masterclipid>masterclip-250</masterclipid>
            <ismasterclip>TRUE</ismasterclip>
            <duration>720</duration>
            <in>0</in>
            <out>720</out>
            <name>Scene - Puppet man_0003.248.png</name>
            <rate>
              <timebase>24</timebase>
              <ntsc>FALSE</ntsc>
            </rate>
            <media>
              <video>
                <track>
                  <clipitem frameBlend="FALSE" id="clipitem-251">
                    <name>Scene - Puppet man_0003.248.png</name>
                    <masterclipid>masterclip-250</masterclipid>
                    <rate>
                      <timebase>24</timebase>
                      <ntsc>FALSE</ntsc>
                    </rate>
                    <alphatype>straight</alphatype>
                    <pixelaspectratio>square</pixelaspectratio>
                    <anamorphic>FALSE</anamorphic>
                    <file id="file-250">
                      <name>Scene - Puppet man_0003.248.png</name>
                      <pathurl>file://localhost/C:/Users/jmrey/OneDrive/Desktop/Programmin Stuff/Projects/conversation-simulator/resources/videos/Scene - Puppet man_0003/Scene - Puppet man_0003.248.png</pathurl>
                      <rate>
                        <timebase>24</timebase>
                        <ntsc>FALSE</ntsc>
                      </rate>
                      <duration>720</duration>
                      <timecode>
                        <rate>
                          <timebase>24</timebase>
                          <ntsc>FALSE</ntsc>
                        </rate>
                      </timecode>
                      <media>
                        <video>
                          <duration>1</duration>
                          <samplecharacteristics>
                            <anamorphic>FALSE</anamorphic>
                            <pixelaspectratio>square</pixelaspectratio>
                            <fielddominance>none</fielddominance>
                            <width>1920</width>
                            <height>1080</height>
                          </samplecharacteristics>
                        </video>
                      </media>
                    </file>
                  </clipitem>
                </track>
              </video>
            </media>
          </clip>
          <clip explodedTracks="true" frameBlend="FALSE" id="masterclip-251">
            <uuid>ecea4d47-2c1f-4487-89a4-b5b35f40155b</uuid>
            <masterclipid>masterclip-251</masterclipid>
            <ismasterclip>TRUE</ismasterclip>
            <duration>720</duration>
            <in>0</in>
            <out>720</out>
            <name>Scene - Puppet man_0003.249.png</name>
            <rate>
              <timebase>24</timebase>
              <ntsc>FALSE</ntsc>
            </rate>
            <media>
              <video>
                <track>
                  <clipitem frameBlend="FALSE" id="clipitem-252">
                    <name>Scene - Puppet man_0003.249.png</name>
                    <masterclipid>masterclip-251</masterclipid>
                    <rate>
                      <timebase>24</timebase>
                      <ntsc>FALSE</ntsc>
                    </rate>
                    <alphatype>straight</alphatype>
                    <pixelaspectratio>square</pixelaspectratio>
                    <anamorphic>FALSE</anamorphic>
                    <file id="file-251">
                      <name>Scene - Puppet man_0003.249.png</name>
                      <pathurl>file://localhost/C:/Users/jmrey/OneDrive/Desktop/Programmin Stuff/Projects/conversation-simulator/resources/videos/Scene - Puppet man_0003/Scene - Puppet man_0003.249.png</pathurl>
                      <rate>
                        <timebase>24</timebase>
                        <ntsc>FALSE</ntsc>
                      </rate>
                      <duration>720</duration>
                      <timecode>
                        <rate>
                          <timebase>24</timebase>
                          <ntsc>FALSE</ntsc>
                        </rate>
                      </timecode>
                      <media>
                        <video>
                          <duration>1</duration>
                          <samplecharacteristics>
                            <anamorphic>FALSE</anamorphic>
                            <pixelaspectratio>square</pixelaspectratio>
                            <fielddominance>none</fielddominance>
                            <width>1920</width>
                            <height>1080</height>
                          </samplecharacteristics>
                        </video>
                      </media>
                    </file>
                  </clipitem>
                </track>
              </video>
            </media>
          </clip>
          <clip explodedTracks="true" frameBlend="FALSE" id="masterclip-252">
            <uuid>19a04180-68cd-40ca-a030-d53f4a9078d7</uuid>
            <masterclipid>masterclip-252</masterclipid>
            <ismasterclip>TRUE</ismasterclip>
            <duration>720</duration>
            <in>0</in>
            <out>720</out>
            <name>Scene - Puppet man_0003.250.png</name>
            <rate>
              <timebase>24</timebase>
              <ntsc>FALSE</ntsc>
            </rate>
            <media>
              <video>
                <track>
                  <clipitem frameBlend="FALSE" id="clipitem-253">
                    <name>Scene - Puppet man_0003.250.png</name>
                    <masterclipid>masterclip-252</masterclipid>
                    <rate>
                      <timebase>24</timebase>
                      <ntsc>FALSE</ntsc>
                    </rate>
                    <alphatype>straight</alphatype>
                    <pixelaspectratio>square</pixelaspectratio>
                    <anamorphic>FALSE</anamorphic>
                    <file id="file-252">
                      <name>Scene - Puppet man_0003.250.png</name>
                      <pathurl>file://localhost/C:/Users/jmrey/OneDrive/Desktop/Programmin Stuff/Projects/conversation-simulator/resources/videos/Scene - Puppet man_0003/Scene - Puppet man_0003.250.png</pathurl>
                      <rate>
                        <timebase>24</timebase>
                        <ntsc>FALSE</ntsc>
                      </rate>
                      <duration>720</duration>
                      <timecode>
                        <rate>
                          <timebase>24</timebase>
                          <ntsc>FALSE</ntsc>
                        </rate>
                      </timecode>
                      <media>
                        <video>
                          <duration>1</duration>
                          <samplecharacteristics>
                            <anamorphic>FALSE</anamorphic>
                            <pixelaspectratio>square</pixelaspectratio>
                            <fielddominance>none</fielddominance>
                            <width>1920</width>
                            <height>1080</height>
                          </samplecharacteristics>
                        </video>
                      </media>
                    </file>
                  </clipitem>
                </track>
              </video>
            </media>
          </clip>
          <clip explodedTracks="true" frameBlend="FALSE" id="masterclip-253">
            <uuid>4fc8be87-0c36-4c8f-8cd1-beae8c6d2f24</uuid>
            <masterclipid>masterclip-253</masterclipid>
            <ismasterclip>TRUE</ismasterclip>
            <duration>720</duration>
            <in>0</in>
            <out>720</out>
            <name>Scene - Puppet man_0003.251.png</name>
            <rate>
              <timebase>24</timebase>
              <ntsc>FALSE</ntsc>
            </rate>
            <media>
              <video>
                <track>
                  <clipitem frameBlend="FALSE" id="clipitem-254">
                    <name>Scene - Puppet man_0003.251.png</name>
                    <masterclipid>masterclip-253</masterclipid>
                    <rate>
                      <timebase>24</timebase>
                      <ntsc>FALSE</ntsc>
                    </rate>
                    <alphatype>straight</alphatype>
                    <pixelaspectratio>square</pixelaspectratio>
                    <anamorphic>FALSE</anamorphic>
                    <file id="file-253">
                      <name>Scene - Puppet man_0003.251.png</name>
                      <pathurl>file://localhost/C:/Users/jmrey/OneDrive/Desktop/Programmin Stuff/Projects/conversation-simulator/resources/videos/Scene - Puppet man_0003/Scene - Puppet man_0003.251.png</pathurl>
                      <rate>
                        <timebase>24</timebase>
                        <ntsc>FALSE</ntsc>
                      </rate>
                      <duration>720</duration>
                      <timecode>
                        <rate>
                          <timebase>24</timebase>
                          <ntsc>FALSE</ntsc>
                        </rate>
                      </timecode>
                      <media>
                        <video>
                          <duration>1</duration>
                          <samplecharacteristics>
                            <anamorphic>FALSE</anamorphic>
                            <pixelaspectratio>square</pixelaspectratio>
                            <fielddominance>none</fielddominance>
                            <width>1920</width>
                            <height>1080</height>
                          </samplecharacteristics>
                        </video>
                      </media>
                    </file>
                  </clipitem>
                </track>
              </video>
            </media>
          </clip>
          <clip explodedTracks="true" frameBlend="FALSE" id="masterclip-254">
            <uuid>3e02c6ff-49df-4cdf-b609-4661e1b16252</uuid>
            <masterclipid>masterclip-254</masterclipid>
            <ismasterclip>TRUE</ismasterclip>
            <duration>720</duration>
            <in>0</in>
            <out>720</out>
            <name>Scene - Puppet man_0003.252.png</name>
            <rate>
              <timebase>24</timebase>
              <ntsc>FALSE</ntsc>
            </rate>
            <media>
              <video>
                <track>
                  <clipitem frameBlend="FALSE" id="clipitem-255">
                    <name>Scene - Puppet man_0003.252.png</name>
                    <masterclipid>masterclip-254</masterclipid>
                    <rate>
                      <timebase>24</timebase>
                      <ntsc>FALSE</ntsc>
                    </rate>
                    <alphatype>straight</alphatype>
                    <pixelaspectratio>square</pixelaspectratio>
                    <anamorphic>FALSE</anamorphic>
                    <file id="file-254">
                      <name>Scene - Puppet man_0003.252.png</name>
                      <pathurl>file://localhost/C:/Users/jmrey/OneDrive/Desktop/Programmin Stuff/Projects/conversation-simulator/resources/videos/Scene - Puppet man_0003/Scene - Puppet man_0003.252.png</pathurl>
                      <rate>
                        <timebase>24</timebase>
                        <ntsc>FALSE</ntsc>
                      </rate>
                      <duration>720</duration>
                      <timecode>
                        <rate>
                          <timebase>24</timebase>
                          <ntsc>FALSE</ntsc>
                        </rate>
                      </timecode>
                      <media>
                        <video>
                          <duration>1</duration>
                          <samplecharacteristics>
                            <anamorphic>FALSE</anamorphic>
                            <pixelaspectratio>square</pixelaspectratio>
                            <fielddominance>none</fielddominance>
                            <width>1920</width>
                            <height>1080</height>
                          </samplecharacteristics>
                        </video>
                      </media>
                    </file>
                  </clipitem>
                </track>
              </video>
            </media>
          </clip>
          <clip explodedTracks="true" frameBlend="FALSE" id="masterclip-255">
            <uuid>52d07b05-d6d6-43e1-8acb-413439d9fe74</uuid>
            <masterclipid>masterclip-255</masterclipid>
            <ismasterclip>TRUE</ismasterclip>
            <duration>720</duration>
            <in>0</in>
            <out>720</out>
            <name>Scene - Puppet man_0003.253.png</name>
            <rate>
              <timebase>24</timebase>
              <ntsc>FALSE</ntsc>
            </rate>
            <media>
              <video>
                <track>
                  <clipitem frameBlend="FALSE" id="clipitem-256">
                    <name>Scene - Puppet man_0003.253.png</name>
                    <masterclipid>masterclip-255</masterclipid>
                    <rate>
                      <timebase>24</timebase>
                      <ntsc>FALSE</ntsc>
                    </rate>
                    <alphatype>straight</alphatype>
                    <pixelaspectratio>square</pixelaspectratio>
                    <anamorphic>FALSE</anamorphic>
                    <file id="file-255">
                      <name>Scene - Puppet man_0003.253.png</name>
                      <pathurl>file://localhost/C:/Users/jmrey/OneDrive/Desktop/Programmin Stuff/Projects/conversation-simulator/resources/videos/Scene - Puppet man_0003/Scene - Puppet man_0003.253.png</pathurl>
                      <rate>
                        <timebase>24</timebase>
                        <ntsc>FALSE</ntsc>
                      </rate>
                      <duration>720</duration>
                      <timecode>
                        <rate>
                          <timebase>24</timebase>
                          <ntsc>FALSE</ntsc>
                        </rate>
                      </timecode>
                      <media>
                        <video>
                          <duration>1</duration>
                          <samplecharacteristics>
                            <anamorphic>FALSE</anamorphic>
                            <pixelaspectratio>square</pixelaspectratio>
                            <fielddominance>none</fielddominance>
                            <width>1920</width>
                            <height>1080</height>
                          </samplecharacteristics>
                        </video>
                      </media>
                    </file>
                  </clipitem>
                </track>
              </video>
            </media>
          </clip>
          <clip explodedTracks="true" frameBlend="FALSE" id="masterclip-256">
            <uuid>62d741f4-ece3-4f96-a0af-dbc4b0b70854</uuid>
            <masterclipid>masterclip-256</masterclipid>
            <ismasterclip>TRUE</ismasterclip>
            <duration>720</duration>
            <in>0</in>
            <out>720</out>
            <name>Scene - Puppet man_0003.254.png</name>
            <rate>
              <timebase>24</timebase>
              <ntsc>FALSE</ntsc>
            </rate>
            <media>
              <video>
                <track>
                  <clipitem frameBlend="FALSE" id="clipitem-257">
                    <name>Scene - Puppet man_0003.254.png</name>
                    <masterclipid>masterclip-256</masterclipid>
                    <rate>
                      <timebase>24</timebase>
                      <ntsc>FALSE</ntsc>
                    </rate>
                    <alphatype>straight</alphatype>
                    <pixelaspectratio>square</pixelaspectratio>
                    <anamorphic>FALSE</anamorphic>
                    <file id="file-256">
                      <name>Scene - Puppet man_0003.254.png</name>
                      <pathurl>file://localhost/C:/Users/jmrey/OneDrive/Desktop/Programmin Stuff/Projects/conversation-simulator/resources/videos/Scene - Puppet man_0003/Scene - Puppet man_0003.254.png</pathurl>
                      <rate>
                        <timebase>24</timebase>
                        <ntsc>FALSE</ntsc>
                      </rate>
                      <duration>720</duration>
                      <timecode>
                        <rate>
                          <timebase>24</timebase>
                          <ntsc>FALSE</ntsc>
                        </rate>
                      </timecode>
                      <media>
                        <video>
                          <duration>1</duration>
                          <samplecharacteristics>
                            <anamorphic>FALSE</anamorphic>
                            <pixelaspectratio>square</pixelaspectratio>
                            <fielddominance>none</fielddominance>
                            <width>1920</width>
                            <height>1080</height>
                          </samplecharacteristics>
                        </video>
                      </media>
                    </file>
                  </clipitem>
                </track>
              </video>
            </media>
          </clip>
          <clip explodedTracks="true" frameBlend="FALSE" id="masterclip-257">
            <uuid>26a9b18e-6ab9-440a-8ac4-ed4dd5b02b05</uuid>
            <masterclipid>masterclip-257</masterclipid>
            <ismasterclip>TRUE</ismasterclip>
            <duration>720</duration>
            <in>0</in>
            <out>720</out>
            <name>Scene - Puppet man_0003.255.png</name>
            <rate>
              <timebase>24</timebase>
              <ntsc>FALSE</ntsc>
            </rate>
            <media>
              <video>
                <track>
                  <clipitem frameBlend="FALSE" id="clipitem-258">
                    <name>Scene - Puppet man_0003.255.png</name>
                    <masterclipid>masterclip-257</masterclipid>
                    <rate>
                      <timebase>24</timebase>
                      <ntsc>FALSE</ntsc>
                    </rate>
                    <alphatype>straight</alphatype>
                    <pixelaspectratio>square</pixelaspectratio>
                    <anamorphic>FALSE</anamorphic>
                    <file id="file-257">
                      <name>Scene - Puppet man_0003.255.png</name>
                      <pathurl>file://localhost/C:/Users/jmrey/OneDrive/Desktop/Programmin Stuff/Projects/conversation-simulator/resources/videos/Scene - Puppet man_0003/Scene - Puppet man_0003.255.png</pathurl>
                      <rate>
                        <timebase>24</timebase>
                        <ntsc>FALSE</ntsc>
                      </rate>
                      <duration>720</duration>
                      <timecode>
                        <rate>
                          <timebase>24</timebase>
                          <ntsc>FALSE</ntsc>
                        </rate>
                      </timecode>
                      <media>
                        <video>
                          <duration>1</duration>
                          <samplecharacteristics>
                            <anamorphic>FALSE</anamorphic>
                            <pixelaspectratio>square</pixelaspectratio>
                            <fielddominance>none</fielddominance>
                            <width>1920</width>
                            <height>1080</height>
                          </samplecharacteristics>
                        </video>
                      </media>
                    </file>
                  </clipitem>
                </track>
              </video>
            </media>
          </clip>
          <clip explodedTracks="true" frameBlend="FALSE" id="masterclip-258">
            <uuid>54a4f14c-f685-4d35-8fc2-d9a73d34cbbf</uuid>
            <masterclipid>masterclip-258</masterclipid>
            <ismasterclip>TRUE</ismasterclip>
            <duration>720</duration>
            <in>0</in>
            <out>720</out>
            <name>Scene - Puppet man_0003.256.png</name>
            <rate>
              <timebase>24</timebase>
              <ntsc>FALSE</ntsc>
            </rate>
            <media>
              <video>
                <track>
                  <clipitem frameBlend="FALSE" id="clipitem-259">
                    <name>Scene - Puppet man_0003.256.png</name>
                    <masterclipid>masterclip-258</masterclipid>
                    <rate>
                      <timebase>24</timebase>
                      <ntsc>FALSE</ntsc>
                    </rate>
                    <alphatype>straight</alphatype>
                    <pixelaspectratio>square</pixelaspectratio>
                    <anamorphic>FALSE</anamorphic>
                    <file id="file-258">
                      <name>Scene - Puppet man_0003.256.png</name>
                      <pathurl>file://localhost/C:/Users/jmrey/OneDrive/Desktop/Programmin Stuff/Projects/conversation-simulator/resources/videos/Scene - Puppet man_0003/Scene - Puppet man_0003.256.png</pathurl>
                      <rate>
                        <timebase>24</timebase>
                        <ntsc>FALSE</ntsc>
                      </rate>
                      <duration>720</duration>
                      <timecode>
                        <rate>
                          <timebase>24</timebase>
                          <ntsc>FALSE</ntsc>
                        </rate>
                      </timecode>
                      <media>
                        <video>
                          <duration>1</duration>
                          <samplecharacteristics>
                            <anamorphic>FALSE</anamorphic>
                            <pixelaspectratio>square</pixelaspectratio>
                            <fielddominance>none</fielddominance>
                            <width>1920</width>
                            <height>1080</height>
                          </samplecharacteristics>
                        </video>
                      </media>
                    </file>
                  </clipitem>
                </track>
              </video>
            </media>
          </clip>
          <clip explodedTracks="true" frameBlend="FALSE" id="masterclip-259">
            <uuid>20ecd9b8-7334-46b7-9827-2d551c4dfcd9</uuid>
            <masterclipid>masterclip-259</masterclipid>
            <ismasterclip>TRUE</ismasterclip>
            <duration>720</duration>
            <in>0</in>
            <out>720</out>
            <name>Scene - Puppet man_0003.257.png</name>
            <rate>
              <timebase>24</timebase>
              <ntsc>FALSE</ntsc>
            </rate>
            <media>
              <video>
                <track>
                  <clipitem frameBlend="FALSE" id="clipitem-260">
                    <name>Scene - Puppet man_0003.257.png</name>
                    <masterclipid>masterclip-259</masterclipid>
                    <rate>
                      <timebase>24</timebase>
                      <ntsc>FALSE</ntsc>
                    </rate>
                    <alphatype>straight</alphatype>
                    <pixelaspectratio>square</pixelaspectratio>
                    <anamorphic>FALSE</anamorphic>
                    <file id="file-259">
                      <name>Scene - Puppet man_0003.257.png</name>
                      <pathurl>file://localhost/C:/Users/jmrey/OneDrive/Desktop/Programmin Stuff/Projects/conversation-simulator/resources/videos/Scene - Puppet man_0003/Scene - Puppet man_0003.257.png</pathurl>
                      <rate>
                        <timebase>24</timebase>
                        <ntsc>FALSE</ntsc>
                      </rate>
                      <duration>720</duration>
                      <timecode>
                        <rate>
                          <timebase>24</timebase>
                          <ntsc>FALSE</ntsc>
                        </rate>
                      </timecode>
                      <media>
                        <video>
                          <duration>1</duration>
                          <samplecharacteristics>
                            <anamorphic>FALSE</anamorphic>
                            <pixelaspectratio>square</pixelaspectratio>
                            <fielddominance>none</fielddominance>
                            <width>1920</width>
                            <height>1080</height>
                          </samplecharacteristics>
                        </video>
                      </media>
                    </file>
                  </clipitem>
                </track>
              </video>
            </media>
          </clip>
          <clip explodedTracks="true" frameBlend="FALSE" id="masterclip-260">
            <uuid>b238dc32-0ffe-43f8-91ad-bf1367e4a0b2</uuid>
            <masterclipid>masterclip-260</masterclipid>
            <ismasterclip>TRUE</ismasterclip>
            <duration>720</duration>
            <in>0</in>
            <out>720</out>
            <name>Scene - Puppet man_0003.258.png</name>
            <rate>
              <timebase>24</timebase>
              <ntsc>FALSE</ntsc>
            </rate>
            <media>
              <video>
                <track>
                  <clipitem frameBlend="FALSE" id="clipitem-261">
                    <name>Scene - Puppet man_0003.258.png</name>
                    <masterclipid>masterclip-260</masterclipid>
                    <rate>
                      <timebase>24</timebase>
                      <ntsc>FALSE</ntsc>
                    </rate>
                    <alphatype>straight</alphatype>
                    <pixelaspectratio>square</pixelaspectratio>
                    <anamorphic>FALSE</anamorphic>
                    <file id="file-260">
                      <name>Scene - Puppet man_0003.258.png</name>
                      <pathurl>file://localhost/C:/Users/jmrey/OneDrive/Desktop/Programmin Stuff/Projects/conversation-simulator/resources/videos/Scene - Puppet man_0003/Scene - Puppet man_0003.258.png</pathurl>
                      <rate>
                        <timebase>24</timebase>
                        <ntsc>FALSE</ntsc>
                      </rate>
                      <duration>720</duration>
                      <timecode>
                        <rate>
                          <timebase>24</timebase>
                          <ntsc>FALSE</ntsc>
                        </rate>
                      </timecode>
                      <media>
                        <video>
                          <duration>1</duration>
                          <samplecharacteristics>
                            <anamorphic>FALSE</anamorphic>
                            <pixelaspectratio>square</pixelaspectratio>
                            <fielddominance>none</fielddominance>
                            <width>1920</width>
                            <height>1080</height>
                          </samplecharacteristics>
                        </video>
                      </media>
                    </file>
                  </clipitem>
                </track>
              </video>
            </media>
          </clip>
          <clip explodedTracks="true" frameBlend="FALSE" id="masterclip-261">
            <uuid>0da5eb1e-05f3-4ddf-97d5-7086487e368e</uuid>
            <masterclipid>masterclip-261</masterclipid>
            <ismasterclip>TRUE</ismasterclip>
            <duration>720</duration>
            <in>0</in>
            <out>720</out>
            <name>Scene - Puppet man_0003.259.png</name>
            <rate>
              <timebase>24</timebase>
              <ntsc>FALSE</ntsc>
            </rate>
            <media>
              <video>
                <track>
                  <clipitem frameBlend="FALSE" id="clipitem-262">
                    <name>Scene - Puppet man_0003.259.png</name>
                    <masterclipid>masterclip-261</masterclipid>
                    <rate>
                      <timebase>24</timebase>
                      <ntsc>FALSE</ntsc>
                    </rate>
                    <alphatype>straight</alphatype>
                    <pixelaspectratio>square</pixelaspectratio>
                    <anamorphic>FALSE</anamorphic>
                    <file id="file-261">
                      <name>Scene - Puppet man_0003.259.png</name>
                      <pathurl>file://localhost/C:/Users/jmrey/OneDrive/Desktop/Programmin Stuff/Projects/conversation-simulator/resources/videos/Scene - Puppet man_0003/Scene - Puppet man_0003.259.png</pathurl>
                      <rate>
                        <timebase>24</timebase>
                        <ntsc>FALSE</ntsc>
                      </rate>
                      <duration>720</duration>
                      <timecode>
                        <rate>
                          <timebase>24</timebase>
                          <ntsc>FALSE</ntsc>
                        </rate>
                      </timecode>
                      <media>
                        <video>
                          <duration>1</duration>
                          <samplecharacteristics>
                            <anamorphic>FALSE</anamorphic>
                            <pixelaspectratio>square</pixelaspectratio>
                            <fielddominance>none</fielddominance>
                            <width>1920</width>
                            <height>1080</height>
                          </samplecharacteristics>
                        </video>
                      </media>
                    </file>
                  </clipitem>
                </track>
              </video>
            </media>
          </clip>
          <clip explodedTracks="true" frameBlend="FALSE" id="masterclip-262">
            <uuid>173ca227-daf8-4411-9541-df8ee5376655</uuid>
            <masterclipid>masterclip-262</masterclipid>
            <ismasterclip>TRUE</ismasterclip>
            <duration>720</duration>
            <in>0</in>
            <out>720</out>
            <name>Scene - Puppet man_0003.260.png</name>
            <rate>
              <timebase>24</timebase>
              <ntsc>FALSE</ntsc>
            </rate>
            <media>
              <video>
                <track>
                  <clipitem frameBlend="FALSE" id="clipitem-263">
                    <name>Scene - Puppet man_0003.260.png</name>
                    <masterclipid>masterclip-262</masterclipid>
                    <rate>
                      <timebase>24</timebase>
                      <ntsc>FALSE</ntsc>
                    </rate>
                    <alphatype>straight</alphatype>
                    <pixelaspectratio>square</pixelaspectratio>
                    <anamorphic>FALSE</anamorphic>
                    <file id="file-262">
                      <name>Scene - Puppet man_0003.260.png</name>
                      <pathurl>file://localhost/C:/Users/jmrey/OneDrive/Desktop/Programmin Stuff/Projects/conversation-simulator/resources/videos/Scene - Puppet man_0003/Scene - Puppet man_0003.260.png</pathurl>
                      <rate>
                        <timebase>24</timebase>
                        <ntsc>FALSE</ntsc>
                      </rate>
                      <duration>720</duration>
                      <timecode>
                        <rate>
                          <timebase>24</timebase>
                          <ntsc>FALSE</ntsc>
                        </rate>
                      </timecode>
                      <media>
                        <video>
                          <duration>1</duration>
                          <samplecharacteristics>
                            <anamorphic>FALSE</anamorphic>
                            <pixelaspectratio>square</pixelaspectratio>
                            <fielddominance>none</fielddominance>
                            <width>1920</width>
                            <height>1080</height>
                          </samplecharacteristics>
                        </video>
                      </media>
                    </file>
                  </clipitem>
                </track>
              </video>
            </media>
          </clip>
          <clip explodedTracks="true" frameBlend="FALSE" id="masterclip-263">
            <uuid>95846f2d-adaa-478f-b1c5-16438e60fad0</uuid>
            <masterclipid>masterclip-263</masterclipid>
            <ismasterclip>TRUE</ismasterclip>
            <duration>720</duration>
            <in>0</in>
            <out>720</out>
            <name>Scene - Puppet man_0003.261.png</name>
            <rate>
              <timebase>24</timebase>
              <ntsc>FALSE</ntsc>
            </rate>
            <media>
              <video>
                <track>
                  <clipitem frameBlend="FALSE" id="clipitem-264">
                    <name>Scene - Puppet man_0003.261.png</name>
                    <masterclipid>masterclip-263</masterclipid>
                    <rate>
                      <timebase>24</timebase>
                      <ntsc>FALSE</ntsc>
                    </rate>
                    <alphatype>straight</alphatype>
                    <pixelaspectratio>square</pixelaspectratio>
                    <anamorphic>FALSE</anamorphic>
                    <file id="file-263">
                      <name>Scene - Puppet man_0003.261.png</name>
                      <pathurl>file://localhost/C:/Users/jmrey/OneDrive/Desktop/Programmin Stuff/Projects/conversation-simulator/resources/videos/Scene - Puppet man_0003/Scene - Puppet man_0003.261.png</pathurl>
                      <rate>
                        <timebase>24</timebase>
                        <ntsc>FALSE</ntsc>
                      </rate>
                      <duration>720</duration>
                      <timecode>
                        <rate>
                          <timebase>24</timebase>
                          <ntsc>FALSE</ntsc>
                        </rate>
                      </timecode>
                      <media>
                        <video>
                          <duration>1</duration>
                          <samplecharacteristics>
                            <anamorphic>FALSE</anamorphic>
                            <pixelaspectratio>square</pixelaspectratio>
                            <fielddominance>none</fielddominance>
                            <width>1920</width>
                            <height>1080</height>
                          </samplecharacteristics>
                        </video>
                      </media>
                    </file>
                  </clipitem>
                </track>
              </video>
            </media>
          </clip>
          <clip explodedTracks="true" frameBlend="FALSE" id="masterclip-264">
            <uuid>e6b6d286-a230-425a-a300-b9c31a24d508</uuid>
            <masterclipid>masterclip-264</masterclipid>
            <ismasterclip>TRUE</ismasterclip>
            <duration>720</duration>
            <in>0</in>
            <out>720</out>
            <name>Scene - Puppet man_0003.262.png</name>
            <rate>
              <timebase>24</timebase>
              <ntsc>FALSE</ntsc>
            </rate>
            <media>
              <video>
                <track>
                  <clipitem frameBlend="FALSE" id="clipitem-265">
                    <name>Scene - Puppet man_0003.262.png</name>
                    <masterclipid>masterclip-264</masterclipid>
                    <rate>
                      <timebase>24</timebase>
                      <ntsc>FALSE</ntsc>
                    </rate>
                    <alphatype>straight</alphatype>
                    <pixelaspectratio>square</pixelaspectratio>
                    <anamorphic>FALSE</anamorphic>
                    <file id="file-264">
                      <name>Scene - Puppet man_0003.262.png</name>
                      <pathurl>file://localhost/C:/Users/jmrey/OneDrive/Desktop/Programmin Stuff/Projects/conversation-simulator/resources/videos/Scene - Puppet man_0003/Scene - Puppet man_0003.262.png</pathurl>
                      <rate>
                        <timebase>24</timebase>
                        <ntsc>FALSE</ntsc>
                      </rate>
                      <duration>720</duration>
                      <timecode>
                        <rate>
                          <timebase>24</timebase>
                          <ntsc>FALSE</ntsc>
                        </rate>
                      </timecode>
                      <media>
                        <video>
                          <duration>1</duration>
                          <samplecharacteristics>
                            <anamorphic>FALSE</anamorphic>
                            <pixelaspectratio>square</pixelaspectratio>
                            <fielddominance>none</fielddominance>
                            <width>1920</width>
                            <height>1080</height>
                          </samplecharacteristics>
                        </video>
                      </media>
                    </file>
                  </clipitem>
                </track>
              </video>
            </media>
          </clip>
          <clip explodedTracks="true" frameBlend="FALSE" id="masterclip-265">
            <uuid>c0c8a285-050d-4bc2-9800-cabf10c9915a</uuid>
            <masterclipid>masterclip-265</masterclipid>
            <ismasterclip>TRUE</ismasterclip>
            <duration>720</duration>
            <in>0</in>
            <out>720</out>
            <name>Scene - Puppet man_0003.263.png</name>
            <rate>
              <timebase>24</timebase>
              <ntsc>FALSE</ntsc>
            </rate>
            <media>
              <video>
                <track>
                  <clipitem frameBlend="FALSE" id="clipitem-266">
                    <name>Scene - Puppet man_0003.263.png</name>
                    <masterclipid>masterclip-265</masterclipid>
                    <rate>
                      <timebase>24</timebase>
                      <ntsc>FALSE</ntsc>
                    </rate>
                    <alphatype>straight</alphatype>
                    <pixelaspectratio>square</pixelaspectratio>
                    <anamorphic>FALSE</anamorphic>
                    <file id="file-265">
                      <name>Scene - Puppet man_0003.263.png</name>
                      <pathurl>file://localhost/C:/Users/jmrey/OneDrive/Desktop/Programmin Stuff/Projects/conversation-simulator/resources/videos/Scene - Puppet man_0003/Scene - Puppet man_0003.263.png</pathurl>
                      <rate>
                        <timebase>24</timebase>
                        <ntsc>FALSE</ntsc>
                      </rate>
                      <duration>720</duration>
                      <timecode>
                        <rate>
                          <timebase>24</timebase>
                          <ntsc>FALSE</ntsc>
                        </rate>
                      </timecode>
                      <media>
                        <video>
                          <duration>1</duration>
                          <samplecharacteristics>
                            <anamorphic>FALSE</anamorphic>
                            <pixelaspectratio>square</pixelaspectratio>
                            <fielddominance>none</fielddominance>
                            <width>1920</width>
                            <height>1080</height>
                          </samplecharacteristics>
                        </video>
                      </media>
                    </file>
                  </clipitem>
                </track>
              </video>
            </media>
          </clip>
          <clip explodedTracks="true" frameBlend="FALSE" id="masterclip-266">
            <uuid>57d500f6-15ee-4046-8a79-05ce6e3bc3e7</uuid>
            <masterclipid>masterclip-266</masterclipid>
            <ismasterclip>TRUE</ismasterclip>
            <duration>720</duration>
            <in>0</in>
            <out>720</out>
            <name>Scene - Puppet man_0003.264.png</name>
            <rate>
              <timebase>24</timebase>
              <ntsc>FALSE</ntsc>
            </rate>
            <media>
              <video>
                <track>
                  <clipitem frameBlend="FALSE" id="clipitem-267">
                    <name>Scene - Puppet man_0003.264.png</name>
                    <masterclipid>masterclip-266</masterclipid>
                    <rate>
                      <timebase>24</timebase>
                      <ntsc>FALSE</ntsc>
                    </rate>
                    <alphatype>straight</alphatype>
                    <pixelaspectratio>square</pixelaspectratio>
                    <anamorphic>FALSE</anamorphic>
                    <file id="file-266">
                      <name>Scene - Puppet man_0003.264.png</name>
                      <pathurl>file://localhost/C:/Users/jmrey/OneDrive/Desktop/Programmin Stuff/Projects/conversation-simulator/resources/videos/Scene - Puppet man_0003/Scene - Puppet man_0003.264.png</pathurl>
                      <rate>
                        <timebase>24</timebase>
                        <ntsc>FALSE</ntsc>
                      </rate>
                      <duration>720</duration>
                      <timecode>
                        <rate>
                          <timebase>24</timebase>
                          <ntsc>FALSE</ntsc>
                        </rate>
                      </timecode>
                      <media>
                        <video>
                          <duration>1</duration>
                          <samplecharacteristics>
                            <anamorphic>FALSE</anamorphic>
                            <pixelaspectratio>square</pixelaspectratio>
                            <fielddominance>none</fielddominance>
                            <width>1920</width>
                            <height>1080</height>
                          </samplecharacteristics>
                        </video>
                      </media>
                    </file>
                  </clipitem>
                </track>
              </video>
            </media>
          </clip>
          <clip explodedTracks="true" frameBlend="FALSE" id="masterclip-267">
            <uuid>e05d7968-cbcb-4867-80c0-2530274c28f2</uuid>
            <masterclipid>masterclip-267</masterclipid>
            <ismasterclip>TRUE</ismasterclip>
            <duration>720</duration>
            <in>0</in>
            <out>720</out>
            <name>Scene - Puppet man_0003.265.png</name>
            <rate>
              <timebase>24</timebase>
              <ntsc>FALSE</ntsc>
            </rate>
            <media>
              <video>
                <track>
                  <clipitem frameBlend="FALSE" id="clipitem-268">
                    <name>Scene - Puppet man_0003.265.png</name>
                    <masterclipid>masterclip-267</masterclipid>
                    <rate>
                      <timebase>24</timebase>
                      <ntsc>FALSE</ntsc>
                    </rate>
                    <alphatype>straight</alphatype>
                    <pixelaspectratio>square</pixelaspectratio>
                    <anamorphic>FALSE</anamorphic>
                    <file id="file-267">
                      <name>Scene - Puppet man_0003.265.png</name>
                      <pathurl>file://localhost/C:/Users/jmrey/OneDrive/Desktop/Programmin Stuff/Projects/conversation-simulator/resources/videos/Scene - Puppet man_0003/Scene - Puppet man_0003.265.png</pathurl>
                      <rate>
                        <timebase>24</timebase>
                        <ntsc>FALSE</ntsc>
                      </rate>
                      <duration>720</duration>
                      <timecode>
                        <rate>
                          <timebase>24</timebase>
                          <ntsc>FALSE</ntsc>
                        </rate>
                      </timecode>
                      <media>
                        <video>
                          <duration>1</duration>
                          <samplecharacteristics>
                            <anamorphic>FALSE</anamorphic>
                            <pixelaspectratio>square</pixelaspectratio>
                            <fielddominance>none</fielddominance>
                            <width>1920</width>
                            <height>1080</height>
                          </samplecharacteristics>
                        </video>
                      </media>
                    </file>
                  </clipitem>
                </track>
              </video>
            </media>
          </clip>
          <clip explodedTracks="true" frameBlend="FALSE" id="masterclip-268">
            <uuid>6b33d541-4f0b-407f-a101-dbb073992ef1</uuid>
            <masterclipid>masterclip-268</masterclipid>
            <ismasterclip>TRUE</ismasterclip>
            <duration>720</duration>
            <in>0</in>
            <out>720</out>
            <name>Scene - Puppet man_0003.266.png</name>
            <rate>
              <timebase>24</timebase>
              <ntsc>FALSE</ntsc>
            </rate>
            <media>
              <video>
                <track>
                  <clipitem frameBlend="FALSE" id="clipitem-269">
                    <name>Scene - Puppet man_0003.266.png</name>
                    <masterclipid>masterclip-268</masterclipid>
                    <rate>
                      <timebase>24</timebase>
                      <ntsc>FALSE</ntsc>
                    </rate>
                    <alphatype>straight</alphatype>
                    <pixelaspectratio>square</pixelaspectratio>
                    <anamorphic>FALSE</anamorphic>
                    <file id="file-268">
                      <name>Scene - Puppet man_0003.266.png</name>
                      <pathurl>file://localhost/C:/Users/jmrey/OneDrive/Desktop/Programmin Stuff/Projects/conversation-simulator/resources/videos/Scene - Puppet man_0003/Scene - Puppet man_0003.266.png</pathurl>
                      <rate>
                        <timebase>24</timebase>
                        <ntsc>FALSE</ntsc>
                      </rate>
                      <duration>720</duration>
                      <timecode>
                        <rate>
                          <timebase>24</timebase>
                          <ntsc>FALSE</ntsc>
                        </rate>
                      </timecode>
                      <media>
                        <video>
                          <duration>1</duration>
                          <samplecharacteristics>
                            <anamorphic>FALSE</anamorphic>
                            <pixelaspectratio>square</pixelaspectratio>
                            <fielddominance>none</fielddominance>
                            <width>1920</width>
                            <height>1080</height>
                          </samplecharacteristics>
                        </video>
                      </media>
                    </file>
                  </clipitem>
                </track>
              </video>
            </media>
          </clip>
          <clip explodedTracks="true" frameBlend="FALSE" id="masterclip-269">
            <uuid>f9dd4ad6-b4e8-48ab-9b17-1d47d5fbd800</uuid>
            <masterclipid>masterclip-269</masterclipid>
            <ismasterclip>TRUE</ismasterclip>
            <duration>720</duration>
            <in>0</in>
            <out>720</out>
            <name>Scene - Puppet man_0003.267.png</name>
            <rate>
              <timebase>24</timebase>
              <ntsc>FALSE</ntsc>
            </rate>
            <media>
              <video>
                <track>
                  <clipitem frameBlend="FALSE" id="clipitem-270">
                    <name>Scene - Puppet man_0003.267.png</name>
                    <masterclipid>masterclip-269</masterclipid>
                    <rate>
                      <timebase>24</timebase>
                      <ntsc>FALSE</ntsc>
                    </rate>
                    <alphatype>straight</alphatype>
                    <pixelaspectratio>square</pixelaspectratio>
                    <anamorphic>FALSE</anamorphic>
                    <file id="file-269">
                      <name>Scene - Puppet man_0003.267.png</name>
                      <pathurl>file://localhost/C:/Users/jmrey/OneDrive/Desktop/Programmin Stuff/Projects/conversation-simulator/resources/videos/Scene - Puppet man_0003/Scene - Puppet man_0003.267.png</pathurl>
                      <rate>
                        <timebase>24</timebase>
                        <ntsc>FALSE</ntsc>
                      </rate>
                      <duration>720</duration>
                      <timecode>
                        <rate>
                          <timebase>24</timebase>
                          <ntsc>FALSE</ntsc>
                        </rate>
                      </timecode>
                      <media>
                        <video>
                          <duration>1</duration>
                          <samplecharacteristics>
                            <anamorphic>FALSE</anamorphic>
                            <pixelaspectratio>square</pixelaspectratio>
                            <fielddominance>none</fielddominance>
                            <width>1920</width>
                            <height>1080</height>
                          </samplecharacteristics>
                        </video>
                      </media>
                    </file>
                  </clipitem>
                </track>
              </video>
            </media>
          </clip>
          <clip explodedTracks="true" frameBlend="FALSE" id="masterclip-270">
            <uuid>adfb3126-e5b9-47ca-bfb0-a394fd93e1bc</uuid>
            <masterclipid>masterclip-270</masterclipid>
            <ismasterclip>TRUE</ismasterclip>
            <duration>720</duration>
            <in>0</in>
            <out>720</out>
            <name>Scene - Puppet man_0003.268.png</name>
            <rate>
              <timebase>24</timebase>
              <ntsc>FALSE</ntsc>
            </rate>
            <media>
              <video>
                <track>
                  <clipitem frameBlend="FALSE" id="clipitem-271">
                    <name>Scene - Puppet man_0003.268.png</name>
                    <masterclipid>masterclip-270</masterclipid>
                    <rate>
                      <timebase>24</timebase>
                      <ntsc>FALSE</ntsc>
                    </rate>
                    <alphatype>straight</alphatype>
                    <pixelaspectratio>square</pixelaspectratio>
                    <anamorphic>FALSE</anamorphic>
                    <file id="file-270">
                      <name>Scene - Puppet man_0003.268.png</name>
                      <pathurl>file://localhost/C:/Users/jmrey/OneDrive/Desktop/Programmin Stuff/Projects/conversation-simulator/resources/videos/Scene - Puppet man_0003/Scene - Puppet man_0003.268.png</pathurl>
                      <rate>
                        <timebase>24</timebase>
                        <ntsc>FALSE</ntsc>
                      </rate>
                      <duration>720</duration>
                      <timecode>
                        <rate>
                          <timebase>24</timebase>
                          <ntsc>FALSE</ntsc>
                        </rate>
                      </timecode>
                      <media>
                        <video>
                          <duration>1</duration>
                          <samplecharacteristics>
                            <anamorphic>FALSE</anamorphic>
                            <pixelaspectratio>square</pixelaspectratio>
                            <fielddominance>none</fielddominance>
                            <width>1920</width>
                            <height>1080</height>
                          </samplecharacteristics>
                        </video>
                      </media>
                    </file>
                  </clipitem>
                </track>
              </video>
            </media>
          </clip>
          <clip explodedTracks="true" frameBlend="FALSE" id="masterclip-271">
            <uuid>4423e663-a7c0-4a0e-b74c-cbd120bd4ce1</uuid>
            <masterclipid>masterclip-271</masterclipid>
            <ismasterclip>TRUE</ismasterclip>
            <duration>720</duration>
            <in>0</in>
            <out>720</out>
            <name>Scene - Puppet man_0003.269.png</name>
            <rate>
              <timebase>24</timebase>
              <ntsc>FALSE</ntsc>
            </rate>
            <media>
              <video>
                <track>
                  <clipitem frameBlend="FALSE" id="clipitem-272">
                    <name>Scene - Puppet man_0003.269.png</name>
                    <masterclipid>masterclip-271</masterclipid>
                    <rate>
                      <timebase>24</timebase>
                      <ntsc>FALSE</ntsc>
                    </rate>
                    <alphatype>straight</alphatype>
                    <pixelaspectratio>square</pixelaspectratio>
                    <anamorphic>FALSE</anamorphic>
                    <file id="file-271">
                      <name>Scene - Puppet man_0003.269.png</name>
                      <pathurl>file://localhost/C:/Users/jmrey/OneDrive/Desktop/Programmin Stuff/Projects/conversation-simulator/resources/videos/Scene - Puppet man_0003/Scene - Puppet man_0003.269.png</pathurl>
                      <rate>
                        <timebase>24</timebase>
                        <ntsc>FALSE</ntsc>
                      </rate>
                      <duration>720</duration>
                      <timecode>
                        <rate>
                          <timebase>24</timebase>
                          <ntsc>FALSE</ntsc>
                        </rate>
                      </timecode>
                      <media>
                        <video>
                          <duration>1</duration>
                          <samplecharacteristics>
                            <anamorphic>FALSE</anamorphic>
                            <pixelaspectratio>square</pixelaspectratio>
                            <fielddominance>none</fielddominance>
                            <width>1920</width>
                            <height>1080</height>
                          </samplecharacteristics>
                        </video>
                      </media>
                    </file>
                  </clipitem>
                </track>
              </video>
            </media>
          </clip>
          <clip explodedTracks="true" frameBlend="FALSE" id="masterclip-272">
            <uuid>31f24945-fb41-4ae3-a4d7-cdb6c3d3a8b8</uuid>
            <masterclipid>masterclip-272</masterclipid>
            <ismasterclip>TRUE</ismasterclip>
            <duration>720</duration>
            <in>0</in>
            <out>720</out>
            <name>Scene - Puppet man_0003.270.png</name>
            <rate>
              <timebase>24</timebase>
              <ntsc>FALSE</ntsc>
            </rate>
            <media>
              <video>
                <track>
                  <clipitem frameBlend="FALSE" id="clipitem-273">
                    <name>Scene - Puppet man_0003.270.png</name>
                    <masterclipid>masterclip-272</masterclipid>
                    <rate>
                      <timebase>24</timebase>
                      <ntsc>FALSE</ntsc>
                    </rate>
                    <alphatype>straight</alphatype>
                    <pixelaspectratio>square</pixelaspectratio>
                    <anamorphic>FALSE</anamorphic>
                    <file id="file-272">
                      <name>Scene - Puppet man_0003.270.png</name>
                      <pathurl>file://localhost/C:/Users/jmrey/OneDrive/Desktop/Programmin Stuff/Projects/conversation-simulator/resources/videos/Scene - Puppet man_0003/Scene - Puppet man_0003.270.png</pathurl>
                      <rate>
                        <timebase>24</timebase>
                        <ntsc>FALSE</ntsc>
                      </rate>
                      <duration>720</duration>
                      <timecode>
                        <rate>
                          <timebase>24</timebase>
                          <ntsc>FALSE</ntsc>
                        </rate>
                      </timecode>
                      <media>
                        <video>
                          <duration>1</duration>
                          <samplecharacteristics>
                            <anamorphic>FALSE</anamorphic>
                            <pixelaspectratio>square</pixelaspectratio>
                            <fielddominance>none</fielddominance>
                            <width>1920</width>
                            <height>1080</height>
                          </samplecharacteristics>
                        </video>
                      </media>
                    </file>
                  </clipitem>
                </track>
              </video>
            </media>
          </clip>
          <clip explodedTracks="true" frameBlend="FALSE" id="masterclip-273">
            <uuid>dc99b644-9bc3-45f8-98ad-e4ddab25a556</uuid>
            <masterclipid>masterclip-273</masterclipid>
            <ismasterclip>TRUE</ismasterclip>
            <duration>720</duration>
            <in>0</in>
            <out>720</out>
            <name>Scene - Puppet man_0003.271.png</name>
            <rate>
              <timebase>24</timebase>
              <ntsc>FALSE</ntsc>
            </rate>
            <media>
              <video>
                <track>
                  <clipitem frameBlend="FALSE" id="clipitem-274">
                    <name>Scene - Puppet man_0003.271.png</name>
                    <masterclipid>masterclip-273</masterclipid>
                    <rate>
                      <timebase>24</timebase>
                      <ntsc>FALSE</ntsc>
                    </rate>
                    <alphatype>straight</alphatype>
                    <pixelaspectratio>square</pixelaspectratio>
                    <anamorphic>FALSE</anamorphic>
                    <file id="file-273">
                      <name>Scene - Puppet man_0003.271.png</name>
                      <pathurl>file://localhost/C:/Users/jmrey/OneDrive/Desktop/Programmin Stuff/Projects/conversation-simulator/resources/videos/Scene - Puppet man_0003/Scene - Puppet man_0003.271.png</pathurl>
                      <rate>
                        <timebase>24</timebase>
                        <ntsc>FALSE</ntsc>
                      </rate>
                      <duration>720</duration>
                      <timecode>
                        <rate>
                          <timebase>24</timebase>
                          <ntsc>FALSE</ntsc>
                        </rate>
                      </timecode>
                      <media>
                        <video>
                          <duration>1</duration>
                          <samplecharacteristics>
                            <anamorphic>FALSE</anamorphic>
                            <pixelaspectratio>square</pixelaspectratio>
                            <fielddominance>none</fielddominance>
                            <width>1920</width>
                            <height>1080</height>
                          </samplecharacteristics>
                        </video>
                      </media>
                    </file>
                  </clipitem>
                </track>
              </video>
            </media>
          </clip>
          <clip explodedTracks="true" frameBlend="FALSE" id="masterclip-274">
            <uuid>a35f66b5-4480-486f-8feb-4de8fda8e8de</uuid>
            <masterclipid>masterclip-274</masterclipid>
            <ismasterclip>TRUE</ismasterclip>
            <duration>720</duration>
            <in>0</in>
            <out>720</out>
            <name>Scene - Puppet man_0003.272.png</name>
            <rate>
              <timebase>24</timebase>
              <ntsc>FALSE</ntsc>
            </rate>
            <media>
              <video>
                <track>
                  <clipitem frameBlend="FALSE" id="clipitem-275">
                    <name>Scene - Puppet man_0003.272.png</name>
                    <masterclipid>masterclip-274</masterclipid>
                    <rate>
                      <timebase>24</timebase>
                      <ntsc>FALSE</ntsc>
                    </rate>
                    <alphatype>straight</alphatype>
                    <pixelaspectratio>square</pixelaspectratio>
                    <anamorphic>FALSE</anamorphic>
                    <file id="file-274">
                      <name>Scene - Puppet man_0003.272.png</name>
                      <pathurl>file://localhost/C:/Users/jmrey/OneDrive/Desktop/Programmin Stuff/Projects/conversation-simulator/resources/videos/Scene - Puppet man_0003/Scene - Puppet man_0003.272.png</pathurl>
                      <rate>
                        <timebase>24</timebase>
                        <ntsc>FALSE</ntsc>
                      </rate>
                      <duration>720</duration>
                      <timecode>
                        <rate>
                          <timebase>24</timebase>
                          <ntsc>FALSE</ntsc>
                        </rate>
                      </timecode>
                      <media>
                        <video>
                          <duration>1</duration>
                          <samplecharacteristics>
                            <anamorphic>FALSE</anamorphic>
                            <pixelaspectratio>square</pixelaspectratio>
                            <fielddominance>none</fielddominance>
                            <width>1920</width>
                            <height>1080</height>
                          </samplecharacteristics>
                        </video>
                      </media>
                    </file>
                  </clipitem>
                </track>
              </video>
            </media>
          </clip>
          <clip explodedTracks="true" frameBlend="FALSE" id="masterclip-275">
            <uuid>382252f9-a01b-4642-8fbe-d2e8a8f46ab2</uuid>
            <masterclipid>masterclip-275</masterclipid>
            <ismasterclip>TRUE</ismasterclip>
            <duration>720</duration>
            <in>0</in>
            <out>720</out>
            <name>Scene - Puppet man_0003.273.png</name>
            <rate>
              <timebase>24</timebase>
              <ntsc>FALSE</ntsc>
            </rate>
            <media>
              <video>
                <track>
                  <clipitem frameBlend="FALSE" id="clipitem-276">
                    <name>Scene - Puppet man_0003.273.png</name>
                    <masterclipid>masterclip-275</masterclipid>
                    <rate>
                      <timebase>24</timebase>
                      <ntsc>FALSE</ntsc>
                    </rate>
                    <alphatype>straight</alphatype>
                    <pixelaspectratio>square</pixelaspectratio>
                    <anamorphic>FALSE</anamorphic>
                    <file id="file-275">
                      <name>Scene - Puppet man_0003.273.png</name>
                      <pathurl>file://localhost/C:/Users/jmrey/OneDrive/Desktop/Programmin Stuff/Projects/conversation-simulator/resources/videos/Scene - Puppet man_0003/Scene - Puppet man_0003.273.png</pathurl>
                      <rate>
                        <timebase>24</timebase>
                        <ntsc>FALSE</ntsc>
                      </rate>
                      <duration>720</duration>
                      <timecode>
                        <rate>
                          <timebase>24</timebase>
                          <ntsc>FALSE</ntsc>
                        </rate>
                      </timecode>
                      <media>
                        <video>
                          <duration>1</duration>
                          <samplecharacteristics>
                            <anamorphic>FALSE</anamorphic>
                            <pixelaspectratio>square</pixelaspectratio>
                            <fielddominance>none</fielddominance>
                            <width>1920</width>
                            <height>1080</height>
                          </samplecharacteristics>
                        </video>
                      </media>
                    </file>
                  </clipitem>
                </track>
              </video>
            </media>
          </clip>
          <clip explodedTracks="true" frameBlend="FALSE" id="masterclip-276">
            <uuid>ad83083d-2009-459d-91e4-8df775c3a7b4</uuid>
            <masterclipid>masterclip-276</masterclipid>
            <ismasterclip>TRUE</ismasterclip>
            <duration>720</duration>
            <in>0</in>
            <out>720</out>
            <name>Scene - Puppet man_0003.274.png</name>
            <rate>
              <timebase>24</timebase>
              <ntsc>FALSE</ntsc>
            </rate>
            <media>
              <video>
                <track>
                  <clipitem frameBlend="FALSE" id="clipitem-277">
                    <name>Scene - Puppet man_0003.274.png</name>
                    <masterclipid>masterclip-276</masterclipid>
                    <rate>
                      <timebase>24</timebase>
                      <ntsc>FALSE</ntsc>
                    </rate>
                    <alphatype>straight</alphatype>
                    <pixelaspectratio>square</pixelaspectratio>
                    <anamorphic>FALSE</anamorphic>
                    <file id="file-276">
                      <name>Scene - Puppet man_0003.274.png</name>
                      <pathurl>file://localhost/C:/Users/jmrey/OneDrive/Desktop/Programmin Stuff/Projects/conversation-simulator/resources/videos/Scene - Puppet man_0003/Scene - Puppet man_0003.274.png</pathurl>
                      <rate>
                        <timebase>24</timebase>
                        <ntsc>FALSE</ntsc>
                      </rate>
                      <duration>720</duration>
                      <timecode>
                        <rate>
                          <timebase>24</timebase>
                          <ntsc>FALSE</ntsc>
                        </rate>
                      </timecode>
                      <media>
                        <video>
                          <duration>1</duration>
                          <samplecharacteristics>
                            <anamorphic>FALSE</anamorphic>
                            <pixelaspectratio>square</pixelaspectratio>
                            <fielddominance>none</fielddominance>
                            <width>1920</width>
                            <height>1080</height>
                          </samplecharacteristics>
                        </video>
                      </media>
                    </file>
                  </clipitem>
                </track>
              </video>
            </media>
          </clip>
          <clip explodedTracks="true" frameBlend="FALSE" id="masterclip-277">
            <uuid>ecb37dc0-7398-4736-b6e9-03db8ab0bed9</uuid>
            <masterclipid>masterclip-277</masterclipid>
            <ismasterclip>TRUE</ismasterclip>
            <duration>720</duration>
            <in>0</in>
            <out>720</out>
            <name>Scene - Puppet man_0003.275.png</name>
            <rate>
              <timebase>24</timebase>
              <ntsc>FALSE</ntsc>
            </rate>
            <media>
              <video>
                <track>
                  <clipitem frameBlend="FALSE" id="clipitem-278">
                    <name>Scene - Puppet man_0003.275.png</name>
                    <masterclipid>masterclip-277</masterclipid>
                    <rate>
                      <timebase>24</timebase>
                      <ntsc>FALSE</ntsc>
                    </rate>
                    <alphatype>straight</alphatype>
                    <pixelaspectratio>square</pixelaspectratio>
                    <anamorphic>FALSE</anamorphic>
                    <file id="file-277">
                      <name>Scene - Puppet man_0003.275.png</name>
                      <pathurl>file://localhost/C:/Users/jmrey/OneDrive/Desktop/Programmin Stuff/Projects/conversation-simulator/resources/videos/Scene - Puppet man_0003/Scene - Puppet man_0003.275.png</pathurl>
                      <rate>
                        <timebase>24</timebase>
                        <ntsc>FALSE</ntsc>
                      </rate>
                      <duration>720</duration>
                      <timecode>
                        <rate>
                          <timebase>24</timebase>
                          <ntsc>FALSE</ntsc>
                        </rate>
                      </timecode>
                      <media>
                        <video>
                          <duration>1</duration>
                          <samplecharacteristics>
                            <anamorphic>FALSE</anamorphic>
                            <pixelaspectratio>square</pixelaspectratio>
                            <fielddominance>none</fielddominance>
                            <width>1920</width>
                            <height>1080</height>
                          </samplecharacteristics>
                        </video>
                      </media>
                    </file>
                  </clipitem>
                </track>
              </video>
            </media>
          </clip>
          <clip explodedTracks="true" frameBlend="FALSE" id="masterclip-278">
            <uuid>c28a9afd-61de-4e42-be51-81792d39f7e8</uuid>
            <masterclipid>masterclip-278</masterclipid>
            <ismasterclip>TRUE</ismasterclip>
            <duration>720</duration>
            <in>0</in>
            <out>720</out>
            <name>Scene - Puppet man_0003.276.png</name>
            <rate>
              <timebase>24</timebase>
              <ntsc>FALSE</ntsc>
            </rate>
            <media>
              <video>
                <track>
                  <clipitem frameBlend="FALSE" id="clipitem-279">
                    <name>Scene - Puppet man_0003.276.png</name>
                    <masterclipid>masterclip-278</masterclipid>
                    <rate>
                      <timebase>24</timebase>
                      <ntsc>FALSE</ntsc>
                    </rate>
                    <alphatype>straight</alphatype>
                    <pixelaspectratio>square</pixelaspectratio>
                    <anamorphic>FALSE</anamorphic>
                    <file id="file-278">
                      <name>Scene - Puppet man_0003.276.png</name>
                      <pathurl>file://localhost/C:/Users/jmrey/OneDrive/Desktop/Programmin Stuff/Projects/conversation-simulator/resources/videos/Scene - Puppet man_0003/Scene - Puppet man_0003.276.png</pathurl>
                      <rate>
                        <timebase>24</timebase>
                        <ntsc>FALSE</ntsc>
                      </rate>
                      <duration>720</duration>
                      <timecode>
                        <rate>
                          <timebase>24</timebase>
                          <ntsc>FALSE</ntsc>
                        </rate>
                      </timecode>
                      <media>
                        <video>
                          <duration>1</duration>
                          <samplecharacteristics>
                            <anamorphic>FALSE</anamorphic>
                            <pixelaspectratio>square</pixelaspectratio>
                            <fielddominance>none</fielddominance>
                            <width>1920</width>
                            <height>1080</height>
                          </samplecharacteristics>
                        </video>
                      </media>
                    </file>
                  </clipitem>
                </track>
              </video>
            </media>
          </clip>
          <clip explodedTracks="true" frameBlend="FALSE" id="masterclip-279">
            <uuid>1c10e796-42ef-47c4-9280-fda07fa312b1</uuid>
            <masterclipid>masterclip-279</masterclipid>
            <ismasterclip>TRUE</ismasterclip>
            <duration>720</duration>
            <in>0</in>
            <out>720</out>
            <name>Scene - Puppet man_0003.277.png</name>
            <rate>
              <timebase>24</timebase>
              <ntsc>FALSE</ntsc>
            </rate>
            <media>
              <video>
                <track>
                  <clipitem frameBlend="FALSE" id="clipitem-280">
                    <name>Scene - Puppet man_0003.277.png</name>
                    <masterclipid>masterclip-279</masterclipid>
                    <rate>
                      <timebase>24</timebase>
                      <ntsc>FALSE</ntsc>
                    </rate>
                    <alphatype>straight</alphatype>
                    <pixelaspectratio>square</pixelaspectratio>
                    <anamorphic>FALSE</anamorphic>
                    <file id="file-279">
                      <name>Scene - Puppet man_0003.277.png</name>
                      <pathurl>file://localhost/C:/Users/jmrey/OneDrive/Desktop/Programmin Stuff/Projects/conversation-simulator/resources/videos/Scene - Puppet man_0003/Scene - Puppet man_0003.277.png</pathurl>
                      <rate>
                        <timebase>24</timebase>
                        <ntsc>FALSE</ntsc>
                      </rate>
                      <duration>720</duration>
                      <timecode>
                        <rate>
                          <timebase>24</timebase>
                          <ntsc>FALSE</ntsc>
                        </rate>
                      </timecode>
                      <media>
                        <video>
                          <duration>1</duration>
                          <samplecharacteristics>
                            <anamorphic>FALSE</anamorphic>
                            <pixelaspectratio>square</pixelaspectratio>
                            <fielddominance>none</fielddominance>
                            <width>1920</width>
                            <height>1080</height>
                          </samplecharacteristics>
                        </video>
                      </media>
                    </file>
                  </clipitem>
                </track>
              </video>
            </media>
          </clip>
          <clip explodedTracks="true" frameBlend="FALSE" id="masterclip-280">
            <uuid>0025762c-a6a4-4e63-81f4-8f7e1fa6d27d</uuid>
            <masterclipid>masterclip-280</masterclipid>
            <ismasterclip>TRUE</ismasterclip>
            <duration>720</duration>
            <in>0</in>
            <out>720</out>
            <name>Scene - Puppet man_0003.278.png</name>
            <rate>
              <timebase>24</timebase>
              <ntsc>FALSE</ntsc>
            </rate>
            <media>
              <video>
                <track>
                  <clipitem frameBlend="FALSE" id="clipitem-281">
                    <name>Scene - Puppet man_0003.278.png</name>
                    <masterclipid>masterclip-280</masterclipid>
                    <rate>
                      <timebase>24</timebase>
                      <ntsc>FALSE</ntsc>
                    </rate>
                    <alphatype>straight</alphatype>
                    <pixelaspectratio>square</pixelaspectratio>
                    <anamorphic>FALSE</anamorphic>
                    <file id="file-280">
                      <name>Scene - Puppet man_0003.278.png</name>
                      <pathurl>file://localhost/C:/Users/jmrey/OneDrive/Desktop/Programmin Stuff/Projects/conversation-simulator/resources/videos/Scene - Puppet man_0003/Scene - Puppet man_0003.278.png</pathurl>
                      <rate>
                        <timebase>24</timebase>
                        <ntsc>FALSE</ntsc>
                      </rate>
                      <duration>720</duration>
                      <timecode>
                        <rate>
                          <timebase>24</timebase>
                          <ntsc>FALSE</ntsc>
                        </rate>
                      </timecode>
                      <media>
                        <video>
                          <duration>1</duration>
                          <samplecharacteristics>
                            <anamorphic>FALSE</anamorphic>
                            <pixelaspectratio>square</pixelaspectratio>
                            <fielddominance>none</fielddominance>
                            <width>1920</width>
                            <height>1080</height>
                          </samplecharacteristics>
                        </video>
                      </media>
                    </file>
                  </clipitem>
                </track>
              </video>
            </media>
          </clip>
          <clip explodedTracks="true" frameBlend="FALSE" id="masterclip-281">
            <uuid>8b2e7b05-ee42-471b-a976-a81513f7c6f6</uuid>
            <masterclipid>masterclip-281</masterclipid>
            <ismasterclip>TRUE</ismasterclip>
            <duration>720</duration>
            <in>0</in>
            <out>720</out>
            <name>Scene - Puppet man_0003.279.png</name>
            <rate>
              <timebase>24</timebase>
              <ntsc>FALSE</ntsc>
            </rate>
            <media>
              <video>
                <track>
                  <clipitem frameBlend="FALSE" id="clipitem-282">
                    <name>Scene - Puppet man_0003.279.png</name>
                    <masterclipid>masterclip-281</masterclipid>
                    <rate>
                      <timebase>24</timebase>
                      <ntsc>FALSE</ntsc>
                    </rate>
                    <alphatype>straight</alphatype>
                    <pixelaspectratio>square</pixelaspectratio>
                    <anamorphic>FALSE</anamorphic>
                    <file id="file-281">
                      <name>Scene - Puppet man_0003.279.png</name>
                      <pathurl>file://localhost/C:/Users/jmrey/OneDrive/Desktop/Programmin Stuff/Projects/conversation-simulator/resources/videos/Scene - Puppet man_0003/Scene - Puppet man_0003.279.png</pathurl>
                      <rate>
                        <timebase>24</timebase>
                        <ntsc>FALSE</ntsc>
                      </rate>
                      <duration>720</duration>
                      <timecode>
                        <rate>
                          <timebase>24</timebase>
                          <ntsc>FALSE</ntsc>
                        </rate>
                      </timecode>
                      <media>
                        <video>
                          <duration>1</duration>
                          <samplecharacteristics>
                            <anamorphic>FALSE</anamorphic>
                            <pixelaspectratio>square</pixelaspectratio>
                            <fielddominance>none</fielddominance>
                            <width>1920</width>
                            <height>1080</height>
                          </samplecharacteristics>
                        </video>
                      </media>
                    </file>
                  </clipitem>
                </track>
              </video>
            </media>
          </clip>
          <clip explodedTracks="true" frameBlend="FALSE" id="masterclip-282">
            <uuid>6d5bbb2f-7b54-4cac-8ee5-88e4b38e893d</uuid>
            <masterclipid>masterclip-282</masterclipid>
            <ismasterclip>TRUE</ismasterclip>
            <duration>720</duration>
            <in>0</in>
            <out>720</out>
            <name>Scene - Puppet man_0003.280.png</name>
            <rate>
              <timebase>24</timebase>
              <ntsc>FALSE</ntsc>
            </rate>
            <media>
              <video>
                <track>
                  <clipitem frameBlend="FALSE" id="clipitem-283">
                    <name>Scene - Puppet man_0003.280.png</name>
                    <masterclipid>masterclip-282</masterclipid>
                    <rate>
                      <timebase>24</timebase>
                      <ntsc>FALSE</ntsc>
                    </rate>
                    <alphatype>straight</alphatype>
                    <pixelaspectratio>square</pixelaspectratio>
                    <anamorphic>FALSE</anamorphic>
                    <file id="file-282">
                      <name>Scene - Puppet man_0003.280.png</name>
                      <pathurl>file://localhost/C:/Users/jmrey/OneDrive/Desktop/Programmin Stuff/Projects/conversation-simulator/resources/videos/Scene - Puppet man_0003/Scene - Puppet man_0003.280.png</pathurl>
                      <rate>
                        <timebase>24</timebase>
                        <ntsc>FALSE</ntsc>
                      </rate>
                      <duration>720</duration>
                      <timecode>
                        <rate>
                          <timebase>24</timebase>
                          <ntsc>FALSE</ntsc>
                        </rate>
                      </timecode>
                      <media>
                        <video>
                          <duration>1</duration>
                          <samplecharacteristics>
                            <anamorphic>FALSE</anamorphic>
                            <pixelaspectratio>square</pixelaspectratio>
                            <fielddominance>none</fielddominance>
                            <width>1920</width>
                            <height>1080</height>
                          </samplecharacteristics>
                        </video>
                      </media>
                    </file>
                  </clipitem>
                </track>
              </video>
            </media>
          </clip>
          <clip explodedTracks="true" frameBlend="FALSE" id="masterclip-283">
            <uuid>9ff66833-64be-4a34-8431-c401566c7bd3</uuid>
            <masterclipid>masterclip-283</masterclipid>
            <ismasterclip>TRUE</ismasterclip>
            <duration>720</duration>
            <in>0</in>
            <out>720</out>
            <name>Scene - Puppet man_0003.281.png</name>
            <rate>
              <timebase>24</timebase>
              <ntsc>FALSE</ntsc>
            </rate>
            <media>
              <video>
                <track>
                  <clipitem frameBlend="FALSE" id="clipitem-284">
                    <name>Scene - Puppet man_0003.281.png</name>
                    <masterclipid>masterclip-283</masterclipid>
                    <rate>
                      <timebase>24</timebase>
                      <ntsc>FALSE</ntsc>
                    </rate>
                    <alphatype>straight</alphatype>
                    <pixelaspectratio>square</pixelaspectratio>
                    <anamorphic>FALSE</anamorphic>
                    <file id="file-283">
                      <name>Scene - Puppet man_0003.281.png</name>
                      <pathurl>file://localhost/C:/Users/jmrey/OneDrive/Desktop/Programmin Stuff/Projects/conversation-simulator/resources/videos/Scene - Puppet man_0003/Scene - Puppet man_0003.281.png</pathurl>
                      <rate>
                        <timebase>24</timebase>
                        <ntsc>FALSE</ntsc>
                      </rate>
                      <duration>720</duration>
                      <timecode>
                        <rate>
                          <timebase>24</timebase>
                          <ntsc>FALSE</ntsc>
                        </rate>
                      </timecode>
                      <media>
                        <video>
                          <duration>1</duration>
                          <samplecharacteristics>
                            <anamorphic>FALSE</anamorphic>
                            <pixelaspectratio>square</pixelaspectratio>
                            <fielddominance>none</fielddominance>
                            <width>1920</width>
                            <height>1080</height>
                          </samplecharacteristics>
                        </video>
                      </media>
                    </file>
                  </clipitem>
                </track>
              </video>
            </media>
          </clip>
          <clip explodedTracks="true" frameBlend="FALSE" id="masterclip-284">
            <uuid>9b3d6a7a-dce6-40b2-bb97-3db19012ee59</uuid>
            <masterclipid>masterclip-284</masterclipid>
            <ismasterclip>TRUE</ismasterclip>
            <duration>720</duration>
            <in>0</in>
            <out>720</out>
            <name>Scene - Puppet man_0003.282.png</name>
            <rate>
              <timebase>24</timebase>
              <ntsc>FALSE</ntsc>
            </rate>
            <media>
              <video>
                <track>
                  <clipitem frameBlend="FALSE" id="clipitem-285">
                    <name>Scene - Puppet man_0003.282.png</name>
                    <masterclipid>masterclip-284</masterclipid>
                    <rate>
                      <timebase>24</timebase>
                      <ntsc>FALSE</ntsc>
                    </rate>
                    <alphatype>straight</alphatype>
                    <pixelaspectratio>square</pixelaspectratio>
                    <anamorphic>FALSE</anamorphic>
                    <file id="file-284">
                      <name>Scene - Puppet man_0003.282.png</name>
                      <pathurl>file://localhost/C:/Users/jmrey/OneDrive/Desktop/Programmin Stuff/Projects/conversation-simulator/resources/videos/Scene - Puppet man_0003/Scene - Puppet man_0003.282.png</pathurl>
                      <rate>
                        <timebase>24</timebase>
                        <ntsc>FALSE</ntsc>
                      </rate>
                      <duration>720</duration>
                      <timecode>
                        <rate>
                          <timebase>24</timebase>
                          <ntsc>FALSE</ntsc>
                        </rate>
                      </timecode>
                      <media>
                        <video>
                          <duration>1</duration>
                          <samplecharacteristics>
                            <anamorphic>FALSE</anamorphic>
                            <pixelaspectratio>square</pixelaspectratio>
                            <fielddominance>none</fielddominance>
                            <width>1920</width>
                            <height>1080</height>
                          </samplecharacteristics>
                        </video>
                      </media>
                    </file>
                  </clipitem>
                </track>
              </video>
            </media>
          </clip>
          <clip explodedTracks="true" frameBlend="FALSE" id="masterclip-285">
            <uuid>5ae00d28-1890-44bf-95b3-b221166d9e87</uuid>
            <masterclipid>masterclip-285</masterclipid>
            <ismasterclip>TRUE</ismasterclip>
            <duration>720</duration>
            <in>0</in>
            <out>720</out>
            <name>Scene - Puppet man_0003.283.png</name>
            <rate>
              <timebase>24</timebase>
              <ntsc>FALSE</ntsc>
            </rate>
            <media>
              <video>
                <track>
                  <clipitem frameBlend="FALSE" id="clipitem-286">
                    <name>Scene - Puppet man_0003.283.png</name>
                    <masterclipid>masterclip-285</masterclipid>
                    <rate>
                      <timebase>24</timebase>
                      <ntsc>FALSE</ntsc>
                    </rate>
                    <alphatype>straight</alphatype>
                    <pixelaspectratio>square</pixelaspectratio>
                    <anamorphic>FALSE</anamorphic>
                    <file id="file-285">
                      <name>Scene - Puppet man_0003.283.png</name>
                      <pathurl>file://localhost/C:/Users/jmrey/OneDrive/Desktop/Programmin Stuff/Projects/conversation-simulator/resources/videos/Scene - Puppet man_0003/Scene - Puppet man_0003.283.png</pathurl>
                      <rate>
                        <timebase>24</timebase>
                        <ntsc>FALSE</ntsc>
                      </rate>
                      <duration>720</duration>
                      <timecode>
                        <rate>
                          <timebase>24</timebase>
                          <ntsc>FALSE</ntsc>
                        </rate>
                      </timecode>
                      <media>
                        <video>
                          <duration>1</duration>
                          <samplecharacteristics>
                            <anamorphic>FALSE</anamorphic>
                            <pixelaspectratio>square</pixelaspectratio>
                            <fielddominance>none</fielddominance>
                            <width>1920</width>
                            <height>1080</height>
                          </samplecharacteristics>
                        </video>
                      </media>
                    </file>
                  </clipitem>
                </track>
              </video>
            </media>
          </clip>
          <clip explodedTracks="true" frameBlend="FALSE" id="masterclip-286">
            <uuid>4e579df6-5558-4d2e-b508-f497f4fbc598</uuid>
            <masterclipid>masterclip-286</masterclipid>
            <ismasterclip>TRUE</ismasterclip>
            <duration>720</duration>
            <in>0</in>
            <out>720</out>
            <name>Scene - Puppet man_0003.284.png</name>
            <rate>
              <timebase>24</timebase>
              <ntsc>FALSE</ntsc>
            </rate>
            <media>
              <video>
                <track>
                  <clipitem frameBlend="FALSE" id="clipitem-287">
                    <name>Scene - Puppet man_0003.284.png</name>
                    <masterclipid>masterclip-286</masterclipid>
                    <rate>
                      <timebase>24</timebase>
                      <ntsc>FALSE</ntsc>
                    </rate>
                    <alphatype>straight</alphatype>
                    <pixelaspectratio>square</pixelaspectratio>
                    <anamorphic>FALSE</anamorphic>
                    <file id="file-286">
                      <name>Scene - Puppet man_0003.284.png</name>
                      <pathurl>file://localhost/C:/Users/jmrey/OneDrive/Desktop/Programmin Stuff/Projects/conversation-simulator/resources/videos/Scene - Puppet man_0003/Scene - Puppet man_0003.284.png</pathurl>
                      <rate>
                        <timebase>24</timebase>
                        <ntsc>FALSE</ntsc>
                      </rate>
                      <duration>720</duration>
                      <timecode>
                        <rate>
                          <timebase>24</timebase>
                          <ntsc>FALSE</ntsc>
                        </rate>
                      </timecode>
                      <media>
                        <video>
                          <duration>1</duration>
                          <samplecharacteristics>
                            <anamorphic>FALSE</anamorphic>
                            <pixelaspectratio>square</pixelaspectratio>
                            <fielddominance>none</fielddominance>
                            <width>1920</width>
                            <height>1080</height>
                          </samplecharacteristics>
                        </video>
                      </media>
                    </file>
                  </clipitem>
                </track>
              </video>
            </media>
          </clip>
          <clip explodedTracks="true" frameBlend="FALSE" id="masterclip-287">
            <uuid>604cfd3a-1b94-41c2-95db-342b1e320ff8</uuid>
            <masterclipid>masterclip-287</masterclipid>
            <ismasterclip>TRUE</ismasterclip>
            <duration>720</duration>
            <in>0</in>
            <out>720</out>
            <name>Scene - Puppet man_0003.285.png</name>
            <rate>
              <timebase>24</timebase>
              <ntsc>FALSE</ntsc>
            </rate>
            <media>
              <video>
                <track>
                  <clipitem frameBlend="FALSE" id="clipitem-288">
                    <name>Scene - Puppet man_0003.285.png</name>
                    <masterclipid>masterclip-287</masterclipid>
                    <rate>
                      <timebase>24</timebase>
                      <ntsc>FALSE</ntsc>
                    </rate>
                    <alphatype>straight</alphatype>
                    <pixelaspectratio>square</pixelaspectratio>
                    <anamorphic>FALSE</anamorphic>
                    <file id="file-287">
                      <name>Scene - Puppet man_0003.285.png</name>
                      <pathurl>file://localhost/C:/Users/jmrey/OneDrive/Desktop/Programmin Stuff/Projects/conversation-simulator/resources/videos/Scene - Puppet man_0003/Scene - Puppet man_0003.285.png</pathurl>
                      <rate>
                        <timebase>24</timebase>
                        <ntsc>FALSE</ntsc>
                      </rate>
                      <duration>720</duration>
                      <timecode>
                        <rate>
                          <timebase>24</timebase>
                          <ntsc>FALSE</ntsc>
                        </rate>
                      </timecode>
                      <media>
                        <video>
                          <duration>1</duration>
                          <samplecharacteristics>
                            <anamorphic>FALSE</anamorphic>
                            <pixelaspectratio>square</pixelaspectratio>
                            <fielddominance>none</fielddominance>
                            <width>1920</width>
                            <height>1080</height>
                          </samplecharacteristics>
                        </video>
                      </media>
                    </file>
                  </clipitem>
                </track>
              </video>
            </media>
          </clip>
          <clip explodedTracks="true" frameBlend="FALSE" id="masterclip-288">
            <uuid>a750eec5-aef2-4dcc-a6b7-b3472b347ae4</uuid>
            <masterclipid>masterclip-288</masterclipid>
            <ismasterclip>TRUE</ismasterclip>
            <duration>720</duration>
            <in>0</in>
            <out>720</out>
            <name>Scene - Puppet man_0003.286.png</name>
            <rate>
              <timebase>24</timebase>
              <ntsc>FALSE</ntsc>
            </rate>
            <media>
              <video>
                <track>
                  <clipitem frameBlend="FALSE" id="clipitem-289">
                    <name>Scene - Puppet man_0003.286.png</name>
                    <masterclipid>masterclip-288</masterclipid>
                    <rate>
                      <timebase>24</timebase>
                      <ntsc>FALSE</ntsc>
                    </rate>
                    <alphatype>straight</alphatype>
                    <pixelaspectratio>square</pixelaspectratio>
                    <anamorphic>FALSE</anamorphic>
                    <file id="file-288">
                      <name>Scene - Puppet man_0003.286.png</name>
                      <pathurl>file://localhost/C:/Users/jmrey/OneDrive/Desktop/Programmin Stuff/Projects/conversation-simulator/resources/videos/Scene - Puppet man_0003/Scene - Puppet man_0003.286.png</pathurl>
                      <rate>
                        <timebase>24</timebase>
                        <ntsc>FALSE</ntsc>
                      </rate>
                      <duration>720</duration>
                      <timecode>
                        <rate>
                          <timebase>24</timebase>
                          <ntsc>FALSE</ntsc>
                        </rate>
                      </timecode>
                      <media>
                        <video>
                          <duration>1</duration>
                          <samplecharacteristics>
                            <anamorphic>FALSE</anamorphic>
                            <pixelaspectratio>square</pixelaspectratio>
                            <fielddominance>none</fielddominance>
                            <width>1920</width>
                            <height>1080</height>
                          </samplecharacteristics>
                        </video>
                      </media>
                    </file>
                  </clipitem>
                </track>
              </video>
            </media>
          </clip>
          <clip explodedTracks="true" frameBlend="FALSE" id="masterclip-289">
            <uuid>35575bd2-727b-4085-b13c-3af446565e06</uuid>
            <masterclipid>masterclip-289</masterclipid>
            <ismasterclip>TRUE</ismasterclip>
            <duration>720</duration>
            <in>0</in>
            <out>720</out>
            <name>Scene - Puppet man_0003.287.png</name>
            <rate>
              <timebase>24</timebase>
              <ntsc>FALSE</ntsc>
            </rate>
            <media>
              <video>
                <track>
                  <clipitem frameBlend="FALSE" id="clipitem-290">
                    <name>Scene - Puppet man_0003.287.png</name>
                    <masterclipid>masterclip-289</masterclipid>
                    <rate>
                      <timebase>24</timebase>
                      <ntsc>FALSE</ntsc>
                    </rate>
                    <alphatype>straight</alphatype>
                    <pixelaspectratio>square</pixelaspectratio>
                    <anamorphic>FALSE</anamorphic>
                    <file id="file-289">
                      <name>Scene - Puppet man_0003.287.png</name>
                      <pathurl>file://localhost/C:/Users/jmrey/OneDrive/Desktop/Programmin Stuff/Projects/conversation-simulator/resources/videos/Scene - Puppet man_0003/Scene - Puppet man_0003.287.png</pathurl>
                      <rate>
                        <timebase>24</timebase>
                        <ntsc>FALSE</ntsc>
                      </rate>
                      <duration>720</duration>
                      <timecode>
                        <rate>
                          <timebase>24</timebase>
                          <ntsc>FALSE</ntsc>
                        </rate>
                      </timecode>
                      <media>
                        <video>
                          <duration>1</duration>
                          <samplecharacteristics>
                            <anamorphic>FALSE</anamorphic>
                            <pixelaspectratio>square</pixelaspectratio>
                            <fielddominance>none</fielddominance>
                            <width>1920</width>
                            <height>1080</height>
                          </samplecharacteristics>
                        </video>
                      </media>
                    </file>
                  </clipitem>
                </track>
              </video>
            </media>
          </clip>
          <clip explodedTracks="true" frameBlend="FALSE" id="masterclip-290">
            <uuid>c723edb9-0ae6-4e20-b088-23dd4ab02c6a</uuid>
            <masterclipid>masterclip-290</masterclipid>
            <ismasterclip>TRUE</ismasterclip>
            <duration>720</duration>
            <in>0</in>
            <out>720</out>
            <name>Scene - Puppet man_0003.288.png</name>
            <rate>
              <timebase>24</timebase>
              <ntsc>FALSE</ntsc>
            </rate>
            <media>
              <video>
                <track>
                  <clipitem frameBlend="FALSE" id="clipitem-291">
                    <name>Scene - Puppet man_0003.288.png</name>
                    <masterclipid>masterclip-290</masterclipid>
                    <rate>
                      <timebase>24</timebase>
                      <ntsc>FALSE</ntsc>
                    </rate>
                    <alphatype>straight</alphatype>
                    <pixelaspectratio>square</pixelaspectratio>
                    <anamorphic>FALSE</anamorphic>
                    <file id="file-290">
                      <name>Scene - Puppet man_0003.288.png</name>
                      <pathurl>file://localhost/C:/Users/jmrey/OneDrive/Desktop/Programmin Stuff/Projects/conversation-simulator/resources/videos/Scene - Puppet man_0003/Scene - Puppet man_0003.288.png</pathurl>
                      <rate>
                        <timebase>24</timebase>
                        <ntsc>FALSE</ntsc>
                      </rate>
                      <duration>720</duration>
                      <timecode>
                        <rate>
                          <timebase>24</timebase>
                          <ntsc>FALSE</ntsc>
                        </rate>
                      </timecode>
                      <media>
                        <video>
                          <duration>1</duration>
                          <samplecharacteristics>
                            <anamorphic>FALSE</anamorphic>
                            <pixelaspectratio>square</pixelaspectratio>
                            <fielddominance>none</fielddominance>
                            <width>1920</width>
                            <height>1080</height>
                          </samplecharacteristics>
                        </video>
                      </media>
                    </file>
                  </clipitem>
                </track>
              </video>
            </media>
          </clip>
          <clip explodedTracks="true" frameBlend="FALSE" id="masterclip-291">
            <uuid>02588658-2c88-4403-a93f-6caea15d9d14</uuid>
            <masterclipid>masterclip-291</masterclipid>
            <ismasterclip>TRUE</ismasterclip>
            <duration>720</duration>
            <in>0</in>
            <out>720</out>
            <name>Scene - Puppet man_0003.289.png</name>
            <rate>
              <timebase>24</timebase>
              <ntsc>FALSE</ntsc>
            </rate>
            <media>
              <video>
                <track>
                  <clipitem frameBlend="FALSE" id="clipitem-292">
                    <name>Scene - Puppet man_0003.289.png</name>
                    <masterclipid>masterclip-291</masterclipid>
                    <rate>
                      <timebase>24</timebase>
                      <ntsc>FALSE</ntsc>
                    </rate>
                    <alphatype>straight</alphatype>
                    <pixelaspectratio>square</pixelaspectratio>
                    <anamorphic>FALSE</anamorphic>
                    <file id="file-291">
                      <name>Scene - Puppet man_0003.289.png</name>
                      <pathurl>file://localhost/C:/Users/jmrey/OneDrive/Desktop/Programmin Stuff/Projects/conversation-simulator/resources/videos/Scene - Puppet man_0003/Scene - Puppet man_0003.289.png</pathurl>
                      <rate>
                        <timebase>24</timebase>
                        <ntsc>FALSE</ntsc>
                      </rate>
                      <duration>720</duration>
                      <timecode>
                        <rate>
                          <timebase>24</timebase>
                          <ntsc>FALSE</ntsc>
                        </rate>
                      </timecode>
                      <media>
                        <video>
                          <duration>1</duration>
                          <samplecharacteristics>
                            <anamorphic>FALSE</anamorphic>
                            <pixelaspectratio>square</pixelaspectratio>
                            <fielddominance>none</fielddominance>
                            <width>1920</width>
                            <height>1080</height>
                          </samplecharacteristics>
                        </video>
                      </media>
                    </file>
                  </clipitem>
                </track>
              </video>
            </media>
          </clip>
          <clip explodedTracks="true" frameBlend="FALSE" id="masterclip-292">
            <uuid>5b4cf548-aee4-4116-8977-e499a4192380</uuid>
            <masterclipid>masterclip-292</masterclipid>
            <ismasterclip>TRUE</ismasterclip>
            <duration>720</duration>
            <in>0</in>
            <out>720</out>
            <name>Scene - Puppet man_0003.290.png</name>
            <rate>
              <timebase>24</timebase>
              <ntsc>FALSE</ntsc>
            </rate>
            <media>
              <video>
                <track>
                  <clipitem frameBlend="FALSE" id="clipitem-293">
                    <name>Scene - Puppet man_0003.290.png</name>
                    <masterclipid>masterclip-292</masterclipid>
                    <rate>
                      <timebase>24</timebase>
                      <ntsc>FALSE</ntsc>
                    </rate>
                    <alphatype>straight</alphatype>
                    <pixelaspectratio>square</pixelaspectratio>
                    <anamorphic>FALSE</anamorphic>
                    <file id="file-292">
                      <name>Scene - Puppet man_0003.290.png</name>
                      <pathurl>file://localhost/C:/Users/jmrey/OneDrive/Desktop/Programmin Stuff/Projects/conversation-simulator/resources/videos/Scene - Puppet man_0003/Scene - Puppet man_0003.290.png</pathurl>
                      <rate>
                        <timebase>24</timebase>
                        <ntsc>FALSE</ntsc>
                      </rate>
                      <duration>720</duration>
                      <timecode>
                        <rate>
                          <timebase>24</timebase>
                          <ntsc>FALSE</ntsc>
                        </rate>
                      </timecode>
                      <media>
                        <video>
                          <duration>1</duration>
                          <samplecharacteristics>
                            <anamorphic>FALSE</anamorphic>
                            <pixelaspectratio>square</pixelaspectratio>
                            <fielddominance>none</fielddominance>
                            <width>1920</width>
                            <height>1080</height>
                          </samplecharacteristics>
                        </video>
                      </media>
                    </file>
                  </clipitem>
                </track>
              </video>
            </media>
          </clip>
          <clip explodedTracks="true" frameBlend="FALSE" id="masterclip-293">
            <uuid>77419d3e-e5d5-4319-abbf-d7c95c41815b</uuid>
            <masterclipid>masterclip-293</masterclipid>
            <ismasterclip>TRUE</ismasterclip>
            <duration>720</duration>
            <in>0</in>
            <out>720</out>
            <name>Scene - Puppet man_0003.291.png</name>
            <rate>
              <timebase>24</timebase>
              <ntsc>FALSE</ntsc>
            </rate>
            <media>
              <video>
                <track>
                  <clipitem frameBlend="FALSE" id="clipitem-294">
                    <name>Scene - Puppet man_0003.291.png</name>
                    <masterclipid>masterclip-293</masterclipid>
                    <rate>
                      <timebase>24</timebase>
                      <ntsc>FALSE</ntsc>
                    </rate>
                    <alphatype>straight</alphatype>
                    <pixelaspectratio>square</pixelaspectratio>
                    <anamorphic>FALSE</anamorphic>
                    <file id="file-293">
                      <name>Scene - Puppet man_0003.291.png</name>
                      <pathurl>file://localhost/C:/Users/jmrey/OneDrive/Desktop/Programmin Stuff/Projects/conversation-simulator/resources/videos/Scene - Puppet man_0003/Scene - Puppet man_0003.291.png</pathurl>
                      <rate>
                        <timebase>24</timebase>
                        <ntsc>FALSE</ntsc>
                      </rate>
                      <duration>720</duration>
                      <timecode>
                        <rate>
                          <timebase>24</timebase>
                          <ntsc>FALSE</ntsc>
                        </rate>
                      </timecode>
                      <media>
                        <video>
                          <duration>1</duration>
                          <samplecharacteristics>
                            <anamorphic>FALSE</anamorphic>
                            <pixelaspectratio>square</pixelaspectratio>
                            <fielddominance>none</fielddominance>
                            <width>1920</width>
                            <height>1080</height>
                          </samplecharacteristics>
                        </video>
                      </media>
                    </file>
                  </clipitem>
                </track>
              </video>
            </media>
          </clip>
          <clip explodedTracks="true" frameBlend="FALSE" id="masterclip-294">
            <uuid>abe62359-bb44-45de-9f97-27d272513606</uuid>
            <masterclipid>masterclip-294</masterclipid>
            <ismasterclip>TRUE</ismasterclip>
            <duration>720</duration>
            <in>0</in>
            <out>720</out>
            <name>Scene - Puppet man_0003.292.png</name>
            <rate>
              <timebase>24</timebase>
              <ntsc>FALSE</ntsc>
            </rate>
            <media>
              <video>
                <track>
                  <clipitem frameBlend="FALSE" id="clipitem-295">
                    <name>Scene - Puppet man_0003.292.png</name>
                    <masterclipid>masterclip-294</masterclipid>
                    <rate>
                      <timebase>24</timebase>
                      <ntsc>FALSE</ntsc>
                    </rate>
                    <alphatype>straight</alphatype>
                    <pixelaspectratio>square</pixelaspectratio>
                    <anamorphic>FALSE</anamorphic>
                    <file id="file-294">
                      <name>Scene - Puppet man_0003.292.png</name>
                      <pathurl>file://localhost/C:/Users/jmrey/OneDrive/Desktop/Programmin Stuff/Projects/conversation-simulator/resources/videos/Scene - Puppet man_0003/Scene - Puppet man_0003.292.png</pathurl>
                      <rate>
                        <timebase>24</timebase>
                        <ntsc>FALSE</ntsc>
                      </rate>
                      <duration>720</duration>
                      <timecode>
                        <rate>
                          <timebase>24</timebase>
                          <ntsc>FALSE</ntsc>
                        </rate>
                      </timecode>
                      <media>
                        <video>
                          <duration>1</duration>
                          <samplecharacteristics>
                            <anamorphic>FALSE</anamorphic>
                            <pixelaspectratio>square</pixelaspectratio>
                            <fielddominance>none</fielddominance>
                            <width>1920</width>
                            <height>1080</height>
                          </samplecharacteristics>
                        </video>
                      </media>
                    </file>
                  </clipitem>
                </track>
              </video>
            </media>
          </clip>
          <clip explodedTracks="true" frameBlend="FALSE" id="masterclip-295">
            <uuid>0f90648d-03d8-482a-8678-bc31afdb4a40</uuid>
            <masterclipid>masterclip-295</masterclipid>
            <ismasterclip>TRUE</ismasterclip>
            <duration>720</duration>
            <in>0</in>
            <out>720</out>
            <name>Scene - Puppet man_0003.293.png</name>
            <rate>
              <timebase>24</timebase>
              <ntsc>FALSE</ntsc>
            </rate>
            <media>
              <video>
                <track>
                  <clipitem frameBlend="FALSE" id="clipitem-296">
                    <name>Scene - Puppet man_0003.293.png</name>
                    <masterclipid>masterclip-295</masterclipid>
                    <rate>
                      <timebase>24</timebase>
                      <ntsc>FALSE</ntsc>
                    </rate>
                    <alphatype>straight</alphatype>
                    <pixelaspectratio>square</pixelaspectratio>
                    <anamorphic>FALSE</anamorphic>
                    <file id="file-295">
                      <name>Scene - Puppet man_0003.293.png</name>
                      <pathurl>file://localhost/C:/Users/jmrey/OneDrive/Desktop/Programmin Stuff/Projects/conversation-simulator/resources/videos/Scene - Puppet man_0003/Scene - Puppet man_0003.293.png</pathurl>
                      <rate>
                        <timebase>24</timebase>
                        <ntsc>FALSE</ntsc>
                      </rate>
                      <duration>720</duration>
                      <timecode>
                        <rate>
                          <timebase>24</timebase>
                          <ntsc>FALSE</ntsc>
                        </rate>
                      </timecode>
                      <media>
                        <video>
                          <duration>1</duration>
                          <samplecharacteristics>
                            <anamorphic>FALSE</anamorphic>
                            <pixelaspectratio>square</pixelaspectratio>
                            <fielddominance>none</fielddominance>
                            <width>1920</width>
                            <height>1080</height>
                          </samplecharacteristics>
                        </video>
                      </media>
                    </file>
                  </clipitem>
                </track>
              </video>
            </media>
          </clip>
          <clip explodedTracks="true" frameBlend="FALSE" id="masterclip-296">
            <uuid>b9ae9ffe-c7a4-47d3-8800-166d09a254ae</uuid>
            <masterclipid>masterclip-296</masterclipid>
            <ismasterclip>TRUE</ismasterclip>
            <duration>720</duration>
            <in>0</in>
            <out>720</out>
            <name>Scene - Puppet man_0003.294.png</name>
            <rate>
              <timebase>24</timebase>
              <ntsc>FALSE</ntsc>
            </rate>
            <media>
              <video>
                <track>
                  <clipitem frameBlend="FALSE" id="clipitem-297">
                    <name>Scene - Puppet man_0003.294.png</name>
                    <masterclipid>masterclip-296</masterclipid>
                    <rate>
                      <timebase>24</timebase>
                      <ntsc>FALSE</ntsc>
                    </rate>
                    <alphatype>straight</alphatype>
                    <pixelaspectratio>square</pixelaspectratio>
                    <anamorphic>FALSE</anamorphic>
                    <file id="file-296">
                      <name>Scene - Puppet man_0003.294.png</name>
                      <pathurl>file://localhost/C:/Users/jmrey/OneDrive/Desktop/Programmin Stuff/Projects/conversation-simulator/resources/videos/Scene - Puppet man_0003/Scene - Puppet man_0003.294.png</pathurl>
                      <rate>
                        <timebase>24</timebase>
                        <ntsc>FALSE</ntsc>
                      </rate>
                      <duration>720</duration>
                      <timecode>
                        <rate>
                          <timebase>24</timebase>
                          <ntsc>FALSE</ntsc>
                        </rate>
                      </timecode>
                      <media>
                        <video>
                          <duration>1</duration>
                          <samplecharacteristics>
                            <anamorphic>FALSE</anamorphic>
                            <pixelaspectratio>square</pixelaspectratio>
                            <fielddominance>none</fielddominance>
                            <width>1920</width>
                            <height>1080</height>
                          </samplecharacteristics>
                        </video>
                      </media>
                    </file>
                  </clipitem>
                </track>
              </video>
            </media>
          </clip>
          <clip explodedTracks="true" frameBlend="FALSE" id="masterclip-297">
            <uuid>2cbdd5e3-78bd-4968-91b0-15e795e37f91</uuid>
            <masterclipid>masterclip-297</masterclipid>
            <ismasterclip>TRUE</ismasterclip>
            <duration>720</duration>
            <in>0</in>
            <out>720</out>
            <name>Scene - Puppet man_0003.295.png</name>
            <rate>
              <timebase>24</timebase>
              <ntsc>FALSE</ntsc>
            </rate>
            <media>
              <video>
                <track>
                  <clipitem frameBlend="FALSE" id="clipitem-298">
                    <name>Scene - Puppet man_0003.295.png</name>
                    <masterclipid>masterclip-297</masterclipid>
                    <rate>
                      <timebase>24</timebase>
                      <ntsc>FALSE</ntsc>
                    </rate>
                    <alphatype>straight</alphatype>
                    <pixelaspectratio>square</pixelaspectratio>
                    <anamorphic>FALSE</anamorphic>
                    <file id="file-297">
                      <name>Scene - Puppet man_0003.295.png</name>
                      <pathurl>file://localhost/C:/Users/jmrey/OneDrive/Desktop/Programmin Stuff/Projects/conversation-simulator/resources/videos/Scene - Puppet man_0003/Scene - Puppet man_0003.295.png</pathurl>
                      <rate>
                        <timebase>24</timebase>
                        <ntsc>FALSE</ntsc>
                      </rate>
                      <duration>720</duration>
                      <timecode>
                        <rate>
                          <timebase>24</timebase>
                          <ntsc>FALSE</ntsc>
                        </rate>
                      </timecode>
                      <media>
                        <video>
                          <duration>1</duration>
                          <samplecharacteristics>
                            <anamorphic>FALSE</anamorphic>
                            <pixelaspectratio>square</pixelaspectratio>
                            <fielddominance>none</fielddominance>
                            <width>1920</width>
                            <height>1080</height>
                          </samplecharacteristics>
                        </video>
                      </media>
                    </file>
                  </clipitem>
                </track>
              </video>
            </media>
          </clip>
          <clip explodedTracks="true" frameBlend="FALSE" id="masterclip-298">
            <uuid>467a1bf5-9731-417b-b27d-a2ac9ff5123b</uuid>
            <masterclipid>masterclip-298</masterclipid>
            <ismasterclip>TRUE</ismasterclip>
            <duration>720</duration>
            <in>0</in>
            <out>720</out>
            <name>Scene - Puppet man_0003.296.png</name>
            <rate>
              <timebase>24</timebase>
              <ntsc>FALSE</ntsc>
            </rate>
            <media>
              <video>
                <track>
                  <clipitem frameBlend="FALSE" id="clipitem-299">
                    <name>Scene - Puppet man_0003.296.png</name>
                    <masterclipid>masterclip-298</masterclipid>
                    <rate>
                      <timebase>24</timebase>
                      <ntsc>FALSE</ntsc>
                    </rate>
                    <alphatype>straight</alphatype>
                    <pixelaspectratio>square</pixelaspectratio>
                    <anamorphic>FALSE</anamorphic>
                    <file id="file-298">
                      <name>Scene - Puppet man_0003.296.png</name>
                      <pathurl>file://localhost/C:/Users/jmrey/OneDrive/Desktop/Programmin Stuff/Projects/conversation-simulator/resources/videos/Scene - Puppet man_0003/Scene - Puppet man_0003.296.png</pathurl>
                      <rate>
                        <timebase>24</timebase>
                        <ntsc>FALSE</ntsc>
                      </rate>
                      <duration>720</duration>
                      <timecode>
                        <rate>
                          <timebase>24</timebase>
                          <ntsc>FALSE</ntsc>
                        </rate>
                      </timecode>
                      <media>
                        <video>
                          <duration>1</duration>
                          <samplecharacteristics>
                            <anamorphic>FALSE</anamorphic>
                            <pixelaspectratio>square</pixelaspectratio>
                            <fielddominance>none</fielddominance>
                            <width>1920</width>
                            <height>1080</height>
                          </samplecharacteristics>
                        </video>
                      </media>
                    </file>
                  </clipitem>
                </track>
              </video>
            </media>
          </clip>
          <clip explodedTracks="true" frameBlend="FALSE" id="masterclip-299">
            <uuid>82b6f265-e6d4-473f-a01c-4189fe23cbaf</uuid>
            <masterclipid>masterclip-299</masterclipid>
            <ismasterclip>TRUE</ismasterclip>
            <duration>720</duration>
            <in>0</in>
            <out>720</out>
            <name>Scene - Puppet man_0003.297.png</name>
            <rate>
              <timebase>24</timebase>
              <ntsc>FALSE</ntsc>
            </rate>
            <media>
              <video>
                <track>
                  <clipitem frameBlend="FALSE" id="clipitem-300">
                    <name>Scene - Puppet man_0003.297.png</name>
                    <masterclipid>masterclip-299</masterclipid>
                    <rate>
                      <timebase>24</timebase>
                      <ntsc>FALSE</ntsc>
                    </rate>
                    <alphatype>straight</alphatype>
                    <pixelaspectratio>square</pixelaspectratio>
                    <anamorphic>FALSE</anamorphic>
                    <file id="file-299">
                      <name>Scene - Puppet man_0003.297.png</name>
                      <pathurl>file://localhost/C:/Users/jmrey/OneDrive/Desktop/Programmin Stuff/Projects/conversation-simulator/resources/videos/Scene - Puppet man_0003/Scene - Puppet man_0003.297.png</pathurl>
                      <rate>
                        <timebase>24</timebase>
                        <ntsc>FALSE</ntsc>
                      </rate>
                      <duration>720</duration>
                      <timecode>
                        <rate>
                          <timebase>24</timebase>
                          <ntsc>FALSE</ntsc>
                        </rate>
                      </timecode>
                      <media>
                        <video>
                          <duration>1</duration>
                          <samplecharacteristics>
                            <anamorphic>FALSE</anamorphic>
                            <pixelaspectratio>square</pixelaspectratio>
                            <fielddominance>none</fielddominance>
                            <width>1920</width>
                            <height>1080</height>
                          </samplecharacteristics>
                        </video>
                      </media>
                    </file>
                  </clipitem>
                </track>
              </video>
            </media>
          </clip>
          <clip explodedTracks="true" frameBlend="FALSE" id="masterclip-300">
            <uuid>0930bc76-229b-4901-8e85-e1a7dee8c412</uuid>
            <masterclipid>masterclip-300</masterclipid>
            <ismasterclip>TRUE</ismasterclip>
            <duration>720</duration>
            <in>0</in>
            <out>720</out>
            <name>Scene - Puppet man_0003.298.png</name>
            <rate>
              <timebase>24</timebase>
              <ntsc>FALSE</ntsc>
            </rate>
            <media>
              <video>
                <track>
                  <clipitem frameBlend="FALSE" id="clipitem-301">
                    <name>Scene - Puppet man_0003.298.png</name>
                    <masterclipid>masterclip-300</masterclipid>
                    <rate>
                      <timebase>24</timebase>
                      <ntsc>FALSE</ntsc>
                    </rate>
                    <alphatype>straight</alphatype>
                    <pixelaspectratio>square</pixelaspectratio>
                    <anamorphic>FALSE</anamorphic>
                    <file id="file-300">
                      <name>Scene - Puppet man_0003.298.png</name>
                      <pathurl>file://localhost/C:/Users/jmrey/OneDrive/Desktop/Programmin Stuff/Projects/conversation-simulator/resources/videos/Scene - Puppet man_0003/Scene - Puppet man_0003.298.png</pathurl>
                      <rate>
                        <timebase>24</timebase>
                        <ntsc>FALSE</ntsc>
                      </rate>
                      <duration>720</duration>
                      <timecode>
                        <rate>
                          <timebase>24</timebase>
                          <ntsc>FALSE</ntsc>
                        </rate>
                      </timecode>
                      <media>
                        <video>
                          <duration>1</duration>
                          <samplecharacteristics>
                            <anamorphic>FALSE</anamorphic>
                            <pixelaspectratio>square</pixelaspectratio>
                            <fielddominance>none</fielddominance>
                            <width>1920</width>
                            <height>1080</height>
                          </samplecharacteristics>
                        </video>
                      </media>
                    </file>
                  </clipitem>
                </track>
              </video>
            </media>
          </clip>
          <clip explodedTracks="true" frameBlend="FALSE" id="masterclip-301">
            <uuid>2d05a4a7-8054-4d0a-b270-a58f437cf7ff</uuid>
            <masterclipid>masterclip-301</masterclipid>
            <ismasterclip>TRUE</ismasterclip>
            <duration>720</duration>
            <in>0</in>
            <out>720</out>
            <name>Scene - Puppet man_0003.299.png</name>
            <rate>
              <timebase>24</timebase>
              <ntsc>FALSE</ntsc>
            </rate>
            <media>
              <video>
                <track>
                  <clipitem frameBlend="FALSE" id="clipitem-302">
                    <name>Scene - Puppet man_0003.299.png</name>
                    <masterclipid>masterclip-301</masterclipid>
                    <rate>
                      <timebase>24</timebase>
                      <ntsc>FALSE</ntsc>
                    </rate>
                    <alphatype>straight</alphatype>
                    <pixelaspectratio>square</pixelaspectratio>
                    <anamorphic>FALSE</anamorphic>
                    <file id="file-301">
                      <name>Scene - Puppet man_0003.299.png</name>
                      <pathurl>file://localhost/C:/Users/jmrey/OneDrive/Desktop/Programmin Stuff/Projects/conversation-simulator/resources/videos/Scene - Puppet man_0003/Scene - Puppet man_0003.299.png</pathurl>
                      <rate>
                        <timebase>24</timebase>
                        <ntsc>FALSE</ntsc>
                      </rate>
                      <duration>720</duration>
                      <timecode>
                        <rate>
                          <timebase>24</timebase>
                          <ntsc>FALSE</ntsc>
                        </rate>
                      </timecode>
                      <media>
                        <video>
                          <duration>1</duration>
                          <samplecharacteristics>
                            <anamorphic>FALSE</anamorphic>
                            <pixelaspectratio>square</pixelaspectratio>
                            <fielddominance>none</fielddominance>
                            <width>1920</width>
                            <height>1080</height>
                          </samplecharacteristics>
                        </video>
                      </media>
                    </file>
                  </clipitem>
                </track>
              </video>
            </media>
          </clip>
          <clip explodedTracks="true" frameBlend="FALSE" id="masterclip-302">
            <uuid>79405a8f-b239-41c0-a90a-384416abf86e</uuid>
            <masterclipid>masterclip-302</masterclipid>
            <ismasterclip>TRUE</ismasterclip>
            <duration>720</duration>
            <in>0</in>
            <out>720</out>
            <name>Scene - Puppet man_0003.300.png</name>
            <rate>
              <timebase>24</timebase>
              <ntsc>FALSE</ntsc>
            </rate>
            <media>
              <video>
                <track>
                  <clipitem frameBlend="FALSE" id="clipitem-303">
                    <name>Scene - Puppet man_0003.300.png</name>
                    <masterclipid>masterclip-302</masterclipid>
                    <rate>
                      <timebase>24</timebase>
                      <ntsc>FALSE</ntsc>
                    </rate>
                    <alphatype>straight</alphatype>
                    <pixelaspectratio>square</pixelaspectratio>
                    <anamorphic>FALSE</anamorphic>
                    <file id="file-302">
                      <name>Scene - Puppet man_0003.300.png</name>
                      <pathurl>file://localhost/C:/Users/jmrey/OneDrive/Desktop/Programmin Stuff/Projects/conversation-simulator/resources/videos/Scene - Puppet man_0003/Scene - Puppet man_0003.300.png</pathurl>
                      <rate>
                        <timebase>24</timebase>
                        <ntsc>FALSE</ntsc>
                      </rate>
                      <duration>720</duration>
                      <timecode>
                        <rate>
                          <timebase>24</timebase>
                          <ntsc>FALSE</ntsc>
                        </rate>
                      </timecode>
                      <media>
                        <video>
                          <duration>1</duration>
                          <samplecharacteristics>
                            <anamorphic>FALSE</anamorphic>
                            <pixelaspectratio>square</pixelaspectratio>
                            <fielddominance>none</fielddominance>
                            <width>1920</width>
                            <height>1080</height>
                          </samplecharacteristics>
                        </video>
                      </media>
                    </file>
                  </clipitem>
                </track>
              </video>
            </media>
          </clip>
          <clip explodedTracks="true" frameBlend="FALSE" id="masterclip-303">
            <uuid>ef6c78c7-5ef0-4b28-ab24-2690ac8dfd03</uuid>
            <masterclipid>masterclip-303</masterclipid>
            <ismasterclip>TRUE</ismasterclip>
            <duration>720</duration>
            <in>0</in>
            <out>720</out>
            <name>Scene - Puppet man_0003.301.png</name>
            <rate>
              <timebase>24</timebase>
              <ntsc>FALSE</ntsc>
            </rate>
            <media>
              <video>
                <track>
                  <clipitem frameBlend="FALSE" id="clipitem-304">
                    <name>Scene - Puppet man_0003.301.png</name>
                    <masterclipid>masterclip-303</masterclipid>
                    <rate>
                      <timebase>24</timebase>
                      <ntsc>FALSE</ntsc>
                    </rate>
                    <alphatype>straight</alphatype>
                    <pixelaspectratio>square</pixelaspectratio>
                    <anamorphic>FALSE</anamorphic>
                    <file id="file-303">
                      <name>Scene - Puppet man_0003.301.png</name>
                      <pathurl>file://localhost/C:/Users/jmrey/OneDrive/Desktop/Programmin Stuff/Projects/conversation-simulator/resources/videos/Scene - Puppet man_0003/Scene - Puppet man_0003.301.png</pathurl>
                      <rate>
                        <timebase>24</timebase>
                        <ntsc>FALSE</ntsc>
                      </rate>
                      <duration>720</duration>
                      <timecode>
                        <rate>
                          <timebase>24</timebase>
                          <ntsc>FALSE</ntsc>
                        </rate>
                      </timecode>
                      <media>
                        <video>
                          <duration>1</duration>
                          <samplecharacteristics>
                            <anamorphic>FALSE</anamorphic>
                            <pixelaspectratio>square</pixelaspectratio>
                            <fielddominance>none</fielddominance>
                            <width>1920</width>
                            <height>1080</height>
                          </samplecharacteristics>
                        </video>
                      </media>
                    </file>
                  </clipitem>
                </track>
              </video>
            </media>
          </clip>
          <clip explodedTracks="true" frameBlend="FALSE" id="masterclip-304">
            <uuid>e8d80ed2-2ce6-42dc-adab-1ff15e9cacb9</uuid>
            <masterclipid>masterclip-304</masterclipid>
            <ismasterclip>TRUE</ismasterclip>
            <duration>720</duration>
            <in>0</in>
            <out>720</out>
            <name>Scene - Puppet man_0003.302.png</name>
            <rate>
              <timebase>24</timebase>
              <ntsc>FALSE</ntsc>
            </rate>
            <media>
              <video>
                <track>
                  <clipitem frameBlend="FALSE" id="clipitem-305">
                    <name>Scene - Puppet man_0003.302.png</name>
                    <masterclipid>masterclip-304</masterclipid>
                    <rate>
                      <timebase>24</timebase>
                      <ntsc>FALSE</ntsc>
                    </rate>
                    <alphatype>straight</alphatype>
                    <pixelaspectratio>square</pixelaspectratio>
                    <anamorphic>FALSE</anamorphic>
                    <file id="file-304">
                      <name>Scene - Puppet man_0003.302.png</name>
                      <pathurl>file://localhost/C:/Users/jmrey/OneDrive/Desktop/Programmin Stuff/Projects/conversation-simulator/resources/videos/Scene - Puppet man_0003/Scene - Puppet man_0003.302.png</pathurl>
                      <rate>
                        <timebase>24</timebase>
                        <ntsc>FALSE</ntsc>
                      </rate>
                      <duration>720</duration>
                      <timecode>
                        <rate>
                          <timebase>24</timebase>
                          <ntsc>FALSE</ntsc>
                        </rate>
                      </timecode>
                      <media>
                        <video>
                          <duration>1</duration>
                          <samplecharacteristics>
                            <anamorphic>FALSE</anamorphic>
                            <pixelaspectratio>square</pixelaspectratio>
                            <fielddominance>none</fielddominance>
                            <width>1920</width>
                            <height>1080</height>
                          </samplecharacteristics>
                        </video>
                      </media>
                    </file>
                  </clipitem>
                </track>
              </video>
            </media>
          </clip>
          <clip explodedTracks="true" frameBlend="FALSE" id="masterclip-305">
            <uuid>d684c3cf-fb62-426f-a644-a28df010bb34</uuid>
            <masterclipid>masterclip-305</masterclipid>
            <ismasterclip>TRUE</ismasterclip>
            <duration>720</duration>
            <in>0</in>
            <out>720</out>
            <name>Scene - Puppet man_0003.303.png</name>
            <rate>
              <timebase>24</timebase>
              <ntsc>FALSE</ntsc>
            </rate>
            <media>
              <video>
                <track>
                  <clipitem frameBlend="FALSE" id="clipitem-306">
                    <name>Scene - Puppet man_0003.303.png</name>
                    <masterclipid>masterclip-305</masterclipid>
                    <rate>
                      <timebase>24</timebase>
                      <ntsc>FALSE</ntsc>
                    </rate>
                    <alphatype>straight</alphatype>
                    <pixelaspectratio>square</pixelaspectratio>
                    <anamorphic>FALSE</anamorphic>
                    <file id="file-305">
                      <name>Scene - Puppet man_0003.303.png</name>
                      <pathurl>file://localhost/C:/Users/jmrey/OneDrive/Desktop/Programmin Stuff/Projects/conversation-simulator/resources/videos/Scene - Puppet man_0003/Scene - Puppet man_0003.303.png</pathurl>
                      <rate>
                        <timebase>24</timebase>
                        <ntsc>FALSE</ntsc>
                      </rate>
                      <duration>720</duration>
                      <timecode>
                        <rate>
                          <timebase>24</timebase>
                          <ntsc>FALSE</ntsc>
                        </rate>
                      </timecode>
                      <media>
                        <video>
                          <duration>1</duration>
                          <samplecharacteristics>
                            <anamorphic>FALSE</anamorphic>
                            <pixelaspectratio>square</pixelaspectratio>
                            <fielddominance>none</fielddominance>
                            <width>1920</width>
                            <height>1080</height>
                          </samplecharacteristics>
                        </video>
                      </media>
                    </file>
                  </clipitem>
                </track>
              </video>
            </media>
          </clip>
          <clip explodedTracks="true" frameBlend="FALSE" id="masterclip-306">
            <uuid>a6f6a91a-19af-430b-9cdb-cd0598711d08</uuid>
            <masterclipid>masterclip-306</masterclipid>
            <ismasterclip>TRUE</ismasterclip>
            <duration>720</duration>
            <in>0</in>
            <out>720</out>
            <name>Scene - Puppet man_0003.304.png</name>
            <rate>
              <timebase>24</timebase>
              <ntsc>FALSE</ntsc>
            </rate>
            <media>
              <video>
                <track>
                  <clipitem frameBlend="FALSE" id="clipitem-307">
                    <name>Scene - Puppet man_0003.304.png</name>
                    <masterclipid>masterclip-306</masterclipid>
                    <rate>
                      <timebase>24</timebase>
                      <ntsc>FALSE</ntsc>
                    </rate>
                    <alphatype>straight</alphatype>
                    <pixelaspectratio>square</pixelaspectratio>
                    <anamorphic>FALSE</anamorphic>
                    <file id="file-306">
                      <name>Scene - Puppet man_0003.304.png</name>
                      <pathurl>file://localhost/C:/Users/jmrey/OneDrive/Desktop/Programmin Stuff/Projects/conversation-simulator/resources/videos/Scene - Puppet man_0003/Scene - Puppet man_0003.304.png</pathurl>
                      <rate>
                        <timebase>24</timebase>
                        <ntsc>FALSE</ntsc>
                      </rate>
                      <duration>720</duration>
                      <timecode>
                        <rate>
                          <timebase>24</timebase>
                          <ntsc>FALSE</ntsc>
                        </rate>
                      </timecode>
                      <media>
                        <video>
                          <duration>1</duration>
                          <samplecharacteristics>
                            <anamorphic>FALSE</anamorphic>
                            <pixelaspectratio>square</pixelaspectratio>
                            <fielddominance>none</fielddominance>
                            <width>1920</width>
                            <height>1080</height>
                          </samplecharacteristics>
                        </video>
                      </media>
                    </file>
                  </clipitem>
                </track>
              </video>
            </media>
          </clip>
          <clip explodedTracks="true" frameBlend="FALSE" id="masterclip-307">
            <uuid>faaae3ab-58bf-4b91-b099-1dec4ce8964a</uuid>
            <masterclipid>masterclip-307</masterclipid>
            <ismasterclip>TRUE</ismasterclip>
            <duration>720</duration>
            <in>0</in>
            <out>720</out>
            <name>Scene - Puppet man_0003.305.png</name>
            <rate>
              <timebase>24</timebase>
              <ntsc>FALSE</ntsc>
            </rate>
            <media>
              <video>
                <track>
                  <clipitem frameBlend="FALSE" id="clipitem-308">
                    <name>Scene - Puppet man_0003.305.png</name>
                    <masterclipid>masterclip-307</masterclipid>
                    <rate>
                      <timebase>24</timebase>
                      <ntsc>FALSE</ntsc>
                    </rate>
                    <alphatype>straight</alphatype>
                    <pixelaspectratio>square</pixelaspectratio>
                    <anamorphic>FALSE</anamorphic>
                    <file id="file-307">
                      <name>Scene - Puppet man_0003.305.png</name>
                      <pathurl>file://localhost/C:/Users/jmrey/OneDrive/Desktop/Programmin Stuff/Projects/conversation-simulator/resources/videos/Scene - Puppet man_0003/Scene - Puppet man_0003.305.png</pathurl>
                      <rate>
                        <timebase>24</timebase>
                        <ntsc>FALSE</ntsc>
                      </rate>
                      <duration>720</duration>
                      <timecode>
                        <rate>
                          <timebase>24</timebase>
                          <ntsc>FALSE</ntsc>
                        </rate>
                      </timecode>
                      <media>
                        <video>
                          <duration>1</duration>
                          <samplecharacteristics>
                            <anamorphic>FALSE</anamorphic>
                            <pixelaspectratio>square</pixelaspectratio>
                            <fielddominance>none</fielddominance>
                            <width>1920</width>
                            <height>1080</height>
                          </samplecharacteristics>
                        </video>
                      </media>
                    </file>
                  </clipitem>
                </track>
              </video>
            </media>
          </clip>
          <clip explodedTracks="true" frameBlend="FALSE" id="masterclip-308">
            <uuid>6b79c3c1-be9b-4c42-aca5-02c97dce4773</uuid>
            <masterclipid>masterclip-308</masterclipid>
            <ismasterclip>TRUE</ismasterclip>
            <duration>720</duration>
            <in>0</in>
            <out>720</out>
            <name>Scene - Puppet man_0003.306.png</name>
            <rate>
              <timebase>24</timebase>
              <ntsc>FALSE</ntsc>
            </rate>
            <media>
              <video>
                <track>
                  <clipitem frameBlend="FALSE" id="clipitem-309">
                    <name>Scene - Puppet man_0003.306.png</name>
                    <masterclipid>masterclip-308</masterclipid>
                    <rate>
                      <timebase>24</timebase>
                      <ntsc>FALSE</ntsc>
                    </rate>
                    <alphatype>straight</alphatype>
                    <pixelaspectratio>square</pixelaspectratio>
                    <anamorphic>FALSE</anamorphic>
                    <file id="file-308">
                      <name>Scene - Puppet man_0003.306.png</name>
                      <pathurl>file://localhost/C:/Users/jmrey/OneDrive/Desktop/Programmin Stuff/Projects/conversation-simulator/resources/videos/Scene - Puppet man_0003/Scene - Puppet man_0003.306.png</pathurl>
                      <rate>
                        <timebase>24</timebase>
                        <ntsc>FALSE</ntsc>
                      </rate>
                      <duration>720</duration>
                      <timecode>
                        <rate>
                          <timebase>24</timebase>
                          <ntsc>FALSE</ntsc>
                        </rate>
                      </timecode>
                      <media>
                        <video>
                          <duration>1</duration>
                          <samplecharacteristics>
                            <anamorphic>FALSE</anamorphic>
                            <pixelaspectratio>square</pixelaspectratio>
                            <fielddominance>none</fielddominance>
                            <width>1920</width>
                            <height>1080</height>
                          </samplecharacteristics>
                        </video>
                      </media>
                    </file>
                  </clipitem>
                </track>
              </video>
            </media>
          </clip>
          <clip explodedTracks="true" frameBlend="FALSE" id="masterclip-309">
            <uuid>b8ba13da-7f66-40ab-b7bf-1c13ea831add</uuid>
            <masterclipid>masterclip-309</masterclipid>
            <ismasterclip>TRUE</ismasterclip>
            <duration>720</duration>
            <in>0</in>
            <out>720</out>
            <name>Scene - Puppet man_0003.307.png</name>
            <rate>
              <timebase>24</timebase>
              <ntsc>FALSE</ntsc>
            </rate>
            <media>
              <video>
                <track>
                  <clipitem frameBlend="FALSE" id="clipitem-310">
                    <name>Scene - Puppet man_0003.307.png</name>
                    <masterclipid>masterclip-309</masterclipid>
                    <rate>
                      <timebase>24</timebase>
                      <ntsc>FALSE</ntsc>
                    </rate>
                    <alphatype>straight</alphatype>
                    <pixelaspectratio>square</pixelaspectratio>
                    <anamorphic>FALSE</anamorphic>
                    <file id="file-309">
                      <name>Scene - Puppet man_0003.307.png</name>
                      <pathurl>file://localhost/C:/Users/jmrey/OneDrive/Desktop/Programmin Stuff/Projects/conversation-simulator/resources/videos/Scene - Puppet man_0003/Scene - Puppet man_0003.307.png</pathurl>
                      <rate>
                        <timebase>24</timebase>
                        <ntsc>FALSE</ntsc>
                      </rate>
                      <duration>720</duration>
                      <timecode>
                        <rate>
                          <timebase>24</timebase>
                          <ntsc>FALSE</ntsc>
                        </rate>
                      </timecode>
                      <media>
                        <video>
                          <duration>1</duration>
                          <samplecharacteristics>
                            <anamorphic>FALSE</anamorphic>
                            <pixelaspectratio>square</pixelaspectratio>
                            <fielddominance>none</fielddominance>
                            <width>1920</width>
                            <height>1080</height>
                          </samplecharacteristics>
                        </video>
                      </media>
                    </file>
                  </clipitem>
                </track>
              </video>
            </media>
          </clip>
          <clip explodedTracks="true" frameBlend="FALSE" id="masterclip-310">
            <uuid>5ae0ff07-ac0f-4b0b-b4e7-d0c4c9b0086c</uuid>
            <masterclipid>masterclip-310</masterclipid>
            <ismasterclip>TRUE</ismasterclip>
            <duration>720</duration>
            <in>0</in>
            <out>720</out>
            <name>Scene - Puppet man_0003.308.png</name>
            <rate>
              <timebase>24</timebase>
              <ntsc>FALSE</ntsc>
            </rate>
            <media>
              <video>
                <track>
                  <clipitem frameBlend="FALSE" id="clipitem-311">
                    <name>Scene - Puppet man_0003.308.png</name>
                    <masterclipid>masterclip-310</masterclipid>
                    <rate>
                      <timebase>24</timebase>
                      <ntsc>FALSE</ntsc>
                    </rate>
                    <alphatype>straight</alphatype>
                    <pixelaspectratio>square</pixelaspectratio>
                    <anamorphic>FALSE</anamorphic>
                    <file id="file-310">
                      <name>Scene - Puppet man_0003.308.png</name>
                      <pathurl>file://localhost/C:/Users/jmrey/OneDrive/Desktop/Programmin Stuff/Projects/conversation-simulator/resources/videos/Scene - Puppet man_0003/Scene - Puppet man_0003.308.png</pathurl>
                      <rate>
                        <timebase>24</timebase>
                        <ntsc>FALSE</ntsc>
                      </rate>
                      <duration>720</duration>
                      <timecode>
                        <rate>
                          <timebase>24</timebase>
                          <ntsc>FALSE</ntsc>
                        </rate>
                      </timecode>
                      <media>
                        <video>
                          <duration>1</duration>
                          <samplecharacteristics>
                            <anamorphic>FALSE</anamorphic>
                            <pixelaspectratio>square</pixelaspectratio>
                            <fielddominance>none</fielddominance>
                            <width>1920</width>
                            <height>1080</height>
                          </samplecharacteristics>
                        </video>
                      </media>
                    </file>
                  </clipitem>
                </track>
              </video>
            </media>
          </clip>
          <clip explodedTracks="true" frameBlend="FALSE" id="masterclip-311">
            <uuid>de88d5e8-7941-448e-b7aa-7b9e895e3ef3</uuid>
            <masterclipid>masterclip-311</masterclipid>
            <ismasterclip>TRUE</ismasterclip>
            <duration>720</duration>
            <in>0</in>
            <out>720</out>
            <name>Scene - Puppet man_0003.309.png</name>
            <rate>
              <timebase>24</timebase>
              <ntsc>FALSE</ntsc>
            </rate>
            <media>
              <video>
                <track>
                  <clipitem frameBlend="FALSE" id="clipitem-312">
                    <name>Scene - Puppet man_0003.309.png</name>
                    <masterclipid>masterclip-311</masterclipid>
                    <rate>
                      <timebase>24</timebase>
                      <ntsc>FALSE</ntsc>
                    </rate>
                    <alphatype>straight</alphatype>
                    <pixelaspectratio>square</pixelaspectratio>
                    <anamorphic>FALSE</anamorphic>
                    <file id="file-311">
                      <name>Scene - Puppet man_0003.309.png</name>
                      <pathurl>file://localhost/C:/Users/jmrey/OneDrive/Desktop/Programmin Stuff/Projects/conversation-simulator/resources/videos/Scene - Puppet man_0003/Scene - Puppet man_0003.309.png</pathurl>
                      <rate>
                        <timebase>24</timebase>
                        <ntsc>FALSE</ntsc>
                      </rate>
                      <duration>720</duration>
                      <timecode>
                        <rate>
                          <timebase>24</timebase>
                          <ntsc>FALSE</ntsc>
                        </rate>
                      </timecode>
                      <media>
                        <video>
                          <duration>1</duration>
                          <samplecharacteristics>
                            <anamorphic>FALSE</anamorphic>
                            <pixelaspectratio>square</pixelaspectratio>
                            <fielddominance>none</fielddominance>
                            <width>1920</width>
                            <height>1080</height>
                          </samplecharacteristics>
                        </video>
                      </media>
                    </file>
                  </clipitem>
                </track>
              </video>
            </media>
          </clip>
          <clip explodedTracks="true" frameBlend="FALSE" id="masterclip-312">
            <uuid>c3e9738a-c03e-4dd9-8825-391105cbc292</uuid>
            <masterclipid>masterclip-312</masterclipid>
            <ismasterclip>TRUE</ismasterclip>
            <duration>720</duration>
            <in>0</in>
            <out>720</out>
            <name>Scene - Puppet man_0003.310.png</name>
            <rate>
              <timebase>24</timebase>
              <ntsc>FALSE</ntsc>
            </rate>
            <media>
              <video>
                <track>
                  <clipitem frameBlend="FALSE" id="clipitem-313">
                    <name>Scene - Puppet man_0003.310.png</name>
                    <masterclipid>masterclip-312</masterclipid>
                    <rate>
                      <timebase>24</timebase>
                      <ntsc>FALSE</ntsc>
                    </rate>
                    <alphatype>straight</alphatype>
                    <pixelaspectratio>square</pixelaspectratio>
                    <anamorphic>FALSE</anamorphic>
                    <file id="file-312">
                      <name>Scene - Puppet man_0003.310.png</name>
                      <pathurl>file://localhost/C:/Users/jmrey/OneDrive/Desktop/Programmin Stuff/Projects/conversation-simulator/resources/videos/Scene - Puppet man_0003/Scene - Puppet man_0003.310.png</pathurl>
                      <rate>
                        <timebase>24</timebase>
                        <ntsc>FALSE</ntsc>
                      </rate>
                      <duration>720</duration>
                      <timecode>
                        <rate>
                          <timebase>24</timebase>
                          <ntsc>FALSE</ntsc>
                        </rate>
                      </timecode>
                      <media>
                        <video>
                          <duration>1</duration>
                          <samplecharacteristics>
                            <anamorphic>FALSE</anamorphic>
                            <pixelaspectratio>square</pixelaspectratio>
                            <fielddominance>none</fielddominance>
                            <width>1920</width>
                            <height>1080</height>
                          </samplecharacteristics>
                        </video>
                      </media>
                    </file>
                  </clipitem>
                </track>
              </video>
            </media>
          </clip>
          <clip explodedTracks="true" frameBlend="FALSE" id="masterclip-313">
            <uuid>10d13091-a080-47e0-a77b-8c260d4db9e1</uuid>
            <masterclipid>masterclip-313</masterclipid>
            <ismasterclip>TRUE</ismasterclip>
            <duration>720</duration>
            <in>0</in>
            <out>720</out>
            <name>Scene - Puppet man_0003.311.png</name>
            <rate>
              <timebase>24</timebase>
              <ntsc>FALSE</ntsc>
            </rate>
            <media>
              <video>
                <track>
                  <clipitem frameBlend="FALSE" id="clipitem-314">
                    <name>Scene - Puppet man_0003.311.png</name>
                    <masterclipid>masterclip-313</masterclipid>
                    <rate>
                      <timebase>24</timebase>
                      <ntsc>FALSE</ntsc>
                    </rate>
                    <alphatype>straight</alphatype>
                    <pixelaspectratio>square</pixelaspectratio>
                    <anamorphic>FALSE</anamorphic>
                    <file id="file-313">
                      <name>Scene - Puppet man_0003.311.png</name>
                      <pathurl>file://localhost/C:/Users/jmrey/OneDrive/Desktop/Programmin Stuff/Projects/conversation-simulator/resources/videos/Scene - Puppet man_0003/Scene - Puppet man_0003.311.png</pathurl>
                      <rate>
                        <timebase>24</timebase>
                        <ntsc>FALSE</ntsc>
                      </rate>
                      <duration>720</duration>
                      <timecode>
                        <rate>
                          <timebase>24</timebase>
                          <ntsc>FALSE</ntsc>
                        </rate>
                      </timecode>
                      <media>
                        <video>
                          <duration>1</duration>
                          <samplecharacteristics>
                            <anamorphic>FALSE</anamorphic>
                            <pixelaspectratio>square</pixelaspectratio>
                            <fielddominance>none</fielddominance>
                            <width>1920</width>
                            <height>1080</height>
                          </samplecharacteristics>
                        </video>
                      </media>
                    </file>
                  </clipitem>
                </track>
              </video>
            </media>
          </clip>
          <clip explodedTracks="true" frameBlend="FALSE" id="masterclip-314">
            <uuid>18ae497a-6ae6-4289-8def-5a8e2241e7dd</uuid>
            <masterclipid>masterclip-314</masterclipid>
            <ismasterclip>TRUE</ismasterclip>
            <duration>720</duration>
            <in>0</in>
            <out>720</out>
            <name>Scene - Puppet man_0003.312.png</name>
            <rate>
              <timebase>24</timebase>
              <ntsc>FALSE</ntsc>
            </rate>
            <media>
              <video>
                <track>
                  <clipitem frameBlend="FALSE" id="clipitem-315">
                    <name>Scene - Puppet man_0003.312.png</name>
                    <masterclipid>masterclip-314</masterclipid>
                    <rate>
                      <timebase>24</timebase>
                      <ntsc>FALSE</ntsc>
                    </rate>
                    <alphatype>straight</alphatype>
                    <pixelaspectratio>square</pixelaspectratio>
                    <anamorphic>FALSE</anamorphic>
                    <file id="file-314">
                      <name>Scene - Puppet man_0003.312.png</name>
                      <pathurl>file://localhost/C:/Users/jmrey/OneDrive/Desktop/Programmin Stuff/Projects/conversation-simulator/resources/videos/Scene - Puppet man_0003/Scene - Puppet man_0003.312.png</pathurl>
                      <rate>
                        <timebase>24</timebase>
                        <ntsc>FALSE</ntsc>
                      </rate>
                      <duration>720</duration>
                      <timecode>
                        <rate>
                          <timebase>24</timebase>
                          <ntsc>FALSE</ntsc>
                        </rate>
                      </timecode>
                      <media>
                        <video>
                          <duration>1</duration>
                          <samplecharacteristics>
                            <anamorphic>FALSE</anamorphic>
                            <pixelaspectratio>square</pixelaspectratio>
                            <fielddominance>none</fielddominance>
                            <width>1920</width>
                            <height>1080</height>
                          </samplecharacteristics>
                        </video>
                      </media>
                    </file>
                  </clipitem>
                </track>
              </video>
            </media>
          </clip>
          <clip explodedTracks="true" frameBlend="FALSE" id="masterclip-315">
            <uuid>670597f8-8716-47a6-877c-36e8a4c0a161</uuid>
            <masterclipid>masterclip-315</masterclipid>
            <ismasterclip>TRUE</ismasterclip>
            <duration>720</duration>
            <in>0</in>
            <out>720</out>
            <name>Scene - Puppet man_0003.313.png</name>
            <rate>
              <timebase>24</timebase>
              <ntsc>FALSE</ntsc>
            </rate>
            <media>
              <video>
                <track>
                  <clipitem frameBlend="FALSE" id="clipitem-316">
                    <name>Scene - Puppet man_0003.313.png</name>
                    <masterclipid>masterclip-315</masterclipid>
                    <rate>
                      <timebase>24</timebase>
                      <ntsc>FALSE</ntsc>
                    </rate>
                    <alphatype>straight</alphatype>
                    <pixelaspectratio>square</pixelaspectratio>
                    <anamorphic>FALSE</anamorphic>
                    <file id="file-315">
                      <name>Scene - Puppet man_0003.313.png</name>
                      <pathurl>file://localhost/C:/Users/jmrey/OneDrive/Desktop/Programmin Stuff/Projects/conversation-simulator/resources/videos/Scene - Puppet man_0003/Scene - Puppet man_0003.313.png</pathurl>
                      <rate>
                        <timebase>24</timebase>
                        <ntsc>FALSE</ntsc>
                      </rate>
                      <duration>720</duration>
                      <timecode>
                        <rate>
                          <timebase>24</timebase>
                          <ntsc>FALSE</ntsc>
                        </rate>
                      </timecode>
                      <media>
                        <video>
                          <duration>1</duration>
                          <samplecharacteristics>
                            <anamorphic>FALSE</anamorphic>
                            <pixelaspectratio>square</pixelaspectratio>
                            <fielddominance>none</fielddominance>
                            <width>1920</width>
                            <height>1080</height>
                          </samplecharacteristics>
                        </video>
                      </media>
                    </file>
                  </clipitem>
                </track>
              </video>
            </media>
          </clip>
          <clip explodedTracks="true" frameBlend="FALSE" id="masterclip-316">
            <uuid>ed5eab69-ff08-4ae7-940a-8c4d875a7d44</uuid>
            <masterclipid>masterclip-316</masterclipid>
            <ismasterclip>TRUE</ismasterclip>
            <duration>720</duration>
            <in>0</in>
            <out>720</out>
            <name>Scene - Puppet man_0003.314.png</name>
            <rate>
              <timebase>24</timebase>
              <ntsc>FALSE</ntsc>
            </rate>
            <media>
              <video>
                <track>
                  <clipitem frameBlend="FALSE" id="clipitem-317">
                    <name>Scene - Puppet man_0003.314.png</name>
                    <masterclipid>masterclip-316</masterclipid>
                    <rate>
                      <timebase>24</timebase>
                      <ntsc>FALSE</ntsc>
                    </rate>
                    <alphatype>straight</alphatype>
                    <pixelaspectratio>square</pixelaspectratio>
                    <anamorphic>FALSE</anamorphic>
                    <file id="file-316">
                      <name>Scene - Puppet man_0003.314.png</name>
                      <pathurl>file://localhost/C:/Users/jmrey/OneDrive/Desktop/Programmin Stuff/Projects/conversation-simulator/resources/videos/Scene - Puppet man_0003/Scene - Puppet man_0003.314.png</pathurl>
                      <rate>
                        <timebase>24</timebase>
                        <ntsc>FALSE</ntsc>
                      </rate>
                      <duration>720</duration>
                      <timecode>
                        <rate>
                          <timebase>24</timebase>
                          <ntsc>FALSE</ntsc>
                        </rate>
                      </timecode>
                      <media>
                        <video>
                          <duration>1</duration>
                          <samplecharacteristics>
                            <anamorphic>FALSE</anamorphic>
                            <pixelaspectratio>square</pixelaspectratio>
                            <fielddominance>none</fielddominance>
                            <width>1920</width>
                            <height>1080</height>
                          </samplecharacteristics>
                        </video>
                      </media>
                    </file>
                  </clipitem>
                </track>
              </video>
            </media>
          </clip>
          <clip explodedTracks="true" frameBlend="FALSE" id="masterclip-317">
            <uuid>bc80e438-ad44-4197-9551-67fadf4230b6</uuid>
            <masterclipid>masterclip-317</masterclipid>
            <ismasterclip>TRUE</ismasterclip>
            <duration>720</duration>
            <in>0</in>
            <out>720</out>
            <name>Scene - Puppet man_0003.315.png</name>
            <rate>
              <timebase>24</timebase>
              <ntsc>FALSE</ntsc>
            </rate>
            <media>
              <video>
                <track>
                  <clipitem frameBlend="FALSE" id="clipitem-318">
                    <name>Scene - Puppet man_0003.315.png</name>
                    <masterclipid>masterclip-317</masterclipid>
                    <rate>
                      <timebase>24</timebase>
                      <ntsc>FALSE</ntsc>
                    </rate>
                    <alphatype>straight</alphatype>
                    <pixelaspectratio>square</pixelaspectratio>
                    <anamorphic>FALSE</anamorphic>
                    <file id="file-317">
                      <name>Scene - Puppet man_0003.315.png</name>
                      <pathurl>file://localhost/C:/Users/jmrey/OneDrive/Desktop/Programmin Stuff/Projects/conversation-simulator/resources/videos/Scene - Puppet man_0003/Scene - Puppet man_0003.315.png</pathurl>
                      <rate>
                        <timebase>24</timebase>
                        <ntsc>FALSE</ntsc>
                      </rate>
                      <duration>720</duration>
                      <timecode>
                        <rate>
                          <timebase>24</timebase>
                          <ntsc>FALSE</ntsc>
                        </rate>
                      </timecode>
                      <media>
                        <video>
                          <duration>1</duration>
                          <samplecharacteristics>
                            <anamorphic>FALSE</anamorphic>
                            <pixelaspectratio>square</pixelaspectratio>
                            <fielddominance>none</fielddominance>
                            <width>1920</width>
                            <height>1080</height>
                          </samplecharacteristics>
                        </video>
                      </media>
                    </file>
                  </clipitem>
                </track>
              </video>
            </media>
          </clip>
          <clip explodedTracks="true" frameBlend="FALSE" id="masterclip-318">
            <uuid>d2c3b2b9-69d3-4040-b80c-bfddec702b22</uuid>
            <masterclipid>masterclip-318</masterclipid>
            <ismasterclip>TRUE</ismasterclip>
            <duration>720</duration>
            <in>0</in>
            <out>720</out>
            <name>Scene - Puppet man_0003.316.png</name>
            <rate>
              <timebase>24</timebase>
              <ntsc>FALSE</ntsc>
            </rate>
            <media>
              <video>
                <track>
                  <clipitem frameBlend="FALSE" id="clipitem-319">
                    <name>Scene - Puppet man_0003.316.png</name>
                    <masterclipid>masterclip-318</masterclipid>
                    <rate>
                      <timebase>24</timebase>
                      <ntsc>FALSE</ntsc>
                    </rate>
                    <alphatype>straight</alphatype>
                    <pixelaspectratio>square</pixelaspectratio>
                    <anamorphic>FALSE</anamorphic>
                    <file id="file-318">
                      <name>Scene - Puppet man_0003.316.png</name>
                      <pathurl>file://localhost/C:/Users/jmrey/OneDrive/Desktop/Programmin Stuff/Projects/conversation-simulator/resources/videos/Scene - Puppet man_0003/Scene - Puppet man_0003.316.png</pathurl>
                      <rate>
                        <timebase>24</timebase>
                        <ntsc>FALSE</ntsc>
                      </rate>
                      <duration>720</duration>
                      <timecode>
                        <rate>
                          <timebase>24</timebase>
                          <ntsc>FALSE</ntsc>
                        </rate>
                      </timecode>
                      <media>
                        <video>
                          <duration>1</duration>
                          <samplecharacteristics>
                            <anamorphic>FALSE</anamorphic>
                            <pixelaspectratio>square</pixelaspectratio>
                            <fielddominance>none</fielddominance>
                            <width>1920</width>
                            <height>1080</height>
                          </samplecharacteristics>
                        </video>
                      </media>
                    </file>
                  </clipitem>
                </track>
              </video>
            </media>
          </clip>
          <clip explodedTracks="true" frameBlend="FALSE" id="masterclip-319">
            <uuid>2ba3ee13-197a-413b-9842-e573e6facd82</uuid>
            <masterclipid>masterclip-319</masterclipid>
            <ismasterclip>TRUE</ismasterclip>
            <duration>720</duration>
            <in>0</in>
            <out>720</out>
            <name>Scene - Puppet man_0003.317.png</name>
            <rate>
              <timebase>24</timebase>
              <ntsc>FALSE</ntsc>
            </rate>
            <media>
              <video>
                <track>
                  <clipitem frameBlend="FALSE" id="clipitem-320">
                    <name>Scene - Puppet man_0003.317.png</name>
                    <masterclipid>masterclip-319</masterclipid>
                    <rate>
                      <timebase>24</timebase>
                      <ntsc>FALSE</ntsc>
                    </rate>
                    <alphatype>straight</alphatype>
                    <pixelaspectratio>square</pixelaspectratio>
                    <anamorphic>FALSE</anamorphic>
                    <file id="file-319">
                      <name>Scene - Puppet man_0003.317.png</name>
                      <pathurl>file://localhost/C:/Users/jmrey/OneDrive/Desktop/Programmin Stuff/Projects/conversation-simulator/resources/videos/Scene - Puppet man_0003/Scene - Puppet man_0003.317.png</pathurl>
                      <rate>
                        <timebase>24</timebase>
                        <ntsc>FALSE</ntsc>
                      </rate>
                      <duration>720</duration>
                      <timecode>
                        <rate>
                          <timebase>24</timebase>
                          <ntsc>FALSE</ntsc>
                        </rate>
                      </timecode>
                      <media>
                        <video>
                          <duration>1</duration>
                          <samplecharacteristics>
                            <anamorphic>FALSE</anamorphic>
                            <pixelaspectratio>square</pixelaspectratio>
                            <fielddominance>none</fielddominance>
                            <width>1920</width>
                            <height>1080</height>
                          </samplecharacteristics>
                        </video>
                      </media>
                    </file>
                  </clipitem>
                </track>
              </video>
            </media>
          </clip>
          <clip explodedTracks="true" frameBlend="FALSE" id="masterclip-320">
            <uuid>f671a55f-7db2-46ba-8b6e-60357d31f53e</uuid>
            <masterclipid>masterclip-320</masterclipid>
            <ismasterclip>TRUE</ismasterclip>
            <duration>720</duration>
            <in>0</in>
            <out>720</out>
            <name>Scene - Puppet man_0003.318.png</name>
            <rate>
              <timebase>24</timebase>
              <ntsc>FALSE</ntsc>
            </rate>
            <media>
              <video>
                <track>
                  <clipitem frameBlend="FALSE" id="clipitem-321">
                    <name>Scene - Puppet man_0003.318.png</name>
                    <masterclipid>masterclip-320</masterclipid>
                    <rate>
                      <timebase>24</timebase>
                      <ntsc>FALSE</ntsc>
                    </rate>
                    <alphatype>straight</alphatype>
                    <pixelaspectratio>square</pixelaspectratio>
                    <anamorphic>FALSE</anamorphic>
                    <file id="file-320">
                      <name>Scene - Puppet man_0003.318.png</name>
                      <pathurl>file://localhost/C:/Users/jmrey/OneDrive/Desktop/Programmin Stuff/Projects/conversation-simulator/resources/videos/Scene - Puppet man_0003/Scene - Puppet man_0003.318.png</pathurl>
                      <rate>
                        <timebase>24</timebase>
                        <ntsc>FALSE</ntsc>
                      </rate>
                      <duration>720</duration>
                      <timecode>
                        <rate>
                          <timebase>24</timebase>
                          <ntsc>FALSE</ntsc>
                        </rate>
                      </timecode>
                      <media>
                        <video>
                          <duration>1</duration>
                          <samplecharacteristics>
                            <anamorphic>FALSE</anamorphic>
                            <pixelaspectratio>square</pixelaspectratio>
                            <fielddominance>none</fielddominance>
                            <width>1920</width>
                            <height>1080</height>
                          </samplecharacteristics>
                        </video>
                      </media>
                    </file>
                  </clipitem>
                </track>
              </video>
            </media>
          </clip>
          <clip explodedTracks="true" frameBlend="FALSE" id="masterclip-321">
            <uuid>f6b9838c-5c03-4bf1-9c8d-d1867ec927e9</uuid>
            <masterclipid>masterclip-321</masterclipid>
            <ismasterclip>TRUE</ismasterclip>
            <duration>720</duration>
            <in>0</in>
            <out>720</out>
            <name>Scene - Puppet man_0003.319.png</name>
            <rate>
              <timebase>24</timebase>
              <ntsc>FALSE</ntsc>
            </rate>
            <media>
              <video>
                <track>
                  <clipitem frameBlend="FALSE" id="clipitem-322">
                    <name>Scene - Puppet man_0003.319.png</name>
                    <masterclipid>masterclip-321</masterclipid>
                    <rate>
                      <timebase>24</timebase>
                      <ntsc>FALSE</ntsc>
                    </rate>
                    <alphatype>straight</alphatype>
                    <pixelaspectratio>square</pixelaspectratio>
                    <anamorphic>FALSE</anamorphic>
                    <file id="file-321">
                      <name>Scene - Puppet man_0003.319.png</name>
                      <pathurl>file://localhost/C:/Users/jmrey/OneDrive/Desktop/Programmin Stuff/Projects/conversation-simulator/resources/videos/Scene - Puppet man_0003/Scene - Puppet man_0003.319.png</pathurl>
                      <rate>
                        <timebase>24</timebase>
                        <ntsc>FALSE</ntsc>
                      </rate>
                      <duration>720</duration>
                      <timecode>
                        <rate>
                          <timebase>24</timebase>
                          <ntsc>FALSE</ntsc>
                        </rate>
                      </timecode>
                      <media>
                        <video>
                          <duration>1</duration>
                          <samplecharacteristics>
                            <anamorphic>FALSE</anamorphic>
                            <pixelaspectratio>square</pixelaspectratio>
                            <fielddominance>none</fielddominance>
                            <width>1920</width>
                            <height>1080</height>
                          </samplecharacteristics>
                        </video>
                      </media>
                    </file>
                  </clipitem>
                </track>
              </video>
            </media>
          </clip>
          <clip explodedTracks="true" frameBlend="FALSE" id="masterclip-322">
            <uuid>3fc7659f-b9db-4b0b-86e7-886bd176067f</uuid>
            <masterclipid>masterclip-322</masterclipid>
            <ismasterclip>TRUE</ismasterclip>
            <duration>720</duration>
            <in>0</in>
            <out>720</out>
            <name>Scene - Puppet man_0003.320.png</name>
            <rate>
              <timebase>24</timebase>
              <ntsc>FALSE</ntsc>
            </rate>
            <media>
              <video>
                <track>
                  <clipitem frameBlend="FALSE" id="clipitem-323">
                    <name>Scene - Puppet man_0003.320.png</name>
                    <masterclipid>masterclip-322</masterclipid>
                    <rate>
                      <timebase>24</timebase>
                      <ntsc>FALSE</ntsc>
                    </rate>
                    <alphatype>straight</alphatype>
                    <pixelaspectratio>square</pixelaspectratio>
                    <anamorphic>FALSE</anamorphic>
                    <file id="file-322">
                      <name>Scene - Puppet man_0003.320.png</name>
                      <pathurl>file://localhost/C:/Users/jmrey/OneDrive/Desktop/Programmin Stuff/Projects/conversation-simulator/resources/videos/Scene - Puppet man_0003/Scene - Puppet man_0003.320.png</pathurl>
                      <rate>
                        <timebase>24</timebase>
                        <ntsc>FALSE</ntsc>
                      </rate>
                      <duration>720</duration>
                      <timecode>
                        <rate>
                          <timebase>24</timebase>
                          <ntsc>FALSE</ntsc>
                        </rate>
                      </timecode>
                      <media>
                        <video>
                          <duration>1</duration>
                          <samplecharacteristics>
                            <anamorphic>FALSE</anamorphic>
                            <pixelaspectratio>square</pixelaspectratio>
                            <fielddominance>none</fielddominance>
                            <width>1920</width>
                            <height>1080</height>
                          </samplecharacteristics>
                        </video>
                      </media>
                    </file>
                  </clipitem>
                </track>
              </video>
            </media>
          </clip>
          <clip explodedTracks="true" frameBlend="FALSE" id="masterclip-323">
            <uuid>8e1c2991-b0e3-4a47-b1f3-543e9ce736a7</uuid>
            <masterclipid>masterclip-323</masterclipid>
            <ismasterclip>TRUE</ismasterclip>
            <duration>720</duration>
            <in>0</in>
            <out>720</out>
            <name>Scene - Puppet man_0003.321.png</name>
            <rate>
              <timebase>24</timebase>
              <ntsc>FALSE</ntsc>
            </rate>
            <media>
              <video>
                <track>
                  <clipitem frameBlend="FALSE" id="clipitem-324">
                    <name>Scene - Puppet man_0003.321.png</name>
                    <masterclipid>masterclip-323</masterclipid>
                    <rate>
                      <timebase>24</timebase>
                      <ntsc>FALSE</ntsc>
                    </rate>
                    <alphatype>straight</alphatype>
                    <pixelaspectratio>square</pixelaspectratio>
                    <anamorphic>FALSE</anamorphic>
                    <file id="file-323">
                      <name>Scene - Puppet man_0003.321.png</name>
                      <pathurl>file://localhost/C:/Users/jmrey/OneDrive/Desktop/Programmin Stuff/Projects/conversation-simulator/resources/videos/Scene - Puppet man_0003/Scene - Puppet man_0003.321.png</pathurl>
                      <rate>
                        <timebase>24</timebase>
                        <ntsc>FALSE</ntsc>
                      </rate>
                      <duration>720</duration>
                      <timecode>
                        <rate>
                          <timebase>24</timebase>
                          <ntsc>FALSE</ntsc>
                        </rate>
                      </timecode>
                      <media>
                        <video>
                          <duration>1</duration>
                          <samplecharacteristics>
                            <anamorphic>FALSE</anamorphic>
                            <pixelaspectratio>square</pixelaspectratio>
                            <fielddominance>none</fielddominance>
                            <width>1920</width>
                            <height>1080</height>
                          </samplecharacteristics>
                        </video>
                      </media>
                    </file>
                  </clipitem>
                </track>
              </video>
            </media>
          </clip>
          <clip explodedTracks="true" frameBlend="FALSE" id="masterclip-324">
            <uuid>4dd93982-3170-431b-a65e-f62d2d47d0aa</uuid>
            <masterclipid>masterclip-324</masterclipid>
            <ismasterclip>TRUE</ismasterclip>
            <duration>720</duration>
            <in>0</in>
            <out>720</out>
            <name>Scene - Puppet man_0003.322.png</name>
            <rate>
              <timebase>24</timebase>
              <ntsc>FALSE</ntsc>
            </rate>
            <media>
              <video>
                <track>
                  <clipitem frameBlend="FALSE" id="clipitem-325">
                    <name>Scene - Puppet man_0003.322.png</name>
                    <masterclipid>masterclip-324</masterclipid>
                    <rate>
                      <timebase>24</timebase>
                      <ntsc>FALSE</ntsc>
                    </rate>
                    <alphatype>straight</alphatype>
                    <pixelaspectratio>square</pixelaspectratio>
                    <anamorphic>FALSE</anamorphic>
                    <file id="file-324">
                      <name>Scene - Puppet man_0003.322.png</name>
                      <pathurl>file://localhost/C:/Users/jmrey/OneDrive/Desktop/Programmin Stuff/Projects/conversation-simulator/resources/videos/Scene - Puppet man_0003/Scene - Puppet man_0003.322.png</pathurl>
                      <rate>
                        <timebase>24</timebase>
                        <ntsc>FALSE</ntsc>
                      </rate>
                      <duration>720</duration>
                      <timecode>
                        <rate>
                          <timebase>24</timebase>
                          <ntsc>FALSE</ntsc>
                        </rate>
                      </timecode>
                      <media>
                        <video>
                          <duration>1</duration>
                          <samplecharacteristics>
                            <anamorphic>FALSE</anamorphic>
                            <pixelaspectratio>square</pixelaspectratio>
                            <fielddominance>none</fielddominance>
                            <width>1920</width>
                            <height>1080</height>
                          </samplecharacteristics>
                        </video>
                      </media>
                    </file>
                  </clipitem>
                </track>
              </video>
            </media>
          </clip>
          <clip explodedTracks="true" frameBlend="FALSE" id="masterclip-325">
            <uuid>6c2a7365-9743-4425-b80b-b6be8e836b47</uuid>
            <masterclipid>masterclip-325</masterclipid>
            <ismasterclip>TRUE</ismasterclip>
            <duration>720</duration>
            <in>0</in>
            <out>720</out>
            <name>Scene - Puppet man_0003.323.png</name>
            <rate>
              <timebase>24</timebase>
              <ntsc>FALSE</ntsc>
            </rate>
            <media>
              <video>
                <track>
                  <clipitem frameBlend="FALSE" id="clipitem-326">
                    <name>Scene - Puppet man_0003.323.png</name>
                    <masterclipid>masterclip-325</masterclipid>
                    <rate>
                      <timebase>24</timebase>
                      <ntsc>FALSE</ntsc>
                    </rate>
                    <alphatype>straight</alphatype>
                    <pixelaspectratio>square</pixelaspectratio>
                    <anamorphic>FALSE</anamorphic>
                    <file id="file-325">
                      <name>Scene - Puppet man_0003.323.png</name>
                      <pathurl>file://localhost/C:/Users/jmrey/OneDrive/Desktop/Programmin Stuff/Projects/conversation-simulator/resources/videos/Scene - Puppet man_0003/Scene - Puppet man_0003.323.png</pathurl>
                      <rate>
                        <timebase>24</timebase>
                        <ntsc>FALSE</ntsc>
                      </rate>
                      <duration>720</duration>
                      <timecode>
                        <rate>
                          <timebase>24</timebase>
                          <ntsc>FALSE</ntsc>
                        </rate>
                      </timecode>
                      <media>
                        <video>
                          <duration>1</duration>
                          <samplecharacteristics>
                            <anamorphic>FALSE</anamorphic>
                            <pixelaspectratio>square</pixelaspectratio>
                            <fielddominance>none</fielddominance>
                            <width>1920</width>
                            <height>1080</height>
                          </samplecharacteristics>
                        </video>
                      </media>
                    </file>
                  </clipitem>
                </track>
              </video>
            </media>
          </clip>
          <clip explodedTracks="true" frameBlend="FALSE" id="masterclip-326">
            <uuid>507a58ff-7843-49cc-9b01-619506f22245</uuid>
            <masterclipid>masterclip-326</masterclipid>
            <ismasterclip>TRUE</ismasterclip>
            <duration>720</duration>
            <in>0</in>
            <out>720</out>
            <name>Scene - Puppet man_0003.324.png</name>
            <rate>
              <timebase>24</timebase>
              <ntsc>FALSE</ntsc>
            </rate>
            <media>
              <video>
                <track>
                  <clipitem frameBlend="FALSE" id="clipitem-327">
                    <name>Scene - Puppet man_0003.324.png</name>
                    <masterclipid>masterclip-326</masterclipid>
                    <rate>
                      <timebase>24</timebase>
                      <ntsc>FALSE</ntsc>
                    </rate>
                    <alphatype>straight</alphatype>
                    <pixelaspectratio>square</pixelaspectratio>
                    <anamorphic>FALSE</anamorphic>
                    <file id="file-326">
                      <name>Scene - Puppet man_0003.324.png</name>
                      <pathurl>file://localhost/C:/Users/jmrey/OneDrive/Desktop/Programmin Stuff/Projects/conversation-simulator/resources/videos/Scene - Puppet man_0003/Scene - Puppet man_0003.324.png</pathurl>
                      <rate>
                        <timebase>24</timebase>
                        <ntsc>FALSE</ntsc>
                      </rate>
                      <duration>720</duration>
                      <timecode>
                        <rate>
                          <timebase>24</timebase>
                          <ntsc>FALSE</ntsc>
                        </rate>
                      </timecode>
                      <media>
                        <video>
                          <duration>1</duration>
                          <samplecharacteristics>
                            <anamorphic>FALSE</anamorphic>
                            <pixelaspectratio>square</pixelaspectratio>
                            <fielddominance>none</fielddominance>
                            <width>1920</width>
                            <height>1080</height>
                          </samplecharacteristics>
                        </video>
                      </media>
                    </file>
                  </clipitem>
                </track>
              </video>
            </media>
          </clip>
          <clip explodedTracks="true" frameBlend="FALSE" id="masterclip-327">
            <uuid>e1dc46f7-2f34-47f5-ab49-0d346a992376</uuid>
            <masterclipid>masterclip-327</masterclipid>
            <ismasterclip>TRUE</ismasterclip>
            <duration>720</duration>
            <in>0</in>
            <out>720</out>
            <name>Scene - Puppet man_0003.325.png</name>
            <rate>
              <timebase>24</timebase>
              <ntsc>FALSE</ntsc>
            </rate>
            <media>
              <video>
                <track>
                  <clipitem frameBlend="FALSE" id="clipitem-328">
                    <name>Scene - Puppet man_0003.325.png</name>
                    <masterclipid>masterclip-327</masterclipid>
                    <rate>
                      <timebase>24</timebase>
                      <ntsc>FALSE</ntsc>
                    </rate>
                    <alphatype>straight</alphatype>
                    <pixelaspectratio>square</pixelaspectratio>
                    <anamorphic>FALSE</anamorphic>
                    <file id="file-327">
                      <name>Scene - Puppet man_0003.325.png</name>
                      <pathurl>file://localhost/C:/Users/jmrey/OneDrive/Desktop/Programmin Stuff/Projects/conversation-simulator/resources/videos/Scene - Puppet man_0003/Scene - Puppet man_0003.325.png</pathurl>
                      <rate>
                        <timebase>24</timebase>
                        <ntsc>FALSE</ntsc>
                      </rate>
                      <duration>720</duration>
                      <timecode>
                        <rate>
                          <timebase>24</timebase>
                          <ntsc>FALSE</ntsc>
                        </rate>
                      </timecode>
                      <media>
                        <video>
                          <duration>1</duration>
                          <samplecharacteristics>
                            <anamorphic>FALSE</anamorphic>
                            <pixelaspectratio>square</pixelaspectratio>
                            <fielddominance>none</fielddominance>
                            <width>1920</width>
                            <height>1080</height>
                          </samplecharacteristics>
                        </video>
                      </media>
                    </file>
                  </clipitem>
                </track>
              </video>
            </media>
          </clip>
          <clip explodedTracks="true" frameBlend="FALSE" id="masterclip-328">
            <uuid>a2684cdc-dcb2-45a1-95fa-62e2a7a7bf28</uuid>
            <masterclipid>masterclip-328</masterclipid>
            <ismasterclip>TRUE</ismasterclip>
            <duration>720</duration>
            <in>0</in>
            <out>720</out>
            <name>Scene - Puppet man_0003.326.png</name>
            <rate>
              <timebase>24</timebase>
              <ntsc>FALSE</ntsc>
            </rate>
            <media>
              <video>
                <track>
                  <clipitem frameBlend="FALSE" id="clipitem-329">
                    <name>Scene - Puppet man_0003.326.png</name>
                    <masterclipid>masterclip-328</masterclipid>
                    <rate>
                      <timebase>24</timebase>
                      <ntsc>FALSE</ntsc>
                    </rate>
                    <alphatype>straight</alphatype>
                    <pixelaspectratio>square</pixelaspectratio>
                    <anamorphic>FALSE</anamorphic>
                    <file id="file-328">
                      <name>Scene - Puppet man_0003.326.png</name>
                      <pathurl>file://localhost/C:/Users/jmrey/OneDrive/Desktop/Programmin Stuff/Projects/conversation-simulator/resources/videos/Scene - Puppet man_0003/Scene - Puppet man_0003.326.png</pathurl>
                      <rate>
                        <timebase>24</timebase>
                        <ntsc>FALSE</ntsc>
                      </rate>
                      <duration>720</duration>
                      <timecode>
                        <rate>
                          <timebase>24</timebase>
                          <ntsc>FALSE</ntsc>
                        </rate>
                      </timecode>
                      <media>
                        <video>
                          <duration>1</duration>
                          <samplecharacteristics>
                            <anamorphic>FALSE</anamorphic>
                            <pixelaspectratio>square</pixelaspectratio>
                            <fielddominance>none</fielddominance>
                            <width>1920</width>
                            <height>1080</height>
                          </samplecharacteristics>
                        </video>
                      </media>
                    </file>
                  </clipitem>
                </track>
              </video>
            </media>
          </clip>
          <clip explodedTracks="true" frameBlend="FALSE" id="masterclip-329">
            <uuid>edb2c742-0771-447c-938f-4081312e4e18</uuid>
            <masterclipid>masterclip-329</masterclipid>
            <ismasterclip>TRUE</ismasterclip>
            <duration>720</duration>
            <in>0</in>
            <out>720</out>
            <name>Scene - Puppet man_0003.327.png</name>
            <rate>
              <timebase>24</timebase>
              <ntsc>FALSE</ntsc>
            </rate>
            <media>
              <video>
                <track>
                  <clipitem frameBlend="FALSE" id="clipitem-330">
                    <name>Scene - Puppet man_0003.327.png</name>
                    <masterclipid>masterclip-329</masterclipid>
                    <rate>
                      <timebase>24</timebase>
                      <ntsc>FALSE</ntsc>
                    </rate>
                    <alphatype>straight</alphatype>
                    <pixelaspectratio>square</pixelaspectratio>
                    <anamorphic>FALSE</anamorphic>
                    <file id="file-329">
                      <name>Scene - Puppet man_0003.327.png</name>
                      <pathurl>file://localhost/C:/Users/jmrey/OneDrive/Desktop/Programmin Stuff/Projects/conversation-simulator/resources/videos/Scene - Puppet man_0003/Scene - Puppet man_0003.327.png</pathurl>
                      <rate>
                        <timebase>24</timebase>
                        <ntsc>FALSE</ntsc>
                      </rate>
                      <duration>720</duration>
                      <timecode>
                        <rate>
                          <timebase>24</timebase>
                          <ntsc>FALSE</ntsc>
                        </rate>
                      </timecode>
                      <media>
                        <video>
                          <duration>1</duration>
                          <samplecharacteristics>
                            <anamorphic>FALSE</anamorphic>
                            <pixelaspectratio>square</pixelaspectratio>
                            <fielddominance>none</fielddominance>
                            <width>1920</width>
                            <height>1080</height>
                          </samplecharacteristics>
                        </video>
                      </media>
                    </file>
                  </clipitem>
                </track>
              </video>
            </media>
          </clip>
          <clip explodedTracks="true" frameBlend="FALSE" id="masterclip-330">
            <uuid>3742e538-e1e0-43aa-9372-7f9971e4b3fe</uuid>
            <masterclipid>masterclip-330</masterclipid>
            <ismasterclip>TRUE</ismasterclip>
            <duration>720</duration>
            <in>0</in>
            <out>720</out>
            <name>Scene - Puppet man_0003.328.png</name>
            <rate>
              <timebase>24</timebase>
              <ntsc>FALSE</ntsc>
            </rate>
            <media>
              <video>
                <track>
                  <clipitem frameBlend="FALSE" id="clipitem-331">
                    <name>Scene - Puppet man_0003.328.png</name>
                    <masterclipid>masterclip-330</masterclipid>
                    <rate>
                      <timebase>24</timebase>
                      <ntsc>FALSE</ntsc>
                    </rate>
                    <alphatype>straight</alphatype>
                    <pixelaspectratio>square</pixelaspectratio>
                    <anamorphic>FALSE</anamorphic>
                    <file id="file-330">
                      <name>Scene - Puppet man_0003.328.png</name>
                      <pathurl>file://localhost/C:/Users/jmrey/OneDrive/Desktop/Programmin Stuff/Projects/conversation-simulator/resources/videos/Scene - Puppet man_0003/Scene - Puppet man_0003.328.png</pathurl>
                      <rate>
                        <timebase>24</timebase>
                        <ntsc>FALSE</ntsc>
                      </rate>
                      <duration>720</duration>
                      <timecode>
                        <rate>
                          <timebase>24</timebase>
                          <ntsc>FALSE</ntsc>
                        </rate>
                      </timecode>
                      <media>
                        <video>
                          <duration>1</duration>
                          <samplecharacteristics>
                            <anamorphic>FALSE</anamorphic>
                            <pixelaspectratio>square</pixelaspectratio>
                            <fielddominance>none</fielddominance>
                            <width>1920</width>
                            <height>1080</height>
                          </samplecharacteristics>
                        </video>
                      </media>
                    </file>
                  </clipitem>
                </track>
              </video>
            </media>
          </clip>
          <clip explodedTracks="true" frameBlend="FALSE" id="masterclip-331">
            <uuid>fee18750-499d-451e-be3d-507a9a53e281</uuid>
            <masterclipid>masterclip-331</masterclipid>
            <ismasterclip>TRUE</ismasterclip>
            <duration>720</duration>
            <in>0</in>
            <out>720</out>
            <name>Scene - Puppet man_0003.329.png</name>
            <rate>
              <timebase>24</timebase>
              <ntsc>FALSE</ntsc>
            </rate>
            <media>
              <video>
                <track>
                  <clipitem frameBlend="FALSE" id="clipitem-332">
                    <name>Scene - Puppet man_0003.329.png</name>
                    <masterclipid>masterclip-331</masterclipid>
                    <rate>
                      <timebase>24</timebase>
                      <ntsc>FALSE</ntsc>
                    </rate>
                    <alphatype>straight</alphatype>
                    <pixelaspectratio>square</pixelaspectratio>
                    <anamorphic>FALSE</anamorphic>
                    <file id="file-331">
                      <name>Scene - Puppet man_0003.329.png</name>
                      <pathurl>file://localhost/C:/Users/jmrey/OneDrive/Desktop/Programmin Stuff/Projects/conversation-simulator/resources/videos/Scene - Puppet man_0003/Scene - Puppet man_0003.329.png</pathurl>
                      <rate>
                        <timebase>24</timebase>
                        <ntsc>FALSE</ntsc>
                      </rate>
                      <duration>720</duration>
                      <timecode>
                        <rate>
                          <timebase>24</timebase>
                          <ntsc>FALSE</ntsc>
                        </rate>
                      </timecode>
                      <media>
                        <video>
                          <duration>1</duration>
                          <samplecharacteristics>
                            <anamorphic>FALSE</anamorphic>
                            <pixelaspectratio>square</pixelaspectratio>
                            <fielddominance>none</fielddominance>
                            <width>1920</width>
                            <height>1080</height>
                          </samplecharacteristics>
                        </video>
                      </media>
                    </file>
                  </clipitem>
                </track>
              </video>
            </media>
          </clip>
          <clip explodedTracks="true" frameBlend="FALSE" id="masterclip-332">
            <uuid>347000af-8405-4257-aad5-84510ba1be17</uuid>
            <masterclipid>masterclip-332</masterclipid>
            <ismasterclip>TRUE</ismasterclip>
            <duration>720</duration>
            <in>0</in>
            <out>720</out>
            <name>Scene - Puppet man_0003.330.png</name>
            <rate>
              <timebase>24</timebase>
              <ntsc>FALSE</ntsc>
            </rate>
            <media>
              <video>
                <track>
                  <clipitem frameBlend="FALSE" id="clipitem-333">
                    <name>Scene - Puppet man_0003.330.png</name>
                    <masterclipid>masterclip-332</masterclipid>
                    <rate>
                      <timebase>24</timebase>
                      <ntsc>FALSE</ntsc>
                    </rate>
                    <alphatype>straight</alphatype>
                    <pixelaspectratio>square</pixelaspectratio>
                    <anamorphic>FALSE</anamorphic>
                    <file id="file-332">
                      <name>Scene - Puppet man_0003.330.png</name>
                      <pathurl>file://localhost/C:/Users/jmrey/OneDrive/Desktop/Programmin Stuff/Projects/conversation-simulator/resources/videos/Scene - Puppet man_0003/Scene - Puppet man_0003.330.png</pathurl>
                      <rate>
                        <timebase>24</timebase>
                        <ntsc>FALSE</ntsc>
                      </rate>
                      <duration>720</duration>
                      <timecode>
                        <rate>
                          <timebase>24</timebase>
                          <ntsc>FALSE</ntsc>
                        </rate>
                      </timecode>
                      <media>
                        <video>
                          <duration>1</duration>
                          <samplecharacteristics>
                            <anamorphic>FALSE</anamorphic>
                            <pixelaspectratio>square</pixelaspectratio>
                            <fielddominance>none</fielddominance>
                            <width>1920</width>
                            <height>1080</height>
                          </samplecharacteristics>
                        </video>
                      </media>
                    </file>
                  </clipitem>
                </track>
              </video>
            </media>
          </clip>
          <clip explodedTracks="true" frameBlend="FALSE" id="masterclip-333">
            <uuid>53899481-eff9-4fcc-9047-a7782a612fdd</uuid>
            <masterclipid>masterclip-333</masterclipid>
            <ismasterclip>TRUE</ismasterclip>
            <duration>720</duration>
            <in>0</in>
            <out>720</out>
            <name>Scene - Puppet man_0003.331.png</name>
            <rate>
              <timebase>24</timebase>
              <ntsc>FALSE</ntsc>
            </rate>
            <media>
              <video>
                <track>
                  <clipitem frameBlend="FALSE" id="clipitem-334">
                    <name>Scene - Puppet man_0003.331.png</name>
                    <masterclipid>masterclip-333</masterclipid>
                    <rate>
                      <timebase>24</timebase>
                      <ntsc>FALSE</ntsc>
                    </rate>
                    <alphatype>straight</alphatype>
                    <pixelaspectratio>square</pixelaspectratio>
                    <anamorphic>FALSE</anamorphic>
                    <file id="file-333">
                      <name>Scene - Puppet man_0003.331.png</name>
                      <pathurl>file://localhost/C:/Users/jmrey/OneDrive/Desktop/Programmin Stuff/Projects/conversation-simulator/resources/videos/Scene - Puppet man_0003/Scene - Puppet man_0003.331.png</pathurl>
                      <rate>
                        <timebase>24</timebase>
                        <ntsc>FALSE</ntsc>
                      </rate>
                      <duration>720</duration>
                      <timecode>
                        <rate>
                          <timebase>24</timebase>
                          <ntsc>FALSE</ntsc>
                        </rate>
                      </timecode>
                      <media>
                        <video>
                          <duration>1</duration>
                          <samplecharacteristics>
                            <anamorphic>FALSE</anamorphic>
                            <pixelaspectratio>square</pixelaspectratio>
                            <fielddominance>none</fielddominance>
                            <width>1920</width>
                            <height>1080</height>
                          </samplecharacteristics>
                        </video>
                      </media>
                    </file>
                  </clipitem>
                </track>
              </video>
            </media>
          </clip>
          <clip explodedTracks="true" frameBlend="FALSE" id="masterclip-334">
            <uuid>a88d0425-0873-4988-9a8b-31fba85327e1</uuid>
            <masterclipid>masterclip-334</masterclipid>
            <ismasterclip>TRUE</ismasterclip>
            <duration>720</duration>
            <in>0</in>
            <out>720</out>
            <name>Scene - Puppet man_0003.332.png</name>
            <rate>
              <timebase>24</timebase>
              <ntsc>FALSE</ntsc>
            </rate>
            <media>
              <video>
                <track>
                  <clipitem frameBlend="FALSE" id="clipitem-335">
                    <name>Scene - Puppet man_0003.332.png</name>
                    <masterclipid>masterclip-334</masterclipid>
                    <rate>
                      <timebase>24</timebase>
                      <ntsc>FALSE</ntsc>
                    </rate>
                    <alphatype>straight</alphatype>
                    <pixelaspectratio>square</pixelaspectratio>
                    <anamorphic>FALSE</anamorphic>
                    <file id="file-334">
                      <name>Scene - Puppet man_0003.332.png</name>
                      <pathurl>file://localhost/C:/Users/jmrey/OneDrive/Desktop/Programmin Stuff/Projects/conversation-simulator/resources/videos/Scene - Puppet man_0003/Scene - Puppet man_0003.332.png</pathurl>
                      <rate>
                        <timebase>24</timebase>
                        <ntsc>FALSE</ntsc>
                      </rate>
                      <duration>720</duration>
                      <timecode>
                        <rate>
                          <timebase>24</timebase>
                          <ntsc>FALSE</ntsc>
                        </rate>
                      </timecode>
                      <media>
                        <video>
                          <duration>1</duration>
                          <samplecharacteristics>
                            <anamorphic>FALSE</anamorphic>
                            <pixelaspectratio>square</pixelaspectratio>
                            <fielddominance>none</fielddominance>
                            <width>1920</width>
                            <height>1080</height>
                          </samplecharacteristics>
                        </video>
                      </media>
                    </file>
                  </clipitem>
                </track>
              </video>
            </media>
          </clip>
          <clip explodedTracks="true" frameBlend="FALSE" id="masterclip-335">
            <uuid>6a246f78-4303-4cea-b359-43cad515bb5e</uuid>
            <masterclipid>masterclip-335</masterclipid>
            <ismasterclip>TRUE</ismasterclip>
            <duration>720</duration>
            <in>0</in>
            <out>720</out>
            <name>Scene - Puppet man_0003.333.png</name>
            <rate>
              <timebase>24</timebase>
              <ntsc>FALSE</ntsc>
            </rate>
            <media>
              <video>
                <track>
                  <clipitem frameBlend="FALSE" id="clipitem-336">
                    <name>Scene - Puppet man_0003.333.png</name>
                    <masterclipid>masterclip-335</masterclipid>
                    <rate>
                      <timebase>24</timebase>
                      <ntsc>FALSE</ntsc>
                    </rate>
                    <alphatype>straight</alphatype>
                    <pixelaspectratio>square</pixelaspectratio>
                    <anamorphic>FALSE</anamorphic>
                    <file id="file-335">
                      <name>Scene - Puppet man_0003.333.png</name>
                      <pathurl>file://localhost/C:/Users/jmrey/OneDrive/Desktop/Programmin Stuff/Projects/conversation-simulator/resources/videos/Scene - Puppet man_0003/Scene - Puppet man_0003.333.png</pathurl>
                      <rate>
                        <timebase>24</timebase>
                        <ntsc>FALSE</ntsc>
                      </rate>
                      <duration>720</duration>
                      <timecode>
                        <rate>
                          <timebase>24</timebase>
                          <ntsc>FALSE</ntsc>
                        </rate>
                      </timecode>
                      <media>
                        <video>
                          <duration>1</duration>
                          <samplecharacteristics>
                            <anamorphic>FALSE</anamorphic>
                            <pixelaspectratio>square</pixelaspectratio>
                            <fielddominance>none</fielddominance>
                            <width>1920</width>
                            <height>1080</height>
                          </samplecharacteristics>
                        </video>
                      </media>
                    </file>
                  </clipitem>
                </track>
              </video>
            </media>
          </clip>
          <clip explodedTracks="true" frameBlend="FALSE" id="masterclip-336">
            <uuid>f3fbc41c-fc98-43aa-9a03-f9459c2f0d90</uuid>
            <masterclipid>masterclip-336</masterclipid>
            <ismasterclip>TRUE</ismasterclip>
            <duration>720</duration>
            <in>0</in>
            <out>720</out>
            <name>Scene - Puppet man_0003.334.png</name>
            <rate>
              <timebase>24</timebase>
              <ntsc>FALSE</ntsc>
            </rate>
            <media>
              <video>
                <track>
                  <clipitem frameBlend="FALSE" id="clipitem-337">
                    <name>Scene - Puppet man_0003.334.png</name>
                    <masterclipid>masterclip-336</masterclipid>
                    <rate>
                      <timebase>24</timebase>
                      <ntsc>FALSE</ntsc>
                    </rate>
                    <alphatype>straight</alphatype>
                    <pixelaspectratio>square</pixelaspectratio>
                    <anamorphic>FALSE</anamorphic>
                    <file id="file-336">
                      <name>Scene - Puppet man_0003.334.png</name>
                      <pathurl>file://localhost/C:/Users/jmrey/OneDrive/Desktop/Programmin Stuff/Projects/conversation-simulator/resources/videos/Scene - Puppet man_0003/Scene - Puppet man_0003.334.png</pathurl>
                      <rate>
                        <timebase>24</timebase>
                        <ntsc>FALSE</ntsc>
                      </rate>
                      <duration>720</duration>
                      <timecode>
                        <rate>
                          <timebase>24</timebase>
                          <ntsc>FALSE</ntsc>
                        </rate>
                      </timecode>
                      <media>
                        <video>
                          <duration>1</duration>
                          <samplecharacteristics>
                            <anamorphic>FALSE</anamorphic>
                            <pixelaspectratio>square</pixelaspectratio>
                            <fielddominance>none</fielddominance>
                            <width>1920</width>
                            <height>1080</height>
                          </samplecharacteristics>
                        </video>
                      </media>
                    </file>
                  </clipitem>
                </track>
              </video>
            </media>
          </clip>
          <clip explodedTracks="true" frameBlend="FALSE" id="masterclip-337">
            <uuid>03c66075-5d7a-4db7-ad22-d5697aaf4c65</uuid>
            <masterclipid>masterclip-337</masterclipid>
            <ismasterclip>TRUE</ismasterclip>
            <duration>720</duration>
            <in>0</in>
            <out>720</out>
            <name>Scene - Puppet man_0003.335.png</name>
            <rate>
              <timebase>24</timebase>
              <ntsc>FALSE</ntsc>
            </rate>
            <media>
              <video>
                <track>
                  <clipitem frameBlend="FALSE" id="clipitem-338">
                    <name>Scene - Puppet man_0003.335.png</name>
                    <masterclipid>masterclip-337</masterclipid>
                    <rate>
                      <timebase>24</timebase>
                      <ntsc>FALSE</ntsc>
                    </rate>
                    <alphatype>straight</alphatype>
                    <pixelaspectratio>square</pixelaspectratio>
                    <anamorphic>FALSE</anamorphic>
                    <file id="file-337">
                      <name>Scene - Puppet man_0003.335.png</name>
                      <pathurl>file://localhost/C:/Users/jmrey/OneDrive/Desktop/Programmin Stuff/Projects/conversation-simulator/resources/videos/Scene - Puppet man_0003/Scene - Puppet man_0003.335.png</pathurl>
                      <rate>
                        <timebase>24</timebase>
                        <ntsc>FALSE</ntsc>
                      </rate>
                      <duration>720</duration>
                      <timecode>
                        <rate>
                          <timebase>24</timebase>
                          <ntsc>FALSE</ntsc>
                        </rate>
                      </timecode>
                      <media>
                        <video>
                          <duration>1</duration>
                          <samplecharacteristics>
                            <anamorphic>FALSE</anamorphic>
                            <pixelaspectratio>square</pixelaspectratio>
                            <fielddominance>none</fielddominance>
                            <width>1920</width>
                            <height>1080</height>
                          </samplecharacteristics>
                        </video>
                      </media>
                    </file>
                  </clipitem>
                </track>
              </video>
            </media>
          </clip>
          <clip explodedTracks="true" frameBlend="FALSE" id="masterclip-338">
            <uuid>55bb159f-2633-450d-a4c2-9cd492919c32</uuid>
            <masterclipid>masterclip-338</masterclipid>
            <ismasterclip>TRUE</ismasterclip>
            <duration>720</duration>
            <in>0</in>
            <out>720</out>
            <name>Scene - Puppet man_0003.336.png</name>
            <rate>
              <timebase>24</timebase>
              <ntsc>FALSE</ntsc>
            </rate>
            <media>
              <video>
                <track>
                  <clipitem frameBlend="FALSE" id="clipitem-339">
                    <name>Scene - Puppet man_0003.336.png</name>
                    <masterclipid>masterclip-338</masterclipid>
                    <rate>
                      <timebase>24</timebase>
                      <ntsc>FALSE</ntsc>
                    </rate>
                    <alphatype>straight</alphatype>
                    <pixelaspectratio>square</pixelaspectratio>
                    <anamorphic>FALSE</anamorphic>
                    <file id="file-338">
                      <name>Scene - Puppet man_0003.336.png</name>
                      <pathurl>file://localhost/C:/Users/jmrey/OneDrive/Desktop/Programmin Stuff/Projects/conversation-simulator/resources/videos/Scene - Puppet man_0003/Scene - Puppet man_0003.336.png</pathurl>
                      <rate>
                        <timebase>24</timebase>
                        <ntsc>FALSE</ntsc>
                      </rate>
                      <duration>720</duration>
                      <timecode>
                        <rate>
                          <timebase>24</timebase>
                          <ntsc>FALSE</ntsc>
                        </rate>
                      </timecode>
                      <media>
                        <video>
                          <duration>1</duration>
                          <samplecharacteristics>
                            <anamorphic>FALSE</anamorphic>
                            <pixelaspectratio>square</pixelaspectratio>
                            <fielddominance>none</fielddominance>
                            <width>1920</width>
                            <height>1080</height>
                          </samplecharacteristics>
                        </video>
                      </media>
                    </file>
                  </clipitem>
                </track>
              </video>
            </media>
          </clip>
          <clip explodedTracks="true" frameBlend="FALSE" id="masterclip-339">
            <uuid>3357b4ea-57ea-460a-95fd-7cc4637a444d</uuid>
            <masterclipid>masterclip-339</masterclipid>
            <ismasterclip>TRUE</ismasterclip>
            <duration>720</duration>
            <in>0</in>
            <out>720</out>
            <name>Scene - Puppet man_0003.337.png</name>
            <rate>
              <timebase>24</timebase>
              <ntsc>FALSE</ntsc>
            </rate>
            <media>
              <video>
                <track>
                  <clipitem frameBlend="FALSE" id="clipitem-340">
                    <name>Scene - Puppet man_0003.337.png</name>
                    <masterclipid>masterclip-339</masterclipid>
                    <rate>
                      <timebase>24</timebase>
                      <ntsc>FALSE</ntsc>
                    </rate>
                    <alphatype>straight</alphatype>
                    <pixelaspectratio>square</pixelaspectratio>
                    <anamorphic>FALSE</anamorphic>
                    <file id="file-339">
                      <name>Scene - Puppet man_0003.337.png</name>
                      <pathurl>file://localhost/C:/Users/jmrey/OneDrive/Desktop/Programmin Stuff/Projects/conversation-simulator/resources/videos/Scene - Puppet man_0003/Scene - Puppet man_0003.337.png</pathurl>
                      <rate>
                        <timebase>24</timebase>
                        <ntsc>FALSE</ntsc>
                      </rate>
                      <duration>720</duration>
                      <timecode>
                        <rate>
                          <timebase>24</timebase>
                          <ntsc>FALSE</ntsc>
                        </rate>
                      </timecode>
                      <media>
                        <video>
                          <duration>1</duration>
                          <samplecharacteristics>
                            <anamorphic>FALSE</anamorphic>
                            <pixelaspectratio>square</pixelaspectratio>
                            <fielddominance>none</fielddominance>
                            <width>1920</width>
                            <height>1080</height>
                          </samplecharacteristics>
                        </video>
                      </media>
                    </file>
                  </clipitem>
                </track>
              </video>
            </media>
          </clip>
          <clip explodedTracks="true" frameBlend="FALSE" id="masterclip-340">
            <uuid>c8759b65-a8ad-4b24-b805-c92acc55837a</uuid>
            <masterclipid>masterclip-340</masterclipid>
            <ismasterclip>TRUE</ismasterclip>
            <duration>720</duration>
            <in>0</in>
            <out>720</out>
            <name>Scene - Puppet man_0003.338.png</name>
            <rate>
              <timebase>24</timebase>
              <ntsc>FALSE</ntsc>
            </rate>
            <media>
              <video>
                <track>
                  <clipitem frameBlend="FALSE" id="clipitem-341">
                    <name>Scene - Puppet man_0003.338.png</name>
                    <masterclipid>masterclip-340</masterclipid>
                    <rate>
                      <timebase>24</timebase>
                      <ntsc>FALSE</ntsc>
                    </rate>
                    <alphatype>straight</alphatype>
                    <pixelaspectratio>square</pixelaspectratio>
                    <anamorphic>FALSE</anamorphic>
                    <file id="file-340">
                      <name>Scene - Puppet man_0003.338.png</name>
                      <pathurl>file://localhost/C:/Users/jmrey/OneDrive/Desktop/Programmin Stuff/Projects/conversation-simulator/resources/videos/Scene - Puppet man_0003/Scene - Puppet man_0003.338.png</pathurl>
                      <rate>
                        <timebase>24</timebase>
                        <ntsc>FALSE</ntsc>
                      </rate>
                      <duration>720</duration>
                      <timecode>
                        <rate>
                          <timebase>24</timebase>
                          <ntsc>FALSE</ntsc>
                        </rate>
                      </timecode>
                      <media>
                        <video>
                          <duration>1</duration>
                          <samplecharacteristics>
                            <anamorphic>FALSE</anamorphic>
                            <pixelaspectratio>square</pixelaspectratio>
                            <fielddominance>none</fielddominance>
                            <width>1920</width>
                            <height>1080</height>
                          </samplecharacteristics>
                        </video>
                      </media>
                    </file>
                  </clipitem>
                </track>
              </video>
            </media>
          </clip>
          <clip explodedTracks="true" frameBlend="FALSE" id="masterclip-341">
            <uuid>814faffe-45bc-42df-8971-6946a7bdefdd</uuid>
            <masterclipid>masterclip-341</masterclipid>
            <ismasterclip>TRUE</ismasterclip>
            <duration>720</duration>
            <in>0</in>
            <out>720</out>
            <name>Scene - Puppet man_0003.339.png</name>
            <rate>
              <timebase>24</timebase>
              <ntsc>FALSE</ntsc>
            </rate>
            <media>
              <video>
                <track>
                  <clipitem frameBlend="FALSE" id="clipitem-342">
                    <name>Scene - Puppet man_0003.339.png</name>
                    <masterclipid>masterclip-341</masterclipid>
                    <rate>
                      <timebase>24</timebase>
                      <ntsc>FALSE</ntsc>
                    </rate>
                    <alphatype>straight</alphatype>
                    <pixelaspectratio>square</pixelaspectratio>
                    <anamorphic>FALSE</anamorphic>
                    <file id="file-341">
                      <name>Scene - Puppet man_0003.339.png</name>
                      <pathurl>file://localhost/C:/Users/jmrey/OneDrive/Desktop/Programmin Stuff/Projects/conversation-simulator/resources/videos/Scene - Puppet man_0003/Scene - Puppet man_0003.339.png</pathurl>
                      <rate>
                        <timebase>24</timebase>
                        <ntsc>FALSE</ntsc>
                      </rate>
                      <duration>720</duration>
                      <timecode>
                        <rate>
                          <timebase>24</timebase>
                          <ntsc>FALSE</ntsc>
                        </rate>
                      </timecode>
                      <media>
                        <video>
                          <duration>1</duration>
                          <samplecharacteristics>
                            <anamorphic>FALSE</anamorphic>
                            <pixelaspectratio>square</pixelaspectratio>
                            <fielddominance>none</fielddominance>
                            <width>1920</width>
                            <height>1080</height>
                          </samplecharacteristics>
                        </video>
                      </media>
                    </file>
                  </clipitem>
                </track>
              </video>
            </media>
          </clip>
          <clip explodedTracks="true" frameBlend="FALSE" id="masterclip-342">
            <uuid>80ca3664-179e-4798-b71d-3c803e815968</uuid>
            <masterclipid>masterclip-342</masterclipid>
            <ismasterclip>TRUE</ismasterclip>
            <duration>720</duration>
            <in>0</in>
            <out>720</out>
            <name>Scene - Puppet man_0003.340.png</name>
            <rate>
              <timebase>24</timebase>
              <ntsc>FALSE</ntsc>
            </rate>
            <media>
              <video>
                <track>
                  <clipitem frameBlend="FALSE" id="clipitem-343">
                    <name>Scene - Puppet man_0003.340.png</name>
                    <masterclipid>masterclip-342</masterclipid>
                    <rate>
                      <timebase>24</timebase>
                      <ntsc>FALSE</ntsc>
                    </rate>
                    <alphatype>straight</alphatype>
                    <pixelaspectratio>square</pixelaspectratio>
                    <anamorphic>FALSE</anamorphic>
                    <file id="file-342">
                      <name>Scene - Puppet man_0003.340.png</name>
                      <pathurl>file://localhost/C:/Users/jmrey/OneDrive/Desktop/Programmin Stuff/Projects/conversation-simulator/resources/videos/Scene - Puppet man_0003/Scene - Puppet man_0003.340.png</pathurl>
                      <rate>
                        <timebase>24</timebase>
                        <ntsc>FALSE</ntsc>
                      </rate>
                      <duration>720</duration>
                      <timecode>
                        <rate>
                          <timebase>24</timebase>
                          <ntsc>FALSE</ntsc>
                        </rate>
                      </timecode>
                      <media>
                        <video>
                          <duration>1</duration>
                          <samplecharacteristics>
                            <anamorphic>FALSE</anamorphic>
                            <pixelaspectratio>square</pixelaspectratio>
                            <fielddominance>none</fielddominance>
                            <width>1920</width>
                            <height>1080</height>
                          </samplecharacteristics>
                        </video>
                      </media>
                    </file>
                  </clipitem>
                </track>
              </video>
            </media>
          </clip>
          <clip explodedTracks="true" frameBlend="FALSE" id="masterclip-343">
            <uuid>5fb288d2-b8fd-4f35-a53f-73718650e2c7</uuid>
            <masterclipid>masterclip-343</masterclipid>
            <ismasterclip>TRUE</ismasterclip>
            <duration>720</duration>
            <in>0</in>
            <out>720</out>
            <name>Scene - Puppet man_0003.341.png</name>
            <rate>
              <timebase>24</timebase>
              <ntsc>FALSE</ntsc>
            </rate>
            <media>
              <video>
                <track>
                  <clipitem frameBlend="FALSE" id="clipitem-344">
                    <name>Scene - Puppet man_0003.341.png</name>
                    <masterclipid>masterclip-343</masterclipid>
                    <rate>
                      <timebase>24</timebase>
                      <ntsc>FALSE</ntsc>
                    </rate>
                    <alphatype>straight</alphatype>
                    <pixelaspectratio>square</pixelaspectratio>
                    <anamorphic>FALSE</anamorphic>
                    <file id="file-343">
                      <name>Scene - Puppet man_0003.341.png</name>
                      <pathurl>file://localhost/C:/Users/jmrey/OneDrive/Desktop/Programmin Stuff/Projects/conversation-simulator/resources/videos/Scene - Puppet man_0003/Scene - Puppet man_0003.341.png</pathurl>
                      <rate>
                        <timebase>24</timebase>
                        <ntsc>FALSE</ntsc>
                      </rate>
                      <duration>720</duration>
                      <timecode>
                        <rate>
                          <timebase>24</timebase>
                          <ntsc>FALSE</ntsc>
                        </rate>
                      </timecode>
                      <media>
                        <video>
                          <duration>1</duration>
                          <samplecharacteristics>
                            <anamorphic>FALSE</anamorphic>
                            <pixelaspectratio>square</pixelaspectratio>
                            <fielddominance>none</fielddominance>
                            <width>1920</width>
                            <height>1080</height>
                          </samplecharacteristics>
                        </video>
                      </media>
                    </file>
                  </clipitem>
                </track>
              </video>
            </media>
          </clip>
          <clip explodedTracks="true" frameBlend="FALSE" id="masterclip-344">
            <uuid>1c89a1ed-0554-484b-bad6-accb0e7b0257</uuid>
            <masterclipid>masterclip-344</masterclipid>
            <ismasterclip>TRUE</ismasterclip>
            <duration>720</duration>
            <in>0</in>
            <out>720</out>
            <name>Scene - Puppet man_0003.342.png</name>
            <rate>
              <timebase>24</timebase>
              <ntsc>FALSE</ntsc>
            </rate>
            <media>
              <video>
                <track>
                  <clipitem frameBlend="FALSE" id="clipitem-345">
                    <name>Scene - Puppet man_0003.342.png</name>
                    <masterclipid>masterclip-344</masterclipid>
                    <rate>
                      <timebase>24</timebase>
                      <ntsc>FALSE</ntsc>
                    </rate>
                    <alphatype>straight</alphatype>
                    <pixelaspectratio>square</pixelaspectratio>
                    <anamorphic>FALSE</anamorphic>
                    <file id="file-344">
                      <name>Scene - Puppet man_0003.342.png</name>
                      <pathurl>file://localhost/C:/Users/jmrey/OneDrive/Desktop/Programmin Stuff/Projects/conversation-simulator/resources/videos/Scene - Puppet man_0003/Scene - Puppet man_0003.342.png</pathurl>
                      <rate>
                        <timebase>24</timebase>
                        <ntsc>FALSE</ntsc>
                      </rate>
                      <duration>720</duration>
                      <timecode>
                        <rate>
                          <timebase>24</timebase>
                          <ntsc>FALSE</ntsc>
                        </rate>
                      </timecode>
                      <media>
                        <video>
                          <duration>1</duration>
                          <samplecharacteristics>
                            <anamorphic>FALSE</anamorphic>
                            <pixelaspectratio>square</pixelaspectratio>
                            <fielddominance>none</fielddominance>
                            <width>1920</width>
                            <height>1080</height>
                          </samplecharacteristics>
                        </video>
                      </media>
                    </file>
                  </clipitem>
                </track>
              </video>
            </media>
          </clip>
          <clip explodedTracks="true" frameBlend="FALSE" id="masterclip-345">
            <uuid>13ae98ed-52d0-46f8-842b-632b8438d87c</uuid>
            <masterclipid>masterclip-345</masterclipid>
            <ismasterclip>TRUE</ismasterclip>
            <duration>720</duration>
            <in>0</in>
            <out>720</out>
            <name>Scene - Puppet man_0003.343.png</name>
            <rate>
              <timebase>24</timebase>
              <ntsc>FALSE</ntsc>
            </rate>
            <media>
              <video>
                <track>
                  <clipitem frameBlend="FALSE" id="clipitem-346">
                    <name>Scene - Puppet man_0003.343.png</name>
                    <masterclipid>masterclip-345</masterclipid>
                    <rate>
                      <timebase>24</timebase>
                      <ntsc>FALSE</ntsc>
                    </rate>
                    <alphatype>straight</alphatype>
                    <pixelaspectratio>square</pixelaspectratio>
                    <anamorphic>FALSE</anamorphic>
                    <file id="file-345">
                      <name>Scene - Puppet man_0003.343.png</name>
                      <pathurl>file://localhost/C:/Users/jmrey/OneDrive/Desktop/Programmin Stuff/Projects/conversation-simulator/resources/videos/Scene - Puppet man_0003/Scene - Puppet man_0003.343.png</pathurl>
                      <rate>
                        <timebase>24</timebase>
                        <ntsc>FALSE</ntsc>
                      </rate>
                      <duration>720</duration>
                      <timecode>
                        <rate>
                          <timebase>24</timebase>
                          <ntsc>FALSE</ntsc>
                        </rate>
                      </timecode>
                      <media>
                        <video>
                          <duration>1</duration>
                          <samplecharacteristics>
                            <anamorphic>FALSE</anamorphic>
                            <pixelaspectratio>square</pixelaspectratio>
                            <fielddominance>none</fielddominance>
                            <width>1920</width>
                            <height>1080</height>
                          </samplecharacteristics>
                        </video>
                      </media>
                    </file>
                  </clipitem>
                </track>
              </video>
            </media>
          </clip>
          <clip explodedTracks="true" frameBlend="FALSE" id="masterclip-346">
            <uuid>3bfecb67-da7f-4b66-83c8-4928c611b393</uuid>
            <masterclipid>masterclip-346</masterclipid>
            <ismasterclip>TRUE</ismasterclip>
            <duration>720</duration>
            <in>0</in>
            <out>720</out>
            <name>Scene - Puppet man_0003.344.png</name>
            <rate>
              <timebase>24</timebase>
              <ntsc>FALSE</ntsc>
            </rate>
            <media>
              <video>
                <track>
                  <clipitem frameBlend="FALSE" id="clipitem-347">
                    <name>Scene - Puppet man_0003.344.png</name>
                    <masterclipid>masterclip-346</masterclipid>
                    <rate>
                      <timebase>24</timebase>
                      <ntsc>FALSE</ntsc>
                    </rate>
                    <alphatype>straight</alphatype>
                    <pixelaspectratio>square</pixelaspectratio>
                    <anamorphic>FALSE</anamorphic>
                    <file id="file-346">
                      <name>Scene - Puppet man_0003.344.png</name>
                      <pathurl>file://localhost/C:/Users/jmrey/OneDrive/Desktop/Programmin Stuff/Projects/conversation-simulator/resources/videos/Scene - Puppet man_0003/Scene - Puppet man_0003.344.png</pathurl>
                      <rate>
                        <timebase>24</timebase>
                        <ntsc>FALSE</ntsc>
                      </rate>
                      <duration>720</duration>
                      <timecode>
                        <rate>
                          <timebase>24</timebase>
                          <ntsc>FALSE</ntsc>
                        </rate>
                      </timecode>
                      <media>
                        <video>
                          <duration>1</duration>
                          <samplecharacteristics>
                            <anamorphic>FALSE</anamorphic>
                            <pixelaspectratio>square</pixelaspectratio>
                            <fielddominance>none</fielddominance>
                            <width>1920</width>
                            <height>1080</height>
                          </samplecharacteristics>
                        </video>
                      </media>
                    </file>
                  </clipitem>
                </track>
              </video>
            </media>
          </clip>
          <clip explodedTracks="true" frameBlend="FALSE" id="masterclip-347">
            <uuid>f9354dd5-f73b-41d8-a73b-292a42ed96b4</uuid>
            <masterclipid>masterclip-347</masterclipid>
            <ismasterclip>TRUE</ismasterclip>
            <duration>720</duration>
            <in>0</in>
            <out>720</out>
            <name>Scene - Puppet man_0003.345.png</name>
            <rate>
              <timebase>24</timebase>
              <ntsc>FALSE</ntsc>
            </rate>
            <media>
              <video>
                <track>
                  <clipitem frameBlend="FALSE" id="clipitem-348">
                    <name>Scene - Puppet man_0003.345.png</name>
                    <masterclipid>masterclip-347</masterclipid>
                    <rate>
                      <timebase>24</timebase>
                      <ntsc>FALSE</ntsc>
                    </rate>
                    <alphatype>straight</alphatype>
                    <pixelaspectratio>square</pixelaspectratio>
                    <anamorphic>FALSE</anamorphic>
                    <file id="file-347">
                      <name>Scene - Puppet man_0003.345.png</name>
                      <pathurl>file://localhost/C:/Users/jmrey/OneDrive/Desktop/Programmin Stuff/Projects/conversation-simulator/resources/videos/Scene - Puppet man_0003/Scene - Puppet man_0003.345.png</pathurl>
                      <rate>
                        <timebase>24</timebase>
                        <ntsc>FALSE</ntsc>
                      </rate>
                      <duration>720</duration>
                      <timecode>
                        <rate>
                          <timebase>24</timebase>
                          <ntsc>FALSE</ntsc>
                        </rate>
                      </timecode>
                      <media>
                        <video>
                          <duration>1</duration>
                          <samplecharacteristics>
                            <anamorphic>FALSE</anamorphic>
                            <pixelaspectratio>square</pixelaspectratio>
                            <fielddominance>none</fielddominance>
                            <width>1920</width>
                            <height>1080</height>
                          </samplecharacteristics>
                        </video>
                      </media>
                    </file>
                  </clipitem>
                </track>
              </video>
            </media>
          </clip>
          <clip explodedTracks="true" frameBlend="FALSE" id="masterclip-348">
            <uuid>5a975964-698f-42dc-82f1-619d3409bd12</uuid>
            <masterclipid>masterclip-348</masterclipid>
            <ismasterclip>TRUE</ismasterclip>
            <duration>720</duration>
            <in>0</in>
            <out>720</out>
            <name>Scene - Puppet man_0003.346.png</name>
            <rate>
              <timebase>24</timebase>
              <ntsc>FALSE</ntsc>
            </rate>
            <media>
              <video>
                <track>
                  <clipitem frameBlend="FALSE" id="clipitem-349">
                    <name>Scene - Puppet man_0003.346.png</name>
                    <masterclipid>masterclip-348</masterclipid>
                    <rate>
                      <timebase>24</timebase>
                      <ntsc>FALSE</ntsc>
                    </rate>
                    <alphatype>straight</alphatype>
                    <pixelaspectratio>square</pixelaspectratio>
                    <anamorphic>FALSE</anamorphic>
                    <file id="file-348">
                      <name>Scene - Puppet man_0003.346.png</name>
                      <pathurl>file://localhost/C:/Users/jmrey/OneDrive/Desktop/Programmin Stuff/Projects/conversation-simulator/resources/videos/Scene - Puppet man_0003/Scene - Puppet man_0003.346.png</pathurl>
                      <rate>
                        <timebase>24</timebase>
                        <ntsc>FALSE</ntsc>
                      </rate>
                      <duration>720</duration>
                      <timecode>
                        <rate>
                          <timebase>24</timebase>
                          <ntsc>FALSE</ntsc>
                        </rate>
                      </timecode>
                      <media>
                        <video>
                          <duration>1</duration>
                          <samplecharacteristics>
                            <anamorphic>FALSE</anamorphic>
                            <pixelaspectratio>square</pixelaspectratio>
                            <fielddominance>none</fielddominance>
                            <width>1920</width>
                            <height>1080</height>
                          </samplecharacteristics>
                        </video>
                      </media>
                    </file>
                  </clipitem>
                </track>
              </video>
            </media>
          </clip>
          <clip explodedTracks="true" frameBlend="FALSE" id="masterclip-349">
            <uuid>4cdbb216-e5d7-4e4c-8f5e-ec33ed2f2d69</uuid>
            <masterclipid>masterclip-349</masterclipid>
            <ismasterclip>TRUE</ismasterclip>
            <duration>720</duration>
            <in>0</in>
            <out>720</out>
            <name>Scene - Puppet man_0003.347.png</name>
            <rate>
              <timebase>24</timebase>
              <ntsc>FALSE</ntsc>
            </rate>
            <media>
              <video>
                <track>
                  <clipitem frameBlend="FALSE" id="clipitem-350">
                    <name>Scene - Puppet man_0003.347.png</name>
                    <masterclipid>masterclip-349</masterclipid>
                    <rate>
                      <timebase>24</timebase>
                      <ntsc>FALSE</ntsc>
                    </rate>
                    <alphatype>straight</alphatype>
                    <pixelaspectratio>square</pixelaspectratio>
                    <anamorphic>FALSE</anamorphic>
                    <file id="file-349">
                      <name>Scene - Puppet man_0003.347.png</name>
                      <pathurl>file://localhost/C:/Users/jmrey/OneDrive/Desktop/Programmin Stuff/Projects/conversation-simulator/resources/videos/Scene - Puppet man_0003/Scene - Puppet man_0003.347.png</pathurl>
                      <rate>
                        <timebase>24</timebase>
                        <ntsc>FALSE</ntsc>
                      </rate>
                      <duration>720</duration>
                      <timecode>
                        <rate>
                          <timebase>24</timebase>
                          <ntsc>FALSE</ntsc>
                        </rate>
                      </timecode>
                      <media>
                        <video>
                          <duration>1</duration>
                          <samplecharacteristics>
                            <anamorphic>FALSE</anamorphic>
                            <pixelaspectratio>square</pixelaspectratio>
                            <fielddominance>none</fielddominance>
                            <width>1920</width>
                            <height>1080</height>
                          </samplecharacteristics>
                        </video>
                      </media>
                    </file>
                  </clipitem>
                </track>
              </video>
            </media>
          </clip>
          <clip explodedTracks="true" frameBlend="FALSE" id="masterclip-350">
            <uuid>b007c02a-b91b-4a8f-a3fc-5570eb6c84c7</uuid>
            <masterclipid>masterclip-350</masterclipid>
            <ismasterclip>TRUE</ismasterclip>
            <duration>720</duration>
            <in>0</in>
            <out>720</out>
            <name>Scene - Puppet man_0003.348.png</name>
            <rate>
              <timebase>24</timebase>
              <ntsc>FALSE</ntsc>
            </rate>
            <media>
              <video>
                <track>
                  <clipitem frameBlend="FALSE" id="clipitem-351">
                    <name>Scene - Puppet man_0003.348.png</name>
                    <masterclipid>masterclip-350</masterclipid>
                    <rate>
                      <timebase>24</timebase>
                      <ntsc>FALSE</ntsc>
                    </rate>
                    <alphatype>straight</alphatype>
                    <pixelaspectratio>square</pixelaspectratio>
                    <anamorphic>FALSE</anamorphic>
                    <file id="file-350">
                      <name>Scene - Puppet man_0003.348.png</name>
                      <pathurl>file://localhost/C:/Users/jmrey/OneDrive/Desktop/Programmin Stuff/Projects/conversation-simulator/resources/videos/Scene - Puppet man_0003/Scene - Puppet man_0003.348.png</pathurl>
                      <rate>
                        <timebase>24</timebase>
                        <ntsc>FALSE</ntsc>
                      </rate>
                      <duration>720</duration>
                      <timecode>
                        <rate>
                          <timebase>24</timebase>
                          <ntsc>FALSE</ntsc>
                        </rate>
                      </timecode>
                      <media>
                        <video>
                          <duration>1</duration>
                          <samplecharacteristics>
                            <anamorphic>FALSE</anamorphic>
                            <pixelaspectratio>square</pixelaspectratio>
                            <fielddominance>none</fielddominance>
                            <width>1920</width>
                            <height>1080</height>
                          </samplecharacteristics>
                        </video>
                      </media>
                    </file>
                  </clipitem>
                </track>
              </video>
            </media>
          </clip>
          <clip explodedTracks="true" frameBlend="FALSE" id="masterclip-351">
            <uuid>f909d008-f27c-4e5c-aa49-082580c5af02</uuid>
            <masterclipid>masterclip-351</masterclipid>
            <ismasterclip>TRUE</ismasterclip>
            <duration>720</duration>
            <in>0</in>
            <out>720</out>
            <name>Scene - Puppet man_0003.349.png</name>
            <rate>
              <timebase>24</timebase>
              <ntsc>FALSE</ntsc>
            </rate>
            <media>
              <video>
                <track>
                  <clipitem frameBlend="FALSE" id="clipitem-352">
                    <name>Scene - Puppet man_0003.349.png</name>
                    <masterclipid>masterclip-351</masterclipid>
                    <rate>
                      <timebase>24</timebase>
                      <ntsc>FALSE</ntsc>
                    </rate>
                    <alphatype>straight</alphatype>
                    <pixelaspectratio>square</pixelaspectratio>
                    <anamorphic>FALSE</anamorphic>
                    <file id="file-351">
                      <name>Scene - Puppet man_0003.349.png</name>
                      <pathurl>file://localhost/C:/Users/jmrey/OneDrive/Desktop/Programmin Stuff/Projects/conversation-simulator/resources/videos/Scene - Puppet man_0003/Scene - Puppet man_0003.349.png</pathurl>
                      <rate>
                        <timebase>24</timebase>
                        <ntsc>FALSE</ntsc>
                      </rate>
                      <duration>720</duration>
                      <timecode>
                        <rate>
                          <timebase>24</timebase>
                          <ntsc>FALSE</ntsc>
                        </rate>
                      </timecode>
                      <media>
                        <video>
                          <duration>1</duration>
                          <samplecharacteristics>
                            <anamorphic>FALSE</anamorphic>
                            <pixelaspectratio>square</pixelaspectratio>
                            <fielddominance>none</fielddominance>
                            <width>1920</width>
                            <height>1080</height>
                          </samplecharacteristics>
                        </video>
                      </media>
                    </file>
                  </clipitem>
                </track>
              </video>
            </media>
          </clip>
          <clip explodedTracks="true" frameBlend="FALSE" id="masterclip-352">
            <uuid>c43040c5-6fd6-4081-bff6-5ff52be7469d</uuid>
            <masterclipid>masterclip-352</masterclipid>
            <ismasterclip>TRUE</ismasterclip>
            <duration>720</duration>
            <in>0</in>
            <out>720</out>
            <name>Scene - Puppet man_0003.350.png</name>
            <rate>
              <timebase>24</timebase>
              <ntsc>FALSE</ntsc>
            </rate>
            <media>
              <video>
                <track>
                  <clipitem frameBlend="FALSE" id="clipitem-353">
                    <name>Scene - Puppet man_0003.350.png</name>
                    <masterclipid>masterclip-352</masterclipid>
                    <rate>
                      <timebase>24</timebase>
                      <ntsc>FALSE</ntsc>
                    </rate>
                    <alphatype>straight</alphatype>
                    <pixelaspectratio>square</pixelaspectratio>
                    <anamorphic>FALSE</anamorphic>
                    <file id="file-352">
                      <name>Scene - Puppet man_0003.350.png</name>
                      <pathurl>file://localhost/C:/Users/jmrey/OneDrive/Desktop/Programmin Stuff/Projects/conversation-simulator/resources/videos/Scene - Puppet man_0003/Scene - Puppet man_0003.350.png</pathurl>
                      <rate>
                        <timebase>24</timebase>
                        <ntsc>FALSE</ntsc>
                      </rate>
                      <duration>720</duration>
                      <timecode>
                        <rate>
                          <timebase>24</timebase>
                          <ntsc>FALSE</ntsc>
                        </rate>
                      </timecode>
                      <media>
                        <video>
                          <duration>1</duration>
                          <samplecharacteristics>
                            <anamorphic>FALSE</anamorphic>
                            <pixelaspectratio>square</pixelaspectratio>
                            <fielddominance>none</fielddominance>
                            <width>1920</width>
                            <height>1080</height>
                          </samplecharacteristics>
                        </video>
                      </media>
                    </file>
                  </clipitem>
                </track>
              </video>
            </media>
          </clip>
          <clip explodedTracks="true" frameBlend="FALSE" id="masterclip-353">
            <uuid>1fed515b-0dc4-421c-9843-9762cff51740</uuid>
            <masterclipid>masterclip-353</masterclipid>
            <ismasterclip>TRUE</ismasterclip>
            <duration>720</duration>
            <in>0</in>
            <out>720</out>
            <name>Scene - Puppet man_0003.351.png</name>
            <rate>
              <timebase>24</timebase>
              <ntsc>FALSE</ntsc>
            </rate>
            <media>
              <video>
                <track>
                  <clipitem frameBlend="FALSE" id="clipitem-354">
                    <name>Scene - Puppet man_0003.351.png</name>
                    <masterclipid>masterclip-353</masterclipid>
                    <rate>
                      <timebase>24</timebase>
                      <ntsc>FALSE</ntsc>
                    </rate>
                    <alphatype>straight</alphatype>
                    <pixelaspectratio>square</pixelaspectratio>
                    <anamorphic>FALSE</anamorphic>
                    <file id="file-353">
                      <name>Scene - Puppet man_0003.351.png</name>
                      <pathurl>file://localhost/C:/Users/jmrey/OneDrive/Desktop/Programmin Stuff/Projects/conversation-simulator/resources/videos/Scene - Puppet man_0003/Scene - Puppet man_0003.351.png</pathurl>
                      <rate>
                        <timebase>24</timebase>
                        <ntsc>FALSE</ntsc>
                      </rate>
                      <duration>720</duration>
                      <timecode>
                        <rate>
                          <timebase>24</timebase>
                          <ntsc>FALSE</ntsc>
                        </rate>
                      </timecode>
                      <media>
                        <video>
                          <duration>1</duration>
                          <samplecharacteristics>
                            <anamorphic>FALSE</anamorphic>
                            <pixelaspectratio>square</pixelaspectratio>
                            <fielddominance>none</fielddominance>
                            <width>1920</width>
                            <height>1080</height>
                          </samplecharacteristics>
                        </video>
                      </media>
                    </file>
                  </clipitem>
                </track>
              </video>
            </media>
          </clip>
          <clip explodedTracks="true" frameBlend="FALSE" id="masterclip-354">
            <uuid>75e96a56-5444-4af2-84fe-ab7d52cbb13a</uuid>
            <masterclipid>masterclip-354</masterclipid>
            <ismasterclip>TRUE</ismasterclip>
            <duration>720</duration>
            <in>0</in>
            <out>720</out>
            <name>Scene - Puppet man_0003.352.png</name>
            <rate>
              <timebase>24</timebase>
              <ntsc>FALSE</ntsc>
            </rate>
            <media>
              <video>
                <track>
                  <clipitem frameBlend="FALSE" id="clipitem-355">
                    <name>Scene - Puppet man_0003.352.png</name>
                    <masterclipid>masterclip-354</masterclipid>
                    <rate>
                      <timebase>24</timebase>
                      <ntsc>FALSE</ntsc>
                    </rate>
                    <alphatype>straight</alphatype>
                    <pixelaspectratio>square</pixelaspectratio>
                    <anamorphic>FALSE</anamorphic>
                    <file id="file-354">
                      <name>Scene - Puppet man_0003.352.png</name>
                      <pathurl>file://localhost/C:/Users/jmrey/OneDrive/Desktop/Programmin Stuff/Projects/conversation-simulator/resources/videos/Scene - Puppet man_0003/Scene - Puppet man_0003.352.png</pathurl>
                      <rate>
                        <timebase>24</timebase>
                        <ntsc>FALSE</ntsc>
                      </rate>
                      <duration>720</duration>
                      <timecode>
                        <rate>
                          <timebase>24</timebase>
                          <ntsc>FALSE</ntsc>
                        </rate>
                      </timecode>
                      <media>
                        <video>
                          <duration>1</duration>
                          <samplecharacteristics>
                            <anamorphic>FALSE</anamorphic>
                            <pixelaspectratio>square</pixelaspectratio>
                            <fielddominance>none</fielddominance>
                            <width>1920</width>
                            <height>1080</height>
                          </samplecharacteristics>
                        </video>
                      </media>
                    </file>
                  </clipitem>
                </track>
              </video>
            </media>
          </clip>
          <clip explodedTracks="true" frameBlend="FALSE" id="masterclip-355">
            <uuid>027b1acb-16e3-4b28-b27d-7a72e08cd299</uuid>
            <masterclipid>masterclip-355</masterclipid>
            <ismasterclip>TRUE</ismasterclip>
            <duration>720</duration>
            <in>0</in>
            <out>720</out>
            <name>Scene - Puppet man_0003.353.png</name>
            <rate>
              <timebase>24</timebase>
              <ntsc>FALSE</ntsc>
            </rate>
            <media>
              <video>
                <track>
                  <clipitem frameBlend="FALSE" id="clipitem-356">
                    <name>Scene - Puppet man_0003.353.png</name>
                    <masterclipid>masterclip-355</masterclipid>
                    <rate>
                      <timebase>24</timebase>
                      <ntsc>FALSE</ntsc>
                    </rate>
                    <alphatype>straight</alphatype>
                    <pixelaspectratio>square</pixelaspectratio>
                    <anamorphic>FALSE</anamorphic>
                    <file id="file-355">
                      <name>Scene - Puppet man_0003.353.png</name>
                      <pathurl>file://localhost/C:/Users/jmrey/OneDrive/Desktop/Programmin Stuff/Projects/conversation-simulator/resources/videos/Scene - Puppet man_0003/Scene - Puppet man_0003.353.png</pathurl>
                      <rate>
                        <timebase>24</timebase>
                        <ntsc>FALSE</ntsc>
                      </rate>
                      <duration>720</duration>
                      <timecode>
                        <rate>
                          <timebase>24</timebase>
                          <ntsc>FALSE</ntsc>
                        </rate>
                      </timecode>
                      <media>
                        <video>
                          <duration>1</duration>
                          <samplecharacteristics>
                            <anamorphic>FALSE</anamorphic>
                            <pixelaspectratio>square</pixelaspectratio>
                            <fielddominance>none</fielddominance>
                            <width>1920</width>
                            <height>1080</height>
                          </samplecharacteristics>
                        </video>
                      </media>
                    </file>
                  </clipitem>
                </track>
              </video>
            </media>
          </clip>
          <clip explodedTracks="true" frameBlend="FALSE" id="masterclip-356">
            <uuid>015ef55f-3824-4016-849d-43b84f90aa3f</uuid>
            <masterclipid>masterclip-356</masterclipid>
            <ismasterclip>TRUE</ismasterclip>
            <duration>720</duration>
            <in>0</in>
            <out>720</out>
            <name>Scene - Puppet man_0003.354.png</name>
            <rate>
              <timebase>24</timebase>
              <ntsc>FALSE</ntsc>
            </rate>
            <media>
              <video>
                <track>
                  <clipitem frameBlend="FALSE" id="clipitem-357">
                    <name>Scene - Puppet man_0003.354.png</name>
                    <masterclipid>masterclip-356</masterclipid>
                    <rate>
                      <timebase>24</timebase>
                      <ntsc>FALSE</ntsc>
                    </rate>
                    <alphatype>straight</alphatype>
                    <pixelaspectratio>square</pixelaspectratio>
                    <anamorphic>FALSE</anamorphic>
                    <file id="file-356">
                      <name>Scene - Puppet man_0003.354.png</name>
                      <pathurl>file://localhost/C:/Users/jmrey/OneDrive/Desktop/Programmin Stuff/Projects/conversation-simulator/resources/videos/Scene - Puppet man_0003/Scene - Puppet man_0003.354.png</pathurl>
                      <rate>
                        <timebase>24</timebase>
                        <ntsc>FALSE</ntsc>
                      </rate>
                      <duration>720</duration>
                      <timecode>
                        <rate>
                          <timebase>24</timebase>
                          <ntsc>FALSE</ntsc>
                        </rate>
                      </timecode>
                      <media>
                        <video>
                          <duration>1</duration>
                          <samplecharacteristics>
                            <anamorphic>FALSE</anamorphic>
                            <pixelaspectratio>square</pixelaspectratio>
                            <fielddominance>none</fielddominance>
                            <width>1920</width>
                            <height>1080</height>
                          </samplecharacteristics>
                        </video>
                      </media>
                    </file>
                  </clipitem>
                </track>
              </video>
            </media>
          </clip>
          <clip explodedTracks="true" frameBlend="FALSE" id="masterclip-357">
            <uuid>10d583cb-d997-4313-ab15-e46dc71a0130</uuid>
            <masterclipid>masterclip-357</masterclipid>
            <ismasterclip>TRUE</ismasterclip>
            <duration>720</duration>
            <in>0</in>
            <out>720</out>
            <name>Scene - Puppet man_0003.355.png</name>
            <rate>
              <timebase>24</timebase>
              <ntsc>FALSE</ntsc>
            </rate>
            <media>
              <video>
                <track>
                  <clipitem frameBlend="FALSE" id="clipitem-358">
                    <name>Scene - Puppet man_0003.355.png</name>
                    <masterclipid>masterclip-357</masterclipid>
                    <rate>
                      <timebase>24</timebase>
                      <ntsc>FALSE</ntsc>
                    </rate>
                    <alphatype>straight</alphatype>
                    <pixelaspectratio>square</pixelaspectratio>
                    <anamorphic>FALSE</anamorphic>
                    <file id="file-357">
                      <name>Scene - Puppet man_0003.355.png</name>
                      <pathurl>file://localhost/C:/Users/jmrey/OneDrive/Desktop/Programmin Stuff/Projects/conversation-simulator/resources/videos/Scene - Puppet man_0003/Scene - Puppet man_0003.355.png</pathurl>
                      <rate>
                        <timebase>24</timebase>
                        <ntsc>FALSE</ntsc>
                      </rate>
                      <duration>720</duration>
                      <timecode>
                        <rate>
                          <timebase>24</timebase>
                          <ntsc>FALSE</ntsc>
                        </rate>
                      </timecode>
                      <media>
                        <video>
                          <duration>1</duration>
                          <samplecharacteristics>
                            <anamorphic>FALSE</anamorphic>
                            <pixelaspectratio>square</pixelaspectratio>
                            <fielddominance>none</fielddominance>
                            <width>1920</width>
                            <height>1080</height>
                          </samplecharacteristics>
                        </video>
                      </media>
                    </file>
                  </clipitem>
                </track>
              </video>
            </media>
          </clip>
          <clip explodedTracks="true" frameBlend="FALSE" id="masterclip-358">
            <uuid>49c0e9b2-c4a1-47da-8d36-ed139836faee</uuid>
            <masterclipid>masterclip-358</masterclipid>
            <ismasterclip>TRUE</ismasterclip>
            <duration>720</duration>
            <in>0</in>
            <out>720</out>
            <name>Scene - Puppet man_0003.356.png</name>
            <rate>
              <timebase>24</timebase>
              <ntsc>FALSE</ntsc>
            </rate>
            <media>
              <video>
                <track>
                  <clipitem frameBlend="FALSE" id="clipitem-359">
                    <name>Scene - Puppet man_0003.356.png</name>
                    <masterclipid>masterclip-358</masterclipid>
                    <rate>
                      <timebase>24</timebase>
                      <ntsc>FALSE</ntsc>
                    </rate>
                    <alphatype>straight</alphatype>
                    <pixelaspectratio>square</pixelaspectratio>
                    <anamorphic>FALSE</anamorphic>
                    <file id="file-358">
                      <name>Scene - Puppet man_0003.356.png</name>
                      <pathurl>file://localhost/C:/Users/jmrey/OneDrive/Desktop/Programmin Stuff/Projects/conversation-simulator/resources/videos/Scene - Puppet man_0003/Scene - Puppet man_0003.356.png</pathurl>
                      <rate>
                        <timebase>24</timebase>
                        <ntsc>FALSE</ntsc>
                      </rate>
                      <duration>720</duration>
                      <timecode>
                        <rate>
                          <timebase>24</timebase>
                          <ntsc>FALSE</ntsc>
                        </rate>
                      </timecode>
                      <media>
                        <video>
                          <duration>1</duration>
                          <samplecharacteristics>
                            <anamorphic>FALSE</anamorphic>
                            <pixelaspectratio>square</pixelaspectratio>
                            <fielddominance>none</fielddominance>
                            <width>1920</width>
                            <height>1080</height>
                          </samplecharacteristics>
                        </video>
                      </media>
                    </file>
                  </clipitem>
                </track>
              </video>
            </media>
          </clip>
          <clip explodedTracks="true" frameBlend="FALSE" id="masterclip-359">
            <uuid>d3123b5c-e34b-44d8-9c3b-1ec92db05aca</uuid>
            <masterclipid>masterclip-359</masterclipid>
            <ismasterclip>TRUE</ismasterclip>
            <duration>720</duration>
            <in>0</in>
            <out>720</out>
            <name>Scene - Puppet man_0003.357.png</name>
            <rate>
              <timebase>24</timebase>
              <ntsc>FALSE</ntsc>
            </rate>
            <media>
              <video>
                <track>
                  <clipitem frameBlend="FALSE" id="clipitem-360">
                    <name>Scene - Puppet man_0003.357.png</name>
                    <masterclipid>masterclip-359</masterclipid>
                    <rate>
                      <timebase>24</timebase>
                      <ntsc>FALSE</ntsc>
                    </rate>
                    <alphatype>straight</alphatype>
                    <pixelaspectratio>square</pixelaspectratio>
                    <anamorphic>FALSE</anamorphic>
                    <file id="file-359">
                      <name>Scene - Puppet man_0003.357.png</name>
                      <pathurl>file://localhost/C:/Users/jmrey/OneDrive/Desktop/Programmin Stuff/Projects/conversation-simulator/resources/videos/Scene - Puppet man_0003/Scene - Puppet man_0003.357.png</pathurl>
                      <rate>
                        <timebase>24</timebase>
                        <ntsc>FALSE</ntsc>
                      </rate>
                      <duration>720</duration>
                      <timecode>
                        <rate>
                          <timebase>24</timebase>
                          <ntsc>FALSE</ntsc>
                        </rate>
                      </timecode>
                      <media>
                        <video>
                          <duration>1</duration>
                          <samplecharacteristics>
                            <anamorphic>FALSE</anamorphic>
                            <pixelaspectratio>square</pixelaspectratio>
                            <fielddominance>none</fielddominance>
                            <width>1920</width>
                            <height>1080</height>
                          </samplecharacteristics>
                        </video>
                      </media>
                    </file>
                  </clipitem>
                </track>
              </video>
            </media>
          </clip>
          <clip explodedTracks="true" frameBlend="FALSE" id="masterclip-360">
            <uuid>8f029796-7178-4abc-ad10-9e3ca09c0433</uuid>
            <masterclipid>masterclip-360</masterclipid>
            <ismasterclip>TRUE</ismasterclip>
            <duration>720</duration>
            <in>0</in>
            <out>720</out>
            <name>Scene - Puppet man_0003.358.png</name>
            <rate>
              <timebase>24</timebase>
              <ntsc>FALSE</ntsc>
            </rate>
            <media>
              <video>
                <track>
                  <clipitem frameBlend="FALSE" id="clipitem-361">
                    <name>Scene - Puppet man_0003.358.png</name>
                    <masterclipid>masterclip-360</masterclipid>
                    <rate>
                      <timebase>24</timebase>
                      <ntsc>FALSE</ntsc>
                    </rate>
                    <alphatype>straight</alphatype>
                    <pixelaspectratio>square</pixelaspectratio>
                    <anamorphic>FALSE</anamorphic>
                    <file id="file-360">
                      <name>Scene - Puppet man_0003.358.png</name>
                      <pathurl>file://localhost/C:/Users/jmrey/OneDrive/Desktop/Programmin Stuff/Projects/conversation-simulator/resources/videos/Scene - Puppet man_0003/Scene - Puppet man_0003.358.png</pathurl>
                      <rate>
                        <timebase>24</timebase>
                        <ntsc>FALSE</ntsc>
                      </rate>
                      <duration>720</duration>
                      <timecode>
                        <rate>
                          <timebase>24</timebase>
                          <ntsc>FALSE</ntsc>
                        </rate>
                      </timecode>
                      <media>
                        <video>
                          <duration>1</duration>
                          <samplecharacteristics>
                            <anamorphic>FALSE</anamorphic>
                            <pixelaspectratio>square</pixelaspectratio>
                            <fielddominance>none</fielddominance>
                            <width>1920</width>
                            <height>1080</height>
                          </samplecharacteristics>
                        </video>
                      </media>
                    </file>
                  </clipitem>
                </track>
              </video>
            </media>
          </clip>
          <clip explodedTracks="true" frameBlend="FALSE" id="masterclip-361">
            <uuid>93577c03-d75f-4ca5-b859-ddf6f5cc515e</uuid>
            <masterclipid>masterclip-361</masterclipid>
            <ismasterclip>TRUE</ismasterclip>
            <duration>720</duration>
            <in>0</in>
            <out>720</out>
            <name>Scene - Puppet man_0003.359.png</name>
            <rate>
              <timebase>24</timebase>
              <ntsc>FALSE</ntsc>
            </rate>
            <media>
              <video>
                <track>
                  <clipitem frameBlend="FALSE" id="clipitem-362">
                    <name>Scene - Puppet man_0003.359.png</name>
                    <masterclipid>masterclip-361</masterclipid>
                    <rate>
                      <timebase>24</timebase>
                      <ntsc>FALSE</ntsc>
                    </rate>
                    <alphatype>straight</alphatype>
                    <pixelaspectratio>square</pixelaspectratio>
                    <anamorphic>FALSE</anamorphic>
                    <file id="file-361">
                      <name>Scene - Puppet man_0003.359.png</name>
                      <pathurl>file://localhost/C:/Users/jmrey/OneDrive/Desktop/Programmin Stuff/Projects/conversation-simulator/resources/videos/Scene - Puppet man_0003/Scene - Puppet man_0003.359.png</pathurl>
                      <rate>
                        <timebase>24</timebase>
                        <ntsc>FALSE</ntsc>
                      </rate>
                      <duration>720</duration>
                      <timecode>
                        <rate>
                          <timebase>24</timebase>
                          <ntsc>FALSE</ntsc>
                        </rate>
                      </timecode>
                      <media>
                        <video>
                          <duration>1</duration>
                          <samplecharacteristics>
                            <anamorphic>FALSE</anamorphic>
                            <pixelaspectratio>square</pixelaspectratio>
                            <fielddominance>none</fielddominance>
                            <width>1920</width>
                            <height>1080</height>
                          </samplecharacteristics>
                        </video>
                      </media>
                    </file>
                  </clipitem>
                </track>
              </video>
            </media>
          </clip>
          <clip explodedTracks="true" frameBlend="FALSE" id="masterclip-362">
            <uuid>4bfa4b07-f112-4548-85aa-13d0f01c05cb</uuid>
            <masterclipid>masterclip-362</masterclipid>
            <ismasterclip>TRUE</ismasterclip>
            <duration>720</duration>
            <in>0</in>
            <out>720</out>
            <name>Scene - Puppet man_0003.360.png</name>
            <rate>
              <timebase>24</timebase>
              <ntsc>FALSE</ntsc>
            </rate>
            <media>
              <video>
                <track>
                  <clipitem frameBlend="FALSE" id="clipitem-363">
                    <name>Scene - Puppet man_0003.360.png</name>
                    <masterclipid>masterclip-362</masterclipid>
                    <rate>
                      <timebase>24</timebase>
                      <ntsc>FALSE</ntsc>
                    </rate>
                    <alphatype>straight</alphatype>
                    <pixelaspectratio>square</pixelaspectratio>
                    <anamorphic>FALSE</anamorphic>
                    <file id="file-362">
                      <name>Scene - Puppet man_0003.360.png</name>
                      <pathurl>file://localhost/C:/Users/jmrey/OneDrive/Desktop/Programmin Stuff/Projects/conversation-simulator/resources/videos/Scene - Puppet man_0003/Scene - Puppet man_0003.360.png</pathurl>
                      <rate>
                        <timebase>24</timebase>
                        <ntsc>FALSE</ntsc>
                      </rate>
                      <duration>720</duration>
                      <timecode>
                        <rate>
                          <timebase>24</timebase>
                          <ntsc>FALSE</ntsc>
                        </rate>
                      </timecode>
                      <media>
                        <video>
                          <duration>1</duration>
                          <samplecharacteristics>
                            <anamorphic>FALSE</anamorphic>
                            <pixelaspectratio>square</pixelaspectratio>
                            <fielddominance>none</fielddominance>
                            <width>1920</width>
                            <height>1080</height>
                          </samplecharacteristics>
                        </video>
                      </media>
                    </file>
                  </clipitem>
                </track>
              </video>
            </media>
          </clip>
          <clip explodedTracks="true" frameBlend="FALSE" id="masterclip-363">
            <uuid>6ead4452-5cb2-4687-9c86-054f0c60ca0d</uuid>
            <masterclipid>masterclip-363</masterclipid>
            <ismasterclip>TRUE</ismasterclip>
            <duration>720</duration>
            <in>0</in>
            <out>720</out>
            <name>Scene - Puppet man_0003.361.png</name>
            <rate>
              <timebase>24</timebase>
              <ntsc>FALSE</ntsc>
            </rate>
            <media>
              <video>
                <track>
                  <clipitem frameBlend="FALSE" id="clipitem-364">
                    <name>Scene - Puppet man_0003.361.png</name>
                    <masterclipid>masterclip-363</masterclipid>
                    <rate>
                      <timebase>24</timebase>
                      <ntsc>FALSE</ntsc>
                    </rate>
                    <alphatype>straight</alphatype>
                    <pixelaspectratio>square</pixelaspectratio>
                    <anamorphic>FALSE</anamorphic>
                    <file id="file-363">
                      <name>Scene - Puppet man_0003.361.png</name>
                      <pathurl>file://localhost/C:/Users/jmrey/OneDrive/Desktop/Programmin Stuff/Projects/conversation-simulator/resources/videos/Scene - Puppet man_0003/Scene - Puppet man_0003.361.png</pathurl>
                      <rate>
                        <timebase>24</timebase>
                        <ntsc>FALSE</ntsc>
                      </rate>
                      <duration>720</duration>
                      <timecode>
                        <rate>
                          <timebase>24</timebase>
                          <ntsc>FALSE</ntsc>
                        </rate>
                      </timecode>
                      <media>
                        <video>
                          <duration>1</duration>
                          <samplecharacteristics>
                            <anamorphic>FALSE</anamorphic>
                            <pixelaspectratio>square</pixelaspectratio>
                            <fielddominance>none</fielddominance>
                            <width>1920</width>
                            <height>1080</height>
                          </samplecharacteristics>
                        </video>
                      </media>
                    </file>
                  </clipitem>
                </track>
              </video>
            </media>
          </clip>
          <clip explodedTracks="true" frameBlend="FALSE" id="masterclip-364">
            <uuid>3a234ef1-4114-4881-908f-28f69504ab9b</uuid>
            <masterclipid>masterclip-364</masterclipid>
            <ismasterclip>TRUE</ismasterclip>
            <duration>720</duration>
            <in>0</in>
            <out>720</out>
            <name>Scene - Puppet man_0003.362.png</name>
            <rate>
              <timebase>24</timebase>
              <ntsc>FALSE</ntsc>
            </rate>
            <media>
              <video>
                <track>
                  <clipitem frameBlend="FALSE" id="clipitem-365">
                    <name>Scene - Puppet man_0003.362.png</name>
                    <masterclipid>masterclip-364</masterclipid>
                    <rate>
                      <timebase>24</timebase>
                      <ntsc>FALSE</ntsc>
                    </rate>
                    <alphatype>straight</alphatype>
                    <pixelaspectratio>square</pixelaspectratio>
                    <anamorphic>FALSE</anamorphic>
                    <file id="file-364">
                      <name>Scene - Puppet man_0003.362.png</name>
                      <pathurl>file://localhost/C:/Users/jmrey/OneDrive/Desktop/Programmin Stuff/Projects/conversation-simulator/resources/videos/Scene - Puppet man_0003/Scene - Puppet man_0003.362.png</pathurl>
                      <rate>
                        <timebase>24</timebase>
                        <ntsc>FALSE</ntsc>
                      </rate>
                      <duration>720</duration>
                      <timecode>
                        <rate>
                          <timebase>24</timebase>
                          <ntsc>FALSE</ntsc>
                        </rate>
                      </timecode>
                      <media>
                        <video>
                          <duration>1</duration>
                          <samplecharacteristics>
                            <anamorphic>FALSE</anamorphic>
                            <pixelaspectratio>square</pixelaspectratio>
                            <fielddominance>none</fielddominance>
                            <width>1920</width>
                            <height>1080</height>
                          </samplecharacteristics>
                        </video>
                      </media>
                    </file>
                  </clipitem>
                </track>
              </video>
            </media>
          </clip>
          <clip explodedTracks="true" frameBlend="FALSE" id="masterclip-365">
            <uuid>3b4b4483-1d13-4354-b28f-d57dd8443d6e</uuid>
            <masterclipid>masterclip-365</masterclipid>
            <ismasterclip>TRUE</ismasterclip>
            <duration>720</duration>
            <in>0</in>
            <out>720</out>
            <name>Scene - Puppet man_0003.363.png</name>
            <rate>
              <timebase>24</timebase>
              <ntsc>FALSE</ntsc>
            </rate>
            <media>
              <video>
                <track>
                  <clipitem frameBlend="FALSE" id="clipitem-366">
                    <name>Scene - Puppet man_0003.363.png</name>
                    <masterclipid>masterclip-365</masterclipid>
                    <rate>
                      <timebase>24</timebase>
                      <ntsc>FALSE</ntsc>
                    </rate>
                    <alphatype>straight</alphatype>
                    <pixelaspectratio>square</pixelaspectratio>
                    <anamorphic>FALSE</anamorphic>
                    <file id="file-365">
                      <name>Scene - Puppet man_0003.363.png</name>
                      <pathurl>file://localhost/C:/Users/jmrey/OneDrive/Desktop/Programmin Stuff/Projects/conversation-simulator/resources/videos/Scene - Puppet man_0003/Scene - Puppet man_0003.363.png</pathurl>
                      <rate>
                        <timebase>24</timebase>
                        <ntsc>FALSE</ntsc>
                      </rate>
                      <duration>720</duration>
                      <timecode>
                        <rate>
                          <timebase>24</timebase>
                          <ntsc>FALSE</ntsc>
                        </rate>
                      </timecode>
                      <media>
                        <video>
                          <duration>1</duration>
                          <samplecharacteristics>
                            <anamorphic>FALSE</anamorphic>
                            <pixelaspectratio>square</pixelaspectratio>
                            <fielddominance>none</fielddominance>
                            <width>1920</width>
                            <height>1080</height>
                          </samplecharacteristics>
                        </video>
                      </media>
                    </file>
                  </clipitem>
                </track>
              </video>
            </media>
          </clip>
          <clip explodedTracks="true" frameBlend="FALSE" id="masterclip-366">
            <uuid>d38759e4-bf30-4915-84a0-2f3d78f7850f</uuid>
            <masterclipid>masterclip-366</masterclipid>
            <ismasterclip>TRUE</ismasterclip>
            <duration>720</duration>
            <in>0</in>
            <out>720</out>
            <name>Scene - Puppet man_0003.364.png</name>
            <rate>
              <timebase>24</timebase>
              <ntsc>FALSE</ntsc>
            </rate>
            <media>
              <video>
                <track>
                  <clipitem frameBlend="FALSE" id="clipitem-367">
                    <name>Scene - Puppet man_0003.364.png</name>
                    <masterclipid>masterclip-366</masterclipid>
                    <rate>
                      <timebase>24</timebase>
                      <ntsc>FALSE</ntsc>
                    </rate>
                    <alphatype>straight</alphatype>
                    <pixelaspectratio>square</pixelaspectratio>
                    <anamorphic>FALSE</anamorphic>
                    <file id="file-366">
                      <name>Scene - Puppet man_0003.364.png</name>
                      <pathurl>file://localhost/C:/Users/jmrey/OneDrive/Desktop/Programmin Stuff/Projects/conversation-simulator/resources/videos/Scene - Puppet man_0003/Scene - Puppet man_0003.364.png</pathurl>
                      <rate>
                        <timebase>24</timebase>
                        <ntsc>FALSE</ntsc>
                      </rate>
                      <duration>720</duration>
                      <timecode>
                        <rate>
                          <timebase>24</timebase>
                          <ntsc>FALSE</ntsc>
                        </rate>
                      </timecode>
                      <media>
                        <video>
                          <duration>1</duration>
                          <samplecharacteristics>
                            <anamorphic>FALSE</anamorphic>
                            <pixelaspectratio>square</pixelaspectratio>
                            <fielddominance>none</fielddominance>
                            <width>1920</width>
                            <height>1080</height>
                          </samplecharacteristics>
                        </video>
                      </media>
                    </file>
                  </clipitem>
                </track>
              </video>
            </media>
          </clip>
          <clip explodedTracks="true" frameBlend="FALSE" id="masterclip-367">
            <uuid>01b52b1b-1b9a-4189-8430-bef4da448f32</uuid>
            <masterclipid>masterclip-367</masterclipid>
            <ismasterclip>TRUE</ismasterclip>
            <duration>720</duration>
            <in>0</in>
            <out>720</out>
            <name>Scene - Puppet man_0003.365.png</name>
            <rate>
              <timebase>24</timebase>
              <ntsc>FALSE</ntsc>
            </rate>
            <media>
              <video>
                <track>
                  <clipitem frameBlend="FALSE" id="clipitem-368">
                    <name>Scene - Puppet man_0003.365.png</name>
                    <masterclipid>masterclip-367</masterclipid>
                    <rate>
                      <timebase>24</timebase>
                      <ntsc>FALSE</ntsc>
                    </rate>
                    <alphatype>straight</alphatype>
                    <pixelaspectratio>square</pixelaspectratio>
                    <anamorphic>FALSE</anamorphic>
                    <file id="file-367">
                      <name>Scene - Puppet man_0003.365.png</name>
                      <pathurl>file://localhost/C:/Users/jmrey/OneDrive/Desktop/Programmin Stuff/Projects/conversation-simulator/resources/videos/Scene - Puppet man_0003/Scene - Puppet man_0003.365.png</pathurl>
                      <rate>
                        <timebase>24</timebase>
                        <ntsc>FALSE</ntsc>
                      </rate>
                      <duration>720</duration>
                      <timecode>
                        <rate>
                          <timebase>24</timebase>
                          <ntsc>FALSE</ntsc>
                        </rate>
                      </timecode>
                      <media>
                        <video>
                          <duration>1</duration>
                          <samplecharacteristics>
                            <anamorphic>FALSE</anamorphic>
                            <pixelaspectratio>square</pixelaspectratio>
                            <fielddominance>none</fielddominance>
                            <width>1920</width>
                            <height>1080</height>
                          </samplecharacteristics>
                        </video>
                      </media>
                    </file>
                  </clipitem>
                </track>
              </video>
            </media>
          </clip>
          <clip explodedTracks="true" frameBlend="FALSE" id="masterclip-368">
            <uuid>07ba2be4-d3f4-4102-899f-b62cd1eb894e</uuid>
            <masterclipid>masterclip-368</masterclipid>
            <ismasterclip>TRUE</ismasterclip>
            <duration>720</duration>
            <in>0</in>
            <out>720</out>
            <name>Scene - Puppet man_0003.366.png</name>
            <rate>
              <timebase>24</timebase>
              <ntsc>FALSE</ntsc>
            </rate>
            <media>
              <video>
                <track>
                  <clipitem frameBlend="FALSE" id="clipitem-369">
                    <name>Scene - Puppet man_0003.366.png</name>
                    <masterclipid>masterclip-368</masterclipid>
                    <rate>
                      <timebase>24</timebase>
                      <ntsc>FALSE</ntsc>
                    </rate>
                    <alphatype>straight</alphatype>
                    <pixelaspectratio>square</pixelaspectratio>
                    <anamorphic>FALSE</anamorphic>
                    <file id="file-368">
                      <name>Scene - Puppet man_0003.366.png</name>
                      <pathurl>file://localhost/C:/Users/jmrey/OneDrive/Desktop/Programmin Stuff/Projects/conversation-simulator/resources/videos/Scene - Puppet man_0003/Scene - Puppet man_0003.366.png</pathurl>
                      <rate>
                        <timebase>24</timebase>
                        <ntsc>FALSE</ntsc>
                      </rate>
                      <duration>720</duration>
                      <timecode>
                        <rate>
                          <timebase>24</timebase>
                          <ntsc>FALSE</ntsc>
                        </rate>
                      </timecode>
                      <media>
                        <video>
                          <duration>1</duration>
                          <samplecharacteristics>
                            <anamorphic>FALSE</anamorphic>
                            <pixelaspectratio>square</pixelaspectratio>
                            <fielddominance>none</fielddominance>
                            <width>1920</width>
                            <height>1080</height>
                          </samplecharacteristics>
                        </video>
                      </media>
                    </file>
                  </clipitem>
                </track>
              </video>
            </media>
          </clip>
          <clip explodedTracks="true" frameBlend="FALSE" id="masterclip-369">
            <uuid>e4a0509c-4d58-4782-a4cd-69bf12c4072b</uuid>
            <masterclipid>masterclip-369</masterclipid>
            <ismasterclip>TRUE</ismasterclip>
            <duration>720</duration>
            <in>0</in>
            <out>720</out>
            <name>Scene - Puppet man_0003.367.png</name>
            <rate>
              <timebase>24</timebase>
              <ntsc>FALSE</ntsc>
            </rate>
            <media>
              <video>
                <track>
                  <clipitem frameBlend="FALSE" id="clipitem-370">
                    <name>Scene - Puppet man_0003.367.png</name>
                    <masterclipid>masterclip-369</masterclipid>
                    <rate>
                      <timebase>24</timebase>
                      <ntsc>FALSE</ntsc>
                    </rate>
                    <alphatype>straight</alphatype>
                    <pixelaspectratio>square</pixelaspectratio>
                    <anamorphic>FALSE</anamorphic>
                    <file id="file-369">
                      <name>Scene - Puppet man_0003.367.png</name>
                      <pathurl>file://localhost/C:/Users/jmrey/OneDrive/Desktop/Programmin Stuff/Projects/conversation-simulator/resources/videos/Scene - Puppet man_0003/Scene - Puppet man_0003.367.png</pathurl>
                      <rate>
                        <timebase>24</timebase>
                        <ntsc>FALSE</ntsc>
                      </rate>
                      <duration>720</duration>
                      <timecode>
                        <rate>
                          <timebase>24</timebase>
                          <ntsc>FALSE</ntsc>
                        </rate>
                      </timecode>
                      <media>
                        <video>
                          <duration>1</duration>
                          <samplecharacteristics>
                            <anamorphic>FALSE</anamorphic>
                            <pixelaspectratio>square</pixelaspectratio>
                            <fielddominance>none</fielddominance>
                            <width>1920</width>
                            <height>1080</height>
                          </samplecharacteristics>
                        </video>
                      </media>
                    </file>
                  </clipitem>
                </track>
              </video>
            </media>
          </clip>
          <clip explodedTracks="true" frameBlend="FALSE" id="masterclip-370">
            <uuid>53d59f74-b272-4c48-b7de-12b21ae9f7e7</uuid>
            <masterclipid>masterclip-370</masterclipid>
            <ismasterclip>TRUE</ismasterclip>
            <duration>720</duration>
            <in>0</in>
            <out>720</out>
            <name>Scene - Puppet man_0003.368.png</name>
            <rate>
              <timebase>24</timebase>
              <ntsc>FALSE</ntsc>
            </rate>
            <media>
              <video>
                <track>
                  <clipitem frameBlend="FALSE" id="clipitem-371">
                    <name>Scene - Puppet man_0003.368.png</name>
                    <masterclipid>masterclip-370</masterclipid>
                    <rate>
                      <timebase>24</timebase>
                      <ntsc>FALSE</ntsc>
                    </rate>
                    <alphatype>straight</alphatype>
                    <pixelaspectratio>square</pixelaspectratio>
                    <anamorphic>FALSE</anamorphic>
                    <file id="file-370">
                      <name>Scene - Puppet man_0003.368.png</name>
                      <pathurl>file://localhost/C:/Users/jmrey/OneDrive/Desktop/Programmin Stuff/Projects/conversation-simulator/resources/videos/Scene - Puppet man_0003/Scene - Puppet man_0003.368.png</pathurl>
                      <rate>
                        <timebase>24</timebase>
                        <ntsc>FALSE</ntsc>
                      </rate>
                      <duration>720</duration>
                      <timecode>
                        <rate>
                          <timebase>24</timebase>
                          <ntsc>FALSE</ntsc>
                        </rate>
                      </timecode>
                      <media>
                        <video>
                          <duration>1</duration>
                          <samplecharacteristics>
                            <anamorphic>FALSE</anamorphic>
                            <pixelaspectratio>square</pixelaspectratio>
                            <fielddominance>none</fielddominance>
                            <width>1920</width>
                            <height>1080</height>
                          </samplecharacteristics>
                        </video>
                      </media>
                    </file>
                  </clipitem>
                </track>
              </video>
            </media>
          </clip>
          <clip explodedTracks="true" frameBlend="FALSE" id="masterclip-371">
            <uuid>9ae3f0c7-8e8f-4d3d-b55e-3716bb684681</uuid>
            <masterclipid>masterclip-371</masterclipid>
            <ismasterclip>TRUE</ismasterclip>
            <duration>720</duration>
            <in>0</in>
            <out>720</out>
            <name>Scene - Puppet man_0003.369.png</name>
            <rate>
              <timebase>24</timebase>
              <ntsc>FALSE</ntsc>
            </rate>
            <media>
              <video>
                <track>
                  <clipitem frameBlend="FALSE" id="clipitem-372">
                    <name>Scene - Puppet man_0003.369.png</name>
                    <masterclipid>masterclip-371</masterclipid>
                    <rate>
                      <timebase>24</timebase>
                      <ntsc>FALSE</ntsc>
                    </rate>
                    <alphatype>straight</alphatype>
                    <pixelaspectratio>square</pixelaspectratio>
                    <anamorphic>FALSE</anamorphic>
                    <file id="file-371">
                      <name>Scene - Puppet man_0003.369.png</name>
                      <pathurl>file://localhost/C:/Users/jmrey/OneDrive/Desktop/Programmin Stuff/Projects/conversation-simulator/resources/videos/Scene - Puppet man_0003/Scene - Puppet man_0003.369.png</pathurl>
                      <rate>
                        <timebase>24</timebase>
                        <ntsc>FALSE</ntsc>
                      </rate>
                      <duration>720</duration>
                      <timecode>
                        <rate>
                          <timebase>24</timebase>
                          <ntsc>FALSE</ntsc>
                        </rate>
                      </timecode>
                      <media>
                        <video>
                          <duration>1</duration>
                          <samplecharacteristics>
                            <anamorphic>FALSE</anamorphic>
                            <pixelaspectratio>square</pixelaspectratio>
                            <fielddominance>none</fielddominance>
                            <width>1920</width>
                            <height>1080</height>
                          </samplecharacteristics>
                        </video>
                      </media>
                    </file>
                  </clipitem>
                </track>
              </video>
            </media>
          </clip>
          <clip explodedTracks="true" frameBlend="FALSE" id="masterclip-372">
            <uuid>0f001a5a-37eb-4fb2-b621-2dd2069e262d</uuid>
            <masterclipid>masterclip-372</masterclipid>
            <ismasterclip>TRUE</ismasterclip>
            <duration>720</duration>
            <in>0</in>
            <out>720</out>
            <name>Scene - Puppet man_0003.370.png</name>
            <rate>
              <timebase>24</timebase>
              <ntsc>FALSE</ntsc>
            </rate>
            <media>
              <video>
                <track>
                  <clipitem frameBlend="FALSE" id="clipitem-373">
                    <name>Scene - Puppet man_0003.370.png</name>
                    <masterclipid>masterclip-372</masterclipid>
                    <rate>
                      <timebase>24</timebase>
                      <ntsc>FALSE</ntsc>
                    </rate>
                    <alphatype>straight</alphatype>
                    <pixelaspectratio>square</pixelaspectratio>
                    <anamorphic>FALSE</anamorphic>
                    <file id="file-372">
                      <name>Scene - Puppet man_0003.370.png</name>
                      <pathurl>file://localhost/C:/Users/jmrey/OneDrive/Desktop/Programmin Stuff/Projects/conversation-simulator/resources/videos/Scene - Puppet man_0003/Scene - Puppet man_0003.370.png</pathurl>
                      <rate>
                        <timebase>24</timebase>
                        <ntsc>FALSE</ntsc>
                      </rate>
                      <duration>720</duration>
                      <timecode>
                        <rate>
                          <timebase>24</timebase>
                          <ntsc>FALSE</ntsc>
                        </rate>
                      </timecode>
                      <media>
                        <video>
                          <duration>1</duration>
                          <samplecharacteristics>
                            <anamorphic>FALSE</anamorphic>
                            <pixelaspectratio>square</pixelaspectratio>
                            <fielddominance>none</fielddominance>
                            <width>1920</width>
                            <height>1080</height>
                          </samplecharacteristics>
                        </video>
                      </media>
                    </file>
                  </clipitem>
                </track>
              </video>
            </media>
          </clip>
          <clip explodedTracks="true" frameBlend="FALSE" id="masterclip-373">
            <uuid>d20ee837-d994-49cd-a721-03158450bff1</uuid>
            <masterclipid>masterclip-373</masterclipid>
            <ismasterclip>TRUE</ismasterclip>
            <duration>720</duration>
            <in>0</in>
            <out>720</out>
            <name>Scene - Puppet man_0003.371.png</name>
            <rate>
              <timebase>24</timebase>
              <ntsc>FALSE</ntsc>
            </rate>
            <media>
              <video>
                <track>
                  <clipitem frameBlend="FALSE" id="clipitem-374">
                    <name>Scene - Puppet man_0003.371.png</name>
                    <masterclipid>masterclip-373</masterclipid>
                    <rate>
                      <timebase>24</timebase>
                      <ntsc>FALSE</ntsc>
                    </rate>
                    <alphatype>straight</alphatype>
                    <pixelaspectratio>square</pixelaspectratio>
                    <anamorphic>FALSE</anamorphic>
                    <file id="file-373">
                      <name>Scene - Puppet man_0003.371.png</name>
                      <pathurl>file://localhost/C:/Users/jmrey/OneDrive/Desktop/Programmin Stuff/Projects/conversation-simulator/resources/videos/Scene - Puppet man_0003/Scene - Puppet man_0003.371.png</pathurl>
                      <rate>
                        <timebase>24</timebase>
                        <ntsc>FALSE</ntsc>
                      </rate>
                      <duration>720</duration>
                      <timecode>
                        <rate>
                          <timebase>24</timebase>
                          <ntsc>FALSE</ntsc>
                        </rate>
                      </timecode>
                      <media>
                        <video>
                          <duration>1</duration>
                          <samplecharacteristics>
                            <anamorphic>FALSE</anamorphic>
                            <pixelaspectratio>square</pixelaspectratio>
                            <fielddominance>none</fielddominance>
                            <width>1920</width>
                            <height>1080</height>
                          </samplecharacteristics>
                        </video>
                      </media>
                    </file>
                  </clipitem>
                </track>
              </video>
            </media>
          </clip>
          <clip explodedTracks="true" frameBlend="FALSE" id="masterclip-374">
            <uuid>5b711db3-b5ca-43cf-acec-7aeff6084268</uuid>
            <masterclipid>masterclip-374</masterclipid>
            <ismasterclip>TRUE</ismasterclip>
            <duration>720</duration>
            <in>0</in>
            <out>720</out>
            <name>Scene - Puppet man_0003.372.png</name>
            <rate>
              <timebase>24</timebase>
              <ntsc>FALSE</ntsc>
            </rate>
            <media>
              <video>
                <track>
                  <clipitem frameBlend="FALSE" id="clipitem-375">
                    <name>Scene - Puppet man_0003.372.png</name>
                    <masterclipid>masterclip-374</masterclipid>
                    <rate>
                      <timebase>24</timebase>
                      <ntsc>FALSE</ntsc>
                    </rate>
                    <alphatype>straight</alphatype>
                    <pixelaspectratio>square</pixelaspectratio>
                    <anamorphic>FALSE</anamorphic>
                    <file id="file-374">
                      <name>Scene - Puppet man_0003.372.png</name>
                      <pathurl>file://localhost/C:/Users/jmrey/OneDrive/Desktop/Programmin Stuff/Projects/conversation-simulator/resources/videos/Scene - Puppet man_0003/Scene - Puppet man_0003.372.png</pathurl>
                      <rate>
                        <timebase>24</timebase>
                        <ntsc>FALSE</ntsc>
                      </rate>
                      <duration>720</duration>
                      <timecode>
                        <rate>
                          <timebase>24</timebase>
                          <ntsc>FALSE</ntsc>
                        </rate>
                      </timecode>
                      <media>
                        <video>
                          <duration>1</duration>
                          <samplecharacteristics>
                            <anamorphic>FALSE</anamorphic>
                            <pixelaspectratio>square</pixelaspectratio>
                            <fielddominance>none</fielddominance>
                            <width>1920</width>
                            <height>1080</height>
                          </samplecharacteristics>
                        </video>
                      </media>
                    </file>
                  </clipitem>
                </track>
              </video>
            </media>
          </clip>
          <clip explodedTracks="true" frameBlend="FALSE" id="masterclip-375">
            <uuid>315d199a-2c50-4d39-a37d-bc96acbbef37</uuid>
            <masterclipid>masterclip-375</masterclipid>
            <ismasterclip>TRUE</ismasterclip>
            <duration>720</duration>
            <in>0</in>
            <out>720</out>
            <name>Scene - Puppet man_0003.373.png</name>
            <rate>
              <timebase>24</timebase>
              <ntsc>FALSE</ntsc>
            </rate>
            <media>
              <video>
                <track>
                  <clipitem frameBlend="FALSE" id="clipitem-376">
                    <name>Scene - Puppet man_0003.373.png</name>
                    <masterclipid>masterclip-375</masterclipid>
                    <rate>
                      <timebase>24</timebase>
                      <ntsc>FALSE</ntsc>
                    </rate>
                    <alphatype>straight</alphatype>
                    <pixelaspectratio>square</pixelaspectratio>
                    <anamorphic>FALSE</anamorphic>
                    <file id="file-375">
                      <name>Scene - Puppet man_0003.373.png</name>
                      <pathurl>file://localhost/C:/Users/jmrey/OneDrive/Desktop/Programmin Stuff/Projects/conversation-simulator/resources/videos/Scene - Puppet man_0003/Scene - Puppet man_0003.373.png</pathurl>
                      <rate>
                        <timebase>24</timebase>
                        <ntsc>FALSE</ntsc>
                      </rate>
                      <duration>720</duration>
                      <timecode>
                        <rate>
                          <timebase>24</timebase>
                          <ntsc>FALSE</ntsc>
                        </rate>
                      </timecode>
                      <media>
                        <video>
                          <duration>1</duration>
                          <samplecharacteristics>
                            <anamorphic>FALSE</anamorphic>
                            <pixelaspectratio>square</pixelaspectratio>
                            <fielddominance>none</fielddominance>
                            <width>1920</width>
                            <height>1080</height>
                          </samplecharacteristics>
                        </video>
                      </media>
                    </file>
                  </clipitem>
                </track>
              </video>
            </media>
          </clip>
          <clip explodedTracks="true" frameBlend="FALSE" id="masterclip-376">
            <uuid>3fec4859-2a6d-4309-bc4f-d94dfb6c61bb</uuid>
            <masterclipid>masterclip-376</masterclipid>
            <ismasterclip>TRUE</ismasterclip>
            <duration>720</duration>
            <in>0</in>
            <out>720</out>
            <name>Scene - Puppet man_0003.374.png</name>
            <rate>
              <timebase>24</timebase>
              <ntsc>FALSE</ntsc>
            </rate>
            <media>
              <video>
                <track>
                  <clipitem frameBlend="FALSE" id="clipitem-377">
                    <name>Scene - Puppet man_0003.374.png</name>
                    <masterclipid>masterclip-376</masterclipid>
                    <rate>
                      <timebase>24</timebase>
                      <ntsc>FALSE</ntsc>
                    </rate>
                    <alphatype>straight</alphatype>
                    <pixelaspectratio>square</pixelaspectratio>
                    <anamorphic>FALSE</anamorphic>
                    <file id="file-376">
                      <name>Scene - Puppet man_0003.374.png</name>
                      <pathurl>file://localhost/C:/Users/jmrey/OneDrive/Desktop/Programmin Stuff/Projects/conversation-simulator/resources/videos/Scene - Puppet man_0003/Scene - Puppet man_0003.374.png</pathurl>
                      <rate>
                        <timebase>24</timebase>
                        <ntsc>FALSE</ntsc>
                      </rate>
                      <duration>720</duration>
                      <timecode>
                        <rate>
                          <timebase>24</timebase>
                          <ntsc>FALSE</ntsc>
                        </rate>
                      </timecode>
                      <media>
                        <video>
                          <duration>1</duration>
                          <samplecharacteristics>
                            <anamorphic>FALSE</anamorphic>
                            <pixelaspectratio>square</pixelaspectratio>
                            <fielddominance>none</fielddominance>
                            <width>1920</width>
                            <height>1080</height>
                          </samplecharacteristics>
                        </video>
                      </media>
                    </file>
                  </clipitem>
                </track>
              </video>
            </media>
          </clip>
          <clip explodedTracks="true" frameBlend="FALSE" id="masterclip-377">
            <uuid>62fe4a17-1a4c-46d6-8908-545f25846538</uuid>
            <masterclipid>masterclip-377</masterclipid>
            <ismasterclip>TRUE</ismasterclip>
            <duration>720</duration>
            <in>0</in>
            <out>720</out>
            <name>Scene - Puppet man_0003.375.png</name>
            <rate>
              <timebase>24</timebase>
              <ntsc>FALSE</ntsc>
            </rate>
            <media>
              <video>
                <track>
                  <clipitem frameBlend="FALSE" id="clipitem-378">
                    <name>Scene - Puppet man_0003.375.png</name>
                    <masterclipid>masterclip-377</masterclipid>
                    <rate>
                      <timebase>24</timebase>
                      <ntsc>FALSE</ntsc>
                    </rate>
                    <alphatype>straight</alphatype>
                    <pixelaspectratio>square</pixelaspectratio>
                    <anamorphic>FALSE</anamorphic>
                    <file id="file-377">
                      <name>Scene - Puppet man_0003.375.png</name>
                      <pathurl>file://localhost/C:/Users/jmrey/OneDrive/Desktop/Programmin Stuff/Projects/conversation-simulator/resources/videos/Scene - Puppet man_0003/Scene - Puppet man_0003.375.png</pathurl>
                      <rate>
                        <timebase>24</timebase>
                        <ntsc>FALSE</ntsc>
                      </rate>
                      <duration>720</duration>
                      <timecode>
                        <rate>
                          <timebase>24</timebase>
                          <ntsc>FALSE</ntsc>
                        </rate>
                      </timecode>
                      <media>
                        <video>
                          <duration>1</duration>
                          <samplecharacteristics>
                            <anamorphic>FALSE</anamorphic>
                            <pixelaspectratio>square</pixelaspectratio>
                            <fielddominance>none</fielddominance>
                            <width>1920</width>
                            <height>1080</height>
                          </samplecharacteristics>
                        </video>
                      </media>
                    </file>
                  </clipitem>
                </track>
              </video>
            </media>
          </clip>
          <clip explodedTracks="true" frameBlend="FALSE" id="masterclip-378">
            <uuid>647a5929-08c2-45b6-9ecd-7c61c8ff3c35</uuid>
            <masterclipid>masterclip-378</masterclipid>
            <ismasterclip>TRUE</ismasterclip>
            <duration>720</duration>
            <in>0</in>
            <out>720</out>
            <name>Scene - Puppet man_0003.376.png</name>
            <rate>
              <timebase>24</timebase>
              <ntsc>FALSE</ntsc>
            </rate>
            <media>
              <video>
                <track>
                  <clipitem frameBlend="FALSE" id="clipitem-379">
                    <name>Scene - Puppet man_0003.376.png</name>
                    <masterclipid>masterclip-378</masterclipid>
                    <rate>
                      <timebase>24</timebase>
                      <ntsc>FALSE</ntsc>
                    </rate>
                    <alphatype>straight</alphatype>
                    <pixelaspectratio>square</pixelaspectratio>
                    <anamorphic>FALSE</anamorphic>
                    <file id="file-378">
                      <name>Scene - Puppet man_0003.376.png</name>
                      <pathurl>file://localhost/C:/Users/jmrey/OneDrive/Desktop/Programmin Stuff/Projects/conversation-simulator/resources/videos/Scene - Puppet man_0003/Scene - Puppet man_0003.376.png</pathurl>
                      <rate>
                        <timebase>24</timebase>
                        <ntsc>FALSE</ntsc>
                      </rate>
                      <duration>720</duration>
                      <timecode>
                        <rate>
                          <timebase>24</timebase>
                          <ntsc>FALSE</ntsc>
                        </rate>
                      </timecode>
                      <media>
                        <video>
                          <duration>1</duration>
                          <samplecharacteristics>
                            <anamorphic>FALSE</anamorphic>
                            <pixelaspectratio>square</pixelaspectratio>
                            <fielddominance>none</fielddominance>
                            <width>1920</width>
                            <height>1080</height>
                          </samplecharacteristics>
                        </video>
                      </media>
                    </file>
                  </clipitem>
                </track>
              </video>
            </media>
          </clip>
          <clip explodedTracks="true" frameBlend="FALSE" id="masterclip-379">
            <uuid>f085f815-398f-4575-abf5-cd55cc1f7b22</uuid>
            <masterclipid>masterclip-379</masterclipid>
            <ismasterclip>TRUE</ismasterclip>
            <duration>720</duration>
            <in>0</in>
            <out>720</out>
            <name>Scene - Puppet man_0003.377.png</name>
            <rate>
              <timebase>24</timebase>
              <ntsc>FALSE</ntsc>
            </rate>
            <media>
              <video>
                <track>
                  <clipitem frameBlend="FALSE" id="clipitem-380">
                    <name>Scene - Puppet man_0003.377.png</name>
                    <masterclipid>masterclip-379</masterclipid>
                    <rate>
                      <timebase>24</timebase>
                      <ntsc>FALSE</ntsc>
                    </rate>
                    <alphatype>straight</alphatype>
                    <pixelaspectratio>square</pixelaspectratio>
                    <anamorphic>FALSE</anamorphic>
                    <file id="file-379">
                      <name>Scene - Puppet man_0003.377.png</name>
                      <pathurl>file://localhost/C:/Users/jmrey/OneDrive/Desktop/Programmin Stuff/Projects/conversation-simulator/resources/videos/Scene - Puppet man_0003/Scene - Puppet man_0003.377.png</pathurl>
                      <rate>
                        <timebase>24</timebase>
                        <ntsc>FALSE</ntsc>
                      </rate>
                      <duration>720</duration>
                      <timecode>
                        <rate>
                          <timebase>24</timebase>
                          <ntsc>FALSE</ntsc>
                        </rate>
                      </timecode>
                      <media>
                        <video>
                          <duration>1</duration>
                          <samplecharacteristics>
                            <anamorphic>FALSE</anamorphic>
                            <pixelaspectratio>square</pixelaspectratio>
                            <fielddominance>none</fielddominance>
                            <width>1920</width>
                            <height>1080</height>
                          </samplecharacteristics>
                        </video>
                      </media>
                    </file>
                  </clipitem>
                </track>
              </video>
            </media>
          </clip>
          <clip explodedTracks="true" frameBlend="FALSE" id="masterclip-380">
            <uuid>cbeab434-bda2-46f4-a568-9694640cc4c0</uuid>
            <masterclipid>masterclip-380</masterclipid>
            <ismasterclip>TRUE</ismasterclip>
            <duration>720</duration>
            <in>0</in>
            <out>720</out>
            <name>Scene - Puppet man_0003.378.png</name>
            <rate>
              <timebase>24</timebase>
              <ntsc>FALSE</ntsc>
            </rate>
            <media>
              <video>
                <track>
                  <clipitem frameBlend="FALSE" id="clipitem-381">
                    <name>Scene - Puppet man_0003.378.png</name>
                    <masterclipid>masterclip-380</masterclipid>
                    <rate>
                      <timebase>24</timebase>
                      <ntsc>FALSE</ntsc>
                    </rate>
                    <alphatype>straight</alphatype>
                    <pixelaspectratio>square</pixelaspectratio>
                    <anamorphic>FALSE</anamorphic>
                    <file id="file-380">
                      <name>Scene - Puppet man_0003.378.png</name>
                      <pathurl>file://localhost/C:/Users/jmrey/OneDrive/Desktop/Programmin Stuff/Projects/conversation-simulator/resources/videos/Scene - Puppet man_0003/Scene - Puppet man_0003.378.png</pathurl>
                      <rate>
                        <timebase>24</timebase>
                        <ntsc>FALSE</ntsc>
                      </rate>
                      <duration>720</duration>
                      <timecode>
                        <rate>
                          <timebase>24</timebase>
                          <ntsc>FALSE</ntsc>
                        </rate>
                      </timecode>
                      <media>
                        <video>
                          <duration>1</duration>
                          <samplecharacteristics>
                            <anamorphic>FALSE</anamorphic>
                            <pixelaspectratio>square</pixelaspectratio>
                            <fielddominance>none</fielddominance>
                            <width>1920</width>
                            <height>1080</height>
                          </samplecharacteristics>
                        </video>
                      </media>
                    </file>
                  </clipitem>
                </track>
              </video>
            </media>
          </clip>
          <clip explodedTracks="true" frameBlend="FALSE" id="masterclip-381">
            <uuid>1c4f9d07-8dda-41eb-8a96-d3403bcb6d8d</uuid>
            <masterclipid>masterclip-381</masterclipid>
            <ismasterclip>TRUE</ismasterclip>
            <duration>720</duration>
            <in>0</in>
            <out>720</out>
            <name>Scene - Puppet man_0003.379.png</name>
            <rate>
              <timebase>24</timebase>
              <ntsc>FALSE</ntsc>
            </rate>
            <media>
              <video>
                <track>
                  <clipitem frameBlend="FALSE" id="clipitem-382">
                    <name>Scene - Puppet man_0003.379.png</name>
                    <masterclipid>masterclip-381</masterclipid>
                    <rate>
                      <timebase>24</timebase>
                      <ntsc>FALSE</ntsc>
                    </rate>
                    <alphatype>straight</alphatype>
                    <pixelaspectratio>square</pixelaspectratio>
                    <anamorphic>FALSE</anamorphic>
                    <file id="file-381">
                      <name>Scene - Puppet man_0003.379.png</name>
                      <pathurl>file://localhost/C:/Users/jmrey/OneDrive/Desktop/Programmin Stuff/Projects/conversation-simulator/resources/videos/Scene - Puppet man_0003/Scene - Puppet man_0003.379.png</pathurl>
                      <rate>
                        <timebase>24</timebase>
                        <ntsc>FALSE</ntsc>
                      </rate>
                      <duration>720</duration>
                      <timecode>
                        <rate>
                          <timebase>24</timebase>
                          <ntsc>FALSE</ntsc>
                        </rate>
                      </timecode>
                      <media>
                        <video>
                          <duration>1</duration>
                          <samplecharacteristics>
                            <anamorphic>FALSE</anamorphic>
                            <pixelaspectratio>square</pixelaspectratio>
                            <fielddominance>none</fielddominance>
                            <width>1920</width>
                            <height>1080</height>
                          </samplecharacteristics>
                        </video>
                      </media>
                    </file>
                  </clipitem>
                </track>
              </video>
            </media>
          </clip>
          <clip explodedTracks="true" frameBlend="FALSE" id="masterclip-382">
            <uuid>94dd6a82-01d5-4602-8968-a461dc294bfa</uuid>
            <masterclipid>masterclip-382</masterclipid>
            <ismasterclip>TRUE</ismasterclip>
            <duration>720</duration>
            <in>0</in>
            <out>720</out>
            <name>Scene - Puppet man_0003.380.png</name>
            <rate>
              <timebase>24</timebase>
              <ntsc>FALSE</ntsc>
            </rate>
            <media>
              <video>
                <track>
                  <clipitem frameBlend="FALSE" id="clipitem-383">
                    <name>Scene - Puppet man_0003.380.png</name>
                    <masterclipid>masterclip-382</masterclipid>
                    <rate>
                      <timebase>24</timebase>
                      <ntsc>FALSE</ntsc>
                    </rate>
                    <alphatype>straight</alphatype>
                    <pixelaspectratio>square</pixelaspectratio>
                    <anamorphic>FALSE</anamorphic>
                    <file id="file-382">
                      <name>Scene - Puppet man_0003.380.png</name>
                      <pathurl>file://localhost/C:/Users/jmrey/OneDrive/Desktop/Programmin Stuff/Projects/conversation-simulator/resources/videos/Scene - Puppet man_0003/Scene - Puppet man_0003.380.png</pathurl>
                      <rate>
                        <timebase>24</timebase>
                        <ntsc>FALSE</ntsc>
                      </rate>
                      <duration>720</duration>
                      <timecode>
                        <rate>
                          <timebase>24</timebase>
                          <ntsc>FALSE</ntsc>
                        </rate>
                      </timecode>
                      <media>
                        <video>
                          <duration>1</duration>
                          <samplecharacteristics>
                            <anamorphic>FALSE</anamorphic>
                            <pixelaspectratio>square</pixelaspectratio>
                            <fielddominance>none</fielddominance>
                            <width>1920</width>
                            <height>1080</height>
                          </samplecharacteristics>
                        </video>
                      </media>
                    </file>
                  </clipitem>
                </track>
              </video>
            </media>
          </clip>
          <clip explodedTracks="true" frameBlend="FALSE" id="masterclip-383">
            <uuid>49bf20cd-88ff-409d-bdb6-48ffb199fcbb</uuid>
            <masterclipid>masterclip-383</masterclipid>
            <ismasterclip>TRUE</ismasterclip>
            <duration>720</duration>
            <in>0</in>
            <out>720</out>
            <name>Scene - Puppet man_0003.381.png</name>
            <rate>
              <timebase>24</timebase>
              <ntsc>FALSE</ntsc>
            </rate>
            <media>
              <video>
                <track>
                  <clipitem frameBlend="FALSE" id="clipitem-384">
                    <name>Scene - Puppet man_0003.381.png</name>
                    <masterclipid>masterclip-383</masterclipid>
                    <rate>
                      <timebase>24</timebase>
                      <ntsc>FALSE</ntsc>
                    </rate>
                    <alphatype>straight</alphatype>
                    <pixelaspectratio>square</pixelaspectratio>
                    <anamorphic>FALSE</anamorphic>
                    <file id="file-383">
                      <name>Scene - Puppet man_0003.381.png</name>
                      <pathurl>file://localhost/C:/Users/jmrey/OneDrive/Desktop/Programmin Stuff/Projects/conversation-simulator/resources/videos/Scene - Puppet man_0003/Scene - Puppet man_0003.381.png</pathurl>
                      <rate>
                        <timebase>24</timebase>
                        <ntsc>FALSE</ntsc>
                      </rate>
                      <duration>720</duration>
                      <timecode>
                        <rate>
                          <timebase>24</timebase>
                          <ntsc>FALSE</ntsc>
                        </rate>
                      </timecode>
                      <media>
                        <video>
                          <duration>1</duration>
                          <samplecharacteristics>
                            <anamorphic>FALSE</anamorphic>
                            <pixelaspectratio>square</pixelaspectratio>
                            <fielddominance>none</fielddominance>
                            <width>1920</width>
                            <height>1080</height>
                          </samplecharacteristics>
                        </video>
                      </media>
                    </file>
                  </clipitem>
                </track>
              </video>
            </media>
          </clip>
          <clip explodedTracks="true" frameBlend="FALSE" id="masterclip-384">
            <uuid>dd7f0694-dc5e-4e12-bc68-e4b9db790ba1</uuid>
            <masterclipid>masterclip-384</masterclipid>
            <ismasterclip>TRUE</ismasterclip>
            <duration>720</duration>
            <in>0</in>
            <out>720</out>
            <name>Scene - Puppet man_0003.382.png</name>
            <rate>
              <timebase>24</timebase>
              <ntsc>FALSE</ntsc>
            </rate>
            <media>
              <video>
                <track>
                  <clipitem frameBlend="FALSE" id="clipitem-385">
                    <name>Scene - Puppet man_0003.382.png</name>
                    <masterclipid>masterclip-384</masterclipid>
                    <rate>
                      <timebase>24</timebase>
                      <ntsc>FALSE</ntsc>
                    </rate>
                    <alphatype>straight</alphatype>
                    <pixelaspectratio>square</pixelaspectratio>
                    <anamorphic>FALSE</anamorphic>
                    <file id="file-384">
                      <name>Scene - Puppet man_0003.382.png</name>
                      <pathurl>file://localhost/C:/Users/jmrey/OneDrive/Desktop/Programmin Stuff/Projects/conversation-simulator/resources/videos/Scene - Puppet man_0003/Scene - Puppet man_0003.382.png</pathurl>
                      <rate>
                        <timebase>24</timebase>
                        <ntsc>FALSE</ntsc>
                      </rate>
                      <duration>720</duration>
                      <timecode>
                        <rate>
                          <timebase>24</timebase>
                          <ntsc>FALSE</ntsc>
                        </rate>
                      </timecode>
                      <media>
                        <video>
                          <duration>1</duration>
                          <samplecharacteristics>
                            <anamorphic>FALSE</anamorphic>
                            <pixelaspectratio>square</pixelaspectratio>
                            <fielddominance>none</fielddominance>
                            <width>1920</width>
                            <height>1080</height>
                          </samplecharacteristics>
                        </video>
                      </media>
                    </file>
                  </clipitem>
                </track>
              </video>
            </media>
          </clip>
          <clip explodedTracks="true" frameBlend="FALSE" id="masterclip-385">
            <uuid>f2c8d2ed-4957-4480-8a7a-696f21daa88f</uuid>
            <masterclipid>masterclip-385</masterclipid>
            <ismasterclip>TRUE</ismasterclip>
            <duration>720</duration>
            <in>0</in>
            <out>720</out>
            <name>Scene - Puppet man_0003.383.png</name>
            <rate>
              <timebase>24</timebase>
              <ntsc>FALSE</ntsc>
            </rate>
            <media>
              <video>
                <track>
                  <clipitem frameBlend="FALSE" id="clipitem-386">
                    <name>Scene - Puppet man_0003.383.png</name>
                    <masterclipid>masterclip-385</masterclipid>
                    <rate>
                      <timebase>24</timebase>
                      <ntsc>FALSE</ntsc>
                    </rate>
                    <alphatype>straight</alphatype>
                    <pixelaspectratio>square</pixelaspectratio>
                    <anamorphic>FALSE</anamorphic>
                    <file id="file-385">
                      <name>Scene - Puppet man_0003.383.png</name>
                      <pathurl>file://localhost/C:/Users/jmrey/OneDrive/Desktop/Programmin Stuff/Projects/conversation-simulator/resources/videos/Scene - Puppet man_0003/Scene - Puppet man_0003.383.png</pathurl>
                      <rate>
                        <timebase>24</timebase>
                        <ntsc>FALSE</ntsc>
                      </rate>
                      <duration>720</duration>
                      <timecode>
                        <rate>
                          <timebase>24</timebase>
                          <ntsc>FALSE</ntsc>
                        </rate>
                      </timecode>
                      <media>
                        <video>
                          <duration>1</duration>
                          <samplecharacteristics>
                            <anamorphic>FALSE</anamorphic>
                            <pixelaspectratio>square</pixelaspectratio>
                            <fielddominance>none</fielddominance>
                            <width>1920</width>
                            <height>1080</height>
                          </samplecharacteristics>
                        </video>
                      </media>
                    </file>
                  </clipitem>
                </track>
              </video>
            </media>
          </clip>
          <clip explodedTracks="true" frameBlend="FALSE" id="masterclip-386">
            <uuid>7ae1d411-3a4f-40ff-8cc5-4df9eceea44e</uuid>
            <masterclipid>masterclip-386</masterclipid>
            <ismasterclip>TRUE</ismasterclip>
            <duration>720</duration>
            <in>0</in>
            <out>720</out>
            <name>Scene - Puppet man_0003.384.png</name>
            <rate>
              <timebase>24</timebase>
              <ntsc>FALSE</ntsc>
            </rate>
            <media>
              <video>
                <track>
                  <clipitem frameBlend="FALSE" id="clipitem-387">
                    <name>Scene - Puppet man_0003.384.png</name>
                    <masterclipid>masterclip-386</masterclipid>
                    <rate>
                      <timebase>24</timebase>
                      <ntsc>FALSE</ntsc>
                    </rate>
                    <alphatype>straight</alphatype>
                    <pixelaspectratio>square</pixelaspectratio>
                    <anamorphic>FALSE</anamorphic>
                    <file id="file-386">
                      <name>Scene - Puppet man_0003.384.png</name>
                      <pathurl>file://localhost/C:/Users/jmrey/OneDrive/Desktop/Programmin Stuff/Projects/conversation-simulator/resources/videos/Scene - Puppet man_0003/Scene - Puppet man_0003.384.png</pathurl>
                      <rate>
                        <timebase>24</timebase>
                        <ntsc>FALSE</ntsc>
                      </rate>
                      <duration>720</duration>
                      <timecode>
                        <rate>
                          <timebase>24</timebase>
                          <ntsc>FALSE</ntsc>
                        </rate>
                      </timecode>
                      <media>
                        <video>
                          <duration>1</duration>
                          <samplecharacteristics>
                            <anamorphic>FALSE</anamorphic>
                            <pixelaspectratio>square</pixelaspectratio>
                            <fielddominance>none</fielddominance>
                            <width>1920</width>
                            <height>1080</height>
                          </samplecharacteristics>
                        </video>
                      </media>
                    </file>
                  </clipitem>
                </track>
              </video>
            </media>
          </clip>
          <clip explodedTracks="true" frameBlend="FALSE" id="masterclip-387">
            <uuid>b6e0fae0-b314-47da-8caa-dc6a441f448d</uuid>
            <masterclipid>masterclip-387</masterclipid>
            <ismasterclip>TRUE</ismasterclip>
            <duration>720</duration>
            <in>0</in>
            <out>720</out>
            <name>Scene - Puppet man_0003.385.png</name>
            <rate>
              <timebase>24</timebase>
              <ntsc>FALSE</ntsc>
            </rate>
            <media>
              <video>
                <track>
                  <clipitem frameBlend="FALSE" id="clipitem-388">
                    <name>Scene - Puppet man_0003.385.png</name>
                    <masterclipid>masterclip-387</masterclipid>
                    <rate>
                      <timebase>24</timebase>
                      <ntsc>FALSE</ntsc>
                    </rate>
                    <alphatype>straight</alphatype>
                    <pixelaspectratio>square</pixelaspectratio>
                    <anamorphic>FALSE</anamorphic>
                    <file id="file-387">
                      <name>Scene - Puppet man_0003.385.png</name>
                      <pathurl>file://localhost/C:/Users/jmrey/OneDrive/Desktop/Programmin Stuff/Projects/conversation-simulator/resources/videos/Scene - Puppet man_0003/Scene - Puppet man_0003.385.png</pathurl>
                      <rate>
                        <timebase>24</timebase>
                        <ntsc>FALSE</ntsc>
                      </rate>
                      <duration>720</duration>
                      <timecode>
                        <rate>
                          <timebase>24</timebase>
                          <ntsc>FALSE</ntsc>
                        </rate>
                      </timecode>
                      <media>
                        <video>
                          <duration>1</duration>
                          <samplecharacteristics>
                            <anamorphic>FALSE</anamorphic>
                            <pixelaspectratio>square</pixelaspectratio>
                            <fielddominance>none</fielddominance>
                            <width>1920</width>
                            <height>1080</height>
                          </samplecharacteristics>
                        </video>
                      </media>
                    </file>
                  </clipitem>
                </track>
              </video>
            </media>
          </clip>
          <clip explodedTracks="true" frameBlend="FALSE" id="masterclip-388">
            <uuid>a8530bd8-5565-4170-8a7c-485ffc4ab7af</uuid>
            <masterclipid>masterclip-388</masterclipid>
            <ismasterclip>TRUE</ismasterclip>
            <duration>720</duration>
            <in>0</in>
            <out>720</out>
            <name>Scene - Puppet man_0003.386.png</name>
            <rate>
              <timebase>24</timebase>
              <ntsc>FALSE</ntsc>
            </rate>
            <media>
              <video>
                <track>
                  <clipitem frameBlend="FALSE" id="clipitem-389">
                    <name>Scene - Puppet man_0003.386.png</name>
                    <masterclipid>masterclip-388</masterclipid>
                    <rate>
                      <timebase>24</timebase>
                      <ntsc>FALSE</ntsc>
                    </rate>
                    <alphatype>straight</alphatype>
                    <pixelaspectratio>square</pixelaspectratio>
                    <anamorphic>FALSE</anamorphic>
                    <file id="file-388">
                      <name>Scene - Puppet man_0003.386.png</name>
                      <pathurl>file://localhost/C:/Users/jmrey/OneDrive/Desktop/Programmin Stuff/Projects/conversation-simulator/resources/videos/Scene - Puppet man_0003/Scene - Puppet man_0003.386.png</pathurl>
                      <rate>
                        <timebase>24</timebase>
                        <ntsc>FALSE</ntsc>
                      </rate>
                      <duration>720</duration>
                      <timecode>
                        <rate>
                          <timebase>24</timebase>
                          <ntsc>FALSE</ntsc>
                        </rate>
                      </timecode>
                      <media>
                        <video>
                          <duration>1</duration>
                          <samplecharacteristics>
                            <anamorphic>FALSE</anamorphic>
                            <pixelaspectratio>square</pixelaspectratio>
                            <fielddominance>none</fielddominance>
                            <width>1920</width>
                            <height>1080</height>
                          </samplecharacteristics>
                        </video>
                      </media>
                    </file>
                  </clipitem>
                </track>
              </video>
            </media>
          </clip>
          <clip explodedTracks="true" frameBlend="FALSE" id="masterclip-389">
            <uuid>258809da-786e-4e48-9bcc-b2cf2a19f006</uuid>
            <masterclipid>masterclip-389</masterclipid>
            <ismasterclip>TRUE</ismasterclip>
            <duration>720</duration>
            <in>0</in>
            <out>720</out>
            <name>Scene - Puppet man_0003.387.png</name>
            <rate>
              <timebase>24</timebase>
              <ntsc>FALSE</ntsc>
            </rate>
            <media>
              <video>
                <track>
                  <clipitem frameBlend="FALSE" id="clipitem-390">
                    <name>Scene - Puppet man_0003.387.png</name>
                    <masterclipid>masterclip-389</masterclipid>
                    <rate>
                      <timebase>24</timebase>
                      <ntsc>FALSE</ntsc>
                    </rate>
                    <alphatype>straight</alphatype>
                    <pixelaspectratio>square</pixelaspectratio>
                    <anamorphic>FALSE</anamorphic>
                    <file id="file-389">
                      <name>Scene - Puppet man_0003.387.png</name>
                      <pathurl>file://localhost/C:/Users/jmrey/OneDrive/Desktop/Programmin Stuff/Projects/conversation-simulator/resources/videos/Scene - Puppet man_0003/Scene - Puppet man_0003.387.png</pathurl>
                      <rate>
                        <timebase>24</timebase>
                        <ntsc>FALSE</ntsc>
                      </rate>
                      <duration>720</duration>
                      <timecode>
                        <rate>
                          <timebase>24</timebase>
                          <ntsc>FALSE</ntsc>
                        </rate>
                      </timecode>
                      <media>
                        <video>
                          <duration>1</duration>
                          <samplecharacteristics>
                            <anamorphic>FALSE</anamorphic>
                            <pixelaspectratio>square</pixelaspectratio>
                            <fielddominance>none</fielddominance>
                            <width>1920</width>
                            <height>1080</height>
                          </samplecharacteristics>
                        </video>
                      </media>
                    </file>
                  </clipitem>
                </track>
              </video>
            </media>
          </clip>
          <clip explodedTracks="true" frameBlend="FALSE" id="masterclip-390">
            <uuid>0768d96d-ae63-46e8-bb95-c33b8837fdf3</uuid>
            <masterclipid>masterclip-390</masterclipid>
            <ismasterclip>TRUE</ismasterclip>
            <duration>720</duration>
            <in>0</in>
            <out>720</out>
            <name>Scene - Puppet man_0003.388.png</name>
            <rate>
              <timebase>24</timebase>
              <ntsc>FALSE</ntsc>
            </rate>
            <media>
              <video>
                <track>
                  <clipitem frameBlend="FALSE" id="clipitem-391">
                    <name>Scene - Puppet man_0003.388.png</name>
                    <masterclipid>masterclip-390</masterclipid>
                    <rate>
                      <timebase>24</timebase>
                      <ntsc>FALSE</ntsc>
                    </rate>
                    <alphatype>straight</alphatype>
                    <pixelaspectratio>square</pixelaspectratio>
                    <anamorphic>FALSE</anamorphic>
                    <file id="file-390">
                      <name>Scene - Puppet man_0003.388.png</name>
                      <pathurl>file://localhost/C:/Users/jmrey/OneDrive/Desktop/Programmin Stuff/Projects/conversation-simulator/resources/videos/Scene - Puppet man_0003/Scene - Puppet man_0003.388.png</pathurl>
                      <rate>
                        <timebase>24</timebase>
                        <ntsc>FALSE</ntsc>
                      </rate>
                      <duration>720</duration>
                      <timecode>
                        <rate>
                          <timebase>24</timebase>
                          <ntsc>FALSE</ntsc>
                        </rate>
                      </timecode>
                      <media>
                        <video>
                          <duration>1</duration>
                          <samplecharacteristics>
                            <anamorphic>FALSE</anamorphic>
                            <pixelaspectratio>square</pixelaspectratio>
                            <fielddominance>none</fielddominance>
                            <width>1920</width>
                            <height>1080</height>
                          </samplecharacteristics>
                        </video>
                      </media>
                    </file>
                  </clipitem>
                </track>
              </video>
            </media>
          </clip>
          <clip explodedTracks="true" frameBlend="FALSE" id="masterclip-391">
            <uuid>3717766b-dd61-4416-b27d-602eafe709fd</uuid>
            <masterclipid>masterclip-391</masterclipid>
            <ismasterclip>TRUE</ismasterclip>
            <duration>720</duration>
            <in>0</in>
            <out>720</out>
            <name>Scene - Puppet man_0003.389.png</name>
            <rate>
              <timebase>24</timebase>
              <ntsc>FALSE</ntsc>
            </rate>
            <media>
              <video>
                <track>
                  <clipitem frameBlend="FALSE" id="clipitem-392">
                    <name>Scene - Puppet man_0003.389.png</name>
                    <masterclipid>masterclip-391</masterclipid>
                    <rate>
                      <timebase>24</timebase>
                      <ntsc>FALSE</ntsc>
                    </rate>
                    <alphatype>straight</alphatype>
                    <pixelaspectratio>square</pixelaspectratio>
                    <anamorphic>FALSE</anamorphic>
                    <file id="file-391">
                      <name>Scene - Puppet man_0003.389.png</name>
                      <pathurl>file://localhost/C:/Users/jmrey/OneDrive/Desktop/Programmin Stuff/Projects/conversation-simulator/resources/videos/Scene - Puppet man_0003/Scene - Puppet man_0003.389.png</pathurl>
                      <rate>
                        <timebase>24</timebase>
                        <ntsc>FALSE</ntsc>
                      </rate>
                      <duration>720</duration>
                      <timecode>
                        <rate>
                          <timebase>24</timebase>
                          <ntsc>FALSE</ntsc>
                        </rate>
                      </timecode>
                      <media>
                        <video>
                          <duration>1</duration>
                          <samplecharacteristics>
                            <anamorphic>FALSE</anamorphic>
                            <pixelaspectratio>square</pixelaspectratio>
                            <fielddominance>none</fielddominance>
                            <width>1920</width>
                            <height>1080</height>
                          </samplecharacteristics>
                        </video>
                      </media>
                    </file>
                  </clipitem>
                </track>
              </video>
            </media>
          </clip>
          <clip explodedTracks="true" frameBlend="FALSE" id="masterclip-392">
            <uuid>59b50f0d-b3b2-4efa-ac10-acd0fc4d08d0</uuid>
            <masterclipid>masterclip-392</masterclipid>
            <ismasterclip>TRUE</ismasterclip>
            <duration>720</duration>
            <in>0</in>
            <out>720</out>
            <name>Scene - Puppet man_0003.390.png</name>
            <rate>
              <timebase>24</timebase>
              <ntsc>FALSE</ntsc>
            </rate>
            <media>
              <video>
                <track>
                  <clipitem frameBlend="FALSE" id="clipitem-393">
                    <name>Scene - Puppet man_0003.390.png</name>
                    <masterclipid>masterclip-392</masterclipid>
                    <rate>
                      <timebase>24</timebase>
                      <ntsc>FALSE</ntsc>
                    </rate>
                    <alphatype>straight</alphatype>
                    <pixelaspectratio>square</pixelaspectratio>
                    <anamorphic>FALSE</anamorphic>
                    <file id="file-392">
                      <name>Scene - Puppet man_0003.390.png</name>
                      <pathurl>file://localhost/C:/Users/jmrey/OneDrive/Desktop/Programmin Stuff/Projects/conversation-simulator/resources/videos/Scene - Puppet man_0003/Scene - Puppet man_0003.390.png</pathurl>
                      <rate>
                        <timebase>24</timebase>
                        <ntsc>FALSE</ntsc>
                      </rate>
                      <duration>720</duration>
                      <timecode>
                        <rate>
                          <timebase>24</timebase>
                          <ntsc>FALSE</ntsc>
                        </rate>
                      </timecode>
                      <media>
                        <video>
                          <duration>1</duration>
                          <samplecharacteristics>
                            <anamorphic>FALSE</anamorphic>
                            <pixelaspectratio>square</pixelaspectratio>
                            <fielddominance>none</fielddominance>
                            <width>1920</width>
                            <height>1080</height>
                          </samplecharacteristics>
                        </video>
                      </media>
                    </file>
                  </clipitem>
                </track>
              </video>
            </media>
          </clip>
          <clip explodedTracks="true" frameBlend="FALSE" id="masterclip-393">
            <uuid>ee4613e0-e169-4bf2-b6f8-1c9add425fc4</uuid>
            <masterclipid>masterclip-393</masterclipid>
            <ismasterclip>TRUE</ismasterclip>
            <duration>720</duration>
            <in>0</in>
            <out>720</out>
            <name>Scene - Puppet man_0003.391.png</name>
            <rate>
              <timebase>24</timebase>
              <ntsc>FALSE</ntsc>
            </rate>
            <media>
              <video>
                <track>
                  <clipitem frameBlend="FALSE" id="clipitem-394">
                    <name>Scene - Puppet man_0003.391.png</name>
                    <masterclipid>masterclip-393</masterclipid>
                    <rate>
                      <timebase>24</timebase>
                      <ntsc>FALSE</ntsc>
                    </rate>
                    <alphatype>straight</alphatype>
                    <pixelaspectratio>square</pixelaspectratio>
                    <anamorphic>FALSE</anamorphic>
                    <file id="file-393">
                      <name>Scene - Puppet man_0003.391.png</name>
                      <pathurl>file://localhost/C:/Users/jmrey/OneDrive/Desktop/Programmin Stuff/Projects/conversation-simulator/resources/videos/Scene - Puppet man_0003/Scene - Puppet man_0003.391.png</pathurl>
                      <rate>
                        <timebase>24</timebase>
                        <ntsc>FALSE</ntsc>
                      </rate>
                      <duration>720</duration>
                      <timecode>
                        <rate>
                          <timebase>24</timebase>
                          <ntsc>FALSE</ntsc>
                        </rate>
                      </timecode>
                      <media>
                        <video>
                          <duration>1</duration>
                          <samplecharacteristics>
                            <anamorphic>FALSE</anamorphic>
                            <pixelaspectratio>square</pixelaspectratio>
                            <fielddominance>none</fielddominance>
                            <width>1920</width>
                            <height>1080</height>
                          </samplecharacteristics>
                        </video>
                      </media>
                    </file>
                  </clipitem>
                </track>
              </video>
            </media>
          </clip>
          <clip explodedTracks="true" frameBlend="FALSE" id="masterclip-394">
            <uuid>78c63628-d838-43ed-a6bb-ea4f27e43d65</uuid>
            <masterclipid>masterclip-394</masterclipid>
            <ismasterclip>TRUE</ismasterclip>
            <duration>720</duration>
            <in>0</in>
            <out>720</out>
            <name>Scene - Puppet man_0003.392.png</name>
            <rate>
              <timebase>24</timebase>
              <ntsc>FALSE</ntsc>
            </rate>
            <media>
              <video>
                <track>
                  <clipitem frameBlend="FALSE" id="clipitem-395">
                    <name>Scene - Puppet man_0003.392.png</name>
                    <masterclipid>masterclip-394</masterclipid>
                    <rate>
                      <timebase>24</timebase>
                      <ntsc>FALSE</ntsc>
                    </rate>
                    <alphatype>straight</alphatype>
                    <pixelaspectratio>square</pixelaspectratio>
                    <anamorphic>FALSE</anamorphic>
                    <file id="file-394">
                      <name>Scene - Puppet man_0003.392.png</name>
                      <pathurl>file://localhost/C:/Users/jmrey/OneDrive/Desktop/Programmin Stuff/Projects/conversation-simulator/resources/videos/Scene - Puppet man_0003/Scene - Puppet man_0003.392.png</pathurl>
                      <rate>
                        <timebase>24</timebase>
                        <ntsc>FALSE</ntsc>
                      </rate>
                      <duration>720</duration>
                      <timecode>
                        <rate>
                          <timebase>24</timebase>
                          <ntsc>FALSE</ntsc>
                        </rate>
                      </timecode>
                      <media>
                        <video>
                          <duration>1</duration>
                          <samplecharacteristics>
                            <anamorphic>FALSE</anamorphic>
                            <pixelaspectratio>square</pixelaspectratio>
                            <fielddominance>none</fielddominance>
                            <width>1920</width>
                            <height>1080</height>
                          </samplecharacteristics>
                        </video>
                      </media>
                    </file>
                  </clipitem>
                </track>
              </video>
            </media>
          </clip>
          <clip explodedTracks="true" frameBlend="FALSE" id="masterclip-395">
            <uuid>34a1bcae-2642-4b66-a6d9-df563f4dcffe</uuid>
            <masterclipid>masterclip-395</masterclipid>
            <ismasterclip>TRUE</ismasterclip>
            <duration>720</duration>
            <in>0</in>
            <out>720</out>
            <name>Scene - Puppet man_0003.393.png</name>
            <rate>
              <timebase>24</timebase>
              <ntsc>FALSE</ntsc>
            </rate>
            <media>
              <video>
                <track>
                  <clipitem frameBlend="FALSE" id="clipitem-396">
                    <name>Scene - Puppet man_0003.393.png</name>
                    <masterclipid>masterclip-395</masterclipid>
                    <rate>
                      <timebase>24</timebase>
                      <ntsc>FALSE</ntsc>
                    </rate>
                    <alphatype>straight</alphatype>
                    <pixelaspectratio>square</pixelaspectratio>
                    <anamorphic>FALSE</anamorphic>
                    <file id="file-395">
                      <name>Scene - Puppet man_0003.393.png</name>
                      <pathurl>file://localhost/C:/Users/jmrey/OneDrive/Desktop/Programmin Stuff/Projects/conversation-simulator/resources/videos/Scene - Puppet man_0003/Scene - Puppet man_0003.393.png</pathurl>
                      <rate>
                        <timebase>24</timebase>
                        <ntsc>FALSE</ntsc>
                      </rate>
                      <duration>720</duration>
                      <timecode>
                        <rate>
                          <timebase>24</timebase>
                          <ntsc>FALSE</ntsc>
                        </rate>
                      </timecode>
                      <media>
                        <video>
                          <duration>1</duration>
                          <samplecharacteristics>
                            <anamorphic>FALSE</anamorphic>
                            <pixelaspectratio>square</pixelaspectratio>
                            <fielddominance>none</fielddominance>
                            <width>1920</width>
                            <height>1080</height>
                          </samplecharacteristics>
                        </video>
                      </media>
                    </file>
                  </clipitem>
                </track>
              </video>
            </media>
          </clip>
          <clip explodedTracks="true" frameBlend="FALSE" id="masterclip-396">
            <uuid>e590fbc7-34c5-4329-b187-f391d9b14620</uuid>
            <masterclipid>masterclip-396</masterclipid>
            <ismasterclip>TRUE</ismasterclip>
            <duration>720</duration>
            <in>0</in>
            <out>720</out>
            <name>Scene - Puppet man_0003.394.png</name>
            <rate>
              <timebase>24</timebase>
              <ntsc>FALSE</ntsc>
            </rate>
            <media>
              <video>
                <track>
                  <clipitem frameBlend="FALSE" id="clipitem-397">
                    <name>Scene - Puppet man_0003.394.png</name>
                    <masterclipid>masterclip-396</masterclipid>
                    <rate>
                      <timebase>24</timebase>
                      <ntsc>FALSE</ntsc>
                    </rate>
                    <alphatype>straight</alphatype>
                    <pixelaspectratio>square</pixelaspectratio>
                    <anamorphic>FALSE</anamorphic>
                    <file id="file-396">
                      <name>Scene - Puppet man_0003.394.png</name>
                      <pathurl>file://localhost/C:/Users/jmrey/OneDrive/Desktop/Programmin Stuff/Projects/conversation-simulator/resources/videos/Scene - Puppet man_0003/Scene - Puppet man_0003.394.png</pathurl>
                      <rate>
                        <timebase>24</timebase>
                        <ntsc>FALSE</ntsc>
                      </rate>
                      <duration>720</duration>
                      <timecode>
                        <rate>
                          <timebase>24</timebase>
                          <ntsc>FALSE</ntsc>
                        </rate>
                      </timecode>
                      <media>
                        <video>
                          <duration>1</duration>
                          <samplecharacteristics>
                            <anamorphic>FALSE</anamorphic>
                            <pixelaspectratio>square</pixelaspectratio>
                            <fielddominance>none</fielddominance>
                            <width>1920</width>
                            <height>1080</height>
                          </samplecharacteristics>
                        </video>
                      </media>
                    </file>
                  </clipitem>
                </track>
              </video>
            </media>
          </clip>
          <clip explodedTracks="true" frameBlend="FALSE" id="masterclip-397">
            <uuid>9c937434-0d9b-45d8-a57e-35fcf2572460</uuid>
            <masterclipid>masterclip-397</masterclipid>
            <ismasterclip>TRUE</ismasterclip>
            <duration>720</duration>
            <in>0</in>
            <out>720</out>
            <name>Scene - Puppet man_0003.395.png</name>
            <rate>
              <timebase>24</timebase>
              <ntsc>FALSE</ntsc>
            </rate>
            <media>
              <video>
                <track>
                  <clipitem frameBlend="FALSE" id="clipitem-398">
                    <name>Scene - Puppet man_0003.395.png</name>
                    <masterclipid>masterclip-397</masterclipid>
                    <rate>
                      <timebase>24</timebase>
                      <ntsc>FALSE</ntsc>
                    </rate>
                    <alphatype>straight</alphatype>
                    <pixelaspectratio>square</pixelaspectratio>
                    <anamorphic>FALSE</anamorphic>
                    <file id="file-397">
                      <name>Scene - Puppet man_0003.395.png</name>
                      <pathurl>file://localhost/C:/Users/jmrey/OneDrive/Desktop/Programmin Stuff/Projects/conversation-simulator/resources/videos/Scene - Puppet man_0003/Scene - Puppet man_0003.395.png</pathurl>
                      <rate>
                        <timebase>24</timebase>
                        <ntsc>FALSE</ntsc>
                      </rate>
                      <duration>720</duration>
                      <timecode>
                        <rate>
                          <timebase>24</timebase>
                          <ntsc>FALSE</ntsc>
                        </rate>
                      </timecode>
                      <media>
                        <video>
                          <duration>1</duration>
                          <samplecharacteristics>
                            <anamorphic>FALSE</anamorphic>
                            <pixelaspectratio>square</pixelaspectratio>
                            <fielddominance>none</fielddominance>
                            <width>1920</width>
                            <height>1080</height>
                          </samplecharacteristics>
                        </video>
                      </media>
                    </file>
                  </clipitem>
                </track>
              </video>
            </media>
          </clip>
          <clip explodedTracks="true" frameBlend="FALSE" id="masterclip-398">
            <uuid>6ed9c9f5-33d3-4174-8187-096e017ffbde</uuid>
            <masterclipid>masterclip-398</masterclipid>
            <ismasterclip>TRUE</ismasterclip>
            <duration>720</duration>
            <in>0</in>
            <out>720</out>
            <name>Scene - Puppet man_0003.396.png</name>
            <rate>
              <timebase>24</timebase>
              <ntsc>FALSE</ntsc>
            </rate>
            <media>
              <video>
                <track>
                  <clipitem frameBlend="FALSE" id="clipitem-399">
                    <name>Scene - Puppet man_0003.396.png</name>
                    <masterclipid>masterclip-398</masterclipid>
                    <rate>
                      <timebase>24</timebase>
                      <ntsc>FALSE</ntsc>
                    </rate>
                    <alphatype>straight</alphatype>
                    <pixelaspectratio>square</pixelaspectratio>
                    <anamorphic>FALSE</anamorphic>
                    <file id="file-398">
                      <name>Scene - Puppet man_0003.396.png</name>
                      <pathurl>file://localhost/C:/Users/jmrey/OneDrive/Desktop/Programmin Stuff/Projects/conversation-simulator/resources/videos/Scene - Puppet man_0003/Scene - Puppet man_0003.396.png</pathurl>
                      <rate>
                        <timebase>24</timebase>
                        <ntsc>FALSE</ntsc>
                      </rate>
                      <duration>720</duration>
                      <timecode>
                        <rate>
                          <timebase>24</timebase>
                          <ntsc>FALSE</ntsc>
                        </rate>
                      </timecode>
                      <media>
                        <video>
                          <duration>1</duration>
                          <samplecharacteristics>
                            <anamorphic>FALSE</anamorphic>
                            <pixelaspectratio>square</pixelaspectratio>
                            <fielddominance>none</fielddominance>
                            <width>1920</width>
                            <height>1080</height>
                          </samplecharacteristics>
                        </video>
                      </media>
                    </file>
                  </clipitem>
                </track>
              </video>
            </media>
          </clip>
          <clip explodedTracks="true" frameBlend="FALSE" id="masterclip-399">
            <uuid>78285d61-8ba3-42ef-bb14-a0ccf0d43a9c</uuid>
            <masterclipid>masterclip-399</masterclipid>
            <ismasterclip>TRUE</ismasterclip>
            <duration>720</duration>
            <in>0</in>
            <out>720</out>
            <name>Scene - Puppet man_0003.397.png</name>
            <rate>
              <timebase>24</timebase>
              <ntsc>FALSE</ntsc>
            </rate>
            <media>
              <video>
                <track>
                  <clipitem frameBlend="FALSE" id="clipitem-400">
                    <name>Scene - Puppet man_0003.397.png</name>
                    <masterclipid>masterclip-399</masterclipid>
                    <rate>
                      <timebase>24</timebase>
                      <ntsc>FALSE</ntsc>
                    </rate>
                    <alphatype>straight</alphatype>
                    <pixelaspectratio>square</pixelaspectratio>
                    <anamorphic>FALSE</anamorphic>
                    <file id="file-399">
                      <name>Scene - Puppet man_0003.397.png</name>
                      <pathurl>file://localhost/C:/Users/jmrey/OneDrive/Desktop/Programmin Stuff/Projects/conversation-simulator/resources/videos/Scene - Puppet man_0003/Scene - Puppet man_0003.397.png</pathurl>
                      <rate>
                        <timebase>24</timebase>
                        <ntsc>FALSE</ntsc>
                      </rate>
                      <duration>720</duration>
                      <timecode>
                        <rate>
                          <timebase>24</timebase>
                          <ntsc>FALSE</ntsc>
                        </rate>
                      </timecode>
                      <media>
                        <video>
                          <duration>1</duration>
                          <samplecharacteristics>
                            <anamorphic>FALSE</anamorphic>
                            <pixelaspectratio>square</pixelaspectratio>
                            <fielddominance>none</fielddominance>
                            <width>1920</width>
                            <height>1080</height>
                          </samplecharacteristics>
                        </video>
                      </media>
                    </file>
                  </clipitem>
                </track>
              </video>
            </media>
          </clip>
          <clip explodedTracks="true" frameBlend="FALSE" id="masterclip-400">
            <uuid>980dfaaa-1cde-45e4-987e-a2dc0e1a03c2</uuid>
            <masterclipid>masterclip-400</masterclipid>
            <ismasterclip>TRUE</ismasterclip>
            <duration>720</duration>
            <in>0</in>
            <out>720</out>
            <name>Scene - Puppet man_0003.398.png</name>
            <rate>
              <timebase>24</timebase>
              <ntsc>FALSE</ntsc>
            </rate>
            <media>
              <video>
                <track>
                  <clipitem frameBlend="FALSE" id="clipitem-401">
                    <name>Scene - Puppet man_0003.398.png</name>
                    <masterclipid>masterclip-400</masterclipid>
                    <rate>
                      <timebase>24</timebase>
                      <ntsc>FALSE</ntsc>
                    </rate>
                    <alphatype>straight</alphatype>
                    <pixelaspectratio>square</pixelaspectratio>
                    <anamorphic>FALSE</anamorphic>
                    <file id="file-400">
                      <name>Scene - Puppet man_0003.398.png</name>
                      <pathurl>file://localhost/C:/Users/jmrey/OneDrive/Desktop/Programmin Stuff/Projects/conversation-simulator/resources/videos/Scene - Puppet man_0003/Scene - Puppet man_0003.398.png</pathurl>
                      <rate>
                        <timebase>24</timebase>
                        <ntsc>FALSE</ntsc>
                      </rate>
                      <duration>720</duration>
                      <timecode>
                        <rate>
                          <timebase>24</timebase>
                          <ntsc>FALSE</ntsc>
                        </rate>
                      </timecode>
                      <media>
                        <video>
                          <duration>1</duration>
                          <samplecharacteristics>
                            <anamorphic>FALSE</anamorphic>
                            <pixelaspectratio>square</pixelaspectratio>
                            <fielddominance>none</fielddominance>
                            <width>1920</width>
                            <height>1080</height>
                          </samplecharacteristics>
                        </video>
                      </media>
                    </file>
                  </clipitem>
                </track>
              </video>
            </media>
          </clip>
          <clip explodedTracks="true" frameBlend="FALSE" id="masterclip-401">
            <uuid>3836d0fb-2231-471d-9508-c25839c4e05c</uuid>
            <masterclipid>masterclip-401</masterclipid>
            <ismasterclip>TRUE</ismasterclip>
            <duration>720</duration>
            <in>0</in>
            <out>720</out>
            <name>Scene - Puppet man_0003.399.png</name>
            <rate>
              <timebase>24</timebase>
              <ntsc>FALSE</ntsc>
            </rate>
            <media>
              <video>
                <track>
                  <clipitem frameBlend="FALSE" id="clipitem-402">
                    <name>Scene - Puppet man_0003.399.png</name>
                    <masterclipid>masterclip-401</masterclipid>
                    <rate>
                      <timebase>24</timebase>
                      <ntsc>FALSE</ntsc>
                    </rate>
                    <alphatype>straight</alphatype>
                    <pixelaspectratio>square</pixelaspectratio>
                    <anamorphic>FALSE</anamorphic>
                    <file id="file-401">
                      <name>Scene - Puppet man_0003.399.png</name>
                      <pathurl>file://localhost/C:/Users/jmrey/OneDrive/Desktop/Programmin Stuff/Projects/conversation-simulator/resources/videos/Scene - Puppet man_0003/Scene - Puppet man_0003.399.png</pathurl>
                      <rate>
                        <timebase>24</timebase>
                        <ntsc>FALSE</ntsc>
                      </rate>
                      <duration>720</duration>
                      <timecode>
                        <rate>
                          <timebase>24</timebase>
                          <ntsc>FALSE</ntsc>
                        </rate>
                      </timecode>
                      <media>
                        <video>
                          <duration>1</duration>
                          <samplecharacteristics>
                            <anamorphic>FALSE</anamorphic>
                            <pixelaspectratio>square</pixelaspectratio>
                            <fielddominance>none</fielddominance>
                            <width>1920</width>
                            <height>1080</height>
                          </samplecharacteristics>
                        </video>
                      </media>
                    </file>
                  </clipitem>
                </track>
              </video>
            </media>
          </clip>
          <clip explodedTracks="true" frameBlend="FALSE" id="masterclip-402">
            <uuid>b6f977a3-e602-46f6-9782-a6d39fee0260</uuid>
            <masterclipid>masterclip-402</masterclipid>
            <ismasterclip>TRUE</ismasterclip>
            <duration>720</duration>
            <in>0</in>
            <out>720</out>
            <name>Scene - Puppet man_0003.400.png</name>
            <rate>
              <timebase>24</timebase>
              <ntsc>FALSE</ntsc>
            </rate>
            <media>
              <video>
                <track>
                  <clipitem frameBlend="FALSE" id="clipitem-403">
                    <name>Scene - Puppet man_0003.400.png</name>
                    <masterclipid>masterclip-402</masterclipid>
                    <rate>
                      <timebase>24</timebase>
                      <ntsc>FALSE</ntsc>
                    </rate>
                    <alphatype>straight</alphatype>
                    <pixelaspectratio>square</pixelaspectratio>
                    <anamorphic>FALSE</anamorphic>
                    <file id="file-402">
                      <name>Scene - Puppet man_0003.400.png</name>
                      <pathurl>file://localhost/C:/Users/jmrey/OneDrive/Desktop/Programmin Stuff/Projects/conversation-simulator/resources/videos/Scene - Puppet man_0003/Scene - Puppet man_0003.400.png</pathurl>
                      <rate>
                        <timebase>24</timebase>
                        <ntsc>FALSE</ntsc>
                      </rate>
                      <duration>720</duration>
                      <timecode>
                        <rate>
                          <timebase>24</timebase>
                          <ntsc>FALSE</ntsc>
                        </rate>
                      </timecode>
                      <media>
                        <video>
                          <duration>1</duration>
                          <samplecharacteristics>
                            <anamorphic>FALSE</anamorphic>
                            <pixelaspectratio>square</pixelaspectratio>
                            <fielddominance>none</fielddominance>
                            <width>1920</width>
                            <height>1080</height>
                          </samplecharacteristics>
                        </video>
                      </media>
                    </file>
                  </clipitem>
                </track>
              </video>
            </media>
          </clip>
          <clip explodedTracks="true" frameBlend="FALSE" id="masterclip-403">
            <uuid>bd638ca8-64c3-4234-8d5d-625d19449ac8</uuid>
            <masterclipid>masterclip-403</masterclipid>
            <ismasterclip>TRUE</ismasterclip>
            <duration>720</duration>
            <in>0</in>
            <out>720</out>
            <name>Scene - Puppet man_0003.401.png</name>
            <rate>
              <timebase>24</timebase>
              <ntsc>FALSE</ntsc>
            </rate>
            <media>
              <video>
                <track>
                  <clipitem frameBlend="FALSE" id="clipitem-404">
                    <name>Scene - Puppet man_0003.401.png</name>
                    <masterclipid>masterclip-403</masterclipid>
                    <rate>
                      <timebase>24</timebase>
                      <ntsc>FALSE</ntsc>
                    </rate>
                    <alphatype>straight</alphatype>
                    <pixelaspectratio>square</pixelaspectratio>
                    <anamorphic>FALSE</anamorphic>
                    <file id="file-403">
                      <name>Scene - Puppet man_0003.401.png</name>
                      <pathurl>file://localhost/C:/Users/jmrey/OneDrive/Desktop/Programmin Stuff/Projects/conversation-simulator/resources/videos/Scene - Puppet man_0003/Scene - Puppet man_0003.401.png</pathurl>
                      <rate>
                        <timebase>24</timebase>
                        <ntsc>FALSE</ntsc>
                      </rate>
                      <duration>720</duration>
                      <timecode>
                        <rate>
                          <timebase>24</timebase>
                          <ntsc>FALSE</ntsc>
                        </rate>
                      </timecode>
                      <media>
                        <video>
                          <duration>1</duration>
                          <samplecharacteristics>
                            <anamorphic>FALSE</anamorphic>
                            <pixelaspectratio>square</pixelaspectratio>
                            <fielddominance>none</fielddominance>
                            <width>1920</width>
                            <height>1080</height>
                          </samplecharacteristics>
                        </video>
                      </media>
                    </file>
                  </clipitem>
                </track>
              </video>
            </media>
          </clip>
          <clip explodedTracks="true" frameBlend="FALSE" id="masterclip-404">
            <uuid>9848d3fa-273d-4536-b092-17929852c49a</uuid>
            <masterclipid>masterclip-404</masterclipid>
            <ismasterclip>TRUE</ismasterclip>
            <duration>720</duration>
            <in>0</in>
            <out>720</out>
            <name>Scene - Puppet man_0003.402.png</name>
            <rate>
              <timebase>24</timebase>
              <ntsc>FALSE</ntsc>
            </rate>
            <media>
              <video>
                <track>
                  <clipitem frameBlend="FALSE" id="clipitem-405">
                    <name>Scene - Puppet man_0003.402.png</name>
                    <masterclipid>masterclip-404</masterclipid>
                    <rate>
                      <timebase>24</timebase>
                      <ntsc>FALSE</ntsc>
                    </rate>
                    <alphatype>straight</alphatype>
                    <pixelaspectratio>square</pixelaspectratio>
                    <anamorphic>FALSE</anamorphic>
                    <file id="file-404">
                      <name>Scene - Puppet man_0003.402.png</name>
                      <pathurl>file://localhost/C:/Users/jmrey/OneDrive/Desktop/Programmin Stuff/Projects/conversation-simulator/resources/videos/Scene - Puppet man_0003/Scene - Puppet man_0003.402.png</pathurl>
                      <rate>
                        <timebase>24</timebase>
                        <ntsc>FALSE</ntsc>
                      </rate>
                      <duration>720</duration>
                      <timecode>
                        <rate>
                          <timebase>24</timebase>
                          <ntsc>FALSE</ntsc>
                        </rate>
                      </timecode>
                      <media>
                        <video>
                          <duration>1</duration>
                          <samplecharacteristics>
                            <anamorphic>FALSE</anamorphic>
                            <pixelaspectratio>square</pixelaspectratio>
                            <fielddominance>none</fielddominance>
                            <width>1920</width>
                            <height>1080</height>
                          </samplecharacteristics>
                        </video>
                      </media>
                    </file>
                  </clipitem>
                </track>
              </video>
            </media>
          </clip>
          <clip explodedTracks="true" frameBlend="FALSE" id="masterclip-405">
            <uuid>5056f06e-4fb2-441d-83ed-063de6938aa1</uuid>
            <masterclipid>masterclip-405</masterclipid>
            <ismasterclip>TRUE</ismasterclip>
            <duration>720</duration>
            <in>0</in>
            <out>720</out>
            <name>Scene - Puppet man_0003.403.png</name>
            <rate>
              <timebase>24</timebase>
              <ntsc>FALSE</ntsc>
            </rate>
            <media>
              <video>
                <track>
                  <clipitem frameBlend="FALSE" id="clipitem-406">
                    <name>Scene - Puppet man_0003.403.png</name>
                    <masterclipid>masterclip-405</masterclipid>
                    <rate>
                      <timebase>24</timebase>
                      <ntsc>FALSE</ntsc>
                    </rate>
                    <alphatype>straight</alphatype>
                    <pixelaspectratio>square</pixelaspectratio>
                    <anamorphic>FALSE</anamorphic>
                    <file id="file-405">
                      <name>Scene - Puppet man_0003.403.png</name>
                      <pathurl>file://localhost/C:/Users/jmrey/OneDrive/Desktop/Programmin Stuff/Projects/conversation-simulator/resources/videos/Scene - Puppet man_0003/Scene - Puppet man_0003.403.png</pathurl>
                      <rate>
                        <timebase>24</timebase>
                        <ntsc>FALSE</ntsc>
                      </rate>
                      <duration>720</duration>
                      <timecode>
                        <rate>
                          <timebase>24</timebase>
                          <ntsc>FALSE</ntsc>
                        </rate>
                      </timecode>
                      <media>
                        <video>
                          <duration>1</duration>
                          <samplecharacteristics>
                            <anamorphic>FALSE</anamorphic>
                            <pixelaspectratio>square</pixelaspectratio>
                            <fielddominance>none</fielddominance>
                            <width>1920</width>
                            <height>1080</height>
                          </samplecharacteristics>
                        </video>
                      </media>
                    </file>
                  </clipitem>
                </track>
              </video>
            </media>
          </clip>
          <clip explodedTracks="true" frameBlend="FALSE" id="masterclip-406">
            <uuid>4b7bb4cd-1bb5-4b7d-9419-1990170aaf96</uuid>
            <masterclipid>masterclip-406</masterclipid>
            <ismasterclip>TRUE</ismasterclip>
            <duration>720</duration>
            <in>0</in>
            <out>720</out>
            <name>Scene - Puppet man_0003.404.png</name>
            <rate>
              <timebase>24</timebase>
              <ntsc>FALSE</ntsc>
            </rate>
            <media>
              <video>
                <track>
                  <clipitem frameBlend="FALSE" id="clipitem-407">
                    <name>Scene - Puppet man_0003.404.png</name>
                    <masterclipid>masterclip-406</masterclipid>
                    <rate>
                      <timebase>24</timebase>
                      <ntsc>FALSE</ntsc>
                    </rate>
                    <alphatype>straight</alphatype>
                    <pixelaspectratio>square</pixelaspectratio>
                    <anamorphic>FALSE</anamorphic>
                    <file id="file-406">
                      <name>Scene - Puppet man_0003.404.png</name>
                      <pathurl>file://localhost/C:/Users/jmrey/OneDrive/Desktop/Programmin Stuff/Projects/conversation-simulator/resources/videos/Scene - Puppet man_0003/Scene - Puppet man_0003.404.png</pathurl>
                      <rate>
                        <timebase>24</timebase>
                        <ntsc>FALSE</ntsc>
                      </rate>
                      <duration>720</duration>
                      <timecode>
                        <rate>
                          <timebase>24</timebase>
                          <ntsc>FALSE</ntsc>
                        </rate>
                      </timecode>
                      <media>
                        <video>
                          <duration>1</duration>
                          <samplecharacteristics>
                            <anamorphic>FALSE</anamorphic>
                            <pixelaspectratio>square</pixelaspectratio>
                            <fielddominance>none</fielddominance>
                            <width>1920</width>
                            <height>1080</height>
                          </samplecharacteristics>
                        </video>
                      </media>
                    </file>
                  </clipitem>
                </track>
              </video>
            </media>
          </clip>
          <clip explodedTracks="true" frameBlend="FALSE" id="masterclip-407">
            <uuid>be52b3eb-ba24-4574-8498-e8d74cef0b7d</uuid>
            <masterclipid>masterclip-407</masterclipid>
            <ismasterclip>TRUE</ismasterclip>
            <duration>720</duration>
            <in>0</in>
            <out>720</out>
            <name>Scene - Puppet man_0003.405.png</name>
            <rate>
              <timebase>24</timebase>
              <ntsc>FALSE</ntsc>
            </rate>
            <media>
              <video>
                <track>
                  <clipitem frameBlend="FALSE" id="clipitem-408">
                    <name>Scene - Puppet man_0003.405.png</name>
                    <masterclipid>masterclip-407</masterclipid>
                    <rate>
                      <timebase>24</timebase>
                      <ntsc>FALSE</ntsc>
                    </rate>
                    <alphatype>straight</alphatype>
                    <pixelaspectratio>square</pixelaspectratio>
                    <anamorphic>FALSE</anamorphic>
                    <file id="file-407">
                      <name>Scene - Puppet man_0003.405.png</name>
                      <pathurl>file://localhost/C:/Users/jmrey/OneDrive/Desktop/Programmin Stuff/Projects/conversation-simulator/resources/videos/Scene - Puppet man_0003/Scene - Puppet man_0003.405.png</pathurl>
                      <rate>
                        <timebase>24</timebase>
                        <ntsc>FALSE</ntsc>
                      </rate>
                      <duration>720</duration>
                      <timecode>
                        <rate>
                          <timebase>24</timebase>
                          <ntsc>FALSE</ntsc>
                        </rate>
                      </timecode>
                      <media>
                        <video>
                          <duration>1</duration>
                          <samplecharacteristics>
                            <anamorphic>FALSE</anamorphic>
                            <pixelaspectratio>square</pixelaspectratio>
                            <fielddominance>none</fielddominance>
                            <width>1920</width>
                            <height>1080</height>
                          </samplecharacteristics>
                        </video>
                      </media>
                    </file>
                  </clipitem>
                </track>
              </video>
            </media>
          </clip>
          <clip explodedTracks="true" frameBlend="FALSE" id="masterclip-408">
            <uuid>e722b825-a90a-4b5e-9201-8d03719e3a80</uuid>
            <masterclipid>masterclip-408</masterclipid>
            <ismasterclip>TRUE</ismasterclip>
            <duration>720</duration>
            <in>0</in>
            <out>720</out>
            <name>Scene - Puppet man_0003.406.png</name>
            <rate>
              <timebase>24</timebase>
              <ntsc>FALSE</ntsc>
            </rate>
            <media>
              <video>
                <track>
                  <clipitem frameBlend="FALSE" id="clipitem-409">
                    <name>Scene - Puppet man_0003.406.png</name>
                    <masterclipid>masterclip-408</masterclipid>
                    <rate>
                      <timebase>24</timebase>
                      <ntsc>FALSE</ntsc>
                    </rate>
                    <alphatype>straight</alphatype>
                    <pixelaspectratio>square</pixelaspectratio>
                    <anamorphic>FALSE</anamorphic>
                    <file id="file-408">
                      <name>Scene - Puppet man_0003.406.png</name>
                      <pathurl>file://localhost/C:/Users/jmrey/OneDrive/Desktop/Programmin Stuff/Projects/conversation-simulator/resources/videos/Scene - Puppet man_0003/Scene - Puppet man_0003.406.png</pathurl>
                      <rate>
                        <timebase>24</timebase>
                        <ntsc>FALSE</ntsc>
                      </rate>
                      <duration>720</duration>
                      <timecode>
                        <rate>
                          <timebase>24</timebase>
                          <ntsc>FALSE</ntsc>
                        </rate>
                      </timecode>
                      <media>
                        <video>
                          <duration>1</duration>
                          <samplecharacteristics>
                            <anamorphic>FALSE</anamorphic>
                            <pixelaspectratio>square</pixelaspectratio>
                            <fielddominance>none</fielddominance>
                            <width>1920</width>
                            <height>1080</height>
                          </samplecharacteristics>
                        </video>
                      </media>
                    </file>
                  </clipitem>
                </track>
              </video>
            </media>
          </clip>
          <clip explodedTracks="true" frameBlend="FALSE" id="masterclip-409">
            <uuid>47890982-94b6-4834-bc54-3c59f4020b52</uuid>
            <masterclipid>masterclip-409</masterclipid>
            <ismasterclip>TRUE</ismasterclip>
            <duration>720</duration>
            <in>0</in>
            <out>720</out>
            <name>Scene - Puppet man_0003.407.png</name>
            <rate>
              <timebase>24</timebase>
              <ntsc>FALSE</ntsc>
            </rate>
            <media>
              <video>
                <track>
                  <clipitem frameBlend="FALSE" id="clipitem-410">
                    <name>Scene - Puppet man_0003.407.png</name>
                    <masterclipid>masterclip-409</masterclipid>
                    <rate>
                      <timebase>24</timebase>
                      <ntsc>FALSE</ntsc>
                    </rate>
                    <alphatype>straight</alphatype>
                    <pixelaspectratio>square</pixelaspectratio>
                    <anamorphic>FALSE</anamorphic>
                    <file id="file-409">
                      <name>Scene - Puppet man_0003.407.png</name>
                      <pathurl>file://localhost/C:/Users/jmrey/OneDrive/Desktop/Programmin Stuff/Projects/conversation-simulator/resources/videos/Scene - Puppet man_0003/Scene - Puppet man_0003.407.png</pathurl>
                      <rate>
                        <timebase>24</timebase>
                        <ntsc>FALSE</ntsc>
                      </rate>
                      <duration>720</duration>
                      <timecode>
                        <rate>
                          <timebase>24</timebase>
                          <ntsc>FALSE</ntsc>
                        </rate>
                      </timecode>
                      <media>
                        <video>
                          <duration>1</duration>
                          <samplecharacteristics>
                            <anamorphic>FALSE</anamorphic>
                            <pixelaspectratio>square</pixelaspectratio>
                            <fielddominance>none</fielddominance>
                            <width>1920</width>
                            <height>1080</height>
                          </samplecharacteristics>
                        </video>
                      </media>
                    </file>
                  </clipitem>
                </track>
              </video>
            </media>
          </clip>
          <clip explodedTracks="true" frameBlend="FALSE" id="masterclip-410">
            <uuid>810d7f3f-28e8-40c9-a961-f95ea5926484</uuid>
            <masterclipid>masterclip-410</masterclipid>
            <ismasterclip>TRUE</ismasterclip>
            <duration>720</duration>
            <in>0</in>
            <out>720</out>
            <name>Scene - Puppet man_0003.408.png</name>
            <rate>
              <timebase>24</timebase>
              <ntsc>FALSE</ntsc>
            </rate>
            <media>
              <video>
                <track>
                  <clipitem frameBlend="FALSE" id="clipitem-411">
                    <name>Scene - Puppet man_0003.408.png</name>
                    <masterclipid>masterclip-410</masterclipid>
                    <rate>
                      <timebase>24</timebase>
                      <ntsc>FALSE</ntsc>
                    </rate>
                    <alphatype>straight</alphatype>
                    <pixelaspectratio>square</pixelaspectratio>
                    <anamorphic>FALSE</anamorphic>
                    <file id="file-410">
                      <name>Scene - Puppet man_0003.408.png</name>
                      <pathurl>file://localhost/C:/Users/jmrey/OneDrive/Desktop/Programmin Stuff/Projects/conversation-simulator/resources/videos/Scene - Puppet man_0003/Scene - Puppet man_0003.408.png</pathurl>
                      <rate>
                        <timebase>24</timebase>
                        <ntsc>FALSE</ntsc>
                      </rate>
                      <duration>720</duration>
                      <timecode>
                        <rate>
                          <timebase>24</timebase>
                          <ntsc>FALSE</ntsc>
                        </rate>
                      </timecode>
                      <media>
                        <video>
                          <duration>1</duration>
                          <samplecharacteristics>
                            <anamorphic>FALSE</anamorphic>
                            <pixelaspectratio>square</pixelaspectratio>
                            <fielddominance>none</fielddominance>
                            <width>1920</width>
                            <height>1080</height>
                          </samplecharacteristics>
                        </video>
                      </media>
                    </file>
                  </clipitem>
                </track>
              </video>
            </media>
          </clip>
          <clip explodedTracks="true" frameBlend="FALSE" id="masterclip-411">
            <uuid>7d9b95dc-6027-490f-b920-0b2d8e8946f3</uuid>
            <masterclipid>masterclip-411</masterclipid>
            <ismasterclip>TRUE</ismasterclip>
            <duration>720</duration>
            <in>0</in>
            <out>720</out>
            <name>Scene - Puppet man_0003.409.png</name>
            <rate>
              <timebase>24</timebase>
              <ntsc>FALSE</ntsc>
            </rate>
            <media>
              <video>
                <track>
                  <clipitem frameBlend="FALSE" id="clipitem-412">
                    <name>Scene - Puppet man_0003.409.png</name>
                    <masterclipid>masterclip-411</masterclipid>
                    <rate>
                      <timebase>24</timebase>
                      <ntsc>FALSE</ntsc>
                    </rate>
                    <alphatype>straight</alphatype>
                    <pixelaspectratio>square</pixelaspectratio>
                    <anamorphic>FALSE</anamorphic>
                    <file id="file-411">
                      <name>Scene - Puppet man_0003.409.png</name>
                      <pathurl>file://localhost/C:/Users/jmrey/OneDrive/Desktop/Programmin Stuff/Projects/conversation-simulator/resources/videos/Scene - Puppet man_0003/Scene - Puppet man_0003.409.png</pathurl>
                      <rate>
                        <timebase>24</timebase>
                        <ntsc>FALSE</ntsc>
                      </rate>
                      <duration>720</duration>
                      <timecode>
                        <rate>
                          <timebase>24</timebase>
                          <ntsc>FALSE</ntsc>
                        </rate>
                      </timecode>
                      <media>
                        <video>
                          <duration>1</duration>
                          <samplecharacteristics>
                            <anamorphic>FALSE</anamorphic>
                            <pixelaspectratio>square</pixelaspectratio>
                            <fielddominance>none</fielddominance>
                            <width>1920</width>
                            <height>1080</height>
                          </samplecharacteristics>
                        </video>
                      </media>
                    </file>
                  </clipitem>
                </track>
              </video>
            </media>
          </clip>
          <clip explodedTracks="true" frameBlend="FALSE" id="masterclip-412">
            <uuid>d8178e96-58d7-4892-86c9-49176b61c135</uuid>
            <masterclipid>masterclip-412</masterclipid>
            <ismasterclip>TRUE</ismasterclip>
            <duration>720</duration>
            <in>0</in>
            <out>720</out>
            <name>Scene - Puppet man_0003.410.png</name>
            <rate>
              <timebase>24</timebase>
              <ntsc>FALSE</ntsc>
            </rate>
            <media>
              <video>
                <track>
                  <clipitem frameBlend="FALSE" id="clipitem-413">
                    <name>Scene - Puppet man_0003.410.png</name>
                    <masterclipid>masterclip-412</masterclipid>
                    <rate>
                      <timebase>24</timebase>
                      <ntsc>FALSE</ntsc>
                    </rate>
                    <alphatype>straight</alphatype>
                    <pixelaspectratio>square</pixelaspectratio>
                    <anamorphic>FALSE</anamorphic>
                    <file id="file-412">
                      <name>Scene - Puppet man_0003.410.png</name>
                      <pathurl>file://localhost/C:/Users/jmrey/OneDrive/Desktop/Programmin Stuff/Projects/conversation-simulator/resources/videos/Scene - Puppet man_0003/Scene - Puppet man_0003.410.png</pathurl>
                      <rate>
                        <timebase>24</timebase>
                        <ntsc>FALSE</ntsc>
                      </rate>
                      <duration>720</duration>
                      <timecode>
                        <rate>
                          <timebase>24</timebase>
                          <ntsc>FALSE</ntsc>
                        </rate>
                      </timecode>
                      <media>
                        <video>
                          <duration>1</duration>
                          <samplecharacteristics>
                            <anamorphic>FALSE</anamorphic>
                            <pixelaspectratio>square</pixelaspectratio>
                            <fielddominance>none</fielddominance>
                            <width>1920</width>
                            <height>1080</height>
                          </samplecharacteristics>
                        </video>
                      </media>
                    </file>
                  </clipitem>
                </track>
              </video>
            </media>
          </clip>
          <clip explodedTracks="true" frameBlend="FALSE" id="masterclip-413">
            <uuid>2d71d385-3db8-402d-9aaf-f44df47fdc39</uuid>
            <masterclipid>masterclip-413</masterclipid>
            <ismasterclip>TRUE</ismasterclip>
            <duration>720</duration>
            <in>0</in>
            <out>720</out>
            <name>Scene - Puppet man_0003.411.png</name>
            <rate>
              <timebase>24</timebase>
              <ntsc>FALSE</ntsc>
            </rate>
            <media>
              <video>
                <track>
                  <clipitem frameBlend="FALSE" id="clipitem-414">
                    <name>Scene - Puppet man_0003.411.png</name>
                    <masterclipid>masterclip-413</masterclipid>
                    <rate>
                      <timebase>24</timebase>
                      <ntsc>FALSE</ntsc>
                    </rate>
                    <alphatype>straight</alphatype>
                    <pixelaspectratio>square</pixelaspectratio>
                    <anamorphic>FALSE</anamorphic>
                    <file id="file-413">
                      <name>Scene - Puppet man_0003.411.png</name>
                      <pathurl>file://localhost/C:/Users/jmrey/OneDrive/Desktop/Programmin Stuff/Projects/conversation-simulator/resources/videos/Scene - Puppet man_0003/Scene - Puppet man_0003.411.png</pathurl>
                      <rate>
                        <timebase>24</timebase>
                        <ntsc>FALSE</ntsc>
                      </rate>
                      <duration>720</duration>
                      <timecode>
                        <rate>
                          <timebase>24</timebase>
                          <ntsc>FALSE</ntsc>
                        </rate>
                      </timecode>
                      <media>
                        <video>
                          <duration>1</duration>
                          <samplecharacteristics>
                            <anamorphic>FALSE</anamorphic>
                            <pixelaspectratio>square</pixelaspectratio>
                            <fielddominance>none</fielddominance>
                            <width>1920</width>
                            <height>1080</height>
                          </samplecharacteristics>
                        </video>
                      </media>
                    </file>
                  </clipitem>
                </track>
              </video>
            </media>
          </clip>
          <clip explodedTracks="true" frameBlend="FALSE" id="masterclip-414">
            <uuid>f887cc25-dc9c-436e-9ccb-b1988eb825d9</uuid>
            <masterclipid>masterclip-414</masterclipid>
            <ismasterclip>TRUE</ismasterclip>
            <duration>720</duration>
            <in>0</in>
            <out>720</out>
            <name>Scene - Puppet man_0003.412.png</name>
            <rate>
              <timebase>24</timebase>
              <ntsc>FALSE</ntsc>
            </rate>
            <media>
              <video>
                <track>
                  <clipitem frameBlend="FALSE" id="clipitem-415">
                    <name>Scene - Puppet man_0003.412.png</name>
                    <masterclipid>masterclip-414</masterclipid>
                    <rate>
                      <timebase>24</timebase>
                      <ntsc>FALSE</ntsc>
                    </rate>
                    <alphatype>straight</alphatype>
                    <pixelaspectratio>square</pixelaspectratio>
                    <anamorphic>FALSE</anamorphic>
                    <file id="file-414">
                      <name>Scene - Puppet man_0003.412.png</name>
                      <pathurl>file://localhost/C:/Users/jmrey/OneDrive/Desktop/Programmin Stuff/Projects/conversation-simulator/resources/videos/Scene - Puppet man_0003/Scene - Puppet man_0003.412.png</pathurl>
                      <rate>
                        <timebase>24</timebase>
                        <ntsc>FALSE</ntsc>
                      </rate>
                      <duration>720</duration>
                      <timecode>
                        <rate>
                          <timebase>24</timebase>
                          <ntsc>FALSE</ntsc>
                        </rate>
                      </timecode>
                      <media>
                        <video>
                          <duration>1</duration>
                          <samplecharacteristics>
                            <anamorphic>FALSE</anamorphic>
                            <pixelaspectratio>square</pixelaspectratio>
                            <fielddominance>none</fielddominance>
                            <width>1920</width>
                            <height>1080</height>
                          </samplecharacteristics>
                        </video>
                      </media>
                    </file>
                  </clipitem>
                </track>
              </video>
            </media>
          </clip>
          <clip explodedTracks="true" frameBlend="FALSE" id="masterclip-415">
            <uuid>194fbbfc-73b6-4bad-811c-028f4a5a62f5</uuid>
            <masterclipid>masterclip-415</masterclipid>
            <ismasterclip>TRUE</ismasterclip>
            <duration>720</duration>
            <in>0</in>
            <out>720</out>
            <name>Scene - Puppet man_0003.413.png</name>
            <rate>
              <timebase>24</timebase>
              <ntsc>FALSE</ntsc>
            </rate>
            <media>
              <video>
                <track>
                  <clipitem frameBlend="FALSE" id="clipitem-416">
                    <name>Scene - Puppet man_0003.413.png</name>
                    <masterclipid>masterclip-415</masterclipid>
                    <rate>
                      <timebase>24</timebase>
                      <ntsc>FALSE</ntsc>
                    </rate>
                    <alphatype>straight</alphatype>
                    <pixelaspectratio>square</pixelaspectratio>
                    <anamorphic>FALSE</anamorphic>
                    <file id="file-415">
                      <name>Scene - Puppet man_0003.413.png</name>
                      <pathurl>file://localhost/C:/Users/jmrey/OneDrive/Desktop/Programmin Stuff/Projects/conversation-simulator/resources/videos/Scene - Puppet man_0003/Scene - Puppet man_0003.413.png</pathurl>
                      <rate>
                        <timebase>24</timebase>
                        <ntsc>FALSE</ntsc>
                      </rate>
                      <duration>720</duration>
                      <timecode>
                        <rate>
                          <timebase>24</timebase>
                          <ntsc>FALSE</ntsc>
                        </rate>
                      </timecode>
                      <media>
                        <video>
                          <duration>1</duration>
                          <samplecharacteristics>
                            <anamorphic>FALSE</anamorphic>
                            <pixelaspectratio>square</pixelaspectratio>
                            <fielddominance>none</fielddominance>
                            <width>1920</width>
                            <height>1080</height>
                          </samplecharacteristics>
                        </video>
                      </media>
                    </file>
                  </clipitem>
                </track>
              </video>
            </media>
          </clip>
          <clip explodedTracks="true" frameBlend="FALSE" id="masterclip-416">
            <uuid>0924f741-b63c-49c5-9214-156cc94dd308</uuid>
            <masterclipid>masterclip-416</masterclipid>
            <ismasterclip>TRUE</ismasterclip>
            <duration>720</duration>
            <in>0</in>
            <out>720</out>
            <name>Scene - Puppet man_0003.414.png</name>
            <rate>
              <timebase>24</timebase>
              <ntsc>FALSE</ntsc>
            </rate>
            <media>
              <video>
                <track>
                  <clipitem frameBlend="FALSE" id="clipitem-417">
                    <name>Scene - Puppet man_0003.414.png</name>
                    <masterclipid>masterclip-416</masterclipid>
                    <rate>
                      <timebase>24</timebase>
                      <ntsc>FALSE</ntsc>
                    </rate>
                    <alphatype>straight</alphatype>
                    <pixelaspectratio>square</pixelaspectratio>
                    <anamorphic>FALSE</anamorphic>
                    <file id="file-416">
                      <name>Scene - Puppet man_0003.414.png</name>
                      <pathurl>file://localhost/C:/Users/jmrey/OneDrive/Desktop/Programmin Stuff/Projects/conversation-simulator/resources/videos/Scene - Puppet man_0003/Scene - Puppet man_0003.414.png</pathurl>
                      <rate>
                        <timebase>24</timebase>
                        <ntsc>FALSE</ntsc>
                      </rate>
                      <duration>720</duration>
                      <timecode>
                        <rate>
                          <timebase>24</timebase>
                          <ntsc>FALSE</ntsc>
                        </rate>
                      </timecode>
                      <media>
                        <video>
                          <duration>1</duration>
                          <samplecharacteristics>
                            <anamorphic>FALSE</anamorphic>
                            <pixelaspectratio>square</pixelaspectratio>
                            <fielddominance>none</fielddominance>
                            <width>1920</width>
                            <height>1080</height>
                          </samplecharacteristics>
                        </video>
                      </media>
                    </file>
                  </clipitem>
                </track>
              </video>
            </media>
          </clip>
          <clip explodedTracks="true" frameBlend="FALSE" id="masterclip-417">
            <uuid>00968120-6637-49fc-97a5-0149a210c437</uuid>
            <masterclipid>masterclip-417</masterclipid>
            <ismasterclip>TRUE</ismasterclip>
            <duration>720</duration>
            <in>0</in>
            <out>720</out>
            <name>Scene - Puppet man_0003.415.png</name>
            <rate>
              <timebase>24</timebase>
              <ntsc>FALSE</ntsc>
            </rate>
            <media>
              <video>
                <track>
                  <clipitem frameBlend="FALSE" id="clipitem-418">
                    <name>Scene - Puppet man_0003.415.png</name>
                    <masterclipid>masterclip-417</masterclipid>
                    <rate>
                      <timebase>24</timebase>
                      <ntsc>FALSE</ntsc>
                    </rate>
                    <alphatype>straight</alphatype>
                    <pixelaspectratio>square</pixelaspectratio>
                    <anamorphic>FALSE</anamorphic>
                    <file id="file-417">
                      <name>Scene - Puppet man_0003.415.png</name>
                      <pathurl>file://localhost/C:/Users/jmrey/OneDrive/Desktop/Programmin Stuff/Projects/conversation-simulator/resources/videos/Scene - Puppet man_0003/Scene - Puppet man_0003.415.png</pathurl>
                      <rate>
                        <timebase>24</timebase>
                        <ntsc>FALSE</ntsc>
                      </rate>
                      <duration>720</duration>
                      <timecode>
                        <rate>
                          <timebase>24</timebase>
                          <ntsc>FALSE</ntsc>
                        </rate>
                      </timecode>
                      <media>
                        <video>
                          <duration>1</duration>
                          <samplecharacteristics>
                            <anamorphic>FALSE</anamorphic>
                            <pixelaspectratio>square</pixelaspectratio>
                            <fielddominance>none</fielddominance>
                            <width>1920</width>
                            <height>1080</height>
                          </samplecharacteristics>
                        </video>
                      </media>
                    </file>
                  </clipitem>
                </track>
              </video>
            </media>
          </clip>
          <clip explodedTracks="true" frameBlend="FALSE" id="masterclip-418">
            <uuid>7b688344-f8cc-49e2-8f79-0dbdc0e5f0ae</uuid>
            <masterclipid>masterclip-418</masterclipid>
            <ismasterclip>TRUE</ismasterclip>
            <duration>720</duration>
            <in>0</in>
            <out>720</out>
            <name>Scene - Puppet man_0003.416.png</name>
            <rate>
              <timebase>24</timebase>
              <ntsc>FALSE</ntsc>
            </rate>
            <media>
              <video>
                <track>
                  <clipitem frameBlend="FALSE" id="clipitem-419">
                    <name>Scene - Puppet man_0003.416.png</name>
                    <masterclipid>masterclip-418</masterclipid>
                    <rate>
                      <timebase>24</timebase>
                      <ntsc>FALSE</ntsc>
                    </rate>
                    <alphatype>straight</alphatype>
                    <pixelaspectratio>square</pixelaspectratio>
                    <anamorphic>FALSE</anamorphic>
                    <file id="file-418">
                      <name>Scene - Puppet man_0003.416.png</name>
                      <pathurl>file://localhost/C:/Users/jmrey/OneDrive/Desktop/Programmin Stuff/Projects/conversation-simulator/resources/videos/Scene - Puppet man_0003/Scene - Puppet man_0003.416.png</pathurl>
                      <rate>
                        <timebase>24</timebase>
                        <ntsc>FALSE</ntsc>
                      </rate>
                      <duration>720</duration>
                      <timecode>
                        <rate>
                          <timebase>24</timebase>
                          <ntsc>FALSE</ntsc>
                        </rate>
                      </timecode>
                      <media>
                        <video>
                          <duration>1</duration>
                          <samplecharacteristics>
                            <anamorphic>FALSE</anamorphic>
                            <pixelaspectratio>square</pixelaspectratio>
                            <fielddominance>none</fielddominance>
                            <width>1920</width>
                            <height>1080</height>
                          </samplecharacteristics>
                        </video>
                      </media>
                    </file>
                  </clipitem>
                </track>
              </video>
            </media>
          </clip>
          <clip explodedTracks="true" frameBlend="FALSE" id="masterclip-419">
            <uuid>b9be5835-1c8e-4bb3-b5b3-25d99e911c21</uuid>
            <masterclipid>masterclip-419</masterclipid>
            <ismasterclip>TRUE</ismasterclip>
            <duration>720</duration>
            <in>0</in>
            <out>720</out>
            <name>Scene - Puppet man_0003.417.png</name>
            <rate>
              <timebase>24</timebase>
              <ntsc>FALSE</ntsc>
            </rate>
            <media>
              <video>
                <track>
                  <clipitem frameBlend="FALSE" id="clipitem-420">
                    <name>Scene - Puppet man_0003.417.png</name>
                    <masterclipid>masterclip-419</masterclipid>
                    <rate>
                      <timebase>24</timebase>
                      <ntsc>FALSE</ntsc>
                    </rate>
                    <alphatype>straight</alphatype>
                    <pixelaspectratio>square</pixelaspectratio>
                    <anamorphic>FALSE</anamorphic>
                    <file id="file-419">
                      <name>Scene - Puppet man_0003.417.png</name>
                      <pathurl>file://localhost/C:/Users/jmrey/OneDrive/Desktop/Programmin Stuff/Projects/conversation-simulator/resources/videos/Scene - Puppet man_0003/Scene - Puppet man_0003.417.png</pathurl>
                      <rate>
                        <timebase>24</timebase>
                        <ntsc>FALSE</ntsc>
                      </rate>
                      <duration>720</duration>
                      <timecode>
                        <rate>
                          <timebase>24</timebase>
                          <ntsc>FALSE</ntsc>
                        </rate>
                      </timecode>
                      <media>
                        <video>
                          <duration>1</duration>
                          <samplecharacteristics>
                            <anamorphic>FALSE</anamorphic>
                            <pixelaspectratio>square</pixelaspectratio>
                            <fielddominance>none</fielddominance>
                            <width>1920</width>
                            <height>1080</height>
                          </samplecharacteristics>
                        </video>
                      </media>
                    </file>
                  </clipitem>
                </track>
              </video>
            </media>
          </clip>
          <clip explodedTracks="true" frameBlend="FALSE" id="masterclip-420">
            <uuid>a266a08c-6c7c-441b-b259-78f001405f92</uuid>
            <masterclipid>masterclip-420</masterclipid>
            <ismasterclip>TRUE</ismasterclip>
            <duration>720</duration>
            <in>0</in>
            <out>720</out>
            <name>Scene - Puppet man_0003.418.png</name>
            <rate>
              <timebase>24</timebase>
              <ntsc>FALSE</ntsc>
            </rate>
            <media>
              <video>
                <track>
                  <clipitem frameBlend="FALSE" id="clipitem-421">
                    <name>Scene - Puppet man_0003.418.png</name>
                    <masterclipid>masterclip-420</masterclipid>
                    <rate>
                      <timebase>24</timebase>
                      <ntsc>FALSE</ntsc>
                    </rate>
                    <alphatype>straight</alphatype>
                    <pixelaspectratio>square</pixelaspectratio>
                    <anamorphic>FALSE</anamorphic>
                    <file id="file-420">
                      <name>Scene - Puppet man_0003.418.png</name>
                      <pathurl>file://localhost/C:/Users/jmrey/OneDrive/Desktop/Programmin Stuff/Projects/conversation-simulator/resources/videos/Scene - Puppet man_0003/Scene - Puppet man_0003.418.png</pathurl>
                      <rate>
                        <timebase>24</timebase>
                        <ntsc>FALSE</ntsc>
                      </rate>
                      <duration>720</duration>
                      <timecode>
                        <rate>
                          <timebase>24</timebase>
                          <ntsc>FALSE</ntsc>
                        </rate>
                      </timecode>
                      <media>
                        <video>
                          <duration>1</duration>
                          <samplecharacteristics>
                            <anamorphic>FALSE</anamorphic>
                            <pixelaspectratio>square</pixelaspectratio>
                            <fielddominance>none</fielddominance>
                            <width>1920</width>
                            <height>1080</height>
                          </samplecharacteristics>
                        </video>
                      </media>
                    </file>
                  </clipitem>
                </track>
              </video>
            </media>
          </clip>
          <clip explodedTracks="true" frameBlend="FALSE" id="masterclip-421">
            <uuid>9021a207-0a35-42ea-a858-dd75707992b7</uuid>
            <masterclipid>masterclip-421</masterclipid>
            <ismasterclip>TRUE</ismasterclip>
            <duration>720</duration>
            <in>0</in>
            <out>720</out>
            <name>Scene - Puppet man_0003.419.png</name>
            <rate>
              <timebase>24</timebase>
              <ntsc>FALSE</ntsc>
            </rate>
            <media>
              <video>
                <track>
                  <clipitem frameBlend="FALSE" id="clipitem-422">
                    <name>Scene - Puppet man_0003.419.png</name>
                    <masterclipid>masterclip-421</masterclipid>
                    <rate>
                      <timebase>24</timebase>
                      <ntsc>FALSE</ntsc>
                    </rate>
                    <alphatype>straight</alphatype>
                    <pixelaspectratio>square</pixelaspectratio>
                    <anamorphic>FALSE</anamorphic>
                    <file id="file-421">
                      <name>Scene - Puppet man_0003.419.png</name>
                      <pathurl>file://localhost/C:/Users/jmrey/OneDrive/Desktop/Programmin Stuff/Projects/conversation-simulator/resources/videos/Scene - Puppet man_0003/Scene - Puppet man_0003.419.png</pathurl>
                      <rate>
                        <timebase>24</timebase>
                        <ntsc>FALSE</ntsc>
                      </rate>
                      <duration>720</duration>
                      <timecode>
                        <rate>
                          <timebase>24</timebase>
                          <ntsc>FALSE</ntsc>
                        </rate>
                      </timecode>
                      <media>
                        <video>
                          <duration>1</duration>
                          <samplecharacteristics>
                            <anamorphic>FALSE</anamorphic>
                            <pixelaspectratio>square</pixelaspectratio>
                            <fielddominance>none</fielddominance>
                            <width>1920</width>
                            <height>1080</height>
                          </samplecharacteristics>
                        </video>
                      </media>
                    </file>
                  </clipitem>
                </track>
              </video>
            </media>
          </clip>
          <clip explodedTracks="true" frameBlend="FALSE" id="masterclip-422">
            <uuid>48cc9a52-5b6b-43f3-958e-18a9d11840f9</uuid>
            <masterclipid>masterclip-422</masterclipid>
            <ismasterclip>TRUE</ismasterclip>
            <duration>720</duration>
            <in>0</in>
            <out>720</out>
            <name>Scene - Puppet man_0003.420.png</name>
            <rate>
              <timebase>24</timebase>
              <ntsc>FALSE</ntsc>
            </rate>
            <media>
              <video>
                <track>
                  <clipitem frameBlend="FALSE" id="clipitem-423">
                    <name>Scene - Puppet man_0003.420.png</name>
                    <masterclipid>masterclip-422</masterclipid>
                    <rate>
                      <timebase>24</timebase>
                      <ntsc>FALSE</ntsc>
                    </rate>
                    <alphatype>straight</alphatype>
                    <pixelaspectratio>square</pixelaspectratio>
                    <anamorphic>FALSE</anamorphic>
                    <file id="file-422">
                      <name>Scene - Puppet man_0003.420.png</name>
                      <pathurl>file://localhost/C:/Users/jmrey/OneDrive/Desktop/Programmin Stuff/Projects/conversation-simulator/resources/videos/Scene - Puppet man_0003/Scene - Puppet man_0003.420.png</pathurl>
                      <rate>
                        <timebase>24</timebase>
                        <ntsc>FALSE</ntsc>
                      </rate>
                      <duration>720</duration>
                      <timecode>
                        <rate>
                          <timebase>24</timebase>
                          <ntsc>FALSE</ntsc>
                        </rate>
                      </timecode>
                      <media>
                        <video>
                          <duration>1</duration>
                          <samplecharacteristics>
                            <anamorphic>FALSE</anamorphic>
                            <pixelaspectratio>square</pixelaspectratio>
                            <fielddominance>none</fielddominance>
                            <width>1920</width>
                            <height>1080</height>
                          </samplecharacteristics>
                        </video>
                      </media>
                    </file>
                  </clipitem>
                </track>
              </video>
            </media>
          </clip>
          <clip explodedTracks="true" frameBlend="FALSE" id="masterclip-423">
            <uuid>bcf1694f-31d4-4003-8533-a9706d4530e6</uuid>
            <masterclipid>masterclip-423</masterclipid>
            <ismasterclip>TRUE</ismasterclip>
            <duration>720</duration>
            <in>0</in>
            <out>720</out>
            <name>Scene - Puppet man_0003.421.png</name>
            <rate>
              <timebase>24</timebase>
              <ntsc>FALSE</ntsc>
            </rate>
            <media>
              <video>
                <track>
                  <clipitem frameBlend="FALSE" id="clipitem-424">
                    <name>Scene - Puppet man_0003.421.png</name>
                    <masterclipid>masterclip-423</masterclipid>
                    <rate>
                      <timebase>24</timebase>
                      <ntsc>FALSE</ntsc>
                    </rate>
                    <alphatype>straight</alphatype>
                    <pixelaspectratio>square</pixelaspectratio>
                    <anamorphic>FALSE</anamorphic>
                    <file id="file-423">
                      <name>Scene - Puppet man_0003.421.png</name>
                      <pathurl>file://localhost/C:/Users/jmrey/OneDrive/Desktop/Programmin Stuff/Projects/conversation-simulator/resources/videos/Scene - Puppet man_0003/Scene - Puppet man_0003.421.png</pathurl>
                      <rate>
                        <timebase>24</timebase>
                        <ntsc>FALSE</ntsc>
                      </rate>
                      <duration>720</duration>
                      <timecode>
                        <rate>
                          <timebase>24</timebase>
                          <ntsc>FALSE</ntsc>
                        </rate>
                      </timecode>
                      <media>
                        <video>
                          <duration>1</duration>
                          <samplecharacteristics>
                            <anamorphic>FALSE</anamorphic>
                            <pixelaspectratio>square</pixelaspectratio>
                            <fielddominance>none</fielddominance>
                            <width>1920</width>
                            <height>1080</height>
                          </samplecharacteristics>
                        </video>
                      </media>
                    </file>
                  </clipitem>
                </track>
              </video>
            </media>
          </clip>
          <clip explodedTracks="true" frameBlend="FALSE" id="masterclip-424">
            <uuid>9eb63bc4-d149-4eff-9976-f360856c1e78</uuid>
            <masterclipid>masterclip-424</masterclipid>
            <ismasterclip>TRUE</ismasterclip>
            <duration>720</duration>
            <in>0</in>
            <out>720</out>
            <name>Scene - Puppet man_0003.422.png</name>
            <rate>
              <timebase>24</timebase>
              <ntsc>FALSE</ntsc>
            </rate>
            <media>
              <video>
                <track>
                  <clipitem frameBlend="FALSE" id="clipitem-425">
                    <name>Scene - Puppet man_0003.422.png</name>
                    <masterclipid>masterclip-424</masterclipid>
                    <rate>
                      <timebase>24</timebase>
                      <ntsc>FALSE</ntsc>
                    </rate>
                    <alphatype>straight</alphatype>
                    <pixelaspectratio>square</pixelaspectratio>
                    <anamorphic>FALSE</anamorphic>
                    <file id="file-424">
                      <name>Scene - Puppet man_0003.422.png</name>
                      <pathurl>file://localhost/C:/Users/jmrey/OneDrive/Desktop/Programmin Stuff/Projects/conversation-simulator/resources/videos/Scene - Puppet man_0003/Scene - Puppet man_0003.422.png</pathurl>
                      <rate>
                        <timebase>24</timebase>
                        <ntsc>FALSE</ntsc>
                      </rate>
                      <duration>720</duration>
                      <timecode>
                        <rate>
                          <timebase>24</timebase>
                          <ntsc>FALSE</ntsc>
                        </rate>
                      </timecode>
                      <media>
                        <video>
                          <duration>1</duration>
                          <samplecharacteristics>
                            <anamorphic>FALSE</anamorphic>
                            <pixelaspectratio>square</pixelaspectratio>
                            <fielddominance>none</fielddominance>
                            <width>1920</width>
                            <height>1080</height>
                          </samplecharacteristics>
                        </video>
                      </media>
                    </file>
                  </clipitem>
                </track>
              </video>
            </media>
          </clip>
          <clip explodedTracks="true" frameBlend="FALSE" id="masterclip-425">
            <uuid>d69838fc-7d43-49cc-81dd-e3edcf4a9032</uuid>
            <masterclipid>masterclip-425</masterclipid>
            <ismasterclip>TRUE</ismasterclip>
            <duration>720</duration>
            <in>0</in>
            <out>720</out>
            <name>Scene - Puppet man_0003.423.png</name>
            <rate>
              <timebase>24</timebase>
              <ntsc>FALSE</ntsc>
            </rate>
            <media>
              <video>
                <track>
                  <clipitem frameBlend="FALSE" id="clipitem-426">
                    <name>Scene - Puppet man_0003.423.png</name>
                    <masterclipid>masterclip-425</masterclipid>
                    <rate>
                      <timebase>24</timebase>
                      <ntsc>FALSE</ntsc>
                    </rate>
                    <alphatype>straight</alphatype>
                    <pixelaspectratio>square</pixelaspectratio>
                    <anamorphic>FALSE</anamorphic>
                    <file id="file-425">
                      <name>Scene - Puppet man_0003.423.png</name>
                      <pathurl>file://localhost/C:/Users/jmrey/OneDrive/Desktop/Programmin Stuff/Projects/conversation-simulator/resources/videos/Scene - Puppet man_0003/Scene - Puppet man_0003.423.png</pathurl>
                      <rate>
                        <timebase>24</timebase>
                        <ntsc>FALSE</ntsc>
                      </rate>
                      <duration>720</duration>
                      <timecode>
                        <rate>
                          <timebase>24</timebase>
                          <ntsc>FALSE</ntsc>
                        </rate>
                      </timecode>
                      <media>
                        <video>
                          <duration>1</duration>
                          <samplecharacteristics>
                            <anamorphic>FALSE</anamorphic>
                            <pixelaspectratio>square</pixelaspectratio>
                            <fielddominance>none</fielddominance>
                            <width>1920</width>
                            <height>1080</height>
                          </samplecharacteristics>
                        </video>
                      </media>
                    </file>
                  </clipitem>
                </track>
              </video>
            </media>
          </clip>
          <clip explodedTracks="true" frameBlend="FALSE" id="masterclip-426">
            <uuid>0d7569a3-e255-44bb-b381-6d2bec5ed56b</uuid>
            <masterclipid>masterclip-426</masterclipid>
            <ismasterclip>TRUE</ismasterclip>
            <duration>720</duration>
            <in>0</in>
            <out>720</out>
            <name>Scene - Puppet man_0003.424.png</name>
            <rate>
              <timebase>24</timebase>
              <ntsc>FALSE</ntsc>
            </rate>
            <media>
              <video>
                <track>
                  <clipitem frameBlend="FALSE" id="clipitem-427">
                    <name>Scene - Puppet man_0003.424.png</name>
                    <masterclipid>masterclip-426</masterclipid>
                    <rate>
                      <timebase>24</timebase>
                      <ntsc>FALSE</ntsc>
                    </rate>
                    <alphatype>straight</alphatype>
                    <pixelaspectratio>square</pixelaspectratio>
                    <anamorphic>FALSE</anamorphic>
                    <file id="file-426">
                      <name>Scene - Puppet man_0003.424.png</name>
                      <pathurl>file://localhost/C:/Users/jmrey/OneDrive/Desktop/Programmin Stuff/Projects/conversation-simulator/resources/videos/Scene - Puppet man_0003/Scene - Puppet man_0003.424.png</pathurl>
                      <rate>
                        <timebase>24</timebase>
                        <ntsc>FALSE</ntsc>
                      </rate>
                      <duration>720</duration>
                      <timecode>
                        <rate>
                          <timebase>24</timebase>
                          <ntsc>FALSE</ntsc>
                        </rate>
                      </timecode>
                      <media>
                        <video>
                          <duration>1</duration>
                          <samplecharacteristics>
                            <anamorphic>FALSE</anamorphic>
                            <pixelaspectratio>square</pixelaspectratio>
                            <fielddominance>none</fielddominance>
                            <width>1920</width>
                            <height>1080</height>
                          </samplecharacteristics>
                        </video>
                      </media>
                    </file>
                  </clipitem>
                </track>
              </video>
            </media>
          </clip>
          <clip explodedTracks="true" frameBlend="FALSE" id="masterclip-427">
            <uuid>a1664e35-c56f-4b96-a6f8-4704e63cc251</uuid>
            <masterclipid>masterclip-427</masterclipid>
            <ismasterclip>TRUE</ismasterclip>
            <duration>720</duration>
            <in>0</in>
            <out>720</out>
            <name>Scene - Puppet man_0003.425.png</name>
            <rate>
              <timebase>24</timebase>
              <ntsc>FALSE</ntsc>
            </rate>
            <media>
              <video>
                <track>
                  <clipitem frameBlend="FALSE" id="clipitem-428">
                    <name>Scene - Puppet man_0003.425.png</name>
                    <masterclipid>masterclip-427</masterclipid>
                    <rate>
                      <timebase>24</timebase>
                      <ntsc>FALSE</ntsc>
                    </rate>
                    <alphatype>straight</alphatype>
                    <pixelaspectratio>square</pixelaspectratio>
                    <anamorphic>FALSE</anamorphic>
                    <file id="file-427">
                      <name>Scene - Puppet man_0003.425.png</name>
                      <pathurl>file://localhost/C:/Users/jmrey/OneDrive/Desktop/Programmin Stuff/Projects/conversation-simulator/resources/videos/Scene - Puppet man_0003/Scene - Puppet man_0003.425.png</pathurl>
                      <rate>
                        <timebase>24</timebase>
                        <ntsc>FALSE</ntsc>
                      </rate>
                      <duration>720</duration>
                      <timecode>
                        <rate>
                          <timebase>24</timebase>
                          <ntsc>FALSE</ntsc>
                        </rate>
                      </timecode>
                      <media>
                        <video>
                          <duration>1</duration>
                          <samplecharacteristics>
                            <anamorphic>FALSE</anamorphic>
                            <pixelaspectratio>square</pixelaspectratio>
                            <fielddominance>none</fielddominance>
                            <width>1920</width>
                            <height>1080</height>
                          </samplecharacteristics>
                        </video>
                      </media>
                    </file>
                  </clipitem>
                </track>
              </video>
            </media>
          </clip>
          <clip explodedTracks="true" frameBlend="FALSE" id="masterclip-428">
            <uuid>fbe65114-bb73-4d70-8d5b-932d2d7b47b0</uuid>
            <masterclipid>masterclip-428</masterclipid>
            <ismasterclip>TRUE</ismasterclip>
            <duration>720</duration>
            <in>0</in>
            <out>720</out>
            <name>Scene - Puppet man_0003.426.png</name>
            <rate>
              <timebase>24</timebase>
              <ntsc>FALSE</ntsc>
            </rate>
            <media>
              <video>
                <track>
                  <clipitem frameBlend="FALSE" id="clipitem-429">
                    <name>Scene - Puppet man_0003.426.png</name>
                    <masterclipid>masterclip-428</masterclipid>
                    <rate>
                      <timebase>24</timebase>
                      <ntsc>FALSE</ntsc>
                    </rate>
                    <alphatype>straight</alphatype>
                    <pixelaspectratio>square</pixelaspectratio>
                    <anamorphic>FALSE</anamorphic>
                    <file id="file-428">
                      <name>Scene - Puppet man_0003.426.png</name>
                      <pathurl>file://localhost/C:/Users/jmrey/OneDrive/Desktop/Programmin Stuff/Projects/conversation-simulator/resources/videos/Scene - Puppet man_0003/Scene - Puppet man_0003.426.png</pathurl>
                      <rate>
                        <timebase>24</timebase>
                        <ntsc>FALSE</ntsc>
                      </rate>
                      <duration>720</duration>
                      <timecode>
                        <rate>
                          <timebase>24</timebase>
                          <ntsc>FALSE</ntsc>
                        </rate>
                      </timecode>
                      <media>
                        <video>
                          <duration>1</duration>
                          <samplecharacteristics>
                            <anamorphic>FALSE</anamorphic>
                            <pixelaspectratio>square</pixelaspectratio>
                            <fielddominance>none</fielddominance>
                            <width>1920</width>
                            <height>1080</height>
                          </samplecharacteristics>
                        </video>
                      </media>
                    </file>
                  </clipitem>
                </track>
              </video>
            </media>
          </clip>
          <clip explodedTracks="true" frameBlend="FALSE" id="masterclip-429">
            <uuid>654255ce-3d1a-4d9b-ae62-4e6e73a4b2b6</uuid>
            <masterclipid>masterclip-429</masterclipid>
            <ismasterclip>TRUE</ismasterclip>
            <duration>720</duration>
            <in>0</in>
            <out>720</out>
            <name>Scene - Puppet man_0003.427.png</name>
            <rate>
              <timebase>24</timebase>
              <ntsc>FALSE</ntsc>
            </rate>
            <media>
              <video>
                <track>
                  <clipitem frameBlend="FALSE" id="clipitem-430">
                    <name>Scene - Puppet man_0003.427.png</name>
                    <masterclipid>masterclip-429</masterclipid>
                    <rate>
                      <timebase>24</timebase>
                      <ntsc>FALSE</ntsc>
                    </rate>
                    <alphatype>straight</alphatype>
                    <pixelaspectratio>square</pixelaspectratio>
                    <anamorphic>FALSE</anamorphic>
                    <file id="file-429">
                      <name>Scene - Puppet man_0003.427.png</name>
                      <pathurl>file://localhost/C:/Users/jmrey/OneDrive/Desktop/Programmin Stuff/Projects/conversation-simulator/resources/videos/Scene - Puppet man_0003/Scene - Puppet man_0003.427.png</pathurl>
                      <rate>
                        <timebase>24</timebase>
                        <ntsc>FALSE</ntsc>
                      </rate>
                      <duration>720</duration>
                      <timecode>
                        <rate>
                          <timebase>24</timebase>
                          <ntsc>FALSE</ntsc>
                        </rate>
                      </timecode>
                      <media>
                        <video>
                          <duration>1</duration>
                          <samplecharacteristics>
                            <anamorphic>FALSE</anamorphic>
                            <pixelaspectratio>square</pixelaspectratio>
                            <fielddominance>none</fielddominance>
                            <width>1920</width>
                            <height>1080</height>
                          </samplecharacteristics>
                        </video>
                      </media>
                    </file>
                  </clipitem>
                </track>
              </video>
            </media>
          </clip>
          <clip explodedTracks="true" frameBlend="FALSE" id="masterclip-430">
            <uuid>2ab21500-2046-413b-a08e-09067d658ded</uuid>
            <masterclipid>masterclip-430</masterclipid>
            <ismasterclip>TRUE</ismasterclip>
            <duration>720</duration>
            <in>0</in>
            <out>720</out>
            <name>Scene - Puppet man_0003.428.png</name>
            <rate>
              <timebase>24</timebase>
              <ntsc>FALSE</ntsc>
            </rate>
            <media>
              <video>
                <track>
                  <clipitem frameBlend="FALSE" id="clipitem-431">
                    <name>Scene - Puppet man_0003.428.png</name>
                    <masterclipid>masterclip-430</masterclipid>
                    <rate>
                      <timebase>24</timebase>
                      <ntsc>FALSE</ntsc>
                    </rate>
                    <alphatype>straight</alphatype>
                    <pixelaspectratio>square</pixelaspectratio>
                    <anamorphic>FALSE</anamorphic>
                    <file id="file-430">
                      <name>Scene - Puppet man_0003.428.png</name>
                      <pathurl>file://localhost/C:/Users/jmrey/OneDrive/Desktop/Programmin Stuff/Projects/conversation-simulator/resources/videos/Scene - Puppet man_0003/Scene - Puppet man_0003.428.png</pathurl>
                      <rate>
                        <timebase>24</timebase>
                        <ntsc>FALSE</ntsc>
                      </rate>
                      <duration>720</duration>
                      <timecode>
                        <rate>
                          <timebase>24</timebase>
                          <ntsc>FALSE</ntsc>
                        </rate>
                      </timecode>
                      <media>
                        <video>
                          <duration>1</duration>
                          <samplecharacteristics>
                            <anamorphic>FALSE</anamorphic>
                            <pixelaspectratio>square</pixelaspectratio>
                            <fielddominance>none</fielddominance>
                            <width>1920</width>
                            <height>1080</height>
                          </samplecharacteristics>
                        </video>
                      </media>
                    </file>
                  </clipitem>
                </track>
              </video>
            </media>
          </clip>
          <clip explodedTracks="true" frameBlend="FALSE" id="masterclip-431">
            <uuid>202ffbf4-16ca-4b24-b938-d267701e344c</uuid>
            <masterclipid>masterclip-431</masterclipid>
            <ismasterclip>TRUE</ismasterclip>
            <duration>720</duration>
            <in>0</in>
            <out>720</out>
            <name>Scene - Puppet man_0003.429.png</name>
            <rate>
              <timebase>24</timebase>
              <ntsc>FALSE</ntsc>
            </rate>
            <media>
              <video>
                <track>
                  <clipitem frameBlend="FALSE" id="clipitem-432">
                    <name>Scene - Puppet man_0003.429.png</name>
                    <masterclipid>masterclip-431</masterclipid>
                    <rate>
                      <timebase>24</timebase>
                      <ntsc>FALSE</ntsc>
                    </rate>
                    <alphatype>straight</alphatype>
                    <pixelaspectratio>square</pixelaspectratio>
                    <anamorphic>FALSE</anamorphic>
                    <file id="file-431">
                      <name>Scene - Puppet man_0003.429.png</name>
                      <pathurl>file://localhost/C:/Users/jmrey/OneDrive/Desktop/Programmin Stuff/Projects/conversation-simulator/resources/videos/Scene - Puppet man_0003/Scene - Puppet man_0003.429.png</pathurl>
                      <rate>
                        <timebase>24</timebase>
                        <ntsc>FALSE</ntsc>
                      </rate>
                      <duration>720</duration>
                      <timecode>
                        <rate>
                          <timebase>24</timebase>
                          <ntsc>FALSE</ntsc>
                        </rate>
                      </timecode>
                      <media>
                        <video>
                          <duration>1</duration>
                          <samplecharacteristics>
                            <anamorphic>FALSE</anamorphic>
                            <pixelaspectratio>square</pixelaspectratio>
                            <fielddominance>none</fielddominance>
                            <width>1920</width>
                            <height>1080</height>
                          </samplecharacteristics>
                        </video>
                      </media>
                    </file>
                  </clipitem>
                </track>
              </video>
            </media>
          </clip>
          <clip explodedTracks="true" frameBlend="FALSE" id="masterclip-432">
            <uuid>6135b01b-ed8a-47c5-a4ec-3a5c85ff488e</uuid>
            <masterclipid>masterclip-432</masterclipid>
            <ismasterclip>TRUE</ismasterclip>
            <duration>720</duration>
            <in>0</in>
            <out>720</out>
            <name>Scene - Puppet man_0003.430.png</name>
            <rate>
              <timebase>24</timebase>
              <ntsc>FALSE</ntsc>
            </rate>
            <media>
              <video>
                <track>
                  <clipitem frameBlend="FALSE" id="clipitem-433">
                    <name>Scene - Puppet man_0003.430.png</name>
                    <masterclipid>masterclip-432</masterclipid>
                    <rate>
                      <timebase>24</timebase>
                      <ntsc>FALSE</ntsc>
                    </rate>
                    <alphatype>straight</alphatype>
                    <pixelaspectratio>square</pixelaspectratio>
                    <anamorphic>FALSE</anamorphic>
                    <file id="file-432">
                      <name>Scene - Puppet man_0003.430.png</name>
                      <pathurl>file://localhost/C:/Users/jmrey/OneDrive/Desktop/Programmin Stuff/Projects/conversation-simulator/resources/videos/Scene - Puppet man_0003/Scene - Puppet man_0003.430.png</pathurl>
                      <rate>
                        <timebase>24</timebase>
                        <ntsc>FALSE</ntsc>
                      </rate>
                      <duration>720</duration>
                      <timecode>
                        <rate>
                          <timebase>24</timebase>
                          <ntsc>FALSE</ntsc>
                        </rate>
                      </timecode>
                      <media>
                        <video>
                          <duration>1</duration>
                          <samplecharacteristics>
                            <anamorphic>FALSE</anamorphic>
                            <pixelaspectratio>square</pixelaspectratio>
                            <fielddominance>none</fielddominance>
                            <width>1920</width>
                            <height>1080</height>
                          </samplecharacteristics>
                        </video>
                      </media>
                    </file>
                  </clipitem>
                </track>
              </video>
            </media>
          </clip>
          <clip explodedTracks="true" frameBlend="FALSE" id="masterclip-433">
            <uuid>ad436749-56f9-40cc-88c5-3ecfe6b7133d</uuid>
            <masterclipid>masterclip-433</masterclipid>
            <ismasterclip>TRUE</ismasterclip>
            <duration>720</duration>
            <in>0</in>
            <out>720</out>
            <name>Scene - Puppet man_0003.431.png</name>
            <rate>
              <timebase>24</timebase>
              <ntsc>FALSE</ntsc>
            </rate>
            <media>
              <video>
                <track>
                  <clipitem frameBlend="FALSE" id="clipitem-434">
                    <name>Scene - Puppet man_0003.431.png</name>
                    <masterclipid>masterclip-433</masterclipid>
                    <rate>
                      <timebase>24</timebase>
                      <ntsc>FALSE</ntsc>
                    </rate>
                    <alphatype>straight</alphatype>
                    <pixelaspectratio>square</pixelaspectratio>
                    <anamorphic>FALSE</anamorphic>
                    <file id="file-433">
                      <name>Scene - Puppet man_0003.431.png</name>
                      <pathurl>file://localhost/C:/Users/jmrey/OneDrive/Desktop/Programmin Stuff/Projects/conversation-simulator/resources/videos/Scene - Puppet man_0003/Scene - Puppet man_0003.431.png</pathurl>
                      <rate>
                        <timebase>24</timebase>
                        <ntsc>FALSE</ntsc>
                      </rate>
                      <duration>720</duration>
                      <timecode>
                        <rate>
                          <timebase>24</timebase>
                          <ntsc>FALSE</ntsc>
                        </rate>
                      </timecode>
                      <media>
                        <video>
                          <duration>1</duration>
                          <samplecharacteristics>
                            <anamorphic>FALSE</anamorphic>
                            <pixelaspectratio>square</pixelaspectratio>
                            <fielddominance>none</fielddominance>
                            <width>1920</width>
                            <height>1080</height>
                          </samplecharacteristics>
                        </video>
                      </media>
                    </file>
                  </clipitem>
                </track>
              </video>
            </media>
          </clip>
          <clip explodedTracks="true" frameBlend="FALSE" id="masterclip-434">
            <uuid>451bbe28-353f-41a9-b00f-2a9716bf8bf9</uuid>
            <masterclipid>masterclip-434</masterclipid>
            <ismasterclip>TRUE</ismasterclip>
            <duration>720</duration>
            <in>0</in>
            <out>720</out>
            <name>Scene - Puppet man_0003.432.png</name>
            <rate>
              <timebase>24</timebase>
              <ntsc>FALSE</ntsc>
            </rate>
            <media>
              <video>
                <track>
                  <clipitem frameBlend="FALSE" id="clipitem-435">
                    <name>Scene - Puppet man_0003.432.png</name>
                    <masterclipid>masterclip-434</masterclipid>
                    <rate>
                      <timebase>24</timebase>
                      <ntsc>FALSE</ntsc>
                    </rate>
                    <alphatype>straight</alphatype>
                    <pixelaspectratio>square</pixelaspectratio>
                    <anamorphic>FALSE</anamorphic>
                    <file id="file-434">
                      <name>Scene - Puppet man_0003.432.png</name>
                      <pathurl>file://localhost/C:/Users/jmrey/OneDrive/Desktop/Programmin Stuff/Projects/conversation-simulator/resources/videos/Scene - Puppet man_0003/Scene - Puppet man_0003.432.png</pathurl>
                      <rate>
                        <timebase>24</timebase>
                        <ntsc>FALSE</ntsc>
                      </rate>
                      <duration>720</duration>
                      <timecode>
                        <rate>
                          <timebase>24</timebase>
                          <ntsc>FALSE</ntsc>
                        </rate>
                      </timecode>
                      <media>
                        <video>
                          <duration>1</duration>
                          <samplecharacteristics>
                            <anamorphic>FALSE</anamorphic>
                            <pixelaspectratio>square</pixelaspectratio>
                            <fielddominance>none</fielddominance>
                            <width>1920</width>
                            <height>1080</height>
                          </samplecharacteristics>
                        </video>
                      </media>
                    </file>
                  </clipitem>
                </track>
              </video>
            </media>
          </clip>
          <clip explodedTracks="true" frameBlend="FALSE" id="masterclip-435">
            <uuid>0964efa3-aae8-46a4-a406-9c2e9d196305</uuid>
            <masterclipid>masterclip-435</masterclipid>
            <ismasterclip>TRUE</ismasterclip>
            <duration>720</duration>
            <in>0</in>
            <out>720</out>
            <name>Scene - Puppet man_0003.433.png</name>
            <rate>
              <timebase>24</timebase>
              <ntsc>FALSE</ntsc>
            </rate>
            <media>
              <video>
                <track>
                  <clipitem frameBlend="FALSE" id="clipitem-436">
                    <name>Scene - Puppet man_0003.433.png</name>
                    <masterclipid>masterclip-435</masterclipid>
                    <rate>
                      <timebase>24</timebase>
                      <ntsc>FALSE</ntsc>
                    </rate>
                    <alphatype>straight</alphatype>
                    <pixelaspectratio>square</pixelaspectratio>
                    <anamorphic>FALSE</anamorphic>
                    <file id="file-435">
                      <name>Scene - Puppet man_0003.433.png</name>
                      <pathurl>file://localhost/C:/Users/jmrey/OneDrive/Desktop/Programmin Stuff/Projects/conversation-simulator/resources/videos/Scene - Puppet man_0003/Scene - Puppet man_0003.433.png</pathurl>
                      <rate>
                        <timebase>24</timebase>
                        <ntsc>FALSE</ntsc>
                      </rate>
                      <duration>720</duration>
                      <timecode>
                        <rate>
                          <timebase>24</timebase>
                          <ntsc>FALSE</ntsc>
                        </rate>
                      </timecode>
                      <media>
                        <video>
                          <duration>1</duration>
                          <samplecharacteristics>
                            <anamorphic>FALSE</anamorphic>
                            <pixelaspectratio>square</pixelaspectratio>
                            <fielddominance>none</fielddominance>
                            <width>1920</width>
                            <height>1080</height>
                          </samplecharacteristics>
                        </video>
                      </media>
                    </file>
                  </clipitem>
                </track>
              </video>
            </media>
          </clip>
          <clip explodedTracks="true" frameBlend="FALSE" id="masterclip-436">
            <uuid>22a9e42e-e58f-481a-9267-91128372d93e</uuid>
            <masterclipid>masterclip-436</masterclipid>
            <ismasterclip>TRUE</ismasterclip>
            <duration>720</duration>
            <in>0</in>
            <out>720</out>
            <name>Scene - Puppet man_0003.434.png</name>
            <rate>
              <timebase>24</timebase>
              <ntsc>FALSE</ntsc>
            </rate>
            <media>
              <video>
                <track>
                  <clipitem frameBlend="FALSE" id="clipitem-437">
                    <name>Scene - Puppet man_0003.434.png</name>
                    <masterclipid>masterclip-436</masterclipid>
                    <rate>
                      <timebase>24</timebase>
                      <ntsc>FALSE</ntsc>
                    </rate>
                    <alphatype>straight</alphatype>
                    <pixelaspectratio>square</pixelaspectratio>
                    <anamorphic>FALSE</anamorphic>
                    <file id="file-436">
                      <name>Scene - Puppet man_0003.434.png</name>
                      <pathurl>file://localhost/C:/Users/jmrey/OneDrive/Desktop/Programmin Stuff/Projects/conversation-simulator/resources/videos/Scene - Puppet man_0003/Scene - Puppet man_0003.434.png</pathurl>
                      <rate>
                        <timebase>24</timebase>
                        <ntsc>FALSE</ntsc>
                      </rate>
                      <duration>720</duration>
                      <timecode>
                        <rate>
                          <timebase>24</timebase>
                          <ntsc>FALSE</ntsc>
                        </rate>
                      </timecode>
                      <media>
                        <video>
                          <duration>1</duration>
                          <samplecharacteristics>
                            <anamorphic>FALSE</anamorphic>
                            <pixelaspectratio>square</pixelaspectratio>
                            <fielddominance>none</fielddominance>
                            <width>1920</width>
                            <height>1080</height>
                          </samplecharacteristics>
                        </video>
                      </media>
                    </file>
                  </clipitem>
                </track>
              </video>
            </media>
          </clip>
          <clip explodedTracks="true" frameBlend="FALSE" id="masterclip-437">
            <uuid>5594ea37-7179-45f4-9dc2-a61483722be0</uuid>
            <masterclipid>masterclip-437</masterclipid>
            <ismasterclip>TRUE</ismasterclip>
            <duration>720</duration>
            <in>0</in>
            <out>720</out>
            <name>Scene - Puppet man_0003.435.png</name>
            <rate>
              <timebase>24</timebase>
              <ntsc>FALSE</ntsc>
            </rate>
            <media>
              <video>
                <track>
                  <clipitem frameBlend="FALSE" id="clipitem-438">
                    <name>Scene - Puppet man_0003.435.png</name>
                    <masterclipid>masterclip-437</masterclipid>
                    <rate>
                      <timebase>24</timebase>
                      <ntsc>FALSE</ntsc>
                    </rate>
                    <alphatype>straight</alphatype>
                    <pixelaspectratio>square</pixelaspectratio>
                    <anamorphic>FALSE</anamorphic>
                    <file id="file-437">
                      <name>Scene - Puppet man_0003.435.png</name>
                      <pathurl>file://localhost/C:/Users/jmrey/OneDrive/Desktop/Programmin Stuff/Projects/conversation-simulator/resources/videos/Scene - Puppet man_0003/Scene - Puppet man_0003.435.png</pathurl>
                      <rate>
                        <timebase>24</timebase>
                        <ntsc>FALSE</ntsc>
                      </rate>
                      <duration>720</duration>
                      <timecode>
                        <rate>
                          <timebase>24</timebase>
                          <ntsc>FALSE</ntsc>
                        </rate>
                      </timecode>
                      <media>
                        <video>
                          <duration>1</duration>
                          <samplecharacteristics>
                            <anamorphic>FALSE</anamorphic>
                            <pixelaspectratio>square</pixelaspectratio>
                            <fielddominance>none</fielddominance>
                            <width>1920</width>
                            <height>1080</height>
                          </samplecharacteristics>
                        </video>
                      </media>
                    </file>
                  </clipitem>
                </track>
              </video>
            </media>
          </clip>
          <clip explodedTracks="true" frameBlend="FALSE" id="masterclip-438">
            <uuid>78623b9b-34be-43da-9faf-3918697f2601</uuid>
            <masterclipid>masterclip-438</masterclipid>
            <ismasterclip>TRUE</ismasterclip>
            <duration>720</duration>
            <in>0</in>
            <out>720</out>
            <name>Scene - Puppet man_0003.436.png</name>
            <rate>
              <timebase>24</timebase>
              <ntsc>FALSE</ntsc>
            </rate>
            <media>
              <video>
                <track>
                  <clipitem frameBlend="FALSE" id="clipitem-439">
                    <name>Scene - Puppet man_0003.436.png</name>
                    <masterclipid>masterclip-438</masterclipid>
                    <rate>
                      <timebase>24</timebase>
                      <ntsc>FALSE</ntsc>
                    </rate>
                    <alphatype>straight</alphatype>
                    <pixelaspectratio>square</pixelaspectratio>
                    <anamorphic>FALSE</anamorphic>
                    <file id="file-438">
                      <name>Scene - Puppet man_0003.436.png</name>
                      <pathurl>file://localhost/C:/Users/jmrey/OneDrive/Desktop/Programmin Stuff/Projects/conversation-simulator/resources/videos/Scene - Puppet man_0003/Scene - Puppet man_0003.436.png</pathurl>
                      <rate>
                        <timebase>24</timebase>
                        <ntsc>FALSE</ntsc>
                      </rate>
                      <duration>720</duration>
                      <timecode>
                        <rate>
                          <timebase>24</timebase>
                          <ntsc>FALSE</ntsc>
                        </rate>
                      </timecode>
                      <media>
                        <video>
                          <duration>1</duration>
                          <samplecharacteristics>
                            <anamorphic>FALSE</anamorphic>
                            <pixelaspectratio>square</pixelaspectratio>
                            <fielddominance>none</fielddominance>
                            <width>1920</width>
                            <height>1080</height>
                          </samplecharacteristics>
                        </video>
                      </media>
                    </file>
                  </clipitem>
                </track>
              </video>
            </media>
          </clip>
          <clip explodedTracks="true" frameBlend="FALSE" id="masterclip-439">
            <uuid>302c22b9-40fe-4fc2-a067-879005ca4319</uuid>
            <masterclipid>masterclip-439</masterclipid>
            <ismasterclip>TRUE</ismasterclip>
            <duration>720</duration>
            <in>0</in>
            <out>720</out>
            <name>Scene - Puppet man_0003.437.png</name>
            <rate>
              <timebase>24</timebase>
              <ntsc>FALSE</ntsc>
            </rate>
            <media>
              <video>
                <track>
                  <clipitem frameBlend="FALSE" id="clipitem-440">
                    <name>Scene - Puppet man_0003.437.png</name>
                    <masterclipid>masterclip-439</masterclipid>
                    <rate>
                      <timebase>24</timebase>
                      <ntsc>FALSE</ntsc>
                    </rate>
                    <alphatype>straight</alphatype>
                    <pixelaspectratio>square</pixelaspectratio>
                    <anamorphic>FALSE</anamorphic>
                    <file id="file-439">
                      <name>Scene - Puppet man_0003.437.png</name>
                      <pathurl>file://localhost/C:/Users/jmrey/OneDrive/Desktop/Programmin Stuff/Projects/conversation-simulator/resources/videos/Scene - Puppet man_0003/Scene - Puppet man_0003.437.png</pathurl>
                      <rate>
                        <timebase>24</timebase>
                        <ntsc>FALSE</ntsc>
                      </rate>
                      <duration>720</duration>
                      <timecode>
                        <rate>
                          <timebase>24</timebase>
                          <ntsc>FALSE</ntsc>
                        </rate>
                      </timecode>
                      <media>
                        <video>
                          <duration>1</duration>
                          <samplecharacteristics>
                            <anamorphic>FALSE</anamorphic>
                            <pixelaspectratio>square</pixelaspectratio>
                            <fielddominance>none</fielddominance>
                            <width>1920</width>
                            <height>1080</height>
                          </samplecharacteristics>
                        </video>
                      </media>
                    </file>
                  </clipitem>
                </track>
              </video>
            </media>
          </clip>
          <clip explodedTracks="true" frameBlend="FALSE" id="masterclip-440">
            <uuid>8f7ebaab-4bd3-4717-a3c6-ca68450cbb41</uuid>
            <masterclipid>masterclip-440</masterclipid>
            <ismasterclip>TRUE</ismasterclip>
            <duration>720</duration>
            <in>0</in>
            <out>720</out>
            <name>Scene - Puppet man_0003.438.png</name>
            <rate>
              <timebase>24</timebase>
              <ntsc>FALSE</ntsc>
            </rate>
            <media>
              <video>
                <track>
                  <clipitem frameBlend="FALSE" id="clipitem-441">
                    <name>Scene - Puppet man_0003.438.png</name>
                    <masterclipid>masterclip-440</masterclipid>
                    <rate>
                      <timebase>24</timebase>
                      <ntsc>FALSE</ntsc>
                    </rate>
                    <alphatype>straight</alphatype>
                    <pixelaspectratio>square</pixelaspectratio>
                    <anamorphic>FALSE</anamorphic>
                    <file id="file-440">
                      <name>Scene - Puppet man_0003.438.png</name>
                      <pathurl>file://localhost/C:/Users/jmrey/OneDrive/Desktop/Programmin Stuff/Projects/conversation-simulator/resources/videos/Scene - Puppet man_0003/Scene - Puppet man_0003.438.png</pathurl>
                      <rate>
                        <timebase>24</timebase>
                        <ntsc>FALSE</ntsc>
                      </rate>
                      <duration>720</duration>
                      <timecode>
                        <rate>
                          <timebase>24</timebase>
                          <ntsc>FALSE</ntsc>
                        </rate>
                      </timecode>
                      <media>
                        <video>
                          <duration>1</duration>
                          <samplecharacteristics>
                            <anamorphic>FALSE</anamorphic>
                            <pixelaspectratio>square</pixelaspectratio>
                            <fielddominance>none</fielddominance>
                            <width>1920</width>
                            <height>1080</height>
                          </samplecharacteristics>
                        </video>
                      </media>
                    </file>
                  </clipitem>
                </track>
              </video>
            </media>
          </clip>
          <clip explodedTracks="true" frameBlend="FALSE" id="masterclip-441">
            <uuid>23061da9-8346-4c8b-97e2-0a28f474b6a0</uuid>
            <masterclipid>masterclip-441</masterclipid>
            <ismasterclip>TRUE</ismasterclip>
            <duration>720</duration>
            <in>0</in>
            <out>720</out>
            <name>Scene - Puppet man_0003.439.png</name>
            <rate>
              <timebase>24</timebase>
              <ntsc>FALSE</ntsc>
            </rate>
            <media>
              <video>
                <track>
                  <clipitem frameBlend="FALSE" id="clipitem-442">
                    <name>Scene - Puppet man_0003.439.png</name>
                    <masterclipid>masterclip-441</masterclipid>
                    <rate>
                      <timebase>24</timebase>
                      <ntsc>FALSE</ntsc>
                    </rate>
                    <alphatype>straight</alphatype>
                    <pixelaspectratio>square</pixelaspectratio>
                    <anamorphic>FALSE</anamorphic>
                    <file id="file-441">
                      <name>Scene - Puppet man_0003.439.png</name>
                      <pathurl>file://localhost/C:/Users/jmrey/OneDrive/Desktop/Programmin Stuff/Projects/conversation-simulator/resources/videos/Scene - Puppet man_0003/Scene - Puppet man_0003.439.png</pathurl>
                      <rate>
                        <timebase>24</timebase>
                        <ntsc>FALSE</ntsc>
                      </rate>
                      <duration>720</duration>
                      <timecode>
                        <rate>
                          <timebase>24</timebase>
                          <ntsc>FALSE</ntsc>
                        </rate>
                      </timecode>
                      <media>
                        <video>
                          <duration>1</duration>
                          <samplecharacteristics>
                            <anamorphic>FALSE</anamorphic>
                            <pixelaspectratio>square</pixelaspectratio>
                            <fielddominance>none</fielddominance>
                            <width>1920</width>
                            <height>1080</height>
                          </samplecharacteristics>
                        </video>
                      </media>
                    </file>
                  </clipitem>
                </track>
              </video>
            </media>
          </clip>
          <clip explodedTracks="true" frameBlend="FALSE" id="masterclip-442">
            <uuid>4d12d3d8-f52a-4bc5-93d0-19432452c05b</uuid>
            <masterclipid>masterclip-442</masterclipid>
            <ismasterclip>TRUE</ismasterclip>
            <duration>720</duration>
            <in>0</in>
            <out>720</out>
            <name>Scene - Puppet man_0003.440.png</name>
            <rate>
              <timebase>24</timebase>
              <ntsc>FALSE</ntsc>
            </rate>
            <media>
              <video>
                <track>
                  <clipitem frameBlend="FALSE" id="clipitem-443">
                    <name>Scene - Puppet man_0003.440.png</name>
                    <masterclipid>masterclip-442</masterclipid>
                    <rate>
                      <timebase>24</timebase>
                      <ntsc>FALSE</ntsc>
                    </rate>
                    <alphatype>straight</alphatype>
                    <pixelaspectratio>square</pixelaspectratio>
                    <anamorphic>FALSE</anamorphic>
                    <file id="file-442">
                      <name>Scene - Puppet man_0003.440.png</name>
                      <pathurl>file://localhost/C:/Users/jmrey/OneDrive/Desktop/Programmin Stuff/Projects/conversation-simulator/resources/videos/Scene - Puppet man_0003/Scene - Puppet man_0003.440.png</pathurl>
                      <rate>
                        <timebase>24</timebase>
                        <ntsc>FALSE</ntsc>
                      </rate>
                      <duration>720</duration>
                      <timecode>
                        <rate>
                          <timebase>24</timebase>
                          <ntsc>FALSE</ntsc>
                        </rate>
                      </timecode>
                      <media>
                        <video>
                          <duration>1</duration>
                          <samplecharacteristics>
                            <anamorphic>FALSE</anamorphic>
                            <pixelaspectratio>square</pixelaspectratio>
                            <fielddominance>none</fielddominance>
                            <width>1920</width>
                            <height>1080</height>
                          </samplecharacteristics>
                        </video>
                      </media>
                    </file>
                  </clipitem>
                </track>
              </video>
            </media>
          </clip>
          <clip explodedTracks="true" frameBlend="FALSE" id="masterclip-443">
            <uuid>17eb2635-ddc8-43b5-990c-f6335a834eb8</uuid>
            <masterclipid>masterclip-443</masterclipid>
            <ismasterclip>TRUE</ismasterclip>
            <duration>720</duration>
            <in>0</in>
            <out>720</out>
            <name>Scene - Puppet man_0003.441.png</name>
            <rate>
              <timebase>24</timebase>
              <ntsc>FALSE</ntsc>
            </rate>
            <media>
              <video>
                <track>
                  <clipitem frameBlend="FALSE" id="clipitem-444">
                    <name>Scene - Puppet man_0003.441.png</name>
                    <masterclipid>masterclip-443</masterclipid>
                    <rate>
                      <timebase>24</timebase>
                      <ntsc>FALSE</ntsc>
                    </rate>
                    <alphatype>straight</alphatype>
                    <pixelaspectratio>square</pixelaspectratio>
                    <anamorphic>FALSE</anamorphic>
                    <file id="file-443">
                      <name>Scene - Puppet man_0003.441.png</name>
                      <pathurl>file://localhost/C:/Users/jmrey/OneDrive/Desktop/Programmin Stuff/Projects/conversation-simulator/resources/videos/Scene - Puppet man_0003/Scene - Puppet man_0003.441.png</pathurl>
                      <rate>
                        <timebase>24</timebase>
                        <ntsc>FALSE</ntsc>
                      </rate>
                      <duration>720</duration>
                      <timecode>
                        <rate>
                          <timebase>24</timebase>
                          <ntsc>FALSE</ntsc>
                        </rate>
                      </timecode>
                      <media>
                        <video>
                          <duration>1</duration>
                          <samplecharacteristics>
                            <anamorphic>FALSE</anamorphic>
                            <pixelaspectratio>square</pixelaspectratio>
                            <fielddominance>none</fielddominance>
                            <width>1920</width>
                            <height>1080</height>
                          </samplecharacteristics>
                        </video>
                      </media>
                    </file>
                  </clipitem>
                </track>
              </video>
            </media>
          </clip>
          <clip explodedTracks="true" frameBlend="FALSE" id="masterclip-444">
            <uuid>71dfaa4a-07e0-462e-a724-d9e7080f57db</uuid>
            <masterclipid>masterclip-444</masterclipid>
            <ismasterclip>TRUE</ismasterclip>
            <duration>720</duration>
            <in>0</in>
            <out>720</out>
            <name>Scene - Puppet man_0003.442.png</name>
            <rate>
              <timebase>24</timebase>
              <ntsc>FALSE</ntsc>
            </rate>
            <media>
              <video>
                <track>
                  <clipitem frameBlend="FALSE" id="clipitem-445">
                    <name>Scene - Puppet man_0003.442.png</name>
                    <masterclipid>masterclip-444</masterclipid>
                    <rate>
                      <timebase>24</timebase>
                      <ntsc>FALSE</ntsc>
                    </rate>
                    <alphatype>straight</alphatype>
                    <pixelaspectratio>square</pixelaspectratio>
                    <anamorphic>FALSE</anamorphic>
                    <file id="file-444">
                      <name>Scene - Puppet man_0003.442.png</name>
                      <pathurl>file://localhost/C:/Users/jmrey/OneDrive/Desktop/Programmin Stuff/Projects/conversation-simulator/resources/videos/Scene - Puppet man_0003/Scene - Puppet man_0003.442.png</pathurl>
                      <rate>
                        <timebase>24</timebase>
                        <ntsc>FALSE</ntsc>
                      </rate>
                      <duration>720</duration>
                      <timecode>
                        <rate>
                          <timebase>24</timebase>
                          <ntsc>FALSE</ntsc>
                        </rate>
                      </timecode>
                      <media>
                        <video>
                          <duration>1</duration>
                          <samplecharacteristics>
                            <anamorphic>FALSE</anamorphic>
                            <pixelaspectratio>square</pixelaspectratio>
                            <fielddominance>none</fielddominance>
                            <width>1920</width>
                            <height>1080</height>
                          </samplecharacteristics>
                        </video>
                      </media>
                    </file>
                  </clipitem>
                </track>
              </video>
            </media>
          </clip>
          <clip explodedTracks="true" frameBlend="FALSE" id="masterclip-445">
            <uuid>58eabd82-a41c-4078-b70a-41af65fc6b83</uuid>
            <masterclipid>masterclip-445</masterclipid>
            <ismasterclip>TRUE</ismasterclip>
            <duration>720</duration>
            <in>0</in>
            <out>720</out>
            <name>Scene - Puppet man_0003.443.png</name>
            <rate>
              <timebase>24</timebase>
              <ntsc>FALSE</ntsc>
            </rate>
            <media>
              <video>
                <track>
                  <clipitem frameBlend="FALSE" id="clipitem-446">
                    <name>Scene - Puppet man_0003.443.png</name>
                    <masterclipid>masterclip-445</masterclipid>
                    <rate>
                      <timebase>24</timebase>
                      <ntsc>FALSE</ntsc>
                    </rate>
                    <alphatype>straight</alphatype>
                    <pixelaspectratio>square</pixelaspectratio>
                    <anamorphic>FALSE</anamorphic>
                    <file id="file-445">
                      <name>Scene - Puppet man_0003.443.png</name>
                      <pathurl>file://localhost/C:/Users/jmrey/OneDrive/Desktop/Programmin Stuff/Projects/conversation-simulator/resources/videos/Scene - Puppet man_0003/Scene - Puppet man_0003.443.png</pathurl>
                      <rate>
                        <timebase>24</timebase>
                        <ntsc>FALSE</ntsc>
                      </rate>
                      <duration>720</duration>
                      <timecode>
                        <rate>
                          <timebase>24</timebase>
                          <ntsc>FALSE</ntsc>
                        </rate>
                      </timecode>
                      <media>
                        <video>
                          <duration>1</duration>
                          <samplecharacteristics>
                            <anamorphic>FALSE</anamorphic>
                            <pixelaspectratio>square</pixelaspectratio>
                            <fielddominance>none</fielddominance>
                            <width>1920</width>
                            <height>1080</height>
                          </samplecharacteristics>
                        </video>
                      </media>
                    </file>
                  </clipitem>
                </track>
              </video>
            </media>
          </clip>
          <clip explodedTracks="true" frameBlend="FALSE" id="masterclip-446">
            <uuid>f622a8e4-25a3-45ee-bd11-6f1670193920</uuid>
            <masterclipid>masterclip-446</masterclipid>
            <ismasterclip>TRUE</ismasterclip>
            <duration>720</duration>
            <in>0</in>
            <out>720</out>
            <name>Scene - Puppet man_0003.444.png</name>
            <rate>
              <timebase>24</timebase>
              <ntsc>FALSE</ntsc>
            </rate>
            <media>
              <video>
                <track>
                  <clipitem frameBlend="FALSE" id="clipitem-447">
                    <name>Scene - Puppet man_0003.444.png</name>
                    <masterclipid>masterclip-446</masterclipid>
                    <rate>
                      <timebase>24</timebase>
                      <ntsc>FALSE</ntsc>
                    </rate>
                    <alphatype>straight</alphatype>
                    <pixelaspectratio>square</pixelaspectratio>
                    <anamorphic>FALSE</anamorphic>
                    <file id="file-446">
                      <name>Scene - Puppet man_0003.444.png</name>
                      <pathurl>file://localhost/C:/Users/jmrey/OneDrive/Desktop/Programmin Stuff/Projects/conversation-simulator/resources/videos/Scene - Puppet man_0003/Scene - Puppet man_0003.444.png</pathurl>
                      <rate>
                        <timebase>24</timebase>
                        <ntsc>FALSE</ntsc>
                      </rate>
                      <duration>720</duration>
                      <timecode>
                        <rate>
                          <timebase>24</timebase>
                          <ntsc>FALSE</ntsc>
                        </rate>
                      </timecode>
                      <media>
                        <video>
                          <duration>1</duration>
                          <samplecharacteristics>
                            <anamorphic>FALSE</anamorphic>
                            <pixelaspectratio>square</pixelaspectratio>
                            <fielddominance>none</fielddominance>
                            <width>1920</width>
                            <height>1080</height>
                          </samplecharacteristics>
                        </video>
                      </media>
                    </file>
                  </clipitem>
                </track>
              </video>
            </media>
          </clip>
          <clip explodedTracks="true" frameBlend="FALSE" id="masterclip-447">
            <uuid>28b4cbf0-29d2-44db-9720-0c1d2d80e2ae</uuid>
            <masterclipid>masterclip-447</masterclipid>
            <ismasterclip>TRUE</ismasterclip>
            <duration>720</duration>
            <in>0</in>
            <out>720</out>
            <name>Scene - Puppet man_0003.445.png</name>
            <rate>
              <timebase>24</timebase>
              <ntsc>FALSE</ntsc>
            </rate>
            <media>
              <video>
                <track>
                  <clipitem frameBlend="FALSE" id="clipitem-448">
                    <name>Scene - Puppet man_0003.445.png</name>
                    <masterclipid>masterclip-447</masterclipid>
                    <rate>
                      <timebase>24</timebase>
                      <ntsc>FALSE</ntsc>
                    </rate>
                    <alphatype>straight</alphatype>
                    <pixelaspectratio>square</pixelaspectratio>
                    <anamorphic>FALSE</anamorphic>
                    <file id="file-447">
                      <name>Scene - Puppet man_0003.445.png</name>
                      <pathurl>file://localhost/C:/Users/jmrey/OneDrive/Desktop/Programmin Stuff/Projects/conversation-simulator/resources/videos/Scene - Puppet man_0003/Scene - Puppet man_0003.445.png</pathurl>
                      <rate>
                        <timebase>24</timebase>
                        <ntsc>FALSE</ntsc>
                      </rate>
                      <duration>720</duration>
                      <timecode>
                        <rate>
                          <timebase>24</timebase>
                          <ntsc>FALSE</ntsc>
                        </rate>
                      </timecode>
                      <media>
                        <video>
                          <duration>1</duration>
                          <samplecharacteristics>
                            <anamorphic>FALSE</anamorphic>
                            <pixelaspectratio>square</pixelaspectratio>
                            <fielddominance>none</fielddominance>
                            <width>1920</width>
                            <height>1080</height>
                          </samplecharacteristics>
                        </video>
                      </media>
                    </file>
                  </clipitem>
                </track>
              </video>
            </media>
          </clip>
          <clip explodedTracks="true" frameBlend="FALSE" id="masterclip-448">
            <uuid>2eebdb95-c880-4c88-8298-ad77d5bc7c5e</uuid>
            <masterclipid>masterclip-448</masterclipid>
            <ismasterclip>TRUE</ismasterclip>
            <duration>720</duration>
            <in>0</in>
            <out>720</out>
            <name>Scene - Puppet man_0003.446.png</name>
            <rate>
              <timebase>24</timebase>
              <ntsc>FALSE</ntsc>
            </rate>
            <media>
              <video>
                <track>
                  <clipitem frameBlend="FALSE" id="clipitem-449">
                    <name>Scene - Puppet man_0003.446.png</name>
                    <masterclipid>masterclip-448</masterclipid>
                    <rate>
                      <timebase>24</timebase>
                      <ntsc>FALSE</ntsc>
                    </rate>
                    <alphatype>straight</alphatype>
                    <pixelaspectratio>square</pixelaspectratio>
                    <anamorphic>FALSE</anamorphic>
                    <file id="file-448">
                      <name>Scene - Puppet man_0003.446.png</name>
                      <pathurl>file://localhost/C:/Users/jmrey/OneDrive/Desktop/Programmin Stuff/Projects/conversation-simulator/resources/videos/Scene - Puppet man_0003/Scene - Puppet man_0003.446.png</pathurl>
                      <rate>
                        <timebase>24</timebase>
                        <ntsc>FALSE</ntsc>
                      </rate>
                      <duration>720</duration>
                      <timecode>
                        <rate>
                          <timebase>24</timebase>
                          <ntsc>FALSE</ntsc>
                        </rate>
                      </timecode>
                      <media>
                        <video>
                          <duration>1</duration>
                          <samplecharacteristics>
                            <anamorphic>FALSE</anamorphic>
                            <pixelaspectratio>square</pixelaspectratio>
                            <fielddominance>none</fielddominance>
                            <width>1920</width>
                            <height>1080</height>
                          </samplecharacteristics>
                        </video>
                      </media>
                    </file>
                  </clipitem>
                </track>
              </video>
            </media>
          </clip>
          <clip explodedTracks="true" frameBlend="FALSE" id="masterclip-449">
            <uuid>cfc65e78-7566-432b-be34-b19f1a019a84</uuid>
            <masterclipid>masterclip-449</masterclipid>
            <ismasterclip>TRUE</ismasterclip>
            <duration>720</duration>
            <in>0</in>
            <out>720</out>
            <name>Scene - Puppet man_0003.447.png</name>
            <rate>
              <timebase>24</timebase>
              <ntsc>FALSE</ntsc>
            </rate>
            <media>
              <video>
                <track>
                  <clipitem frameBlend="FALSE" id="clipitem-450">
                    <name>Scene - Puppet man_0003.447.png</name>
                    <masterclipid>masterclip-449</masterclipid>
                    <rate>
                      <timebase>24</timebase>
                      <ntsc>FALSE</ntsc>
                    </rate>
                    <alphatype>straight</alphatype>
                    <pixelaspectratio>square</pixelaspectratio>
                    <anamorphic>FALSE</anamorphic>
                    <file id="file-449">
                      <name>Scene - Puppet man_0003.447.png</name>
                      <pathurl>file://localhost/C:/Users/jmrey/OneDrive/Desktop/Programmin Stuff/Projects/conversation-simulator/resources/videos/Scene - Puppet man_0003/Scene - Puppet man_0003.447.png</pathurl>
                      <rate>
                        <timebase>24</timebase>
                        <ntsc>FALSE</ntsc>
                      </rate>
                      <duration>720</duration>
                      <timecode>
                        <rate>
                          <timebase>24</timebase>
                          <ntsc>FALSE</ntsc>
                        </rate>
                      </timecode>
                      <media>
                        <video>
                          <duration>1</duration>
                          <samplecharacteristics>
                            <anamorphic>FALSE</anamorphic>
                            <pixelaspectratio>square</pixelaspectratio>
                            <fielddominance>none</fielddominance>
                            <width>1920</width>
                            <height>1080</height>
                          </samplecharacteristics>
                        </video>
                      </media>
                    </file>
                  </clipitem>
                </track>
              </video>
            </media>
          </clip>
          <clip explodedTracks="true" frameBlend="FALSE" id="masterclip-450">
            <uuid>352a5bbf-56a9-4e8f-be7f-a395b9306e2b</uuid>
            <masterclipid>masterclip-450</masterclipid>
            <ismasterclip>TRUE</ismasterclip>
            <duration>720</duration>
            <in>0</in>
            <out>720</out>
            <name>Scene - Puppet man_0003.448.png</name>
            <rate>
              <timebase>24</timebase>
              <ntsc>FALSE</ntsc>
            </rate>
            <media>
              <video>
                <track>
                  <clipitem frameBlend="FALSE" id="clipitem-451">
                    <name>Scene - Puppet man_0003.448.png</name>
                    <masterclipid>masterclip-450</masterclipid>
                    <rate>
                      <timebase>24</timebase>
                      <ntsc>FALSE</ntsc>
                    </rate>
                    <alphatype>straight</alphatype>
                    <pixelaspectratio>square</pixelaspectratio>
                    <anamorphic>FALSE</anamorphic>
                    <file id="file-450">
                      <name>Scene - Puppet man_0003.448.png</name>
                      <pathurl>file://localhost/C:/Users/jmrey/OneDrive/Desktop/Programmin Stuff/Projects/conversation-simulator/resources/videos/Scene - Puppet man_0003/Scene - Puppet man_0003.448.png</pathurl>
                      <rate>
                        <timebase>24</timebase>
                        <ntsc>FALSE</ntsc>
                      </rate>
                      <duration>720</duration>
                      <timecode>
                        <rate>
                          <timebase>24</timebase>
                          <ntsc>FALSE</ntsc>
                        </rate>
                      </timecode>
                      <media>
                        <video>
                          <duration>1</duration>
                          <samplecharacteristics>
                            <anamorphic>FALSE</anamorphic>
                            <pixelaspectratio>square</pixelaspectratio>
                            <fielddominance>none</fielddominance>
                            <width>1920</width>
                            <height>1080</height>
                          </samplecharacteristics>
                        </video>
                      </media>
                    </file>
                  </clipitem>
                </track>
              </video>
            </media>
          </clip>
          <clip explodedTracks="true" frameBlend="FALSE" id="masterclip-451">
            <uuid>72dac20c-64eb-4a2d-9068-98f5b42eba7e</uuid>
            <masterclipid>masterclip-451</masterclipid>
            <ismasterclip>TRUE</ismasterclip>
            <duration>720</duration>
            <in>0</in>
            <out>720</out>
            <name>Scene - Puppet man_0003.449.png</name>
            <rate>
              <timebase>24</timebase>
              <ntsc>FALSE</ntsc>
            </rate>
            <media>
              <video>
                <track>
                  <clipitem frameBlend="FALSE" id="clipitem-452">
                    <name>Scene - Puppet man_0003.449.png</name>
                    <masterclipid>masterclip-451</masterclipid>
                    <rate>
                      <timebase>24</timebase>
                      <ntsc>FALSE</ntsc>
                    </rate>
                    <alphatype>straight</alphatype>
                    <pixelaspectratio>square</pixelaspectratio>
                    <anamorphic>FALSE</anamorphic>
                    <file id="file-451">
                      <name>Scene - Puppet man_0003.449.png</name>
                      <pathurl>file://localhost/C:/Users/jmrey/OneDrive/Desktop/Programmin Stuff/Projects/conversation-simulator/resources/videos/Scene - Puppet man_0003/Scene - Puppet man_0003.449.png</pathurl>
                      <rate>
                        <timebase>24</timebase>
                        <ntsc>FALSE</ntsc>
                      </rate>
                      <duration>720</duration>
                      <timecode>
                        <rate>
                          <timebase>24</timebase>
                          <ntsc>FALSE</ntsc>
                        </rate>
                      </timecode>
                      <media>
                        <video>
                          <duration>1</duration>
                          <samplecharacteristics>
                            <anamorphic>FALSE</anamorphic>
                            <pixelaspectratio>square</pixelaspectratio>
                            <fielddominance>none</fielddominance>
                            <width>1920</width>
                            <height>1080</height>
                          </samplecharacteristics>
                        </video>
                      </media>
                    </file>
                  </clipitem>
                </track>
              </video>
            </media>
          </clip>
          <clip explodedTracks="true" frameBlend="FALSE" id="masterclip-452">
            <uuid>432bbc7a-0f60-4392-9a4e-eabc6afac293</uuid>
            <masterclipid>masterclip-452</masterclipid>
            <ismasterclip>TRUE</ismasterclip>
            <duration>720</duration>
            <in>0</in>
            <out>720</out>
            <name>Scene - Puppet man_0003.450.png</name>
            <rate>
              <timebase>24</timebase>
              <ntsc>FALSE</ntsc>
            </rate>
            <media>
              <video>
                <track>
                  <clipitem frameBlend="FALSE" id="clipitem-453">
                    <name>Scene - Puppet man_0003.450.png</name>
                    <masterclipid>masterclip-452</masterclipid>
                    <rate>
                      <timebase>24</timebase>
                      <ntsc>FALSE</ntsc>
                    </rate>
                    <alphatype>straight</alphatype>
                    <pixelaspectratio>square</pixelaspectratio>
                    <anamorphic>FALSE</anamorphic>
                    <file id="file-452">
                      <name>Scene - Puppet man_0003.450.png</name>
                      <pathurl>file://localhost/C:/Users/jmrey/OneDrive/Desktop/Programmin Stuff/Projects/conversation-simulator/resources/videos/Scene - Puppet man_0003/Scene - Puppet man_0003.450.png</pathurl>
                      <rate>
                        <timebase>24</timebase>
                        <ntsc>FALSE</ntsc>
                      </rate>
                      <duration>720</duration>
                      <timecode>
                        <rate>
                          <timebase>24</timebase>
                          <ntsc>FALSE</ntsc>
                        </rate>
                      </timecode>
                      <media>
                        <video>
                          <duration>1</duration>
                          <samplecharacteristics>
                            <anamorphic>FALSE</anamorphic>
                            <pixelaspectratio>square</pixelaspectratio>
                            <fielddominance>none</fielddominance>
                            <width>1920</width>
                            <height>1080</height>
                          </samplecharacteristics>
                        </video>
                      </media>
                    </file>
                  </clipitem>
                </track>
              </video>
            </media>
          </clip>
          <clip explodedTracks="true" frameBlend="FALSE" id="masterclip-453">
            <uuid>82d2872f-11bc-4b1e-9645-3849643d6739</uuid>
            <masterclipid>masterclip-453</masterclipid>
            <ismasterclip>TRUE</ismasterclip>
            <duration>720</duration>
            <in>0</in>
            <out>720</out>
            <name>Scene - Puppet man_0003.451.png</name>
            <rate>
              <timebase>24</timebase>
              <ntsc>FALSE</ntsc>
            </rate>
            <media>
              <video>
                <track>
                  <clipitem frameBlend="FALSE" id="clipitem-454">
                    <name>Scene - Puppet man_0003.451.png</name>
                    <masterclipid>masterclip-453</masterclipid>
                    <rate>
                      <timebase>24</timebase>
                      <ntsc>FALSE</ntsc>
                    </rate>
                    <alphatype>straight</alphatype>
                    <pixelaspectratio>square</pixelaspectratio>
                    <anamorphic>FALSE</anamorphic>
                    <file id="file-453">
                      <name>Scene - Puppet man_0003.451.png</name>
                      <pathurl>file://localhost/C:/Users/jmrey/OneDrive/Desktop/Programmin Stuff/Projects/conversation-simulator/resources/videos/Scene - Puppet man_0003/Scene - Puppet man_0003.451.png</pathurl>
                      <rate>
                        <timebase>24</timebase>
                        <ntsc>FALSE</ntsc>
                      </rate>
                      <duration>720</duration>
                      <timecode>
                        <rate>
                          <timebase>24</timebase>
                          <ntsc>FALSE</ntsc>
                        </rate>
                      </timecode>
                      <media>
                        <video>
                          <duration>1</duration>
                          <samplecharacteristics>
                            <anamorphic>FALSE</anamorphic>
                            <pixelaspectratio>square</pixelaspectratio>
                            <fielddominance>none</fielddominance>
                            <width>1920</width>
                            <height>1080</height>
                          </samplecharacteristics>
                        </video>
                      </media>
                    </file>
                  </clipitem>
                </track>
              </video>
            </media>
          </clip>
          <clip explodedTracks="true" frameBlend="FALSE" id="masterclip-454">
            <uuid>6253d547-0c90-43b6-b1cc-e0a43fee1dd0</uuid>
            <masterclipid>masterclip-454</masterclipid>
            <ismasterclip>TRUE</ismasterclip>
            <duration>720</duration>
            <in>0</in>
            <out>720</out>
            <name>Scene - Puppet man_0003.452.png</name>
            <rate>
              <timebase>24</timebase>
              <ntsc>FALSE</ntsc>
            </rate>
            <media>
              <video>
                <track>
                  <clipitem frameBlend="FALSE" id="clipitem-455">
                    <name>Scene - Puppet man_0003.452.png</name>
                    <masterclipid>masterclip-454</masterclipid>
                    <rate>
                      <timebase>24</timebase>
                      <ntsc>FALSE</ntsc>
                    </rate>
                    <alphatype>straight</alphatype>
                    <pixelaspectratio>square</pixelaspectratio>
                    <anamorphic>FALSE</anamorphic>
                    <file id="file-454">
                      <name>Scene - Puppet man_0003.452.png</name>
                      <pathurl>file://localhost/C:/Users/jmrey/OneDrive/Desktop/Programmin Stuff/Projects/conversation-simulator/resources/videos/Scene - Puppet man_0003/Scene - Puppet man_0003.452.png</pathurl>
                      <rate>
                        <timebase>24</timebase>
                        <ntsc>FALSE</ntsc>
                      </rate>
                      <duration>720</duration>
                      <timecode>
                        <rate>
                          <timebase>24</timebase>
                          <ntsc>FALSE</ntsc>
                        </rate>
                      </timecode>
                      <media>
                        <video>
                          <duration>1</duration>
                          <samplecharacteristics>
                            <anamorphic>FALSE</anamorphic>
                            <pixelaspectratio>square</pixelaspectratio>
                            <fielddominance>none</fielddominance>
                            <width>1920</width>
                            <height>1080</height>
                          </samplecharacteristics>
                        </video>
                      </media>
                    </file>
                  </clipitem>
                </track>
              </video>
            </media>
          </clip>
          <clip explodedTracks="true" frameBlend="FALSE" id="masterclip-455">
            <uuid>e4489026-36a8-4a93-aba7-1e3ee10da494</uuid>
            <masterclipid>masterclip-455</masterclipid>
            <ismasterclip>TRUE</ismasterclip>
            <duration>720</duration>
            <in>0</in>
            <out>720</out>
            <name>Scene - Puppet man_0003.453.png</name>
            <rate>
              <timebase>24</timebase>
              <ntsc>FALSE</ntsc>
            </rate>
            <media>
              <video>
                <track>
                  <clipitem frameBlend="FALSE" id="clipitem-456">
                    <name>Scene - Puppet man_0003.453.png</name>
                    <masterclipid>masterclip-455</masterclipid>
                    <rate>
                      <timebase>24</timebase>
                      <ntsc>FALSE</ntsc>
                    </rate>
                    <alphatype>straight</alphatype>
                    <pixelaspectratio>square</pixelaspectratio>
                    <anamorphic>FALSE</anamorphic>
                    <file id="file-455">
                      <name>Scene - Puppet man_0003.453.png</name>
                      <pathurl>file://localhost/C:/Users/jmrey/OneDrive/Desktop/Programmin Stuff/Projects/conversation-simulator/resources/videos/Scene - Puppet man_0003/Scene - Puppet man_0003.453.png</pathurl>
                      <rate>
                        <timebase>24</timebase>
                        <ntsc>FALSE</ntsc>
                      </rate>
                      <duration>720</duration>
                      <timecode>
                        <rate>
                          <timebase>24</timebase>
                          <ntsc>FALSE</ntsc>
                        </rate>
                      </timecode>
                      <media>
                        <video>
                          <duration>1</duration>
                          <samplecharacteristics>
                            <anamorphic>FALSE</anamorphic>
                            <pixelaspectratio>square</pixelaspectratio>
                            <fielddominance>none</fielddominance>
                            <width>1920</width>
                            <height>1080</height>
                          </samplecharacteristics>
                        </video>
                      </media>
                    </file>
                  </clipitem>
                </track>
              </video>
            </media>
          </clip>
          <clip explodedTracks="true" frameBlend="FALSE" id="masterclip-456">
            <uuid>d7a92e0b-5126-459c-b7bc-fea3f5d08169</uuid>
            <masterclipid>masterclip-456</masterclipid>
            <ismasterclip>TRUE</ismasterclip>
            <duration>720</duration>
            <in>0</in>
            <out>720</out>
            <name>Scene - Puppet man_0003.454.png</name>
            <rate>
              <timebase>24</timebase>
              <ntsc>FALSE</ntsc>
            </rate>
            <media>
              <video>
                <track>
                  <clipitem frameBlend="FALSE" id="clipitem-457">
                    <name>Scene - Puppet man_0003.454.png</name>
                    <masterclipid>masterclip-456</masterclipid>
                    <rate>
                      <timebase>24</timebase>
                      <ntsc>FALSE</ntsc>
                    </rate>
                    <alphatype>straight</alphatype>
                    <pixelaspectratio>square</pixelaspectratio>
                    <anamorphic>FALSE</anamorphic>
                    <file id="file-456">
                      <name>Scene - Puppet man_0003.454.png</name>
                      <pathurl>file://localhost/C:/Users/jmrey/OneDrive/Desktop/Programmin Stuff/Projects/conversation-simulator/resources/videos/Scene - Puppet man_0003/Scene - Puppet man_0003.454.png</pathurl>
                      <rate>
                        <timebase>24</timebase>
                        <ntsc>FALSE</ntsc>
                      </rate>
                      <duration>720</duration>
                      <timecode>
                        <rate>
                          <timebase>24</timebase>
                          <ntsc>FALSE</ntsc>
                        </rate>
                      </timecode>
                      <media>
                        <video>
                          <duration>1</duration>
                          <samplecharacteristics>
                            <anamorphic>FALSE</anamorphic>
                            <pixelaspectratio>square</pixelaspectratio>
                            <fielddominance>none</fielddominance>
                            <width>1920</width>
                            <height>1080</height>
                          </samplecharacteristics>
                        </video>
                      </media>
                    </file>
                  </clipitem>
                </track>
              </video>
            </media>
          </clip>
          <clip explodedTracks="true" frameBlend="FALSE" id="masterclip-457">
            <uuid>dfbe2959-4e19-470f-84bf-c758bb85cd7e</uuid>
            <masterclipid>masterclip-457</masterclipid>
            <ismasterclip>TRUE</ismasterclip>
            <duration>720</duration>
            <in>0</in>
            <out>720</out>
            <name>Scene - Puppet man_0003.455.png</name>
            <rate>
              <timebase>24</timebase>
              <ntsc>FALSE</ntsc>
            </rate>
            <media>
              <video>
                <track>
                  <clipitem frameBlend="FALSE" id="clipitem-458">
                    <name>Scene - Puppet man_0003.455.png</name>
                    <masterclipid>masterclip-457</masterclipid>
                    <rate>
                      <timebase>24</timebase>
                      <ntsc>FALSE</ntsc>
                    </rate>
                    <alphatype>straight</alphatype>
                    <pixelaspectratio>square</pixelaspectratio>
                    <anamorphic>FALSE</anamorphic>
                    <file id="file-457">
                      <name>Scene - Puppet man_0003.455.png</name>
                      <pathurl>file://localhost/C:/Users/jmrey/OneDrive/Desktop/Programmin Stuff/Projects/conversation-simulator/resources/videos/Scene - Puppet man_0003/Scene - Puppet man_0003.455.png</pathurl>
                      <rate>
                        <timebase>24</timebase>
                        <ntsc>FALSE</ntsc>
                      </rate>
                      <duration>720</duration>
                      <timecode>
                        <rate>
                          <timebase>24</timebase>
                          <ntsc>FALSE</ntsc>
                        </rate>
                      </timecode>
                      <media>
                        <video>
                          <duration>1</duration>
                          <samplecharacteristics>
                            <anamorphic>FALSE</anamorphic>
                            <pixelaspectratio>square</pixelaspectratio>
                            <fielddominance>none</fielddominance>
                            <width>1920</width>
                            <height>1080</height>
                          </samplecharacteristics>
                        </video>
                      </media>
                    </file>
                  </clipitem>
                </track>
              </video>
            </media>
          </clip>
          <clip explodedTracks="true" frameBlend="FALSE" id="masterclip-458">
            <uuid>24798960-79f0-4a7c-81b3-40f2af1059c5</uuid>
            <masterclipid>masterclip-458</masterclipid>
            <ismasterclip>TRUE</ismasterclip>
            <duration>720</duration>
            <in>0</in>
            <out>720</out>
            <name>Scene - Puppet man_0003.456.png</name>
            <rate>
              <timebase>24</timebase>
              <ntsc>FALSE</ntsc>
            </rate>
            <media>
              <video>
                <track>
                  <clipitem frameBlend="FALSE" id="clipitem-459">
                    <name>Scene - Puppet man_0003.456.png</name>
                    <masterclipid>masterclip-458</masterclipid>
                    <rate>
                      <timebase>24</timebase>
                      <ntsc>FALSE</ntsc>
                    </rate>
                    <alphatype>straight</alphatype>
                    <pixelaspectratio>square</pixelaspectratio>
                    <anamorphic>FALSE</anamorphic>
                    <file id="file-458">
                      <name>Scene - Puppet man_0003.456.png</name>
                      <pathurl>file://localhost/C:/Users/jmrey/OneDrive/Desktop/Programmin Stuff/Projects/conversation-simulator/resources/videos/Scene - Puppet man_0003/Scene - Puppet man_0003.456.png</pathurl>
                      <rate>
                        <timebase>24</timebase>
                        <ntsc>FALSE</ntsc>
                      </rate>
                      <duration>720</duration>
                      <timecode>
                        <rate>
                          <timebase>24</timebase>
                          <ntsc>FALSE</ntsc>
                        </rate>
                      </timecode>
                      <media>
                        <video>
                          <duration>1</duration>
                          <samplecharacteristics>
                            <anamorphic>FALSE</anamorphic>
                            <pixelaspectratio>square</pixelaspectratio>
                            <fielddominance>none</fielddominance>
                            <width>1920</width>
                            <height>1080</height>
                          </samplecharacteristics>
                        </video>
                      </media>
                    </file>
                  </clipitem>
                </track>
              </video>
            </media>
          </clip>
          <clip explodedTracks="true" frameBlend="FALSE" id="masterclip-459">
            <uuid>3fa47330-cd48-4996-b267-a5aff95ef777</uuid>
            <masterclipid>masterclip-459</masterclipid>
            <ismasterclip>TRUE</ismasterclip>
            <duration>720</duration>
            <in>0</in>
            <out>720</out>
            <name>Scene - Puppet man_0003.457.png</name>
            <rate>
              <timebase>24</timebase>
              <ntsc>FALSE</ntsc>
            </rate>
            <media>
              <video>
                <track>
                  <clipitem frameBlend="FALSE" id="clipitem-460">
                    <name>Scene - Puppet man_0003.457.png</name>
                    <masterclipid>masterclip-459</masterclipid>
                    <rate>
                      <timebase>24</timebase>
                      <ntsc>FALSE</ntsc>
                    </rate>
                    <alphatype>straight</alphatype>
                    <pixelaspectratio>square</pixelaspectratio>
                    <anamorphic>FALSE</anamorphic>
                    <file id="file-459">
                      <name>Scene - Puppet man_0003.457.png</name>
                      <pathurl>file://localhost/C:/Users/jmrey/OneDrive/Desktop/Programmin Stuff/Projects/conversation-simulator/resources/videos/Scene - Puppet man_0003/Scene - Puppet man_0003.457.png</pathurl>
                      <rate>
                        <timebase>24</timebase>
                        <ntsc>FALSE</ntsc>
                      </rate>
                      <duration>720</duration>
                      <timecode>
                        <rate>
                          <timebase>24</timebase>
                          <ntsc>FALSE</ntsc>
                        </rate>
                      </timecode>
                      <media>
                        <video>
                          <duration>1</duration>
                          <samplecharacteristics>
                            <anamorphic>FALSE</anamorphic>
                            <pixelaspectratio>square</pixelaspectratio>
                            <fielddominance>none</fielddominance>
                            <width>1920</width>
                            <height>1080</height>
                          </samplecharacteristics>
                        </video>
                      </media>
                    </file>
                  </clipitem>
                </track>
              </video>
            </media>
          </clip>
          <clip explodedTracks="true" frameBlend="FALSE" id="masterclip-460">
            <uuid>1b0366c5-ea82-43b3-8d80-75f43b92df1e</uuid>
            <masterclipid>masterclip-460</masterclipid>
            <ismasterclip>TRUE</ismasterclip>
            <duration>720</duration>
            <in>0</in>
            <out>720</out>
            <name>Scene - Puppet man_0003.458.png</name>
            <rate>
              <timebase>24</timebase>
              <ntsc>FALSE</ntsc>
            </rate>
            <media>
              <video>
                <track>
                  <clipitem frameBlend="FALSE" id="clipitem-461">
                    <name>Scene - Puppet man_0003.458.png</name>
                    <masterclipid>masterclip-460</masterclipid>
                    <rate>
                      <timebase>24</timebase>
                      <ntsc>FALSE</ntsc>
                    </rate>
                    <alphatype>straight</alphatype>
                    <pixelaspectratio>square</pixelaspectratio>
                    <anamorphic>FALSE</anamorphic>
                    <file id="file-460">
                      <name>Scene - Puppet man_0003.458.png</name>
                      <pathurl>file://localhost/C:/Users/jmrey/OneDrive/Desktop/Programmin Stuff/Projects/conversation-simulator/resources/videos/Scene - Puppet man_0003/Scene - Puppet man_0003.458.png</pathurl>
                      <rate>
                        <timebase>24</timebase>
                        <ntsc>FALSE</ntsc>
                      </rate>
                      <duration>720</duration>
                      <timecode>
                        <rate>
                          <timebase>24</timebase>
                          <ntsc>FALSE</ntsc>
                        </rate>
                      </timecode>
                      <media>
                        <video>
                          <duration>1</duration>
                          <samplecharacteristics>
                            <anamorphic>FALSE</anamorphic>
                            <pixelaspectratio>square</pixelaspectratio>
                            <fielddominance>none</fielddominance>
                            <width>1920</width>
                            <height>1080</height>
                          </samplecharacteristics>
                        </video>
                      </media>
                    </file>
                  </clipitem>
                </track>
              </video>
            </media>
          </clip>
          <clip explodedTracks="true" frameBlend="FALSE" id="masterclip-461">
            <uuid>af3944ff-de45-424a-a295-c6ec0ffaf2b1</uuid>
            <masterclipid>masterclip-461</masterclipid>
            <ismasterclip>TRUE</ismasterclip>
            <duration>720</duration>
            <in>0</in>
            <out>720</out>
            <name>Scene - Puppet man_0003.459.png</name>
            <rate>
              <timebase>24</timebase>
              <ntsc>FALSE</ntsc>
            </rate>
            <media>
              <video>
                <track>
                  <clipitem frameBlend="FALSE" id="clipitem-462">
                    <name>Scene - Puppet man_0003.459.png</name>
                    <masterclipid>masterclip-461</masterclipid>
                    <rate>
                      <timebase>24</timebase>
                      <ntsc>FALSE</ntsc>
                    </rate>
                    <alphatype>straight</alphatype>
                    <pixelaspectratio>square</pixelaspectratio>
                    <anamorphic>FALSE</anamorphic>
                    <file id="file-461">
                      <name>Scene - Puppet man_0003.459.png</name>
                      <pathurl>file://localhost/C:/Users/jmrey/OneDrive/Desktop/Programmin Stuff/Projects/conversation-simulator/resources/videos/Scene - Puppet man_0003/Scene - Puppet man_0003.459.png</pathurl>
                      <rate>
                        <timebase>24</timebase>
                        <ntsc>FALSE</ntsc>
                      </rate>
                      <duration>720</duration>
                      <timecode>
                        <rate>
                          <timebase>24</timebase>
                          <ntsc>FALSE</ntsc>
                        </rate>
                      </timecode>
                      <media>
                        <video>
                          <duration>1</duration>
                          <samplecharacteristics>
                            <anamorphic>FALSE</anamorphic>
                            <pixelaspectratio>square</pixelaspectratio>
                            <fielddominance>none</fielddominance>
                            <width>1920</width>
                            <height>1080</height>
                          </samplecharacteristics>
                        </video>
                      </media>
                    </file>
                  </clipitem>
                </track>
              </video>
            </media>
          </clip>
          <clip explodedTracks="true" frameBlend="FALSE" id="masterclip-462">
            <uuid>1c3fae68-9de1-4984-8ec6-0e36bc443390</uuid>
            <masterclipid>masterclip-462</masterclipid>
            <ismasterclip>TRUE</ismasterclip>
            <duration>720</duration>
            <in>0</in>
            <out>720</out>
            <name>Scene - Puppet man_0003.460.png</name>
            <rate>
              <timebase>24</timebase>
              <ntsc>FALSE</ntsc>
            </rate>
            <media>
              <video>
                <track>
                  <clipitem frameBlend="FALSE" id="clipitem-463">
                    <name>Scene - Puppet man_0003.460.png</name>
                    <masterclipid>masterclip-462</masterclipid>
                    <rate>
                      <timebase>24</timebase>
                      <ntsc>FALSE</ntsc>
                    </rate>
                    <alphatype>straight</alphatype>
                    <pixelaspectratio>square</pixelaspectratio>
                    <anamorphic>FALSE</anamorphic>
                    <file id="file-462">
                      <name>Scene - Puppet man_0003.460.png</name>
                      <pathurl>file://localhost/C:/Users/jmrey/OneDrive/Desktop/Programmin Stuff/Projects/conversation-simulator/resources/videos/Scene - Puppet man_0003/Scene - Puppet man_0003.460.png</pathurl>
                      <rate>
                        <timebase>24</timebase>
                        <ntsc>FALSE</ntsc>
                      </rate>
                      <duration>720</duration>
                      <timecode>
                        <rate>
                          <timebase>24</timebase>
                          <ntsc>FALSE</ntsc>
                        </rate>
                      </timecode>
                      <media>
                        <video>
                          <duration>1</duration>
                          <samplecharacteristics>
                            <anamorphic>FALSE</anamorphic>
                            <pixelaspectratio>square</pixelaspectratio>
                            <fielddominance>none</fielddominance>
                            <width>1920</width>
                            <height>1080</height>
                          </samplecharacteristics>
                        </video>
                      </media>
                    </file>
                  </clipitem>
                </track>
              </video>
            </media>
          </clip>
          <clip explodedTracks="true" frameBlend="FALSE" id="masterclip-463">
            <uuid>4000a81c-6d17-41a7-818b-283bd3333dce</uuid>
            <masterclipid>masterclip-463</masterclipid>
            <ismasterclip>TRUE</ismasterclip>
            <duration>720</duration>
            <in>0</in>
            <out>720</out>
            <name>Scene - Puppet man_0003.461.png</name>
            <rate>
              <timebase>24</timebase>
              <ntsc>FALSE</ntsc>
            </rate>
            <media>
              <video>
                <track>
                  <clipitem frameBlend="FALSE" id="clipitem-464">
                    <name>Scene - Puppet man_0003.461.png</name>
                    <masterclipid>masterclip-463</masterclipid>
                    <rate>
                      <timebase>24</timebase>
                      <ntsc>FALSE</ntsc>
                    </rate>
                    <alphatype>straight</alphatype>
                    <pixelaspectratio>square</pixelaspectratio>
                    <anamorphic>FALSE</anamorphic>
                    <file id="file-463">
                      <name>Scene - Puppet man_0003.461.png</name>
                      <pathurl>file://localhost/C:/Users/jmrey/OneDrive/Desktop/Programmin Stuff/Projects/conversation-simulator/resources/videos/Scene - Puppet man_0003/Scene - Puppet man_0003.461.png</pathurl>
                      <rate>
                        <timebase>24</timebase>
                        <ntsc>FALSE</ntsc>
                      </rate>
                      <duration>720</duration>
                      <timecode>
                        <rate>
                          <timebase>24</timebase>
                          <ntsc>FALSE</ntsc>
                        </rate>
                      </timecode>
                      <media>
                        <video>
                          <duration>1</duration>
                          <samplecharacteristics>
                            <anamorphic>FALSE</anamorphic>
                            <pixelaspectratio>square</pixelaspectratio>
                            <fielddominance>none</fielddominance>
                            <width>1920</width>
                            <height>1080</height>
                          </samplecharacteristics>
                        </video>
                      </media>
                    </file>
                  </clipitem>
                </track>
              </video>
            </media>
          </clip>
          <clip explodedTracks="true" frameBlend="FALSE" id="masterclip-464">
            <uuid>9bea2568-245c-41c7-b25f-51618327150d</uuid>
            <masterclipid>masterclip-464</masterclipid>
            <ismasterclip>TRUE</ismasterclip>
            <duration>720</duration>
            <in>0</in>
            <out>720</out>
            <name>Scene - Puppet man_0003.462.png</name>
            <rate>
              <timebase>24</timebase>
              <ntsc>FALSE</ntsc>
            </rate>
            <media>
              <video>
                <track>
                  <clipitem frameBlend="FALSE" id="clipitem-465">
                    <name>Scene - Puppet man_0003.462.png</name>
                    <masterclipid>masterclip-464</masterclipid>
                    <rate>
                      <timebase>24</timebase>
                      <ntsc>FALSE</ntsc>
                    </rate>
                    <alphatype>straight</alphatype>
                    <pixelaspectratio>square</pixelaspectratio>
                    <anamorphic>FALSE</anamorphic>
                    <file id="file-464">
                      <name>Scene - Puppet man_0003.462.png</name>
                      <pathurl>file://localhost/C:/Users/jmrey/OneDrive/Desktop/Programmin Stuff/Projects/conversation-simulator/resources/videos/Scene - Puppet man_0003/Scene - Puppet man_0003.462.png</pathurl>
                      <rate>
                        <timebase>24</timebase>
                        <ntsc>FALSE</ntsc>
                      </rate>
                      <duration>720</duration>
                      <timecode>
                        <rate>
                          <timebase>24</timebase>
                          <ntsc>FALSE</ntsc>
                        </rate>
                      </timecode>
                      <media>
                        <video>
                          <duration>1</duration>
                          <samplecharacteristics>
                            <anamorphic>FALSE</anamorphic>
                            <pixelaspectratio>square</pixelaspectratio>
                            <fielddominance>none</fielddominance>
                            <width>1920</width>
                            <height>1080</height>
                          </samplecharacteristics>
                        </video>
                      </media>
                    </file>
                  </clipitem>
                </track>
              </video>
            </media>
          </clip>
          <clip explodedTracks="true" frameBlend="FALSE" id="masterclip-465">
            <uuid>c84e944c-5b64-43e5-9739-8fd3613d20be</uuid>
            <masterclipid>masterclip-465</masterclipid>
            <ismasterclip>TRUE</ismasterclip>
            <duration>720</duration>
            <in>0</in>
            <out>720</out>
            <name>Scene - Puppet man_0003.463.png</name>
            <rate>
              <timebase>24</timebase>
              <ntsc>FALSE</ntsc>
            </rate>
            <media>
              <video>
                <track>
                  <clipitem frameBlend="FALSE" id="clipitem-466">
                    <name>Scene - Puppet man_0003.463.png</name>
                    <masterclipid>masterclip-465</masterclipid>
                    <rate>
                      <timebase>24</timebase>
                      <ntsc>FALSE</ntsc>
                    </rate>
                    <alphatype>straight</alphatype>
                    <pixelaspectratio>square</pixelaspectratio>
                    <anamorphic>FALSE</anamorphic>
                    <file id="file-465">
                      <name>Scene - Puppet man_0003.463.png</name>
                      <pathurl>file://localhost/C:/Users/jmrey/OneDrive/Desktop/Programmin Stuff/Projects/conversation-simulator/resources/videos/Scene - Puppet man_0003/Scene - Puppet man_0003.463.png</pathurl>
                      <rate>
                        <timebase>24</timebase>
                        <ntsc>FALSE</ntsc>
                      </rate>
                      <duration>720</duration>
                      <timecode>
                        <rate>
                          <timebase>24</timebase>
                          <ntsc>FALSE</ntsc>
                        </rate>
                      </timecode>
                      <media>
                        <video>
                          <duration>1</duration>
                          <samplecharacteristics>
                            <anamorphic>FALSE</anamorphic>
                            <pixelaspectratio>square</pixelaspectratio>
                            <fielddominance>none</fielddominance>
                            <width>1920</width>
                            <height>1080</height>
                          </samplecharacteristics>
                        </video>
                      </media>
                    </file>
                  </clipitem>
                </track>
              </video>
            </media>
          </clip>
          <clip explodedTracks="true" frameBlend="FALSE" id="masterclip-466">
            <uuid>8ea20d64-c01e-4fcd-a80e-69df1126004f</uuid>
            <masterclipid>masterclip-466</masterclipid>
            <ismasterclip>TRUE</ismasterclip>
            <duration>720</duration>
            <in>0</in>
            <out>720</out>
            <name>Scene - Puppet man_0003.464.png</name>
            <rate>
              <timebase>24</timebase>
              <ntsc>FALSE</ntsc>
            </rate>
            <media>
              <video>
                <track>
                  <clipitem frameBlend="FALSE" id="clipitem-467">
                    <name>Scene - Puppet man_0003.464.png</name>
                    <masterclipid>masterclip-466</masterclipid>
                    <rate>
                      <timebase>24</timebase>
                      <ntsc>FALSE</ntsc>
                    </rate>
                    <alphatype>straight</alphatype>
                    <pixelaspectratio>square</pixelaspectratio>
                    <anamorphic>FALSE</anamorphic>
                    <file id="file-466">
                      <name>Scene - Puppet man_0003.464.png</name>
                      <pathurl>file://localhost/C:/Users/jmrey/OneDrive/Desktop/Programmin Stuff/Projects/conversation-simulator/resources/videos/Scene - Puppet man_0003/Scene - Puppet man_0003.464.png</pathurl>
                      <rate>
                        <timebase>24</timebase>
                        <ntsc>FALSE</ntsc>
                      </rate>
                      <duration>720</duration>
                      <timecode>
                        <rate>
                          <timebase>24</timebase>
                          <ntsc>FALSE</ntsc>
                        </rate>
                      </timecode>
                      <media>
                        <video>
                          <duration>1</duration>
                          <samplecharacteristics>
                            <anamorphic>FALSE</anamorphic>
                            <pixelaspectratio>square</pixelaspectratio>
                            <fielddominance>none</fielddominance>
                            <width>1920</width>
                            <height>1080</height>
                          </samplecharacteristics>
                        </video>
                      </media>
                    </file>
                  </clipitem>
                </track>
              </video>
            </media>
          </clip>
          <clip explodedTracks="true" frameBlend="FALSE" id="masterclip-467">
            <uuid>af8c8f8c-1340-476e-bc87-5db777d1c244</uuid>
            <masterclipid>masterclip-467</masterclipid>
            <ismasterclip>TRUE</ismasterclip>
            <duration>720</duration>
            <in>0</in>
            <out>720</out>
            <name>Scene - Puppet man_0003.465.png</name>
            <rate>
              <timebase>24</timebase>
              <ntsc>FALSE</ntsc>
            </rate>
            <media>
              <video>
                <track>
                  <clipitem frameBlend="FALSE" id="clipitem-468">
                    <name>Scene - Puppet man_0003.465.png</name>
                    <masterclipid>masterclip-467</masterclipid>
                    <rate>
                      <timebase>24</timebase>
                      <ntsc>FALSE</ntsc>
                    </rate>
                    <alphatype>straight</alphatype>
                    <pixelaspectratio>square</pixelaspectratio>
                    <anamorphic>FALSE</anamorphic>
                    <file id="file-467">
                      <name>Scene - Puppet man_0003.465.png</name>
                      <pathurl>file://localhost/C:/Users/jmrey/OneDrive/Desktop/Programmin Stuff/Projects/conversation-simulator/resources/videos/Scene - Puppet man_0003/Scene - Puppet man_0003.465.png</pathurl>
                      <rate>
                        <timebase>24</timebase>
                        <ntsc>FALSE</ntsc>
                      </rate>
                      <duration>720</duration>
                      <timecode>
                        <rate>
                          <timebase>24</timebase>
                          <ntsc>FALSE</ntsc>
                        </rate>
                      </timecode>
                      <media>
                        <video>
                          <duration>1</duration>
                          <samplecharacteristics>
                            <anamorphic>FALSE</anamorphic>
                            <pixelaspectratio>square</pixelaspectratio>
                            <fielddominance>none</fielddominance>
                            <width>1920</width>
                            <height>1080</height>
                          </samplecharacteristics>
                        </video>
                      </media>
                    </file>
                  </clipitem>
                </track>
              </video>
            </media>
          </clip>
          <clip explodedTracks="true" frameBlend="FALSE" id="masterclip-468">
            <uuid>0f302dfb-2452-408d-a39b-fca4184516ab</uuid>
            <masterclipid>masterclip-468</masterclipid>
            <ismasterclip>TRUE</ismasterclip>
            <duration>720</duration>
            <in>0</in>
            <out>720</out>
            <name>Scene - Puppet man_0003.466.png</name>
            <rate>
              <timebase>24</timebase>
              <ntsc>FALSE</ntsc>
            </rate>
            <media>
              <video>
                <track>
                  <clipitem frameBlend="FALSE" id="clipitem-469">
                    <name>Scene - Puppet man_0003.466.png</name>
                    <masterclipid>masterclip-468</masterclipid>
                    <rate>
                      <timebase>24</timebase>
                      <ntsc>FALSE</ntsc>
                    </rate>
                    <alphatype>straight</alphatype>
                    <pixelaspectratio>square</pixelaspectratio>
                    <anamorphic>FALSE</anamorphic>
                    <file id="file-468">
                      <name>Scene - Puppet man_0003.466.png</name>
                      <pathurl>file://localhost/C:/Users/jmrey/OneDrive/Desktop/Programmin Stuff/Projects/conversation-simulator/resources/videos/Scene - Puppet man_0003/Scene - Puppet man_0003.466.png</pathurl>
                      <rate>
                        <timebase>24</timebase>
                        <ntsc>FALSE</ntsc>
                      </rate>
                      <duration>720</duration>
                      <timecode>
                        <rate>
                          <timebase>24</timebase>
                          <ntsc>FALSE</ntsc>
                        </rate>
                      </timecode>
                      <media>
                        <video>
                          <duration>1</duration>
                          <samplecharacteristics>
                            <anamorphic>FALSE</anamorphic>
                            <pixelaspectratio>square</pixelaspectratio>
                            <fielddominance>none</fielddominance>
                            <width>1920</width>
                            <height>1080</height>
                          </samplecharacteristics>
                        </video>
                      </media>
                    </file>
                  </clipitem>
                </track>
              </video>
            </media>
          </clip>
          <clip explodedTracks="true" frameBlend="FALSE" id="masterclip-469">
            <uuid>a78ac21a-bb05-4347-9d80-e1a1eb6243c2</uuid>
            <masterclipid>masterclip-469</masterclipid>
            <ismasterclip>TRUE</ismasterclip>
            <duration>720</duration>
            <in>0</in>
            <out>720</out>
            <name>Scene - Puppet man_0003.467.png</name>
            <rate>
              <timebase>24</timebase>
              <ntsc>FALSE</ntsc>
            </rate>
            <media>
              <video>
                <track>
                  <clipitem frameBlend="FALSE" id="clipitem-470">
                    <name>Scene - Puppet man_0003.467.png</name>
                    <masterclipid>masterclip-469</masterclipid>
                    <rate>
                      <timebase>24</timebase>
                      <ntsc>FALSE</ntsc>
                    </rate>
                    <alphatype>straight</alphatype>
                    <pixelaspectratio>square</pixelaspectratio>
                    <anamorphic>FALSE</anamorphic>
                    <file id="file-469">
                      <name>Scene - Puppet man_0003.467.png</name>
                      <pathurl>file://localhost/C:/Users/jmrey/OneDrive/Desktop/Programmin Stuff/Projects/conversation-simulator/resources/videos/Scene - Puppet man_0003/Scene - Puppet man_0003.467.png</pathurl>
                      <rate>
                        <timebase>24</timebase>
                        <ntsc>FALSE</ntsc>
                      </rate>
                      <duration>720</duration>
                      <timecode>
                        <rate>
                          <timebase>24</timebase>
                          <ntsc>FALSE</ntsc>
                        </rate>
                      </timecode>
                      <media>
                        <video>
                          <duration>1</duration>
                          <samplecharacteristics>
                            <anamorphic>FALSE</anamorphic>
                            <pixelaspectratio>square</pixelaspectratio>
                            <fielddominance>none</fielddominance>
                            <width>1920</width>
                            <height>1080</height>
                          </samplecharacteristics>
                        </video>
                      </media>
                    </file>
                  </clipitem>
                </track>
              </video>
            </media>
          </clip>
          <clip explodedTracks="true" frameBlend="FALSE" id="masterclip-470">
            <uuid>d2983dfe-7fda-476b-8574-83f62a5f37a9</uuid>
            <masterclipid>masterclip-470</masterclipid>
            <ismasterclip>TRUE</ismasterclip>
            <duration>720</duration>
            <in>0</in>
            <out>720</out>
            <name>Scene - Puppet man_0003.468.png</name>
            <rate>
              <timebase>24</timebase>
              <ntsc>FALSE</ntsc>
            </rate>
            <media>
              <video>
                <track>
                  <clipitem frameBlend="FALSE" id="clipitem-471">
                    <name>Scene - Puppet man_0003.468.png</name>
                    <masterclipid>masterclip-470</masterclipid>
                    <rate>
                      <timebase>24</timebase>
                      <ntsc>FALSE</ntsc>
                    </rate>
                    <alphatype>straight</alphatype>
                    <pixelaspectratio>square</pixelaspectratio>
                    <anamorphic>FALSE</anamorphic>
                    <file id="file-470">
                      <name>Scene - Puppet man_0003.468.png</name>
                      <pathurl>file://localhost/C:/Users/jmrey/OneDrive/Desktop/Programmin Stuff/Projects/conversation-simulator/resources/videos/Scene - Puppet man_0003/Scene - Puppet man_0003.468.png</pathurl>
                      <rate>
                        <timebase>24</timebase>
                        <ntsc>FALSE</ntsc>
                      </rate>
                      <duration>720</duration>
                      <timecode>
                        <rate>
                          <timebase>24</timebase>
                          <ntsc>FALSE</ntsc>
                        </rate>
                      </timecode>
                      <media>
                        <video>
                          <duration>1</duration>
                          <samplecharacteristics>
                            <anamorphic>FALSE</anamorphic>
                            <pixelaspectratio>square</pixelaspectratio>
                            <fielddominance>none</fielddominance>
                            <width>1920</width>
                            <height>1080</height>
                          </samplecharacteristics>
                        </video>
                      </media>
                    </file>
                  </clipitem>
                </track>
              </video>
            </media>
          </clip>
          <clip explodedTracks="true" frameBlend="FALSE" id="masterclip-471">
            <uuid>a2b491af-db77-4110-bc24-a34b80915d85</uuid>
            <masterclipid>masterclip-471</masterclipid>
            <ismasterclip>TRUE</ismasterclip>
            <duration>720</duration>
            <in>0</in>
            <out>720</out>
            <name>Scene - Puppet man_0003.469.png</name>
            <rate>
              <timebase>24</timebase>
              <ntsc>FALSE</ntsc>
            </rate>
            <media>
              <video>
                <track>
                  <clipitem frameBlend="FALSE" id="clipitem-472">
                    <name>Scene - Puppet man_0003.469.png</name>
                    <masterclipid>masterclip-471</masterclipid>
                    <rate>
                      <timebase>24</timebase>
                      <ntsc>FALSE</ntsc>
                    </rate>
                    <alphatype>straight</alphatype>
                    <pixelaspectratio>square</pixelaspectratio>
                    <anamorphic>FALSE</anamorphic>
                    <file id="file-471">
                      <name>Scene - Puppet man_0003.469.png</name>
                      <pathurl>file://localhost/C:/Users/jmrey/OneDrive/Desktop/Programmin Stuff/Projects/conversation-simulator/resources/videos/Scene - Puppet man_0003/Scene - Puppet man_0003.469.png</pathurl>
                      <rate>
                        <timebase>24</timebase>
                        <ntsc>FALSE</ntsc>
                      </rate>
                      <duration>720</duration>
                      <timecode>
                        <rate>
                          <timebase>24</timebase>
                          <ntsc>FALSE</ntsc>
                        </rate>
                      </timecode>
                      <media>
                        <video>
                          <duration>1</duration>
                          <samplecharacteristics>
                            <anamorphic>FALSE</anamorphic>
                            <pixelaspectratio>square</pixelaspectratio>
                            <fielddominance>none</fielddominance>
                            <width>1920</width>
                            <height>1080</height>
                          </samplecharacteristics>
                        </video>
                      </media>
                    </file>
                  </clipitem>
                </track>
              </video>
            </media>
          </clip>
          <clip explodedTracks="true" frameBlend="FALSE" id="masterclip-472">
            <uuid>f169dcf5-fe7f-4c94-9e86-476bd1db8ad7</uuid>
            <masterclipid>masterclip-472</masterclipid>
            <ismasterclip>TRUE</ismasterclip>
            <duration>720</duration>
            <in>0</in>
            <out>720</out>
            <name>Scene - Puppet man_0003.470.png</name>
            <rate>
              <timebase>24</timebase>
              <ntsc>FALSE</ntsc>
            </rate>
            <media>
              <video>
                <track>
                  <clipitem frameBlend="FALSE" id="clipitem-473">
                    <name>Scene - Puppet man_0003.470.png</name>
                    <masterclipid>masterclip-472</masterclipid>
                    <rate>
                      <timebase>24</timebase>
                      <ntsc>FALSE</ntsc>
                    </rate>
                    <alphatype>straight</alphatype>
                    <pixelaspectratio>square</pixelaspectratio>
                    <anamorphic>FALSE</anamorphic>
                    <file id="file-472">
                      <name>Scene - Puppet man_0003.470.png</name>
                      <pathurl>file://localhost/C:/Users/jmrey/OneDrive/Desktop/Programmin Stuff/Projects/conversation-simulator/resources/videos/Scene - Puppet man_0003/Scene - Puppet man_0003.470.png</pathurl>
                      <rate>
                        <timebase>24</timebase>
                        <ntsc>FALSE</ntsc>
                      </rate>
                      <duration>720</duration>
                      <timecode>
                        <rate>
                          <timebase>24</timebase>
                          <ntsc>FALSE</ntsc>
                        </rate>
                      </timecode>
                      <media>
                        <video>
                          <duration>1</duration>
                          <samplecharacteristics>
                            <anamorphic>FALSE</anamorphic>
                            <pixelaspectratio>square</pixelaspectratio>
                            <fielddominance>none</fielddominance>
                            <width>1920</width>
                            <height>1080</height>
                          </samplecharacteristics>
                        </video>
                      </media>
                    </file>
                  </clipitem>
                </track>
              </video>
            </media>
          </clip>
          <clip explodedTracks="true" frameBlend="FALSE" id="masterclip-473">
            <uuid>0bbf9dcc-ab9c-4045-ab24-4d9e92a348e1</uuid>
            <masterclipid>masterclip-473</masterclipid>
            <ismasterclip>TRUE</ismasterclip>
            <duration>720</duration>
            <in>0</in>
            <out>720</out>
            <name>Scene - Puppet man_0003.471.png</name>
            <rate>
              <timebase>24</timebase>
              <ntsc>FALSE</ntsc>
            </rate>
            <media>
              <video>
                <track>
                  <clipitem frameBlend="FALSE" id="clipitem-474">
                    <name>Scene - Puppet man_0003.471.png</name>
                    <masterclipid>masterclip-473</masterclipid>
                    <rate>
                      <timebase>24</timebase>
                      <ntsc>FALSE</ntsc>
                    </rate>
                    <alphatype>straight</alphatype>
                    <pixelaspectratio>square</pixelaspectratio>
                    <anamorphic>FALSE</anamorphic>
                    <file id="file-473">
                      <name>Scene - Puppet man_0003.471.png</name>
                      <pathurl>file://localhost/C:/Users/jmrey/OneDrive/Desktop/Programmin Stuff/Projects/conversation-simulator/resources/videos/Scene - Puppet man_0003/Scene - Puppet man_0003.471.png</pathurl>
                      <rate>
                        <timebase>24</timebase>
                        <ntsc>FALSE</ntsc>
                      </rate>
                      <duration>720</duration>
                      <timecode>
                        <rate>
                          <timebase>24</timebase>
                          <ntsc>FALSE</ntsc>
                        </rate>
                      </timecode>
                      <media>
                        <video>
                          <duration>1</duration>
                          <samplecharacteristics>
                            <anamorphic>FALSE</anamorphic>
                            <pixelaspectratio>square</pixelaspectratio>
                            <fielddominance>none</fielddominance>
                            <width>1920</width>
                            <height>1080</height>
                          </samplecharacteristics>
                        </video>
                      </media>
                    </file>
                  </clipitem>
                </track>
              </video>
            </media>
          </clip>
          <clip explodedTracks="true" frameBlend="FALSE" id="masterclip-474">
            <uuid>732a049c-b744-455a-9fae-5f87278c062b</uuid>
            <masterclipid>masterclip-474</masterclipid>
            <ismasterclip>TRUE</ismasterclip>
            <duration>720</duration>
            <in>0</in>
            <out>720</out>
            <name>Scene - Puppet man_0003.472.png</name>
            <rate>
              <timebase>24</timebase>
              <ntsc>FALSE</ntsc>
            </rate>
            <media>
              <video>
                <track>
                  <clipitem frameBlend="FALSE" id="clipitem-475">
                    <name>Scene - Puppet man_0003.472.png</name>
                    <masterclipid>masterclip-474</masterclipid>
                    <rate>
                      <timebase>24</timebase>
                      <ntsc>FALSE</ntsc>
                    </rate>
                    <alphatype>straight</alphatype>
                    <pixelaspectratio>square</pixelaspectratio>
                    <anamorphic>FALSE</anamorphic>
                    <file id="file-474">
                      <name>Scene - Puppet man_0003.472.png</name>
                      <pathurl>file://localhost/C:/Users/jmrey/OneDrive/Desktop/Programmin Stuff/Projects/conversation-simulator/resources/videos/Scene - Puppet man_0003/Scene - Puppet man_0003.472.png</pathurl>
                      <rate>
                        <timebase>24</timebase>
                        <ntsc>FALSE</ntsc>
                      </rate>
                      <duration>720</duration>
                      <timecode>
                        <rate>
                          <timebase>24</timebase>
                          <ntsc>FALSE</ntsc>
                        </rate>
                      </timecode>
                      <media>
                        <video>
                          <duration>1</duration>
                          <samplecharacteristics>
                            <anamorphic>FALSE</anamorphic>
                            <pixelaspectratio>square</pixelaspectratio>
                            <fielddominance>none</fielddominance>
                            <width>1920</width>
                            <height>1080</height>
                          </samplecharacteristics>
                        </video>
                      </media>
                    </file>
                  </clipitem>
                </track>
              </video>
            </media>
          </clip>
          <clip explodedTracks="true" frameBlend="FALSE" id="masterclip-475">
            <uuid>0aceae0f-3b11-405c-b5d1-c274c4097478</uuid>
            <masterclipid>masterclip-475</masterclipid>
            <ismasterclip>TRUE</ismasterclip>
            <duration>720</duration>
            <in>0</in>
            <out>720</out>
            <name>Scene - Puppet man_0003.473.png</name>
            <rate>
              <timebase>24</timebase>
              <ntsc>FALSE</ntsc>
            </rate>
            <media>
              <video>
                <track>
                  <clipitem frameBlend="FALSE" id="clipitem-476">
                    <name>Scene - Puppet man_0003.473.png</name>
                    <masterclipid>masterclip-475</masterclipid>
                    <rate>
                      <timebase>24</timebase>
                      <ntsc>FALSE</ntsc>
                    </rate>
                    <alphatype>straight</alphatype>
                    <pixelaspectratio>square</pixelaspectratio>
                    <anamorphic>FALSE</anamorphic>
                    <file id="file-475">
                      <name>Scene - Puppet man_0003.473.png</name>
                      <pathurl>file://localhost/C:/Users/jmrey/OneDrive/Desktop/Programmin Stuff/Projects/conversation-simulator/resources/videos/Scene - Puppet man_0003/Scene - Puppet man_0003.473.png</pathurl>
                      <rate>
                        <timebase>24</timebase>
                        <ntsc>FALSE</ntsc>
                      </rate>
                      <duration>720</duration>
                      <timecode>
                        <rate>
                          <timebase>24</timebase>
                          <ntsc>FALSE</ntsc>
                        </rate>
                      </timecode>
                      <media>
                        <video>
                          <duration>1</duration>
                          <samplecharacteristics>
                            <anamorphic>FALSE</anamorphic>
                            <pixelaspectratio>square</pixelaspectratio>
                            <fielddominance>none</fielddominance>
                            <width>1920</width>
                            <height>1080</height>
                          </samplecharacteristics>
                        </video>
                      </media>
                    </file>
                  </clipitem>
                </track>
              </video>
            </media>
          </clip>
          <clip explodedTracks="true" frameBlend="FALSE" id="masterclip-476">
            <uuid>0705e74b-aeb9-4e91-9e57-2cd737a43095</uuid>
            <masterclipid>masterclip-476</masterclipid>
            <ismasterclip>TRUE</ismasterclip>
            <duration>720</duration>
            <in>0</in>
            <out>720</out>
            <name>Scene - Puppet man_0003.474.png</name>
            <rate>
              <timebase>24</timebase>
              <ntsc>FALSE</ntsc>
            </rate>
            <media>
              <video>
                <track>
                  <clipitem frameBlend="FALSE" id="clipitem-477">
                    <name>Scene - Puppet man_0003.474.png</name>
                    <masterclipid>masterclip-476</masterclipid>
                    <rate>
                      <timebase>24</timebase>
                      <ntsc>FALSE</ntsc>
                    </rate>
                    <alphatype>straight</alphatype>
                    <pixelaspectratio>square</pixelaspectratio>
                    <anamorphic>FALSE</anamorphic>
                    <file id="file-476">
                      <name>Scene - Puppet man_0003.474.png</name>
                      <pathurl>file://localhost/C:/Users/jmrey/OneDrive/Desktop/Programmin Stuff/Projects/conversation-simulator/resources/videos/Scene - Puppet man_0003/Scene - Puppet man_0003.474.png</pathurl>
                      <rate>
                        <timebase>24</timebase>
                        <ntsc>FALSE</ntsc>
                      </rate>
                      <duration>720</duration>
                      <timecode>
                        <rate>
                          <timebase>24</timebase>
                          <ntsc>FALSE</ntsc>
                        </rate>
                      </timecode>
                      <media>
                        <video>
                          <duration>1</duration>
                          <samplecharacteristics>
                            <anamorphic>FALSE</anamorphic>
                            <pixelaspectratio>square</pixelaspectratio>
                            <fielddominance>none</fielddominance>
                            <width>1920</width>
                            <height>1080</height>
                          </samplecharacteristics>
                        </video>
                      </media>
                    </file>
                  </clipitem>
                </track>
              </video>
            </media>
          </clip>
          <clip explodedTracks="true" frameBlend="FALSE" id="masterclip-477">
            <uuid>880aa638-0896-4f6f-9d7c-f3d289061b4b</uuid>
            <masterclipid>masterclip-477</masterclipid>
            <ismasterclip>TRUE</ismasterclip>
            <duration>720</duration>
            <in>0</in>
            <out>720</out>
            <name>Scene - Puppet man_0003.475.png</name>
            <rate>
              <timebase>24</timebase>
              <ntsc>FALSE</ntsc>
            </rate>
            <media>
              <video>
                <track>
                  <clipitem frameBlend="FALSE" id="clipitem-478">
                    <name>Scene - Puppet man_0003.475.png</name>
                    <masterclipid>masterclip-477</masterclipid>
                    <rate>
                      <timebase>24</timebase>
                      <ntsc>FALSE</ntsc>
                    </rate>
                    <alphatype>straight</alphatype>
                    <pixelaspectratio>square</pixelaspectratio>
                    <anamorphic>FALSE</anamorphic>
                    <file id="file-477">
                      <name>Scene - Puppet man_0003.475.png</name>
                      <pathurl>file://localhost/C:/Users/jmrey/OneDrive/Desktop/Programmin Stuff/Projects/conversation-simulator/resources/videos/Scene - Puppet man_0003/Scene - Puppet man_0003.475.png</pathurl>
                      <rate>
                        <timebase>24</timebase>
                        <ntsc>FALSE</ntsc>
                      </rate>
                      <duration>720</duration>
                      <timecode>
                        <rate>
                          <timebase>24</timebase>
                          <ntsc>FALSE</ntsc>
                        </rate>
                      </timecode>
                      <media>
                        <video>
                          <duration>1</duration>
                          <samplecharacteristics>
                            <anamorphic>FALSE</anamorphic>
                            <pixelaspectratio>square</pixelaspectratio>
                            <fielddominance>none</fielddominance>
                            <width>1920</width>
                            <height>1080</height>
                          </samplecharacteristics>
                        </video>
                      </media>
                    </file>
                  </clipitem>
                </track>
              </video>
            </media>
          </clip>
          <clip explodedTracks="true" frameBlend="FALSE" id="masterclip-478">
            <uuid>f76c994e-9258-499d-9a48-f9936f67c023</uuid>
            <masterclipid>masterclip-478</masterclipid>
            <ismasterclip>TRUE</ismasterclip>
            <duration>720</duration>
            <in>0</in>
            <out>720</out>
            <name>Scene - Puppet man_0003.476.png</name>
            <rate>
              <timebase>24</timebase>
              <ntsc>FALSE</ntsc>
            </rate>
            <media>
              <video>
                <track>
                  <clipitem frameBlend="FALSE" id="clipitem-479">
                    <name>Scene - Puppet man_0003.476.png</name>
                    <masterclipid>masterclip-478</masterclipid>
                    <rate>
                      <timebase>24</timebase>
                      <ntsc>FALSE</ntsc>
                    </rate>
                    <alphatype>straight</alphatype>
                    <pixelaspectratio>square</pixelaspectratio>
                    <anamorphic>FALSE</anamorphic>
                    <file id="file-478">
                      <name>Scene - Puppet man_0003.476.png</name>
                      <pathurl>file://localhost/C:/Users/jmrey/OneDrive/Desktop/Programmin Stuff/Projects/conversation-simulator/resources/videos/Scene - Puppet man_0003/Scene - Puppet man_0003.476.png</pathurl>
                      <rate>
                        <timebase>24</timebase>
                        <ntsc>FALSE</ntsc>
                      </rate>
                      <duration>720</duration>
                      <timecode>
                        <rate>
                          <timebase>24</timebase>
                          <ntsc>FALSE</ntsc>
                        </rate>
                      </timecode>
                      <media>
                        <video>
                          <duration>1</duration>
                          <samplecharacteristics>
                            <anamorphic>FALSE</anamorphic>
                            <pixelaspectratio>square</pixelaspectratio>
                            <fielddominance>none</fielddominance>
                            <width>1920</width>
                            <height>1080</height>
                          </samplecharacteristics>
                        </video>
                      </media>
                    </file>
                  </clipitem>
                </track>
              </video>
            </media>
          </clip>
          <clip explodedTracks="true" frameBlend="FALSE" id="masterclip-479">
            <uuid>7716a586-0d2f-4c81-a518-1aab421d3c07</uuid>
            <masterclipid>masterclip-479</masterclipid>
            <ismasterclip>TRUE</ismasterclip>
            <duration>720</duration>
            <in>0</in>
            <out>720</out>
            <name>Scene - Puppet man_0003.477.png</name>
            <rate>
              <timebase>24</timebase>
              <ntsc>FALSE</ntsc>
            </rate>
            <media>
              <video>
                <track>
                  <clipitem frameBlend="FALSE" id="clipitem-480">
                    <name>Scene - Puppet man_0003.477.png</name>
                    <masterclipid>masterclip-479</masterclipid>
                    <rate>
                      <timebase>24</timebase>
                      <ntsc>FALSE</ntsc>
                    </rate>
                    <alphatype>straight</alphatype>
                    <pixelaspectratio>square</pixelaspectratio>
                    <anamorphic>FALSE</anamorphic>
                    <file id="file-479">
                      <name>Scene - Puppet man_0003.477.png</name>
                      <pathurl>file://localhost/C:/Users/jmrey/OneDrive/Desktop/Programmin Stuff/Projects/conversation-simulator/resources/videos/Scene - Puppet man_0003/Scene - Puppet man_0003.477.png</pathurl>
                      <rate>
                        <timebase>24</timebase>
                        <ntsc>FALSE</ntsc>
                      </rate>
                      <duration>720</duration>
                      <timecode>
                        <rate>
                          <timebase>24</timebase>
                          <ntsc>FALSE</ntsc>
                        </rate>
                      </timecode>
                      <media>
                        <video>
                          <duration>1</duration>
                          <samplecharacteristics>
                            <anamorphic>FALSE</anamorphic>
                            <pixelaspectratio>square</pixelaspectratio>
                            <fielddominance>none</fielddominance>
                            <width>1920</width>
                            <height>1080</height>
                          </samplecharacteristics>
                        </video>
                      </media>
                    </file>
                  </clipitem>
                </track>
              </video>
            </media>
          </clip>
          <clip explodedTracks="true" frameBlend="FALSE" id="masterclip-480">
            <uuid>8b2ffa65-5a32-4cc3-95fc-46c5eb18fb6f</uuid>
            <masterclipid>masterclip-480</masterclipid>
            <ismasterclip>TRUE</ismasterclip>
            <duration>720</duration>
            <in>0</in>
            <out>720</out>
            <name>Scene - Puppet man_0003.478.png</name>
            <rate>
              <timebase>24</timebase>
              <ntsc>FALSE</ntsc>
            </rate>
            <media>
              <video>
                <track>
                  <clipitem frameBlend="FALSE" id="clipitem-481">
                    <name>Scene - Puppet man_0003.478.png</name>
                    <masterclipid>masterclip-480</masterclipid>
                    <rate>
                      <timebase>24</timebase>
                      <ntsc>FALSE</ntsc>
                    </rate>
                    <alphatype>straight</alphatype>
                    <pixelaspectratio>square</pixelaspectratio>
                    <anamorphic>FALSE</anamorphic>
                    <file id="file-480">
                      <name>Scene - Puppet man_0003.478.png</name>
                      <pathurl>file://localhost/C:/Users/jmrey/OneDrive/Desktop/Programmin Stuff/Projects/conversation-simulator/resources/videos/Scene - Puppet man_0003/Scene - Puppet man_0003.478.png</pathurl>
                      <rate>
                        <timebase>24</timebase>
                        <ntsc>FALSE</ntsc>
                      </rate>
                      <duration>720</duration>
                      <timecode>
                        <rate>
                          <timebase>24</timebase>
                          <ntsc>FALSE</ntsc>
                        </rate>
                      </timecode>
                      <media>
                        <video>
                          <duration>1</duration>
                          <samplecharacteristics>
                            <anamorphic>FALSE</anamorphic>
                            <pixelaspectratio>square</pixelaspectratio>
                            <fielddominance>none</fielddominance>
                            <width>1920</width>
                            <height>1080</height>
                          </samplecharacteristics>
                        </video>
                      </media>
                    </file>
                  </clipitem>
                </track>
              </video>
            </media>
          </clip>
          <clip explodedTracks="true" frameBlend="FALSE" id="masterclip-481">
            <uuid>32853b7f-8a46-4179-ba91-aa64442bd097</uuid>
            <masterclipid>masterclip-481</masterclipid>
            <ismasterclip>TRUE</ismasterclip>
            <duration>720</duration>
            <in>0</in>
            <out>720</out>
            <name>Scene - Puppet man_0003.479.png</name>
            <rate>
              <timebase>24</timebase>
              <ntsc>FALSE</ntsc>
            </rate>
            <media>
              <video>
                <track>
                  <clipitem frameBlend="FALSE" id="clipitem-482">
                    <name>Scene - Puppet man_0003.479.png</name>
                    <masterclipid>masterclip-481</masterclipid>
                    <rate>
                      <timebase>24</timebase>
                      <ntsc>FALSE</ntsc>
                    </rate>
                    <alphatype>straight</alphatype>
                    <pixelaspectratio>square</pixelaspectratio>
                    <anamorphic>FALSE</anamorphic>
                    <file id="file-481">
                      <name>Scene - Puppet man_0003.479.png</name>
                      <pathurl>file://localhost/C:/Users/jmrey/OneDrive/Desktop/Programmin Stuff/Projects/conversation-simulator/resources/videos/Scene - Puppet man_0003/Scene - Puppet man_0003.479.png</pathurl>
                      <rate>
                        <timebase>24</timebase>
                        <ntsc>FALSE</ntsc>
                      </rate>
                      <duration>720</duration>
                      <timecode>
                        <rate>
                          <timebase>24</timebase>
                          <ntsc>FALSE</ntsc>
                        </rate>
                      </timecode>
                      <media>
                        <video>
                          <duration>1</duration>
                          <samplecharacteristics>
                            <anamorphic>FALSE</anamorphic>
                            <pixelaspectratio>square</pixelaspectratio>
                            <fielddominance>none</fielddominance>
                            <width>1920</width>
                            <height>1080</height>
                          </samplecharacteristics>
                        </video>
                      </media>
                    </file>
                  </clipitem>
                </track>
              </video>
            </media>
          </clip>
          <clip explodedTracks="true" frameBlend="FALSE" id="masterclip-482">
            <uuid>7c1ce0f7-f99c-44aa-89ea-1ce30ef2003a</uuid>
            <masterclipid>masterclip-482</masterclipid>
            <ismasterclip>TRUE</ismasterclip>
            <duration>720</duration>
            <in>0</in>
            <out>720</out>
            <name>Scene - Puppet man_0003.480.png</name>
            <rate>
              <timebase>24</timebase>
              <ntsc>FALSE</ntsc>
            </rate>
            <media>
              <video>
                <track>
                  <clipitem frameBlend="FALSE" id="clipitem-483">
                    <name>Scene - Puppet man_0003.480.png</name>
                    <masterclipid>masterclip-482</masterclipid>
                    <rate>
                      <timebase>24</timebase>
                      <ntsc>FALSE</ntsc>
                    </rate>
                    <alphatype>straight</alphatype>
                    <pixelaspectratio>square</pixelaspectratio>
                    <anamorphic>FALSE</anamorphic>
                    <file id="file-482">
                      <name>Scene - Puppet man_0003.480.png</name>
                      <pathurl>file://localhost/C:/Users/jmrey/OneDrive/Desktop/Programmin Stuff/Projects/conversation-simulator/resources/videos/Scene - Puppet man_0003/Scene - Puppet man_0003.480.png</pathurl>
                      <rate>
                        <timebase>24</timebase>
                        <ntsc>FALSE</ntsc>
                      </rate>
                      <duration>720</duration>
                      <timecode>
                        <rate>
                          <timebase>24</timebase>
                          <ntsc>FALSE</ntsc>
                        </rate>
                      </timecode>
                      <media>
                        <video>
                          <duration>1</duration>
                          <samplecharacteristics>
                            <anamorphic>FALSE</anamorphic>
                            <pixelaspectratio>square</pixelaspectratio>
                            <fielddominance>none</fielddominance>
                            <width>1920</width>
                            <height>1080</height>
                          </samplecharacteristics>
                        </video>
                      </media>
                    </file>
                  </clipitem>
                </track>
              </video>
            </media>
          </clip>
          <clip explodedTracks="true" frameBlend="FALSE" id="masterclip-483">
            <uuid>090c76f3-cbae-4762-999d-51008dc72b5b</uuid>
            <masterclipid>masterclip-483</masterclipid>
            <ismasterclip>TRUE</ismasterclip>
            <duration>720</duration>
            <in>0</in>
            <out>720</out>
            <name>Scene - Puppet man_0003.481.png</name>
            <rate>
              <timebase>24</timebase>
              <ntsc>FALSE</ntsc>
            </rate>
            <media>
              <video>
                <track>
                  <clipitem frameBlend="FALSE" id="clipitem-484">
                    <name>Scene - Puppet man_0003.481.png</name>
                    <masterclipid>masterclip-483</masterclipid>
                    <rate>
                      <timebase>24</timebase>
                      <ntsc>FALSE</ntsc>
                    </rate>
                    <alphatype>straight</alphatype>
                    <pixelaspectratio>square</pixelaspectratio>
                    <anamorphic>FALSE</anamorphic>
                    <file id="file-483">
                      <name>Scene - Puppet man_0003.481.png</name>
                      <pathurl>file://localhost/C:/Users/jmrey/OneDrive/Desktop/Programmin Stuff/Projects/conversation-simulator/resources/videos/Scene - Puppet man_0003/Scene - Puppet man_0003.481.png</pathurl>
                      <rate>
                        <timebase>24</timebase>
                        <ntsc>FALSE</ntsc>
                      </rate>
                      <duration>720</duration>
                      <timecode>
                        <rate>
                          <timebase>24</timebase>
                          <ntsc>FALSE</ntsc>
                        </rate>
                      </timecode>
                      <media>
                        <video>
                          <duration>1</duration>
                          <samplecharacteristics>
                            <anamorphic>FALSE</anamorphic>
                            <pixelaspectratio>square</pixelaspectratio>
                            <fielddominance>none</fielddominance>
                            <width>1920</width>
                            <height>1080</height>
                          </samplecharacteristics>
                        </video>
                      </media>
                    </file>
                  </clipitem>
                </track>
              </video>
            </media>
          </clip>
          <clip explodedTracks="true" frameBlend="FALSE" id="masterclip-484">
            <uuid>2b466bf0-4bf3-4337-8d30-e332046db702</uuid>
            <masterclipid>masterclip-484</masterclipid>
            <ismasterclip>TRUE</ismasterclip>
            <duration>720</duration>
            <in>0</in>
            <out>720</out>
            <name>Scene - Puppet man_0003.482.png</name>
            <rate>
              <timebase>24</timebase>
              <ntsc>FALSE</ntsc>
            </rate>
            <media>
              <video>
                <track>
                  <clipitem frameBlend="FALSE" id="clipitem-485">
                    <name>Scene - Puppet man_0003.482.png</name>
                    <masterclipid>masterclip-484</masterclipid>
                    <rate>
                      <timebase>24</timebase>
                      <ntsc>FALSE</ntsc>
                    </rate>
                    <alphatype>straight</alphatype>
                    <pixelaspectratio>square</pixelaspectratio>
                    <anamorphic>FALSE</anamorphic>
                    <file id="file-484">
                      <name>Scene - Puppet man_0003.482.png</name>
                      <pathurl>file://localhost/C:/Users/jmrey/OneDrive/Desktop/Programmin Stuff/Projects/conversation-simulator/resources/videos/Scene - Puppet man_0003/Scene - Puppet man_0003.482.png</pathurl>
                      <rate>
                        <timebase>24</timebase>
                        <ntsc>FALSE</ntsc>
                      </rate>
                      <duration>720</duration>
                      <timecode>
                        <rate>
                          <timebase>24</timebase>
                          <ntsc>FALSE</ntsc>
                        </rate>
                      </timecode>
                      <media>
                        <video>
                          <duration>1</duration>
                          <samplecharacteristics>
                            <anamorphic>FALSE</anamorphic>
                            <pixelaspectratio>square</pixelaspectratio>
                            <fielddominance>none</fielddominance>
                            <width>1920</width>
                            <height>1080</height>
                          </samplecharacteristics>
                        </video>
                      </media>
                    </file>
                  </clipitem>
                </track>
              </video>
            </media>
          </clip>
          <clip explodedTracks="true" frameBlend="FALSE" id="masterclip-485">
            <uuid>0e14fa52-8ba1-4359-9ffe-31fdb6b4a787</uuid>
            <masterclipid>masterclip-485</masterclipid>
            <ismasterclip>TRUE</ismasterclip>
            <duration>720</duration>
            <in>0</in>
            <out>720</out>
            <name>Scene - Puppet man_0003.483.png</name>
            <rate>
              <timebase>24</timebase>
              <ntsc>FALSE</ntsc>
            </rate>
            <media>
              <video>
                <track>
                  <clipitem frameBlend="FALSE" id="clipitem-486">
                    <name>Scene - Puppet man_0003.483.png</name>
                    <masterclipid>masterclip-485</masterclipid>
                    <rate>
                      <timebase>24</timebase>
                      <ntsc>FALSE</ntsc>
                    </rate>
                    <alphatype>straight</alphatype>
                    <pixelaspectratio>square</pixelaspectratio>
                    <anamorphic>FALSE</anamorphic>
                    <file id="file-485">
                      <name>Scene - Puppet man_0003.483.png</name>
                      <pathurl>file://localhost/C:/Users/jmrey/OneDrive/Desktop/Programmin Stuff/Projects/conversation-simulator/resources/videos/Scene - Puppet man_0003/Scene - Puppet man_0003.483.png</pathurl>
                      <rate>
                        <timebase>24</timebase>
                        <ntsc>FALSE</ntsc>
                      </rate>
                      <duration>720</duration>
                      <timecode>
                        <rate>
                          <timebase>24</timebase>
                          <ntsc>FALSE</ntsc>
                        </rate>
                      </timecode>
                      <media>
                        <video>
                          <duration>1</duration>
                          <samplecharacteristics>
                            <anamorphic>FALSE</anamorphic>
                            <pixelaspectratio>square</pixelaspectratio>
                            <fielddominance>none</fielddominance>
                            <width>1920</width>
                            <height>1080</height>
                          </samplecharacteristics>
                        </video>
                      </media>
                    </file>
                  </clipitem>
                </track>
              </video>
            </media>
          </clip>
          <clip explodedTracks="true" frameBlend="FALSE" id="masterclip-486">
            <uuid>22cd7bad-504d-4eaa-95af-ab5463cd44c9</uuid>
            <masterclipid>masterclip-486</masterclipid>
            <ismasterclip>TRUE</ismasterclip>
            <duration>720</duration>
            <in>0</in>
            <out>720</out>
            <name>Scene - Puppet man_0003.484.png</name>
            <rate>
              <timebase>24</timebase>
              <ntsc>FALSE</ntsc>
            </rate>
            <media>
              <video>
                <track>
                  <clipitem frameBlend="FALSE" id="clipitem-487">
                    <name>Scene - Puppet man_0003.484.png</name>
                    <masterclipid>masterclip-486</masterclipid>
                    <rate>
                      <timebase>24</timebase>
                      <ntsc>FALSE</ntsc>
                    </rate>
                    <alphatype>straight</alphatype>
                    <pixelaspectratio>square</pixelaspectratio>
                    <anamorphic>FALSE</anamorphic>
                    <file id="file-486">
                      <name>Scene - Puppet man_0003.484.png</name>
                      <pathurl>file://localhost/C:/Users/jmrey/OneDrive/Desktop/Programmin Stuff/Projects/conversation-simulator/resources/videos/Scene - Puppet man_0003/Scene - Puppet man_0003.484.png</pathurl>
                      <rate>
                        <timebase>24</timebase>
                        <ntsc>FALSE</ntsc>
                      </rate>
                      <duration>720</duration>
                      <timecode>
                        <rate>
                          <timebase>24</timebase>
                          <ntsc>FALSE</ntsc>
                        </rate>
                      </timecode>
                      <media>
                        <video>
                          <duration>1</duration>
                          <samplecharacteristics>
                            <anamorphic>FALSE</anamorphic>
                            <pixelaspectratio>square</pixelaspectratio>
                            <fielddominance>none</fielddominance>
                            <width>1920</width>
                            <height>1080</height>
                          </samplecharacteristics>
                        </video>
                      </media>
                    </file>
                  </clipitem>
                </track>
              </video>
            </media>
          </clip>
          <clip explodedTracks="true" frameBlend="FALSE" id="masterclip-487">
            <uuid>1c81c482-fec8-4938-9bd5-484af5b5992a</uuid>
            <masterclipid>masterclip-487</masterclipid>
            <ismasterclip>TRUE</ismasterclip>
            <duration>720</duration>
            <in>0</in>
            <out>720</out>
            <name>Scene - Puppet man_0003.485.png</name>
            <rate>
              <timebase>24</timebase>
              <ntsc>FALSE</ntsc>
            </rate>
            <media>
              <video>
                <track>
                  <clipitem frameBlend="FALSE" id="clipitem-488">
                    <name>Scene - Puppet man_0003.485.png</name>
                    <masterclipid>masterclip-487</masterclipid>
                    <rate>
                      <timebase>24</timebase>
                      <ntsc>FALSE</ntsc>
                    </rate>
                    <alphatype>straight</alphatype>
                    <pixelaspectratio>square</pixelaspectratio>
                    <anamorphic>FALSE</anamorphic>
                    <file id="file-487">
                      <name>Scene - Puppet man_0003.485.png</name>
                      <pathurl>file://localhost/C:/Users/jmrey/OneDrive/Desktop/Programmin Stuff/Projects/conversation-simulator/resources/videos/Scene - Puppet man_0003/Scene - Puppet man_0003.485.png</pathurl>
                      <rate>
                        <timebase>24</timebase>
                        <ntsc>FALSE</ntsc>
                      </rate>
                      <duration>720</duration>
                      <timecode>
                        <rate>
                          <timebase>24</timebase>
                          <ntsc>FALSE</ntsc>
                        </rate>
                      </timecode>
                      <media>
                        <video>
                          <duration>1</duration>
                          <samplecharacteristics>
                            <anamorphic>FALSE</anamorphic>
                            <pixelaspectratio>square</pixelaspectratio>
                            <fielddominance>none</fielddominance>
                            <width>1920</width>
                            <height>1080</height>
                          </samplecharacteristics>
                        </video>
                      </media>
                    </file>
                  </clipitem>
                </track>
              </video>
            </media>
          </clip>
          <clip explodedTracks="true" frameBlend="FALSE" id="masterclip-488">
            <uuid>f2e0760f-1cb8-453c-80d0-6a1e3d897a74</uuid>
            <masterclipid>masterclip-488</masterclipid>
            <ismasterclip>TRUE</ismasterclip>
            <duration>720</duration>
            <in>0</in>
            <out>720</out>
            <name>Scene - Puppet man_0003.486.png</name>
            <rate>
              <timebase>24</timebase>
              <ntsc>FALSE</ntsc>
            </rate>
            <media>
              <video>
                <track>
                  <clipitem frameBlend="FALSE" id="clipitem-489">
                    <name>Scene - Puppet man_0003.486.png</name>
                    <masterclipid>masterclip-488</masterclipid>
                    <rate>
                      <timebase>24</timebase>
                      <ntsc>FALSE</ntsc>
                    </rate>
                    <alphatype>straight</alphatype>
                    <pixelaspectratio>square</pixelaspectratio>
                    <anamorphic>FALSE</anamorphic>
                    <file id="file-488">
                      <name>Scene - Puppet man_0003.486.png</name>
                      <pathurl>file://localhost/C:/Users/jmrey/OneDrive/Desktop/Programmin Stuff/Projects/conversation-simulator/resources/videos/Scene - Puppet man_0003/Scene - Puppet man_0003.486.png</pathurl>
                      <rate>
                        <timebase>24</timebase>
                        <ntsc>FALSE</ntsc>
                      </rate>
                      <duration>720</duration>
                      <timecode>
                        <rate>
                          <timebase>24</timebase>
                          <ntsc>FALSE</ntsc>
                        </rate>
                      </timecode>
                      <media>
                        <video>
                          <duration>1</duration>
                          <samplecharacteristics>
                            <anamorphic>FALSE</anamorphic>
                            <pixelaspectratio>square</pixelaspectratio>
                            <fielddominance>none</fielddominance>
                            <width>1920</width>
                            <height>1080</height>
                          </samplecharacteristics>
                        </video>
                      </media>
                    </file>
                  </clipitem>
                </track>
              </video>
            </media>
          </clip>
          <clip explodedTracks="true" frameBlend="FALSE" id="masterclip-489">
            <uuid>86a53311-e57b-4606-9ae5-77f3412be405</uuid>
            <masterclipid>masterclip-489</masterclipid>
            <ismasterclip>TRUE</ismasterclip>
            <duration>720</duration>
            <in>0</in>
            <out>720</out>
            <name>Scene - Puppet man_0003.487.png</name>
            <rate>
              <timebase>24</timebase>
              <ntsc>FALSE</ntsc>
            </rate>
            <media>
              <video>
                <track>
                  <clipitem frameBlend="FALSE" id="clipitem-490">
                    <name>Scene - Puppet man_0003.487.png</name>
                    <masterclipid>masterclip-489</masterclipid>
                    <rate>
                      <timebase>24</timebase>
                      <ntsc>FALSE</ntsc>
                    </rate>
                    <alphatype>straight</alphatype>
                    <pixelaspectratio>square</pixelaspectratio>
                    <anamorphic>FALSE</anamorphic>
                    <file id="file-489">
                      <name>Scene - Puppet man_0003.487.png</name>
                      <pathurl>file://localhost/C:/Users/jmrey/OneDrive/Desktop/Programmin Stuff/Projects/conversation-simulator/resources/videos/Scene - Puppet man_0003/Scene - Puppet man_0003.487.png</pathurl>
                      <rate>
                        <timebase>24</timebase>
                        <ntsc>FALSE</ntsc>
                      </rate>
                      <duration>720</duration>
                      <timecode>
                        <rate>
                          <timebase>24</timebase>
                          <ntsc>FALSE</ntsc>
                        </rate>
                      </timecode>
                      <media>
                        <video>
                          <duration>1</duration>
                          <samplecharacteristics>
                            <anamorphic>FALSE</anamorphic>
                            <pixelaspectratio>square</pixelaspectratio>
                            <fielddominance>none</fielddominance>
                            <width>1920</width>
                            <height>1080</height>
                          </samplecharacteristics>
                        </video>
                      </media>
                    </file>
                  </clipitem>
                </track>
              </video>
            </media>
          </clip>
          <clip explodedTracks="true" frameBlend="FALSE" id="masterclip-490">
            <uuid>16dac3e1-7aca-4c49-8679-2a50838e777c</uuid>
            <masterclipid>masterclip-490</masterclipid>
            <ismasterclip>TRUE</ismasterclip>
            <duration>720</duration>
            <in>0</in>
            <out>720</out>
            <name>Scene - Puppet man_0003.488.png</name>
            <rate>
              <timebase>24</timebase>
              <ntsc>FALSE</ntsc>
            </rate>
            <media>
              <video>
                <track>
                  <clipitem frameBlend="FALSE" id="clipitem-491">
                    <name>Scene - Puppet man_0003.488.png</name>
                    <masterclipid>masterclip-490</masterclipid>
                    <rate>
                      <timebase>24</timebase>
                      <ntsc>FALSE</ntsc>
                    </rate>
                    <alphatype>straight</alphatype>
                    <pixelaspectratio>square</pixelaspectratio>
                    <anamorphic>FALSE</anamorphic>
                    <file id="file-490">
                      <name>Scene - Puppet man_0003.488.png</name>
                      <pathurl>file://localhost/C:/Users/jmrey/OneDrive/Desktop/Programmin Stuff/Projects/conversation-simulator/resources/videos/Scene - Puppet man_0003/Scene - Puppet man_0003.488.png</pathurl>
                      <rate>
                        <timebase>24</timebase>
                        <ntsc>FALSE</ntsc>
                      </rate>
                      <duration>720</duration>
                      <timecode>
                        <rate>
                          <timebase>24</timebase>
                          <ntsc>FALSE</ntsc>
                        </rate>
                      </timecode>
                      <media>
                        <video>
                          <duration>1</duration>
                          <samplecharacteristics>
                            <anamorphic>FALSE</anamorphic>
                            <pixelaspectratio>square</pixelaspectratio>
                            <fielddominance>none</fielddominance>
                            <width>1920</width>
                            <height>1080</height>
                          </samplecharacteristics>
                        </video>
                      </media>
                    </file>
                  </clipitem>
                </track>
              </video>
            </media>
          </clip>
          <clip explodedTracks="true" frameBlend="FALSE" id="masterclip-491">
            <uuid>d8f22d23-9988-4204-b9d3-348c7bfd6307</uuid>
            <masterclipid>masterclip-491</masterclipid>
            <ismasterclip>TRUE</ismasterclip>
            <duration>720</duration>
            <in>0</in>
            <out>720</out>
            <name>Scene - Puppet man_0003.489.png</name>
            <rate>
              <timebase>24</timebase>
              <ntsc>FALSE</ntsc>
            </rate>
            <media>
              <video>
                <track>
                  <clipitem frameBlend="FALSE" id="clipitem-492">
                    <name>Scene - Puppet man_0003.489.png</name>
                    <masterclipid>masterclip-491</masterclipid>
                    <rate>
                      <timebase>24</timebase>
                      <ntsc>FALSE</ntsc>
                    </rate>
                    <alphatype>straight</alphatype>
                    <pixelaspectratio>square</pixelaspectratio>
                    <anamorphic>FALSE</anamorphic>
                    <file id="file-491">
                      <name>Scene - Puppet man_0003.489.png</name>
                      <pathurl>file://localhost/C:/Users/jmrey/OneDrive/Desktop/Programmin Stuff/Projects/conversation-simulator/resources/videos/Scene - Puppet man_0003/Scene - Puppet man_0003.489.png</pathurl>
                      <rate>
                        <timebase>24</timebase>
                        <ntsc>FALSE</ntsc>
                      </rate>
                      <duration>720</duration>
                      <timecode>
                        <rate>
                          <timebase>24</timebase>
                          <ntsc>FALSE</ntsc>
                        </rate>
                      </timecode>
                      <media>
                        <video>
                          <duration>1</duration>
                          <samplecharacteristics>
                            <anamorphic>FALSE</anamorphic>
                            <pixelaspectratio>square</pixelaspectratio>
                            <fielddominance>none</fielddominance>
                            <width>1920</width>
                            <height>1080</height>
                          </samplecharacteristics>
                        </video>
                      </media>
                    </file>
                  </clipitem>
                </track>
              </video>
            </media>
          </clip>
          <clip explodedTracks="true" frameBlend="FALSE" id="masterclip-492">
            <uuid>263223ee-51eb-4dce-beac-782ced599d6d</uuid>
            <masterclipid>masterclip-492</masterclipid>
            <ismasterclip>TRUE</ismasterclip>
            <duration>720</duration>
            <in>0</in>
            <out>720</out>
            <name>Scene - Puppet man_0003.490.png</name>
            <rate>
              <timebase>24</timebase>
              <ntsc>FALSE</ntsc>
            </rate>
            <media>
              <video>
                <track>
                  <clipitem frameBlend="FALSE" id="clipitem-493">
                    <name>Scene - Puppet man_0003.490.png</name>
                    <masterclipid>masterclip-492</masterclipid>
                    <rate>
                      <timebase>24</timebase>
                      <ntsc>FALSE</ntsc>
                    </rate>
                    <alphatype>straight</alphatype>
                    <pixelaspectratio>square</pixelaspectratio>
                    <anamorphic>FALSE</anamorphic>
                    <file id="file-492">
                      <name>Scene - Puppet man_0003.490.png</name>
                      <pathurl>file://localhost/C:/Users/jmrey/OneDrive/Desktop/Programmin Stuff/Projects/conversation-simulator/resources/videos/Scene - Puppet man_0003/Scene - Puppet man_0003.490.png</pathurl>
                      <rate>
                        <timebase>24</timebase>
                        <ntsc>FALSE</ntsc>
                      </rate>
                      <duration>720</duration>
                      <timecode>
                        <rate>
                          <timebase>24</timebase>
                          <ntsc>FALSE</ntsc>
                        </rate>
                      </timecode>
                      <media>
                        <video>
                          <duration>1</duration>
                          <samplecharacteristics>
                            <anamorphic>FALSE</anamorphic>
                            <pixelaspectratio>square</pixelaspectratio>
                            <fielddominance>none</fielddominance>
                            <width>1920</width>
                            <height>1080</height>
                          </samplecharacteristics>
                        </video>
                      </media>
                    </file>
                  </clipitem>
                </track>
              </video>
            </media>
          </clip>
          <clip explodedTracks="true" frameBlend="FALSE" id="masterclip-493">
            <uuid>9fe01a5d-3cad-46f0-8c78-011ca5a9a30b</uuid>
            <masterclipid>masterclip-493</masterclipid>
            <ismasterclip>TRUE</ismasterclip>
            <duration>720</duration>
            <in>0</in>
            <out>720</out>
            <name>Scene - Puppet man_0003.491.png</name>
            <rate>
              <timebase>24</timebase>
              <ntsc>FALSE</ntsc>
            </rate>
            <media>
              <video>
                <track>
                  <clipitem frameBlend="FALSE" id="clipitem-494">
                    <name>Scene - Puppet man_0003.491.png</name>
                    <masterclipid>masterclip-493</masterclipid>
                    <rate>
                      <timebase>24</timebase>
                      <ntsc>FALSE</ntsc>
                    </rate>
                    <alphatype>straight</alphatype>
                    <pixelaspectratio>square</pixelaspectratio>
                    <anamorphic>FALSE</anamorphic>
                    <file id="file-493">
                      <name>Scene - Puppet man_0003.491.png</name>
                      <pathurl>file://localhost/C:/Users/jmrey/OneDrive/Desktop/Programmin Stuff/Projects/conversation-simulator/resources/videos/Scene - Puppet man_0003/Scene - Puppet man_0003.491.png</pathurl>
                      <rate>
                        <timebase>24</timebase>
                        <ntsc>FALSE</ntsc>
                      </rate>
                      <duration>720</duration>
                      <timecode>
                        <rate>
                          <timebase>24</timebase>
                          <ntsc>FALSE</ntsc>
                        </rate>
                      </timecode>
                      <media>
                        <video>
                          <duration>1</duration>
                          <samplecharacteristics>
                            <anamorphic>FALSE</anamorphic>
                            <pixelaspectratio>square</pixelaspectratio>
                            <fielddominance>none</fielddominance>
                            <width>1920</width>
                            <height>1080</height>
                          </samplecharacteristics>
                        </video>
                      </media>
                    </file>
                  </clipitem>
                </track>
              </video>
            </media>
          </clip>
          <clip explodedTracks="true" frameBlend="FALSE" id="masterclip-494">
            <uuid>6f929982-2665-484e-ba34-18ed947b93ba</uuid>
            <masterclipid>masterclip-494</masterclipid>
            <ismasterclip>TRUE</ismasterclip>
            <duration>720</duration>
            <in>0</in>
            <out>720</out>
            <name>Scene - Puppet man_0003.492.png</name>
            <rate>
              <timebase>24</timebase>
              <ntsc>FALSE</ntsc>
            </rate>
            <media>
              <video>
                <track>
                  <clipitem frameBlend="FALSE" id="clipitem-495">
                    <name>Scene - Puppet man_0003.492.png</name>
                    <masterclipid>masterclip-494</masterclipid>
                    <rate>
                      <timebase>24</timebase>
                      <ntsc>FALSE</ntsc>
                    </rate>
                    <alphatype>straight</alphatype>
                    <pixelaspectratio>square</pixelaspectratio>
                    <anamorphic>FALSE</anamorphic>
                    <file id="file-494">
                      <name>Scene - Puppet man_0003.492.png</name>
                      <pathurl>file://localhost/C:/Users/jmrey/OneDrive/Desktop/Programmin Stuff/Projects/conversation-simulator/resources/videos/Scene - Puppet man_0003/Scene - Puppet man_0003.492.png</pathurl>
                      <rate>
                        <timebase>24</timebase>
                        <ntsc>FALSE</ntsc>
                      </rate>
                      <duration>720</duration>
                      <timecode>
                        <rate>
                          <timebase>24</timebase>
                          <ntsc>FALSE</ntsc>
                        </rate>
                      </timecode>
                      <media>
                        <video>
                          <duration>1</duration>
                          <samplecharacteristics>
                            <anamorphic>FALSE</anamorphic>
                            <pixelaspectratio>square</pixelaspectratio>
                            <fielddominance>none</fielddominance>
                            <width>1920</width>
                            <height>1080</height>
                          </samplecharacteristics>
                        </video>
                      </media>
                    </file>
                  </clipitem>
                </track>
              </video>
            </media>
          </clip>
          <clip explodedTracks="true" frameBlend="FALSE" id="masterclip-495">
            <uuid>7857daf1-c630-4dfc-97e8-d1dc50954ee6</uuid>
            <masterclipid>masterclip-495</masterclipid>
            <ismasterclip>TRUE</ismasterclip>
            <duration>720</duration>
            <in>0</in>
            <out>720</out>
            <name>Scene - Puppet man_0003.493.png</name>
            <rate>
              <timebase>24</timebase>
              <ntsc>FALSE</ntsc>
            </rate>
            <media>
              <video>
                <track>
                  <clipitem frameBlend="FALSE" id="clipitem-496">
                    <name>Scene - Puppet man_0003.493.png</name>
                    <masterclipid>masterclip-495</masterclipid>
                    <rate>
                      <timebase>24</timebase>
                      <ntsc>FALSE</ntsc>
                    </rate>
                    <alphatype>straight</alphatype>
                    <pixelaspectratio>square</pixelaspectratio>
                    <anamorphic>FALSE</anamorphic>
                    <file id="file-495">
                      <name>Scene - Puppet man_0003.493.png</name>
                      <pathurl>file://localhost/C:/Users/jmrey/OneDrive/Desktop/Programmin Stuff/Projects/conversation-simulator/resources/videos/Scene - Puppet man_0003/Scene - Puppet man_0003.493.png</pathurl>
                      <rate>
                        <timebase>24</timebase>
                        <ntsc>FALSE</ntsc>
                      </rate>
                      <duration>720</duration>
                      <timecode>
                        <rate>
                          <timebase>24</timebase>
                          <ntsc>FALSE</ntsc>
                        </rate>
                      </timecode>
                      <media>
                        <video>
                          <duration>1</duration>
                          <samplecharacteristics>
                            <anamorphic>FALSE</anamorphic>
                            <pixelaspectratio>square</pixelaspectratio>
                            <fielddominance>none</fielddominance>
                            <width>1920</width>
                            <height>1080</height>
                          </samplecharacteristics>
                        </video>
                      </media>
                    </file>
                  </clipitem>
                </track>
              </video>
            </media>
          </clip>
          <clip explodedTracks="true" frameBlend="FALSE" id="masterclip-496">
            <uuid>b690b755-c30d-46a9-a30f-45a728918048</uuid>
            <masterclipid>masterclip-496</masterclipid>
            <ismasterclip>TRUE</ismasterclip>
            <duration>720</duration>
            <in>0</in>
            <out>720</out>
            <name>Scene - Puppet man_0003.494.png</name>
            <rate>
              <timebase>24</timebase>
              <ntsc>FALSE</ntsc>
            </rate>
            <media>
              <video>
                <track>
                  <clipitem frameBlend="FALSE" id="clipitem-497">
                    <name>Scene - Puppet man_0003.494.png</name>
                    <masterclipid>masterclip-496</masterclipid>
                    <rate>
                      <timebase>24</timebase>
                      <ntsc>FALSE</ntsc>
                    </rate>
                    <alphatype>straight</alphatype>
                    <pixelaspectratio>square</pixelaspectratio>
                    <anamorphic>FALSE</anamorphic>
                    <file id="file-496">
                      <name>Scene - Puppet man_0003.494.png</name>
                      <pathurl>file://localhost/C:/Users/jmrey/OneDrive/Desktop/Programmin Stuff/Projects/conversation-simulator/resources/videos/Scene - Puppet man_0003/Scene - Puppet man_0003.494.png</pathurl>
                      <rate>
                        <timebase>24</timebase>
                        <ntsc>FALSE</ntsc>
                      </rate>
                      <duration>720</duration>
                      <timecode>
                        <rate>
                          <timebase>24</timebase>
                          <ntsc>FALSE</ntsc>
                        </rate>
                      </timecode>
                      <media>
                        <video>
                          <duration>1</duration>
                          <samplecharacteristics>
                            <anamorphic>FALSE</anamorphic>
                            <pixelaspectratio>square</pixelaspectratio>
                            <fielddominance>none</fielddominance>
                            <width>1920</width>
                            <height>1080</height>
                          </samplecharacteristics>
                        </video>
                      </media>
                    </file>
                  </clipitem>
                </track>
              </video>
            </media>
          </clip>
          <clip explodedTracks="true" frameBlend="FALSE" id="masterclip-497">
            <uuid>4c85674e-b335-407d-8bf0-bf9875bf1d95</uuid>
            <masterclipid>masterclip-497</masterclipid>
            <ismasterclip>TRUE</ismasterclip>
            <duration>720</duration>
            <in>0</in>
            <out>720</out>
            <name>Scene - Puppet man_0003.495.png</name>
            <rate>
              <timebase>24</timebase>
              <ntsc>FALSE</ntsc>
            </rate>
            <media>
              <video>
                <track>
                  <clipitem frameBlend="FALSE" id="clipitem-498">
                    <name>Scene - Puppet man_0003.495.png</name>
                    <masterclipid>masterclip-497</masterclipid>
                    <rate>
                      <timebase>24</timebase>
                      <ntsc>FALSE</ntsc>
                    </rate>
                    <alphatype>straight</alphatype>
                    <pixelaspectratio>square</pixelaspectratio>
                    <anamorphic>FALSE</anamorphic>
                    <file id="file-497">
                      <name>Scene - Puppet man_0003.495.png</name>
                      <pathurl>file://localhost/C:/Users/jmrey/OneDrive/Desktop/Programmin Stuff/Projects/conversation-simulator/resources/videos/Scene - Puppet man_0003/Scene - Puppet man_0003.495.png</pathurl>
                      <rate>
                        <timebase>24</timebase>
                        <ntsc>FALSE</ntsc>
                      </rate>
                      <duration>720</duration>
                      <timecode>
                        <rate>
                          <timebase>24</timebase>
                          <ntsc>FALSE</ntsc>
                        </rate>
                      </timecode>
                      <media>
                        <video>
                          <duration>1</duration>
                          <samplecharacteristics>
                            <anamorphic>FALSE</anamorphic>
                            <pixelaspectratio>square</pixelaspectratio>
                            <fielddominance>none</fielddominance>
                            <width>1920</width>
                            <height>1080</height>
                          </samplecharacteristics>
                        </video>
                      </media>
                    </file>
                  </clipitem>
                </track>
              </video>
            </media>
          </clip>
          <clip explodedTracks="true" frameBlend="FALSE" id="masterclip-498">
            <uuid>0afb34d3-14d0-4271-96b9-c4b073eb002e</uuid>
            <masterclipid>masterclip-498</masterclipid>
            <ismasterclip>TRUE</ismasterclip>
            <duration>720</duration>
            <in>0</in>
            <out>720</out>
            <name>Scene - Puppet man_0003.496.png</name>
            <rate>
              <timebase>24</timebase>
              <ntsc>FALSE</ntsc>
            </rate>
            <media>
              <video>
                <track>
                  <clipitem frameBlend="FALSE" id="clipitem-499">
                    <name>Scene - Puppet man_0003.496.png</name>
                    <masterclipid>masterclip-498</masterclipid>
                    <rate>
                      <timebase>24</timebase>
                      <ntsc>FALSE</ntsc>
                    </rate>
                    <alphatype>straight</alphatype>
                    <pixelaspectratio>square</pixelaspectratio>
                    <anamorphic>FALSE</anamorphic>
                    <file id="file-498">
                      <name>Scene - Puppet man_0003.496.png</name>
                      <pathurl>file://localhost/C:/Users/jmrey/OneDrive/Desktop/Programmin Stuff/Projects/conversation-simulator/resources/videos/Scene - Puppet man_0003/Scene - Puppet man_0003.496.png</pathurl>
                      <rate>
                        <timebase>24</timebase>
                        <ntsc>FALSE</ntsc>
                      </rate>
                      <duration>720</duration>
                      <timecode>
                        <rate>
                          <timebase>24</timebase>
                          <ntsc>FALSE</ntsc>
                        </rate>
                      </timecode>
                      <media>
                        <video>
                          <duration>1</duration>
                          <samplecharacteristics>
                            <anamorphic>FALSE</anamorphic>
                            <pixelaspectratio>square</pixelaspectratio>
                            <fielddominance>none</fielddominance>
                            <width>1920</width>
                            <height>1080</height>
                          </samplecharacteristics>
                        </video>
                      </media>
                    </file>
                  </clipitem>
                </track>
              </video>
            </media>
          </clip>
          <clip explodedTracks="true" frameBlend="FALSE" id="masterclip-499">
            <uuid>fb10b64e-a88d-4b55-8ff7-84e4de58ea4a</uuid>
            <masterclipid>masterclip-499</masterclipid>
            <ismasterclip>TRUE</ismasterclip>
            <duration>720</duration>
            <in>0</in>
            <out>720</out>
            <name>Scene - Puppet man_0003.497.png</name>
            <rate>
              <timebase>24</timebase>
              <ntsc>FALSE</ntsc>
            </rate>
            <media>
              <video>
                <track>
                  <clipitem frameBlend="FALSE" id="clipitem-500">
                    <name>Scene - Puppet man_0003.497.png</name>
                    <masterclipid>masterclip-499</masterclipid>
                    <rate>
                      <timebase>24</timebase>
                      <ntsc>FALSE</ntsc>
                    </rate>
                    <alphatype>straight</alphatype>
                    <pixelaspectratio>square</pixelaspectratio>
                    <anamorphic>FALSE</anamorphic>
                    <file id="file-499">
                      <name>Scene - Puppet man_0003.497.png</name>
                      <pathurl>file://localhost/C:/Users/jmrey/OneDrive/Desktop/Programmin Stuff/Projects/conversation-simulator/resources/videos/Scene - Puppet man_0003/Scene - Puppet man_0003.497.png</pathurl>
                      <rate>
                        <timebase>24</timebase>
                        <ntsc>FALSE</ntsc>
                      </rate>
                      <duration>720</duration>
                      <timecode>
                        <rate>
                          <timebase>24</timebase>
                          <ntsc>FALSE</ntsc>
                        </rate>
                      </timecode>
                      <media>
                        <video>
                          <duration>1</duration>
                          <samplecharacteristics>
                            <anamorphic>FALSE</anamorphic>
                            <pixelaspectratio>square</pixelaspectratio>
                            <fielddominance>none</fielddominance>
                            <width>1920</width>
                            <height>1080</height>
                          </samplecharacteristics>
                        </video>
                      </media>
                    </file>
                  </clipitem>
                </track>
              </video>
            </media>
          </clip>
          <clip explodedTracks="true" frameBlend="FALSE" id="masterclip-500">
            <uuid>812870fe-70f7-4422-a9d0-2c4bb38ab671</uuid>
            <masterclipid>masterclip-500</masterclipid>
            <ismasterclip>TRUE</ismasterclip>
            <duration>720</duration>
            <in>0</in>
            <out>720</out>
            <name>Scene - Puppet man_0003.498.png</name>
            <rate>
              <timebase>24</timebase>
              <ntsc>FALSE</ntsc>
            </rate>
            <media>
              <video>
                <track>
                  <clipitem frameBlend="FALSE" id="clipitem-501">
                    <name>Scene - Puppet man_0003.498.png</name>
                    <masterclipid>masterclip-500</masterclipid>
                    <rate>
                      <timebase>24</timebase>
                      <ntsc>FALSE</ntsc>
                    </rate>
                    <alphatype>straight</alphatype>
                    <pixelaspectratio>square</pixelaspectratio>
                    <anamorphic>FALSE</anamorphic>
                    <file id="file-500">
                      <name>Scene - Puppet man_0003.498.png</name>
                      <pathurl>file://localhost/C:/Users/jmrey/OneDrive/Desktop/Programmin Stuff/Projects/conversation-simulator/resources/videos/Scene - Puppet man_0003/Scene - Puppet man_0003.498.png</pathurl>
                      <rate>
                        <timebase>24</timebase>
                        <ntsc>FALSE</ntsc>
                      </rate>
                      <duration>720</duration>
                      <timecode>
                        <rate>
                          <timebase>24</timebase>
                          <ntsc>FALSE</ntsc>
                        </rate>
                      </timecode>
                      <media>
                        <video>
                          <duration>1</duration>
                          <samplecharacteristics>
                            <anamorphic>FALSE</anamorphic>
                            <pixelaspectratio>square</pixelaspectratio>
                            <fielddominance>none</fielddominance>
                            <width>1920</width>
                            <height>1080</height>
                          </samplecharacteristics>
                        </video>
                      </media>
                    </file>
                  </clipitem>
                </track>
              </video>
            </media>
          </clip>
          <clip explodedTracks="true" frameBlend="FALSE" id="masterclip-501">
            <uuid>223bef5e-ab88-4171-b906-3fcc93c336fb</uuid>
            <masterclipid>masterclip-501</masterclipid>
            <ismasterclip>TRUE</ismasterclip>
            <duration>720</duration>
            <in>0</in>
            <out>720</out>
            <name>Scene - Puppet man_0003.499.png</name>
            <rate>
              <timebase>24</timebase>
              <ntsc>FALSE</ntsc>
            </rate>
            <media>
              <video>
                <track>
                  <clipitem frameBlend="FALSE" id="clipitem-502">
                    <name>Scene - Puppet man_0003.499.png</name>
                    <masterclipid>masterclip-501</masterclipid>
                    <rate>
                      <timebase>24</timebase>
                      <ntsc>FALSE</ntsc>
                    </rate>
                    <alphatype>straight</alphatype>
                    <pixelaspectratio>square</pixelaspectratio>
                    <anamorphic>FALSE</anamorphic>
                    <file id="file-501">
                      <name>Scene - Puppet man_0003.499.png</name>
                      <pathurl>file://localhost/C:/Users/jmrey/OneDrive/Desktop/Programmin Stuff/Projects/conversation-simulator/resources/videos/Scene - Puppet man_0003/Scene - Puppet man_0003.499.png</pathurl>
                      <rate>
                        <timebase>24</timebase>
                        <ntsc>FALSE</ntsc>
                      </rate>
                      <duration>720</duration>
                      <timecode>
                        <rate>
                          <timebase>24</timebase>
                          <ntsc>FALSE</ntsc>
                        </rate>
                      </timecode>
                      <media>
                        <video>
                          <duration>1</duration>
                          <samplecharacteristics>
                            <anamorphic>FALSE</anamorphic>
                            <pixelaspectratio>square</pixelaspectratio>
                            <fielddominance>none</fielddominance>
                            <width>1920</width>
                            <height>1080</height>
                          </samplecharacteristics>
                        </video>
                      </media>
                    </file>
                  </clipitem>
                </track>
              </video>
            </media>
          </clip>
          <clip explodedTracks="true" frameBlend="FALSE" id="masterclip-502">
            <uuid>6886b5a2-da27-4af4-8132-d1839768ae7b</uuid>
            <masterclipid>masterclip-502</masterclipid>
            <ismasterclip>TRUE</ismasterclip>
            <duration>720</duration>
            <in>0</in>
            <out>720</out>
            <name>Scene - Puppet man_0003.500.png</name>
            <rate>
              <timebase>24</timebase>
              <ntsc>FALSE</ntsc>
            </rate>
            <media>
              <video>
                <track>
                  <clipitem frameBlend="FALSE" id="clipitem-503">
                    <name>Scene - Puppet man_0003.500.png</name>
                    <masterclipid>masterclip-502</masterclipid>
                    <rate>
                      <timebase>24</timebase>
                      <ntsc>FALSE</ntsc>
                    </rate>
                    <alphatype>straight</alphatype>
                    <pixelaspectratio>square</pixelaspectratio>
                    <anamorphic>FALSE</anamorphic>
                    <file id="file-502">
                      <name>Scene - Puppet man_0003.500.png</name>
                      <pathurl>file://localhost/C:/Users/jmrey/OneDrive/Desktop/Programmin Stuff/Projects/conversation-simulator/resources/videos/Scene - Puppet man_0003/Scene - Puppet man_0003.500.png</pathurl>
                      <rate>
                        <timebase>24</timebase>
                        <ntsc>FALSE</ntsc>
                      </rate>
                      <duration>720</duration>
                      <timecode>
                        <rate>
                          <timebase>24</timebase>
                          <ntsc>FALSE</ntsc>
                        </rate>
                      </timecode>
                      <media>
                        <video>
                          <duration>1</duration>
                          <samplecharacteristics>
                            <anamorphic>FALSE</anamorphic>
                            <pixelaspectratio>square</pixelaspectratio>
                            <fielddominance>none</fielddominance>
                            <width>1920</width>
                            <height>1080</height>
                          </samplecharacteristics>
                        </video>
                      </media>
                    </file>
                  </clipitem>
                </track>
              </video>
            </media>
          </clip>
          <clip explodedTracks="true" frameBlend="FALSE" id="masterclip-503">
            <uuid>9a641a65-b4d7-4d7c-9068-cbb9523bf81d</uuid>
            <masterclipid>masterclip-503</masterclipid>
            <ismasterclip>TRUE</ismasterclip>
            <duration>720</duration>
            <in>0</in>
            <out>720</out>
            <name>Scene - Puppet man_0003.501.png</name>
            <rate>
              <timebase>24</timebase>
              <ntsc>FALSE</ntsc>
            </rate>
            <media>
              <video>
                <track>
                  <clipitem frameBlend="FALSE" id="clipitem-504">
                    <name>Scene - Puppet man_0003.501.png</name>
                    <masterclipid>masterclip-503</masterclipid>
                    <rate>
                      <timebase>24</timebase>
                      <ntsc>FALSE</ntsc>
                    </rate>
                    <alphatype>straight</alphatype>
                    <pixelaspectratio>square</pixelaspectratio>
                    <anamorphic>FALSE</anamorphic>
                    <file id="file-503">
                      <name>Scene - Puppet man_0003.501.png</name>
                      <pathurl>file://localhost/C:/Users/jmrey/OneDrive/Desktop/Programmin Stuff/Projects/conversation-simulator/resources/videos/Scene - Puppet man_0003/Scene - Puppet man_0003.501.png</pathurl>
                      <rate>
                        <timebase>24</timebase>
                        <ntsc>FALSE</ntsc>
                      </rate>
                      <duration>720</duration>
                      <timecode>
                        <rate>
                          <timebase>24</timebase>
                          <ntsc>FALSE</ntsc>
                        </rate>
                      </timecode>
                      <media>
                        <video>
                          <duration>1</duration>
                          <samplecharacteristics>
                            <anamorphic>FALSE</anamorphic>
                            <pixelaspectratio>square</pixelaspectratio>
                            <fielddominance>none</fielddominance>
                            <width>1920</width>
                            <height>1080</height>
                          </samplecharacteristics>
                        </video>
                      </media>
                    </file>
                  </clipitem>
                </track>
              </video>
            </media>
          </clip>
          <clip explodedTracks="true" frameBlend="FALSE" id="masterclip-504">
            <uuid>f7440578-581d-4c09-b12e-5fdc0797a8e5</uuid>
            <masterclipid>masterclip-504</masterclipid>
            <ismasterclip>TRUE</ismasterclip>
            <duration>720</duration>
            <in>0</in>
            <out>720</out>
            <name>Scene - Puppet man_0003.502.png</name>
            <rate>
              <timebase>24</timebase>
              <ntsc>FALSE</ntsc>
            </rate>
            <media>
              <video>
                <track>
                  <clipitem frameBlend="FALSE" id="clipitem-505">
                    <name>Scene - Puppet man_0003.502.png</name>
                    <masterclipid>masterclip-504</masterclipid>
                    <rate>
                      <timebase>24</timebase>
                      <ntsc>FALSE</ntsc>
                    </rate>
                    <alphatype>straight</alphatype>
                    <pixelaspectratio>square</pixelaspectratio>
                    <anamorphic>FALSE</anamorphic>
                    <file id="file-504">
                      <name>Scene - Puppet man_0003.502.png</name>
                      <pathurl>file://localhost/C:/Users/jmrey/OneDrive/Desktop/Programmin Stuff/Projects/conversation-simulator/resources/videos/Scene - Puppet man_0003/Scene - Puppet man_0003.502.png</pathurl>
                      <rate>
                        <timebase>24</timebase>
                        <ntsc>FALSE</ntsc>
                      </rate>
                      <duration>720</duration>
                      <timecode>
                        <rate>
                          <timebase>24</timebase>
                          <ntsc>FALSE</ntsc>
                        </rate>
                      </timecode>
                      <media>
                        <video>
                          <duration>1</duration>
                          <samplecharacteristics>
                            <anamorphic>FALSE</anamorphic>
                            <pixelaspectratio>square</pixelaspectratio>
                            <fielddominance>none</fielddominance>
                            <width>1920</width>
                            <height>1080</height>
                          </samplecharacteristics>
                        </video>
                      </media>
                    </file>
                  </clipitem>
                </track>
              </video>
            </media>
          </clip>
          <clip explodedTracks="true" frameBlend="FALSE" id="masterclip-505">
            <uuid>acde6c3e-2154-499a-86e8-8e5ce854e84a</uuid>
            <masterclipid>masterclip-505</masterclipid>
            <ismasterclip>TRUE</ismasterclip>
            <duration>720</duration>
            <in>0</in>
            <out>720</out>
            <name>Scene - Puppet man_0003.503.png</name>
            <rate>
              <timebase>24</timebase>
              <ntsc>FALSE</ntsc>
            </rate>
            <media>
              <video>
                <track>
                  <clipitem frameBlend="FALSE" id="clipitem-506">
                    <name>Scene - Puppet man_0003.503.png</name>
                    <masterclipid>masterclip-505</masterclipid>
                    <rate>
                      <timebase>24</timebase>
                      <ntsc>FALSE</ntsc>
                    </rate>
                    <alphatype>straight</alphatype>
                    <pixelaspectratio>square</pixelaspectratio>
                    <anamorphic>FALSE</anamorphic>
                    <file id="file-505">
                      <name>Scene - Puppet man_0003.503.png</name>
                      <pathurl>file://localhost/C:/Users/jmrey/OneDrive/Desktop/Programmin Stuff/Projects/conversation-simulator/resources/videos/Scene - Puppet man_0003/Scene - Puppet man_0003.503.png</pathurl>
                      <rate>
                        <timebase>24</timebase>
                        <ntsc>FALSE</ntsc>
                      </rate>
                      <duration>720</duration>
                      <timecode>
                        <rate>
                          <timebase>24</timebase>
                          <ntsc>FALSE</ntsc>
                        </rate>
                      </timecode>
                      <media>
                        <video>
                          <duration>1</duration>
                          <samplecharacteristics>
                            <anamorphic>FALSE</anamorphic>
                            <pixelaspectratio>square</pixelaspectratio>
                            <fielddominance>none</fielddominance>
                            <width>1920</width>
                            <height>1080</height>
                          </samplecharacteristics>
                        </video>
                      </media>
                    </file>
                  </clipitem>
                </track>
              </video>
            </media>
          </clip>
          <clip explodedTracks="true" frameBlend="FALSE" id="masterclip-506">
            <uuid>053dba1a-8cff-4983-b0c2-ba3df6af654e</uuid>
            <masterclipid>masterclip-506</masterclipid>
            <ismasterclip>TRUE</ismasterclip>
            <duration>720</duration>
            <in>0</in>
            <out>720</out>
            <name>Scene - Puppet man_0003.504.png</name>
            <rate>
              <timebase>24</timebase>
              <ntsc>FALSE</ntsc>
            </rate>
            <media>
              <video>
                <track>
                  <clipitem frameBlend="FALSE" id="clipitem-507">
                    <name>Scene - Puppet man_0003.504.png</name>
                    <masterclipid>masterclip-506</masterclipid>
                    <rate>
                      <timebase>24</timebase>
                      <ntsc>FALSE</ntsc>
                    </rate>
                    <alphatype>straight</alphatype>
                    <pixelaspectratio>square</pixelaspectratio>
                    <anamorphic>FALSE</anamorphic>
                    <file id="file-506">
                      <name>Scene - Puppet man_0003.504.png</name>
                      <pathurl>file://localhost/C:/Users/jmrey/OneDrive/Desktop/Programmin Stuff/Projects/conversation-simulator/resources/videos/Scene - Puppet man_0003/Scene - Puppet man_0003.504.png</pathurl>
                      <rate>
                        <timebase>24</timebase>
                        <ntsc>FALSE</ntsc>
                      </rate>
                      <duration>720</duration>
                      <timecode>
                        <rate>
                          <timebase>24</timebase>
                          <ntsc>FALSE</ntsc>
                        </rate>
                      </timecode>
                      <media>
                        <video>
                          <duration>1</duration>
                          <samplecharacteristics>
                            <anamorphic>FALSE</anamorphic>
                            <pixelaspectratio>square</pixelaspectratio>
                            <fielddominance>none</fielddominance>
                            <width>1920</width>
                            <height>1080</height>
                          </samplecharacteristics>
                        </video>
                      </media>
                    </file>
                  </clipitem>
                </track>
              </video>
            </media>
          </clip>
          <clip explodedTracks="true" frameBlend="FALSE" id="masterclip-507">
            <uuid>e81f9f9b-5144-4e38-b48e-89eb08bc94b8</uuid>
            <masterclipid>masterclip-507</masterclipid>
            <ismasterclip>TRUE</ismasterclip>
            <duration>720</duration>
            <in>0</in>
            <out>720</out>
            <name>Scene - Puppet man_0003.505.png</name>
            <rate>
              <timebase>24</timebase>
              <ntsc>FALSE</ntsc>
            </rate>
            <media>
              <video>
                <track>
                  <clipitem frameBlend="FALSE" id="clipitem-508">
                    <name>Scene - Puppet man_0003.505.png</name>
                    <masterclipid>masterclip-507</masterclipid>
                    <rate>
                      <timebase>24</timebase>
                      <ntsc>FALSE</ntsc>
                    </rate>
                    <alphatype>straight</alphatype>
                    <pixelaspectratio>square</pixelaspectratio>
                    <anamorphic>FALSE</anamorphic>
                    <file id="file-507">
                      <name>Scene - Puppet man_0003.505.png</name>
                      <pathurl>file://localhost/C:/Users/jmrey/OneDrive/Desktop/Programmin Stuff/Projects/conversation-simulator/resources/videos/Scene - Puppet man_0003/Scene - Puppet man_0003.505.png</pathurl>
                      <rate>
                        <timebase>24</timebase>
                        <ntsc>FALSE</ntsc>
                      </rate>
                      <duration>720</duration>
                      <timecode>
                        <rate>
                          <timebase>24</timebase>
                          <ntsc>FALSE</ntsc>
                        </rate>
                      </timecode>
                      <media>
                        <video>
                          <duration>1</duration>
                          <samplecharacteristics>
                            <anamorphic>FALSE</anamorphic>
                            <pixelaspectratio>square</pixelaspectratio>
                            <fielddominance>none</fielddominance>
                            <width>1920</width>
                            <height>1080</height>
                          </samplecharacteristics>
                        </video>
                      </media>
                    </file>
                  </clipitem>
                </track>
              </video>
            </media>
          </clip>
          <clip explodedTracks="true" frameBlend="FALSE" id="masterclip-508">
            <uuid>749ea1f4-7b29-4103-9728-77003657ac22</uuid>
            <masterclipid>masterclip-508</masterclipid>
            <ismasterclip>TRUE</ismasterclip>
            <duration>720</duration>
            <in>0</in>
            <out>720</out>
            <name>Scene - Puppet man_0003.506.png</name>
            <rate>
              <timebase>24</timebase>
              <ntsc>FALSE</ntsc>
            </rate>
            <media>
              <video>
                <track>
                  <clipitem frameBlend="FALSE" id="clipitem-509">
                    <name>Scene - Puppet man_0003.506.png</name>
                    <masterclipid>masterclip-508</masterclipid>
                    <rate>
                      <timebase>24</timebase>
                      <ntsc>FALSE</ntsc>
                    </rate>
                    <alphatype>straight</alphatype>
                    <pixelaspectratio>square</pixelaspectratio>
                    <anamorphic>FALSE</anamorphic>
                    <file id="file-508">
                      <name>Scene - Puppet man_0003.506.png</name>
                      <pathurl>file://localhost/C:/Users/jmrey/OneDrive/Desktop/Programmin Stuff/Projects/conversation-simulator/resources/videos/Scene - Puppet man_0003/Scene - Puppet man_0003.506.png</pathurl>
                      <rate>
                        <timebase>24</timebase>
                        <ntsc>FALSE</ntsc>
                      </rate>
                      <duration>720</duration>
                      <timecode>
                        <rate>
                          <timebase>24</timebase>
                          <ntsc>FALSE</ntsc>
                        </rate>
                      </timecode>
                      <media>
                        <video>
                          <duration>1</duration>
                          <samplecharacteristics>
                            <anamorphic>FALSE</anamorphic>
                            <pixelaspectratio>square</pixelaspectratio>
                            <fielddominance>none</fielddominance>
                            <width>1920</width>
                            <height>1080</height>
                          </samplecharacteristics>
                        </video>
                      </media>
                    </file>
                  </clipitem>
                </track>
              </video>
            </media>
          </clip>
          <clip explodedTracks="true" frameBlend="FALSE" id="masterclip-509">
            <uuid>dd633f8d-66fa-44d0-8c76-86c7c310711a</uuid>
            <masterclipid>masterclip-509</masterclipid>
            <ismasterclip>TRUE</ismasterclip>
            <duration>720</duration>
            <in>0</in>
            <out>720</out>
            <name>Scene - Puppet man_0003.507.png</name>
            <rate>
              <timebase>24</timebase>
              <ntsc>FALSE</ntsc>
            </rate>
            <media>
              <video>
                <track>
                  <clipitem frameBlend="FALSE" id="clipitem-510">
                    <name>Scene - Puppet man_0003.507.png</name>
                    <masterclipid>masterclip-509</masterclipid>
                    <rate>
                      <timebase>24</timebase>
                      <ntsc>FALSE</ntsc>
                    </rate>
                    <alphatype>straight</alphatype>
                    <pixelaspectratio>square</pixelaspectratio>
                    <anamorphic>FALSE</anamorphic>
                    <file id="file-509">
                      <name>Scene - Puppet man_0003.507.png</name>
                      <pathurl>file://localhost/C:/Users/jmrey/OneDrive/Desktop/Programmin Stuff/Projects/conversation-simulator/resources/videos/Scene - Puppet man_0003/Scene - Puppet man_0003.507.png</pathurl>
                      <rate>
                        <timebase>24</timebase>
                        <ntsc>FALSE</ntsc>
                      </rate>
                      <duration>720</duration>
                      <timecode>
                        <rate>
                          <timebase>24</timebase>
                          <ntsc>FALSE</ntsc>
                        </rate>
                      </timecode>
                      <media>
                        <video>
                          <duration>1</duration>
                          <samplecharacteristics>
                            <anamorphic>FALSE</anamorphic>
                            <pixelaspectratio>square</pixelaspectratio>
                            <fielddominance>none</fielddominance>
                            <width>1920</width>
                            <height>1080</height>
                          </samplecharacteristics>
                        </video>
                      </media>
                    </file>
                  </clipitem>
                </track>
              </video>
            </media>
          </clip>
          <clip explodedTracks="true" frameBlend="FALSE" id="masterclip-510">
            <uuid>2a23f80a-ccc6-4a20-a0da-0ef3dac76924</uuid>
            <masterclipid>masterclip-510</masterclipid>
            <ismasterclip>TRUE</ismasterclip>
            <duration>720</duration>
            <in>0</in>
            <out>720</out>
            <name>Scene - Puppet man_0003.508.png</name>
            <rate>
              <timebase>24</timebase>
              <ntsc>FALSE</ntsc>
            </rate>
            <media>
              <video>
                <track>
                  <clipitem frameBlend="FALSE" id="clipitem-511">
                    <name>Scene - Puppet man_0003.508.png</name>
                    <masterclipid>masterclip-510</masterclipid>
                    <rate>
                      <timebase>24</timebase>
                      <ntsc>FALSE</ntsc>
                    </rate>
                    <alphatype>straight</alphatype>
                    <pixelaspectratio>square</pixelaspectratio>
                    <anamorphic>FALSE</anamorphic>
                    <file id="file-510">
                      <name>Scene - Puppet man_0003.508.png</name>
                      <pathurl>file://localhost/C:/Users/jmrey/OneDrive/Desktop/Programmin Stuff/Projects/conversation-simulator/resources/videos/Scene - Puppet man_0003/Scene - Puppet man_0003.508.png</pathurl>
                      <rate>
                        <timebase>24</timebase>
                        <ntsc>FALSE</ntsc>
                      </rate>
                      <duration>720</duration>
                      <timecode>
                        <rate>
                          <timebase>24</timebase>
                          <ntsc>FALSE</ntsc>
                        </rate>
                      </timecode>
                      <media>
                        <video>
                          <duration>1</duration>
                          <samplecharacteristics>
                            <anamorphic>FALSE</anamorphic>
                            <pixelaspectratio>square</pixelaspectratio>
                            <fielddominance>none</fielddominance>
                            <width>1920</width>
                            <height>1080</height>
                          </samplecharacteristics>
                        </video>
                      </media>
                    </file>
                  </clipitem>
                </track>
              </video>
            </media>
          </clip>
          <clip explodedTracks="true" frameBlend="FALSE" id="masterclip-511">
            <uuid>7a11a8ac-cdaf-41fa-899a-b59518f53b03</uuid>
            <masterclipid>masterclip-511</masterclipid>
            <ismasterclip>TRUE</ismasterclip>
            <duration>720</duration>
            <in>0</in>
            <out>720</out>
            <name>Scene - Puppet man_0003.509.png</name>
            <rate>
              <timebase>24</timebase>
              <ntsc>FALSE</ntsc>
            </rate>
            <media>
              <video>
                <track>
                  <clipitem frameBlend="FALSE" id="clipitem-512">
                    <name>Scene - Puppet man_0003.509.png</name>
                    <masterclipid>masterclip-511</masterclipid>
                    <rate>
                      <timebase>24</timebase>
                      <ntsc>FALSE</ntsc>
                    </rate>
                    <alphatype>straight</alphatype>
                    <pixelaspectratio>square</pixelaspectratio>
                    <anamorphic>FALSE</anamorphic>
                    <file id="file-511">
                      <name>Scene - Puppet man_0003.509.png</name>
                      <pathurl>file://localhost/C:/Users/jmrey/OneDrive/Desktop/Programmin Stuff/Projects/conversation-simulator/resources/videos/Scene - Puppet man_0003/Scene - Puppet man_0003.509.png</pathurl>
                      <rate>
                        <timebase>24</timebase>
                        <ntsc>FALSE</ntsc>
                      </rate>
                      <duration>720</duration>
                      <timecode>
                        <rate>
                          <timebase>24</timebase>
                          <ntsc>FALSE</ntsc>
                        </rate>
                      </timecode>
                      <media>
                        <video>
                          <duration>1</duration>
                          <samplecharacteristics>
                            <anamorphic>FALSE</anamorphic>
                            <pixelaspectratio>square</pixelaspectratio>
                            <fielddominance>none</fielddominance>
                            <width>1920</width>
                            <height>1080</height>
                          </samplecharacteristics>
                        </video>
                      </media>
                    </file>
                  </clipitem>
                </track>
              </video>
            </media>
          </clip>
          <clip explodedTracks="true" frameBlend="FALSE" id="masterclip-512">
            <uuid>afa99b11-28f6-4813-80a7-d712eeb47888</uuid>
            <masterclipid>masterclip-512</masterclipid>
            <ismasterclip>TRUE</ismasterclip>
            <duration>720</duration>
            <in>0</in>
            <out>720</out>
            <name>Scene - Puppet man_0003.510.png</name>
            <rate>
              <timebase>24</timebase>
              <ntsc>FALSE</ntsc>
            </rate>
            <media>
              <video>
                <track>
                  <clipitem frameBlend="FALSE" id="clipitem-513">
                    <name>Scene - Puppet man_0003.510.png</name>
                    <masterclipid>masterclip-512</masterclipid>
                    <rate>
                      <timebase>24</timebase>
                      <ntsc>FALSE</ntsc>
                    </rate>
                    <alphatype>straight</alphatype>
                    <pixelaspectratio>square</pixelaspectratio>
                    <anamorphic>FALSE</anamorphic>
                    <file id="file-512">
                      <name>Scene - Puppet man_0003.510.png</name>
                      <pathurl>file://localhost/C:/Users/jmrey/OneDrive/Desktop/Programmin Stuff/Projects/conversation-simulator/resources/videos/Scene - Puppet man_0003/Scene - Puppet man_0003.510.png</pathurl>
                      <rate>
                        <timebase>24</timebase>
                        <ntsc>FALSE</ntsc>
                      </rate>
                      <duration>720</duration>
                      <timecode>
                        <rate>
                          <timebase>24</timebase>
                          <ntsc>FALSE</ntsc>
                        </rate>
                      </timecode>
                      <media>
                        <video>
                          <duration>1</duration>
                          <samplecharacteristics>
                            <anamorphic>FALSE</anamorphic>
                            <pixelaspectratio>square</pixelaspectratio>
                            <fielddominance>none</fielddominance>
                            <width>1920</width>
                            <height>1080</height>
                          </samplecharacteristics>
                        </video>
                      </media>
                    </file>
                  </clipitem>
                </track>
              </video>
            </media>
          </clip>
          <clip explodedTracks="true" frameBlend="FALSE" id="masterclip-513">
            <uuid>6e999136-84a0-404b-a18b-7a695908d2c1</uuid>
            <masterclipid>masterclip-513</masterclipid>
            <ismasterclip>TRUE</ismasterclip>
            <duration>720</duration>
            <in>0</in>
            <out>720</out>
            <name>Scene - Puppet man_0003.511.png</name>
            <rate>
              <timebase>24</timebase>
              <ntsc>FALSE</ntsc>
            </rate>
            <media>
              <video>
                <track>
                  <clipitem frameBlend="FALSE" id="clipitem-514">
                    <name>Scene - Puppet man_0003.511.png</name>
                    <masterclipid>masterclip-513</masterclipid>
                    <rate>
                      <timebase>24</timebase>
                      <ntsc>FALSE</ntsc>
                    </rate>
                    <alphatype>straight</alphatype>
                    <pixelaspectratio>square</pixelaspectratio>
                    <anamorphic>FALSE</anamorphic>
                    <file id="file-513">
                      <name>Scene - Puppet man_0003.511.png</name>
                      <pathurl>file://localhost/C:/Users/jmrey/OneDrive/Desktop/Programmin Stuff/Projects/conversation-simulator/resources/videos/Scene - Puppet man_0003/Scene - Puppet man_0003.511.png</pathurl>
                      <rate>
                        <timebase>24</timebase>
                        <ntsc>FALSE</ntsc>
                      </rate>
                      <duration>720</duration>
                      <timecode>
                        <rate>
                          <timebase>24</timebase>
                          <ntsc>FALSE</ntsc>
                        </rate>
                      </timecode>
                      <media>
                        <video>
                          <duration>1</duration>
                          <samplecharacteristics>
                            <anamorphic>FALSE</anamorphic>
                            <pixelaspectratio>square</pixelaspectratio>
                            <fielddominance>none</fielddominance>
                            <width>1920</width>
                            <height>1080</height>
                          </samplecharacteristics>
                        </video>
                      </media>
                    </file>
                  </clipitem>
                </track>
              </video>
            </media>
          </clip>
          <clip explodedTracks="true" frameBlend="FALSE" id="masterclip-514">
            <uuid>4daa581a-03db-45fa-af14-91332afa766c</uuid>
            <masterclipid>masterclip-514</masterclipid>
            <ismasterclip>TRUE</ismasterclip>
            <duration>720</duration>
            <in>0</in>
            <out>720</out>
            <name>Scene - Puppet man_0003.512.png</name>
            <rate>
              <timebase>24</timebase>
              <ntsc>FALSE</ntsc>
            </rate>
            <media>
              <video>
                <track>
                  <clipitem frameBlend="FALSE" id="clipitem-515">
                    <name>Scene - Puppet man_0003.512.png</name>
                    <masterclipid>masterclip-514</masterclipid>
                    <rate>
                      <timebase>24</timebase>
                      <ntsc>FALSE</ntsc>
                    </rate>
                    <alphatype>straight</alphatype>
                    <pixelaspectratio>square</pixelaspectratio>
                    <anamorphic>FALSE</anamorphic>
                    <file id="file-514">
                      <name>Scene - Puppet man_0003.512.png</name>
                      <pathurl>file://localhost/C:/Users/jmrey/OneDrive/Desktop/Programmin Stuff/Projects/conversation-simulator/resources/videos/Scene - Puppet man_0003/Scene - Puppet man_0003.512.png</pathurl>
                      <rate>
                        <timebase>24</timebase>
                        <ntsc>FALSE</ntsc>
                      </rate>
                      <duration>720</duration>
                      <timecode>
                        <rate>
                          <timebase>24</timebase>
                          <ntsc>FALSE</ntsc>
                        </rate>
                      </timecode>
                      <media>
                        <video>
                          <duration>1</duration>
                          <samplecharacteristics>
                            <anamorphic>FALSE</anamorphic>
                            <pixelaspectratio>square</pixelaspectratio>
                            <fielddominance>none</fielddominance>
                            <width>1920</width>
                            <height>1080</height>
                          </samplecharacteristics>
                        </video>
                      </media>
                    </file>
                  </clipitem>
                </track>
              </video>
            </media>
          </clip>
          <clip explodedTracks="true" frameBlend="FALSE" id="masterclip-515">
            <uuid>638b79d2-4886-426d-9f20-d4df4f922b0c</uuid>
            <masterclipid>masterclip-515</masterclipid>
            <ismasterclip>TRUE</ismasterclip>
            <duration>720</duration>
            <in>0</in>
            <out>720</out>
            <name>Scene - Puppet man_0003.513.png</name>
            <rate>
              <timebase>24</timebase>
              <ntsc>FALSE</ntsc>
            </rate>
            <media>
              <video>
                <track>
                  <clipitem frameBlend="FALSE" id="clipitem-516">
                    <name>Scene - Puppet man_0003.513.png</name>
                    <masterclipid>masterclip-515</masterclipid>
                    <rate>
                      <timebase>24</timebase>
                      <ntsc>FALSE</ntsc>
                    </rate>
                    <alphatype>straight</alphatype>
                    <pixelaspectratio>square</pixelaspectratio>
                    <anamorphic>FALSE</anamorphic>
                    <file id="file-515">
                      <name>Scene - Puppet man_0003.513.png</name>
                      <pathurl>file://localhost/C:/Users/jmrey/OneDrive/Desktop/Programmin Stuff/Projects/conversation-simulator/resources/videos/Scene - Puppet man_0003/Scene - Puppet man_0003.513.png</pathurl>
                      <rate>
                        <timebase>24</timebase>
                        <ntsc>FALSE</ntsc>
                      </rate>
                      <duration>720</duration>
                      <timecode>
                        <rate>
                          <timebase>24</timebase>
                          <ntsc>FALSE</ntsc>
                        </rate>
                      </timecode>
                      <media>
                        <video>
                          <duration>1</duration>
                          <samplecharacteristics>
                            <anamorphic>FALSE</anamorphic>
                            <pixelaspectratio>square</pixelaspectratio>
                            <fielddominance>none</fielddominance>
                            <width>1920</width>
                            <height>1080</height>
                          </samplecharacteristics>
                        </video>
                      </media>
                    </file>
                  </clipitem>
                </track>
              </video>
            </media>
          </clip>
          <clip explodedTracks="true" frameBlend="FALSE" id="masterclip-516">
            <uuid>e68bda92-6d40-4adf-8e41-24822f2a055f</uuid>
            <masterclipid>masterclip-516</masterclipid>
            <ismasterclip>TRUE</ismasterclip>
            <duration>720</duration>
            <in>0</in>
            <out>720</out>
            <name>Scene - Puppet man_0003.514.png</name>
            <rate>
              <timebase>24</timebase>
              <ntsc>FALSE</ntsc>
            </rate>
            <media>
              <video>
                <track>
                  <clipitem frameBlend="FALSE" id="clipitem-517">
                    <name>Scene - Puppet man_0003.514.png</name>
                    <masterclipid>masterclip-516</masterclipid>
                    <rate>
                      <timebase>24</timebase>
                      <ntsc>FALSE</ntsc>
                    </rate>
                    <alphatype>straight</alphatype>
                    <pixelaspectratio>square</pixelaspectratio>
                    <anamorphic>FALSE</anamorphic>
                    <file id="file-516">
                      <name>Scene - Puppet man_0003.514.png</name>
                      <pathurl>file://localhost/C:/Users/jmrey/OneDrive/Desktop/Programmin Stuff/Projects/conversation-simulator/resources/videos/Scene - Puppet man_0003/Scene - Puppet man_0003.514.png</pathurl>
                      <rate>
                        <timebase>24</timebase>
                        <ntsc>FALSE</ntsc>
                      </rate>
                      <duration>720</duration>
                      <timecode>
                        <rate>
                          <timebase>24</timebase>
                          <ntsc>FALSE</ntsc>
                        </rate>
                      </timecode>
                      <media>
                        <video>
                          <duration>1</duration>
                          <samplecharacteristics>
                            <anamorphic>FALSE</anamorphic>
                            <pixelaspectratio>square</pixelaspectratio>
                            <fielddominance>none</fielddominance>
                            <width>1920</width>
                            <height>1080</height>
                          </samplecharacteristics>
                        </video>
                      </media>
                    </file>
                  </clipitem>
                </track>
              </video>
            </media>
          </clip>
          <clip explodedTracks="true" frameBlend="FALSE" id="masterclip-517">
            <uuid>634208c4-1225-4671-8c14-5ebd189ebbb3</uuid>
            <masterclipid>masterclip-517</masterclipid>
            <ismasterclip>TRUE</ismasterclip>
            <duration>720</duration>
            <in>0</in>
            <out>720</out>
            <name>Scene - Puppet man_0003.515.png</name>
            <rate>
              <timebase>24</timebase>
              <ntsc>FALSE</ntsc>
            </rate>
            <media>
              <video>
                <track>
                  <clipitem frameBlend="FALSE" id="clipitem-518">
                    <name>Scene - Puppet man_0003.515.png</name>
                    <masterclipid>masterclip-517</masterclipid>
                    <rate>
                      <timebase>24</timebase>
                      <ntsc>FALSE</ntsc>
                    </rate>
                    <alphatype>straight</alphatype>
                    <pixelaspectratio>square</pixelaspectratio>
                    <anamorphic>FALSE</anamorphic>
                    <file id="file-517">
                      <name>Scene - Puppet man_0003.515.png</name>
                      <pathurl>file://localhost/C:/Users/jmrey/OneDrive/Desktop/Programmin Stuff/Projects/conversation-simulator/resources/videos/Scene - Puppet man_0003/Scene - Puppet man_0003.515.png</pathurl>
                      <rate>
                        <timebase>24</timebase>
                        <ntsc>FALSE</ntsc>
                      </rate>
                      <duration>720</duration>
                      <timecode>
                        <rate>
                          <timebase>24</timebase>
                          <ntsc>FALSE</ntsc>
                        </rate>
                      </timecode>
                      <media>
                        <video>
                          <duration>1</duration>
                          <samplecharacteristics>
                            <anamorphic>FALSE</anamorphic>
                            <pixelaspectratio>square</pixelaspectratio>
                            <fielddominance>none</fielddominance>
                            <width>1920</width>
                            <height>1080</height>
                          </samplecharacteristics>
                        </video>
                      </media>
                    </file>
                  </clipitem>
                </track>
              </video>
            </media>
          </clip>
          <clip explodedTracks="true" frameBlend="FALSE" id="masterclip-518">
            <uuid>84a54043-23bd-4f01-b786-689a1275cec3</uuid>
            <masterclipid>masterclip-518</masterclipid>
            <ismasterclip>TRUE</ismasterclip>
            <duration>720</duration>
            <in>0</in>
            <out>720</out>
            <name>Scene - Puppet man_0003.516.png</name>
            <rate>
              <timebase>24</timebase>
              <ntsc>FALSE</ntsc>
            </rate>
            <media>
              <video>
                <track>
                  <clipitem frameBlend="FALSE" id="clipitem-519">
                    <name>Scene - Puppet man_0003.516.png</name>
                    <masterclipid>masterclip-518</masterclipid>
                    <rate>
                      <timebase>24</timebase>
                      <ntsc>FALSE</ntsc>
                    </rate>
                    <alphatype>straight</alphatype>
                    <pixelaspectratio>square</pixelaspectratio>
                    <anamorphic>FALSE</anamorphic>
                    <file id="file-518">
                      <name>Scene - Puppet man_0003.516.png</name>
                      <pathurl>file://localhost/C:/Users/jmrey/OneDrive/Desktop/Programmin Stuff/Projects/conversation-simulator/resources/videos/Scene - Puppet man_0003/Scene - Puppet man_0003.516.png</pathurl>
                      <rate>
                        <timebase>24</timebase>
                        <ntsc>FALSE</ntsc>
                      </rate>
                      <duration>720</duration>
                      <timecode>
                        <rate>
                          <timebase>24</timebase>
                          <ntsc>FALSE</ntsc>
                        </rate>
                      </timecode>
                      <media>
                        <video>
                          <duration>1</duration>
                          <samplecharacteristics>
                            <anamorphic>FALSE</anamorphic>
                            <pixelaspectratio>square</pixelaspectratio>
                            <fielddominance>none</fielddominance>
                            <width>1920</width>
                            <height>1080</height>
                          </samplecharacteristics>
                        </video>
                      </media>
                    </file>
                  </clipitem>
                </track>
              </video>
            </media>
          </clip>
          <clip explodedTracks="true" frameBlend="FALSE" id="masterclip-519">
            <uuid>af75a208-8307-4060-8bed-8d84bae90546</uuid>
            <masterclipid>masterclip-519</masterclipid>
            <ismasterclip>TRUE</ismasterclip>
            <duration>720</duration>
            <in>0</in>
            <out>720</out>
            <name>Scene - Puppet man_0003.517.png</name>
            <rate>
              <timebase>24</timebase>
              <ntsc>FALSE</ntsc>
            </rate>
            <media>
              <video>
                <track>
                  <clipitem frameBlend="FALSE" id="clipitem-520">
                    <name>Scene - Puppet man_0003.517.png</name>
                    <masterclipid>masterclip-519</masterclipid>
                    <rate>
                      <timebase>24</timebase>
                      <ntsc>FALSE</ntsc>
                    </rate>
                    <alphatype>straight</alphatype>
                    <pixelaspectratio>square</pixelaspectratio>
                    <anamorphic>FALSE</anamorphic>
                    <file id="file-519">
                      <name>Scene - Puppet man_0003.517.png</name>
                      <pathurl>file://localhost/C:/Users/jmrey/OneDrive/Desktop/Programmin Stuff/Projects/conversation-simulator/resources/videos/Scene - Puppet man_0003/Scene - Puppet man_0003.517.png</pathurl>
                      <rate>
                        <timebase>24</timebase>
                        <ntsc>FALSE</ntsc>
                      </rate>
                      <duration>720</duration>
                      <timecode>
                        <rate>
                          <timebase>24</timebase>
                          <ntsc>FALSE</ntsc>
                        </rate>
                      </timecode>
                      <media>
                        <video>
                          <duration>1</duration>
                          <samplecharacteristics>
                            <anamorphic>FALSE</anamorphic>
                            <pixelaspectratio>square</pixelaspectratio>
                            <fielddominance>none</fielddominance>
                            <width>1920</width>
                            <height>1080</height>
                          </samplecharacteristics>
                        </video>
                      </media>
                    </file>
                  </clipitem>
                </track>
              </video>
            </media>
          </clip>
          <clip explodedTracks="true" frameBlend="FALSE" id="masterclip-520">
            <uuid>e0a75f62-1261-4363-8bb2-100d42a06d47</uuid>
            <masterclipid>masterclip-520</masterclipid>
            <ismasterclip>TRUE</ismasterclip>
            <duration>720</duration>
            <in>0</in>
            <out>720</out>
            <name>Scene - Puppet man_0003.518.png</name>
            <rate>
              <timebase>24</timebase>
              <ntsc>FALSE</ntsc>
            </rate>
            <media>
              <video>
                <track>
                  <clipitem frameBlend="FALSE" id="clipitem-521">
                    <name>Scene - Puppet man_0003.518.png</name>
                    <masterclipid>masterclip-520</masterclipid>
                    <rate>
                      <timebase>24</timebase>
                      <ntsc>FALSE</ntsc>
                    </rate>
                    <alphatype>straight</alphatype>
                    <pixelaspectratio>square</pixelaspectratio>
                    <anamorphic>FALSE</anamorphic>
                    <file id="file-520">
                      <name>Scene - Puppet man_0003.518.png</name>
                      <pathurl>file://localhost/C:/Users/jmrey/OneDrive/Desktop/Programmin Stuff/Projects/conversation-simulator/resources/videos/Scene - Puppet man_0003/Scene - Puppet man_0003.518.png</pathurl>
                      <rate>
                        <timebase>24</timebase>
                        <ntsc>FALSE</ntsc>
                      </rate>
                      <duration>720</duration>
                      <timecode>
                        <rate>
                          <timebase>24</timebase>
                          <ntsc>FALSE</ntsc>
                        </rate>
                      </timecode>
                      <media>
                        <video>
                          <duration>1</duration>
                          <samplecharacteristics>
                            <anamorphic>FALSE</anamorphic>
                            <pixelaspectratio>square</pixelaspectratio>
                            <fielddominance>none</fielddominance>
                            <width>1920</width>
                            <height>1080</height>
                          </samplecharacteristics>
                        </video>
                      </media>
                    </file>
                  </clipitem>
                </track>
              </video>
            </media>
          </clip>
          <clip explodedTracks="true" frameBlend="FALSE" id="masterclip-521">
            <uuid>76234d39-acf3-4347-b8ee-ff8c83da7129</uuid>
            <masterclipid>masterclip-521</masterclipid>
            <ismasterclip>TRUE</ismasterclip>
            <duration>720</duration>
            <in>0</in>
            <out>720</out>
            <name>Scene - Puppet man_0003.519.png</name>
            <rate>
              <timebase>24</timebase>
              <ntsc>FALSE</ntsc>
            </rate>
            <media>
              <video>
                <track>
                  <clipitem frameBlend="FALSE" id="clipitem-522">
                    <name>Scene - Puppet man_0003.519.png</name>
                    <masterclipid>masterclip-521</masterclipid>
                    <rate>
                      <timebase>24</timebase>
                      <ntsc>FALSE</ntsc>
                    </rate>
                    <alphatype>straight</alphatype>
                    <pixelaspectratio>square</pixelaspectratio>
                    <anamorphic>FALSE</anamorphic>
                    <file id="file-521">
                      <name>Scene - Puppet man_0003.519.png</name>
                      <pathurl>file://localhost/C:/Users/jmrey/OneDrive/Desktop/Programmin Stuff/Projects/conversation-simulator/resources/videos/Scene - Puppet man_0003/Scene - Puppet man_0003.519.png</pathurl>
                      <rate>
                        <timebase>24</timebase>
                        <ntsc>FALSE</ntsc>
                      </rate>
                      <duration>720</duration>
                      <timecode>
                        <rate>
                          <timebase>24</timebase>
                          <ntsc>FALSE</ntsc>
                        </rate>
                      </timecode>
                      <media>
                        <video>
                          <duration>1</duration>
                          <samplecharacteristics>
                            <anamorphic>FALSE</anamorphic>
                            <pixelaspectratio>square</pixelaspectratio>
                            <fielddominance>none</fielddominance>
                            <width>1920</width>
                            <height>1080</height>
                          </samplecharacteristics>
                        </video>
                      </media>
                    </file>
                  </clipitem>
                </track>
              </video>
            </media>
          </clip>
          <clip explodedTracks="true" frameBlend="FALSE" id="masterclip-522">
            <uuid>d737c4f9-09d1-4fde-b88f-232818a2ab43</uuid>
            <masterclipid>masterclip-522</masterclipid>
            <ismasterclip>TRUE</ismasterclip>
            <duration>720</duration>
            <in>0</in>
            <out>720</out>
            <name>Scene - Puppet man_0003.520.png</name>
            <rate>
              <timebase>24</timebase>
              <ntsc>FALSE</ntsc>
            </rate>
            <media>
              <video>
                <track>
                  <clipitem frameBlend="FALSE" id="clipitem-523">
                    <name>Scene - Puppet man_0003.520.png</name>
                    <masterclipid>masterclip-522</masterclipid>
                    <rate>
                      <timebase>24</timebase>
                      <ntsc>FALSE</ntsc>
                    </rate>
                    <alphatype>straight</alphatype>
                    <pixelaspectratio>square</pixelaspectratio>
                    <anamorphic>FALSE</anamorphic>
                    <file id="file-522">
                      <name>Scene - Puppet man_0003.520.png</name>
                      <pathurl>file://localhost/C:/Users/jmrey/OneDrive/Desktop/Programmin Stuff/Projects/conversation-simulator/resources/videos/Scene - Puppet man_0003/Scene - Puppet man_0003.520.png</pathurl>
                      <rate>
                        <timebase>24</timebase>
                        <ntsc>FALSE</ntsc>
                      </rate>
                      <duration>720</duration>
                      <timecode>
                        <rate>
                          <timebase>24</timebase>
                          <ntsc>FALSE</ntsc>
                        </rate>
                      </timecode>
                      <media>
                        <video>
                          <duration>1</duration>
                          <samplecharacteristics>
                            <anamorphic>FALSE</anamorphic>
                            <pixelaspectratio>square</pixelaspectratio>
                            <fielddominance>none</fielddominance>
                            <width>1920</width>
                            <height>1080</height>
                          </samplecharacteristics>
                        </video>
                      </media>
                    </file>
                  </clipitem>
                </track>
              </video>
            </media>
          </clip>
          <clip explodedTracks="true" frameBlend="FALSE" id="masterclip-523">
            <uuid>ca63a9e2-4579-4807-aa55-3e131e482b07</uuid>
            <masterclipid>masterclip-523</masterclipid>
            <ismasterclip>TRUE</ismasterclip>
            <duration>720</duration>
            <in>0</in>
            <out>720</out>
            <name>Scene - Puppet man_0003.521.png</name>
            <rate>
              <timebase>24</timebase>
              <ntsc>FALSE</ntsc>
            </rate>
            <media>
              <video>
                <track>
                  <clipitem frameBlend="FALSE" id="clipitem-524">
                    <name>Scene - Puppet man_0003.521.png</name>
                    <masterclipid>masterclip-523</masterclipid>
                    <rate>
                      <timebase>24</timebase>
                      <ntsc>FALSE</ntsc>
                    </rate>
                    <alphatype>straight</alphatype>
                    <pixelaspectratio>square</pixelaspectratio>
                    <anamorphic>FALSE</anamorphic>
                    <file id="file-523">
                      <name>Scene - Puppet man_0003.521.png</name>
                      <pathurl>file://localhost/C:/Users/jmrey/OneDrive/Desktop/Programmin Stuff/Projects/conversation-simulator/resources/videos/Scene - Puppet man_0003/Scene - Puppet man_0003.521.png</pathurl>
                      <rate>
                        <timebase>24</timebase>
                        <ntsc>FALSE</ntsc>
                      </rate>
                      <duration>720</duration>
                      <timecode>
                        <rate>
                          <timebase>24</timebase>
                          <ntsc>FALSE</ntsc>
                        </rate>
                      </timecode>
                      <media>
                        <video>
                          <duration>1</duration>
                          <samplecharacteristics>
                            <anamorphic>FALSE</anamorphic>
                            <pixelaspectratio>square</pixelaspectratio>
                            <fielddominance>none</fielddominance>
                            <width>1920</width>
                            <height>1080</height>
                          </samplecharacteristics>
                        </video>
                      </media>
                    </file>
                  </clipitem>
                </track>
              </video>
            </media>
          </clip>
          <clip explodedTracks="true" frameBlend="FALSE" id="masterclip-524">
            <uuid>e1c13dad-f634-465a-b053-6653cf085c49</uuid>
            <masterclipid>masterclip-524</masterclipid>
            <ismasterclip>TRUE</ismasterclip>
            <duration>720</duration>
            <in>0</in>
            <out>720</out>
            <name>Scene - Puppet man_0003.522.png</name>
            <rate>
              <timebase>24</timebase>
              <ntsc>FALSE</ntsc>
            </rate>
            <media>
              <video>
                <track>
                  <clipitem frameBlend="FALSE" id="clipitem-525">
                    <name>Scene - Puppet man_0003.522.png</name>
                    <masterclipid>masterclip-524</masterclipid>
                    <rate>
                      <timebase>24</timebase>
                      <ntsc>FALSE</ntsc>
                    </rate>
                    <alphatype>straight</alphatype>
                    <pixelaspectratio>square</pixelaspectratio>
                    <anamorphic>FALSE</anamorphic>
                    <file id="file-524">
                      <name>Scene - Puppet man_0003.522.png</name>
                      <pathurl>file://localhost/C:/Users/jmrey/OneDrive/Desktop/Programmin Stuff/Projects/conversation-simulator/resources/videos/Scene - Puppet man_0003/Scene - Puppet man_0003.522.png</pathurl>
                      <rate>
                        <timebase>24</timebase>
                        <ntsc>FALSE</ntsc>
                      </rate>
                      <duration>720</duration>
                      <timecode>
                        <rate>
                          <timebase>24</timebase>
                          <ntsc>FALSE</ntsc>
                        </rate>
                      </timecode>
                      <media>
                        <video>
                          <duration>1</duration>
                          <samplecharacteristics>
                            <anamorphic>FALSE</anamorphic>
                            <pixelaspectratio>square</pixelaspectratio>
                            <fielddominance>none</fielddominance>
                            <width>1920</width>
                            <height>1080</height>
                          </samplecharacteristics>
                        </video>
                      </media>
                    </file>
                  </clipitem>
                </track>
              </video>
            </media>
          </clip>
          <clip explodedTracks="true" frameBlend="FALSE" id="masterclip-525">
            <uuid>20ba1d76-ec83-4322-ae56-57f737551936</uuid>
            <masterclipid>masterclip-525</masterclipid>
            <ismasterclip>TRUE</ismasterclip>
            <duration>720</duration>
            <in>0</in>
            <out>720</out>
            <name>Scene - Puppet man_0003.523.png</name>
            <rate>
              <timebase>24</timebase>
              <ntsc>FALSE</ntsc>
            </rate>
            <media>
              <video>
                <track>
                  <clipitem frameBlend="FALSE" id="clipitem-526">
                    <name>Scene - Puppet man_0003.523.png</name>
                    <masterclipid>masterclip-525</masterclipid>
                    <rate>
                      <timebase>24</timebase>
                      <ntsc>FALSE</ntsc>
                    </rate>
                    <alphatype>straight</alphatype>
                    <pixelaspectratio>square</pixelaspectratio>
                    <anamorphic>FALSE</anamorphic>
                    <file id="file-525">
                      <name>Scene - Puppet man_0003.523.png</name>
                      <pathurl>file://localhost/C:/Users/jmrey/OneDrive/Desktop/Programmin Stuff/Projects/conversation-simulator/resources/videos/Scene - Puppet man_0003/Scene - Puppet man_0003.523.png</pathurl>
                      <rate>
                        <timebase>24</timebase>
                        <ntsc>FALSE</ntsc>
                      </rate>
                      <duration>720</duration>
                      <timecode>
                        <rate>
                          <timebase>24</timebase>
                          <ntsc>FALSE</ntsc>
                        </rate>
                      </timecode>
                      <media>
                        <video>
                          <duration>1</duration>
                          <samplecharacteristics>
                            <anamorphic>FALSE</anamorphic>
                            <pixelaspectratio>square</pixelaspectratio>
                            <fielddominance>none</fielddominance>
                            <width>1920</width>
                            <height>1080</height>
                          </samplecharacteristics>
                        </video>
                      </media>
                    </file>
                  </clipitem>
                </track>
              </video>
            </media>
          </clip>
          <clip explodedTracks="true" frameBlend="FALSE" id="masterclip-526">
            <uuid>9f6e265b-59d2-4557-9e1d-32bb8f96ee59</uuid>
            <masterclipid>masterclip-526</masterclipid>
            <ismasterclip>TRUE</ismasterclip>
            <duration>720</duration>
            <in>0</in>
            <out>720</out>
            <name>Scene - Puppet man_0003.524.png</name>
            <rate>
              <timebase>24</timebase>
              <ntsc>FALSE</ntsc>
            </rate>
            <media>
              <video>
                <track>
                  <clipitem frameBlend="FALSE" id="clipitem-527">
                    <name>Scene - Puppet man_0003.524.png</name>
                    <masterclipid>masterclip-526</masterclipid>
                    <rate>
                      <timebase>24</timebase>
                      <ntsc>FALSE</ntsc>
                    </rate>
                    <alphatype>straight</alphatype>
                    <pixelaspectratio>square</pixelaspectratio>
                    <anamorphic>FALSE</anamorphic>
                    <file id="file-526">
                      <name>Scene - Puppet man_0003.524.png</name>
                      <pathurl>file://localhost/C:/Users/jmrey/OneDrive/Desktop/Programmin Stuff/Projects/conversation-simulator/resources/videos/Scene - Puppet man_0003/Scene - Puppet man_0003.524.png</pathurl>
                      <rate>
                        <timebase>24</timebase>
                        <ntsc>FALSE</ntsc>
                      </rate>
                      <duration>720</duration>
                      <timecode>
                        <rate>
                          <timebase>24</timebase>
                          <ntsc>FALSE</ntsc>
                        </rate>
                      </timecode>
                      <media>
                        <video>
                          <duration>1</duration>
                          <samplecharacteristics>
                            <anamorphic>FALSE</anamorphic>
                            <pixelaspectratio>square</pixelaspectratio>
                            <fielddominance>none</fielddominance>
                            <width>1920</width>
                            <height>1080</height>
                          </samplecharacteristics>
                        </video>
                      </media>
                    </file>
                  </clipitem>
                </track>
              </video>
            </media>
          </clip>
          <clip explodedTracks="true" frameBlend="FALSE" id="masterclip-527">
            <uuid>d4d8e2f8-cf95-41e8-ab68-380fc7459438</uuid>
            <masterclipid>masterclip-527</masterclipid>
            <ismasterclip>TRUE</ismasterclip>
            <duration>720</duration>
            <in>0</in>
            <out>720</out>
            <name>Scene - Puppet man_0003.525.png</name>
            <rate>
              <timebase>24</timebase>
              <ntsc>FALSE</ntsc>
            </rate>
            <media>
              <video>
                <track>
                  <clipitem frameBlend="FALSE" id="clipitem-528">
                    <name>Scene - Puppet man_0003.525.png</name>
                    <masterclipid>masterclip-527</masterclipid>
                    <rate>
                      <timebase>24</timebase>
                      <ntsc>FALSE</ntsc>
                    </rate>
                    <alphatype>straight</alphatype>
                    <pixelaspectratio>square</pixelaspectratio>
                    <anamorphic>FALSE</anamorphic>
                    <file id="file-527">
                      <name>Scene - Puppet man_0003.525.png</name>
                      <pathurl>file://localhost/C:/Users/jmrey/OneDrive/Desktop/Programmin Stuff/Projects/conversation-simulator/resources/videos/Scene - Puppet man_0003/Scene - Puppet man_0003.525.png</pathurl>
                      <rate>
                        <timebase>24</timebase>
                        <ntsc>FALSE</ntsc>
                      </rate>
                      <duration>720</duration>
                      <timecode>
                        <rate>
                          <timebase>24</timebase>
                          <ntsc>FALSE</ntsc>
                        </rate>
                      </timecode>
                      <media>
                        <video>
                          <duration>1</duration>
                          <samplecharacteristics>
                            <anamorphic>FALSE</anamorphic>
                            <pixelaspectratio>square</pixelaspectratio>
                            <fielddominance>none</fielddominance>
                            <width>1920</width>
                            <height>1080</height>
                          </samplecharacteristics>
                        </video>
                      </media>
                    </file>
                  </clipitem>
                </track>
              </video>
            </media>
          </clip>
          <clip explodedTracks="true" frameBlend="FALSE" id="masterclip-528">
            <uuid>cbf71d7e-a8d5-4ca2-b0bd-6be6323a7949</uuid>
            <masterclipid>masterclip-528</masterclipid>
            <ismasterclip>TRUE</ismasterclip>
            <duration>720</duration>
            <in>0</in>
            <out>720</out>
            <name>Scene - Puppet man_0003.526.png</name>
            <rate>
              <timebase>24</timebase>
              <ntsc>FALSE</ntsc>
            </rate>
            <media>
              <video>
                <track>
                  <clipitem frameBlend="FALSE" id="clipitem-529">
                    <name>Scene - Puppet man_0003.526.png</name>
                    <masterclipid>masterclip-528</masterclipid>
                    <rate>
                      <timebase>24</timebase>
                      <ntsc>FALSE</ntsc>
                    </rate>
                    <alphatype>straight</alphatype>
                    <pixelaspectratio>square</pixelaspectratio>
                    <anamorphic>FALSE</anamorphic>
                    <file id="file-528">
                      <name>Scene - Puppet man_0003.526.png</name>
                      <pathurl>file://localhost/C:/Users/jmrey/OneDrive/Desktop/Programmin Stuff/Projects/conversation-simulator/resources/videos/Scene - Puppet man_0003/Scene - Puppet man_0003.526.png</pathurl>
                      <rate>
                        <timebase>24</timebase>
                        <ntsc>FALSE</ntsc>
                      </rate>
                      <duration>720</duration>
                      <timecode>
                        <rate>
                          <timebase>24</timebase>
                          <ntsc>FALSE</ntsc>
                        </rate>
                      </timecode>
                      <media>
                        <video>
                          <duration>1</duration>
                          <samplecharacteristics>
                            <anamorphic>FALSE</anamorphic>
                            <pixelaspectratio>square</pixelaspectratio>
                            <fielddominance>none</fielddominance>
                            <width>1920</width>
                            <height>1080</height>
                          </samplecharacteristics>
                        </video>
                      </media>
                    </file>
                  </clipitem>
                </track>
              </video>
            </media>
          </clip>
          <clip explodedTracks="true" frameBlend="FALSE" id="masterclip-529">
            <uuid>f66477d0-67c3-4e6f-a3fe-9118acb236b3</uuid>
            <masterclipid>masterclip-529</masterclipid>
            <ismasterclip>TRUE</ismasterclip>
            <duration>720</duration>
            <in>0</in>
            <out>720</out>
            <name>Scene - Puppet man_0003.527.png</name>
            <rate>
              <timebase>24</timebase>
              <ntsc>FALSE</ntsc>
            </rate>
            <media>
              <video>
                <track>
                  <clipitem frameBlend="FALSE" id="clipitem-530">
                    <name>Scene - Puppet man_0003.527.png</name>
                    <masterclipid>masterclip-529</masterclipid>
                    <rate>
                      <timebase>24</timebase>
                      <ntsc>FALSE</ntsc>
                    </rate>
                    <alphatype>straight</alphatype>
                    <pixelaspectratio>square</pixelaspectratio>
                    <anamorphic>FALSE</anamorphic>
                    <file id="file-529">
                      <name>Scene - Puppet man_0003.527.png</name>
                      <pathurl>file://localhost/C:/Users/jmrey/OneDrive/Desktop/Programmin Stuff/Projects/conversation-simulator/resources/videos/Scene - Puppet man_0003/Scene - Puppet man_0003.527.png</pathurl>
                      <rate>
                        <timebase>24</timebase>
                        <ntsc>FALSE</ntsc>
                      </rate>
                      <duration>720</duration>
                      <timecode>
                        <rate>
                          <timebase>24</timebase>
                          <ntsc>FALSE</ntsc>
                        </rate>
                      </timecode>
                      <media>
                        <video>
                          <duration>1</duration>
                          <samplecharacteristics>
                            <anamorphic>FALSE</anamorphic>
                            <pixelaspectratio>square</pixelaspectratio>
                            <fielddominance>none</fielddominance>
                            <width>1920</width>
                            <height>1080</height>
                          </samplecharacteristics>
                        </video>
                      </media>
                    </file>
                  </clipitem>
                </track>
              </video>
            </media>
          </clip>
          <clip explodedTracks="true" frameBlend="FALSE" id="masterclip-530">
            <uuid>54b8b24f-acc5-453f-a3da-8ba255a4c066</uuid>
            <masterclipid>masterclip-530</masterclipid>
            <ismasterclip>TRUE</ismasterclip>
            <duration>720</duration>
            <in>0</in>
            <out>720</out>
            <name>Scene - Puppet man_0003.528.png</name>
            <rate>
              <timebase>24</timebase>
              <ntsc>FALSE</ntsc>
            </rate>
            <media>
              <video>
                <track>
                  <clipitem frameBlend="FALSE" id="clipitem-531">
                    <name>Scene - Puppet man_0003.528.png</name>
                    <masterclipid>masterclip-530</masterclipid>
                    <rate>
                      <timebase>24</timebase>
                      <ntsc>FALSE</ntsc>
                    </rate>
                    <alphatype>straight</alphatype>
                    <pixelaspectratio>square</pixelaspectratio>
                    <anamorphic>FALSE</anamorphic>
                    <file id="file-530">
                      <name>Scene - Puppet man_0003.528.png</name>
                      <pathurl>file://localhost/C:/Users/jmrey/OneDrive/Desktop/Programmin Stuff/Projects/conversation-simulator/resources/videos/Scene - Puppet man_0003/Scene - Puppet man_0003.528.png</pathurl>
                      <rate>
                        <timebase>24</timebase>
                        <ntsc>FALSE</ntsc>
                      </rate>
                      <duration>720</duration>
                      <timecode>
                        <rate>
                          <timebase>24</timebase>
                          <ntsc>FALSE</ntsc>
                        </rate>
                      </timecode>
                      <media>
                        <video>
                          <duration>1</duration>
                          <samplecharacteristics>
                            <anamorphic>FALSE</anamorphic>
                            <pixelaspectratio>square</pixelaspectratio>
                            <fielddominance>none</fielddominance>
                            <width>1920</width>
                            <height>1080</height>
                          </samplecharacteristics>
                        </video>
                      </media>
                    </file>
                  </clipitem>
                </track>
              </video>
            </media>
          </clip>
          <clip explodedTracks="true" frameBlend="FALSE" id="masterclip-531">
            <uuid>6332770c-1532-48a3-8eef-88276b6e8414</uuid>
            <masterclipid>masterclip-531</masterclipid>
            <ismasterclip>TRUE</ismasterclip>
            <duration>720</duration>
            <in>0</in>
            <out>720</out>
            <name>Scene - Puppet man_0003.529.png</name>
            <rate>
              <timebase>24</timebase>
              <ntsc>FALSE</ntsc>
            </rate>
            <media>
              <video>
                <track>
                  <clipitem frameBlend="FALSE" id="clipitem-532">
                    <name>Scene - Puppet man_0003.529.png</name>
                    <masterclipid>masterclip-531</masterclipid>
                    <rate>
                      <timebase>24</timebase>
                      <ntsc>FALSE</ntsc>
                    </rate>
                    <alphatype>straight</alphatype>
                    <pixelaspectratio>square</pixelaspectratio>
                    <anamorphic>FALSE</anamorphic>
                    <file id="file-531">
                      <name>Scene - Puppet man_0003.529.png</name>
                      <pathurl>file://localhost/C:/Users/jmrey/OneDrive/Desktop/Programmin Stuff/Projects/conversation-simulator/resources/videos/Scene - Puppet man_0003/Scene - Puppet man_0003.529.png</pathurl>
                      <rate>
                        <timebase>24</timebase>
                        <ntsc>FALSE</ntsc>
                      </rate>
                      <duration>720</duration>
                      <timecode>
                        <rate>
                          <timebase>24</timebase>
                          <ntsc>FALSE</ntsc>
                        </rate>
                      </timecode>
                      <media>
                        <video>
                          <duration>1</duration>
                          <samplecharacteristics>
                            <anamorphic>FALSE</anamorphic>
                            <pixelaspectratio>square</pixelaspectratio>
                            <fielddominance>none</fielddominance>
                            <width>1920</width>
                            <height>1080</height>
                          </samplecharacteristics>
                        </video>
                      </media>
                    </file>
                  </clipitem>
                </track>
              </video>
            </media>
          </clip>
          <clip explodedTracks="true" frameBlend="FALSE" id="masterclip-532">
            <uuid>4f0ceb13-686c-49a3-9c57-134d4b2d7ceb</uuid>
            <masterclipid>masterclip-532</masterclipid>
            <ismasterclip>TRUE</ismasterclip>
            <duration>720</duration>
            <in>0</in>
            <out>720</out>
            <name>Scene - Puppet man_0003.530.png</name>
            <rate>
              <timebase>24</timebase>
              <ntsc>FALSE</ntsc>
            </rate>
            <media>
              <video>
                <track>
                  <clipitem frameBlend="FALSE" id="clipitem-533">
                    <name>Scene - Puppet man_0003.530.png</name>
                    <masterclipid>masterclip-532</masterclipid>
                    <rate>
                      <timebase>24</timebase>
                      <ntsc>FALSE</ntsc>
                    </rate>
                    <alphatype>straight</alphatype>
                    <pixelaspectratio>square</pixelaspectratio>
                    <anamorphic>FALSE</anamorphic>
                    <file id="file-532">
                      <name>Scene - Puppet man_0003.530.png</name>
                      <pathurl>file://localhost/C:/Users/jmrey/OneDrive/Desktop/Programmin Stuff/Projects/conversation-simulator/resources/videos/Scene - Puppet man_0003/Scene - Puppet man_0003.530.png</pathurl>
                      <rate>
                        <timebase>24</timebase>
                        <ntsc>FALSE</ntsc>
                      </rate>
                      <duration>720</duration>
                      <timecode>
                        <rate>
                          <timebase>24</timebase>
                          <ntsc>FALSE</ntsc>
                        </rate>
                      </timecode>
                      <media>
                        <video>
                          <duration>1</duration>
                          <samplecharacteristics>
                            <anamorphic>FALSE</anamorphic>
                            <pixelaspectratio>square</pixelaspectratio>
                            <fielddominance>none</fielddominance>
                            <width>1920</width>
                            <height>1080</height>
                          </samplecharacteristics>
                        </video>
                      </media>
                    </file>
                  </clipitem>
                </track>
              </video>
            </media>
          </clip>
          <clip explodedTracks="true" frameBlend="FALSE" id="masterclip-533">
            <uuid>e9a6e77e-08a5-4903-83e1-5dcaa7718529</uuid>
            <masterclipid>masterclip-533</masterclipid>
            <ismasterclip>TRUE</ismasterclip>
            <duration>720</duration>
            <in>0</in>
            <out>720</out>
            <name>Scene - Puppet man_0003.531.png</name>
            <rate>
              <timebase>24</timebase>
              <ntsc>FALSE</ntsc>
            </rate>
            <media>
              <video>
                <track>
                  <clipitem frameBlend="FALSE" id="clipitem-534">
                    <name>Scene - Puppet man_0003.531.png</name>
                    <masterclipid>masterclip-533</masterclipid>
                    <rate>
                      <timebase>24</timebase>
                      <ntsc>FALSE</ntsc>
                    </rate>
                    <alphatype>straight</alphatype>
                    <pixelaspectratio>square</pixelaspectratio>
                    <anamorphic>FALSE</anamorphic>
                    <file id="file-533">
                      <name>Scene - Puppet man_0003.531.png</name>
                      <pathurl>file://localhost/C:/Users/jmrey/OneDrive/Desktop/Programmin Stuff/Projects/conversation-simulator/resources/videos/Scene - Puppet man_0003/Scene - Puppet man_0003.531.png</pathurl>
                      <rate>
                        <timebase>24</timebase>
                        <ntsc>FALSE</ntsc>
                      </rate>
                      <duration>720</duration>
                      <timecode>
                        <rate>
                          <timebase>24</timebase>
                          <ntsc>FALSE</ntsc>
                        </rate>
                      </timecode>
                      <media>
                        <video>
                          <duration>1</duration>
                          <samplecharacteristics>
                            <anamorphic>FALSE</anamorphic>
                            <pixelaspectratio>square</pixelaspectratio>
                            <fielddominance>none</fielddominance>
                            <width>1920</width>
                            <height>1080</height>
                          </samplecharacteristics>
                        </video>
                      </media>
                    </file>
                  </clipitem>
                </track>
              </video>
            </media>
          </clip>
          <clip explodedTracks="true" frameBlend="FALSE" id="masterclip-534">
            <uuid>a8a5822b-0d4a-4ee1-8029-e950c062c8a4</uuid>
            <masterclipid>masterclip-534</masterclipid>
            <ismasterclip>TRUE</ismasterclip>
            <duration>720</duration>
            <in>0</in>
            <out>720</out>
            <name>Scene - Puppet man_0003.532.png</name>
            <rate>
              <timebase>24</timebase>
              <ntsc>FALSE</ntsc>
            </rate>
            <media>
              <video>
                <track>
                  <clipitem frameBlend="FALSE" id="clipitem-535">
                    <name>Scene - Puppet man_0003.532.png</name>
                    <masterclipid>masterclip-534</masterclipid>
                    <rate>
                      <timebase>24</timebase>
                      <ntsc>FALSE</ntsc>
                    </rate>
                    <alphatype>straight</alphatype>
                    <pixelaspectratio>square</pixelaspectratio>
                    <anamorphic>FALSE</anamorphic>
                    <file id="file-534">
                      <name>Scene - Puppet man_0003.532.png</name>
                      <pathurl>file://localhost/C:/Users/jmrey/OneDrive/Desktop/Programmin Stuff/Projects/conversation-simulator/resources/videos/Scene - Puppet man_0003/Scene - Puppet man_0003.532.png</pathurl>
                      <rate>
                        <timebase>24</timebase>
                        <ntsc>FALSE</ntsc>
                      </rate>
                      <duration>720</duration>
                      <timecode>
                        <rate>
                          <timebase>24</timebase>
                          <ntsc>FALSE</ntsc>
                        </rate>
                      </timecode>
                      <media>
                        <video>
                          <duration>1</duration>
                          <samplecharacteristics>
                            <anamorphic>FALSE</anamorphic>
                            <pixelaspectratio>square</pixelaspectratio>
                            <fielddominance>none</fielddominance>
                            <width>1920</width>
                            <height>1080</height>
                          </samplecharacteristics>
                        </video>
                      </media>
                    </file>
                  </clipitem>
                </track>
              </video>
            </media>
          </clip>
          <clip explodedTracks="true" frameBlend="FALSE" id="masterclip-535">
            <uuid>f896d6f2-8f4e-489c-9077-8f61bc87e9ba</uuid>
            <masterclipid>masterclip-535</masterclipid>
            <ismasterclip>TRUE</ismasterclip>
            <duration>720</duration>
            <in>0</in>
            <out>720</out>
            <name>Scene - Puppet man_0003.533.png</name>
            <rate>
              <timebase>24</timebase>
              <ntsc>FALSE</ntsc>
            </rate>
            <media>
              <video>
                <track>
                  <clipitem frameBlend="FALSE" id="clipitem-536">
                    <name>Scene - Puppet man_0003.533.png</name>
                    <masterclipid>masterclip-535</masterclipid>
                    <rate>
                      <timebase>24</timebase>
                      <ntsc>FALSE</ntsc>
                    </rate>
                    <alphatype>straight</alphatype>
                    <pixelaspectratio>square</pixelaspectratio>
                    <anamorphic>FALSE</anamorphic>
                    <file id="file-535">
                      <name>Scene - Puppet man_0003.533.png</name>
                      <pathurl>file://localhost/C:/Users/jmrey/OneDrive/Desktop/Programmin Stuff/Projects/conversation-simulator/resources/videos/Scene - Puppet man_0003/Scene - Puppet man_0003.533.png</pathurl>
                      <rate>
                        <timebase>24</timebase>
                        <ntsc>FALSE</ntsc>
                      </rate>
                      <duration>720</duration>
                      <timecode>
                        <rate>
                          <timebase>24</timebase>
                          <ntsc>FALSE</ntsc>
                        </rate>
                      </timecode>
                      <media>
                        <video>
                          <duration>1</duration>
                          <samplecharacteristics>
                            <anamorphic>FALSE</anamorphic>
                            <pixelaspectratio>square</pixelaspectratio>
                            <fielddominance>none</fielddominance>
                            <width>1920</width>
                            <height>1080</height>
                          </samplecharacteristics>
                        </video>
                      </media>
                    </file>
                  </clipitem>
                </track>
              </video>
            </media>
          </clip>
          <clip explodedTracks="true" frameBlend="FALSE" id="masterclip-536">
            <uuid>6341fd60-bd03-4015-bc53-85f3fb404e9f</uuid>
            <masterclipid>masterclip-536</masterclipid>
            <ismasterclip>TRUE</ismasterclip>
            <duration>720</duration>
            <in>0</in>
            <out>720</out>
            <name>Scene - Puppet man_0003.534.png</name>
            <rate>
              <timebase>24</timebase>
              <ntsc>FALSE</ntsc>
            </rate>
            <media>
              <video>
                <track>
                  <clipitem frameBlend="FALSE" id="clipitem-537">
                    <name>Scene - Puppet man_0003.534.png</name>
                    <masterclipid>masterclip-536</masterclipid>
                    <rate>
                      <timebase>24</timebase>
                      <ntsc>FALSE</ntsc>
                    </rate>
                    <alphatype>straight</alphatype>
                    <pixelaspectratio>square</pixelaspectratio>
                    <anamorphic>FALSE</anamorphic>
                    <file id="file-536">
                      <name>Scene - Puppet man_0003.534.png</name>
                      <pathurl>file://localhost/C:/Users/jmrey/OneDrive/Desktop/Programmin Stuff/Projects/conversation-simulator/resources/videos/Scene - Puppet man_0003/Scene - Puppet man_0003.534.png</pathurl>
                      <rate>
                        <timebase>24</timebase>
                        <ntsc>FALSE</ntsc>
                      </rate>
                      <duration>720</duration>
                      <timecode>
                        <rate>
                          <timebase>24</timebase>
                          <ntsc>FALSE</ntsc>
                        </rate>
                      </timecode>
                      <media>
                        <video>
                          <duration>1</duration>
                          <samplecharacteristics>
                            <anamorphic>FALSE</anamorphic>
                            <pixelaspectratio>square</pixelaspectratio>
                            <fielddominance>none</fielddominance>
                            <width>1920</width>
                            <height>1080</height>
                          </samplecharacteristics>
                        </video>
                      </media>
                    </file>
                  </clipitem>
                </track>
              </video>
            </media>
          </clip>
          <clip explodedTracks="true" frameBlend="FALSE" id="masterclip-537">
            <uuid>ed189a68-13ab-48d6-a098-f2b409937c78</uuid>
            <masterclipid>masterclip-537</masterclipid>
            <ismasterclip>TRUE</ismasterclip>
            <duration>720</duration>
            <in>0</in>
            <out>720</out>
            <name>Scene - Puppet man_0003.535.png</name>
            <rate>
              <timebase>24</timebase>
              <ntsc>FALSE</ntsc>
            </rate>
            <media>
              <video>
                <track>
                  <clipitem frameBlend="FALSE" id="clipitem-538">
                    <name>Scene - Puppet man_0003.535.png</name>
                    <masterclipid>masterclip-537</masterclipid>
                    <rate>
                      <timebase>24</timebase>
                      <ntsc>FALSE</ntsc>
                    </rate>
                    <alphatype>straight</alphatype>
                    <pixelaspectratio>square</pixelaspectratio>
                    <anamorphic>FALSE</anamorphic>
                    <file id="file-537">
                      <name>Scene - Puppet man_0003.535.png</name>
                      <pathurl>file://localhost/C:/Users/jmrey/OneDrive/Desktop/Programmin Stuff/Projects/conversation-simulator/resources/videos/Scene - Puppet man_0003/Scene - Puppet man_0003.535.png</pathurl>
                      <rate>
                        <timebase>24</timebase>
                        <ntsc>FALSE</ntsc>
                      </rate>
                      <duration>720</duration>
                      <timecode>
                        <rate>
                          <timebase>24</timebase>
                          <ntsc>FALSE</ntsc>
                        </rate>
                      </timecode>
                      <media>
                        <video>
                          <duration>1</duration>
                          <samplecharacteristics>
                            <anamorphic>FALSE</anamorphic>
                            <pixelaspectratio>square</pixelaspectratio>
                            <fielddominance>none</fielddominance>
                            <width>1920</width>
                            <height>1080</height>
                          </samplecharacteristics>
                        </video>
                      </media>
                    </file>
                  </clipitem>
                </track>
              </video>
            </media>
          </clip>
          <clip explodedTracks="true" frameBlend="FALSE" id="masterclip-538">
            <uuid>cf250890-ed5b-4c90-b9e6-05f221fad5e1</uuid>
            <masterclipid>masterclip-538</masterclipid>
            <ismasterclip>TRUE</ismasterclip>
            <duration>720</duration>
            <in>0</in>
            <out>720</out>
            <name>Scene - Puppet man_0003.536.png</name>
            <rate>
              <timebase>24</timebase>
              <ntsc>FALSE</ntsc>
            </rate>
            <media>
              <video>
                <track>
                  <clipitem frameBlend="FALSE" id="clipitem-539">
                    <name>Scene - Puppet man_0003.536.png</name>
                    <masterclipid>masterclip-538</masterclipid>
                    <rate>
                      <timebase>24</timebase>
                      <ntsc>FALSE</ntsc>
                    </rate>
                    <alphatype>straight</alphatype>
                    <pixelaspectratio>square</pixelaspectratio>
                    <anamorphic>FALSE</anamorphic>
                    <file id="file-538">
                      <name>Scene - Puppet man_0003.536.png</name>
                      <pathurl>file://localhost/C:/Users/jmrey/OneDrive/Desktop/Programmin Stuff/Projects/conversation-simulator/resources/videos/Scene - Puppet man_0003/Scene - Puppet man_0003.536.png</pathurl>
                      <rate>
                        <timebase>24</timebase>
                        <ntsc>FALSE</ntsc>
                      </rate>
                      <duration>720</duration>
                      <timecode>
                        <rate>
                          <timebase>24</timebase>
                          <ntsc>FALSE</ntsc>
                        </rate>
                      </timecode>
                      <media>
                        <video>
                          <duration>1</duration>
                          <samplecharacteristics>
                            <anamorphic>FALSE</anamorphic>
                            <pixelaspectratio>square</pixelaspectratio>
                            <fielddominance>none</fielddominance>
                            <width>1920</width>
                            <height>1080</height>
                          </samplecharacteristics>
                        </video>
                      </media>
                    </file>
                  </clipitem>
                </track>
              </video>
            </media>
          </clip>
          <clip explodedTracks="true" frameBlend="FALSE" id="masterclip-539">
            <uuid>8745524f-fbf7-4b8a-8cf7-4a3976cd144e</uuid>
            <masterclipid>masterclip-539</masterclipid>
            <ismasterclip>TRUE</ismasterclip>
            <duration>720</duration>
            <in>0</in>
            <out>720</out>
            <name>Scene - Puppet man_0003.537.png</name>
            <rate>
              <timebase>24</timebase>
              <ntsc>FALSE</ntsc>
            </rate>
            <media>
              <video>
                <track>
                  <clipitem frameBlend="FALSE" id="clipitem-540">
                    <name>Scene - Puppet man_0003.537.png</name>
                    <masterclipid>masterclip-539</masterclipid>
                    <rate>
                      <timebase>24</timebase>
                      <ntsc>FALSE</ntsc>
                    </rate>
                    <alphatype>straight</alphatype>
                    <pixelaspectratio>square</pixelaspectratio>
                    <anamorphic>FALSE</anamorphic>
                    <file id="file-539">
                      <name>Scene - Puppet man_0003.537.png</name>
                      <pathurl>file://localhost/C:/Users/jmrey/OneDrive/Desktop/Programmin Stuff/Projects/conversation-simulator/resources/videos/Scene - Puppet man_0003/Scene - Puppet man_0003.537.png</pathurl>
                      <rate>
                        <timebase>24</timebase>
                        <ntsc>FALSE</ntsc>
                      </rate>
                      <duration>720</duration>
                      <timecode>
                        <rate>
                          <timebase>24</timebase>
                          <ntsc>FALSE</ntsc>
                        </rate>
                      </timecode>
                      <media>
                        <video>
                          <duration>1</duration>
                          <samplecharacteristics>
                            <anamorphic>FALSE</anamorphic>
                            <pixelaspectratio>square</pixelaspectratio>
                            <fielddominance>none</fielddominance>
                            <width>1920</width>
                            <height>1080</height>
                          </samplecharacteristics>
                        </video>
                      </media>
                    </file>
                  </clipitem>
                </track>
              </video>
            </media>
          </clip>
          <clip explodedTracks="true" frameBlend="FALSE" id="masterclip-540">
            <uuid>4bed63a0-6f84-415e-bbd0-34b8581051b6</uuid>
            <masterclipid>masterclip-540</masterclipid>
            <ismasterclip>TRUE</ismasterclip>
            <duration>720</duration>
            <in>0</in>
            <out>720</out>
            <name>Scene - Puppet man_0003.538.png</name>
            <rate>
              <timebase>24</timebase>
              <ntsc>FALSE</ntsc>
            </rate>
            <media>
              <video>
                <track>
                  <clipitem frameBlend="FALSE" id="clipitem-541">
                    <name>Scene - Puppet man_0003.538.png</name>
                    <masterclipid>masterclip-540</masterclipid>
                    <rate>
                      <timebase>24</timebase>
                      <ntsc>FALSE</ntsc>
                    </rate>
                    <alphatype>straight</alphatype>
                    <pixelaspectratio>square</pixelaspectratio>
                    <anamorphic>FALSE</anamorphic>
                    <file id="file-540">
                      <name>Scene - Puppet man_0003.538.png</name>
                      <pathurl>file://localhost/C:/Users/jmrey/OneDrive/Desktop/Programmin Stuff/Projects/conversation-simulator/resources/videos/Scene - Puppet man_0003/Scene - Puppet man_0003.538.png</pathurl>
                      <rate>
                        <timebase>24</timebase>
                        <ntsc>FALSE</ntsc>
                      </rate>
                      <duration>720</duration>
                      <timecode>
                        <rate>
                          <timebase>24</timebase>
                          <ntsc>FALSE</ntsc>
                        </rate>
                      </timecode>
                      <media>
                        <video>
                          <duration>1</duration>
                          <samplecharacteristics>
                            <anamorphic>FALSE</anamorphic>
                            <pixelaspectratio>square</pixelaspectratio>
                            <fielddominance>none</fielddominance>
                            <width>1920</width>
                            <height>1080</height>
                          </samplecharacteristics>
                        </video>
                      </media>
                    </file>
                  </clipitem>
                </track>
              </video>
            </media>
          </clip>
          <clip explodedTracks="true" frameBlend="FALSE" id="masterclip-541">
            <uuid>b98b609c-3ff7-4baf-aeb3-449ac443bcef</uuid>
            <masterclipid>masterclip-541</masterclipid>
            <ismasterclip>TRUE</ismasterclip>
            <duration>720</duration>
            <in>0</in>
            <out>720</out>
            <name>Scene - Puppet man_0003.539.png</name>
            <rate>
              <timebase>24</timebase>
              <ntsc>FALSE</ntsc>
            </rate>
            <media>
              <video>
                <track>
                  <clipitem frameBlend="FALSE" id="clipitem-542">
                    <name>Scene - Puppet man_0003.539.png</name>
                    <masterclipid>masterclip-541</masterclipid>
                    <rate>
                      <timebase>24</timebase>
                      <ntsc>FALSE</ntsc>
                    </rate>
                    <alphatype>straight</alphatype>
                    <pixelaspectratio>square</pixelaspectratio>
                    <anamorphic>FALSE</anamorphic>
                    <file id="file-541">
                      <name>Scene - Puppet man_0003.539.png</name>
                      <pathurl>file://localhost/C:/Users/jmrey/OneDrive/Desktop/Programmin Stuff/Projects/conversation-simulator/resources/videos/Scene - Puppet man_0003/Scene - Puppet man_0003.539.png</pathurl>
                      <rate>
                        <timebase>24</timebase>
                        <ntsc>FALSE</ntsc>
                      </rate>
                      <duration>720</duration>
                      <timecode>
                        <rate>
                          <timebase>24</timebase>
                          <ntsc>FALSE</ntsc>
                        </rate>
                      </timecode>
                      <media>
                        <video>
                          <duration>1</duration>
                          <samplecharacteristics>
                            <anamorphic>FALSE</anamorphic>
                            <pixelaspectratio>square</pixelaspectratio>
                            <fielddominance>none</fielddominance>
                            <width>1920</width>
                            <height>1080</height>
                          </samplecharacteristics>
                        </video>
                      </media>
                    </file>
                  </clipitem>
                </track>
              </video>
            </media>
          </clip>
          <clip explodedTracks="true" frameBlend="FALSE" id="masterclip-542">
            <uuid>41a31b64-a343-4735-9ebd-83040ba2f3b0</uuid>
            <masterclipid>masterclip-542</masterclipid>
            <ismasterclip>TRUE</ismasterclip>
            <duration>720</duration>
            <in>0</in>
            <out>720</out>
            <name>Scene - Puppet man_0003.540.png</name>
            <rate>
              <timebase>24</timebase>
              <ntsc>FALSE</ntsc>
            </rate>
            <media>
              <video>
                <track>
                  <clipitem frameBlend="FALSE" id="clipitem-543">
                    <name>Scene - Puppet man_0003.540.png</name>
                    <masterclipid>masterclip-542</masterclipid>
                    <rate>
                      <timebase>24</timebase>
                      <ntsc>FALSE</ntsc>
                    </rate>
                    <alphatype>straight</alphatype>
                    <pixelaspectratio>square</pixelaspectratio>
                    <anamorphic>FALSE</anamorphic>
                    <file id="file-542">
                      <name>Scene - Puppet man_0003.540.png</name>
                      <pathurl>file://localhost/C:/Users/jmrey/OneDrive/Desktop/Programmin Stuff/Projects/conversation-simulator/resources/videos/Scene - Puppet man_0003/Scene - Puppet man_0003.540.png</pathurl>
                      <rate>
                        <timebase>24</timebase>
                        <ntsc>FALSE</ntsc>
                      </rate>
                      <duration>720</duration>
                      <timecode>
                        <rate>
                          <timebase>24</timebase>
                          <ntsc>FALSE</ntsc>
                        </rate>
                      </timecode>
                      <media>
                        <video>
                          <duration>1</duration>
                          <samplecharacteristics>
                            <anamorphic>FALSE</anamorphic>
                            <pixelaspectratio>square</pixelaspectratio>
                            <fielddominance>none</fielddominance>
                            <width>1920</width>
                            <height>1080</height>
                          </samplecharacteristics>
                        </video>
                      </media>
                    </file>
                  </clipitem>
                </track>
              </video>
            </media>
          </clip>
          <clip explodedTracks="true" frameBlend="FALSE" id="masterclip-543">
            <uuid>70ee68ec-c208-4acc-8d3d-55c2b3f5cf66</uuid>
            <masterclipid>masterclip-543</masterclipid>
            <ismasterclip>TRUE</ismasterclip>
            <duration>720</duration>
            <in>0</in>
            <out>720</out>
            <name>Scene - Puppet man_0003.541.png</name>
            <rate>
              <timebase>24</timebase>
              <ntsc>FALSE</ntsc>
            </rate>
            <media>
              <video>
                <track>
                  <clipitem frameBlend="FALSE" id="clipitem-544">
                    <name>Scene - Puppet man_0003.541.png</name>
                    <masterclipid>masterclip-543</masterclipid>
                    <rate>
                      <timebase>24</timebase>
                      <ntsc>FALSE</ntsc>
                    </rate>
                    <alphatype>straight</alphatype>
                    <pixelaspectratio>square</pixelaspectratio>
                    <anamorphic>FALSE</anamorphic>
                    <file id="file-543">
                      <name>Scene - Puppet man_0003.541.png</name>
                      <pathurl>file://localhost/C:/Users/jmrey/OneDrive/Desktop/Programmin Stuff/Projects/conversation-simulator/resources/videos/Scene - Puppet man_0003/Scene - Puppet man_0003.541.png</pathurl>
                      <rate>
                        <timebase>24</timebase>
                        <ntsc>FALSE</ntsc>
                      </rate>
                      <duration>720</duration>
                      <timecode>
                        <rate>
                          <timebase>24</timebase>
                          <ntsc>FALSE</ntsc>
                        </rate>
                      </timecode>
                      <media>
                        <video>
                          <duration>1</duration>
                          <samplecharacteristics>
                            <anamorphic>FALSE</anamorphic>
                            <pixelaspectratio>square</pixelaspectratio>
                            <fielddominance>none</fielddominance>
                            <width>1920</width>
                            <height>1080</height>
                          </samplecharacteristics>
                        </video>
                      </media>
                    </file>
                  </clipitem>
                </track>
              </video>
            </media>
          </clip>
          <clip explodedTracks="true" frameBlend="FALSE" id="masterclip-544">
            <uuid>de295360-5446-44ba-bcb7-4e5151245508</uuid>
            <masterclipid>masterclip-544</masterclipid>
            <ismasterclip>TRUE</ismasterclip>
            <duration>720</duration>
            <in>0</in>
            <out>720</out>
            <name>Scene - Puppet man_0003.542.png</name>
            <rate>
              <timebase>24</timebase>
              <ntsc>FALSE</ntsc>
            </rate>
            <media>
              <video>
                <track>
                  <clipitem frameBlend="FALSE" id="clipitem-545">
                    <name>Scene - Puppet man_0003.542.png</name>
                    <masterclipid>masterclip-544</masterclipid>
                    <rate>
                      <timebase>24</timebase>
                      <ntsc>FALSE</ntsc>
                    </rate>
                    <alphatype>straight</alphatype>
                    <pixelaspectratio>square</pixelaspectratio>
                    <anamorphic>FALSE</anamorphic>
                    <file id="file-544">
                      <name>Scene - Puppet man_0003.542.png</name>
                      <pathurl>file://localhost/C:/Users/jmrey/OneDrive/Desktop/Programmin Stuff/Projects/conversation-simulator/resources/videos/Scene - Puppet man_0003/Scene - Puppet man_0003.542.png</pathurl>
                      <rate>
                        <timebase>24</timebase>
                        <ntsc>FALSE</ntsc>
                      </rate>
                      <duration>720</duration>
                      <timecode>
                        <rate>
                          <timebase>24</timebase>
                          <ntsc>FALSE</ntsc>
                        </rate>
                      </timecode>
                      <media>
                        <video>
                          <duration>1</duration>
                          <samplecharacteristics>
                            <anamorphic>FALSE</anamorphic>
                            <pixelaspectratio>square</pixelaspectratio>
                            <fielddominance>none</fielddominance>
                            <width>1920</width>
                            <height>1080</height>
                          </samplecharacteristics>
                        </video>
                      </media>
                    </file>
                  </clipitem>
                </track>
              </video>
            </media>
          </clip>
          <clip explodedTracks="true" frameBlend="FALSE" id="masterclip-545">
            <uuid>7fcf1946-36a9-4f84-8a72-1809bf314796</uuid>
            <masterclipid>masterclip-545</masterclipid>
            <ismasterclip>TRUE</ismasterclip>
            <duration>720</duration>
            <in>0</in>
            <out>720</out>
            <name>Scene - Puppet man_0003.543.png</name>
            <rate>
              <timebase>24</timebase>
              <ntsc>FALSE</ntsc>
            </rate>
            <media>
              <video>
                <track>
                  <clipitem frameBlend="FALSE" id="clipitem-546">
                    <name>Scene - Puppet man_0003.543.png</name>
                    <masterclipid>masterclip-545</masterclipid>
                    <rate>
                      <timebase>24</timebase>
                      <ntsc>FALSE</ntsc>
                    </rate>
                    <alphatype>straight</alphatype>
                    <pixelaspectratio>square</pixelaspectratio>
                    <anamorphic>FALSE</anamorphic>
                    <file id="file-545">
                      <name>Scene - Puppet man_0003.543.png</name>
                      <pathurl>file://localhost/C:/Users/jmrey/OneDrive/Desktop/Programmin Stuff/Projects/conversation-simulator/resources/videos/Scene - Puppet man_0003/Scene - Puppet man_0003.543.png</pathurl>
                      <rate>
                        <timebase>24</timebase>
                        <ntsc>FALSE</ntsc>
                      </rate>
                      <duration>720</duration>
                      <timecode>
                        <rate>
                          <timebase>24</timebase>
                          <ntsc>FALSE</ntsc>
                        </rate>
                      </timecode>
                      <media>
                        <video>
                          <duration>1</duration>
                          <samplecharacteristics>
                            <anamorphic>FALSE</anamorphic>
                            <pixelaspectratio>square</pixelaspectratio>
                            <fielddominance>none</fielddominance>
                            <width>1920</width>
                            <height>1080</height>
                          </samplecharacteristics>
                        </video>
                      </media>
                    </file>
                  </clipitem>
                </track>
              </video>
            </media>
          </clip>
          <clip explodedTracks="true" frameBlend="FALSE" id="masterclip-546">
            <uuid>42309dd5-32a6-4e5d-8c16-65280e78ee6d</uuid>
            <masterclipid>masterclip-546</masterclipid>
            <ismasterclip>TRUE</ismasterclip>
            <duration>720</duration>
            <in>0</in>
            <out>720</out>
            <name>Scene - Puppet man_0003.544.png</name>
            <rate>
              <timebase>24</timebase>
              <ntsc>FALSE</ntsc>
            </rate>
            <media>
              <video>
                <track>
                  <clipitem frameBlend="FALSE" id="clipitem-547">
                    <name>Scene - Puppet man_0003.544.png</name>
                    <masterclipid>masterclip-546</masterclipid>
                    <rate>
                      <timebase>24</timebase>
                      <ntsc>FALSE</ntsc>
                    </rate>
                    <alphatype>straight</alphatype>
                    <pixelaspectratio>square</pixelaspectratio>
                    <anamorphic>FALSE</anamorphic>
                    <file id="file-546">
                      <name>Scene - Puppet man_0003.544.png</name>
                      <pathurl>file://localhost/C:/Users/jmrey/OneDrive/Desktop/Programmin Stuff/Projects/conversation-simulator/resources/videos/Scene - Puppet man_0003/Scene - Puppet man_0003.544.png</pathurl>
                      <rate>
                        <timebase>24</timebase>
                        <ntsc>FALSE</ntsc>
                      </rate>
                      <duration>720</duration>
                      <timecode>
                        <rate>
                          <timebase>24</timebase>
                          <ntsc>FALSE</ntsc>
                        </rate>
                      </timecode>
                      <media>
                        <video>
                          <duration>1</duration>
                          <samplecharacteristics>
                            <anamorphic>FALSE</anamorphic>
                            <pixelaspectratio>square</pixelaspectratio>
                            <fielddominance>none</fielddominance>
                            <width>1920</width>
                            <height>1080</height>
                          </samplecharacteristics>
                        </video>
                      </media>
                    </file>
                  </clipitem>
                </track>
              </video>
            </media>
          </clip>
          <clip explodedTracks="true" frameBlend="FALSE" id="masterclip-547">
            <uuid>c9440c58-cef9-4de0-a602-42e4ce8ec3d1</uuid>
            <masterclipid>masterclip-547</masterclipid>
            <ismasterclip>TRUE</ismasterclip>
            <duration>720</duration>
            <in>0</in>
            <out>720</out>
            <name>Scene - Puppet man_0003.545.png</name>
            <rate>
              <timebase>24</timebase>
              <ntsc>FALSE</ntsc>
            </rate>
            <media>
              <video>
                <track>
                  <clipitem frameBlend="FALSE" id="clipitem-548">
                    <name>Scene - Puppet man_0003.545.png</name>
                    <masterclipid>masterclip-547</masterclipid>
                    <rate>
                      <timebase>24</timebase>
                      <ntsc>FALSE</ntsc>
                    </rate>
                    <alphatype>straight</alphatype>
                    <pixelaspectratio>square</pixelaspectratio>
                    <anamorphic>FALSE</anamorphic>
                    <file id="file-547">
                      <name>Scene - Puppet man_0003.545.png</name>
                      <pathurl>file://localhost/C:/Users/jmrey/OneDrive/Desktop/Programmin Stuff/Projects/conversation-simulator/resources/videos/Scene - Puppet man_0003/Scene - Puppet man_0003.545.png</pathurl>
                      <rate>
                        <timebase>24</timebase>
                        <ntsc>FALSE</ntsc>
                      </rate>
                      <duration>720</duration>
                      <timecode>
                        <rate>
                          <timebase>24</timebase>
                          <ntsc>FALSE</ntsc>
                        </rate>
                      </timecode>
                      <media>
                        <video>
                          <duration>1</duration>
                          <samplecharacteristics>
                            <anamorphic>FALSE</anamorphic>
                            <pixelaspectratio>square</pixelaspectratio>
                            <fielddominance>none</fielddominance>
                            <width>1920</width>
                            <height>1080</height>
                          </samplecharacteristics>
                        </video>
                      </media>
                    </file>
                  </clipitem>
                </track>
              </video>
            </media>
          </clip>
          <clip explodedTracks="true" frameBlend="FALSE" id="masterclip-548">
            <uuid>486d2df9-c5c4-4351-89ec-2cd142d5083c</uuid>
            <masterclipid>masterclip-548</masterclipid>
            <ismasterclip>TRUE</ismasterclip>
            <duration>720</duration>
            <in>0</in>
            <out>720</out>
            <name>Scene - Puppet man_0003.546.png</name>
            <rate>
              <timebase>24</timebase>
              <ntsc>FALSE</ntsc>
            </rate>
            <media>
              <video>
                <track>
                  <clipitem frameBlend="FALSE" id="clipitem-549">
                    <name>Scene - Puppet man_0003.546.png</name>
                    <masterclipid>masterclip-548</masterclipid>
                    <rate>
                      <timebase>24</timebase>
                      <ntsc>FALSE</ntsc>
                    </rate>
                    <alphatype>straight</alphatype>
                    <pixelaspectratio>square</pixelaspectratio>
                    <anamorphic>FALSE</anamorphic>
                    <file id="file-548">
                      <name>Scene - Puppet man_0003.546.png</name>
                      <pathurl>file://localhost/C:/Users/jmrey/OneDrive/Desktop/Programmin Stuff/Projects/conversation-simulator/resources/videos/Scene - Puppet man_0003/Scene - Puppet man_0003.546.png</pathurl>
                      <rate>
                        <timebase>24</timebase>
                        <ntsc>FALSE</ntsc>
                      </rate>
                      <duration>720</duration>
                      <timecode>
                        <rate>
                          <timebase>24</timebase>
                          <ntsc>FALSE</ntsc>
                        </rate>
                      </timecode>
                      <media>
                        <video>
                          <duration>1</duration>
                          <samplecharacteristics>
                            <anamorphic>FALSE</anamorphic>
                            <pixelaspectratio>square</pixelaspectratio>
                            <fielddominance>none</fielddominance>
                            <width>1920</width>
                            <height>1080</height>
                          </samplecharacteristics>
                        </video>
                      </media>
                    </file>
                  </clipitem>
                </track>
              </video>
            </media>
          </clip>
          <clip explodedTracks="true" frameBlend="FALSE" id="masterclip-549">
            <uuid>ee686f6f-7f69-4df2-84ed-dbdce4a66dcf</uuid>
            <masterclipid>masterclip-549</masterclipid>
            <ismasterclip>TRUE</ismasterclip>
            <duration>720</duration>
            <in>0</in>
            <out>720</out>
            <name>Scene - Puppet man_0003.547.png</name>
            <rate>
              <timebase>24</timebase>
              <ntsc>FALSE</ntsc>
            </rate>
            <media>
              <video>
                <track>
                  <clipitem frameBlend="FALSE" id="clipitem-550">
                    <name>Scene - Puppet man_0003.547.png</name>
                    <masterclipid>masterclip-549</masterclipid>
                    <rate>
                      <timebase>24</timebase>
                      <ntsc>FALSE</ntsc>
                    </rate>
                    <alphatype>straight</alphatype>
                    <pixelaspectratio>square</pixelaspectratio>
                    <anamorphic>FALSE</anamorphic>
                    <file id="file-549">
                      <name>Scene - Puppet man_0003.547.png</name>
                      <pathurl>file://localhost/C:/Users/jmrey/OneDrive/Desktop/Programmin Stuff/Projects/conversation-simulator/resources/videos/Scene - Puppet man_0003/Scene - Puppet man_0003.547.png</pathurl>
                      <rate>
                        <timebase>24</timebase>
                        <ntsc>FALSE</ntsc>
                      </rate>
                      <duration>720</duration>
                      <timecode>
                        <rate>
                          <timebase>24</timebase>
                          <ntsc>FALSE</ntsc>
                        </rate>
                      </timecode>
                      <media>
                        <video>
                          <duration>1</duration>
                          <samplecharacteristics>
                            <anamorphic>FALSE</anamorphic>
                            <pixelaspectratio>square</pixelaspectratio>
                            <fielddominance>none</fielddominance>
                            <width>1920</width>
                            <height>1080</height>
                          </samplecharacteristics>
                        </video>
                      </media>
                    </file>
                  </clipitem>
                </track>
              </video>
            </media>
          </clip>
          <clip explodedTracks="true" frameBlend="FALSE" id="masterclip-550">
            <uuid>11c1c16e-e8b7-446f-9556-fa36392bd500</uuid>
            <masterclipid>masterclip-550</masterclipid>
            <ismasterclip>TRUE</ismasterclip>
            <duration>720</duration>
            <in>0</in>
            <out>720</out>
            <name>Scene - Puppet man_0003.548.png</name>
            <rate>
              <timebase>24</timebase>
              <ntsc>FALSE</ntsc>
            </rate>
            <media>
              <video>
                <track>
                  <clipitem frameBlend="FALSE" id="clipitem-551">
                    <name>Scene - Puppet man_0003.548.png</name>
                    <masterclipid>masterclip-550</masterclipid>
                    <rate>
                      <timebase>24</timebase>
                      <ntsc>FALSE</ntsc>
                    </rate>
                    <alphatype>straight</alphatype>
                    <pixelaspectratio>square</pixelaspectratio>
                    <anamorphic>FALSE</anamorphic>
                    <file id="file-550">
                      <name>Scene - Puppet man_0003.548.png</name>
                      <pathurl>file://localhost/C:/Users/jmrey/OneDrive/Desktop/Programmin Stuff/Projects/conversation-simulator/resources/videos/Scene - Puppet man_0003/Scene - Puppet man_0003.548.png</pathurl>
                      <rate>
                        <timebase>24</timebase>
                        <ntsc>FALSE</ntsc>
                      </rate>
                      <duration>720</duration>
                      <timecode>
                        <rate>
                          <timebase>24</timebase>
                          <ntsc>FALSE</ntsc>
                        </rate>
                      </timecode>
                      <media>
                        <video>
                          <duration>1</duration>
                          <samplecharacteristics>
                            <anamorphic>FALSE</anamorphic>
                            <pixelaspectratio>square</pixelaspectratio>
                            <fielddominance>none</fielddominance>
                            <width>1920</width>
                            <height>1080</height>
                          </samplecharacteristics>
                        </video>
                      </media>
                    </file>
                  </clipitem>
                </track>
              </video>
            </media>
          </clip>
          <clip explodedTracks="true" frameBlend="FALSE" id="masterclip-551">
            <uuid>89e50666-f819-44e4-a77a-551dc938daed</uuid>
            <masterclipid>masterclip-551</masterclipid>
            <ismasterclip>TRUE</ismasterclip>
            <duration>720</duration>
            <in>0</in>
            <out>720</out>
            <name>Scene - Puppet man_0003.549.png</name>
            <rate>
              <timebase>24</timebase>
              <ntsc>FALSE</ntsc>
            </rate>
            <media>
              <video>
                <track>
                  <clipitem frameBlend="FALSE" id="clipitem-552">
                    <name>Scene - Puppet man_0003.549.png</name>
                    <masterclipid>masterclip-551</masterclipid>
                    <rate>
                      <timebase>24</timebase>
                      <ntsc>FALSE</ntsc>
                    </rate>
                    <alphatype>straight</alphatype>
                    <pixelaspectratio>square</pixelaspectratio>
                    <anamorphic>FALSE</anamorphic>
                    <file id="file-551">
                      <name>Scene - Puppet man_0003.549.png</name>
                      <pathurl>file://localhost/C:/Users/jmrey/OneDrive/Desktop/Programmin Stuff/Projects/conversation-simulator/resources/videos/Scene - Puppet man_0003/Scene - Puppet man_0003.549.png</pathurl>
                      <rate>
                        <timebase>24</timebase>
                        <ntsc>FALSE</ntsc>
                      </rate>
                      <duration>720</duration>
                      <timecode>
                        <rate>
                          <timebase>24</timebase>
                          <ntsc>FALSE</ntsc>
                        </rate>
                      </timecode>
                      <media>
                        <video>
                          <duration>1</duration>
                          <samplecharacteristics>
                            <anamorphic>FALSE</anamorphic>
                            <pixelaspectratio>square</pixelaspectratio>
                            <fielddominance>none</fielddominance>
                            <width>1920</width>
                            <height>1080</height>
                          </samplecharacteristics>
                        </video>
                      </media>
                    </file>
                  </clipitem>
                </track>
              </video>
            </media>
          </clip>
          <clip explodedTracks="true" frameBlend="FALSE" id="masterclip-552">
            <uuid>3944e883-49d1-437b-846d-d93c310d037f</uuid>
            <masterclipid>masterclip-552</masterclipid>
            <ismasterclip>TRUE</ismasterclip>
            <duration>720</duration>
            <in>0</in>
            <out>720</out>
            <name>Scene - Puppet man_0003.550.png</name>
            <rate>
              <timebase>24</timebase>
              <ntsc>FALSE</ntsc>
            </rate>
            <media>
              <video>
                <track>
                  <clipitem frameBlend="FALSE" id="clipitem-553">
                    <name>Scene - Puppet man_0003.550.png</name>
                    <masterclipid>masterclip-552</masterclipid>
                    <rate>
                      <timebase>24</timebase>
                      <ntsc>FALSE</ntsc>
                    </rate>
                    <alphatype>straight</alphatype>
                    <pixelaspectratio>square</pixelaspectratio>
                    <anamorphic>FALSE</anamorphic>
                    <file id="file-552">
                      <name>Scene - Puppet man_0003.550.png</name>
                      <pathurl>file://localhost/C:/Users/jmrey/OneDrive/Desktop/Programmin Stuff/Projects/conversation-simulator/resources/videos/Scene - Puppet man_0003/Scene - Puppet man_0003.550.png</pathurl>
                      <rate>
                        <timebase>24</timebase>
                        <ntsc>FALSE</ntsc>
                      </rate>
                      <duration>720</duration>
                      <timecode>
                        <rate>
                          <timebase>24</timebase>
                          <ntsc>FALSE</ntsc>
                        </rate>
                      </timecode>
                      <media>
                        <video>
                          <duration>1</duration>
                          <samplecharacteristics>
                            <anamorphic>FALSE</anamorphic>
                            <pixelaspectratio>square</pixelaspectratio>
                            <fielddominance>none</fielddominance>
                            <width>1920</width>
                            <height>1080</height>
                          </samplecharacteristics>
                        </video>
                      </media>
                    </file>
                  </clipitem>
                </track>
              </video>
            </media>
          </clip>
          <clip explodedTracks="true" frameBlend="FALSE" id="masterclip-553">
            <uuid>6860ee17-0692-4059-8260-938384c38b66</uuid>
            <masterclipid>masterclip-553</masterclipid>
            <ismasterclip>TRUE</ismasterclip>
            <duration>720</duration>
            <in>0</in>
            <out>720</out>
            <name>Scene - Puppet man_0003.551.png</name>
            <rate>
              <timebase>24</timebase>
              <ntsc>FALSE</ntsc>
            </rate>
            <media>
              <video>
                <track>
                  <clipitem frameBlend="FALSE" id="clipitem-554">
                    <name>Scene - Puppet man_0003.551.png</name>
                    <masterclipid>masterclip-553</masterclipid>
                    <rate>
                      <timebase>24</timebase>
                      <ntsc>FALSE</ntsc>
                    </rate>
                    <alphatype>straight</alphatype>
                    <pixelaspectratio>square</pixelaspectratio>
                    <anamorphic>FALSE</anamorphic>
                    <file id="file-553">
                      <name>Scene - Puppet man_0003.551.png</name>
                      <pathurl>file://localhost/C:/Users/jmrey/OneDrive/Desktop/Programmin Stuff/Projects/conversation-simulator/resources/videos/Scene - Puppet man_0003/Scene - Puppet man_0003.551.png</pathurl>
                      <rate>
                        <timebase>24</timebase>
                        <ntsc>FALSE</ntsc>
                      </rate>
                      <duration>720</duration>
                      <timecode>
                        <rate>
                          <timebase>24</timebase>
                          <ntsc>FALSE</ntsc>
                        </rate>
                      </timecode>
                      <media>
                        <video>
                          <duration>1</duration>
                          <samplecharacteristics>
                            <anamorphic>FALSE</anamorphic>
                            <pixelaspectratio>square</pixelaspectratio>
                            <fielddominance>none</fielddominance>
                            <width>1920</width>
                            <height>1080</height>
                          </samplecharacteristics>
                        </video>
                      </media>
                    </file>
                  </clipitem>
                </track>
              </video>
            </media>
          </clip>
          <clip explodedTracks="true" frameBlend="FALSE" id="masterclip-554">
            <uuid>e5bff361-b05d-41d1-aca7-cbae5155358f</uuid>
            <masterclipid>masterclip-554</masterclipid>
            <ismasterclip>TRUE</ismasterclip>
            <duration>720</duration>
            <in>0</in>
            <out>720</out>
            <name>Scene - Puppet man_0003.552.png</name>
            <rate>
              <timebase>24</timebase>
              <ntsc>FALSE</ntsc>
            </rate>
            <media>
              <video>
                <track>
                  <clipitem frameBlend="FALSE" id="clipitem-555">
                    <name>Scene - Puppet man_0003.552.png</name>
                    <masterclipid>masterclip-554</masterclipid>
                    <rate>
                      <timebase>24</timebase>
                      <ntsc>FALSE</ntsc>
                    </rate>
                    <alphatype>straight</alphatype>
                    <pixelaspectratio>square</pixelaspectratio>
                    <anamorphic>FALSE</anamorphic>
                    <file id="file-554">
                      <name>Scene - Puppet man_0003.552.png</name>
                      <pathurl>file://localhost/C:/Users/jmrey/OneDrive/Desktop/Programmin Stuff/Projects/conversation-simulator/resources/videos/Scene - Puppet man_0003/Scene - Puppet man_0003.552.png</pathurl>
                      <rate>
                        <timebase>24</timebase>
                        <ntsc>FALSE</ntsc>
                      </rate>
                      <duration>720</duration>
                      <timecode>
                        <rate>
                          <timebase>24</timebase>
                          <ntsc>FALSE</ntsc>
                        </rate>
                      </timecode>
                      <media>
                        <video>
                          <duration>1</duration>
                          <samplecharacteristics>
                            <anamorphic>FALSE</anamorphic>
                            <pixelaspectratio>square</pixelaspectratio>
                            <fielddominance>none</fielddominance>
                            <width>1920</width>
                            <height>1080</height>
                          </samplecharacteristics>
                        </video>
                      </media>
                    </file>
                  </clipitem>
                </track>
              </video>
            </media>
          </clip>
          <clip explodedTracks="true" frameBlend="FALSE" id="masterclip-555">
            <uuid>df89f97f-71cd-4c73-93ba-dbd06510f028</uuid>
            <masterclipid>masterclip-555</masterclipid>
            <ismasterclip>TRUE</ismasterclip>
            <duration>720</duration>
            <in>0</in>
            <out>720</out>
            <name>Scene - Puppet man_0003.553.png</name>
            <rate>
              <timebase>24</timebase>
              <ntsc>FALSE</ntsc>
            </rate>
            <media>
              <video>
                <track>
                  <clipitem frameBlend="FALSE" id="clipitem-556">
                    <name>Scene - Puppet man_0003.553.png</name>
                    <masterclipid>masterclip-555</masterclipid>
                    <rate>
                      <timebase>24</timebase>
                      <ntsc>FALSE</ntsc>
                    </rate>
                    <alphatype>straight</alphatype>
                    <pixelaspectratio>square</pixelaspectratio>
                    <anamorphic>FALSE</anamorphic>
                    <file id="file-555">
                      <name>Scene - Puppet man_0003.553.png</name>
                      <pathurl>file://localhost/C:/Users/jmrey/OneDrive/Desktop/Programmin Stuff/Projects/conversation-simulator/resources/videos/Scene - Puppet man_0003/Scene - Puppet man_0003.553.png</pathurl>
                      <rate>
                        <timebase>24</timebase>
                        <ntsc>FALSE</ntsc>
                      </rate>
                      <duration>720</duration>
                      <timecode>
                        <rate>
                          <timebase>24</timebase>
                          <ntsc>FALSE</ntsc>
                        </rate>
                      </timecode>
                      <media>
                        <video>
                          <duration>1</duration>
                          <samplecharacteristics>
                            <anamorphic>FALSE</anamorphic>
                            <pixelaspectratio>square</pixelaspectratio>
                            <fielddominance>none</fielddominance>
                            <width>1920</width>
                            <height>1080</height>
                          </samplecharacteristics>
                        </video>
                      </media>
                    </file>
                  </clipitem>
                </track>
              </video>
            </media>
          </clip>
          <clip explodedTracks="true" frameBlend="FALSE" id="masterclip-556">
            <uuid>376842fa-3130-4b8b-8728-b0edfc9a7204</uuid>
            <masterclipid>masterclip-556</masterclipid>
            <ismasterclip>TRUE</ismasterclip>
            <duration>720</duration>
            <in>0</in>
            <out>720</out>
            <name>Scene - Puppet man_0003.554.png</name>
            <rate>
              <timebase>24</timebase>
              <ntsc>FALSE</ntsc>
            </rate>
            <media>
              <video>
                <track>
                  <clipitem frameBlend="FALSE" id="clipitem-557">
                    <name>Scene - Puppet man_0003.554.png</name>
                    <masterclipid>masterclip-556</masterclipid>
                    <rate>
                      <timebase>24</timebase>
                      <ntsc>FALSE</ntsc>
                    </rate>
                    <alphatype>straight</alphatype>
                    <pixelaspectratio>square</pixelaspectratio>
                    <anamorphic>FALSE</anamorphic>
                    <file id="file-556">
                      <name>Scene - Puppet man_0003.554.png</name>
                      <pathurl>file://localhost/C:/Users/jmrey/OneDrive/Desktop/Programmin Stuff/Projects/conversation-simulator/resources/videos/Scene - Puppet man_0003/Scene - Puppet man_0003.554.png</pathurl>
                      <rate>
                        <timebase>24</timebase>
                        <ntsc>FALSE</ntsc>
                      </rate>
                      <duration>720</duration>
                      <timecode>
                        <rate>
                          <timebase>24</timebase>
                          <ntsc>FALSE</ntsc>
                        </rate>
                      </timecode>
                      <media>
                        <video>
                          <duration>1</duration>
                          <samplecharacteristics>
                            <anamorphic>FALSE</anamorphic>
                            <pixelaspectratio>square</pixelaspectratio>
                            <fielddominance>none</fielddominance>
                            <width>1920</width>
                            <height>1080</height>
                          </samplecharacteristics>
                        </video>
                      </media>
                    </file>
                  </clipitem>
                </track>
              </video>
            </media>
          </clip>
          <clip explodedTracks="true" frameBlend="FALSE" id="masterclip-557">
            <uuid>56fd4eb8-1440-4d27-83dc-d64768d70d6b</uuid>
            <masterclipid>masterclip-557</masterclipid>
            <ismasterclip>TRUE</ismasterclip>
            <duration>720</duration>
            <in>0</in>
            <out>720</out>
            <name>Scene - Puppet man_0003.555.png</name>
            <rate>
              <timebase>24</timebase>
              <ntsc>FALSE</ntsc>
            </rate>
            <media>
              <video>
                <track>
                  <clipitem frameBlend="FALSE" id="clipitem-558">
                    <name>Scene - Puppet man_0003.555.png</name>
                    <masterclipid>masterclip-557</masterclipid>
                    <rate>
                      <timebase>24</timebase>
                      <ntsc>FALSE</ntsc>
                    </rate>
                    <alphatype>straight</alphatype>
                    <pixelaspectratio>square</pixelaspectratio>
                    <anamorphic>FALSE</anamorphic>
                    <file id="file-557">
                      <name>Scene - Puppet man_0003.555.png</name>
                      <pathurl>file://localhost/C:/Users/jmrey/OneDrive/Desktop/Programmin Stuff/Projects/conversation-simulator/resources/videos/Scene - Puppet man_0003/Scene - Puppet man_0003.555.png</pathurl>
                      <rate>
                        <timebase>24</timebase>
                        <ntsc>FALSE</ntsc>
                      </rate>
                      <duration>720</duration>
                      <timecode>
                        <rate>
                          <timebase>24</timebase>
                          <ntsc>FALSE</ntsc>
                        </rate>
                      </timecode>
                      <media>
                        <video>
                          <duration>1</duration>
                          <samplecharacteristics>
                            <anamorphic>FALSE</anamorphic>
                            <pixelaspectratio>square</pixelaspectratio>
                            <fielddominance>none</fielddominance>
                            <width>1920</width>
                            <height>1080</height>
                          </samplecharacteristics>
                        </video>
                      </media>
                    </file>
                  </clipitem>
                </track>
              </video>
            </media>
          </clip>
          <clip explodedTracks="true" frameBlend="FALSE" id="masterclip-558">
            <uuid>fb3929b7-3524-42c0-b691-86f9eae5d92a</uuid>
            <masterclipid>masterclip-558</masterclipid>
            <ismasterclip>TRUE</ismasterclip>
            <duration>720</duration>
            <in>0</in>
            <out>720</out>
            <name>Scene - Puppet man_0003.556.png</name>
            <rate>
              <timebase>24</timebase>
              <ntsc>FALSE</ntsc>
            </rate>
            <media>
              <video>
                <track>
                  <clipitem frameBlend="FALSE" id="clipitem-559">
                    <name>Scene - Puppet man_0003.556.png</name>
                    <masterclipid>masterclip-558</masterclipid>
                    <rate>
                      <timebase>24</timebase>
                      <ntsc>FALSE</ntsc>
                    </rate>
                    <alphatype>straight</alphatype>
                    <pixelaspectratio>square</pixelaspectratio>
                    <anamorphic>FALSE</anamorphic>
                    <file id="file-558">
                      <name>Scene - Puppet man_0003.556.png</name>
                      <pathurl>file://localhost/C:/Users/jmrey/OneDrive/Desktop/Programmin Stuff/Projects/conversation-simulator/resources/videos/Scene - Puppet man_0003/Scene - Puppet man_0003.556.png</pathurl>
                      <rate>
                        <timebase>24</timebase>
                        <ntsc>FALSE</ntsc>
                      </rate>
                      <duration>720</duration>
                      <timecode>
                        <rate>
                          <timebase>24</timebase>
                          <ntsc>FALSE</ntsc>
                        </rate>
                      </timecode>
                      <media>
                        <video>
                          <duration>1</duration>
                          <samplecharacteristics>
                            <anamorphic>FALSE</anamorphic>
                            <pixelaspectratio>square</pixelaspectratio>
                            <fielddominance>none</fielddominance>
                            <width>1920</width>
                            <height>1080</height>
                          </samplecharacteristics>
                        </video>
                      </media>
                    </file>
                  </clipitem>
                </track>
              </video>
            </media>
          </clip>
          <clip explodedTracks="true" frameBlend="FALSE" id="masterclip-559">
            <uuid>296dc408-4487-4eed-97b8-edf39bc8eb68</uuid>
            <masterclipid>masterclip-559</masterclipid>
            <ismasterclip>TRUE</ismasterclip>
            <duration>720</duration>
            <in>0</in>
            <out>720</out>
            <name>Scene - Puppet man_0003.557.png</name>
            <rate>
              <timebase>24</timebase>
              <ntsc>FALSE</ntsc>
            </rate>
            <media>
              <video>
                <track>
                  <clipitem frameBlend="FALSE" id="clipitem-560">
                    <name>Scene - Puppet man_0003.557.png</name>
                    <masterclipid>masterclip-559</masterclipid>
                    <rate>
                      <timebase>24</timebase>
                      <ntsc>FALSE</ntsc>
                    </rate>
                    <alphatype>straight</alphatype>
                    <pixelaspectratio>square</pixelaspectratio>
                    <anamorphic>FALSE</anamorphic>
                    <file id="file-559">
                      <name>Scene - Puppet man_0003.557.png</name>
                      <pathurl>file://localhost/C:/Users/jmrey/OneDrive/Desktop/Programmin Stuff/Projects/conversation-simulator/resources/videos/Scene - Puppet man_0003/Scene - Puppet man_0003.557.png</pathurl>
                      <rate>
                        <timebase>24</timebase>
                        <ntsc>FALSE</ntsc>
                      </rate>
                      <duration>720</duration>
                      <timecode>
                        <rate>
                          <timebase>24</timebase>
                          <ntsc>FALSE</ntsc>
                        </rate>
                      </timecode>
                      <media>
                        <video>
                          <duration>1</duration>
                          <samplecharacteristics>
                            <anamorphic>FALSE</anamorphic>
                            <pixelaspectratio>square</pixelaspectratio>
                            <fielddominance>none</fielddominance>
                            <width>1920</width>
                            <height>1080</height>
                          </samplecharacteristics>
                        </video>
                      </media>
                    </file>
                  </clipitem>
                </track>
              </video>
            </media>
          </clip>
          <clip explodedTracks="true" frameBlend="FALSE" id="masterclip-560">
            <uuid>002c161a-7ef9-46d4-9b6f-2bbb1f3adc3e</uuid>
            <masterclipid>masterclip-560</masterclipid>
            <ismasterclip>TRUE</ismasterclip>
            <duration>720</duration>
            <in>0</in>
            <out>720</out>
            <name>Scene - Puppet man_0003.558.png</name>
            <rate>
              <timebase>24</timebase>
              <ntsc>FALSE</ntsc>
            </rate>
            <media>
              <video>
                <track>
                  <clipitem frameBlend="FALSE" id="clipitem-561">
                    <name>Scene - Puppet man_0003.558.png</name>
                    <masterclipid>masterclip-560</masterclipid>
                    <rate>
                      <timebase>24</timebase>
                      <ntsc>FALSE</ntsc>
                    </rate>
                    <alphatype>straight</alphatype>
                    <pixelaspectratio>square</pixelaspectratio>
                    <anamorphic>FALSE</anamorphic>
                    <file id="file-560">
                      <name>Scene - Puppet man_0003.558.png</name>
                      <pathurl>file://localhost/C:/Users/jmrey/OneDrive/Desktop/Programmin Stuff/Projects/conversation-simulator/resources/videos/Scene - Puppet man_0003/Scene - Puppet man_0003.558.png</pathurl>
                      <rate>
                        <timebase>24</timebase>
                        <ntsc>FALSE</ntsc>
                      </rate>
                      <duration>720</duration>
                      <timecode>
                        <rate>
                          <timebase>24</timebase>
                          <ntsc>FALSE</ntsc>
                        </rate>
                      </timecode>
                      <media>
                        <video>
                          <duration>1</duration>
                          <samplecharacteristics>
                            <anamorphic>FALSE</anamorphic>
                            <pixelaspectratio>square</pixelaspectratio>
                            <fielddominance>none</fielddominance>
                            <width>1920</width>
                            <height>1080</height>
                          </samplecharacteristics>
                        </video>
                      </media>
                    </file>
                  </clipitem>
                </track>
              </video>
            </media>
          </clip>
          <clip explodedTracks="true" frameBlend="FALSE" id="masterclip-561">
            <uuid>66c0d095-eceb-4fd6-a91c-074edd4402a7</uuid>
            <masterclipid>masterclip-561</masterclipid>
            <ismasterclip>TRUE</ismasterclip>
            <duration>720</duration>
            <in>0</in>
            <out>720</out>
            <name>Scene - Puppet man_0003.559.png</name>
            <rate>
              <timebase>24</timebase>
              <ntsc>FALSE</ntsc>
            </rate>
            <media>
              <video>
                <track>
                  <clipitem frameBlend="FALSE" id="clipitem-562">
                    <name>Scene - Puppet man_0003.559.png</name>
                    <masterclipid>masterclip-561</masterclipid>
                    <rate>
                      <timebase>24</timebase>
                      <ntsc>FALSE</ntsc>
                    </rate>
                    <alphatype>straight</alphatype>
                    <pixelaspectratio>square</pixelaspectratio>
                    <anamorphic>FALSE</anamorphic>
                    <file id="file-561">
                      <name>Scene - Puppet man_0003.559.png</name>
                      <pathurl>file://localhost/C:/Users/jmrey/OneDrive/Desktop/Programmin Stuff/Projects/conversation-simulator/resources/videos/Scene - Puppet man_0003/Scene - Puppet man_0003.559.png</pathurl>
                      <rate>
                        <timebase>24</timebase>
                        <ntsc>FALSE</ntsc>
                      </rate>
                      <duration>720</duration>
                      <timecode>
                        <rate>
                          <timebase>24</timebase>
                          <ntsc>FALSE</ntsc>
                        </rate>
                      </timecode>
                      <media>
                        <video>
                          <duration>1</duration>
                          <samplecharacteristics>
                            <anamorphic>FALSE</anamorphic>
                            <pixelaspectratio>square</pixelaspectratio>
                            <fielddominance>none</fielddominance>
                            <width>1920</width>
                            <height>1080</height>
                          </samplecharacteristics>
                        </video>
                      </media>
                    </file>
                  </clipitem>
                </track>
              </video>
            </media>
          </clip>
          <clip explodedTracks="true" frameBlend="FALSE" id="masterclip-562">
            <uuid>8472cf7f-f3cd-46ac-8f5d-1f8d876d9521</uuid>
            <masterclipid>masterclip-562</masterclipid>
            <ismasterclip>TRUE</ismasterclip>
            <duration>720</duration>
            <in>0</in>
            <out>720</out>
            <name>Scene - Puppet man_0003.560.png</name>
            <rate>
              <timebase>24</timebase>
              <ntsc>FALSE</ntsc>
            </rate>
            <media>
              <video>
                <track>
                  <clipitem frameBlend="FALSE" id="clipitem-563">
                    <name>Scene - Puppet man_0003.560.png</name>
                    <masterclipid>masterclip-562</masterclipid>
                    <rate>
                      <timebase>24</timebase>
                      <ntsc>FALSE</ntsc>
                    </rate>
                    <alphatype>straight</alphatype>
                    <pixelaspectratio>square</pixelaspectratio>
                    <anamorphic>FALSE</anamorphic>
                    <file id="file-562">
                      <name>Scene - Puppet man_0003.560.png</name>
                      <pathurl>file://localhost/C:/Users/jmrey/OneDrive/Desktop/Programmin Stuff/Projects/conversation-simulator/resources/videos/Scene - Puppet man_0003/Scene - Puppet man_0003.560.png</pathurl>
                      <rate>
                        <timebase>24</timebase>
                        <ntsc>FALSE</ntsc>
                      </rate>
                      <duration>720</duration>
                      <timecode>
                        <rate>
                          <timebase>24</timebase>
                          <ntsc>FALSE</ntsc>
                        </rate>
                      </timecode>
                      <media>
                        <video>
                          <duration>1</duration>
                          <samplecharacteristics>
                            <anamorphic>FALSE</anamorphic>
                            <pixelaspectratio>square</pixelaspectratio>
                            <fielddominance>none</fielddominance>
                            <width>1920</width>
                            <height>1080</height>
                          </samplecharacteristics>
                        </video>
                      </media>
                    </file>
                  </clipitem>
                </track>
              </video>
            </media>
          </clip>
          <clip explodedTracks="true" frameBlend="FALSE" id="masterclip-563">
            <uuid>844ce5b6-de91-415b-8ecd-2ed666b8f5f8</uuid>
            <masterclipid>masterclip-563</masterclipid>
            <ismasterclip>TRUE</ismasterclip>
            <duration>720</duration>
            <in>0</in>
            <out>720</out>
            <name>Scene - Puppet man_0003.561.png</name>
            <rate>
              <timebase>24</timebase>
              <ntsc>FALSE</ntsc>
            </rate>
            <media>
              <video>
                <track>
                  <clipitem frameBlend="FALSE" id="clipitem-564">
                    <name>Scene - Puppet man_0003.561.png</name>
                    <masterclipid>masterclip-563</masterclipid>
                    <rate>
                      <timebase>24</timebase>
                      <ntsc>FALSE</ntsc>
                    </rate>
                    <alphatype>straight</alphatype>
                    <pixelaspectratio>square</pixelaspectratio>
                    <anamorphic>FALSE</anamorphic>
                    <file id="file-563">
                      <name>Scene - Puppet man_0003.561.png</name>
                      <pathurl>file://localhost/C:/Users/jmrey/OneDrive/Desktop/Programmin Stuff/Projects/conversation-simulator/resources/videos/Scene - Puppet man_0003/Scene - Puppet man_0003.561.png</pathurl>
                      <rate>
                        <timebase>24</timebase>
                        <ntsc>FALSE</ntsc>
                      </rate>
                      <duration>720</duration>
                      <timecode>
                        <rate>
                          <timebase>24</timebase>
                          <ntsc>FALSE</ntsc>
                        </rate>
                      </timecode>
                      <media>
                        <video>
                          <duration>1</duration>
                          <samplecharacteristics>
                            <anamorphic>FALSE</anamorphic>
                            <pixelaspectratio>square</pixelaspectratio>
                            <fielddominance>none</fielddominance>
                            <width>1920</width>
                            <height>1080</height>
                          </samplecharacteristics>
                        </video>
                      </media>
                    </file>
                  </clipitem>
                </track>
              </video>
            </media>
          </clip>
          <clip explodedTracks="true" frameBlend="FALSE" id="masterclip-564">
            <uuid>3237d283-65c7-4e05-b09a-877cb374d63e</uuid>
            <masterclipid>masterclip-564</masterclipid>
            <ismasterclip>TRUE</ismasterclip>
            <duration>720</duration>
            <in>0</in>
            <out>720</out>
            <name>Scene - Puppet man_0003.562.png</name>
            <rate>
              <timebase>24</timebase>
              <ntsc>FALSE</ntsc>
            </rate>
            <media>
              <video>
                <track>
                  <clipitem frameBlend="FALSE" id="clipitem-565">
                    <name>Scene - Puppet man_0003.562.png</name>
                    <masterclipid>masterclip-564</masterclipid>
                    <rate>
                      <timebase>24</timebase>
                      <ntsc>FALSE</ntsc>
                    </rate>
                    <alphatype>straight</alphatype>
                    <pixelaspectratio>square</pixelaspectratio>
                    <anamorphic>FALSE</anamorphic>
                    <file id="file-564">
                      <name>Scene - Puppet man_0003.562.png</name>
                      <pathurl>file://localhost/C:/Users/jmrey/OneDrive/Desktop/Programmin Stuff/Projects/conversation-simulator/resources/videos/Scene - Puppet man_0003/Scene - Puppet man_0003.562.png</pathurl>
                      <rate>
                        <timebase>24</timebase>
                        <ntsc>FALSE</ntsc>
                      </rate>
                      <duration>720</duration>
                      <timecode>
                        <rate>
                          <timebase>24</timebase>
                          <ntsc>FALSE</ntsc>
                        </rate>
                      </timecode>
                      <media>
                        <video>
                          <duration>1</duration>
                          <samplecharacteristics>
                            <anamorphic>FALSE</anamorphic>
                            <pixelaspectratio>square</pixelaspectratio>
                            <fielddominance>none</fielddominance>
                            <width>1920</width>
                            <height>1080</height>
                          </samplecharacteristics>
                        </video>
                      </media>
                    </file>
                  </clipitem>
                </track>
              </video>
            </media>
          </clip>
          <clip explodedTracks="true" frameBlend="FALSE" id="masterclip-565">
            <uuid>e440100c-bb87-44d9-8d6d-4564ac100606</uuid>
            <masterclipid>masterclip-565</masterclipid>
            <ismasterclip>TRUE</ismasterclip>
            <duration>720</duration>
            <in>0</in>
            <out>720</out>
            <name>Scene - Puppet man_0003.563.png</name>
            <rate>
              <timebase>24</timebase>
              <ntsc>FALSE</ntsc>
            </rate>
            <media>
              <video>
                <track>
                  <clipitem frameBlend="FALSE" id="clipitem-566">
                    <name>Scene - Puppet man_0003.563.png</name>
                    <masterclipid>masterclip-565</masterclipid>
                    <rate>
                      <timebase>24</timebase>
                      <ntsc>FALSE</ntsc>
                    </rate>
                    <alphatype>straight</alphatype>
                    <pixelaspectratio>square</pixelaspectratio>
                    <anamorphic>FALSE</anamorphic>
                    <file id="file-565">
                      <name>Scene - Puppet man_0003.563.png</name>
                      <pathurl>file://localhost/C:/Users/jmrey/OneDrive/Desktop/Programmin Stuff/Projects/conversation-simulator/resources/videos/Scene - Puppet man_0003/Scene - Puppet man_0003.563.png</pathurl>
                      <rate>
                        <timebase>24</timebase>
                        <ntsc>FALSE</ntsc>
                      </rate>
                      <duration>720</duration>
                      <timecode>
                        <rate>
                          <timebase>24</timebase>
                          <ntsc>FALSE</ntsc>
                        </rate>
                      </timecode>
                      <media>
                        <video>
                          <duration>1</duration>
                          <samplecharacteristics>
                            <anamorphic>FALSE</anamorphic>
                            <pixelaspectratio>square</pixelaspectratio>
                            <fielddominance>none</fielddominance>
                            <width>1920</width>
                            <height>1080</height>
                          </samplecharacteristics>
                        </video>
                      </media>
                    </file>
                  </clipitem>
                </track>
              </video>
            </media>
          </clip>
          <clip explodedTracks="true" frameBlend="FALSE" id="masterclip-566">
            <uuid>fa9beb18-d4bc-44e0-82a5-46ae15eb8255</uuid>
            <masterclipid>masterclip-566</masterclipid>
            <ismasterclip>TRUE</ismasterclip>
            <duration>720</duration>
            <in>0</in>
            <out>720</out>
            <name>Scene - Puppet man_0003.564.png</name>
            <rate>
              <timebase>24</timebase>
              <ntsc>FALSE</ntsc>
            </rate>
            <media>
              <video>
                <track>
                  <clipitem frameBlend="FALSE" id="clipitem-567">
                    <name>Scene - Puppet man_0003.564.png</name>
                    <masterclipid>masterclip-566</masterclipid>
                    <rate>
                      <timebase>24</timebase>
                      <ntsc>FALSE</ntsc>
                    </rate>
                    <alphatype>straight</alphatype>
                    <pixelaspectratio>square</pixelaspectratio>
                    <anamorphic>FALSE</anamorphic>
                    <file id="file-566">
                      <name>Scene - Puppet man_0003.564.png</name>
                      <pathurl>file://localhost/C:/Users/jmrey/OneDrive/Desktop/Programmin Stuff/Projects/conversation-simulator/resources/videos/Scene - Puppet man_0003/Scene - Puppet man_0003.564.png</pathurl>
                      <rate>
                        <timebase>24</timebase>
                        <ntsc>FALSE</ntsc>
                      </rate>
                      <duration>720</duration>
                      <timecode>
                        <rate>
                          <timebase>24</timebase>
                          <ntsc>FALSE</ntsc>
                        </rate>
                      </timecode>
                      <media>
                        <video>
                          <duration>1</duration>
                          <samplecharacteristics>
                            <anamorphic>FALSE</anamorphic>
                            <pixelaspectratio>square</pixelaspectratio>
                            <fielddominance>none</fielddominance>
                            <width>1920</width>
                            <height>1080</height>
                          </samplecharacteristics>
                        </video>
                      </media>
                    </file>
                  </clipitem>
                </track>
              </video>
            </media>
          </clip>
          <clip explodedTracks="true" frameBlend="FALSE" id="masterclip-567">
            <uuid>385831e4-57ff-4c75-a0ed-42e475158302</uuid>
            <masterclipid>masterclip-567</masterclipid>
            <ismasterclip>TRUE</ismasterclip>
            <duration>720</duration>
            <in>0</in>
            <out>720</out>
            <name>Scene - Puppet man_0003.565.png</name>
            <rate>
              <timebase>24</timebase>
              <ntsc>FALSE</ntsc>
            </rate>
            <media>
              <video>
                <track>
                  <clipitem frameBlend="FALSE" id="clipitem-568">
                    <name>Scene - Puppet man_0003.565.png</name>
                    <masterclipid>masterclip-567</masterclipid>
                    <rate>
                      <timebase>24</timebase>
                      <ntsc>FALSE</ntsc>
                    </rate>
                    <alphatype>straight</alphatype>
                    <pixelaspectratio>square</pixelaspectratio>
                    <anamorphic>FALSE</anamorphic>
                    <file id="file-567">
                      <name>Scene - Puppet man_0003.565.png</name>
                      <pathurl>file://localhost/C:/Users/jmrey/OneDrive/Desktop/Programmin Stuff/Projects/conversation-simulator/resources/videos/Scene - Puppet man_0003/Scene - Puppet man_0003.565.png</pathurl>
                      <rate>
                        <timebase>24</timebase>
                        <ntsc>FALSE</ntsc>
                      </rate>
                      <duration>720</duration>
                      <timecode>
                        <rate>
                          <timebase>24</timebase>
                          <ntsc>FALSE</ntsc>
                        </rate>
                      </timecode>
                      <media>
                        <video>
                          <duration>1</duration>
                          <samplecharacteristics>
                            <anamorphic>FALSE</anamorphic>
                            <pixelaspectratio>square</pixelaspectratio>
                            <fielddominance>none</fielddominance>
                            <width>1920</width>
                            <height>1080</height>
                          </samplecharacteristics>
                        </video>
                      </media>
                    </file>
                  </clipitem>
                </track>
              </video>
            </media>
          </clip>
          <clip explodedTracks="true" frameBlend="FALSE" id="masterclip-568">
            <uuid>a5ee9701-85db-40ed-992e-afc9860f69b1</uuid>
            <masterclipid>masterclip-568</masterclipid>
            <ismasterclip>TRUE</ismasterclip>
            <duration>720</duration>
            <in>0</in>
            <out>720</out>
            <name>Scene - Puppet man_0003.566.png</name>
            <rate>
              <timebase>24</timebase>
              <ntsc>FALSE</ntsc>
            </rate>
            <media>
              <video>
                <track>
                  <clipitem frameBlend="FALSE" id="clipitem-569">
                    <name>Scene - Puppet man_0003.566.png</name>
                    <masterclipid>masterclip-568</masterclipid>
                    <rate>
                      <timebase>24</timebase>
                      <ntsc>FALSE</ntsc>
                    </rate>
                    <alphatype>straight</alphatype>
                    <pixelaspectratio>square</pixelaspectratio>
                    <anamorphic>FALSE</anamorphic>
                    <file id="file-568">
                      <name>Scene - Puppet man_0003.566.png</name>
                      <pathurl>file://localhost/C:/Users/jmrey/OneDrive/Desktop/Programmin Stuff/Projects/conversation-simulator/resources/videos/Scene - Puppet man_0003/Scene - Puppet man_0003.566.png</pathurl>
                      <rate>
                        <timebase>24</timebase>
                        <ntsc>FALSE</ntsc>
                      </rate>
                      <duration>720</duration>
                      <timecode>
                        <rate>
                          <timebase>24</timebase>
                          <ntsc>FALSE</ntsc>
                        </rate>
                      </timecode>
                      <media>
                        <video>
                          <duration>1</duration>
                          <samplecharacteristics>
                            <anamorphic>FALSE</anamorphic>
                            <pixelaspectratio>square</pixelaspectratio>
                            <fielddominance>none</fielddominance>
                            <width>1920</width>
                            <height>1080</height>
                          </samplecharacteristics>
                        </video>
                      </media>
                    </file>
                  </clipitem>
                </track>
              </video>
            </media>
          </clip>
          <clip explodedTracks="true" frameBlend="FALSE" id="masterclip-569">
            <uuid>be73d1cd-772d-43ed-af60-93ba9814671c</uuid>
            <masterclipid>masterclip-569</masterclipid>
            <ismasterclip>TRUE</ismasterclip>
            <duration>720</duration>
            <in>0</in>
            <out>720</out>
            <name>Scene - Puppet man_0003.567.png</name>
            <rate>
              <timebase>24</timebase>
              <ntsc>FALSE</ntsc>
            </rate>
            <media>
              <video>
                <track>
                  <clipitem frameBlend="FALSE" id="clipitem-570">
                    <name>Scene - Puppet man_0003.567.png</name>
                    <masterclipid>masterclip-569</masterclipid>
                    <rate>
                      <timebase>24</timebase>
                      <ntsc>FALSE</ntsc>
                    </rate>
                    <alphatype>straight</alphatype>
                    <pixelaspectratio>square</pixelaspectratio>
                    <anamorphic>FALSE</anamorphic>
                    <file id="file-569">
                      <name>Scene - Puppet man_0003.567.png</name>
                      <pathurl>file://localhost/C:/Users/jmrey/OneDrive/Desktop/Programmin Stuff/Projects/conversation-simulator/resources/videos/Scene - Puppet man_0003/Scene - Puppet man_0003.567.png</pathurl>
                      <rate>
                        <timebase>24</timebase>
                        <ntsc>FALSE</ntsc>
                      </rate>
                      <duration>720</duration>
                      <timecode>
                        <rate>
                          <timebase>24</timebase>
                          <ntsc>FALSE</ntsc>
                        </rate>
                      </timecode>
                      <media>
                        <video>
                          <duration>1</duration>
                          <samplecharacteristics>
                            <anamorphic>FALSE</anamorphic>
                            <pixelaspectratio>square</pixelaspectratio>
                            <fielddominance>none</fielddominance>
                            <width>1920</width>
                            <height>1080</height>
                          </samplecharacteristics>
                        </video>
                      </media>
                    </file>
                  </clipitem>
                </track>
              </video>
            </media>
          </clip>
          <clip explodedTracks="true" frameBlend="FALSE" id="masterclip-570">
            <uuid>1331ba79-9cf7-4e18-9ce8-c4d64151f699</uuid>
            <masterclipid>masterclip-570</masterclipid>
            <ismasterclip>TRUE</ismasterclip>
            <duration>720</duration>
            <in>0</in>
            <out>720</out>
            <name>Scene - Puppet man_0003.568.png</name>
            <rate>
              <timebase>24</timebase>
              <ntsc>FALSE</ntsc>
            </rate>
            <media>
              <video>
                <track>
                  <clipitem frameBlend="FALSE" id="clipitem-571">
                    <name>Scene - Puppet man_0003.568.png</name>
                    <masterclipid>masterclip-570</masterclipid>
                    <rate>
                      <timebase>24</timebase>
                      <ntsc>FALSE</ntsc>
                    </rate>
                    <alphatype>straight</alphatype>
                    <pixelaspectratio>square</pixelaspectratio>
                    <anamorphic>FALSE</anamorphic>
                    <file id="file-570">
                      <name>Scene - Puppet man_0003.568.png</name>
                      <pathurl>file://localhost/C:/Users/jmrey/OneDrive/Desktop/Programmin Stuff/Projects/conversation-simulator/resources/videos/Scene - Puppet man_0003/Scene - Puppet man_0003.568.png</pathurl>
                      <rate>
                        <timebase>24</timebase>
                        <ntsc>FALSE</ntsc>
                      </rate>
                      <duration>720</duration>
                      <timecode>
                        <rate>
                          <timebase>24</timebase>
                          <ntsc>FALSE</ntsc>
                        </rate>
                      </timecode>
                      <media>
                        <video>
                          <duration>1</duration>
                          <samplecharacteristics>
                            <anamorphic>FALSE</anamorphic>
                            <pixelaspectratio>square</pixelaspectratio>
                            <fielddominance>none</fielddominance>
                            <width>1920</width>
                            <height>1080</height>
                          </samplecharacteristics>
                        </video>
                      </media>
                    </file>
                  </clipitem>
                </track>
              </video>
            </media>
          </clip>
          <clip explodedTracks="true" frameBlend="FALSE" id="masterclip-571">
            <uuid>378ff17e-1615-4c51-a5be-c09f2badeeab</uuid>
            <masterclipid>masterclip-571</masterclipid>
            <ismasterclip>TRUE</ismasterclip>
            <duration>720</duration>
            <in>0</in>
            <out>720</out>
            <name>Scene - Puppet man_0003.569.png</name>
            <rate>
              <timebase>24</timebase>
              <ntsc>FALSE</ntsc>
            </rate>
            <media>
              <video>
                <track>
                  <clipitem frameBlend="FALSE" id="clipitem-572">
                    <name>Scene - Puppet man_0003.569.png</name>
                    <masterclipid>masterclip-571</masterclipid>
                    <rate>
                      <timebase>24</timebase>
                      <ntsc>FALSE</ntsc>
                    </rate>
                    <alphatype>straight</alphatype>
                    <pixelaspectratio>square</pixelaspectratio>
                    <anamorphic>FALSE</anamorphic>
                    <file id="file-571">
                      <name>Scene - Puppet man_0003.569.png</name>
                      <pathurl>file://localhost/C:/Users/jmrey/OneDrive/Desktop/Programmin Stuff/Projects/conversation-simulator/resources/videos/Scene - Puppet man_0003/Scene - Puppet man_0003.569.png</pathurl>
                      <rate>
                        <timebase>24</timebase>
                        <ntsc>FALSE</ntsc>
                      </rate>
                      <duration>720</duration>
                      <timecode>
                        <rate>
                          <timebase>24</timebase>
                          <ntsc>FALSE</ntsc>
                        </rate>
                      </timecode>
                      <media>
                        <video>
                          <duration>1</duration>
                          <samplecharacteristics>
                            <anamorphic>FALSE</anamorphic>
                            <pixelaspectratio>square</pixelaspectratio>
                            <fielddominance>none</fielddominance>
                            <width>1920</width>
                            <height>1080</height>
                          </samplecharacteristics>
                        </video>
                      </media>
                    </file>
                  </clipitem>
                </track>
              </video>
            </media>
          </clip>
          <clip explodedTracks="true" frameBlend="FALSE" id="masterclip-572">
            <uuid>a0a2253d-2044-4cca-b932-ed683c5804c1</uuid>
            <masterclipid>masterclip-572</masterclipid>
            <ismasterclip>TRUE</ismasterclip>
            <duration>720</duration>
            <in>0</in>
            <out>720</out>
            <name>Scene - Puppet man_0003.570.png</name>
            <rate>
              <timebase>24</timebase>
              <ntsc>FALSE</ntsc>
            </rate>
            <media>
              <video>
                <track>
                  <clipitem frameBlend="FALSE" id="clipitem-573">
                    <name>Scene - Puppet man_0003.570.png</name>
                    <masterclipid>masterclip-572</masterclipid>
                    <rate>
                      <timebase>24</timebase>
                      <ntsc>FALSE</ntsc>
                    </rate>
                    <alphatype>straight</alphatype>
                    <pixelaspectratio>square</pixelaspectratio>
                    <anamorphic>FALSE</anamorphic>
                    <file id="file-572">
                      <name>Scene - Puppet man_0003.570.png</name>
                      <pathurl>file://localhost/C:/Users/jmrey/OneDrive/Desktop/Programmin Stuff/Projects/conversation-simulator/resources/videos/Scene - Puppet man_0003/Scene - Puppet man_0003.570.png</pathurl>
                      <rate>
                        <timebase>24</timebase>
                        <ntsc>FALSE</ntsc>
                      </rate>
                      <duration>720</duration>
                      <timecode>
                        <rate>
                          <timebase>24</timebase>
                          <ntsc>FALSE</ntsc>
                        </rate>
                      </timecode>
                      <media>
                        <video>
                          <duration>1</duration>
                          <samplecharacteristics>
                            <anamorphic>FALSE</anamorphic>
                            <pixelaspectratio>square</pixelaspectratio>
                            <fielddominance>none</fielddominance>
                            <width>1920</width>
                            <height>1080</height>
                          </samplecharacteristics>
                        </video>
                      </media>
                    </file>
                  </clipitem>
                </track>
              </video>
            </media>
          </clip>
          <clip explodedTracks="true" frameBlend="FALSE" id="masterclip-573">
            <uuid>60140389-e8d8-4e9e-a192-053a2a0e6f77</uuid>
            <masterclipid>masterclip-573</masterclipid>
            <ismasterclip>TRUE</ismasterclip>
            <duration>720</duration>
            <in>0</in>
            <out>720</out>
            <name>Scene - Puppet man_0003.571.png</name>
            <rate>
              <timebase>24</timebase>
              <ntsc>FALSE</ntsc>
            </rate>
            <media>
              <video>
                <track>
                  <clipitem frameBlend="FALSE" id="clipitem-574">
                    <name>Scene - Puppet man_0003.571.png</name>
                    <masterclipid>masterclip-573</masterclipid>
                    <rate>
                      <timebase>24</timebase>
                      <ntsc>FALSE</ntsc>
                    </rate>
                    <alphatype>straight</alphatype>
                    <pixelaspectratio>square</pixelaspectratio>
                    <anamorphic>FALSE</anamorphic>
                    <file id="file-573">
                      <name>Scene - Puppet man_0003.571.png</name>
                      <pathurl>file://localhost/C:/Users/jmrey/OneDrive/Desktop/Programmin Stuff/Projects/conversation-simulator/resources/videos/Scene - Puppet man_0003/Scene - Puppet man_0003.571.png</pathurl>
                      <rate>
                        <timebase>24</timebase>
                        <ntsc>FALSE</ntsc>
                      </rate>
                      <duration>720</duration>
                      <timecode>
                        <rate>
                          <timebase>24</timebase>
                          <ntsc>FALSE</ntsc>
                        </rate>
                      </timecode>
                      <media>
                        <video>
                          <duration>1</duration>
                          <samplecharacteristics>
                            <anamorphic>FALSE</anamorphic>
                            <pixelaspectratio>square</pixelaspectratio>
                            <fielddominance>none</fielddominance>
                            <width>1920</width>
                            <height>1080</height>
                          </samplecharacteristics>
                        </video>
                      </media>
                    </file>
                  </clipitem>
                </track>
              </video>
            </media>
          </clip>
          <clip explodedTracks="true" frameBlend="FALSE" id="masterclip-574">
            <uuid>68008bd8-60a4-423f-b31d-bf0ac2d8cd46</uuid>
            <masterclipid>masterclip-574</masterclipid>
            <ismasterclip>TRUE</ismasterclip>
            <duration>720</duration>
            <in>0</in>
            <out>720</out>
            <name>Scene - Puppet man_0003.572.png</name>
            <rate>
              <timebase>24</timebase>
              <ntsc>FALSE</ntsc>
            </rate>
            <media>
              <video>
                <track>
                  <clipitem frameBlend="FALSE" id="clipitem-575">
                    <name>Scene - Puppet man_0003.572.png</name>
                    <masterclipid>masterclip-574</masterclipid>
                    <rate>
                      <timebase>24</timebase>
                      <ntsc>FALSE</ntsc>
                    </rate>
                    <alphatype>straight</alphatype>
                    <pixelaspectratio>square</pixelaspectratio>
                    <anamorphic>FALSE</anamorphic>
                    <file id="file-574">
                      <name>Scene - Puppet man_0003.572.png</name>
                      <pathurl>file://localhost/C:/Users/jmrey/OneDrive/Desktop/Programmin Stuff/Projects/conversation-simulator/resources/videos/Scene - Puppet man_0003/Scene - Puppet man_0003.572.png</pathurl>
                      <rate>
                        <timebase>24</timebase>
                        <ntsc>FALSE</ntsc>
                      </rate>
                      <duration>720</duration>
                      <timecode>
                        <rate>
                          <timebase>24</timebase>
                          <ntsc>FALSE</ntsc>
                        </rate>
                      </timecode>
                      <media>
                        <video>
                          <duration>1</duration>
                          <samplecharacteristics>
                            <anamorphic>FALSE</anamorphic>
                            <pixelaspectratio>square</pixelaspectratio>
                            <fielddominance>none</fielddominance>
                            <width>1920</width>
                            <height>1080</height>
                          </samplecharacteristics>
                        </video>
                      </media>
                    </file>
                  </clipitem>
                </track>
              </video>
            </media>
          </clip>
          <clip explodedTracks="true" frameBlend="FALSE" id="masterclip-575">
            <uuid>d583df8d-f7fe-4b7f-9022-b1e85a20e82e</uuid>
            <masterclipid>masterclip-575</masterclipid>
            <ismasterclip>TRUE</ismasterclip>
            <duration>720</duration>
            <in>0</in>
            <out>720</out>
            <name>Scene - Puppet man_0003.573.png</name>
            <rate>
              <timebase>24</timebase>
              <ntsc>FALSE</ntsc>
            </rate>
            <media>
              <video>
                <track>
                  <clipitem frameBlend="FALSE" id="clipitem-576">
                    <name>Scene - Puppet man_0003.573.png</name>
                    <masterclipid>masterclip-575</masterclipid>
                    <rate>
                      <timebase>24</timebase>
                      <ntsc>FALSE</ntsc>
                    </rate>
                    <alphatype>straight</alphatype>
                    <pixelaspectratio>square</pixelaspectratio>
                    <anamorphic>FALSE</anamorphic>
                    <file id="file-575">
                      <name>Scene - Puppet man_0003.573.png</name>
                      <pathurl>file://localhost/C:/Users/jmrey/OneDrive/Desktop/Programmin Stuff/Projects/conversation-simulator/resources/videos/Scene - Puppet man_0003/Scene - Puppet man_0003.573.png</pathurl>
                      <rate>
                        <timebase>24</timebase>
                        <ntsc>FALSE</ntsc>
                      </rate>
                      <duration>720</duration>
                      <timecode>
                        <rate>
                          <timebase>24</timebase>
                          <ntsc>FALSE</ntsc>
                        </rate>
                      </timecode>
                      <media>
                        <video>
                          <duration>1</duration>
                          <samplecharacteristics>
                            <anamorphic>FALSE</anamorphic>
                            <pixelaspectratio>square</pixelaspectratio>
                            <fielddominance>none</fielddominance>
                            <width>1920</width>
                            <height>1080</height>
                          </samplecharacteristics>
                        </video>
                      </media>
                    </file>
                  </clipitem>
                </track>
              </video>
            </media>
          </clip>
          <clip explodedTracks="true" frameBlend="FALSE" id="masterclip-576">
            <uuid>5a8b160b-87ac-4d06-9843-9747f5e97f59</uuid>
            <masterclipid>masterclip-576</masterclipid>
            <ismasterclip>TRUE</ismasterclip>
            <duration>720</duration>
            <in>0</in>
            <out>720</out>
            <name>Scene - Puppet man_0003.574.png</name>
            <rate>
              <timebase>24</timebase>
              <ntsc>FALSE</ntsc>
            </rate>
            <media>
              <video>
                <track>
                  <clipitem frameBlend="FALSE" id="clipitem-577">
                    <name>Scene - Puppet man_0003.574.png</name>
                    <masterclipid>masterclip-576</masterclipid>
                    <rate>
                      <timebase>24</timebase>
                      <ntsc>FALSE</ntsc>
                    </rate>
                    <alphatype>straight</alphatype>
                    <pixelaspectratio>square</pixelaspectratio>
                    <anamorphic>FALSE</anamorphic>
                    <file id="file-576">
                      <name>Scene - Puppet man_0003.574.png</name>
                      <pathurl>file://localhost/C:/Users/jmrey/OneDrive/Desktop/Programmin Stuff/Projects/conversation-simulator/resources/videos/Scene - Puppet man_0003/Scene - Puppet man_0003.574.png</pathurl>
                      <rate>
                        <timebase>24</timebase>
                        <ntsc>FALSE</ntsc>
                      </rate>
                      <duration>720</duration>
                      <timecode>
                        <rate>
                          <timebase>24</timebase>
                          <ntsc>FALSE</ntsc>
                        </rate>
                      </timecode>
                      <media>
                        <video>
                          <duration>1</duration>
                          <samplecharacteristics>
                            <anamorphic>FALSE</anamorphic>
                            <pixelaspectratio>square</pixelaspectratio>
                            <fielddominance>none</fielddominance>
                            <width>1920</width>
                            <height>1080</height>
                          </samplecharacteristics>
                        </video>
                      </media>
                    </file>
                  </clipitem>
                </track>
              </video>
            </media>
          </clip>
          <clip explodedTracks="true" frameBlend="FALSE" id="masterclip-577">
            <uuid>ac5feaba-aec8-4043-923a-d3948fee78e5</uuid>
            <masterclipid>masterclip-577</masterclipid>
            <ismasterclip>TRUE</ismasterclip>
            <duration>720</duration>
            <in>0</in>
            <out>720</out>
            <name>Scene - Puppet man_0003.575.png</name>
            <rate>
              <timebase>24</timebase>
              <ntsc>FALSE</ntsc>
            </rate>
            <media>
              <video>
                <track>
                  <clipitem frameBlend="FALSE" id="clipitem-578">
                    <name>Scene - Puppet man_0003.575.png</name>
                    <masterclipid>masterclip-577</masterclipid>
                    <rate>
                      <timebase>24</timebase>
                      <ntsc>FALSE</ntsc>
                    </rate>
                    <alphatype>straight</alphatype>
                    <pixelaspectratio>square</pixelaspectratio>
                    <anamorphic>FALSE</anamorphic>
                    <file id="file-577">
                      <name>Scene - Puppet man_0003.575.png</name>
                      <pathurl>file://localhost/C:/Users/jmrey/OneDrive/Desktop/Programmin Stuff/Projects/conversation-simulator/resources/videos/Scene - Puppet man_0003/Scene - Puppet man_0003.575.png</pathurl>
                      <rate>
                        <timebase>24</timebase>
                        <ntsc>FALSE</ntsc>
                      </rate>
                      <duration>720</duration>
                      <timecode>
                        <rate>
                          <timebase>24</timebase>
                          <ntsc>FALSE</ntsc>
                        </rate>
                      </timecode>
                      <media>
                        <video>
                          <duration>1</duration>
                          <samplecharacteristics>
                            <anamorphic>FALSE</anamorphic>
                            <pixelaspectratio>square</pixelaspectratio>
                            <fielddominance>none</fielddominance>
                            <width>1920</width>
                            <height>1080</height>
                          </samplecharacteristics>
                        </video>
                      </media>
                    </file>
                  </clipitem>
                </track>
              </video>
            </media>
          </clip>
          <clip explodedTracks="true" frameBlend="FALSE" id="masterclip-578">
            <uuid>e5d3df3f-d3a5-411e-aa9a-0ab64a77d2bd</uuid>
            <masterclipid>masterclip-578</masterclipid>
            <ismasterclip>TRUE</ismasterclip>
            <duration>720</duration>
            <in>0</in>
            <out>720</out>
            <name>Scene - Puppet man_0003.576.png</name>
            <rate>
              <timebase>24</timebase>
              <ntsc>FALSE</ntsc>
            </rate>
            <media>
              <video>
                <track>
                  <clipitem frameBlend="FALSE" id="clipitem-579">
                    <name>Scene - Puppet man_0003.576.png</name>
                    <masterclipid>masterclip-578</masterclipid>
                    <rate>
                      <timebase>24</timebase>
                      <ntsc>FALSE</ntsc>
                    </rate>
                    <alphatype>straight</alphatype>
                    <pixelaspectratio>square</pixelaspectratio>
                    <anamorphic>FALSE</anamorphic>
                    <file id="file-578">
                      <name>Scene - Puppet man_0003.576.png</name>
                      <pathurl>file://localhost/C:/Users/jmrey/OneDrive/Desktop/Programmin Stuff/Projects/conversation-simulator/resources/videos/Scene - Puppet man_0003/Scene - Puppet man_0003.576.png</pathurl>
                      <rate>
                        <timebase>24</timebase>
                        <ntsc>FALSE</ntsc>
                      </rate>
                      <duration>720</duration>
                      <timecode>
                        <rate>
                          <timebase>24</timebase>
                          <ntsc>FALSE</ntsc>
                        </rate>
                      </timecode>
                      <media>
                        <video>
                          <duration>1</duration>
                          <samplecharacteristics>
                            <anamorphic>FALSE</anamorphic>
                            <pixelaspectratio>square</pixelaspectratio>
                            <fielddominance>none</fielddominance>
                            <width>1920</width>
                            <height>1080</height>
                          </samplecharacteristics>
                        </video>
                      </media>
                    </file>
                  </clipitem>
                </track>
              </video>
            </media>
          </clip>
          <clip explodedTracks="true" frameBlend="FALSE" id="masterclip-579">
            <uuid>228e8b80-70b1-4365-a088-19459780b4b0</uuid>
            <masterclipid>masterclip-579</masterclipid>
            <ismasterclip>TRUE</ismasterclip>
            <duration>720</duration>
            <in>0</in>
            <out>720</out>
            <name>Scene - Puppet man_0003.577.png</name>
            <rate>
              <timebase>24</timebase>
              <ntsc>FALSE</ntsc>
            </rate>
            <media>
              <video>
                <track>
                  <clipitem frameBlend="FALSE" id="clipitem-580">
                    <name>Scene - Puppet man_0003.577.png</name>
                    <masterclipid>masterclip-579</masterclipid>
                    <rate>
                      <timebase>24</timebase>
                      <ntsc>FALSE</ntsc>
                    </rate>
                    <alphatype>straight</alphatype>
                    <pixelaspectratio>square</pixelaspectratio>
                    <anamorphic>FALSE</anamorphic>
                    <file id="file-579">
                      <name>Scene - Puppet man_0003.577.png</name>
                      <pathurl>file://localhost/C:/Users/jmrey/OneDrive/Desktop/Programmin Stuff/Projects/conversation-simulator/resources/videos/Scene - Puppet man_0003/Scene - Puppet man_0003.577.png</pathurl>
                      <rate>
                        <timebase>24</timebase>
                        <ntsc>FALSE</ntsc>
                      </rate>
                      <duration>720</duration>
                      <timecode>
                        <rate>
                          <timebase>24</timebase>
                          <ntsc>FALSE</ntsc>
                        </rate>
                      </timecode>
                      <media>
                        <video>
                          <duration>1</duration>
                          <samplecharacteristics>
                            <anamorphic>FALSE</anamorphic>
                            <pixelaspectratio>square</pixelaspectratio>
                            <fielddominance>none</fielddominance>
                            <width>1920</width>
                            <height>1080</height>
                          </samplecharacteristics>
                        </video>
                      </media>
                    </file>
                  </clipitem>
                </track>
              </video>
            </media>
          </clip>
          <clip explodedTracks="true" frameBlend="FALSE" id="masterclip-580">
            <uuid>e3cef2c3-7545-4847-9133-de5ca461f3d3</uuid>
            <masterclipid>masterclip-580</masterclipid>
            <ismasterclip>TRUE</ismasterclip>
            <duration>720</duration>
            <in>0</in>
            <out>720</out>
            <name>Scene - Puppet man_0003.578.png</name>
            <rate>
              <timebase>24</timebase>
              <ntsc>FALSE</ntsc>
            </rate>
            <media>
              <video>
                <track>
                  <clipitem frameBlend="FALSE" id="clipitem-581">
                    <name>Scene - Puppet man_0003.578.png</name>
                    <masterclipid>masterclip-580</masterclipid>
                    <rate>
                      <timebase>24</timebase>
                      <ntsc>FALSE</ntsc>
                    </rate>
                    <alphatype>straight</alphatype>
                    <pixelaspectratio>square</pixelaspectratio>
                    <anamorphic>FALSE</anamorphic>
                    <file id="file-580">
                      <name>Scene - Puppet man_0003.578.png</name>
                      <pathurl>file://localhost/C:/Users/jmrey/OneDrive/Desktop/Programmin Stuff/Projects/conversation-simulator/resources/videos/Scene - Puppet man_0003/Scene - Puppet man_0003.578.png</pathurl>
                      <rate>
                        <timebase>24</timebase>
                        <ntsc>FALSE</ntsc>
                      </rate>
                      <duration>720</duration>
                      <timecode>
                        <rate>
                          <timebase>24</timebase>
                          <ntsc>FALSE</ntsc>
                        </rate>
                      </timecode>
                      <media>
                        <video>
                          <duration>1</duration>
                          <samplecharacteristics>
                            <anamorphic>FALSE</anamorphic>
                            <pixelaspectratio>square</pixelaspectratio>
                            <fielddominance>none</fielddominance>
                            <width>1920</width>
                            <height>1080</height>
                          </samplecharacteristics>
                        </video>
                      </media>
                    </file>
                  </clipitem>
                </track>
              </video>
            </media>
          </clip>
          <clip explodedTracks="true" frameBlend="FALSE" id="masterclip-581">
            <uuid>1fedbb66-d512-4c3a-a324-abce2c32e711</uuid>
            <masterclipid>masterclip-581</masterclipid>
            <ismasterclip>TRUE</ismasterclip>
            <duration>720</duration>
            <in>0</in>
            <out>720</out>
            <name>Scene - Puppet man_0003.579.png</name>
            <rate>
              <timebase>24</timebase>
              <ntsc>FALSE</ntsc>
            </rate>
            <media>
              <video>
                <track>
                  <clipitem frameBlend="FALSE" id="clipitem-582">
                    <name>Scene - Puppet man_0003.579.png</name>
                    <masterclipid>masterclip-581</masterclipid>
                    <rate>
                      <timebase>24</timebase>
                      <ntsc>FALSE</ntsc>
                    </rate>
                    <alphatype>straight</alphatype>
                    <pixelaspectratio>square</pixelaspectratio>
                    <anamorphic>FALSE</anamorphic>
                    <file id="file-581">
                      <name>Scene - Puppet man_0003.579.png</name>
                      <pathurl>file://localhost/C:/Users/jmrey/OneDrive/Desktop/Programmin Stuff/Projects/conversation-simulator/resources/videos/Scene - Puppet man_0003/Scene - Puppet man_0003.579.png</pathurl>
                      <rate>
                        <timebase>24</timebase>
                        <ntsc>FALSE</ntsc>
                      </rate>
                      <duration>720</duration>
                      <timecode>
                        <rate>
                          <timebase>24</timebase>
                          <ntsc>FALSE</ntsc>
                        </rate>
                      </timecode>
                      <media>
                        <video>
                          <duration>1</duration>
                          <samplecharacteristics>
                            <anamorphic>FALSE</anamorphic>
                            <pixelaspectratio>square</pixelaspectratio>
                            <fielddominance>none</fielddominance>
                            <width>1920</width>
                            <height>1080</height>
                          </samplecharacteristics>
                        </video>
                      </media>
                    </file>
                  </clipitem>
                </track>
              </video>
            </media>
          </clip>
          <clip explodedTracks="true" frameBlend="FALSE" id="masterclip-582">
            <uuid>80aa0e96-2d3b-4845-a656-318332d6511b</uuid>
            <masterclipid>masterclip-582</masterclipid>
            <ismasterclip>TRUE</ismasterclip>
            <duration>720</duration>
            <in>0</in>
            <out>720</out>
            <name>Scene - Puppet man_0003.580.png</name>
            <rate>
              <timebase>24</timebase>
              <ntsc>FALSE</ntsc>
            </rate>
            <media>
              <video>
                <track>
                  <clipitem frameBlend="FALSE" id="clipitem-583">
                    <name>Scene - Puppet man_0003.580.png</name>
                    <masterclipid>masterclip-582</masterclipid>
                    <rate>
                      <timebase>24</timebase>
                      <ntsc>FALSE</ntsc>
                    </rate>
                    <alphatype>straight</alphatype>
                    <pixelaspectratio>square</pixelaspectratio>
                    <anamorphic>FALSE</anamorphic>
                    <file id="file-582">
                      <name>Scene - Puppet man_0003.580.png</name>
                      <pathurl>file://localhost/C:/Users/jmrey/OneDrive/Desktop/Programmin Stuff/Projects/conversation-simulator/resources/videos/Scene - Puppet man_0003/Scene - Puppet man_0003.580.png</pathurl>
                      <rate>
                        <timebase>24</timebase>
                        <ntsc>FALSE</ntsc>
                      </rate>
                      <duration>720</duration>
                      <timecode>
                        <rate>
                          <timebase>24</timebase>
                          <ntsc>FALSE</ntsc>
                        </rate>
                      </timecode>
                      <media>
                        <video>
                          <duration>1</duration>
                          <samplecharacteristics>
                            <anamorphic>FALSE</anamorphic>
                            <pixelaspectratio>square</pixelaspectratio>
                            <fielddominance>none</fielddominance>
                            <width>1920</width>
                            <height>1080</height>
                          </samplecharacteristics>
                        </video>
                      </media>
                    </file>
                  </clipitem>
                </track>
              </video>
            </media>
          </clip>
          <clip explodedTracks="true" frameBlend="FALSE" id="masterclip-583">
            <uuid>e8b29bb9-f4a6-4ddd-87a7-7eba725157f5</uuid>
            <masterclipid>masterclip-583</masterclipid>
            <ismasterclip>TRUE</ismasterclip>
            <duration>720</duration>
            <in>0</in>
            <out>720</out>
            <name>Scene - Puppet man_0003.581.png</name>
            <rate>
              <timebase>24</timebase>
              <ntsc>FALSE</ntsc>
            </rate>
            <media>
              <video>
                <track>
                  <clipitem frameBlend="FALSE" id="clipitem-584">
                    <name>Scene - Puppet man_0003.581.png</name>
                    <masterclipid>masterclip-583</masterclipid>
                    <rate>
                      <timebase>24</timebase>
                      <ntsc>FALSE</ntsc>
                    </rate>
                    <alphatype>straight</alphatype>
                    <pixelaspectratio>square</pixelaspectratio>
                    <anamorphic>FALSE</anamorphic>
                    <file id="file-583">
                      <name>Scene - Puppet man_0003.581.png</name>
                      <pathurl>file://localhost/C:/Users/jmrey/OneDrive/Desktop/Programmin Stuff/Projects/conversation-simulator/resources/videos/Scene - Puppet man_0003/Scene - Puppet man_0003.581.png</pathurl>
                      <rate>
                        <timebase>24</timebase>
                        <ntsc>FALSE</ntsc>
                      </rate>
                      <duration>720</duration>
                      <timecode>
                        <rate>
                          <timebase>24</timebase>
                          <ntsc>FALSE</ntsc>
                        </rate>
                      </timecode>
                      <media>
                        <video>
                          <duration>1</duration>
                          <samplecharacteristics>
                            <anamorphic>FALSE</anamorphic>
                            <pixelaspectratio>square</pixelaspectratio>
                            <fielddominance>none</fielddominance>
                            <width>1920</width>
                            <height>1080</height>
                          </samplecharacteristics>
                        </video>
                      </media>
                    </file>
                  </clipitem>
                </track>
              </video>
            </media>
          </clip>
          <clip explodedTracks="true" frameBlend="FALSE" id="masterclip-584">
            <uuid>d67bd7d4-1971-4b0d-89af-20fa39d4a0aa</uuid>
            <masterclipid>masterclip-584</masterclipid>
            <ismasterclip>TRUE</ismasterclip>
            <duration>720</duration>
            <in>0</in>
            <out>720</out>
            <name>Scene - Puppet man_0003.582.png</name>
            <rate>
              <timebase>24</timebase>
              <ntsc>FALSE</ntsc>
            </rate>
            <media>
              <video>
                <track>
                  <clipitem frameBlend="FALSE" id="clipitem-585">
                    <name>Scene - Puppet man_0003.582.png</name>
                    <masterclipid>masterclip-584</masterclipid>
                    <rate>
                      <timebase>24</timebase>
                      <ntsc>FALSE</ntsc>
                    </rate>
                    <alphatype>straight</alphatype>
                    <pixelaspectratio>square</pixelaspectratio>
                    <anamorphic>FALSE</anamorphic>
                    <file id="file-584">
                      <name>Scene - Puppet man_0003.582.png</name>
                      <pathurl>file://localhost/C:/Users/jmrey/OneDrive/Desktop/Programmin Stuff/Projects/conversation-simulator/resources/videos/Scene - Puppet man_0003/Scene - Puppet man_0003.582.png</pathurl>
                      <rate>
                        <timebase>24</timebase>
                        <ntsc>FALSE</ntsc>
                      </rate>
                      <duration>720</duration>
                      <timecode>
                        <rate>
                          <timebase>24</timebase>
                          <ntsc>FALSE</ntsc>
                        </rate>
                      </timecode>
                      <media>
                        <video>
                          <duration>1</duration>
                          <samplecharacteristics>
                            <anamorphic>FALSE</anamorphic>
                            <pixelaspectratio>square</pixelaspectratio>
                            <fielddominance>none</fielddominance>
                            <width>1920</width>
                            <height>1080</height>
                          </samplecharacteristics>
                        </video>
                      </media>
                    </file>
                  </clipitem>
                </track>
              </video>
            </media>
          </clip>
          <clip explodedTracks="true" frameBlend="FALSE" id="masterclip-585">
            <uuid>bc34d3dc-5b49-416c-8908-2fee35d4ce50</uuid>
            <masterclipid>masterclip-585</masterclipid>
            <ismasterclip>TRUE</ismasterclip>
            <duration>720</duration>
            <in>0</in>
            <out>720</out>
            <name>Scene - Puppet man_0003.583.png</name>
            <rate>
              <timebase>24</timebase>
              <ntsc>FALSE</ntsc>
            </rate>
            <media>
              <video>
                <track>
                  <clipitem frameBlend="FALSE" id="clipitem-586">
                    <name>Scene - Puppet man_0003.583.png</name>
                    <masterclipid>masterclip-585</masterclipid>
                    <rate>
                      <timebase>24</timebase>
                      <ntsc>FALSE</ntsc>
                    </rate>
                    <alphatype>straight</alphatype>
                    <pixelaspectratio>square</pixelaspectratio>
                    <anamorphic>FALSE</anamorphic>
                    <file id="file-585">
                      <name>Scene - Puppet man_0003.583.png</name>
                      <pathurl>file://localhost/C:/Users/jmrey/OneDrive/Desktop/Programmin Stuff/Projects/conversation-simulator/resources/videos/Scene - Puppet man_0003/Scene - Puppet man_0003.583.png</pathurl>
                      <rate>
                        <timebase>24</timebase>
                        <ntsc>FALSE</ntsc>
                      </rate>
                      <duration>720</duration>
                      <timecode>
                        <rate>
                          <timebase>24</timebase>
                          <ntsc>FALSE</ntsc>
                        </rate>
                      </timecode>
                      <media>
                        <video>
                          <duration>1</duration>
                          <samplecharacteristics>
                            <anamorphic>FALSE</anamorphic>
                            <pixelaspectratio>square</pixelaspectratio>
                            <fielddominance>none</fielddominance>
                            <width>1920</width>
                            <height>1080</height>
                          </samplecharacteristics>
                        </video>
                      </media>
                    </file>
                  </clipitem>
                </track>
              </video>
            </media>
          </clip>
          <clip explodedTracks="true" frameBlend="FALSE" id="masterclip-586">
            <uuid>c282eca0-79da-47be-b1e3-14dbd7ff73c8</uuid>
            <masterclipid>masterclip-586</masterclipid>
            <ismasterclip>TRUE</ismasterclip>
            <duration>720</duration>
            <in>0</in>
            <out>720</out>
            <name>Scene - Puppet man_0003.584.png</name>
            <rate>
              <timebase>24</timebase>
              <ntsc>FALSE</ntsc>
            </rate>
            <media>
              <video>
                <track>
                  <clipitem frameBlend="FALSE" id="clipitem-587">
                    <name>Scene - Puppet man_0003.584.png</name>
                    <masterclipid>masterclip-586</masterclipid>
                    <rate>
                      <timebase>24</timebase>
                      <ntsc>FALSE</ntsc>
                    </rate>
                    <alphatype>straight</alphatype>
                    <pixelaspectratio>square</pixelaspectratio>
                    <anamorphic>FALSE</anamorphic>
                    <file id="file-586">
                      <name>Scene - Puppet man_0003.584.png</name>
                      <pathurl>file://localhost/C:/Users/jmrey/OneDrive/Desktop/Programmin Stuff/Projects/conversation-simulator/resources/videos/Scene - Puppet man_0003/Scene - Puppet man_0003.584.png</pathurl>
                      <rate>
                        <timebase>24</timebase>
                        <ntsc>FALSE</ntsc>
                      </rate>
                      <duration>720</duration>
                      <timecode>
                        <rate>
                          <timebase>24</timebase>
                          <ntsc>FALSE</ntsc>
                        </rate>
                      </timecode>
                      <media>
                        <video>
                          <duration>1</duration>
                          <samplecharacteristics>
                            <anamorphic>FALSE</anamorphic>
                            <pixelaspectratio>square</pixelaspectratio>
                            <fielddominance>none</fielddominance>
                            <width>1920</width>
                            <height>1080</height>
                          </samplecharacteristics>
                        </video>
                      </media>
                    </file>
                  </clipitem>
                </track>
              </video>
            </media>
          </clip>
          <clip explodedTracks="true" frameBlend="FALSE" id="masterclip-587">
            <uuid>7db05f42-60c1-49eb-b3bd-d2d08784a0c2</uuid>
            <masterclipid>masterclip-587</masterclipid>
            <ismasterclip>TRUE</ismasterclip>
            <duration>720</duration>
            <in>0</in>
            <out>720</out>
            <name>Scene - Puppet man_0003.585.png</name>
            <rate>
              <timebase>24</timebase>
              <ntsc>FALSE</ntsc>
            </rate>
            <media>
              <video>
                <track>
                  <clipitem frameBlend="FALSE" id="clipitem-588">
                    <name>Scene - Puppet man_0003.585.png</name>
                    <masterclipid>masterclip-587</masterclipid>
                    <rate>
                      <timebase>24</timebase>
                      <ntsc>FALSE</ntsc>
                    </rate>
                    <alphatype>straight</alphatype>
                    <pixelaspectratio>square</pixelaspectratio>
                    <anamorphic>FALSE</anamorphic>
                    <file id="file-587">
                      <name>Scene - Puppet man_0003.585.png</name>
                      <pathurl>file://localhost/C:/Users/jmrey/OneDrive/Desktop/Programmin Stuff/Projects/conversation-simulator/resources/videos/Scene - Puppet man_0003/Scene - Puppet man_0003.585.png</pathurl>
                      <rate>
                        <timebase>24</timebase>
                        <ntsc>FALSE</ntsc>
                      </rate>
                      <duration>720</duration>
                      <timecode>
                        <rate>
                          <timebase>24</timebase>
                          <ntsc>FALSE</ntsc>
                        </rate>
                      </timecode>
                      <media>
                        <video>
                          <duration>1</duration>
                          <samplecharacteristics>
                            <anamorphic>FALSE</anamorphic>
                            <pixelaspectratio>square</pixelaspectratio>
                            <fielddominance>none</fielddominance>
                            <width>1920</width>
                            <height>1080</height>
                          </samplecharacteristics>
                        </video>
                      </media>
                    </file>
                  </clipitem>
                </track>
              </video>
            </media>
          </clip>
          <clip explodedTracks="true" frameBlend="FALSE" id="masterclip-588">
            <uuid>fa11e29d-9eca-4ef5-b120-f2173d6df2b3</uuid>
            <masterclipid>masterclip-588</masterclipid>
            <ismasterclip>TRUE</ismasterclip>
            <duration>720</duration>
            <in>0</in>
            <out>720</out>
            <name>Scene - Puppet man_0003.586.png</name>
            <rate>
              <timebase>24</timebase>
              <ntsc>FALSE</ntsc>
            </rate>
            <media>
              <video>
                <track>
                  <clipitem frameBlend="FALSE" id="clipitem-589">
                    <name>Scene - Puppet man_0003.586.png</name>
                    <masterclipid>masterclip-588</masterclipid>
                    <rate>
                      <timebase>24</timebase>
                      <ntsc>FALSE</ntsc>
                    </rate>
                    <alphatype>straight</alphatype>
                    <pixelaspectratio>square</pixelaspectratio>
                    <anamorphic>FALSE</anamorphic>
                    <file id="file-588">
                      <name>Scene - Puppet man_0003.586.png</name>
                      <pathurl>file://localhost/C:/Users/jmrey/OneDrive/Desktop/Programmin Stuff/Projects/conversation-simulator/resources/videos/Scene - Puppet man_0003/Scene - Puppet man_0003.586.png</pathurl>
                      <rate>
                        <timebase>24</timebase>
                        <ntsc>FALSE</ntsc>
                      </rate>
                      <duration>720</duration>
                      <timecode>
                        <rate>
                          <timebase>24</timebase>
                          <ntsc>FALSE</ntsc>
                        </rate>
                      </timecode>
                      <media>
                        <video>
                          <duration>1</duration>
                          <samplecharacteristics>
                            <anamorphic>FALSE</anamorphic>
                            <pixelaspectratio>square</pixelaspectratio>
                            <fielddominance>none</fielddominance>
                            <width>1920</width>
                            <height>1080</height>
                          </samplecharacteristics>
                        </video>
                      </media>
                    </file>
                  </clipitem>
                </track>
              </video>
            </media>
          </clip>
          <clip explodedTracks="true" frameBlend="FALSE" id="masterclip-589">
            <uuid>1941268e-cf3b-4af7-8c1a-80d6402ec2fa</uuid>
            <masterclipid>masterclip-589</masterclipid>
            <ismasterclip>TRUE</ismasterclip>
            <duration>720</duration>
            <in>0</in>
            <out>720</out>
            <name>Scene - Puppet man_0003.587.png</name>
            <rate>
              <timebase>24</timebase>
              <ntsc>FALSE</ntsc>
            </rate>
            <media>
              <video>
                <track>
                  <clipitem frameBlend="FALSE" id="clipitem-590">
                    <name>Scene - Puppet man_0003.587.png</name>
                    <masterclipid>masterclip-589</masterclipid>
                    <rate>
                      <timebase>24</timebase>
                      <ntsc>FALSE</ntsc>
                    </rate>
                    <alphatype>straight</alphatype>
                    <pixelaspectratio>square</pixelaspectratio>
                    <anamorphic>FALSE</anamorphic>
                    <file id="file-589">
                      <name>Scene - Puppet man_0003.587.png</name>
                      <pathurl>file://localhost/C:/Users/jmrey/OneDrive/Desktop/Programmin Stuff/Projects/conversation-simulator/resources/videos/Scene - Puppet man_0003/Scene - Puppet man_0003.587.png</pathurl>
                      <rate>
                        <timebase>24</timebase>
                        <ntsc>FALSE</ntsc>
                      </rate>
                      <duration>720</duration>
                      <timecode>
                        <rate>
                          <timebase>24</timebase>
                          <ntsc>FALSE</ntsc>
                        </rate>
                      </timecode>
                      <media>
                        <video>
                          <duration>1</duration>
                          <samplecharacteristics>
                            <anamorphic>FALSE</anamorphic>
                            <pixelaspectratio>square</pixelaspectratio>
                            <fielddominance>none</fielddominance>
                            <width>1920</width>
                            <height>1080</height>
                          </samplecharacteristics>
                        </video>
                      </media>
                    </file>
                  </clipitem>
                </track>
              </video>
            </media>
          </clip>
          <clip explodedTracks="true" frameBlend="FALSE" id="masterclip-590">
            <uuid>623101f9-32d2-451c-bffa-1a4c1aa06332</uuid>
            <masterclipid>masterclip-590</masterclipid>
            <ismasterclip>TRUE</ismasterclip>
            <duration>720</duration>
            <in>0</in>
            <out>720</out>
            <name>Scene - Puppet man_0003.588.png</name>
            <rate>
              <timebase>24</timebase>
              <ntsc>FALSE</ntsc>
            </rate>
            <media>
              <video>
                <track>
                  <clipitem frameBlend="FALSE" id="clipitem-591">
                    <name>Scene - Puppet man_0003.588.png</name>
                    <masterclipid>masterclip-590</masterclipid>
                    <rate>
                      <timebase>24</timebase>
                      <ntsc>FALSE</ntsc>
                    </rate>
                    <alphatype>straight</alphatype>
                    <pixelaspectratio>square</pixelaspectratio>
                    <anamorphic>FALSE</anamorphic>
                    <file id="file-590">
                      <name>Scene - Puppet man_0003.588.png</name>
                      <pathurl>file://localhost/C:/Users/jmrey/OneDrive/Desktop/Programmin Stuff/Projects/conversation-simulator/resources/videos/Scene - Puppet man_0003/Scene - Puppet man_0003.588.png</pathurl>
                      <rate>
                        <timebase>24</timebase>
                        <ntsc>FALSE</ntsc>
                      </rate>
                      <duration>720</duration>
                      <timecode>
                        <rate>
                          <timebase>24</timebase>
                          <ntsc>FALSE</ntsc>
                        </rate>
                      </timecode>
                      <media>
                        <video>
                          <duration>1</duration>
                          <samplecharacteristics>
                            <anamorphic>FALSE</anamorphic>
                            <pixelaspectratio>square</pixelaspectratio>
                            <fielddominance>none</fielddominance>
                            <width>1920</width>
                            <height>1080</height>
                          </samplecharacteristics>
                        </video>
                      </media>
                    </file>
                  </clipitem>
                </track>
              </video>
            </media>
          </clip>
          <clip explodedTracks="true" frameBlend="FALSE" id="masterclip-591">
            <uuid>63913a39-52fb-4d03-9778-c81fbe87869a</uuid>
            <masterclipid>masterclip-591</masterclipid>
            <ismasterclip>TRUE</ismasterclip>
            <duration>720</duration>
            <in>0</in>
            <out>720</out>
            <name>Scene - Puppet man_0003.589.png</name>
            <rate>
              <timebase>24</timebase>
              <ntsc>FALSE</ntsc>
            </rate>
            <media>
              <video>
                <track>
                  <clipitem frameBlend="FALSE" id="clipitem-592">
                    <name>Scene - Puppet man_0003.589.png</name>
                    <masterclipid>masterclip-591</masterclipid>
                    <rate>
                      <timebase>24</timebase>
                      <ntsc>FALSE</ntsc>
                    </rate>
                    <alphatype>straight</alphatype>
                    <pixelaspectratio>square</pixelaspectratio>
                    <anamorphic>FALSE</anamorphic>
                    <file id="file-591">
                      <name>Scene - Puppet man_0003.589.png</name>
                      <pathurl>file://localhost/C:/Users/jmrey/OneDrive/Desktop/Programmin Stuff/Projects/conversation-simulator/resources/videos/Scene - Puppet man_0003/Scene - Puppet man_0003.589.png</pathurl>
                      <rate>
                        <timebase>24</timebase>
                        <ntsc>FALSE</ntsc>
                      </rate>
                      <duration>720</duration>
                      <timecode>
                        <rate>
                          <timebase>24</timebase>
                          <ntsc>FALSE</ntsc>
                        </rate>
                      </timecode>
                      <media>
                        <video>
                          <duration>1</duration>
                          <samplecharacteristics>
                            <anamorphic>FALSE</anamorphic>
                            <pixelaspectratio>square</pixelaspectratio>
                            <fielddominance>none</fielddominance>
                            <width>1920</width>
                            <height>1080</height>
                          </samplecharacteristics>
                        </video>
                      </media>
                    </file>
                  </clipitem>
                </track>
              </video>
            </media>
          </clip>
          <clip explodedTracks="true" frameBlend="FALSE" id="masterclip-592">
            <uuid>db5ab42a-0ca6-46c5-92d8-079747c7c1a6</uuid>
            <masterclipid>masterclip-592</masterclipid>
            <ismasterclip>TRUE</ismasterclip>
            <duration>720</duration>
            <in>0</in>
            <out>720</out>
            <name>Scene - Puppet man_0003.590.png</name>
            <rate>
              <timebase>24</timebase>
              <ntsc>FALSE</ntsc>
            </rate>
            <media>
              <video>
                <track>
                  <clipitem frameBlend="FALSE" id="clipitem-593">
                    <name>Scene - Puppet man_0003.590.png</name>
                    <masterclipid>masterclip-592</masterclipid>
                    <rate>
                      <timebase>24</timebase>
                      <ntsc>FALSE</ntsc>
                    </rate>
                    <alphatype>straight</alphatype>
                    <pixelaspectratio>square</pixelaspectratio>
                    <anamorphic>FALSE</anamorphic>
                    <file id="file-592">
                      <name>Scene - Puppet man_0003.590.png</name>
                      <pathurl>file://localhost/C:/Users/jmrey/OneDrive/Desktop/Programmin Stuff/Projects/conversation-simulator/resources/videos/Scene - Puppet man_0003/Scene - Puppet man_0003.590.png</pathurl>
                      <rate>
                        <timebase>24</timebase>
                        <ntsc>FALSE</ntsc>
                      </rate>
                      <duration>720</duration>
                      <timecode>
                        <rate>
                          <timebase>24</timebase>
                          <ntsc>FALSE</ntsc>
                        </rate>
                      </timecode>
                      <media>
                        <video>
                          <duration>1</duration>
                          <samplecharacteristics>
                            <anamorphic>FALSE</anamorphic>
                            <pixelaspectratio>square</pixelaspectratio>
                            <fielddominance>none</fielddominance>
                            <width>1920</width>
                            <height>1080</height>
                          </samplecharacteristics>
                        </video>
                      </media>
                    </file>
                  </clipitem>
                </track>
              </video>
            </media>
          </clip>
          <clip explodedTracks="true" frameBlend="FALSE" id="masterclip-593">
            <uuid>a520cee6-b4fb-41f8-a1e0-0e9e024d6578</uuid>
            <masterclipid>masterclip-593</masterclipid>
            <ismasterclip>TRUE</ismasterclip>
            <duration>720</duration>
            <in>0</in>
            <out>720</out>
            <name>Scene - Puppet man_0003.591.png</name>
            <rate>
              <timebase>24</timebase>
              <ntsc>FALSE</ntsc>
            </rate>
            <media>
              <video>
                <track>
                  <clipitem frameBlend="FALSE" id="clipitem-594">
                    <name>Scene - Puppet man_0003.591.png</name>
                    <masterclipid>masterclip-593</masterclipid>
                    <rate>
                      <timebase>24</timebase>
                      <ntsc>FALSE</ntsc>
                    </rate>
                    <alphatype>straight</alphatype>
                    <pixelaspectratio>square</pixelaspectratio>
                    <anamorphic>FALSE</anamorphic>
                    <file id="file-593">
                      <name>Scene - Puppet man_0003.591.png</name>
                      <pathurl>file://localhost/C:/Users/jmrey/OneDrive/Desktop/Programmin Stuff/Projects/conversation-simulator/resources/videos/Scene - Puppet man_0003/Scene - Puppet man_0003.591.png</pathurl>
                      <rate>
                        <timebase>24</timebase>
                        <ntsc>FALSE</ntsc>
                      </rate>
                      <duration>720</duration>
                      <timecode>
                        <rate>
                          <timebase>24</timebase>
                          <ntsc>FALSE</ntsc>
                        </rate>
                      </timecode>
                      <media>
                        <video>
                          <duration>1</duration>
                          <samplecharacteristics>
                            <anamorphic>FALSE</anamorphic>
                            <pixelaspectratio>square</pixelaspectratio>
                            <fielddominance>none</fielddominance>
                            <width>1920</width>
                            <height>1080</height>
                          </samplecharacteristics>
                        </video>
                      </media>
                    </file>
                  </clipitem>
                </track>
              </video>
            </media>
          </clip>
          <clip explodedTracks="true" frameBlend="FALSE" id="masterclip-594">
            <uuid>9d24ec28-d23b-4474-b922-bfd0dc0d9eb9</uuid>
            <masterclipid>masterclip-594</masterclipid>
            <ismasterclip>TRUE</ismasterclip>
            <duration>720</duration>
            <in>0</in>
            <out>720</out>
            <name>Scene - Puppet man_0003.592.png</name>
            <rate>
              <timebase>24</timebase>
              <ntsc>FALSE</ntsc>
            </rate>
            <media>
              <video>
                <track>
                  <clipitem frameBlend="FALSE" id="clipitem-595">
                    <name>Scene - Puppet man_0003.592.png</name>
                    <masterclipid>masterclip-594</masterclipid>
                    <rate>
                      <timebase>24</timebase>
                      <ntsc>FALSE</ntsc>
                    </rate>
                    <alphatype>straight</alphatype>
                    <pixelaspectratio>square</pixelaspectratio>
                    <anamorphic>FALSE</anamorphic>
                    <file id="file-594">
                      <name>Scene - Puppet man_0003.592.png</name>
                      <pathurl>file://localhost/C:/Users/jmrey/OneDrive/Desktop/Programmin Stuff/Projects/conversation-simulator/resources/videos/Scene - Puppet man_0003/Scene - Puppet man_0003.592.png</pathurl>
                      <rate>
                        <timebase>24</timebase>
                        <ntsc>FALSE</ntsc>
                      </rate>
                      <duration>720</duration>
                      <timecode>
                        <rate>
                          <timebase>24</timebase>
                          <ntsc>FALSE</ntsc>
                        </rate>
                      </timecode>
                      <media>
                        <video>
                          <duration>1</duration>
                          <samplecharacteristics>
                            <anamorphic>FALSE</anamorphic>
                            <pixelaspectratio>square</pixelaspectratio>
                            <fielddominance>none</fielddominance>
                            <width>1920</width>
                            <height>1080</height>
                          </samplecharacteristics>
                        </video>
                      </media>
                    </file>
                  </clipitem>
                </track>
              </video>
            </media>
          </clip>
          <clip explodedTracks="true" frameBlend="FALSE" id="masterclip-595">
            <uuid>07c26469-1e54-4c63-9fb0-5b67ca8bc858</uuid>
            <masterclipid>masterclip-595</masterclipid>
            <ismasterclip>TRUE</ismasterclip>
            <duration>720</duration>
            <in>0</in>
            <out>720</out>
            <name>Scene - Puppet man_0003.593.png</name>
            <rate>
              <timebase>24</timebase>
              <ntsc>FALSE</ntsc>
            </rate>
            <media>
              <video>
                <track>
                  <clipitem frameBlend="FALSE" id="clipitem-596">
                    <name>Scene - Puppet man_0003.593.png</name>
                    <masterclipid>masterclip-595</masterclipid>
                    <rate>
                      <timebase>24</timebase>
                      <ntsc>FALSE</ntsc>
                    </rate>
                    <alphatype>straight</alphatype>
                    <pixelaspectratio>square</pixelaspectratio>
                    <anamorphic>FALSE</anamorphic>
                    <file id="file-595">
                      <name>Scene - Puppet man_0003.593.png</name>
                      <pathurl>file://localhost/C:/Users/jmrey/OneDrive/Desktop/Programmin Stuff/Projects/conversation-simulator/resources/videos/Scene - Puppet man_0003/Scene - Puppet man_0003.593.png</pathurl>
                      <rate>
                        <timebase>24</timebase>
                        <ntsc>FALSE</ntsc>
                      </rate>
                      <duration>720</duration>
                      <timecode>
                        <rate>
                          <timebase>24</timebase>
                          <ntsc>FALSE</ntsc>
                        </rate>
                      </timecode>
                      <media>
                        <video>
                          <duration>1</duration>
                          <samplecharacteristics>
                            <anamorphic>FALSE</anamorphic>
                            <pixelaspectratio>square</pixelaspectratio>
                            <fielddominance>none</fielddominance>
                            <width>1920</width>
                            <height>1080</height>
                          </samplecharacteristics>
                        </video>
                      </media>
                    </file>
                  </clipitem>
                </track>
              </video>
            </media>
          </clip>
          <clip explodedTracks="true" frameBlend="FALSE" id="masterclip-596">
            <uuid>6798ec53-6126-4067-a77b-c0f983b71139</uuid>
            <masterclipid>masterclip-596</masterclipid>
            <ismasterclip>TRUE</ismasterclip>
            <duration>720</duration>
            <in>0</in>
            <out>720</out>
            <name>Scene - Puppet man_0003.594.png</name>
            <rate>
              <timebase>24</timebase>
              <ntsc>FALSE</ntsc>
            </rate>
            <media>
              <video>
                <track>
                  <clipitem frameBlend="FALSE" id="clipitem-597">
                    <name>Scene - Puppet man_0003.594.png</name>
                    <masterclipid>masterclip-596</masterclipid>
                    <rate>
                      <timebase>24</timebase>
                      <ntsc>FALSE</ntsc>
                    </rate>
                    <alphatype>straight</alphatype>
                    <pixelaspectratio>square</pixelaspectratio>
                    <anamorphic>FALSE</anamorphic>
                    <file id="file-596">
                      <name>Scene - Puppet man_0003.594.png</name>
                      <pathurl>file://localhost/C:/Users/jmrey/OneDrive/Desktop/Programmin Stuff/Projects/conversation-simulator/resources/videos/Scene - Puppet man_0003/Scene - Puppet man_0003.594.png</pathurl>
                      <rate>
                        <timebase>24</timebase>
                        <ntsc>FALSE</ntsc>
                      </rate>
                      <duration>720</duration>
                      <timecode>
                        <rate>
                          <timebase>24</timebase>
                          <ntsc>FALSE</ntsc>
                        </rate>
                      </timecode>
                      <media>
                        <video>
                          <duration>1</duration>
                          <samplecharacteristics>
                            <anamorphic>FALSE</anamorphic>
                            <pixelaspectratio>square</pixelaspectratio>
                            <fielddominance>none</fielddominance>
                            <width>1920</width>
                            <height>1080</height>
                          </samplecharacteristics>
                        </video>
                      </media>
                    </file>
                  </clipitem>
                </track>
              </video>
            </media>
          </clip>
          <clip explodedTracks="true" frameBlend="FALSE" id="masterclip-597">
            <uuid>525b97f2-ec87-495e-a8be-34a4c984ce0a</uuid>
            <masterclipid>masterclip-597</masterclipid>
            <ismasterclip>TRUE</ismasterclip>
            <duration>720</duration>
            <in>0</in>
            <out>720</out>
            <name>Scene - Puppet man_0003.595.png</name>
            <rate>
              <timebase>24</timebase>
              <ntsc>FALSE</ntsc>
            </rate>
            <media>
              <video>
                <track>
                  <clipitem frameBlend="FALSE" id="clipitem-598">
                    <name>Scene - Puppet man_0003.595.png</name>
                    <masterclipid>masterclip-597</masterclipid>
                    <rate>
                      <timebase>24</timebase>
                      <ntsc>FALSE</ntsc>
                    </rate>
                    <alphatype>straight</alphatype>
                    <pixelaspectratio>square</pixelaspectratio>
                    <anamorphic>FALSE</anamorphic>
                    <file id="file-597">
                      <name>Scene - Puppet man_0003.595.png</name>
                      <pathurl>file://localhost/C:/Users/jmrey/OneDrive/Desktop/Programmin Stuff/Projects/conversation-simulator/resources/videos/Scene - Puppet man_0003/Scene - Puppet man_0003.595.png</pathurl>
                      <rate>
                        <timebase>24</timebase>
                        <ntsc>FALSE</ntsc>
                      </rate>
                      <duration>720</duration>
                      <timecode>
                        <rate>
                          <timebase>24</timebase>
                          <ntsc>FALSE</ntsc>
                        </rate>
                      </timecode>
                      <media>
                        <video>
                          <duration>1</duration>
                          <samplecharacteristics>
                            <anamorphic>FALSE</anamorphic>
                            <pixelaspectratio>square</pixelaspectratio>
                            <fielddominance>none</fielddominance>
                            <width>1920</width>
                            <height>1080</height>
                          </samplecharacteristics>
                        </video>
                      </media>
                    </file>
                  </clipitem>
                </track>
              </video>
            </media>
          </clip>
          <clip explodedTracks="true" frameBlend="FALSE" id="masterclip-598">
            <uuid>6d4d0512-3e2e-417b-b2bf-f91a7fa94948</uuid>
            <masterclipid>masterclip-598</masterclipid>
            <ismasterclip>TRUE</ismasterclip>
            <duration>720</duration>
            <in>0</in>
            <out>720</out>
            <name>Scene - Puppet man_0003.596.png</name>
            <rate>
              <timebase>24</timebase>
              <ntsc>FALSE</ntsc>
            </rate>
            <media>
              <video>
                <track>
                  <clipitem frameBlend="FALSE" id="clipitem-599">
                    <name>Scene - Puppet man_0003.596.png</name>
                    <masterclipid>masterclip-598</masterclipid>
                    <rate>
                      <timebase>24</timebase>
                      <ntsc>FALSE</ntsc>
                    </rate>
                    <alphatype>straight</alphatype>
                    <pixelaspectratio>square</pixelaspectratio>
                    <anamorphic>FALSE</anamorphic>
                    <file id="file-598">
                      <name>Scene - Puppet man_0003.596.png</name>
                      <pathurl>file://localhost/C:/Users/jmrey/OneDrive/Desktop/Programmin Stuff/Projects/conversation-simulator/resources/videos/Scene - Puppet man_0003/Scene - Puppet man_0003.596.png</pathurl>
                      <rate>
                        <timebase>24</timebase>
                        <ntsc>FALSE</ntsc>
                      </rate>
                      <duration>720</duration>
                      <timecode>
                        <rate>
                          <timebase>24</timebase>
                          <ntsc>FALSE</ntsc>
                        </rate>
                      </timecode>
                      <media>
                        <video>
                          <duration>1</duration>
                          <samplecharacteristics>
                            <anamorphic>FALSE</anamorphic>
                            <pixelaspectratio>square</pixelaspectratio>
                            <fielddominance>none</fielddominance>
                            <width>1920</width>
                            <height>1080</height>
                          </samplecharacteristics>
                        </video>
                      </media>
                    </file>
                  </clipitem>
                </track>
              </video>
            </media>
          </clip>
          <clip explodedTracks="true" frameBlend="FALSE" id="masterclip-599">
            <uuid>dbf9fcca-2579-48db-94ef-88a928061d2e</uuid>
            <masterclipid>masterclip-599</masterclipid>
            <ismasterclip>TRUE</ismasterclip>
            <duration>720</duration>
            <in>0</in>
            <out>720</out>
            <name>Scene - Puppet man_0003.597.png</name>
            <rate>
              <timebase>24</timebase>
              <ntsc>FALSE</ntsc>
            </rate>
            <media>
              <video>
                <track>
                  <clipitem frameBlend="FALSE" id="clipitem-600">
                    <name>Scene - Puppet man_0003.597.png</name>
                    <masterclipid>masterclip-599</masterclipid>
                    <rate>
                      <timebase>24</timebase>
                      <ntsc>FALSE</ntsc>
                    </rate>
                    <alphatype>straight</alphatype>
                    <pixelaspectratio>square</pixelaspectratio>
                    <anamorphic>FALSE</anamorphic>
                    <file id="file-599">
                      <name>Scene - Puppet man_0003.597.png</name>
                      <pathurl>file://localhost/C:/Users/jmrey/OneDrive/Desktop/Programmin Stuff/Projects/conversation-simulator/resources/videos/Scene - Puppet man_0003/Scene - Puppet man_0003.597.png</pathurl>
                      <rate>
                        <timebase>24</timebase>
                        <ntsc>FALSE</ntsc>
                      </rate>
                      <duration>720</duration>
                      <timecode>
                        <rate>
                          <timebase>24</timebase>
                          <ntsc>FALSE</ntsc>
                        </rate>
                      </timecode>
                      <media>
                        <video>
                          <duration>1</duration>
                          <samplecharacteristics>
                            <anamorphic>FALSE</anamorphic>
                            <pixelaspectratio>square</pixelaspectratio>
                            <fielddominance>none</fielddominance>
                            <width>1920</width>
                            <height>1080</height>
                          </samplecharacteristics>
                        </video>
                      </media>
                    </file>
                  </clipitem>
                </track>
              </video>
            </media>
          </clip>
          <clip explodedTracks="true" frameBlend="FALSE" id="masterclip-600">
            <uuid>a2cf326f-2d85-4279-b064-6e1cc488542e</uuid>
            <masterclipid>masterclip-600</masterclipid>
            <ismasterclip>TRUE</ismasterclip>
            <duration>720</duration>
            <in>0</in>
            <out>720</out>
            <name>Scene - Puppet man_0003.598.png</name>
            <rate>
              <timebase>24</timebase>
              <ntsc>FALSE</ntsc>
            </rate>
            <media>
              <video>
                <track>
                  <clipitem frameBlend="FALSE" id="clipitem-601">
                    <name>Scene - Puppet man_0003.598.png</name>
                    <masterclipid>masterclip-600</masterclipid>
                    <rate>
                      <timebase>24</timebase>
                      <ntsc>FALSE</ntsc>
                    </rate>
                    <alphatype>straight</alphatype>
                    <pixelaspectratio>square</pixelaspectratio>
                    <anamorphic>FALSE</anamorphic>
                    <file id="file-600">
                      <name>Scene - Puppet man_0003.598.png</name>
                      <pathurl>file://localhost/C:/Users/jmrey/OneDrive/Desktop/Programmin Stuff/Projects/conversation-simulator/resources/videos/Scene - Puppet man_0003/Scene - Puppet man_0003.598.png</pathurl>
                      <rate>
                        <timebase>24</timebase>
                        <ntsc>FALSE</ntsc>
                      </rate>
                      <duration>720</duration>
                      <timecode>
                        <rate>
                          <timebase>24</timebase>
                          <ntsc>FALSE</ntsc>
                        </rate>
                      </timecode>
                      <media>
                        <video>
                          <duration>1</duration>
                          <samplecharacteristics>
                            <anamorphic>FALSE</anamorphic>
                            <pixelaspectratio>square</pixelaspectratio>
                            <fielddominance>none</fielddominance>
                            <width>1920</width>
                            <height>1080</height>
                          </samplecharacteristics>
                        </video>
                      </media>
                    </file>
                  </clipitem>
                </track>
              </video>
            </media>
          </clip>
          <clip explodedTracks="true" frameBlend="FALSE" id="masterclip-601">
            <uuid>4a75193f-3f19-4bad-8865-dc4260960e09</uuid>
            <masterclipid>masterclip-601</masterclipid>
            <ismasterclip>TRUE</ismasterclip>
            <duration>720</duration>
            <in>0</in>
            <out>720</out>
            <name>Scene - Puppet man_0003.599.png</name>
            <rate>
              <timebase>24</timebase>
              <ntsc>FALSE</ntsc>
            </rate>
            <media>
              <video>
                <track>
                  <clipitem frameBlend="FALSE" id="clipitem-602">
                    <name>Scene - Puppet man_0003.599.png</name>
                    <masterclipid>masterclip-601</masterclipid>
                    <rate>
                      <timebase>24</timebase>
                      <ntsc>FALSE</ntsc>
                    </rate>
                    <alphatype>straight</alphatype>
                    <pixelaspectratio>square</pixelaspectratio>
                    <anamorphic>FALSE</anamorphic>
                    <file id="file-601">
                      <name>Scene - Puppet man_0003.599.png</name>
                      <pathurl>file://localhost/C:/Users/jmrey/OneDrive/Desktop/Programmin Stuff/Projects/conversation-simulator/resources/videos/Scene - Puppet man_0003/Scene - Puppet man_0003.599.png</pathurl>
                      <rate>
                        <timebase>24</timebase>
                        <ntsc>FALSE</ntsc>
                      </rate>
                      <duration>720</duration>
                      <timecode>
                        <rate>
                          <timebase>24</timebase>
                          <ntsc>FALSE</ntsc>
                        </rate>
                      </timecode>
                      <media>
                        <video>
                          <duration>1</duration>
                          <samplecharacteristics>
                            <anamorphic>FALSE</anamorphic>
                            <pixelaspectratio>square</pixelaspectratio>
                            <fielddominance>none</fielddominance>
                            <width>1920</width>
                            <height>1080</height>
                          </samplecharacteristics>
                        </video>
                      </media>
                    </file>
                  </clipitem>
                </track>
              </video>
            </media>
          </clip>
          <clip explodedTracks="true" frameBlend="FALSE" id="masterclip-602">
            <uuid>fe00df75-09d4-4d16-97fd-ec12ec3fb8a8</uuid>
            <masterclipid>masterclip-602</masterclipid>
            <ismasterclip>TRUE</ismasterclip>
            <duration>720</duration>
            <in>0</in>
            <out>720</out>
            <name>Scene - Puppet man_0003.600.png</name>
            <rate>
              <timebase>24</timebase>
              <ntsc>FALSE</ntsc>
            </rate>
            <media>
              <video>
                <track>
                  <clipitem frameBlend="FALSE" id="clipitem-603">
                    <name>Scene - Puppet man_0003.600.png</name>
                    <masterclipid>masterclip-602</masterclipid>
                    <rate>
                      <timebase>24</timebase>
                      <ntsc>FALSE</ntsc>
                    </rate>
                    <alphatype>straight</alphatype>
                    <pixelaspectratio>square</pixelaspectratio>
                    <anamorphic>FALSE</anamorphic>
                    <file id="file-602">
                      <name>Scene - Puppet man_0003.600.png</name>
                      <pathurl>file://localhost/C:/Users/jmrey/OneDrive/Desktop/Programmin Stuff/Projects/conversation-simulator/resources/videos/Scene - Puppet man_0003/Scene - Puppet man_0003.600.png</pathurl>
                      <rate>
                        <timebase>24</timebase>
                        <ntsc>FALSE</ntsc>
                      </rate>
                      <duration>720</duration>
                      <timecode>
                        <rate>
                          <timebase>24</timebase>
                          <ntsc>FALSE</ntsc>
                        </rate>
                      </timecode>
                      <media>
                        <video>
                          <duration>1</duration>
                          <samplecharacteristics>
                            <anamorphic>FALSE</anamorphic>
                            <pixelaspectratio>square</pixelaspectratio>
                            <fielddominance>none</fielddominance>
                            <width>1920</width>
                            <height>1080</height>
                          </samplecharacteristics>
                        </video>
                      </media>
                    </file>
                  </clipitem>
                </track>
              </video>
            </media>
          </clip>
          <clip explodedTracks="true" frameBlend="FALSE" id="masterclip-603">
            <uuid>f1048928-0e13-429e-9b3d-6a9a74c64c8a</uuid>
            <masterclipid>masterclip-603</masterclipid>
            <ismasterclip>TRUE</ismasterclip>
            <duration>720</duration>
            <in>0</in>
            <out>720</out>
            <name>Scene - Puppet man_0003.601.png</name>
            <rate>
              <timebase>24</timebase>
              <ntsc>FALSE</ntsc>
            </rate>
            <media>
              <video>
                <track>
                  <clipitem frameBlend="FALSE" id="clipitem-604">
                    <name>Scene - Puppet man_0003.601.png</name>
                    <masterclipid>masterclip-603</masterclipid>
                    <rate>
                      <timebase>24</timebase>
                      <ntsc>FALSE</ntsc>
                    </rate>
                    <alphatype>straight</alphatype>
                    <pixelaspectratio>square</pixelaspectratio>
                    <anamorphic>FALSE</anamorphic>
                    <file id="file-603">
                      <name>Scene - Puppet man_0003.601.png</name>
                      <pathurl>file://localhost/C:/Users/jmrey/OneDrive/Desktop/Programmin Stuff/Projects/conversation-simulator/resources/videos/Scene - Puppet man_0003/Scene - Puppet man_0003.601.png</pathurl>
                      <rate>
                        <timebase>24</timebase>
                        <ntsc>FALSE</ntsc>
                      </rate>
                      <duration>720</duration>
                      <timecode>
                        <rate>
                          <timebase>24</timebase>
                          <ntsc>FALSE</ntsc>
                        </rate>
                      </timecode>
                      <media>
                        <video>
                          <duration>1</duration>
                          <samplecharacteristics>
                            <anamorphic>FALSE</anamorphic>
                            <pixelaspectratio>square</pixelaspectratio>
                            <fielddominance>none</fielddominance>
                            <width>1920</width>
                            <height>1080</height>
                          </samplecharacteristics>
                        </video>
                      </media>
                    </file>
                  </clipitem>
                </track>
              </video>
            </media>
          </clip>
          <clip explodedTracks="true" frameBlend="FALSE" id="masterclip-604">
            <uuid>b5d5c5a8-fcd1-42f8-968b-728f4f631419</uuid>
            <masterclipid>masterclip-604</masterclipid>
            <ismasterclip>TRUE</ismasterclip>
            <duration>720</duration>
            <in>0</in>
            <out>720</out>
            <name>Scene - Puppet man_0003.602.png</name>
            <rate>
              <timebase>24</timebase>
              <ntsc>FALSE</ntsc>
            </rate>
            <media>
              <video>
                <track>
                  <clipitem frameBlend="FALSE" id="clipitem-605">
                    <name>Scene - Puppet man_0003.602.png</name>
                    <masterclipid>masterclip-604</masterclipid>
                    <rate>
                      <timebase>24</timebase>
                      <ntsc>FALSE</ntsc>
                    </rate>
                    <alphatype>straight</alphatype>
                    <pixelaspectratio>square</pixelaspectratio>
                    <anamorphic>FALSE</anamorphic>
                    <file id="file-604">
                      <name>Scene - Puppet man_0003.602.png</name>
                      <pathurl>file://localhost/C:/Users/jmrey/OneDrive/Desktop/Programmin Stuff/Projects/conversation-simulator/resources/videos/Scene - Puppet man_0003/Scene - Puppet man_0003.602.png</pathurl>
                      <rate>
                        <timebase>24</timebase>
                        <ntsc>FALSE</ntsc>
                      </rate>
                      <duration>720</duration>
                      <timecode>
                        <rate>
                          <timebase>24</timebase>
                          <ntsc>FALSE</ntsc>
                        </rate>
                      </timecode>
                      <media>
                        <video>
                          <duration>1</duration>
                          <samplecharacteristics>
                            <anamorphic>FALSE</anamorphic>
                            <pixelaspectratio>square</pixelaspectratio>
                            <fielddominance>none</fielddominance>
                            <width>1920</width>
                            <height>1080</height>
                          </samplecharacteristics>
                        </video>
                      </media>
                    </file>
                  </clipitem>
                </track>
              </video>
            </media>
          </clip>
          <clip explodedTracks="true" frameBlend="FALSE" id="masterclip-605">
            <uuid>27d6461b-6843-439e-a27c-c39c7d175925</uuid>
            <masterclipid>masterclip-605</masterclipid>
            <ismasterclip>TRUE</ismasterclip>
            <duration>720</duration>
            <in>0</in>
            <out>720</out>
            <name>Scene - Puppet man_0003.603.png</name>
            <rate>
              <timebase>24</timebase>
              <ntsc>FALSE</ntsc>
            </rate>
            <media>
              <video>
                <track>
                  <clipitem frameBlend="FALSE" id="clipitem-606">
                    <name>Scene - Puppet man_0003.603.png</name>
                    <masterclipid>masterclip-605</masterclipid>
                    <rate>
                      <timebase>24</timebase>
                      <ntsc>FALSE</ntsc>
                    </rate>
                    <alphatype>straight</alphatype>
                    <pixelaspectratio>square</pixelaspectratio>
                    <anamorphic>FALSE</anamorphic>
                    <file id="file-605">
                      <name>Scene - Puppet man_0003.603.png</name>
                      <pathurl>file://localhost/C:/Users/jmrey/OneDrive/Desktop/Programmin Stuff/Projects/conversation-simulator/resources/videos/Scene - Puppet man_0003/Scene - Puppet man_0003.603.png</pathurl>
                      <rate>
                        <timebase>24</timebase>
                        <ntsc>FALSE</ntsc>
                      </rate>
                      <duration>720</duration>
                      <timecode>
                        <rate>
                          <timebase>24</timebase>
                          <ntsc>FALSE</ntsc>
                        </rate>
                      </timecode>
                      <media>
                        <video>
                          <duration>1</duration>
                          <samplecharacteristics>
                            <anamorphic>FALSE</anamorphic>
                            <pixelaspectratio>square</pixelaspectratio>
                            <fielddominance>none</fielddominance>
                            <width>1920</width>
                            <height>1080</height>
                          </samplecharacteristics>
                        </video>
                      </media>
                    </file>
                  </clipitem>
                </track>
              </video>
            </media>
          </clip>
          <clip explodedTracks="true" frameBlend="FALSE" id="masterclip-606">
            <uuid>79113a20-68ac-4794-8aee-ab1a243db15e</uuid>
            <masterclipid>masterclip-606</masterclipid>
            <ismasterclip>TRUE</ismasterclip>
            <duration>720</duration>
            <in>0</in>
            <out>720</out>
            <name>Scene - Puppet man_0003.604.png</name>
            <rate>
              <timebase>24</timebase>
              <ntsc>FALSE</ntsc>
            </rate>
            <media>
              <video>
                <track>
                  <clipitem frameBlend="FALSE" id="clipitem-607">
                    <name>Scene - Puppet man_0003.604.png</name>
                    <masterclipid>masterclip-606</masterclipid>
                    <rate>
                      <timebase>24</timebase>
                      <ntsc>FALSE</ntsc>
                    </rate>
                    <alphatype>straight</alphatype>
                    <pixelaspectratio>square</pixelaspectratio>
                    <anamorphic>FALSE</anamorphic>
                    <file id="file-606">
                      <name>Scene - Puppet man_0003.604.png</name>
                      <pathurl>file://localhost/C:/Users/jmrey/OneDrive/Desktop/Programmin Stuff/Projects/conversation-simulator/resources/videos/Scene - Puppet man_0003/Scene - Puppet man_0003.604.png</pathurl>
                      <rate>
                        <timebase>24</timebase>
                        <ntsc>FALSE</ntsc>
                      </rate>
                      <duration>720</duration>
                      <timecode>
                        <rate>
                          <timebase>24</timebase>
                          <ntsc>FALSE</ntsc>
                        </rate>
                      </timecode>
                      <media>
                        <video>
                          <duration>1</duration>
                          <samplecharacteristics>
                            <anamorphic>FALSE</anamorphic>
                            <pixelaspectratio>square</pixelaspectratio>
                            <fielddominance>none</fielddominance>
                            <width>1920</width>
                            <height>1080</height>
                          </samplecharacteristics>
                        </video>
                      </media>
                    </file>
                  </clipitem>
                </track>
              </video>
            </media>
          </clip>
          <clip explodedTracks="true" frameBlend="FALSE" id="masterclip-607">
            <uuid>7e4e650d-a912-4477-9d55-2cc1e5a3e7b5</uuid>
            <masterclipid>masterclip-607</masterclipid>
            <ismasterclip>TRUE</ismasterclip>
            <duration>720</duration>
            <in>0</in>
            <out>720</out>
            <name>Scene - Puppet man_0003.605.png</name>
            <rate>
              <timebase>24</timebase>
              <ntsc>FALSE</ntsc>
            </rate>
            <media>
              <video>
                <track>
                  <clipitem frameBlend="FALSE" id="clipitem-608">
                    <name>Scene - Puppet man_0003.605.png</name>
                    <masterclipid>masterclip-607</masterclipid>
                    <rate>
                      <timebase>24</timebase>
                      <ntsc>FALSE</ntsc>
                    </rate>
                    <alphatype>straight</alphatype>
                    <pixelaspectratio>square</pixelaspectratio>
                    <anamorphic>FALSE</anamorphic>
                    <file id="file-607">
                      <name>Scene - Puppet man_0003.605.png</name>
                      <pathurl>file://localhost/C:/Users/jmrey/OneDrive/Desktop/Programmin Stuff/Projects/conversation-simulator/resources/videos/Scene - Puppet man_0003/Scene - Puppet man_0003.605.png</pathurl>
                      <rate>
                        <timebase>24</timebase>
                        <ntsc>FALSE</ntsc>
                      </rate>
                      <duration>720</duration>
                      <timecode>
                        <rate>
                          <timebase>24</timebase>
                          <ntsc>FALSE</ntsc>
                        </rate>
                      </timecode>
                      <media>
                        <video>
                          <duration>1</duration>
                          <samplecharacteristics>
                            <anamorphic>FALSE</anamorphic>
                            <pixelaspectratio>square</pixelaspectratio>
                            <fielddominance>none</fielddominance>
                            <width>1920</width>
                            <height>1080</height>
                          </samplecharacteristics>
                        </video>
                      </media>
                    </file>
                  </clipitem>
                </track>
              </video>
            </media>
          </clip>
          <clip explodedTracks="true" frameBlend="FALSE" id="masterclip-608">
            <uuid>102683ef-d8b9-47ec-9a7e-1b117951f94b</uuid>
            <masterclipid>masterclip-608</masterclipid>
            <ismasterclip>TRUE</ismasterclip>
            <duration>720</duration>
            <in>0</in>
            <out>720</out>
            <name>Scene - Puppet man_0003.606.png</name>
            <rate>
              <timebase>24</timebase>
              <ntsc>FALSE</ntsc>
            </rate>
            <media>
              <video>
                <track>
                  <clipitem frameBlend="FALSE" id="clipitem-609">
                    <name>Scene - Puppet man_0003.606.png</name>
                    <masterclipid>masterclip-608</masterclipid>
                    <rate>
                      <timebase>24</timebase>
                      <ntsc>FALSE</ntsc>
                    </rate>
                    <alphatype>straight</alphatype>
                    <pixelaspectratio>square</pixelaspectratio>
                    <anamorphic>FALSE</anamorphic>
                    <file id="file-608">
                      <name>Scene - Puppet man_0003.606.png</name>
                      <pathurl>file://localhost/C:/Users/jmrey/OneDrive/Desktop/Programmin Stuff/Projects/conversation-simulator/resources/videos/Scene - Puppet man_0003/Scene - Puppet man_0003.606.png</pathurl>
                      <rate>
                        <timebase>24</timebase>
                        <ntsc>FALSE</ntsc>
                      </rate>
                      <duration>720</duration>
                      <timecode>
                        <rate>
                          <timebase>24</timebase>
                          <ntsc>FALSE</ntsc>
                        </rate>
                      </timecode>
                      <media>
                        <video>
                          <duration>1</duration>
                          <samplecharacteristics>
                            <anamorphic>FALSE</anamorphic>
                            <pixelaspectratio>square</pixelaspectratio>
                            <fielddominance>none</fielddominance>
                            <width>1920</width>
                            <height>1080</height>
                          </samplecharacteristics>
                        </video>
                      </media>
                    </file>
                  </clipitem>
                </track>
              </video>
            </media>
          </clip>
          <clip explodedTracks="true" frameBlend="FALSE" id="masterclip-609">
            <uuid>04f663c6-5da4-43db-8dd7-e38a669882d0</uuid>
            <masterclipid>masterclip-609</masterclipid>
            <ismasterclip>TRUE</ismasterclip>
            <duration>720</duration>
            <in>0</in>
            <out>720</out>
            <name>Scene - Puppet man_0003.607.png</name>
            <rate>
              <timebase>24</timebase>
              <ntsc>FALSE</ntsc>
            </rate>
            <media>
              <video>
                <track>
                  <clipitem frameBlend="FALSE" id="clipitem-610">
                    <name>Scene - Puppet man_0003.607.png</name>
                    <masterclipid>masterclip-609</masterclipid>
                    <rate>
                      <timebase>24</timebase>
                      <ntsc>FALSE</ntsc>
                    </rate>
                    <alphatype>straight</alphatype>
                    <pixelaspectratio>square</pixelaspectratio>
                    <anamorphic>FALSE</anamorphic>
                    <file id="file-609">
                      <name>Scene - Puppet man_0003.607.png</name>
                      <pathurl>file://localhost/C:/Users/jmrey/OneDrive/Desktop/Programmin Stuff/Projects/conversation-simulator/resources/videos/Scene - Puppet man_0003/Scene - Puppet man_0003.607.png</pathurl>
                      <rate>
                        <timebase>24</timebase>
                        <ntsc>FALSE</ntsc>
                      </rate>
                      <duration>720</duration>
                      <timecode>
                        <rate>
                          <timebase>24</timebase>
                          <ntsc>FALSE</ntsc>
                        </rate>
                      </timecode>
                      <media>
                        <video>
                          <duration>1</duration>
                          <samplecharacteristics>
                            <anamorphic>FALSE</anamorphic>
                            <pixelaspectratio>square</pixelaspectratio>
                            <fielddominance>none</fielddominance>
                            <width>1920</width>
                            <height>1080</height>
                          </samplecharacteristics>
                        </video>
                      </media>
                    </file>
                  </clipitem>
                </track>
              </video>
            </media>
          </clip>
          <clip explodedTracks="true" frameBlend="FALSE" id="masterclip-610">
            <uuid>2aeb8ea3-87fa-425e-9719-74f49b3ba15d</uuid>
            <masterclipid>masterclip-610</masterclipid>
            <ismasterclip>TRUE</ismasterclip>
            <duration>720</duration>
            <in>0</in>
            <out>720</out>
            <name>Scene - Puppet man_0003.608.png</name>
            <rate>
              <timebase>24</timebase>
              <ntsc>FALSE</ntsc>
            </rate>
            <media>
              <video>
                <track>
                  <clipitem frameBlend="FALSE" id="clipitem-611">
                    <name>Scene - Puppet man_0003.608.png</name>
                    <masterclipid>masterclip-610</masterclipid>
                    <rate>
                      <timebase>24</timebase>
                      <ntsc>FALSE</ntsc>
                    </rate>
                    <alphatype>straight</alphatype>
                    <pixelaspectratio>square</pixelaspectratio>
                    <anamorphic>FALSE</anamorphic>
                    <file id="file-610">
                      <name>Scene - Puppet man_0003.608.png</name>
                      <pathurl>file://localhost/C:/Users/jmrey/OneDrive/Desktop/Programmin Stuff/Projects/conversation-simulator/resources/videos/Scene - Puppet man_0003/Scene - Puppet man_0003.608.png</pathurl>
                      <rate>
                        <timebase>24</timebase>
                        <ntsc>FALSE</ntsc>
                      </rate>
                      <duration>720</duration>
                      <timecode>
                        <rate>
                          <timebase>24</timebase>
                          <ntsc>FALSE</ntsc>
                        </rate>
                      </timecode>
                      <media>
                        <video>
                          <duration>1</duration>
                          <samplecharacteristics>
                            <anamorphic>FALSE</anamorphic>
                            <pixelaspectratio>square</pixelaspectratio>
                            <fielddominance>none</fielddominance>
                            <width>1920</width>
                            <height>1080</height>
                          </samplecharacteristics>
                        </video>
                      </media>
                    </file>
                  </clipitem>
                </track>
              </video>
            </media>
          </clip>
          <clip explodedTracks="true" frameBlend="FALSE" id="masterclip-611">
            <uuid>1df5f311-bb6e-4a95-b121-1260788c86ff</uuid>
            <masterclipid>masterclip-611</masterclipid>
            <ismasterclip>TRUE</ismasterclip>
            <duration>720</duration>
            <in>0</in>
            <out>720</out>
            <name>Scene - Puppet man_0003.609.png</name>
            <rate>
              <timebase>24</timebase>
              <ntsc>FALSE</ntsc>
            </rate>
            <media>
              <video>
                <track>
                  <clipitem frameBlend="FALSE" id="clipitem-612">
                    <name>Scene - Puppet man_0003.609.png</name>
                    <masterclipid>masterclip-611</masterclipid>
                    <rate>
                      <timebase>24</timebase>
                      <ntsc>FALSE</ntsc>
                    </rate>
                    <alphatype>straight</alphatype>
                    <pixelaspectratio>square</pixelaspectratio>
                    <anamorphic>FALSE</anamorphic>
                    <file id="file-611">
                      <name>Scene - Puppet man_0003.609.png</name>
                      <pathurl>file://localhost/C:/Users/jmrey/OneDrive/Desktop/Programmin Stuff/Projects/conversation-simulator/resources/videos/Scene - Puppet man_0003/Scene - Puppet man_0003.609.png</pathurl>
                      <rate>
                        <timebase>24</timebase>
                        <ntsc>FALSE</ntsc>
                      </rate>
                      <duration>720</duration>
                      <timecode>
                        <rate>
                          <timebase>24</timebase>
                          <ntsc>FALSE</ntsc>
                        </rate>
                      </timecode>
                      <media>
                        <video>
                          <duration>1</duration>
                          <samplecharacteristics>
                            <anamorphic>FALSE</anamorphic>
                            <pixelaspectratio>square</pixelaspectratio>
                            <fielddominance>none</fielddominance>
                            <width>1920</width>
                            <height>1080</height>
                          </samplecharacteristics>
                        </video>
                      </media>
                    </file>
                  </clipitem>
                </track>
              </video>
            </media>
          </clip>
          <clip explodedTracks="true" frameBlend="FALSE" id="masterclip-612">
            <uuid>b399989f-7021-49d5-b8ce-d9789f6b058a</uuid>
            <masterclipid>masterclip-612</masterclipid>
            <ismasterclip>TRUE</ismasterclip>
            <duration>720</duration>
            <in>0</in>
            <out>720</out>
            <name>Scene - Puppet man_0003.610.png</name>
            <rate>
              <timebase>24</timebase>
              <ntsc>FALSE</ntsc>
            </rate>
            <media>
              <video>
                <track>
                  <clipitem frameBlend="FALSE" id="clipitem-613">
                    <name>Scene - Puppet man_0003.610.png</name>
                    <masterclipid>masterclip-612</masterclipid>
                    <rate>
                      <timebase>24</timebase>
                      <ntsc>FALSE</ntsc>
                    </rate>
                    <alphatype>straight</alphatype>
                    <pixelaspectratio>square</pixelaspectratio>
                    <anamorphic>FALSE</anamorphic>
                    <file id="file-612">
                      <name>Scene - Puppet man_0003.610.png</name>
                      <pathurl>file://localhost/C:/Users/jmrey/OneDrive/Desktop/Programmin Stuff/Projects/conversation-simulator/resources/videos/Scene - Puppet man_0003/Scene - Puppet man_0003.610.png</pathurl>
                      <rate>
                        <timebase>24</timebase>
                        <ntsc>FALSE</ntsc>
                      </rate>
                      <duration>720</duration>
                      <timecode>
                        <rate>
                          <timebase>24</timebase>
                          <ntsc>FALSE</ntsc>
                        </rate>
                      </timecode>
                      <media>
                        <video>
                          <duration>1</duration>
                          <samplecharacteristics>
                            <anamorphic>FALSE</anamorphic>
                            <pixelaspectratio>square</pixelaspectratio>
                            <fielddominance>none</fielddominance>
                            <width>1920</width>
                            <height>1080</height>
                          </samplecharacteristics>
                        </video>
                      </media>
                    </file>
                  </clipitem>
                </track>
              </video>
            </media>
          </clip>
          <clip explodedTracks="true" frameBlend="FALSE" id="masterclip-613">
            <uuid>20702cd2-74a5-4137-afc3-13347c9fb379</uuid>
            <masterclipid>masterclip-613</masterclipid>
            <ismasterclip>TRUE</ismasterclip>
            <duration>720</duration>
            <in>0</in>
            <out>720</out>
            <name>Scene - Puppet man_0003.611.png</name>
            <rate>
              <timebase>24</timebase>
              <ntsc>FALSE</ntsc>
            </rate>
            <media>
              <video>
                <track>
                  <clipitem frameBlend="FALSE" id="clipitem-614">
                    <name>Scene - Puppet man_0003.611.png</name>
                    <masterclipid>masterclip-613</masterclipid>
                    <rate>
                      <timebase>24</timebase>
                      <ntsc>FALSE</ntsc>
                    </rate>
                    <alphatype>straight</alphatype>
                    <pixelaspectratio>square</pixelaspectratio>
                    <anamorphic>FALSE</anamorphic>
                    <file id="file-613">
                      <name>Scene - Puppet man_0003.611.png</name>
                      <pathurl>file://localhost/C:/Users/jmrey/OneDrive/Desktop/Programmin Stuff/Projects/conversation-simulator/resources/videos/Scene - Puppet man_0003/Scene - Puppet man_0003.611.png</pathurl>
                      <rate>
                        <timebase>24</timebase>
                        <ntsc>FALSE</ntsc>
                      </rate>
                      <duration>720</duration>
                      <timecode>
                        <rate>
                          <timebase>24</timebase>
                          <ntsc>FALSE</ntsc>
                        </rate>
                      </timecode>
                      <media>
                        <video>
                          <duration>1</duration>
                          <samplecharacteristics>
                            <anamorphic>FALSE</anamorphic>
                            <pixelaspectratio>square</pixelaspectratio>
                            <fielddominance>none</fielddominance>
                            <width>1920</width>
                            <height>1080</height>
                          </samplecharacteristics>
                        </video>
                      </media>
                    </file>
                  </clipitem>
                </track>
              </video>
            </media>
          </clip>
          <clip explodedTracks="true" frameBlend="FALSE" id="masterclip-614">
            <uuid>45ef3795-00a6-464b-aa54-079e007664db</uuid>
            <masterclipid>masterclip-614</masterclipid>
            <ismasterclip>TRUE</ismasterclip>
            <duration>720</duration>
            <in>0</in>
            <out>720</out>
            <name>Scene - Puppet man_0003.612.png</name>
            <rate>
              <timebase>24</timebase>
              <ntsc>FALSE</ntsc>
            </rate>
            <media>
              <video>
                <track>
                  <clipitem frameBlend="FALSE" id="clipitem-615">
                    <name>Scene - Puppet man_0003.612.png</name>
                    <masterclipid>masterclip-614</masterclipid>
                    <rate>
                      <timebase>24</timebase>
                      <ntsc>FALSE</ntsc>
                    </rate>
                    <alphatype>straight</alphatype>
                    <pixelaspectratio>square</pixelaspectratio>
                    <anamorphic>FALSE</anamorphic>
                    <file id="file-614">
                      <name>Scene - Puppet man_0003.612.png</name>
                      <pathurl>file://localhost/C:/Users/jmrey/OneDrive/Desktop/Programmin Stuff/Projects/conversation-simulator/resources/videos/Scene - Puppet man_0003/Scene - Puppet man_0003.612.png</pathurl>
                      <rate>
                        <timebase>24</timebase>
                        <ntsc>FALSE</ntsc>
                      </rate>
                      <duration>720</duration>
                      <timecode>
                        <rate>
                          <timebase>24</timebase>
                          <ntsc>FALSE</ntsc>
                        </rate>
                      </timecode>
                      <media>
                        <video>
                          <duration>1</duration>
                          <samplecharacteristics>
                            <anamorphic>FALSE</anamorphic>
                            <pixelaspectratio>square</pixelaspectratio>
                            <fielddominance>none</fielddominance>
                            <width>1920</width>
                            <height>1080</height>
                          </samplecharacteristics>
                        </video>
                      </media>
                    </file>
                  </clipitem>
                </track>
              </video>
            </media>
          </clip>
          <clip explodedTracks="true" frameBlend="FALSE" id="masterclip-615">
            <uuid>542bda8d-5fba-4cb7-bddd-7b4cf2c24d1f</uuid>
            <masterclipid>masterclip-615</masterclipid>
            <ismasterclip>TRUE</ismasterclip>
            <duration>720</duration>
            <in>0</in>
            <out>720</out>
            <name>Scene - Puppet man_0003.613.png</name>
            <rate>
              <timebase>24</timebase>
              <ntsc>FALSE</ntsc>
            </rate>
            <media>
              <video>
                <track>
                  <clipitem frameBlend="FALSE" id="clipitem-616">
                    <name>Scene - Puppet man_0003.613.png</name>
                    <masterclipid>masterclip-615</masterclipid>
                    <rate>
                      <timebase>24</timebase>
                      <ntsc>FALSE</ntsc>
                    </rate>
                    <alphatype>straight</alphatype>
                    <pixelaspectratio>square</pixelaspectratio>
                    <anamorphic>FALSE</anamorphic>
                    <file id="file-615">
                      <name>Scene - Puppet man_0003.613.png</name>
                      <pathurl>file://localhost/C:/Users/jmrey/OneDrive/Desktop/Programmin Stuff/Projects/conversation-simulator/resources/videos/Scene - Puppet man_0003/Scene - Puppet man_0003.613.png</pathurl>
                      <rate>
                        <timebase>24</timebase>
                        <ntsc>FALSE</ntsc>
                      </rate>
                      <duration>720</duration>
                      <timecode>
                        <rate>
                          <timebase>24</timebase>
                          <ntsc>FALSE</ntsc>
                        </rate>
                      </timecode>
                      <media>
                        <video>
                          <duration>1</duration>
                          <samplecharacteristics>
                            <anamorphic>FALSE</anamorphic>
                            <pixelaspectratio>square</pixelaspectratio>
                            <fielddominance>none</fielddominance>
                            <width>1920</width>
                            <height>1080</height>
                          </samplecharacteristics>
                        </video>
                      </media>
                    </file>
                  </clipitem>
                </track>
              </video>
            </media>
          </clip>
          <clip explodedTracks="true" frameBlend="FALSE" id="masterclip-616">
            <uuid>2760256c-dc7a-4f4d-8986-3dff1a75fcab</uuid>
            <masterclipid>masterclip-616</masterclipid>
            <ismasterclip>TRUE</ismasterclip>
            <duration>720</duration>
            <in>0</in>
            <out>720</out>
            <name>Scene - Puppet man_0003.614.png</name>
            <rate>
              <timebase>24</timebase>
              <ntsc>FALSE</ntsc>
            </rate>
            <media>
              <video>
                <track>
                  <clipitem frameBlend="FALSE" id="clipitem-617">
                    <name>Scene - Puppet man_0003.614.png</name>
                    <masterclipid>masterclip-616</masterclipid>
                    <rate>
                      <timebase>24</timebase>
                      <ntsc>FALSE</ntsc>
                    </rate>
                    <alphatype>straight</alphatype>
                    <pixelaspectratio>square</pixelaspectratio>
                    <anamorphic>FALSE</anamorphic>
                    <file id="file-616">
                      <name>Scene - Puppet man_0003.614.png</name>
                      <pathurl>file://localhost/C:/Users/jmrey/OneDrive/Desktop/Programmin Stuff/Projects/conversation-simulator/resources/videos/Scene - Puppet man_0003/Scene - Puppet man_0003.614.png</pathurl>
                      <rate>
                        <timebase>24</timebase>
                        <ntsc>FALSE</ntsc>
                      </rate>
                      <duration>720</duration>
                      <timecode>
                        <rate>
                          <timebase>24</timebase>
                          <ntsc>FALSE</ntsc>
                        </rate>
                      </timecode>
                      <media>
                        <video>
                          <duration>1</duration>
                          <samplecharacteristics>
                            <anamorphic>FALSE</anamorphic>
                            <pixelaspectratio>square</pixelaspectratio>
                            <fielddominance>none</fielddominance>
                            <width>1920</width>
                            <height>1080</height>
                          </samplecharacteristics>
                        </video>
                      </media>
                    </file>
                  </clipitem>
                </track>
              </video>
            </media>
          </clip>
          <clip explodedTracks="true" frameBlend="FALSE" id="masterclip-617">
            <uuid>c3e2658d-3997-4e2a-baca-31f9437af002</uuid>
            <masterclipid>masterclip-617</masterclipid>
            <ismasterclip>TRUE</ismasterclip>
            <duration>720</duration>
            <in>0</in>
            <out>720</out>
            <name>Scene - Puppet man_0003.615.png</name>
            <rate>
              <timebase>24</timebase>
              <ntsc>FALSE</ntsc>
            </rate>
            <media>
              <video>
                <track>
                  <clipitem frameBlend="FALSE" id="clipitem-618">
                    <name>Scene - Puppet man_0003.615.png</name>
                    <masterclipid>masterclip-617</masterclipid>
                    <rate>
                      <timebase>24</timebase>
                      <ntsc>FALSE</ntsc>
                    </rate>
                    <alphatype>straight</alphatype>
                    <pixelaspectratio>square</pixelaspectratio>
                    <anamorphic>FALSE</anamorphic>
                    <file id="file-617">
                      <name>Scene - Puppet man_0003.615.png</name>
                      <pathurl>file://localhost/C:/Users/jmrey/OneDrive/Desktop/Programmin Stuff/Projects/conversation-simulator/resources/videos/Scene - Puppet man_0003/Scene - Puppet man_0003.615.png</pathurl>
                      <rate>
                        <timebase>24</timebase>
                        <ntsc>FALSE</ntsc>
                      </rate>
                      <duration>720</duration>
                      <timecode>
                        <rate>
                          <timebase>24</timebase>
                          <ntsc>FALSE</ntsc>
                        </rate>
                      </timecode>
                      <media>
                        <video>
                          <duration>1</duration>
                          <samplecharacteristics>
                            <anamorphic>FALSE</anamorphic>
                            <pixelaspectratio>square</pixelaspectratio>
                            <fielddominance>none</fielddominance>
                            <width>1920</width>
                            <height>1080</height>
                          </samplecharacteristics>
                        </video>
                      </media>
                    </file>
                  </clipitem>
                </track>
              </video>
            </media>
          </clip>
          <clip explodedTracks="true" frameBlend="FALSE" id="masterclip-618">
            <uuid>0aaed26d-e0da-4101-9263-5fddf3cfc097</uuid>
            <masterclipid>masterclip-618</masterclipid>
            <ismasterclip>TRUE</ismasterclip>
            <duration>720</duration>
            <in>0</in>
            <out>720</out>
            <name>Scene - Puppet man_0003.616.png</name>
            <rate>
              <timebase>24</timebase>
              <ntsc>FALSE</ntsc>
            </rate>
            <media>
              <video>
                <track>
                  <clipitem frameBlend="FALSE" id="clipitem-619">
                    <name>Scene - Puppet man_0003.616.png</name>
                    <masterclipid>masterclip-618</masterclipid>
                    <rate>
                      <timebase>24</timebase>
                      <ntsc>FALSE</ntsc>
                    </rate>
                    <alphatype>straight</alphatype>
                    <pixelaspectratio>square</pixelaspectratio>
                    <anamorphic>FALSE</anamorphic>
                    <file id="file-618">
                      <name>Scene - Puppet man_0003.616.png</name>
                      <pathurl>file://localhost/C:/Users/jmrey/OneDrive/Desktop/Programmin Stuff/Projects/conversation-simulator/resources/videos/Scene - Puppet man_0003/Scene - Puppet man_0003.616.png</pathurl>
                      <rate>
                        <timebase>24</timebase>
                        <ntsc>FALSE</ntsc>
                      </rate>
                      <duration>720</duration>
                      <timecode>
                        <rate>
                          <timebase>24</timebase>
                          <ntsc>FALSE</ntsc>
                        </rate>
                      </timecode>
                      <media>
                        <video>
                          <duration>1</duration>
                          <samplecharacteristics>
                            <anamorphic>FALSE</anamorphic>
                            <pixelaspectratio>square</pixelaspectratio>
                            <fielddominance>none</fielddominance>
                            <width>1920</width>
                            <height>1080</height>
                          </samplecharacteristics>
                        </video>
                      </media>
                    </file>
                  </clipitem>
                </track>
              </video>
            </media>
          </clip>
          <clip explodedTracks="true" frameBlend="FALSE" id="masterclip-619">
            <uuid>cc9631b4-f8b9-4a88-a578-2a25a27e2e5b</uuid>
            <masterclipid>masterclip-619</masterclipid>
            <ismasterclip>TRUE</ismasterclip>
            <duration>720</duration>
            <in>0</in>
            <out>720</out>
            <name>Scene - Puppet man_0003.617.png</name>
            <rate>
              <timebase>24</timebase>
              <ntsc>FALSE</ntsc>
            </rate>
            <media>
              <video>
                <track>
                  <clipitem frameBlend="FALSE" id="clipitem-620">
                    <name>Scene - Puppet man_0003.617.png</name>
                    <masterclipid>masterclip-619</masterclipid>
                    <rate>
                      <timebase>24</timebase>
                      <ntsc>FALSE</ntsc>
                    </rate>
                    <alphatype>straight</alphatype>
                    <pixelaspectratio>square</pixelaspectratio>
                    <anamorphic>FALSE</anamorphic>
                    <file id="file-619">
                      <name>Scene - Puppet man_0003.617.png</name>
                      <pathurl>file://localhost/C:/Users/jmrey/OneDrive/Desktop/Programmin Stuff/Projects/conversation-simulator/resources/videos/Scene - Puppet man_0003/Scene - Puppet man_0003.617.png</pathurl>
                      <rate>
                        <timebase>24</timebase>
                        <ntsc>FALSE</ntsc>
                      </rate>
                      <duration>720</duration>
                      <timecode>
                        <rate>
                          <timebase>24</timebase>
                          <ntsc>FALSE</ntsc>
                        </rate>
                      </timecode>
                      <media>
                        <video>
                          <duration>1</duration>
                          <samplecharacteristics>
                            <anamorphic>FALSE</anamorphic>
                            <pixelaspectratio>square</pixelaspectratio>
                            <fielddominance>none</fielddominance>
                            <width>1920</width>
                            <height>1080</height>
                          </samplecharacteristics>
                        </video>
                      </media>
                    </file>
                  </clipitem>
                </track>
              </video>
            </media>
          </clip>
          <clip explodedTracks="true" frameBlend="FALSE" id="masterclip-620">
            <uuid>88dc78fc-f5de-4060-9d35-011a41a7fa1b</uuid>
            <masterclipid>masterclip-620</masterclipid>
            <ismasterclip>TRUE</ismasterclip>
            <duration>720</duration>
            <in>0</in>
            <out>720</out>
            <name>Scene - Puppet man_0003.618.png</name>
            <rate>
              <timebase>24</timebase>
              <ntsc>FALSE</ntsc>
            </rate>
            <media>
              <video>
                <track>
                  <clipitem frameBlend="FALSE" id="clipitem-621">
                    <name>Scene - Puppet man_0003.618.png</name>
                    <masterclipid>masterclip-620</masterclipid>
                    <rate>
                      <timebase>24</timebase>
                      <ntsc>FALSE</ntsc>
                    </rate>
                    <alphatype>straight</alphatype>
                    <pixelaspectratio>square</pixelaspectratio>
                    <anamorphic>FALSE</anamorphic>
                    <file id="file-620">
                      <name>Scene - Puppet man_0003.618.png</name>
                      <pathurl>file://localhost/C:/Users/jmrey/OneDrive/Desktop/Programmin Stuff/Projects/conversation-simulator/resources/videos/Scene - Puppet man_0003/Scene - Puppet man_0003.618.png</pathurl>
                      <rate>
                        <timebase>24</timebase>
                        <ntsc>FALSE</ntsc>
                      </rate>
                      <duration>720</duration>
                      <timecode>
                        <rate>
                          <timebase>24</timebase>
                          <ntsc>FALSE</ntsc>
                        </rate>
                      </timecode>
                      <media>
                        <video>
                          <duration>1</duration>
                          <samplecharacteristics>
                            <anamorphic>FALSE</anamorphic>
                            <pixelaspectratio>square</pixelaspectratio>
                            <fielddominance>none</fielddominance>
                            <width>1920</width>
                            <height>1080</height>
                          </samplecharacteristics>
                        </video>
                      </media>
                    </file>
                  </clipitem>
                </track>
              </video>
            </media>
          </clip>
          <clip explodedTracks="true" frameBlend="FALSE" id="masterclip-621">
            <uuid>7a2ae282-5108-4790-bff9-a612694c8190</uuid>
            <masterclipid>masterclip-621</masterclipid>
            <ismasterclip>TRUE</ismasterclip>
            <duration>720</duration>
            <in>0</in>
            <out>720</out>
            <name>Scene - Puppet man_0003.619.png</name>
            <rate>
              <timebase>24</timebase>
              <ntsc>FALSE</ntsc>
            </rate>
            <media>
              <video>
                <track>
                  <clipitem frameBlend="FALSE" id="clipitem-622">
                    <name>Scene - Puppet man_0003.619.png</name>
                    <masterclipid>masterclip-621</masterclipid>
                    <rate>
                      <timebase>24</timebase>
                      <ntsc>FALSE</ntsc>
                    </rate>
                    <alphatype>straight</alphatype>
                    <pixelaspectratio>square</pixelaspectratio>
                    <anamorphic>FALSE</anamorphic>
                    <file id="file-621">
                      <name>Scene - Puppet man_0003.619.png</name>
                      <pathurl>file://localhost/C:/Users/jmrey/OneDrive/Desktop/Programmin Stuff/Projects/conversation-simulator/resources/videos/Scene - Puppet man_0003/Scene - Puppet man_0003.619.png</pathurl>
                      <rate>
                        <timebase>24</timebase>
                        <ntsc>FALSE</ntsc>
                      </rate>
                      <duration>720</duration>
                      <timecode>
                        <rate>
                          <timebase>24</timebase>
                          <ntsc>FALSE</ntsc>
                        </rate>
                      </timecode>
                      <media>
                        <video>
                          <duration>1</duration>
                          <samplecharacteristics>
                            <anamorphic>FALSE</anamorphic>
                            <pixelaspectratio>square</pixelaspectratio>
                            <fielddominance>none</fielddominance>
                            <width>1920</width>
                            <height>1080</height>
                          </samplecharacteristics>
                        </video>
                      </media>
                    </file>
                  </clipitem>
                </track>
              </video>
            </media>
          </clip>
          <clip explodedTracks="true" frameBlend="FALSE" id="masterclip-622">
            <uuid>72073311-445c-4012-8956-34f19089dce6</uuid>
            <masterclipid>masterclip-622</masterclipid>
            <ismasterclip>TRUE</ismasterclip>
            <duration>720</duration>
            <in>0</in>
            <out>720</out>
            <name>Scene - Puppet man_0003.620.png</name>
            <rate>
              <timebase>24</timebase>
              <ntsc>FALSE</ntsc>
            </rate>
            <media>
              <video>
                <track>
                  <clipitem frameBlend="FALSE" id="clipitem-623">
                    <name>Scene - Puppet man_0003.620.png</name>
                    <masterclipid>masterclip-622</masterclipid>
                    <rate>
                      <timebase>24</timebase>
                      <ntsc>FALSE</ntsc>
                    </rate>
                    <alphatype>straight</alphatype>
                    <pixelaspectratio>square</pixelaspectratio>
                    <anamorphic>FALSE</anamorphic>
                    <file id="file-622">
                      <name>Scene - Puppet man_0003.620.png</name>
                      <pathurl>file://localhost/C:/Users/jmrey/OneDrive/Desktop/Programmin Stuff/Projects/conversation-simulator/resources/videos/Scene - Puppet man_0003/Scene - Puppet man_0003.620.png</pathurl>
                      <rate>
                        <timebase>24</timebase>
                        <ntsc>FALSE</ntsc>
                      </rate>
                      <duration>720</duration>
                      <timecode>
                        <rate>
                          <timebase>24</timebase>
                          <ntsc>FALSE</ntsc>
                        </rate>
                      </timecode>
                      <media>
                        <video>
                          <duration>1</duration>
                          <samplecharacteristics>
                            <anamorphic>FALSE</anamorphic>
                            <pixelaspectratio>square</pixelaspectratio>
                            <fielddominance>none</fielddominance>
                            <width>1920</width>
                            <height>1080</height>
                          </samplecharacteristics>
                        </video>
                      </media>
                    </file>
                  </clipitem>
                </track>
              </video>
            </media>
          </clip>
          <clip explodedTracks="true" frameBlend="FALSE" id="masterclip-623">
            <uuid>fac864d7-a69e-4bb6-9470-bf030616df4b</uuid>
            <masterclipid>masterclip-623</masterclipid>
            <ismasterclip>TRUE</ismasterclip>
            <duration>720</duration>
            <in>0</in>
            <out>720</out>
            <name>Scene - Puppet man_0003.621.png</name>
            <rate>
              <timebase>24</timebase>
              <ntsc>FALSE</ntsc>
            </rate>
            <media>
              <video>
                <track>
                  <clipitem frameBlend="FALSE" id="clipitem-624">
                    <name>Scene - Puppet man_0003.621.png</name>
                    <masterclipid>masterclip-623</masterclipid>
                    <rate>
                      <timebase>24</timebase>
                      <ntsc>FALSE</ntsc>
                    </rate>
                    <alphatype>straight</alphatype>
                    <pixelaspectratio>square</pixelaspectratio>
                    <anamorphic>FALSE</anamorphic>
                    <file id="file-623">
                      <name>Scene - Puppet man_0003.621.png</name>
                      <pathurl>file://localhost/C:/Users/jmrey/OneDrive/Desktop/Programmin Stuff/Projects/conversation-simulator/resources/videos/Scene - Puppet man_0003/Scene - Puppet man_0003.621.png</pathurl>
                      <rate>
                        <timebase>24</timebase>
                        <ntsc>FALSE</ntsc>
                      </rate>
                      <duration>720</duration>
                      <timecode>
                        <rate>
                          <timebase>24</timebase>
                          <ntsc>FALSE</ntsc>
                        </rate>
                      </timecode>
                      <media>
                        <video>
                          <duration>1</duration>
                          <samplecharacteristics>
                            <anamorphic>FALSE</anamorphic>
                            <pixelaspectratio>square</pixelaspectratio>
                            <fielddominance>none</fielddominance>
                            <width>1920</width>
                            <height>1080</height>
                          </samplecharacteristics>
                        </video>
                      </media>
                    </file>
                  </clipitem>
                </track>
              </video>
            </media>
          </clip>
          <clip explodedTracks="true" frameBlend="FALSE" id="masterclip-624">
            <uuid>212ffc83-7f93-495c-8764-89c60da6b5fa</uuid>
            <masterclipid>masterclip-624</masterclipid>
            <ismasterclip>TRUE</ismasterclip>
            <duration>720</duration>
            <in>0</in>
            <out>720</out>
            <name>Scene - Puppet man_0003.622.png</name>
            <rate>
              <timebase>24</timebase>
              <ntsc>FALSE</ntsc>
            </rate>
            <media>
              <video>
                <track>
                  <clipitem frameBlend="FALSE" id="clipitem-625">
                    <name>Scene - Puppet man_0003.622.png</name>
                    <masterclipid>masterclip-624</masterclipid>
                    <rate>
                      <timebase>24</timebase>
                      <ntsc>FALSE</ntsc>
                    </rate>
                    <alphatype>straight</alphatype>
                    <pixelaspectratio>square</pixelaspectratio>
                    <anamorphic>FALSE</anamorphic>
                    <file id="file-624">
                      <name>Scene - Puppet man_0003.622.png</name>
                      <pathurl>file://localhost/C:/Users/jmrey/OneDrive/Desktop/Programmin Stuff/Projects/conversation-simulator/resources/videos/Scene - Puppet man_0003/Scene - Puppet man_0003.622.png</pathurl>
                      <rate>
                        <timebase>24</timebase>
                        <ntsc>FALSE</ntsc>
                      </rate>
                      <duration>720</duration>
                      <timecode>
                        <rate>
                          <timebase>24</timebase>
                          <ntsc>FALSE</ntsc>
                        </rate>
                      </timecode>
                      <media>
                        <video>
                          <duration>1</duration>
                          <samplecharacteristics>
                            <anamorphic>FALSE</anamorphic>
                            <pixelaspectratio>square</pixelaspectratio>
                            <fielddominance>none</fielddominance>
                            <width>1920</width>
                            <height>1080</height>
                          </samplecharacteristics>
                        </video>
                      </media>
                    </file>
                  </clipitem>
                </track>
              </video>
            </media>
          </clip>
          <clip explodedTracks="true" frameBlend="FALSE" id="masterclip-625">
            <uuid>afce1646-b249-4e1c-8139-8f9d0220a8cb</uuid>
            <masterclipid>masterclip-625</masterclipid>
            <ismasterclip>TRUE</ismasterclip>
            <duration>720</duration>
            <in>0</in>
            <out>720</out>
            <name>Scene - Puppet man_0003.623.png</name>
            <rate>
              <timebase>24</timebase>
              <ntsc>FALSE</ntsc>
            </rate>
            <media>
              <video>
                <track>
                  <clipitem frameBlend="FALSE" id="clipitem-626">
                    <name>Scene - Puppet man_0003.623.png</name>
                    <masterclipid>masterclip-625</masterclipid>
                    <rate>
                      <timebase>24</timebase>
                      <ntsc>FALSE</ntsc>
                    </rate>
                    <alphatype>straight</alphatype>
                    <pixelaspectratio>square</pixelaspectratio>
                    <anamorphic>FALSE</anamorphic>
                    <file id="file-625">
                      <name>Scene - Puppet man_0003.623.png</name>
                      <pathurl>file://localhost/C:/Users/jmrey/OneDrive/Desktop/Programmin Stuff/Projects/conversation-simulator/resources/videos/Scene - Puppet man_0003/Scene - Puppet man_0003.623.png</pathurl>
                      <rate>
                        <timebase>24</timebase>
                        <ntsc>FALSE</ntsc>
                      </rate>
                      <duration>720</duration>
                      <timecode>
                        <rate>
                          <timebase>24</timebase>
                          <ntsc>FALSE</ntsc>
                        </rate>
                      </timecode>
                      <media>
                        <video>
                          <duration>1</duration>
                          <samplecharacteristics>
                            <anamorphic>FALSE</anamorphic>
                            <pixelaspectratio>square</pixelaspectratio>
                            <fielddominance>none</fielddominance>
                            <width>1920</width>
                            <height>1080</height>
                          </samplecharacteristics>
                        </video>
                      </media>
                    </file>
                  </clipitem>
                </track>
              </video>
            </media>
          </clip>
          <clip explodedTracks="true" frameBlend="FALSE" id="masterclip-626">
            <uuid>fc6f0376-fcc6-4b6c-a130-c7f6de3979f0</uuid>
            <masterclipid>masterclip-626</masterclipid>
            <ismasterclip>TRUE</ismasterclip>
            <duration>720</duration>
            <in>0</in>
            <out>720</out>
            <name>Scene - Puppet man_0003.624.png</name>
            <rate>
              <timebase>24</timebase>
              <ntsc>FALSE</ntsc>
            </rate>
            <media>
              <video>
                <track>
                  <clipitem frameBlend="FALSE" id="clipitem-627">
                    <name>Scene - Puppet man_0003.624.png</name>
                    <masterclipid>masterclip-626</masterclipid>
                    <rate>
                      <timebase>24</timebase>
                      <ntsc>FALSE</ntsc>
                    </rate>
                    <alphatype>straight</alphatype>
                    <pixelaspectratio>square</pixelaspectratio>
                    <anamorphic>FALSE</anamorphic>
                    <file id="file-626">
                      <name>Scene - Puppet man_0003.624.png</name>
                      <pathurl>file://localhost/C:/Users/jmrey/OneDrive/Desktop/Programmin Stuff/Projects/conversation-simulator/resources/videos/Scene - Puppet man_0003/Scene - Puppet man_0003.624.png</pathurl>
                      <rate>
                        <timebase>24</timebase>
                        <ntsc>FALSE</ntsc>
                      </rate>
                      <duration>720</duration>
                      <timecode>
                        <rate>
                          <timebase>24</timebase>
                          <ntsc>FALSE</ntsc>
                        </rate>
                      </timecode>
                      <media>
                        <video>
                          <duration>1</duration>
                          <samplecharacteristics>
                            <anamorphic>FALSE</anamorphic>
                            <pixelaspectratio>square</pixelaspectratio>
                            <fielddominance>none</fielddominance>
                            <width>1920</width>
                            <height>1080</height>
                          </samplecharacteristics>
                        </video>
                      </media>
                    </file>
                  </clipitem>
                </track>
              </video>
            </media>
          </clip>
          <clip explodedTracks="true" frameBlend="FALSE" id="masterclip-627">
            <uuid>47b2d436-68cf-48b0-844a-6859dce79e7a</uuid>
            <masterclipid>masterclip-627</masterclipid>
            <ismasterclip>TRUE</ismasterclip>
            <duration>720</duration>
            <in>0</in>
            <out>720</out>
            <name>Scene - Puppet man_0003.625.png</name>
            <rate>
              <timebase>24</timebase>
              <ntsc>FALSE</ntsc>
            </rate>
            <media>
              <video>
                <track>
                  <clipitem frameBlend="FALSE" id="clipitem-628">
                    <name>Scene - Puppet man_0003.625.png</name>
                    <masterclipid>masterclip-627</masterclipid>
                    <rate>
                      <timebase>24</timebase>
                      <ntsc>FALSE</ntsc>
                    </rate>
                    <alphatype>straight</alphatype>
                    <pixelaspectratio>square</pixelaspectratio>
                    <anamorphic>FALSE</anamorphic>
                    <file id="file-627">
                      <name>Scene - Puppet man_0003.625.png</name>
                      <pathurl>file://localhost/C:/Users/jmrey/OneDrive/Desktop/Programmin Stuff/Projects/conversation-simulator/resources/videos/Scene - Puppet man_0003/Scene - Puppet man_0003.625.png</pathurl>
                      <rate>
                        <timebase>24</timebase>
                        <ntsc>FALSE</ntsc>
                      </rate>
                      <duration>720</duration>
                      <timecode>
                        <rate>
                          <timebase>24</timebase>
                          <ntsc>FALSE</ntsc>
                        </rate>
                      </timecode>
                      <media>
                        <video>
                          <duration>1</duration>
                          <samplecharacteristics>
                            <anamorphic>FALSE</anamorphic>
                            <pixelaspectratio>square</pixelaspectratio>
                            <fielddominance>none</fielddominance>
                            <width>1920</width>
                            <height>1080</height>
                          </samplecharacteristics>
                        </video>
                      </media>
                    </file>
                  </clipitem>
                </track>
              </video>
            </media>
          </clip>
          <clip explodedTracks="true" frameBlend="FALSE" id="masterclip-628">
            <uuid>f997a3bb-8401-4048-8180-90a5375b2f89</uuid>
            <masterclipid>masterclip-628</masterclipid>
            <ismasterclip>TRUE</ismasterclip>
            <duration>720</duration>
            <in>0</in>
            <out>720</out>
            <name>Scene - Puppet man_0003.626.png</name>
            <rate>
              <timebase>24</timebase>
              <ntsc>FALSE</ntsc>
            </rate>
            <media>
              <video>
                <track>
                  <clipitem frameBlend="FALSE" id="clipitem-629">
                    <name>Scene - Puppet man_0003.626.png</name>
                    <masterclipid>masterclip-628</masterclipid>
                    <rate>
                      <timebase>24</timebase>
                      <ntsc>FALSE</ntsc>
                    </rate>
                    <alphatype>straight</alphatype>
                    <pixelaspectratio>square</pixelaspectratio>
                    <anamorphic>FALSE</anamorphic>
                    <file id="file-628">
                      <name>Scene - Puppet man_0003.626.png</name>
                      <pathurl>file://localhost/C:/Users/jmrey/OneDrive/Desktop/Programmin Stuff/Projects/conversation-simulator/resources/videos/Scene - Puppet man_0003/Scene - Puppet man_0003.626.png</pathurl>
                      <rate>
                        <timebase>24</timebase>
                        <ntsc>FALSE</ntsc>
                      </rate>
                      <duration>720</duration>
                      <timecode>
                        <rate>
                          <timebase>24</timebase>
                          <ntsc>FALSE</ntsc>
                        </rate>
                      </timecode>
                      <media>
                        <video>
                          <duration>1</duration>
                          <samplecharacteristics>
                            <anamorphic>FALSE</anamorphic>
                            <pixelaspectratio>square</pixelaspectratio>
                            <fielddominance>none</fielddominance>
                            <width>1920</width>
                            <height>1080</height>
                          </samplecharacteristics>
                        </video>
                      </media>
                    </file>
                  </clipitem>
                </track>
              </video>
            </media>
          </clip>
          <clip explodedTracks="true" frameBlend="FALSE" id="masterclip-629">
            <uuid>73c54efa-5a38-4561-b3b3-c5eb6a843f29</uuid>
            <masterclipid>masterclip-629</masterclipid>
            <ismasterclip>TRUE</ismasterclip>
            <duration>720</duration>
            <in>0</in>
            <out>720</out>
            <name>Scene - Puppet man_0003.627.png</name>
            <rate>
              <timebase>24</timebase>
              <ntsc>FALSE</ntsc>
            </rate>
            <media>
              <video>
                <track>
                  <clipitem frameBlend="FALSE" id="clipitem-630">
                    <name>Scene - Puppet man_0003.627.png</name>
                    <masterclipid>masterclip-629</masterclipid>
                    <rate>
                      <timebase>24</timebase>
                      <ntsc>FALSE</ntsc>
                    </rate>
                    <alphatype>straight</alphatype>
                    <pixelaspectratio>square</pixelaspectratio>
                    <anamorphic>FALSE</anamorphic>
                    <file id="file-629">
                      <name>Scene - Puppet man_0003.627.png</name>
                      <pathurl>file://localhost/C:/Users/jmrey/OneDrive/Desktop/Programmin Stuff/Projects/conversation-simulator/resources/videos/Scene - Puppet man_0003/Scene - Puppet man_0003.627.png</pathurl>
                      <rate>
                        <timebase>24</timebase>
                        <ntsc>FALSE</ntsc>
                      </rate>
                      <duration>720</duration>
                      <timecode>
                        <rate>
                          <timebase>24</timebase>
                          <ntsc>FALSE</ntsc>
                        </rate>
                      </timecode>
                      <media>
                        <video>
                          <duration>1</duration>
                          <samplecharacteristics>
                            <anamorphic>FALSE</anamorphic>
                            <pixelaspectratio>square</pixelaspectratio>
                            <fielddominance>none</fielddominance>
                            <width>1920</width>
                            <height>1080</height>
                          </samplecharacteristics>
                        </video>
                      </media>
                    </file>
                  </clipitem>
                </track>
              </video>
            </media>
          </clip>
          <clip explodedTracks="true" frameBlend="FALSE" id="masterclip-630">
            <uuid>a6982cc5-b104-4901-a6e2-b13e8642600a</uuid>
            <masterclipid>masterclip-630</masterclipid>
            <ismasterclip>TRUE</ismasterclip>
            <duration>720</duration>
            <in>0</in>
            <out>720</out>
            <name>Scene - Puppet man_0003.628.png</name>
            <rate>
              <timebase>24</timebase>
              <ntsc>FALSE</ntsc>
            </rate>
            <media>
              <video>
                <track>
                  <clipitem frameBlend="FALSE" id="clipitem-631">
                    <name>Scene - Puppet man_0003.628.png</name>
                    <masterclipid>masterclip-630</masterclipid>
                    <rate>
                      <timebase>24</timebase>
                      <ntsc>FALSE</ntsc>
                    </rate>
                    <alphatype>straight</alphatype>
                    <pixelaspectratio>square</pixelaspectratio>
                    <anamorphic>FALSE</anamorphic>
                    <file id="file-630">
                      <name>Scene - Puppet man_0003.628.png</name>
                      <pathurl>file://localhost/C:/Users/jmrey/OneDrive/Desktop/Programmin Stuff/Projects/conversation-simulator/resources/videos/Scene - Puppet man_0003/Scene - Puppet man_0003.628.png</pathurl>
                      <rate>
                        <timebase>24</timebase>
                        <ntsc>FALSE</ntsc>
                      </rate>
                      <duration>720</duration>
                      <timecode>
                        <rate>
                          <timebase>24</timebase>
                          <ntsc>FALSE</ntsc>
                        </rate>
                      </timecode>
                      <media>
                        <video>
                          <duration>1</duration>
                          <samplecharacteristics>
                            <anamorphic>FALSE</anamorphic>
                            <pixelaspectratio>square</pixelaspectratio>
                            <fielddominance>none</fielddominance>
                            <width>1920</width>
                            <height>1080</height>
                          </samplecharacteristics>
                        </video>
                      </media>
                    </file>
                  </clipitem>
                </track>
              </video>
            </media>
          </clip>
          <clip explodedTracks="true" frameBlend="FALSE" id="masterclip-631">
            <uuid>1e88ad5d-6d49-4759-be9c-8e8d1828ae23</uuid>
            <masterclipid>masterclip-631</masterclipid>
            <ismasterclip>TRUE</ismasterclip>
            <duration>720</duration>
            <in>0</in>
            <out>720</out>
            <name>Scene - Puppet man_0003.629.png</name>
            <rate>
              <timebase>24</timebase>
              <ntsc>FALSE</ntsc>
            </rate>
            <media>
              <video>
                <track>
                  <clipitem frameBlend="FALSE" id="clipitem-632">
                    <name>Scene - Puppet man_0003.629.png</name>
                    <masterclipid>masterclip-631</masterclipid>
                    <rate>
                      <timebase>24</timebase>
                      <ntsc>FALSE</ntsc>
                    </rate>
                    <alphatype>straight</alphatype>
                    <pixelaspectratio>square</pixelaspectratio>
                    <anamorphic>FALSE</anamorphic>
                    <file id="file-631">
                      <name>Scene - Puppet man_0003.629.png</name>
                      <pathurl>file://localhost/C:/Users/jmrey/OneDrive/Desktop/Programmin Stuff/Projects/conversation-simulator/resources/videos/Scene - Puppet man_0003/Scene - Puppet man_0003.629.png</pathurl>
                      <rate>
                        <timebase>24</timebase>
                        <ntsc>FALSE</ntsc>
                      </rate>
                      <duration>720</duration>
                      <timecode>
                        <rate>
                          <timebase>24</timebase>
                          <ntsc>FALSE</ntsc>
                        </rate>
                      </timecode>
                      <media>
                        <video>
                          <duration>1</duration>
                          <samplecharacteristics>
                            <anamorphic>FALSE</anamorphic>
                            <pixelaspectratio>square</pixelaspectratio>
                            <fielddominance>none</fielddominance>
                            <width>1920</width>
                            <height>1080</height>
                          </samplecharacteristics>
                        </video>
                      </media>
                    </file>
                  </clipitem>
                </track>
              </video>
            </media>
          </clip>
          <clip explodedTracks="true" frameBlend="FALSE" id="masterclip-632">
            <uuid>f1bf9ac0-1c32-4561-85e9-b98e0f51b9db</uuid>
            <masterclipid>masterclip-632</masterclipid>
            <ismasterclip>TRUE</ismasterclip>
            <duration>720</duration>
            <in>0</in>
            <out>720</out>
            <name>Scene - Puppet man_0003.630.png</name>
            <rate>
              <timebase>24</timebase>
              <ntsc>FALSE</ntsc>
            </rate>
            <media>
              <video>
                <track>
                  <clipitem frameBlend="FALSE" id="clipitem-633">
                    <name>Scene - Puppet man_0003.630.png</name>
                    <masterclipid>masterclip-632</masterclipid>
                    <rate>
                      <timebase>24</timebase>
                      <ntsc>FALSE</ntsc>
                    </rate>
                    <alphatype>straight</alphatype>
                    <pixelaspectratio>square</pixelaspectratio>
                    <anamorphic>FALSE</anamorphic>
                    <file id="file-632">
                      <name>Scene - Puppet man_0003.630.png</name>
                      <pathurl>file://localhost/C:/Users/jmrey/OneDrive/Desktop/Programmin Stuff/Projects/conversation-simulator/resources/videos/Scene - Puppet man_0003/Scene - Puppet man_0003.630.png</pathurl>
                      <rate>
                        <timebase>24</timebase>
                        <ntsc>FALSE</ntsc>
                      </rate>
                      <duration>720</duration>
                      <timecode>
                        <rate>
                          <timebase>24</timebase>
                          <ntsc>FALSE</ntsc>
                        </rate>
                      </timecode>
                      <media>
                        <video>
                          <duration>1</duration>
                          <samplecharacteristics>
                            <anamorphic>FALSE</anamorphic>
                            <pixelaspectratio>square</pixelaspectratio>
                            <fielddominance>none</fielddominance>
                            <width>1920</width>
                            <height>1080</height>
                          </samplecharacteristics>
                        </video>
                      </media>
                    </file>
                  </clipitem>
                </track>
              </video>
            </media>
          </clip>
          <clip explodedTracks="true" frameBlend="FALSE" id="masterclip-633">
            <uuid>94d6555e-1c5c-4e81-82af-c5843588e292</uuid>
            <masterclipid>masterclip-633</masterclipid>
            <ismasterclip>TRUE</ismasterclip>
            <duration>720</duration>
            <in>0</in>
            <out>720</out>
            <name>Scene - Puppet man_0003.631.png</name>
            <rate>
              <timebase>24</timebase>
              <ntsc>FALSE</ntsc>
            </rate>
            <media>
              <video>
                <track>
                  <clipitem frameBlend="FALSE" id="clipitem-634">
                    <name>Scene - Puppet man_0003.631.png</name>
                    <masterclipid>masterclip-633</masterclipid>
                    <rate>
                      <timebase>24</timebase>
                      <ntsc>FALSE</ntsc>
                    </rate>
                    <alphatype>straight</alphatype>
                    <pixelaspectratio>square</pixelaspectratio>
                    <anamorphic>FALSE</anamorphic>
                    <file id="file-633">
                      <name>Scene - Puppet man_0003.631.png</name>
                      <pathurl>file://localhost/C:/Users/jmrey/OneDrive/Desktop/Programmin Stuff/Projects/conversation-simulator/resources/videos/Scene - Puppet man_0003/Scene - Puppet man_0003.631.png</pathurl>
                      <rate>
                        <timebase>24</timebase>
                        <ntsc>FALSE</ntsc>
                      </rate>
                      <duration>720</duration>
                      <timecode>
                        <rate>
                          <timebase>24</timebase>
                          <ntsc>FALSE</ntsc>
                        </rate>
                      </timecode>
                      <media>
                        <video>
                          <duration>1</duration>
                          <samplecharacteristics>
                            <anamorphic>FALSE</anamorphic>
                            <pixelaspectratio>square</pixelaspectratio>
                            <fielddominance>none</fielddominance>
                            <width>1920</width>
                            <height>1080</height>
                          </samplecharacteristics>
                        </video>
                      </media>
                    </file>
                  </clipitem>
                </track>
              </video>
            </media>
          </clip>
          <clip explodedTracks="true" frameBlend="FALSE" id="masterclip-634">
            <uuid>b84b5a11-fa7a-4ea5-9a15-0ac74565a7da</uuid>
            <masterclipid>masterclip-634</masterclipid>
            <ismasterclip>TRUE</ismasterclip>
            <duration>720</duration>
            <in>0</in>
            <out>720</out>
            <name>Scene - Puppet man_0003.632.png</name>
            <rate>
              <timebase>24</timebase>
              <ntsc>FALSE</ntsc>
            </rate>
            <media>
              <video>
                <track>
                  <clipitem frameBlend="FALSE" id="clipitem-635">
                    <name>Scene - Puppet man_0003.632.png</name>
                    <masterclipid>masterclip-634</masterclipid>
                    <rate>
                      <timebase>24</timebase>
                      <ntsc>FALSE</ntsc>
                    </rate>
                    <alphatype>straight</alphatype>
                    <pixelaspectratio>square</pixelaspectratio>
                    <anamorphic>FALSE</anamorphic>
                    <file id="file-634">
                      <name>Scene - Puppet man_0003.632.png</name>
                      <pathurl>file://localhost/C:/Users/jmrey/OneDrive/Desktop/Programmin Stuff/Projects/conversation-simulator/resources/videos/Scene - Puppet man_0003/Scene - Puppet man_0003.632.png</pathurl>
                      <rate>
                        <timebase>24</timebase>
                        <ntsc>FALSE</ntsc>
                      </rate>
                      <duration>720</duration>
                      <timecode>
                        <rate>
                          <timebase>24</timebase>
                          <ntsc>FALSE</ntsc>
                        </rate>
                      </timecode>
                      <media>
                        <video>
                          <duration>1</duration>
                          <samplecharacteristics>
                            <anamorphic>FALSE</anamorphic>
                            <pixelaspectratio>square</pixelaspectratio>
                            <fielddominance>none</fielddominance>
                            <width>1920</width>
                            <height>1080</height>
                          </samplecharacteristics>
                        </video>
                      </media>
                    </file>
                  </clipitem>
                </track>
              </video>
            </media>
          </clip>
          <clip explodedTracks="true" frameBlend="FALSE" id="masterclip-635">
            <uuid>5114ff95-fed2-4e3a-a0e9-5cf698dba9f4</uuid>
            <masterclipid>masterclip-635</masterclipid>
            <ismasterclip>TRUE</ismasterclip>
            <duration>720</duration>
            <in>0</in>
            <out>720</out>
            <name>Scene - Puppet man_0003.633.png</name>
            <rate>
              <timebase>24</timebase>
              <ntsc>FALSE</ntsc>
            </rate>
            <media>
              <video>
                <track>
                  <clipitem frameBlend="FALSE" id="clipitem-636">
                    <name>Scene - Puppet man_0003.633.png</name>
                    <masterclipid>masterclip-635</masterclipid>
                    <rate>
                      <timebase>24</timebase>
                      <ntsc>FALSE</ntsc>
                    </rate>
                    <alphatype>straight</alphatype>
                    <pixelaspectratio>square</pixelaspectratio>
                    <anamorphic>FALSE</anamorphic>
                    <file id="file-635">
                      <name>Scene - Puppet man_0003.633.png</name>
                      <pathurl>file://localhost/C:/Users/jmrey/OneDrive/Desktop/Programmin Stuff/Projects/conversation-simulator/resources/videos/Scene - Puppet man_0003/Scene - Puppet man_0003.633.png</pathurl>
                      <rate>
                        <timebase>24</timebase>
                        <ntsc>FALSE</ntsc>
                      </rate>
                      <duration>720</duration>
                      <timecode>
                        <rate>
                          <timebase>24</timebase>
                          <ntsc>FALSE</ntsc>
                        </rate>
                      </timecode>
                      <media>
                        <video>
                          <duration>1</duration>
                          <samplecharacteristics>
                            <anamorphic>FALSE</anamorphic>
                            <pixelaspectratio>square</pixelaspectratio>
                            <fielddominance>none</fielddominance>
                            <width>1920</width>
                            <height>1080</height>
                          </samplecharacteristics>
                        </video>
                      </media>
                    </file>
                  </clipitem>
                </track>
              </video>
            </media>
          </clip>
          <clip explodedTracks="true" frameBlend="FALSE" id="masterclip-636">
            <uuid>6e66972d-50c9-45c0-a325-4cfe6cdc40a1</uuid>
            <masterclipid>masterclip-636</masterclipid>
            <ismasterclip>TRUE</ismasterclip>
            <duration>720</duration>
            <in>0</in>
            <out>720</out>
            <name>Scene - Puppet man_0003.634.png</name>
            <rate>
              <timebase>24</timebase>
              <ntsc>FALSE</ntsc>
            </rate>
            <media>
              <video>
                <track>
                  <clipitem frameBlend="FALSE" id="clipitem-637">
                    <name>Scene - Puppet man_0003.634.png</name>
                    <masterclipid>masterclip-636</masterclipid>
                    <rate>
                      <timebase>24</timebase>
                      <ntsc>FALSE</ntsc>
                    </rate>
                    <alphatype>straight</alphatype>
                    <pixelaspectratio>square</pixelaspectratio>
                    <anamorphic>FALSE</anamorphic>
                    <file id="file-636">
                      <name>Scene - Puppet man_0003.634.png</name>
                      <pathurl>file://localhost/C:/Users/jmrey/OneDrive/Desktop/Programmin Stuff/Projects/conversation-simulator/resources/videos/Scene - Puppet man_0003/Scene - Puppet man_0003.634.png</pathurl>
                      <rate>
                        <timebase>24</timebase>
                        <ntsc>FALSE</ntsc>
                      </rate>
                      <duration>720</duration>
                      <timecode>
                        <rate>
                          <timebase>24</timebase>
                          <ntsc>FALSE</ntsc>
                        </rate>
                      </timecode>
                      <media>
                        <video>
                          <duration>1</duration>
                          <samplecharacteristics>
                            <anamorphic>FALSE</anamorphic>
                            <pixelaspectratio>square</pixelaspectratio>
                            <fielddominance>none</fielddominance>
                            <width>1920</width>
                            <height>1080</height>
                          </samplecharacteristics>
                        </video>
                      </media>
                    </file>
                  </clipitem>
                </track>
              </video>
            </media>
          </clip>
          <clip explodedTracks="true" frameBlend="FALSE" id="masterclip-637">
            <uuid>61e10b0c-8c26-4c90-ad44-1436b7982f40</uuid>
            <masterclipid>masterclip-637</masterclipid>
            <ismasterclip>TRUE</ismasterclip>
            <duration>720</duration>
            <in>0</in>
            <out>720</out>
            <name>Scene - Puppet man_0003.635.png</name>
            <rate>
              <timebase>24</timebase>
              <ntsc>FALSE</ntsc>
            </rate>
            <media>
              <video>
                <track>
                  <clipitem frameBlend="FALSE" id="clipitem-638">
                    <name>Scene - Puppet man_0003.635.png</name>
                    <masterclipid>masterclip-637</masterclipid>
                    <rate>
                      <timebase>24</timebase>
                      <ntsc>FALSE</ntsc>
                    </rate>
                    <alphatype>straight</alphatype>
                    <pixelaspectratio>square</pixelaspectratio>
                    <anamorphic>FALSE</anamorphic>
                    <file id="file-637">
                      <name>Scene - Puppet man_0003.635.png</name>
                      <pathurl>file://localhost/C:/Users/jmrey/OneDrive/Desktop/Programmin Stuff/Projects/conversation-simulator/resources/videos/Scene - Puppet man_0003/Scene - Puppet man_0003.635.png</pathurl>
                      <rate>
                        <timebase>24</timebase>
                        <ntsc>FALSE</ntsc>
                      </rate>
                      <duration>720</duration>
                      <timecode>
                        <rate>
                          <timebase>24</timebase>
                          <ntsc>FALSE</ntsc>
                        </rate>
                      </timecode>
                      <media>
                        <video>
                          <duration>1</duration>
                          <samplecharacteristics>
                            <anamorphic>FALSE</anamorphic>
                            <pixelaspectratio>square</pixelaspectratio>
                            <fielddominance>none</fielddominance>
                            <width>1920</width>
                            <height>1080</height>
                          </samplecharacteristics>
                        </video>
                      </media>
                    </file>
                  </clipitem>
                </track>
              </video>
            </media>
          </clip>
          <clip explodedTracks="true" frameBlend="FALSE" id="masterclip-638">
            <uuid>b7a7f8d3-e12c-45dc-bff5-d5647d2bd15f</uuid>
            <masterclipid>masterclip-638</masterclipid>
            <ismasterclip>TRUE</ismasterclip>
            <duration>720</duration>
            <in>0</in>
            <out>720</out>
            <name>Scene - Puppet man_0003.636.png</name>
            <rate>
              <timebase>24</timebase>
              <ntsc>FALSE</ntsc>
            </rate>
            <media>
              <video>
                <track>
                  <clipitem frameBlend="FALSE" id="clipitem-639">
                    <name>Scene - Puppet man_0003.636.png</name>
                    <masterclipid>masterclip-638</masterclipid>
                    <rate>
                      <timebase>24</timebase>
                      <ntsc>FALSE</ntsc>
                    </rate>
                    <alphatype>straight</alphatype>
                    <pixelaspectratio>square</pixelaspectratio>
                    <anamorphic>FALSE</anamorphic>
                    <file id="file-638">
                      <name>Scene - Puppet man_0003.636.png</name>
                      <pathurl>file://localhost/C:/Users/jmrey/OneDrive/Desktop/Programmin Stuff/Projects/conversation-simulator/resources/videos/Scene - Puppet man_0003/Scene - Puppet man_0003.636.png</pathurl>
                      <rate>
                        <timebase>24</timebase>
                        <ntsc>FALSE</ntsc>
                      </rate>
                      <duration>720</duration>
                      <timecode>
                        <rate>
                          <timebase>24</timebase>
                          <ntsc>FALSE</ntsc>
                        </rate>
                      </timecode>
                      <media>
                        <video>
                          <duration>1</duration>
                          <samplecharacteristics>
                            <anamorphic>FALSE</anamorphic>
                            <pixelaspectratio>square</pixelaspectratio>
                            <fielddominance>none</fielddominance>
                            <width>1920</width>
                            <height>1080</height>
                          </samplecharacteristics>
                        </video>
                      </media>
                    </file>
                  </clipitem>
                </track>
              </video>
            </media>
          </clip>
          <clip explodedTracks="true" frameBlend="FALSE" id="masterclip-639">
            <uuid>114ae0bd-02f4-4e2b-abcb-9c5e795d80b6</uuid>
            <masterclipid>masterclip-639</masterclipid>
            <ismasterclip>TRUE</ismasterclip>
            <duration>720</duration>
            <in>0</in>
            <out>720</out>
            <name>Scene - Puppet man_0003.637.png</name>
            <rate>
              <timebase>24</timebase>
              <ntsc>FALSE</ntsc>
            </rate>
            <media>
              <video>
                <track>
                  <clipitem frameBlend="FALSE" id="clipitem-640">
                    <name>Scene - Puppet man_0003.637.png</name>
                    <masterclipid>masterclip-639</masterclipid>
                    <rate>
                      <timebase>24</timebase>
                      <ntsc>FALSE</ntsc>
                    </rate>
                    <alphatype>straight</alphatype>
                    <pixelaspectratio>square</pixelaspectratio>
                    <anamorphic>FALSE</anamorphic>
                    <file id="file-639">
                      <name>Scene - Puppet man_0003.637.png</name>
                      <pathurl>file://localhost/C:/Users/jmrey/OneDrive/Desktop/Programmin Stuff/Projects/conversation-simulator/resources/videos/Scene - Puppet man_0003/Scene - Puppet man_0003.637.png</pathurl>
                      <rate>
                        <timebase>24</timebase>
                        <ntsc>FALSE</ntsc>
                      </rate>
                      <duration>720</duration>
                      <timecode>
                        <rate>
                          <timebase>24</timebase>
                          <ntsc>FALSE</ntsc>
                        </rate>
                      </timecode>
                      <media>
                        <video>
                          <duration>1</duration>
                          <samplecharacteristics>
                            <anamorphic>FALSE</anamorphic>
                            <pixelaspectratio>square</pixelaspectratio>
                            <fielddominance>none</fielddominance>
                            <width>1920</width>
                            <height>1080</height>
                          </samplecharacteristics>
                        </video>
                      </media>
                    </file>
                  </clipitem>
                </track>
              </video>
            </media>
          </clip>
          <clip explodedTracks="true" frameBlend="FALSE" id="masterclip-640">
            <uuid>34e00248-7d55-4b9a-b1e0-fb545ffc74e0</uuid>
            <masterclipid>masterclip-640</masterclipid>
            <ismasterclip>TRUE</ismasterclip>
            <duration>720</duration>
            <in>0</in>
            <out>720</out>
            <name>Scene - Puppet man_0003.638.png</name>
            <rate>
              <timebase>24</timebase>
              <ntsc>FALSE</ntsc>
            </rate>
            <media>
              <video>
                <track>
                  <clipitem frameBlend="FALSE" id="clipitem-641">
                    <name>Scene - Puppet man_0003.638.png</name>
                    <masterclipid>masterclip-640</masterclipid>
                    <rate>
                      <timebase>24</timebase>
                      <ntsc>FALSE</ntsc>
                    </rate>
                    <alphatype>straight</alphatype>
                    <pixelaspectratio>square</pixelaspectratio>
                    <anamorphic>FALSE</anamorphic>
                    <file id="file-640">
                      <name>Scene - Puppet man_0003.638.png</name>
                      <pathurl>file://localhost/C:/Users/jmrey/OneDrive/Desktop/Programmin Stuff/Projects/conversation-simulator/resources/videos/Scene - Puppet man_0003/Scene - Puppet man_0003.638.png</pathurl>
                      <rate>
                        <timebase>24</timebase>
                        <ntsc>FALSE</ntsc>
                      </rate>
                      <duration>720</duration>
                      <timecode>
                        <rate>
                          <timebase>24</timebase>
                          <ntsc>FALSE</ntsc>
                        </rate>
                      </timecode>
                      <media>
                        <video>
                          <duration>1</duration>
                          <samplecharacteristics>
                            <anamorphic>FALSE</anamorphic>
                            <pixelaspectratio>square</pixelaspectratio>
                            <fielddominance>none</fielddominance>
                            <width>1920</width>
                            <height>1080</height>
                          </samplecharacteristics>
                        </video>
                      </media>
                    </file>
                  </clipitem>
                </track>
              </video>
            </media>
          </clip>
          <clip explodedTracks="true" frameBlend="FALSE" id="masterclip-641">
            <uuid>94de70ec-8cc4-47ad-b3d2-61b14872cca2</uuid>
            <masterclipid>masterclip-641</masterclipid>
            <ismasterclip>TRUE</ismasterclip>
            <duration>720</duration>
            <in>0</in>
            <out>720</out>
            <name>Scene - Puppet man_0003.639.png</name>
            <rate>
              <timebase>24</timebase>
              <ntsc>FALSE</ntsc>
            </rate>
            <media>
              <video>
                <track>
                  <clipitem frameBlend="FALSE" id="clipitem-642">
                    <name>Scene - Puppet man_0003.639.png</name>
                    <masterclipid>masterclip-641</masterclipid>
                    <rate>
                      <timebase>24</timebase>
                      <ntsc>FALSE</ntsc>
                    </rate>
                    <alphatype>straight</alphatype>
                    <pixelaspectratio>square</pixelaspectratio>
                    <anamorphic>FALSE</anamorphic>
                    <file id="file-641">
                      <name>Scene - Puppet man_0003.639.png</name>
                      <pathurl>file://localhost/C:/Users/jmrey/OneDrive/Desktop/Programmin Stuff/Projects/conversation-simulator/resources/videos/Scene - Puppet man_0003/Scene - Puppet man_0003.639.png</pathurl>
                      <rate>
                        <timebase>24</timebase>
                        <ntsc>FALSE</ntsc>
                      </rate>
                      <duration>720</duration>
                      <timecode>
                        <rate>
                          <timebase>24</timebase>
                          <ntsc>FALSE</ntsc>
                        </rate>
                      </timecode>
                      <media>
                        <video>
                          <duration>1</duration>
                          <samplecharacteristics>
                            <anamorphic>FALSE</anamorphic>
                            <pixelaspectratio>square</pixelaspectratio>
                            <fielddominance>none</fielddominance>
                            <width>1920</width>
                            <height>1080</height>
                          </samplecharacteristics>
                        </video>
                      </media>
                    </file>
                  </clipitem>
                </track>
              </video>
            </media>
          </clip>
          <clip explodedTracks="true" frameBlend="FALSE" id="masterclip-642">
            <uuid>17a9311a-80fa-4dd6-b6a4-9f408ec7d87b</uuid>
            <masterclipid>masterclip-642</masterclipid>
            <ismasterclip>TRUE</ismasterclip>
            <duration>720</duration>
            <in>0</in>
            <out>720</out>
            <name>Scene - Puppet man_0003.640.png</name>
            <rate>
              <timebase>24</timebase>
              <ntsc>FALSE</ntsc>
            </rate>
            <media>
              <video>
                <track>
                  <clipitem frameBlend="FALSE" id="clipitem-643">
                    <name>Scene - Puppet man_0003.640.png</name>
                    <masterclipid>masterclip-642</masterclipid>
                    <rate>
                      <timebase>24</timebase>
                      <ntsc>FALSE</ntsc>
                    </rate>
                    <alphatype>straight</alphatype>
                    <pixelaspectratio>square</pixelaspectratio>
                    <anamorphic>FALSE</anamorphic>
                    <file id="file-642">
                      <name>Scene - Puppet man_0003.640.png</name>
                      <pathurl>file://localhost/C:/Users/jmrey/OneDrive/Desktop/Programmin Stuff/Projects/conversation-simulator/resources/videos/Scene - Puppet man_0003/Scene - Puppet man_0003.640.png</pathurl>
                      <rate>
                        <timebase>24</timebase>
                        <ntsc>FALSE</ntsc>
                      </rate>
                      <duration>720</duration>
                      <timecode>
                        <rate>
                          <timebase>24</timebase>
                          <ntsc>FALSE</ntsc>
                        </rate>
                      </timecode>
                      <media>
                        <video>
                          <duration>1</duration>
                          <samplecharacteristics>
                            <anamorphic>FALSE</anamorphic>
                            <pixelaspectratio>square</pixelaspectratio>
                            <fielddominance>none</fielddominance>
                            <width>1920</width>
                            <height>1080</height>
                          </samplecharacteristics>
                        </video>
                      </media>
                    </file>
                  </clipitem>
                </track>
              </video>
            </media>
          </clip>
          <clip explodedTracks="true" frameBlend="FALSE" id="masterclip-643">
            <uuid>6b6bd64b-e0ae-4815-99f7-278f15792219</uuid>
            <masterclipid>masterclip-643</masterclipid>
            <ismasterclip>TRUE</ismasterclip>
            <duration>720</duration>
            <in>0</in>
            <out>720</out>
            <name>Scene - Puppet man_0003.641.png</name>
            <rate>
              <timebase>24</timebase>
              <ntsc>FALSE</ntsc>
            </rate>
            <media>
              <video>
                <track>
                  <clipitem frameBlend="FALSE" id="clipitem-644">
                    <name>Scene - Puppet man_0003.641.png</name>
                    <masterclipid>masterclip-643</masterclipid>
                    <rate>
                      <timebase>24</timebase>
                      <ntsc>FALSE</ntsc>
                    </rate>
                    <alphatype>straight</alphatype>
                    <pixelaspectratio>square</pixelaspectratio>
                    <anamorphic>FALSE</anamorphic>
                    <file id="file-643">
                      <name>Scene - Puppet man_0003.641.png</name>
                      <pathurl>file://localhost/C:/Users/jmrey/OneDrive/Desktop/Programmin Stuff/Projects/conversation-simulator/resources/videos/Scene - Puppet man_0003/Scene - Puppet man_0003.641.png</pathurl>
                      <rate>
                        <timebase>24</timebase>
                        <ntsc>FALSE</ntsc>
                      </rate>
                      <duration>720</duration>
                      <timecode>
                        <rate>
                          <timebase>24</timebase>
                          <ntsc>FALSE</ntsc>
                        </rate>
                      </timecode>
                      <media>
                        <video>
                          <duration>1</duration>
                          <samplecharacteristics>
                            <anamorphic>FALSE</anamorphic>
                            <pixelaspectratio>square</pixelaspectratio>
                            <fielddominance>none</fielddominance>
                            <width>1920</width>
                            <height>1080</height>
                          </samplecharacteristics>
                        </video>
                      </media>
                    </file>
                  </clipitem>
                </track>
              </video>
            </media>
          </clip>
          <clip explodedTracks="true" frameBlend="FALSE" id="masterclip-644">
            <uuid>86a5a48a-ee7e-4a50-bf08-b9a58b3d9a5b</uuid>
            <masterclipid>masterclip-644</masterclipid>
            <ismasterclip>TRUE</ismasterclip>
            <duration>720</duration>
            <in>0</in>
            <out>720</out>
            <name>Scene - Puppet man_0003.642.png</name>
            <rate>
              <timebase>24</timebase>
              <ntsc>FALSE</ntsc>
            </rate>
            <media>
              <video>
                <track>
                  <clipitem frameBlend="FALSE" id="clipitem-645">
                    <name>Scene - Puppet man_0003.642.png</name>
                    <masterclipid>masterclip-644</masterclipid>
                    <rate>
                      <timebase>24</timebase>
                      <ntsc>FALSE</ntsc>
                    </rate>
                    <alphatype>straight</alphatype>
                    <pixelaspectratio>square</pixelaspectratio>
                    <anamorphic>FALSE</anamorphic>
                    <file id="file-644">
                      <name>Scene - Puppet man_0003.642.png</name>
                      <pathurl>file://localhost/C:/Users/jmrey/OneDrive/Desktop/Programmin Stuff/Projects/conversation-simulator/resources/videos/Scene - Puppet man_0003/Scene - Puppet man_0003.642.png</pathurl>
                      <rate>
                        <timebase>24</timebase>
                        <ntsc>FALSE</ntsc>
                      </rate>
                      <duration>720</duration>
                      <timecode>
                        <rate>
                          <timebase>24</timebase>
                          <ntsc>FALSE</ntsc>
                        </rate>
                      </timecode>
                      <media>
                        <video>
                          <duration>1</duration>
                          <samplecharacteristics>
                            <anamorphic>FALSE</anamorphic>
                            <pixelaspectratio>square</pixelaspectratio>
                            <fielddominance>none</fielddominance>
                            <width>1920</width>
                            <height>1080</height>
                          </samplecharacteristics>
                        </video>
                      </media>
                    </file>
                  </clipitem>
                </track>
              </video>
            </media>
          </clip>
          <clip explodedTracks="true" frameBlend="FALSE" id="masterclip-645">
            <uuid>8cdc0669-d10b-4424-85cc-a3efe8266e23</uuid>
            <masterclipid>masterclip-645</masterclipid>
            <ismasterclip>TRUE</ismasterclip>
            <duration>720</duration>
            <in>0</in>
            <out>720</out>
            <name>Scene - Puppet man_0003.643.png</name>
            <rate>
              <timebase>24</timebase>
              <ntsc>FALSE</ntsc>
            </rate>
            <media>
              <video>
                <track>
                  <clipitem frameBlend="FALSE" id="clipitem-646">
                    <name>Scene - Puppet man_0003.643.png</name>
                    <masterclipid>masterclip-645</masterclipid>
                    <rate>
                      <timebase>24</timebase>
                      <ntsc>FALSE</ntsc>
                    </rate>
                    <alphatype>straight</alphatype>
                    <pixelaspectratio>square</pixelaspectratio>
                    <anamorphic>FALSE</anamorphic>
                    <file id="file-645">
                      <name>Scene - Puppet man_0003.643.png</name>
                      <pathurl>file://localhost/C:/Users/jmrey/OneDrive/Desktop/Programmin Stuff/Projects/conversation-simulator/resources/videos/Scene - Puppet man_0003/Scene - Puppet man_0003.643.png</pathurl>
                      <rate>
                        <timebase>24</timebase>
                        <ntsc>FALSE</ntsc>
                      </rate>
                      <duration>720</duration>
                      <timecode>
                        <rate>
                          <timebase>24</timebase>
                          <ntsc>FALSE</ntsc>
                        </rate>
                      </timecode>
                      <media>
                        <video>
                          <duration>1</duration>
                          <samplecharacteristics>
                            <anamorphic>FALSE</anamorphic>
                            <pixelaspectratio>square</pixelaspectratio>
                            <fielddominance>none</fielddominance>
                            <width>1920</width>
                            <height>1080</height>
                          </samplecharacteristics>
                        </video>
                      </media>
                    </file>
                  </clipitem>
                </track>
              </video>
            </media>
          </clip>
          <clip explodedTracks="true" frameBlend="FALSE" id="masterclip-646">
            <uuid>a737a05e-bfc9-4770-af60-2f4c39d71301</uuid>
            <masterclipid>masterclip-646</masterclipid>
            <ismasterclip>TRUE</ismasterclip>
            <duration>720</duration>
            <in>0</in>
            <out>720</out>
            <name>Scene - Puppet man_0003.644.png</name>
            <rate>
              <timebase>24</timebase>
              <ntsc>FALSE</ntsc>
            </rate>
            <media>
              <video>
                <track>
                  <clipitem frameBlend="FALSE" id="clipitem-647">
                    <name>Scene - Puppet man_0003.644.png</name>
                    <masterclipid>masterclip-646</masterclipid>
                    <rate>
                      <timebase>24</timebase>
                      <ntsc>FALSE</ntsc>
                    </rate>
                    <alphatype>straight</alphatype>
                    <pixelaspectratio>square</pixelaspectratio>
                    <anamorphic>FALSE</anamorphic>
                    <file id="file-646">
                      <name>Scene - Puppet man_0003.644.png</name>
                      <pathurl>file://localhost/C:/Users/jmrey/OneDrive/Desktop/Programmin Stuff/Projects/conversation-simulator/resources/videos/Scene - Puppet man_0003/Scene - Puppet man_0003.644.png</pathurl>
                      <rate>
                        <timebase>24</timebase>
                        <ntsc>FALSE</ntsc>
                      </rate>
                      <duration>720</duration>
                      <timecode>
                        <rate>
                          <timebase>24</timebase>
                          <ntsc>FALSE</ntsc>
                        </rate>
                      </timecode>
                      <media>
                        <video>
                          <duration>1</duration>
                          <samplecharacteristics>
                            <anamorphic>FALSE</anamorphic>
                            <pixelaspectratio>square</pixelaspectratio>
                            <fielddominance>none</fielddominance>
                            <width>1920</width>
                            <height>1080</height>
                          </samplecharacteristics>
                        </video>
                      </media>
                    </file>
                  </clipitem>
                </track>
              </video>
            </media>
          </clip>
          <clip explodedTracks="true" frameBlend="FALSE" id="masterclip-647">
            <uuid>484102f2-d073-4df5-8b09-71d24f168345</uuid>
            <masterclipid>masterclip-647</masterclipid>
            <ismasterclip>TRUE</ismasterclip>
            <duration>720</duration>
            <in>0</in>
            <out>720</out>
            <name>Scene - Puppet man_0003.645.png</name>
            <rate>
              <timebase>24</timebase>
              <ntsc>FALSE</ntsc>
            </rate>
            <media>
              <video>
                <track>
                  <clipitem frameBlend="FALSE" id="clipitem-648">
                    <name>Scene - Puppet man_0003.645.png</name>
                    <masterclipid>masterclip-647</masterclipid>
                    <rate>
                      <timebase>24</timebase>
                      <ntsc>FALSE</ntsc>
                    </rate>
                    <alphatype>straight</alphatype>
                    <pixelaspectratio>square</pixelaspectratio>
                    <anamorphic>FALSE</anamorphic>
                    <file id="file-647">
                      <name>Scene - Puppet man_0003.645.png</name>
                      <pathurl>file://localhost/C:/Users/jmrey/OneDrive/Desktop/Programmin Stuff/Projects/conversation-simulator/resources/videos/Scene - Puppet man_0003/Scene - Puppet man_0003.645.png</pathurl>
                      <rate>
                        <timebase>24</timebase>
                        <ntsc>FALSE</ntsc>
                      </rate>
                      <duration>720</duration>
                      <timecode>
                        <rate>
                          <timebase>24</timebase>
                          <ntsc>FALSE</ntsc>
                        </rate>
                      </timecode>
                      <media>
                        <video>
                          <duration>1</duration>
                          <samplecharacteristics>
                            <anamorphic>FALSE</anamorphic>
                            <pixelaspectratio>square</pixelaspectratio>
                            <fielddominance>none</fielddominance>
                            <width>1920</width>
                            <height>1080</height>
                          </samplecharacteristics>
                        </video>
                      </media>
                    </file>
                  </clipitem>
                </track>
              </video>
            </media>
          </clip>
          <clip explodedTracks="true" frameBlend="FALSE" id="masterclip-648">
            <uuid>bbc275a5-437e-442c-be3a-4a52d34d6646</uuid>
            <masterclipid>masterclip-648</masterclipid>
            <ismasterclip>TRUE</ismasterclip>
            <duration>720</duration>
            <in>0</in>
            <out>720</out>
            <name>Scene - Puppet man_0003.646.png</name>
            <rate>
              <timebase>24</timebase>
              <ntsc>FALSE</ntsc>
            </rate>
            <media>
              <video>
                <track>
                  <clipitem frameBlend="FALSE" id="clipitem-649">
                    <name>Scene - Puppet man_0003.646.png</name>
                    <masterclipid>masterclip-648</masterclipid>
                    <rate>
                      <timebase>24</timebase>
                      <ntsc>FALSE</ntsc>
                    </rate>
                    <alphatype>straight</alphatype>
                    <pixelaspectratio>square</pixelaspectratio>
                    <anamorphic>FALSE</anamorphic>
                    <file id="file-648">
                      <name>Scene - Puppet man_0003.646.png</name>
                      <pathurl>file://localhost/C:/Users/jmrey/OneDrive/Desktop/Programmin Stuff/Projects/conversation-simulator/resources/videos/Scene - Puppet man_0003/Scene - Puppet man_0003.646.png</pathurl>
                      <rate>
                        <timebase>24</timebase>
                        <ntsc>FALSE</ntsc>
                      </rate>
                      <duration>720</duration>
                      <timecode>
                        <rate>
                          <timebase>24</timebase>
                          <ntsc>FALSE</ntsc>
                        </rate>
                      </timecode>
                      <media>
                        <video>
                          <duration>1</duration>
                          <samplecharacteristics>
                            <anamorphic>FALSE</anamorphic>
                            <pixelaspectratio>square</pixelaspectratio>
                            <fielddominance>none</fielddominance>
                            <width>1920</width>
                            <height>1080</height>
                          </samplecharacteristics>
                        </video>
                      </media>
                    </file>
                  </clipitem>
                </track>
              </video>
            </media>
          </clip>
          <clip explodedTracks="true" frameBlend="FALSE" id="masterclip-649">
            <uuid>13f82ca1-8ac0-4869-aa07-246f5b459756</uuid>
            <masterclipid>masterclip-649</masterclipid>
            <ismasterclip>TRUE</ismasterclip>
            <duration>720</duration>
            <in>0</in>
            <out>720</out>
            <name>Scene - Puppet man_0003.647.png</name>
            <rate>
              <timebase>24</timebase>
              <ntsc>FALSE</ntsc>
            </rate>
            <media>
              <video>
                <track>
                  <clipitem frameBlend="FALSE" id="clipitem-650">
                    <name>Scene - Puppet man_0003.647.png</name>
                    <masterclipid>masterclip-649</masterclipid>
                    <rate>
                      <timebase>24</timebase>
                      <ntsc>FALSE</ntsc>
                    </rate>
                    <alphatype>straight</alphatype>
                    <pixelaspectratio>square</pixelaspectratio>
                    <anamorphic>FALSE</anamorphic>
                    <file id="file-649">
                      <name>Scene - Puppet man_0003.647.png</name>
                      <pathurl>file://localhost/C:/Users/jmrey/OneDrive/Desktop/Programmin Stuff/Projects/conversation-simulator/resources/videos/Scene - Puppet man_0003/Scene - Puppet man_0003.647.png</pathurl>
                      <rate>
                        <timebase>24</timebase>
                        <ntsc>FALSE</ntsc>
                      </rate>
                      <duration>720</duration>
                      <timecode>
                        <rate>
                          <timebase>24</timebase>
                          <ntsc>FALSE</ntsc>
                        </rate>
                      </timecode>
                      <media>
                        <video>
                          <duration>1</duration>
                          <samplecharacteristics>
                            <anamorphic>FALSE</anamorphic>
                            <pixelaspectratio>square</pixelaspectratio>
                            <fielddominance>none</fielddominance>
                            <width>1920</width>
                            <height>1080</height>
                          </samplecharacteristics>
                        </video>
                      </media>
                    </file>
                  </clipitem>
                </track>
              </video>
            </media>
          </clip>
          <clip explodedTracks="true" frameBlend="FALSE" id="masterclip-650">
            <uuid>001ab0f0-2ea8-4e01-884b-e3256ea706f0</uuid>
            <masterclipid>masterclip-650</masterclipid>
            <ismasterclip>TRUE</ismasterclip>
            <duration>720</duration>
            <in>0</in>
            <out>720</out>
            <name>Scene - Puppet man_0003.648.png</name>
            <rate>
              <timebase>24</timebase>
              <ntsc>FALSE</ntsc>
            </rate>
            <media>
              <video>
                <track>
                  <clipitem frameBlend="FALSE" id="clipitem-651">
                    <name>Scene - Puppet man_0003.648.png</name>
                    <masterclipid>masterclip-650</masterclipid>
                    <rate>
                      <timebase>24</timebase>
                      <ntsc>FALSE</ntsc>
                    </rate>
                    <alphatype>straight</alphatype>
                    <pixelaspectratio>square</pixelaspectratio>
                    <anamorphic>FALSE</anamorphic>
                    <file id="file-650">
                      <name>Scene - Puppet man_0003.648.png</name>
                      <pathurl>file://localhost/C:/Users/jmrey/OneDrive/Desktop/Programmin Stuff/Projects/conversation-simulator/resources/videos/Scene - Puppet man_0003/Scene - Puppet man_0003.648.png</pathurl>
                      <rate>
                        <timebase>24</timebase>
                        <ntsc>FALSE</ntsc>
                      </rate>
                      <duration>720</duration>
                      <timecode>
                        <rate>
                          <timebase>24</timebase>
                          <ntsc>FALSE</ntsc>
                        </rate>
                      </timecode>
                      <media>
                        <video>
                          <duration>1</duration>
                          <samplecharacteristics>
                            <anamorphic>FALSE</anamorphic>
                            <pixelaspectratio>square</pixelaspectratio>
                            <fielddominance>none</fielddominance>
                            <width>1920</width>
                            <height>1080</height>
                          </samplecharacteristics>
                        </video>
                      </media>
                    </file>
                  </clipitem>
                </track>
              </video>
            </media>
          </clip>
          <clip explodedTracks="true" frameBlend="FALSE" id="masterclip-651">
            <uuid>2fc36a6b-99ed-4494-9b18-5cd1cbff2b71</uuid>
            <masterclipid>masterclip-651</masterclipid>
            <ismasterclip>TRUE</ismasterclip>
            <duration>720</duration>
            <in>0</in>
            <out>720</out>
            <name>Scene - Puppet man_0003.649.png</name>
            <rate>
              <timebase>24</timebase>
              <ntsc>FALSE</ntsc>
            </rate>
            <media>
              <video>
                <track>
                  <clipitem frameBlend="FALSE" id="clipitem-652">
                    <name>Scene - Puppet man_0003.649.png</name>
                    <masterclipid>masterclip-651</masterclipid>
                    <rate>
                      <timebase>24</timebase>
                      <ntsc>FALSE</ntsc>
                    </rate>
                    <alphatype>straight</alphatype>
                    <pixelaspectratio>square</pixelaspectratio>
                    <anamorphic>FALSE</anamorphic>
                    <file id="file-651">
                      <name>Scene - Puppet man_0003.649.png</name>
                      <pathurl>file://localhost/C:/Users/jmrey/OneDrive/Desktop/Programmin Stuff/Projects/conversation-simulator/resources/videos/Scene - Puppet man_0003/Scene - Puppet man_0003.649.png</pathurl>
                      <rate>
                        <timebase>24</timebase>
                        <ntsc>FALSE</ntsc>
                      </rate>
                      <duration>720</duration>
                      <timecode>
                        <rate>
                          <timebase>24</timebase>
                          <ntsc>FALSE</ntsc>
                        </rate>
                      </timecode>
                      <media>
                        <video>
                          <duration>1</duration>
                          <samplecharacteristics>
                            <anamorphic>FALSE</anamorphic>
                            <pixelaspectratio>square</pixelaspectratio>
                            <fielddominance>none</fielddominance>
                            <width>1920</width>
                            <height>1080</height>
                          </samplecharacteristics>
                        </video>
                      </media>
                    </file>
                  </clipitem>
                </track>
              </video>
            </media>
          </clip>
          <clip explodedTracks="true" frameBlend="FALSE" id="masterclip-652">
            <uuid>fce0645f-8b7f-4541-8f44-4058c5ab12c7</uuid>
            <masterclipid>masterclip-652</masterclipid>
            <ismasterclip>TRUE</ismasterclip>
            <duration>720</duration>
            <in>0</in>
            <out>720</out>
            <name>Scene - Puppet man_0003.650.png</name>
            <rate>
              <timebase>24</timebase>
              <ntsc>FALSE</ntsc>
            </rate>
            <media>
              <video>
                <track>
                  <clipitem frameBlend="FALSE" id="clipitem-653">
                    <name>Scene - Puppet man_0003.650.png</name>
                    <masterclipid>masterclip-652</masterclipid>
                    <rate>
                      <timebase>24</timebase>
                      <ntsc>FALSE</ntsc>
                    </rate>
                    <alphatype>straight</alphatype>
                    <pixelaspectratio>square</pixelaspectratio>
                    <anamorphic>FALSE</anamorphic>
                    <file id="file-652">
                      <name>Scene - Puppet man_0003.650.png</name>
                      <pathurl>file://localhost/C:/Users/jmrey/OneDrive/Desktop/Programmin Stuff/Projects/conversation-simulator/resources/videos/Scene - Puppet man_0003/Scene - Puppet man_0003.650.png</pathurl>
                      <rate>
                        <timebase>24</timebase>
                        <ntsc>FALSE</ntsc>
                      </rate>
                      <duration>720</duration>
                      <timecode>
                        <rate>
                          <timebase>24</timebase>
                          <ntsc>FALSE</ntsc>
                        </rate>
                      </timecode>
                      <media>
                        <video>
                          <duration>1</duration>
                          <samplecharacteristics>
                            <anamorphic>FALSE</anamorphic>
                            <pixelaspectratio>square</pixelaspectratio>
                            <fielddominance>none</fielddominance>
                            <width>1920</width>
                            <height>1080</height>
                          </samplecharacteristics>
                        </video>
                      </media>
                    </file>
                  </clipitem>
                </track>
              </video>
            </media>
          </clip>
          <clip explodedTracks="true" frameBlend="FALSE" id="masterclip-653">
            <uuid>300e4d86-f5e5-4de6-b753-f39384166980</uuid>
            <masterclipid>masterclip-653</masterclipid>
            <ismasterclip>TRUE</ismasterclip>
            <duration>720</duration>
            <in>0</in>
            <out>720</out>
            <name>Scene - Puppet man_0003.651.png</name>
            <rate>
              <timebase>24</timebase>
              <ntsc>FALSE</ntsc>
            </rate>
            <media>
              <video>
                <track>
                  <clipitem frameBlend="FALSE" id="clipitem-654">
                    <name>Scene - Puppet man_0003.651.png</name>
                    <masterclipid>masterclip-653</masterclipid>
                    <rate>
                      <timebase>24</timebase>
                      <ntsc>FALSE</ntsc>
                    </rate>
                    <alphatype>straight</alphatype>
                    <pixelaspectratio>square</pixelaspectratio>
                    <anamorphic>FALSE</anamorphic>
                    <file id="file-653">
                      <name>Scene - Puppet man_0003.651.png</name>
                      <pathurl>file://localhost/C:/Users/jmrey/OneDrive/Desktop/Programmin Stuff/Projects/conversation-simulator/resources/videos/Scene - Puppet man_0003/Scene - Puppet man_0003.651.png</pathurl>
                      <rate>
                        <timebase>24</timebase>
                        <ntsc>FALSE</ntsc>
                      </rate>
                      <duration>720</duration>
                      <timecode>
                        <rate>
                          <timebase>24</timebase>
                          <ntsc>FALSE</ntsc>
                        </rate>
                      </timecode>
                      <media>
                        <video>
                          <duration>1</duration>
                          <samplecharacteristics>
                            <anamorphic>FALSE</anamorphic>
                            <pixelaspectratio>square</pixelaspectratio>
                            <fielddominance>none</fielddominance>
                            <width>1920</width>
                            <height>1080</height>
                          </samplecharacteristics>
                        </video>
                      </media>
                    </file>
                  </clipitem>
                </track>
              </video>
            </media>
          </clip>
          <clip explodedTracks="true" frameBlend="FALSE" id="masterclip-654">
            <uuid>57fbc00a-e0fa-4e9d-ab58-a652e5760a27</uuid>
            <masterclipid>masterclip-654</masterclipid>
            <ismasterclip>TRUE</ismasterclip>
            <duration>720</duration>
            <in>0</in>
            <out>720</out>
            <name>Scene - Puppet man_0003.652.png</name>
            <rate>
              <timebase>24</timebase>
              <ntsc>FALSE</ntsc>
            </rate>
            <media>
              <video>
                <track>
                  <clipitem frameBlend="FALSE" id="clipitem-655">
                    <name>Scene - Puppet man_0003.652.png</name>
                    <masterclipid>masterclip-654</masterclipid>
                    <rate>
                      <timebase>24</timebase>
                      <ntsc>FALSE</ntsc>
                    </rate>
                    <alphatype>straight</alphatype>
                    <pixelaspectratio>square</pixelaspectratio>
                    <anamorphic>FALSE</anamorphic>
                    <file id="file-654">
                      <name>Scene - Puppet man_0003.652.png</name>
                      <pathurl>file://localhost/C:/Users/jmrey/OneDrive/Desktop/Programmin Stuff/Projects/conversation-simulator/resources/videos/Scene - Puppet man_0003/Scene - Puppet man_0003.652.png</pathurl>
                      <rate>
                        <timebase>24</timebase>
                        <ntsc>FALSE</ntsc>
                      </rate>
                      <duration>720</duration>
                      <timecode>
                        <rate>
                          <timebase>24</timebase>
                          <ntsc>FALSE</ntsc>
                        </rate>
                      </timecode>
                      <media>
                        <video>
                          <duration>1</duration>
                          <samplecharacteristics>
                            <anamorphic>FALSE</anamorphic>
                            <pixelaspectratio>square</pixelaspectratio>
                            <fielddominance>none</fielddominance>
                            <width>1920</width>
                            <height>1080</height>
                          </samplecharacteristics>
                        </video>
                      </media>
                    </file>
                  </clipitem>
                </track>
              </video>
            </media>
          </clip>
          <clip explodedTracks="true" frameBlend="FALSE" id="masterclip-655">
            <uuid>be063d90-ae68-4e03-9bc8-bbf2fd207955</uuid>
            <masterclipid>masterclip-655</masterclipid>
            <ismasterclip>TRUE</ismasterclip>
            <duration>720</duration>
            <in>0</in>
            <out>720</out>
            <name>Scene - Puppet man_0003.653.png</name>
            <rate>
              <timebase>24</timebase>
              <ntsc>FALSE</ntsc>
            </rate>
            <media>
              <video>
                <track>
                  <clipitem frameBlend="FALSE" id="clipitem-656">
                    <name>Scene - Puppet man_0003.653.png</name>
                    <masterclipid>masterclip-655</masterclipid>
                    <rate>
                      <timebase>24</timebase>
                      <ntsc>FALSE</ntsc>
                    </rate>
                    <alphatype>straight</alphatype>
                    <pixelaspectratio>square</pixelaspectratio>
                    <anamorphic>FALSE</anamorphic>
                    <file id="file-655">
                      <name>Scene - Puppet man_0003.653.png</name>
                      <pathurl>file://localhost/C:/Users/jmrey/OneDrive/Desktop/Programmin Stuff/Projects/conversation-simulator/resources/videos/Scene - Puppet man_0003/Scene - Puppet man_0003.653.png</pathurl>
                      <rate>
                        <timebase>24</timebase>
                        <ntsc>FALSE</ntsc>
                      </rate>
                      <duration>720</duration>
                      <timecode>
                        <rate>
                          <timebase>24</timebase>
                          <ntsc>FALSE</ntsc>
                        </rate>
                      </timecode>
                      <media>
                        <video>
                          <duration>1</duration>
                          <samplecharacteristics>
                            <anamorphic>FALSE</anamorphic>
                            <pixelaspectratio>square</pixelaspectratio>
                            <fielddominance>none</fielddominance>
                            <width>1920</width>
                            <height>1080</height>
                          </samplecharacteristics>
                        </video>
                      </media>
                    </file>
                  </clipitem>
                </track>
              </video>
            </media>
          </clip>
          <clip explodedTracks="true" frameBlend="FALSE" id="masterclip-656">
            <uuid>2cf196b0-029e-4a69-a86f-222743dda2e8</uuid>
            <masterclipid>masterclip-656</masterclipid>
            <ismasterclip>TRUE</ismasterclip>
            <duration>720</duration>
            <in>0</in>
            <out>720</out>
            <name>Scene - Puppet man_0003.654.png</name>
            <rate>
              <timebase>24</timebase>
              <ntsc>FALSE</ntsc>
            </rate>
            <media>
              <video>
                <track>
                  <clipitem frameBlend="FALSE" id="clipitem-657">
                    <name>Scene - Puppet man_0003.654.png</name>
                    <masterclipid>masterclip-656</masterclipid>
                    <rate>
                      <timebase>24</timebase>
                      <ntsc>FALSE</ntsc>
                    </rate>
                    <alphatype>straight</alphatype>
                    <pixelaspectratio>square</pixelaspectratio>
                    <anamorphic>FALSE</anamorphic>
                    <file id="file-656">
                      <name>Scene - Puppet man_0003.654.png</name>
                      <pathurl>file://localhost/C:/Users/jmrey/OneDrive/Desktop/Programmin Stuff/Projects/conversation-simulator/resources/videos/Scene - Puppet man_0003/Scene - Puppet man_0003.654.png</pathurl>
                      <rate>
                        <timebase>24</timebase>
                        <ntsc>FALSE</ntsc>
                      </rate>
                      <duration>720</duration>
                      <timecode>
                        <rate>
                          <timebase>24</timebase>
                          <ntsc>FALSE</ntsc>
                        </rate>
                      </timecode>
                      <media>
                        <video>
                          <duration>1</duration>
                          <samplecharacteristics>
                            <anamorphic>FALSE</anamorphic>
                            <pixelaspectratio>square</pixelaspectratio>
                            <fielddominance>none</fielddominance>
                            <width>1920</width>
                            <height>1080</height>
                          </samplecharacteristics>
                        </video>
                      </media>
                    </file>
                  </clipitem>
                </track>
              </video>
            </media>
          </clip>
          <clip explodedTracks="true" frameBlend="FALSE" id="masterclip-657">
            <uuid>388576cb-1158-4ef5-8904-72b507b6d2a7</uuid>
            <masterclipid>masterclip-657</masterclipid>
            <ismasterclip>TRUE</ismasterclip>
            <duration>720</duration>
            <in>0</in>
            <out>720</out>
            <name>Scene - Puppet man_0003.655.png</name>
            <rate>
              <timebase>24</timebase>
              <ntsc>FALSE</ntsc>
            </rate>
            <media>
              <video>
                <track>
                  <clipitem frameBlend="FALSE" id="clipitem-658">
                    <name>Scene - Puppet man_0003.655.png</name>
                    <masterclipid>masterclip-657</masterclipid>
                    <rate>
                      <timebase>24</timebase>
                      <ntsc>FALSE</ntsc>
                    </rate>
                    <alphatype>straight</alphatype>
                    <pixelaspectratio>square</pixelaspectratio>
                    <anamorphic>FALSE</anamorphic>
                    <file id="file-657">
                      <name>Scene - Puppet man_0003.655.png</name>
                      <pathurl>file://localhost/C:/Users/jmrey/OneDrive/Desktop/Programmin Stuff/Projects/conversation-simulator/resources/videos/Scene - Puppet man_0003/Scene - Puppet man_0003.655.png</pathurl>
                      <rate>
                        <timebase>24</timebase>
                        <ntsc>FALSE</ntsc>
                      </rate>
                      <duration>720</duration>
                      <timecode>
                        <rate>
                          <timebase>24</timebase>
                          <ntsc>FALSE</ntsc>
                        </rate>
                      </timecode>
                      <media>
                        <video>
                          <duration>1</duration>
                          <samplecharacteristics>
                            <anamorphic>FALSE</anamorphic>
                            <pixelaspectratio>square</pixelaspectratio>
                            <fielddominance>none</fielddominance>
                            <width>1920</width>
                            <height>1080</height>
                          </samplecharacteristics>
                        </video>
                      </media>
                    </file>
                  </clipitem>
                </track>
              </video>
            </media>
          </clip>
          <clip explodedTracks="true" frameBlend="FALSE" id="masterclip-658">
            <uuid>6844edc4-56a6-4530-9126-17d20a8cf216</uuid>
            <masterclipid>masterclip-658</masterclipid>
            <ismasterclip>TRUE</ismasterclip>
            <duration>720</duration>
            <in>0</in>
            <out>720</out>
            <name>Scene - Puppet man_0003.656.png</name>
            <rate>
              <timebase>24</timebase>
              <ntsc>FALSE</ntsc>
            </rate>
            <media>
              <video>
                <track>
                  <clipitem frameBlend="FALSE" id="clipitem-659">
                    <name>Scene - Puppet man_0003.656.png</name>
                    <masterclipid>masterclip-658</masterclipid>
                    <rate>
                      <timebase>24</timebase>
                      <ntsc>FALSE</ntsc>
                    </rate>
                    <alphatype>straight</alphatype>
                    <pixelaspectratio>square</pixelaspectratio>
                    <anamorphic>FALSE</anamorphic>
                    <file id="file-658">
                      <name>Scene - Puppet man_0003.656.png</name>
                      <pathurl>file://localhost/C:/Users/jmrey/OneDrive/Desktop/Programmin Stuff/Projects/conversation-simulator/resources/videos/Scene - Puppet man_0003/Scene - Puppet man_0003.656.png</pathurl>
                      <rate>
                        <timebase>24</timebase>
                        <ntsc>FALSE</ntsc>
                      </rate>
                      <duration>720</duration>
                      <timecode>
                        <rate>
                          <timebase>24</timebase>
                          <ntsc>FALSE</ntsc>
                        </rate>
                      </timecode>
                      <media>
                        <video>
                          <duration>1</duration>
                          <samplecharacteristics>
                            <anamorphic>FALSE</anamorphic>
                            <pixelaspectratio>square</pixelaspectratio>
                            <fielddominance>none</fielddominance>
                            <width>1920</width>
                            <height>1080</height>
                          </samplecharacteristics>
                        </video>
                      </media>
                    </file>
                  </clipitem>
                </track>
              </video>
            </media>
          </clip>
          <clip explodedTracks="true" frameBlend="FALSE" id="masterclip-659">
            <uuid>b59234d1-594e-4d77-8cc8-19e986a39f0e</uuid>
            <masterclipid>masterclip-659</masterclipid>
            <ismasterclip>TRUE</ismasterclip>
            <duration>720</duration>
            <in>0</in>
            <out>720</out>
            <name>Scene - Puppet man_0003.657.png</name>
            <rate>
              <timebase>24</timebase>
              <ntsc>FALSE</ntsc>
            </rate>
            <media>
              <video>
                <track>
                  <clipitem frameBlend="FALSE" id="clipitem-660">
                    <name>Scene - Puppet man_0003.657.png</name>
                    <masterclipid>masterclip-659</masterclipid>
                    <rate>
                      <timebase>24</timebase>
                      <ntsc>FALSE</ntsc>
                    </rate>
                    <alphatype>straight</alphatype>
                    <pixelaspectratio>square</pixelaspectratio>
                    <anamorphic>FALSE</anamorphic>
                    <file id="file-659">
                      <name>Scene - Puppet man_0003.657.png</name>
                      <pathurl>file://localhost/C:/Users/jmrey/OneDrive/Desktop/Programmin Stuff/Projects/conversation-simulator/resources/videos/Scene - Puppet man_0003/Scene - Puppet man_0003.657.png</pathurl>
                      <rate>
                        <timebase>24</timebase>
                        <ntsc>FALSE</ntsc>
                      </rate>
                      <duration>720</duration>
                      <timecode>
                        <rate>
                          <timebase>24</timebase>
                          <ntsc>FALSE</ntsc>
                        </rate>
                      </timecode>
                      <media>
                        <video>
                          <duration>1</duration>
                          <samplecharacteristics>
                            <anamorphic>FALSE</anamorphic>
                            <pixelaspectratio>square</pixelaspectratio>
                            <fielddominance>none</fielddominance>
                            <width>1920</width>
                            <height>1080</height>
                          </samplecharacteristics>
                        </video>
                      </media>
                    </file>
                  </clipitem>
                </track>
              </video>
            </media>
          </clip>
          <clip explodedTracks="true" frameBlend="FALSE" id="masterclip-660">
            <uuid>dfc4a428-76e6-483e-b3f9-b838e11ffd34</uuid>
            <masterclipid>masterclip-660</masterclipid>
            <ismasterclip>TRUE</ismasterclip>
            <duration>720</duration>
            <in>0</in>
            <out>720</out>
            <name>Scene - Puppet man_0003.658.png</name>
            <rate>
              <timebase>24</timebase>
              <ntsc>FALSE</ntsc>
            </rate>
            <media>
              <video>
                <track>
                  <clipitem frameBlend="FALSE" id="clipitem-661">
                    <name>Scene - Puppet man_0003.658.png</name>
                    <masterclipid>masterclip-660</masterclipid>
                    <rate>
                      <timebase>24</timebase>
                      <ntsc>FALSE</ntsc>
                    </rate>
                    <alphatype>straight</alphatype>
                    <pixelaspectratio>square</pixelaspectratio>
                    <anamorphic>FALSE</anamorphic>
                    <file id="file-660">
                      <name>Scene - Puppet man_0003.658.png</name>
                      <pathurl>file://localhost/C:/Users/jmrey/OneDrive/Desktop/Programmin Stuff/Projects/conversation-simulator/resources/videos/Scene - Puppet man_0003/Scene - Puppet man_0003.658.png</pathurl>
                      <rate>
                        <timebase>24</timebase>
                        <ntsc>FALSE</ntsc>
                      </rate>
                      <duration>720</duration>
                      <timecode>
                        <rate>
                          <timebase>24</timebase>
                          <ntsc>FALSE</ntsc>
                        </rate>
                      </timecode>
                      <media>
                        <video>
                          <duration>1</duration>
                          <samplecharacteristics>
                            <anamorphic>FALSE</anamorphic>
                            <pixelaspectratio>square</pixelaspectratio>
                            <fielddominance>none</fielddominance>
                            <width>1920</width>
                            <height>1080</height>
                          </samplecharacteristics>
                        </video>
                      </media>
                    </file>
                  </clipitem>
                </track>
              </video>
            </media>
          </clip>
          <clip explodedTracks="true" frameBlend="FALSE" id="masterclip-661">
            <uuid>55f72319-c4c8-442b-ae4c-b9017dc254cd</uuid>
            <masterclipid>masterclip-661</masterclipid>
            <ismasterclip>TRUE</ismasterclip>
            <duration>720</duration>
            <in>0</in>
            <out>720</out>
            <name>Scene - Puppet man_0003.659.png</name>
            <rate>
              <timebase>24</timebase>
              <ntsc>FALSE</ntsc>
            </rate>
            <media>
              <video>
                <track>
                  <clipitem frameBlend="FALSE" id="clipitem-662">
                    <name>Scene - Puppet man_0003.659.png</name>
                    <masterclipid>masterclip-661</masterclipid>
                    <rate>
                      <timebase>24</timebase>
                      <ntsc>FALSE</ntsc>
                    </rate>
                    <alphatype>straight</alphatype>
                    <pixelaspectratio>square</pixelaspectratio>
                    <anamorphic>FALSE</anamorphic>
                    <file id="file-661">
                      <name>Scene - Puppet man_0003.659.png</name>
                      <pathurl>file://localhost/C:/Users/jmrey/OneDrive/Desktop/Programmin Stuff/Projects/conversation-simulator/resources/videos/Scene - Puppet man_0003/Scene - Puppet man_0003.659.png</pathurl>
                      <rate>
                        <timebase>24</timebase>
                        <ntsc>FALSE</ntsc>
                      </rate>
                      <duration>720</duration>
                      <timecode>
                        <rate>
                          <timebase>24</timebase>
                          <ntsc>FALSE</ntsc>
                        </rate>
                      </timecode>
                      <media>
                        <video>
                          <duration>1</duration>
                          <samplecharacteristics>
                            <anamorphic>FALSE</anamorphic>
                            <pixelaspectratio>square</pixelaspectratio>
                            <fielddominance>none</fielddominance>
                            <width>1920</width>
                            <height>1080</height>
                          </samplecharacteristics>
                        </video>
                      </media>
                    </file>
                  </clipitem>
                </track>
              </video>
            </media>
          </clip>
          <clip explodedTracks="true" frameBlend="FALSE" id="masterclip-662">
            <uuid>c4262d38-ebbb-4409-9e5c-57a5f8923161</uuid>
            <masterclipid>masterclip-662</masterclipid>
            <ismasterclip>TRUE</ismasterclip>
            <duration>720</duration>
            <in>0</in>
            <out>720</out>
            <name>Scene - Puppet man_0003.660.png</name>
            <rate>
              <timebase>24</timebase>
              <ntsc>FALSE</ntsc>
            </rate>
            <media>
              <video>
                <track>
                  <clipitem frameBlend="FALSE" id="clipitem-663">
                    <name>Scene - Puppet man_0003.660.png</name>
                    <masterclipid>masterclip-662</masterclipid>
                    <rate>
                      <timebase>24</timebase>
                      <ntsc>FALSE</ntsc>
                    </rate>
                    <alphatype>straight</alphatype>
                    <pixelaspectratio>square</pixelaspectratio>
                    <anamorphic>FALSE</anamorphic>
                    <file id="file-662">
                      <name>Scene - Puppet man_0003.660.png</name>
                      <pathurl>file://localhost/C:/Users/jmrey/OneDrive/Desktop/Programmin Stuff/Projects/conversation-simulator/resources/videos/Scene - Puppet man_0003/Scene - Puppet man_0003.660.png</pathurl>
                      <rate>
                        <timebase>24</timebase>
                        <ntsc>FALSE</ntsc>
                      </rate>
                      <duration>720</duration>
                      <timecode>
                        <rate>
                          <timebase>24</timebase>
                          <ntsc>FALSE</ntsc>
                        </rate>
                      </timecode>
                      <media>
                        <video>
                          <duration>1</duration>
                          <samplecharacteristics>
                            <anamorphic>FALSE</anamorphic>
                            <pixelaspectratio>square</pixelaspectratio>
                            <fielddominance>none</fielddominance>
                            <width>1920</width>
                            <height>1080</height>
                          </samplecharacteristics>
                        </video>
                      </media>
                    </file>
                  </clipitem>
                </track>
              </video>
            </media>
          </clip>
          <clip explodedTracks="true" frameBlend="FALSE" id="masterclip-663">
            <uuid>ed5e637c-5421-401b-95fa-b66946f4ac46</uuid>
            <masterclipid>masterclip-663</masterclipid>
            <ismasterclip>TRUE</ismasterclip>
            <duration>720</duration>
            <in>0</in>
            <out>720</out>
            <name>Scene - Puppet man_0003.661.png</name>
            <rate>
              <timebase>24</timebase>
              <ntsc>FALSE</ntsc>
            </rate>
            <media>
              <video>
                <track>
                  <clipitem frameBlend="FALSE" id="clipitem-664">
                    <name>Scene - Puppet man_0003.661.png</name>
                    <masterclipid>masterclip-663</masterclipid>
                    <rate>
                      <timebase>24</timebase>
                      <ntsc>FALSE</ntsc>
                    </rate>
                    <alphatype>straight</alphatype>
                    <pixelaspectratio>square</pixelaspectratio>
                    <anamorphic>FALSE</anamorphic>
                    <file id="file-663">
                      <name>Scene - Puppet man_0003.661.png</name>
                      <pathurl>file://localhost/C:/Users/jmrey/OneDrive/Desktop/Programmin Stuff/Projects/conversation-simulator/resources/videos/Scene - Puppet man_0003/Scene - Puppet man_0003.661.png</pathurl>
                      <rate>
                        <timebase>24</timebase>
                        <ntsc>FALSE</ntsc>
                      </rate>
                      <duration>720</duration>
                      <timecode>
                        <rate>
                          <timebase>24</timebase>
                          <ntsc>FALSE</ntsc>
                        </rate>
                      </timecode>
                      <media>
                        <video>
                          <duration>1</duration>
                          <samplecharacteristics>
                            <anamorphic>FALSE</anamorphic>
                            <pixelaspectratio>square</pixelaspectratio>
                            <fielddominance>none</fielddominance>
                            <width>1920</width>
                            <height>1080</height>
                          </samplecharacteristics>
                        </video>
                      </media>
                    </file>
                  </clipitem>
                </track>
              </video>
            </media>
          </clip>
          <clip explodedTracks="true" frameBlend="FALSE" id="masterclip-664">
            <uuid>9f12253a-a4d4-4311-973d-746aaf7eb4ad</uuid>
            <masterclipid>masterclip-664</masterclipid>
            <ismasterclip>TRUE</ismasterclip>
            <duration>720</duration>
            <in>0</in>
            <out>720</out>
            <name>Scene - Puppet man_0003.662.png</name>
            <rate>
              <timebase>24</timebase>
              <ntsc>FALSE</ntsc>
            </rate>
            <media>
              <video>
                <track>
                  <clipitem frameBlend="FALSE" id="clipitem-665">
                    <name>Scene - Puppet man_0003.662.png</name>
                    <masterclipid>masterclip-664</masterclipid>
                    <rate>
                      <timebase>24</timebase>
                      <ntsc>FALSE</ntsc>
                    </rate>
                    <alphatype>straight</alphatype>
                    <pixelaspectratio>square</pixelaspectratio>
                    <anamorphic>FALSE</anamorphic>
                    <file id="file-664">
                      <name>Scene - Puppet man_0003.662.png</name>
                      <pathurl>file://localhost/C:/Users/jmrey/OneDrive/Desktop/Programmin Stuff/Projects/conversation-simulator/resources/videos/Scene - Puppet man_0003/Scene - Puppet man_0003.662.png</pathurl>
                      <rate>
                        <timebase>24</timebase>
                        <ntsc>FALSE</ntsc>
                      </rate>
                      <duration>720</duration>
                      <timecode>
                        <rate>
                          <timebase>24</timebase>
                          <ntsc>FALSE</ntsc>
                        </rate>
                      </timecode>
                      <media>
                        <video>
                          <duration>1</duration>
                          <samplecharacteristics>
                            <anamorphic>FALSE</anamorphic>
                            <pixelaspectratio>square</pixelaspectratio>
                            <fielddominance>none</fielddominance>
                            <width>1920</width>
                            <height>1080</height>
                          </samplecharacteristics>
                        </video>
                      </media>
                    </file>
                  </clipitem>
                </track>
              </video>
            </media>
          </clip>
          <clip explodedTracks="true" frameBlend="FALSE" id="masterclip-665">
            <uuid>e819a691-6212-4c23-91df-bd6df859b04d</uuid>
            <masterclipid>masterclip-665</masterclipid>
            <ismasterclip>TRUE</ismasterclip>
            <duration>720</duration>
            <in>0</in>
            <out>720</out>
            <name>Scene - Puppet man_0003.663.png</name>
            <rate>
              <timebase>24</timebase>
              <ntsc>FALSE</ntsc>
            </rate>
            <media>
              <video>
                <track>
                  <clipitem frameBlend="FALSE" id="clipitem-666">
                    <name>Scene - Puppet man_0003.663.png</name>
                    <masterclipid>masterclip-665</masterclipid>
                    <rate>
                      <timebase>24</timebase>
                      <ntsc>FALSE</ntsc>
                    </rate>
                    <alphatype>straight</alphatype>
                    <pixelaspectratio>square</pixelaspectratio>
                    <anamorphic>FALSE</anamorphic>
                    <file id="file-665">
                      <name>Scene - Puppet man_0003.663.png</name>
                      <pathurl>file://localhost/C:/Users/jmrey/OneDrive/Desktop/Programmin Stuff/Projects/conversation-simulator/resources/videos/Scene - Puppet man_0003/Scene - Puppet man_0003.663.png</pathurl>
                      <rate>
                        <timebase>24</timebase>
                        <ntsc>FALSE</ntsc>
                      </rate>
                      <duration>720</duration>
                      <timecode>
                        <rate>
                          <timebase>24</timebase>
                          <ntsc>FALSE</ntsc>
                        </rate>
                      </timecode>
                      <media>
                        <video>
                          <duration>1</duration>
                          <samplecharacteristics>
                            <anamorphic>FALSE</anamorphic>
                            <pixelaspectratio>square</pixelaspectratio>
                            <fielddominance>none</fielddominance>
                            <width>1920</width>
                            <height>1080</height>
                          </samplecharacteristics>
                        </video>
                      </media>
                    </file>
                  </clipitem>
                </track>
              </video>
            </media>
          </clip>
          <clip explodedTracks="true" frameBlend="FALSE" id="masterclip-666">
            <uuid>c577cbc7-128f-401d-833d-17d0df0352c3</uuid>
            <masterclipid>masterclip-666</masterclipid>
            <ismasterclip>TRUE</ismasterclip>
            <duration>720</duration>
            <in>0</in>
            <out>720</out>
            <name>Scene - Puppet man_0003.664.png</name>
            <rate>
              <timebase>24</timebase>
              <ntsc>FALSE</ntsc>
            </rate>
            <media>
              <video>
                <track>
                  <clipitem frameBlend="FALSE" id="clipitem-667">
                    <name>Scene - Puppet man_0003.664.png</name>
                    <masterclipid>masterclip-666</masterclipid>
                    <rate>
                      <timebase>24</timebase>
                      <ntsc>FALSE</ntsc>
                    </rate>
                    <alphatype>straight</alphatype>
                    <pixelaspectratio>square</pixelaspectratio>
                    <anamorphic>FALSE</anamorphic>
                    <file id="file-666">
                      <name>Scene - Puppet man_0003.664.png</name>
                      <pathurl>file://localhost/C:/Users/jmrey/OneDrive/Desktop/Programmin Stuff/Projects/conversation-simulator/resources/videos/Scene - Puppet man_0003/Scene - Puppet man_0003.664.png</pathurl>
                      <rate>
                        <timebase>24</timebase>
                        <ntsc>FALSE</ntsc>
                      </rate>
                      <duration>720</duration>
                      <timecode>
                        <rate>
                          <timebase>24</timebase>
                          <ntsc>FALSE</ntsc>
                        </rate>
                      </timecode>
                      <media>
                        <video>
                          <duration>1</duration>
                          <samplecharacteristics>
                            <anamorphic>FALSE</anamorphic>
                            <pixelaspectratio>square</pixelaspectratio>
                            <fielddominance>none</fielddominance>
                            <width>1920</width>
                            <height>1080</height>
                          </samplecharacteristics>
                        </video>
                      </media>
                    </file>
                  </clipitem>
                </track>
              </video>
            </media>
          </clip>
          <clip explodedTracks="true" frameBlend="FALSE" id="masterclip-667">
            <uuid>1ca5792e-7538-4ada-a2bc-e5e8a1705e8e</uuid>
            <masterclipid>masterclip-667</masterclipid>
            <ismasterclip>TRUE</ismasterclip>
            <duration>720</duration>
            <in>0</in>
            <out>720</out>
            <name>Scene - Puppet man_0003.665.png</name>
            <rate>
              <timebase>24</timebase>
              <ntsc>FALSE</ntsc>
            </rate>
            <media>
              <video>
                <track>
                  <clipitem frameBlend="FALSE" id="clipitem-668">
                    <name>Scene - Puppet man_0003.665.png</name>
                    <masterclipid>masterclip-667</masterclipid>
                    <rate>
                      <timebase>24</timebase>
                      <ntsc>FALSE</ntsc>
                    </rate>
                    <alphatype>straight</alphatype>
                    <pixelaspectratio>square</pixelaspectratio>
                    <anamorphic>FALSE</anamorphic>
                    <file id="file-667">
                      <name>Scene - Puppet man_0003.665.png</name>
                      <pathurl>file://localhost/C:/Users/jmrey/OneDrive/Desktop/Programmin Stuff/Projects/conversation-simulator/resources/videos/Scene - Puppet man_0003/Scene - Puppet man_0003.665.png</pathurl>
                      <rate>
                        <timebase>24</timebase>
                        <ntsc>FALSE</ntsc>
                      </rate>
                      <duration>720</duration>
                      <timecode>
                        <rate>
                          <timebase>24</timebase>
                          <ntsc>FALSE</ntsc>
                        </rate>
                      </timecode>
                      <media>
                        <video>
                          <duration>1</duration>
                          <samplecharacteristics>
                            <anamorphic>FALSE</anamorphic>
                            <pixelaspectratio>square</pixelaspectratio>
                            <fielddominance>none</fielddominance>
                            <width>1920</width>
                            <height>1080</height>
                          </samplecharacteristics>
                        </video>
                      </media>
                    </file>
                  </clipitem>
                </track>
              </video>
            </media>
          </clip>
          <clip explodedTracks="true" frameBlend="FALSE" id="masterclip-668">
            <uuid>6845afd2-968e-4157-ad93-a8bc6a0ed7e0</uuid>
            <masterclipid>masterclip-668</masterclipid>
            <ismasterclip>TRUE</ismasterclip>
            <duration>720</duration>
            <in>0</in>
            <out>720</out>
            <name>Scene - Puppet man_0003.666.png</name>
            <rate>
              <timebase>24</timebase>
              <ntsc>FALSE</ntsc>
            </rate>
            <media>
              <video>
                <track>
                  <clipitem frameBlend="FALSE" id="clipitem-669">
                    <name>Scene - Puppet man_0003.666.png</name>
                    <masterclipid>masterclip-668</masterclipid>
                    <rate>
                      <timebase>24</timebase>
                      <ntsc>FALSE</ntsc>
                    </rate>
                    <alphatype>straight</alphatype>
                    <pixelaspectratio>square</pixelaspectratio>
                    <anamorphic>FALSE</anamorphic>
                    <file id="file-668">
                      <name>Scene - Puppet man_0003.666.png</name>
                      <pathurl>file://localhost/C:/Users/jmrey/OneDrive/Desktop/Programmin Stuff/Projects/conversation-simulator/resources/videos/Scene - Puppet man_0003/Scene - Puppet man_0003.666.png</pathurl>
                      <rate>
                        <timebase>24</timebase>
                        <ntsc>FALSE</ntsc>
                      </rate>
                      <duration>720</duration>
                      <timecode>
                        <rate>
                          <timebase>24</timebase>
                          <ntsc>FALSE</ntsc>
                        </rate>
                      </timecode>
                      <media>
                        <video>
                          <duration>1</duration>
                          <samplecharacteristics>
                            <anamorphic>FALSE</anamorphic>
                            <pixelaspectratio>square</pixelaspectratio>
                            <fielddominance>none</fielddominance>
                            <width>1920</width>
                            <height>1080</height>
                          </samplecharacteristics>
                        </video>
                      </media>
                    </file>
                  </clipitem>
                </track>
              </video>
            </media>
          </clip>
          <clip explodedTracks="true" frameBlend="FALSE" id="masterclip-669">
            <uuid>7956725f-4252-41e1-ab12-3155d7510a17</uuid>
            <masterclipid>masterclip-669</masterclipid>
            <ismasterclip>TRUE</ismasterclip>
            <duration>720</duration>
            <in>0</in>
            <out>720</out>
            <name>Scene - Puppet man_0003.667.png</name>
            <rate>
              <timebase>24</timebase>
              <ntsc>FALSE</ntsc>
            </rate>
            <media>
              <video>
                <track>
                  <clipitem frameBlend="FALSE" id="clipitem-670">
                    <name>Scene - Puppet man_0003.667.png</name>
                    <masterclipid>masterclip-669</masterclipid>
                    <rate>
                      <timebase>24</timebase>
                      <ntsc>FALSE</ntsc>
                    </rate>
                    <alphatype>straight</alphatype>
                    <pixelaspectratio>square</pixelaspectratio>
                    <anamorphic>FALSE</anamorphic>
                    <file id="file-669">
                      <name>Scene - Puppet man_0003.667.png</name>
                      <pathurl>file://localhost/C:/Users/jmrey/OneDrive/Desktop/Programmin Stuff/Projects/conversation-simulator/resources/videos/Scene - Puppet man_0003/Scene - Puppet man_0003.667.png</pathurl>
                      <rate>
                        <timebase>24</timebase>
                        <ntsc>FALSE</ntsc>
                      </rate>
                      <duration>720</duration>
                      <timecode>
                        <rate>
                          <timebase>24</timebase>
                          <ntsc>FALSE</ntsc>
                        </rate>
                      </timecode>
                      <media>
                        <video>
                          <duration>1</duration>
                          <samplecharacteristics>
                            <anamorphic>FALSE</anamorphic>
                            <pixelaspectratio>square</pixelaspectratio>
                            <fielddominance>none</fielddominance>
                            <width>1920</width>
                            <height>1080</height>
                          </samplecharacteristics>
                        </video>
                      </media>
                    </file>
                  </clipitem>
                </track>
              </video>
            </media>
          </clip>
          <clip explodedTracks="true" frameBlend="FALSE" id="masterclip-670">
            <uuid>5aa4cebd-654c-4b5e-b858-39d99442fb19</uuid>
            <masterclipid>masterclip-670</masterclipid>
            <ismasterclip>TRUE</ismasterclip>
            <duration>720</duration>
            <in>0</in>
            <out>720</out>
            <name>Scene - Puppet man_0003.668.png</name>
            <rate>
              <timebase>24</timebase>
              <ntsc>FALSE</ntsc>
            </rate>
            <media>
              <video>
                <track>
                  <clipitem frameBlend="FALSE" id="clipitem-671">
                    <name>Scene - Puppet man_0003.668.png</name>
                    <masterclipid>masterclip-670</masterclipid>
                    <rate>
                      <timebase>24</timebase>
                      <ntsc>FALSE</ntsc>
                    </rate>
                    <alphatype>straight</alphatype>
                    <pixelaspectratio>square</pixelaspectratio>
                    <anamorphic>FALSE</anamorphic>
                    <file id="file-670">
                      <name>Scene - Puppet man_0003.668.png</name>
                      <pathurl>file://localhost/C:/Users/jmrey/OneDrive/Desktop/Programmin Stuff/Projects/conversation-simulator/resources/videos/Scene - Puppet man_0003/Scene - Puppet man_0003.668.png</pathurl>
                      <rate>
                        <timebase>24</timebase>
                        <ntsc>FALSE</ntsc>
                      </rate>
                      <duration>720</duration>
                      <timecode>
                        <rate>
                          <timebase>24</timebase>
                          <ntsc>FALSE</ntsc>
                        </rate>
                      </timecode>
                      <media>
                        <video>
                          <duration>1</duration>
                          <samplecharacteristics>
                            <anamorphic>FALSE</anamorphic>
                            <pixelaspectratio>square</pixelaspectratio>
                            <fielddominance>none</fielddominance>
                            <width>1920</width>
                            <height>1080</height>
                          </samplecharacteristics>
                        </video>
                      </media>
                    </file>
                  </clipitem>
                </track>
              </video>
            </media>
          </clip>
          <clip explodedTracks="true" frameBlend="FALSE" id="masterclip-671">
            <uuid>efc8aa72-5f64-4541-9f3b-eec9608c19ef</uuid>
            <masterclipid>masterclip-671</masterclipid>
            <ismasterclip>TRUE</ismasterclip>
            <duration>720</duration>
            <in>0</in>
            <out>720</out>
            <name>Scene - Puppet man_0003.669.png</name>
            <rate>
              <timebase>24</timebase>
              <ntsc>FALSE</ntsc>
            </rate>
            <media>
              <video>
                <track>
                  <clipitem frameBlend="FALSE" id="clipitem-672">
                    <name>Scene - Puppet man_0003.669.png</name>
                    <masterclipid>masterclip-671</masterclipid>
                    <rate>
                      <timebase>24</timebase>
                      <ntsc>FALSE</ntsc>
                    </rate>
                    <alphatype>straight</alphatype>
                    <pixelaspectratio>square</pixelaspectratio>
                    <anamorphic>FALSE</anamorphic>
                    <file id="file-671">
                      <name>Scene - Puppet man_0003.669.png</name>
                      <pathurl>file://localhost/C:/Users/jmrey/OneDrive/Desktop/Programmin Stuff/Projects/conversation-simulator/resources/videos/Scene - Puppet man_0003/Scene - Puppet man_0003.669.png</pathurl>
                      <rate>
                        <timebase>24</timebase>
                        <ntsc>FALSE</ntsc>
                      </rate>
                      <duration>720</duration>
                      <timecode>
                        <rate>
                          <timebase>24</timebase>
                          <ntsc>FALSE</ntsc>
                        </rate>
                      </timecode>
                      <media>
                        <video>
                          <duration>1</duration>
                          <samplecharacteristics>
                            <anamorphic>FALSE</anamorphic>
                            <pixelaspectratio>square</pixelaspectratio>
                            <fielddominance>none</fielddominance>
                            <width>1920</width>
                            <height>1080</height>
                          </samplecharacteristics>
                        </video>
                      </media>
                    </file>
                  </clipitem>
                </track>
              </video>
            </media>
          </clip>
          <clip explodedTracks="true" frameBlend="FALSE" id="masterclip-672">
            <uuid>6430b99e-a919-4e49-ab8a-036292ffc36d</uuid>
            <masterclipid>masterclip-672</masterclipid>
            <ismasterclip>TRUE</ismasterclip>
            <duration>720</duration>
            <in>0</in>
            <out>720</out>
            <name>Scene - Puppet man_0003.670.png</name>
            <rate>
              <timebase>24</timebase>
              <ntsc>FALSE</ntsc>
            </rate>
            <media>
              <video>
                <track>
                  <clipitem frameBlend="FALSE" id="clipitem-673">
                    <name>Scene - Puppet man_0003.670.png</name>
                    <masterclipid>masterclip-672</masterclipid>
                    <rate>
                      <timebase>24</timebase>
                      <ntsc>FALSE</ntsc>
                    </rate>
                    <alphatype>straight</alphatype>
                    <pixelaspectratio>square</pixelaspectratio>
                    <anamorphic>FALSE</anamorphic>
                    <file id="file-672">
                      <name>Scene - Puppet man_0003.670.png</name>
                      <pathurl>file://localhost/C:/Users/jmrey/OneDrive/Desktop/Programmin Stuff/Projects/conversation-simulator/resources/videos/Scene - Puppet man_0003/Scene - Puppet man_0003.670.png</pathurl>
                      <rate>
                        <timebase>24</timebase>
                        <ntsc>FALSE</ntsc>
                      </rate>
                      <duration>720</duration>
                      <timecode>
                        <rate>
                          <timebase>24</timebase>
                          <ntsc>FALSE</ntsc>
                        </rate>
                      </timecode>
                      <media>
                        <video>
                          <duration>1</duration>
                          <samplecharacteristics>
                            <anamorphic>FALSE</anamorphic>
                            <pixelaspectratio>square</pixelaspectratio>
                            <fielddominance>none</fielddominance>
                            <width>1920</width>
                            <height>1080</height>
                          </samplecharacteristics>
                        </video>
                      </media>
                    </file>
                  </clipitem>
                </track>
              </video>
            </media>
          </clip>
          <clip explodedTracks="true" frameBlend="FALSE" id="masterclip-673">
            <uuid>eb4abd56-2582-4b89-bd0f-83e09da8b4b1</uuid>
            <masterclipid>masterclip-673</masterclipid>
            <ismasterclip>TRUE</ismasterclip>
            <duration>720</duration>
            <in>0</in>
            <out>720</out>
            <name>Scene - Puppet man_0003.671.png</name>
            <rate>
              <timebase>24</timebase>
              <ntsc>FALSE</ntsc>
            </rate>
            <media>
              <video>
                <track>
                  <clipitem frameBlend="FALSE" id="clipitem-674">
                    <name>Scene - Puppet man_0003.671.png</name>
                    <masterclipid>masterclip-673</masterclipid>
                    <rate>
                      <timebase>24</timebase>
                      <ntsc>FALSE</ntsc>
                    </rate>
                    <alphatype>straight</alphatype>
                    <pixelaspectratio>square</pixelaspectratio>
                    <anamorphic>FALSE</anamorphic>
                    <file id="file-673">
                      <name>Scene - Puppet man_0003.671.png</name>
                      <pathurl>file://localhost/C:/Users/jmrey/OneDrive/Desktop/Programmin Stuff/Projects/conversation-simulator/resources/videos/Scene - Puppet man_0003/Scene - Puppet man_0003.671.png</pathurl>
                      <rate>
                        <timebase>24</timebase>
                        <ntsc>FALSE</ntsc>
                      </rate>
                      <duration>720</duration>
                      <timecode>
                        <rate>
                          <timebase>24</timebase>
                          <ntsc>FALSE</ntsc>
                        </rate>
                      </timecode>
                      <media>
                        <video>
                          <duration>1</duration>
                          <samplecharacteristics>
                            <anamorphic>FALSE</anamorphic>
                            <pixelaspectratio>square</pixelaspectratio>
                            <fielddominance>none</fielddominance>
                            <width>1920</width>
                            <height>1080</height>
                          </samplecharacteristics>
                        </video>
                      </media>
                    </file>
                  </clipitem>
                </track>
              </video>
            </media>
          </clip>
          <clip explodedTracks="true" frameBlend="FALSE" id="masterclip-674">
            <uuid>4dd3a4a0-099f-4d06-a872-9b902ba22363</uuid>
            <masterclipid>masterclip-674</masterclipid>
            <ismasterclip>TRUE</ismasterclip>
            <duration>720</duration>
            <in>0</in>
            <out>720</out>
            <name>Scene - Puppet man_0003.672.png</name>
            <rate>
              <timebase>24</timebase>
              <ntsc>FALSE</ntsc>
            </rate>
            <media>
              <video>
                <track>
                  <clipitem frameBlend="FALSE" id="clipitem-675">
                    <name>Scene - Puppet man_0003.672.png</name>
                    <masterclipid>masterclip-674</masterclipid>
                    <rate>
                      <timebase>24</timebase>
                      <ntsc>FALSE</ntsc>
                    </rate>
                    <alphatype>straight</alphatype>
                    <pixelaspectratio>square</pixelaspectratio>
                    <anamorphic>FALSE</anamorphic>
                    <file id="file-674">
                      <name>Scene - Puppet man_0003.672.png</name>
                      <pathurl>file://localhost/C:/Users/jmrey/OneDrive/Desktop/Programmin Stuff/Projects/conversation-simulator/resources/videos/Scene - Puppet man_0003/Scene - Puppet man_0003.672.png</pathurl>
                      <rate>
                        <timebase>24</timebase>
                        <ntsc>FALSE</ntsc>
                      </rate>
                      <duration>720</duration>
                      <timecode>
                        <rate>
                          <timebase>24</timebase>
                          <ntsc>FALSE</ntsc>
                        </rate>
                      </timecode>
                      <media>
                        <video>
                          <duration>1</duration>
                          <samplecharacteristics>
                            <anamorphic>FALSE</anamorphic>
                            <pixelaspectratio>square</pixelaspectratio>
                            <fielddominance>none</fielddominance>
                            <width>1920</width>
                            <height>1080</height>
                          </samplecharacteristics>
                        </video>
                      </media>
                    </file>
                  </clipitem>
                </track>
              </video>
            </media>
          </clip>
          <clip explodedTracks="true" frameBlend="FALSE" id="masterclip-675">
            <uuid>51f945bc-77ae-48e4-87d9-072e4b260119</uuid>
            <masterclipid>masterclip-675</masterclipid>
            <ismasterclip>TRUE</ismasterclip>
            <duration>720</duration>
            <in>0</in>
            <out>720</out>
            <name>Scene - Puppet man_0003.673.png</name>
            <rate>
              <timebase>24</timebase>
              <ntsc>FALSE</ntsc>
            </rate>
            <media>
              <video>
                <track>
                  <clipitem frameBlend="FALSE" id="clipitem-676">
                    <name>Scene - Puppet man_0003.673.png</name>
                    <masterclipid>masterclip-675</masterclipid>
                    <rate>
                      <timebase>24</timebase>
                      <ntsc>FALSE</ntsc>
                    </rate>
                    <alphatype>straight</alphatype>
                    <pixelaspectratio>square</pixelaspectratio>
                    <anamorphic>FALSE</anamorphic>
                    <file id="file-675">
                      <name>Scene - Puppet man_0003.673.png</name>
                      <pathurl>file://localhost/C:/Users/jmrey/OneDrive/Desktop/Programmin Stuff/Projects/conversation-simulator/resources/videos/Scene - Puppet man_0003/Scene - Puppet man_0003.673.png</pathurl>
                      <rate>
                        <timebase>24</timebase>
                        <ntsc>FALSE</ntsc>
                      </rate>
                      <duration>720</duration>
                      <timecode>
                        <rate>
                          <timebase>24</timebase>
                          <ntsc>FALSE</ntsc>
                        </rate>
                      </timecode>
                      <media>
                        <video>
                          <duration>1</duration>
                          <samplecharacteristics>
                            <anamorphic>FALSE</anamorphic>
                            <pixelaspectratio>square</pixelaspectratio>
                            <fielddominance>none</fielddominance>
                            <width>1920</width>
                            <height>1080</height>
                          </samplecharacteristics>
                        </video>
                      </media>
                    </file>
                  </clipitem>
                </track>
              </video>
            </media>
          </clip>
          <clip explodedTracks="true" frameBlend="FALSE" id="masterclip-676">
            <uuid>16949e12-62d6-42b9-8803-2c6875d30c2a</uuid>
            <masterclipid>masterclip-676</masterclipid>
            <ismasterclip>TRUE</ismasterclip>
            <duration>720</duration>
            <in>0</in>
            <out>720</out>
            <name>Scene - Puppet man_0003.674.png</name>
            <rate>
              <timebase>24</timebase>
              <ntsc>FALSE</ntsc>
            </rate>
            <media>
              <video>
                <track>
                  <clipitem frameBlend="FALSE" id="clipitem-677">
                    <name>Scene - Puppet man_0003.674.png</name>
                    <masterclipid>masterclip-676</masterclipid>
                    <rate>
                      <timebase>24</timebase>
                      <ntsc>FALSE</ntsc>
                    </rate>
                    <alphatype>straight</alphatype>
                    <pixelaspectratio>square</pixelaspectratio>
                    <anamorphic>FALSE</anamorphic>
                    <file id="file-676">
                      <name>Scene - Puppet man_0003.674.png</name>
                      <pathurl>file://localhost/C:/Users/jmrey/OneDrive/Desktop/Programmin Stuff/Projects/conversation-simulator/resources/videos/Scene - Puppet man_0003/Scene - Puppet man_0003.674.png</pathurl>
                      <rate>
                        <timebase>24</timebase>
                        <ntsc>FALSE</ntsc>
                      </rate>
                      <duration>720</duration>
                      <timecode>
                        <rate>
                          <timebase>24</timebase>
                          <ntsc>FALSE</ntsc>
                        </rate>
                      </timecode>
                      <media>
                        <video>
                          <duration>1</duration>
                          <samplecharacteristics>
                            <anamorphic>FALSE</anamorphic>
                            <pixelaspectratio>square</pixelaspectratio>
                            <fielddominance>none</fielddominance>
                            <width>1920</width>
                            <height>1080</height>
                          </samplecharacteristics>
                        </video>
                      </media>
                    </file>
                  </clipitem>
                </track>
              </video>
            </media>
          </clip>
          <clip explodedTracks="true" frameBlend="FALSE" id="masterclip-677">
            <uuid>57ac4cc9-feee-4656-8977-61cb085aab34</uuid>
            <masterclipid>masterclip-677</masterclipid>
            <ismasterclip>TRUE</ismasterclip>
            <duration>720</duration>
            <in>0</in>
            <out>720</out>
            <name>Scene - Puppet man_0003.675.png</name>
            <rate>
              <timebase>24</timebase>
              <ntsc>FALSE</ntsc>
            </rate>
            <media>
              <video>
                <track>
                  <clipitem frameBlend="FALSE" id="clipitem-678">
                    <name>Scene - Puppet man_0003.675.png</name>
                    <masterclipid>masterclip-677</masterclipid>
                    <rate>
                      <timebase>24</timebase>
                      <ntsc>FALSE</ntsc>
                    </rate>
                    <alphatype>straight</alphatype>
                    <pixelaspectratio>square</pixelaspectratio>
                    <anamorphic>FALSE</anamorphic>
                    <file id="file-677">
                      <name>Scene - Puppet man_0003.675.png</name>
                      <pathurl>file://localhost/C:/Users/jmrey/OneDrive/Desktop/Programmin Stuff/Projects/conversation-simulator/resources/videos/Scene - Puppet man_0003/Scene - Puppet man_0003.675.png</pathurl>
                      <rate>
                        <timebase>24</timebase>
                        <ntsc>FALSE</ntsc>
                      </rate>
                      <duration>720</duration>
                      <timecode>
                        <rate>
                          <timebase>24</timebase>
                          <ntsc>FALSE</ntsc>
                        </rate>
                      </timecode>
                      <media>
                        <video>
                          <duration>1</duration>
                          <samplecharacteristics>
                            <anamorphic>FALSE</anamorphic>
                            <pixelaspectratio>square</pixelaspectratio>
                            <fielddominance>none</fielddominance>
                            <width>1920</width>
                            <height>1080</height>
                          </samplecharacteristics>
                        </video>
                      </media>
                    </file>
                  </clipitem>
                </track>
              </video>
            </media>
          </clip>
          <clip explodedTracks="true" frameBlend="FALSE" id="masterclip-678">
            <uuid>67f5ce79-c2d6-4a28-92d5-14a6369c9e25</uuid>
            <masterclipid>masterclip-678</masterclipid>
            <ismasterclip>TRUE</ismasterclip>
            <duration>720</duration>
            <in>0</in>
            <out>720</out>
            <name>Scene - Puppet man_0003.676.png</name>
            <rate>
              <timebase>24</timebase>
              <ntsc>FALSE</ntsc>
            </rate>
            <media>
              <video>
                <track>
                  <clipitem frameBlend="FALSE" id="clipitem-679">
                    <name>Scene - Puppet man_0003.676.png</name>
                    <masterclipid>masterclip-678</masterclipid>
                    <rate>
                      <timebase>24</timebase>
                      <ntsc>FALSE</ntsc>
                    </rate>
                    <alphatype>straight</alphatype>
                    <pixelaspectratio>square</pixelaspectratio>
                    <anamorphic>FALSE</anamorphic>
                    <file id="file-678">
                      <name>Scene - Puppet man_0003.676.png</name>
                      <pathurl>file://localhost/C:/Users/jmrey/OneDrive/Desktop/Programmin Stuff/Projects/conversation-simulator/resources/videos/Scene - Puppet man_0003/Scene - Puppet man_0003.676.png</pathurl>
                      <rate>
                        <timebase>24</timebase>
                        <ntsc>FALSE</ntsc>
                      </rate>
                      <duration>720</duration>
                      <timecode>
                        <rate>
                          <timebase>24</timebase>
                          <ntsc>FALSE</ntsc>
                        </rate>
                      </timecode>
                      <media>
                        <video>
                          <duration>1</duration>
                          <samplecharacteristics>
                            <anamorphic>FALSE</anamorphic>
                            <pixelaspectratio>square</pixelaspectratio>
                            <fielddominance>none</fielddominance>
                            <width>1920</width>
                            <height>1080</height>
                          </samplecharacteristics>
                        </video>
                      </media>
                    </file>
                  </clipitem>
                </track>
              </video>
            </media>
          </clip>
          <clip explodedTracks="true" frameBlend="FALSE" id="masterclip-679">
            <uuid>9cb6d35d-400a-4384-9b6c-4c7e431faa5c</uuid>
            <masterclipid>masterclip-679</masterclipid>
            <ismasterclip>TRUE</ismasterclip>
            <duration>720</duration>
            <in>0</in>
            <out>720</out>
            <name>Scene - Puppet man_0003.677.png</name>
            <rate>
              <timebase>24</timebase>
              <ntsc>FALSE</ntsc>
            </rate>
            <media>
              <video>
                <track>
                  <clipitem frameBlend="FALSE" id="clipitem-680">
                    <name>Scene - Puppet man_0003.677.png</name>
                    <masterclipid>masterclip-679</masterclipid>
                    <rate>
                      <timebase>24</timebase>
                      <ntsc>FALSE</ntsc>
                    </rate>
                    <alphatype>straight</alphatype>
                    <pixelaspectratio>square</pixelaspectratio>
                    <anamorphic>FALSE</anamorphic>
                    <file id="file-679">
                      <name>Scene - Puppet man_0003.677.png</name>
                      <pathurl>file://localhost/C:/Users/jmrey/OneDrive/Desktop/Programmin Stuff/Projects/conversation-simulator/resources/videos/Scene - Puppet man_0003/Scene - Puppet man_0003.677.png</pathurl>
                      <rate>
                        <timebase>24</timebase>
                        <ntsc>FALSE</ntsc>
                      </rate>
                      <duration>720</duration>
                      <timecode>
                        <rate>
                          <timebase>24</timebase>
                          <ntsc>FALSE</ntsc>
                        </rate>
                      </timecode>
                      <media>
                        <video>
                          <duration>1</duration>
                          <samplecharacteristics>
                            <anamorphic>FALSE</anamorphic>
                            <pixelaspectratio>square</pixelaspectratio>
                            <fielddominance>none</fielddominance>
                            <width>1920</width>
                            <height>1080</height>
                          </samplecharacteristics>
                        </video>
                      </media>
                    </file>
                  </clipitem>
                </track>
              </video>
            </media>
          </clip>
          <clip explodedTracks="true" frameBlend="FALSE" id="masterclip-680">
            <uuid>de23d753-c602-42c6-a8b7-c3041aaa6ef0</uuid>
            <masterclipid>masterclip-680</masterclipid>
            <ismasterclip>TRUE</ismasterclip>
            <duration>720</duration>
            <in>0</in>
            <out>720</out>
            <name>Scene - Puppet man_0003.678.png</name>
            <rate>
              <timebase>24</timebase>
              <ntsc>FALSE</ntsc>
            </rate>
            <media>
              <video>
                <track>
                  <clipitem frameBlend="FALSE" id="clipitem-681">
                    <name>Scene - Puppet man_0003.678.png</name>
                    <masterclipid>masterclip-680</masterclipid>
                    <rate>
                      <timebase>24</timebase>
                      <ntsc>FALSE</ntsc>
                    </rate>
                    <alphatype>straight</alphatype>
                    <pixelaspectratio>square</pixelaspectratio>
                    <anamorphic>FALSE</anamorphic>
                    <file id="file-680">
                      <name>Scene - Puppet man_0003.678.png</name>
                      <pathurl>file://localhost/C:/Users/jmrey/OneDrive/Desktop/Programmin Stuff/Projects/conversation-simulator/resources/videos/Scene - Puppet man_0003/Scene - Puppet man_0003.678.png</pathurl>
                      <rate>
                        <timebase>24</timebase>
                        <ntsc>FALSE</ntsc>
                      </rate>
                      <duration>720</duration>
                      <timecode>
                        <rate>
                          <timebase>24</timebase>
                          <ntsc>FALSE</ntsc>
                        </rate>
                      </timecode>
                      <media>
                        <video>
                          <duration>1</duration>
                          <samplecharacteristics>
                            <anamorphic>FALSE</anamorphic>
                            <pixelaspectratio>square</pixelaspectratio>
                            <fielddominance>none</fielddominance>
                            <width>1920</width>
                            <height>1080</height>
                          </samplecharacteristics>
                        </video>
                      </media>
                    </file>
                  </clipitem>
                </track>
              </video>
            </media>
          </clip>
          <clip explodedTracks="true" frameBlend="FALSE" id="masterclip-681">
            <uuid>e753e8b8-3d48-4c76-8905-57278f34e8dc</uuid>
            <masterclipid>masterclip-681</masterclipid>
            <ismasterclip>TRUE</ismasterclip>
            <duration>720</duration>
            <in>0</in>
            <out>720</out>
            <name>Scene - Puppet man_0003.679.png</name>
            <rate>
              <timebase>24</timebase>
              <ntsc>FALSE</ntsc>
            </rate>
            <media>
              <video>
                <track>
                  <clipitem frameBlend="FALSE" id="clipitem-682">
                    <name>Scene - Puppet man_0003.679.png</name>
                    <masterclipid>masterclip-681</masterclipid>
                    <rate>
                      <timebase>24</timebase>
                      <ntsc>FALSE</ntsc>
                    </rate>
                    <alphatype>straight</alphatype>
                    <pixelaspectratio>square</pixelaspectratio>
                    <anamorphic>FALSE</anamorphic>
                    <file id="file-681">
                      <name>Scene - Puppet man_0003.679.png</name>
                      <pathurl>file://localhost/C:/Users/jmrey/OneDrive/Desktop/Programmin Stuff/Projects/conversation-simulator/resources/videos/Scene - Puppet man_0003/Scene - Puppet man_0003.679.png</pathurl>
                      <rate>
                        <timebase>24</timebase>
                        <ntsc>FALSE</ntsc>
                      </rate>
                      <duration>720</duration>
                      <timecode>
                        <rate>
                          <timebase>24</timebase>
                          <ntsc>FALSE</ntsc>
                        </rate>
                      </timecode>
                      <media>
                        <video>
                          <duration>1</duration>
                          <samplecharacteristics>
                            <anamorphic>FALSE</anamorphic>
                            <pixelaspectratio>square</pixelaspectratio>
                            <fielddominance>none</fielddominance>
                            <width>1920</width>
                            <height>1080</height>
                          </samplecharacteristics>
                        </video>
                      </media>
                    </file>
                  </clipitem>
                </track>
              </video>
            </media>
          </clip>
          <clip explodedTracks="true" frameBlend="FALSE" id="masterclip-682">
            <uuid>f3e81876-4631-4938-8bd8-a099266821eb</uuid>
            <masterclipid>masterclip-682</masterclipid>
            <ismasterclip>TRUE</ismasterclip>
            <duration>720</duration>
            <in>0</in>
            <out>720</out>
            <name>Scene - Puppet man_0003.680.png</name>
            <rate>
              <timebase>24</timebase>
              <ntsc>FALSE</ntsc>
            </rate>
            <media>
              <video>
                <track>
                  <clipitem frameBlend="FALSE" id="clipitem-683">
                    <name>Scene - Puppet man_0003.680.png</name>
                    <masterclipid>masterclip-682</masterclipid>
                    <rate>
                      <timebase>24</timebase>
                      <ntsc>FALSE</ntsc>
                    </rate>
                    <alphatype>straight</alphatype>
                    <pixelaspectratio>square</pixelaspectratio>
                    <anamorphic>FALSE</anamorphic>
                    <file id="file-682">
                      <name>Scene - Puppet man_0003.680.png</name>
                      <pathurl>file://localhost/C:/Users/jmrey/OneDrive/Desktop/Programmin Stuff/Projects/conversation-simulator/resources/videos/Scene - Puppet man_0003/Scene - Puppet man_0003.680.png</pathurl>
                      <rate>
                        <timebase>24</timebase>
                        <ntsc>FALSE</ntsc>
                      </rate>
                      <duration>720</duration>
                      <timecode>
                        <rate>
                          <timebase>24</timebase>
                          <ntsc>FALSE</ntsc>
                        </rate>
                      </timecode>
                      <media>
                        <video>
                          <duration>1</duration>
                          <samplecharacteristics>
                            <anamorphic>FALSE</anamorphic>
                            <pixelaspectratio>square</pixelaspectratio>
                            <fielddominance>none</fielddominance>
                            <width>1920</width>
                            <height>1080</height>
                          </samplecharacteristics>
                        </video>
                      </media>
                    </file>
                  </clipitem>
                </track>
              </video>
            </media>
          </clip>
          <clip explodedTracks="true" frameBlend="FALSE" id="masterclip-683">
            <uuid>5906453b-e80a-4303-a711-150d51d35cbb</uuid>
            <masterclipid>masterclip-683</masterclipid>
            <ismasterclip>TRUE</ismasterclip>
            <duration>720</duration>
            <in>0</in>
            <out>720</out>
            <name>Scene - Puppet man_0003.681.png</name>
            <rate>
              <timebase>24</timebase>
              <ntsc>FALSE</ntsc>
            </rate>
            <media>
              <video>
                <track>
                  <clipitem frameBlend="FALSE" id="clipitem-684">
                    <name>Scene - Puppet man_0003.681.png</name>
                    <masterclipid>masterclip-683</masterclipid>
                    <rate>
                      <timebase>24</timebase>
                      <ntsc>FALSE</ntsc>
                    </rate>
                    <alphatype>straight</alphatype>
                    <pixelaspectratio>square</pixelaspectratio>
                    <anamorphic>FALSE</anamorphic>
                    <file id="file-683">
                      <name>Scene - Puppet man_0003.681.png</name>
                      <pathurl>file://localhost/C:/Users/jmrey/OneDrive/Desktop/Programmin Stuff/Projects/conversation-simulator/resources/videos/Scene - Puppet man_0003/Scene - Puppet man_0003.681.png</pathurl>
                      <rate>
                        <timebase>24</timebase>
                        <ntsc>FALSE</ntsc>
                      </rate>
                      <duration>720</duration>
                      <timecode>
                        <rate>
                          <timebase>24</timebase>
                          <ntsc>FALSE</ntsc>
                        </rate>
                      </timecode>
                      <media>
                        <video>
                          <duration>1</duration>
                          <samplecharacteristics>
                            <anamorphic>FALSE</anamorphic>
                            <pixelaspectratio>square</pixelaspectratio>
                            <fielddominance>none</fielddominance>
                            <width>1920</width>
                            <height>1080</height>
                          </samplecharacteristics>
                        </video>
                      </media>
                    </file>
                  </clipitem>
                </track>
              </video>
            </media>
          </clip>
          <clip explodedTracks="true" frameBlend="FALSE" id="masterclip-684">
            <uuid>73e90213-d97b-40be-a84e-5e4ce9f2f574</uuid>
            <masterclipid>masterclip-684</masterclipid>
            <ismasterclip>TRUE</ismasterclip>
            <duration>720</duration>
            <in>0</in>
            <out>720</out>
            <name>Scene - Puppet man_0003.682.png</name>
            <rate>
              <timebase>24</timebase>
              <ntsc>FALSE</ntsc>
            </rate>
            <media>
              <video>
                <track>
                  <clipitem frameBlend="FALSE" id="clipitem-685">
                    <name>Scene - Puppet man_0003.682.png</name>
                    <masterclipid>masterclip-684</masterclipid>
                    <rate>
                      <timebase>24</timebase>
                      <ntsc>FALSE</ntsc>
                    </rate>
                    <alphatype>straight</alphatype>
                    <pixelaspectratio>square</pixelaspectratio>
                    <anamorphic>FALSE</anamorphic>
                    <file id="file-684">
                      <name>Scene - Puppet man_0003.682.png</name>
                      <pathurl>file://localhost/C:/Users/jmrey/OneDrive/Desktop/Programmin Stuff/Projects/conversation-simulator/resources/videos/Scene - Puppet man_0003/Scene - Puppet man_0003.682.png</pathurl>
                      <rate>
                        <timebase>24</timebase>
                        <ntsc>FALSE</ntsc>
                      </rate>
                      <duration>720</duration>
                      <timecode>
                        <rate>
                          <timebase>24</timebase>
                          <ntsc>FALSE</ntsc>
                        </rate>
                      </timecode>
                      <media>
                        <video>
                          <duration>1</duration>
                          <samplecharacteristics>
                            <anamorphic>FALSE</anamorphic>
                            <pixelaspectratio>square</pixelaspectratio>
                            <fielddominance>none</fielddominance>
                            <width>1920</width>
                            <height>1080</height>
                          </samplecharacteristics>
                        </video>
                      </media>
                    </file>
                  </clipitem>
                </track>
              </video>
            </media>
          </clip>
          <clip explodedTracks="true" frameBlend="FALSE" id="masterclip-685">
            <uuid>e6fdec21-0720-4cb8-99b9-d9477b65d6fd</uuid>
            <masterclipid>masterclip-685</masterclipid>
            <ismasterclip>TRUE</ismasterclip>
            <duration>720</duration>
            <in>0</in>
            <out>720</out>
            <name>Scene - Puppet man_0003.683.png</name>
            <rate>
              <timebase>24</timebase>
              <ntsc>FALSE</ntsc>
            </rate>
            <media>
              <video>
                <track>
                  <clipitem frameBlend="FALSE" id="clipitem-686">
                    <name>Scene - Puppet man_0003.683.png</name>
                    <masterclipid>masterclip-685</masterclipid>
                    <rate>
                      <timebase>24</timebase>
                      <ntsc>FALSE</ntsc>
                    </rate>
                    <alphatype>straight</alphatype>
                    <pixelaspectratio>square</pixelaspectratio>
                    <anamorphic>FALSE</anamorphic>
                    <file id="file-685">
                      <name>Scene - Puppet man_0003.683.png</name>
                      <pathurl>file://localhost/C:/Users/jmrey/OneDrive/Desktop/Programmin Stuff/Projects/conversation-simulator/resources/videos/Scene - Puppet man_0003/Scene - Puppet man_0003.683.png</pathurl>
                      <rate>
                        <timebase>24</timebase>
                        <ntsc>FALSE</ntsc>
                      </rate>
                      <duration>720</duration>
                      <timecode>
                        <rate>
                          <timebase>24</timebase>
                          <ntsc>FALSE</ntsc>
                        </rate>
                      </timecode>
                      <media>
                        <video>
                          <duration>1</duration>
                          <samplecharacteristics>
                            <anamorphic>FALSE</anamorphic>
                            <pixelaspectratio>square</pixelaspectratio>
                            <fielddominance>none</fielddominance>
                            <width>1920</width>
                            <height>1080</height>
                          </samplecharacteristics>
                        </video>
                      </media>
                    </file>
                  </clipitem>
                </track>
              </video>
            </media>
          </clip>
          <clip explodedTracks="true" frameBlend="FALSE" id="masterclip-686">
            <uuid>ffc0c41f-1d77-45cc-8c90-9a8ccb7db1c8</uuid>
            <masterclipid>masterclip-686</masterclipid>
            <ismasterclip>TRUE</ismasterclip>
            <duration>720</duration>
            <in>0</in>
            <out>720</out>
            <name>Scene - Puppet man_0003.684.png</name>
            <rate>
              <timebase>24</timebase>
              <ntsc>FALSE</ntsc>
            </rate>
            <media>
              <video>
                <track>
                  <clipitem frameBlend="FALSE" id="clipitem-687">
                    <name>Scene - Puppet man_0003.684.png</name>
                    <masterclipid>masterclip-686</masterclipid>
                    <rate>
                      <timebase>24</timebase>
                      <ntsc>FALSE</ntsc>
                    </rate>
                    <alphatype>straight</alphatype>
                    <pixelaspectratio>square</pixelaspectratio>
                    <anamorphic>FALSE</anamorphic>
                    <file id="file-686">
                      <name>Scene - Puppet man_0003.684.png</name>
                      <pathurl>file://localhost/C:/Users/jmrey/OneDrive/Desktop/Programmin Stuff/Projects/conversation-simulator/resources/videos/Scene - Puppet man_0003/Scene - Puppet man_0003.684.png</pathurl>
                      <rate>
                        <timebase>24</timebase>
                        <ntsc>FALSE</ntsc>
                      </rate>
                      <duration>720</duration>
                      <timecode>
                        <rate>
                          <timebase>24</timebase>
                          <ntsc>FALSE</ntsc>
                        </rate>
                      </timecode>
                      <media>
                        <video>
                          <duration>1</duration>
                          <samplecharacteristics>
                            <anamorphic>FALSE</anamorphic>
                            <pixelaspectratio>square</pixelaspectratio>
                            <fielddominance>none</fielddominance>
                            <width>1920</width>
                            <height>1080</height>
                          </samplecharacteristics>
                        </video>
                      </media>
                    </file>
                  </clipitem>
                </track>
              </video>
            </media>
          </clip>
          <clip explodedTracks="true" frameBlend="FALSE" id="masterclip-687">
            <uuid>9471d9f6-0f53-4746-9397-e97c09aacbcd</uuid>
            <masterclipid>masterclip-687</masterclipid>
            <ismasterclip>TRUE</ismasterclip>
            <duration>720</duration>
            <in>0</in>
            <out>720</out>
            <name>Scene - Puppet man_0003.685.png</name>
            <rate>
              <timebase>24</timebase>
              <ntsc>FALSE</ntsc>
            </rate>
            <media>
              <video>
                <track>
                  <clipitem frameBlend="FALSE" id="clipitem-688">
                    <name>Scene - Puppet man_0003.685.png</name>
                    <masterclipid>masterclip-687</masterclipid>
                    <rate>
                      <timebase>24</timebase>
                      <ntsc>FALSE</ntsc>
                    </rate>
                    <alphatype>straight</alphatype>
                    <pixelaspectratio>square</pixelaspectratio>
                    <anamorphic>FALSE</anamorphic>
                    <file id="file-687">
                      <name>Scene - Puppet man_0003.685.png</name>
                      <pathurl>file://localhost/C:/Users/jmrey/OneDrive/Desktop/Programmin Stuff/Projects/conversation-simulator/resources/videos/Scene - Puppet man_0003/Scene - Puppet man_0003.685.png</pathurl>
                      <rate>
                        <timebase>24</timebase>
                        <ntsc>FALSE</ntsc>
                      </rate>
                      <duration>720</duration>
                      <timecode>
                        <rate>
                          <timebase>24</timebase>
                          <ntsc>FALSE</ntsc>
                        </rate>
                      </timecode>
                      <media>
                        <video>
                          <duration>1</duration>
                          <samplecharacteristics>
                            <anamorphic>FALSE</anamorphic>
                            <pixelaspectratio>square</pixelaspectratio>
                            <fielddominance>none</fielddominance>
                            <width>1920</width>
                            <height>1080</height>
                          </samplecharacteristics>
                        </video>
                      </media>
                    </file>
                  </clipitem>
                </track>
              </video>
            </media>
          </clip>
          <clip explodedTracks="true" frameBlend="FALSE" id="masterclip-688">
            <uuid>881eb8f4-0ec4-4c03-adaa-3b263f74eee1</uuid>
            <masterclipid>masterclip-688</masterclipid>
            <ismasterclip>TRUE</ismasterclip>
            <duration>720</duration>
            <in>0</in>
            <out>720</out>
            <name>Scene - Puppet man_0003.686.png</name>
            <rate>
              <timebase>24</timebase>
              <ntsc>FALSE</ntsc>
            </rate>
            <media>
              <video>
                <track>
                  <clipitem frameBlend="FALSE" id="clipitem-689">
                    <name>Scene - Puppet man_0003.686.png</name>
                    <masterclipid>masterclip-688</masterclipid>
                    <rate>
                      <timebase>24</timebase>
                      <ntsc>FALSE</ntsc>
                    </rate>
                    <alphatype>straight</alphatype>
                    <pixelaspectratio>square</pixelaspectratio>
                    <anamorphic>FALSE</anamorphic>
                    <file id="file-688">
                      <name>Scene - Puppet man_0003.686.png</name>
                      <pathurl>file://localhost/C:/Users/jmrey/OneDrive/Desktop/Programmin Stuff/Projects/conversation-simulator/resources/videos/Scene - Puppet man_0003/Scene - Puppet man_0003.686.png</pathurl>
                      <rate>
                        <timebase>24</timebase>
                        <ntsc>FALSE</ntsc>
                      </rate>
                      <duration>720</duration>
                      <timecode>
                        <rate>
                          <timebase>24</timebase>
                          <ntsc>FALSE</ntsc>
                        </rate>
                      </timecode>
                      <media>
                        <video>
                          <duration>1</duration>
                          <samplecharacteristics>
                            <anamorphic>FALSE</anamorphic>
                            <pixelaspectratio>square</pixelaspectratio>
                            <fielddominance>none</fielddominance>
                            <width>1920</width>
                            <height>1080</height>
                          </samplecharacteristics>
                        </video>
                      </media>
                    </file>
                  </clipitem>
                </track>
              </video>
            </media>
          </clip>
          <clip explodedTracks="true" frameBlend="FALSE" id="masterclip-689">
            <uuid>4a1372e5-ec89-4f1e-9835-508683c830ad</uuid>
            <masterclipid>masterclip-689</masterclipid>
            <ismasterclip>TRUE</ismasterclip>
            <duration>720</duration>
            <in>0</in>
            <out>720</out>
            <name>Scene - Puppet man_0003.687.png</name>
            <rate>
              <timebase>24</timebase>
              <ntsc>FALSE</ntsc>
            </rate>
            <media>
              <video>
                <track>
                  <clipitem frameBlend="FALSE" id="clipitem-690">
                    <name>Scene - Puppet man_0003.687.png</name>
                    <masterclipid>masterclip-689</masterclipid>
                    <rate>
                      <timebase>24</timebase>
                      <ntsc>FALSE</ntsc>
                    </rate>
                    <alphatype>straight</alphatype>
                    <pixelaspectratio>square</pixelaspectratio>
                    <anamorphic>FALSE</anamorphic>
                    <file id="file-689">
                      <name>Scene - Puppet man_0003.687.png</name>
                      <pathurl>file://localhost/C:/Users/jmrey/OneDrive/Desktop/Programmin Stuff/Projects/conversation-simulator/resources/videos/Scene - Puppet man_0003/Scene - Puppet man_0003.687.png</pathurl>
                      <rate>
                        <timebase>24</timebase>
                        <ntsc>FALSE</ntsc>
                      </rate>
                      <duration>720</duration>
                      <timecode>
                        <rate>
                          <timebase>24</timebase>
                          <ntsc>FALSE</ntsc>
                        </rate>
                      </timecode>
                      <media>
                        <video>
                          <duration>1</duration>
                          <samplecharacteristics>
                            <anamorphic>FALSE</anamorphic>
                            <pixelaspectratio>square</pixelaspectratio>
                            <fielddominance>none</fielddominance>
                            <width>1920</width>
                            <height>1080</height>
                          </samplecharacteristics>
                        </video>
                      </media>
                    </file>
                  </clipitem>
                </track>
              </video>
            </media>
          </clip>
          <clip explodedTracks="true" frameBlend="FALSE" id="masterclip-690">
            <uuid>4e8f920e-fe34-429e-952d-8478dfbaa433</uuid>
            <masterclipid>masterclip-690</masterclipid>
            <ismasterclip>TRUE</ismasterclip>
            <duration>720</duration>
            <in>0</in>
            <out>720</out>
            <name>Scene - Puppet man_0003.688.png</name>
            <rate>
              <timebase>24</timebase>
              <ntsc>FALSE</ntsc>
            </rate>
            <media>
              <video>
                <track>
                  <clipitem frameBlend="FALSE" id="clipitem-691">
                    <name>Scene - Puppet man_0003.688.png</name>
                    <masterclipid>masterclip-690</masterclipid>
                    <rate>
                      <timebase>24</timebase>
                      <ntsc>FALSE</ntsc>
                    </rate>
                    <alphatype>straight</alphatype>
                    <pixelaspectratio>square</pixelaspectratio>
                    <anamorphic>FALSE</anamorphic>
                    <file id="file-690">
                      <name>Scene - Puppet man_0003.688.png</name>
                      <pathurl>file://localhost/C:/Users/jmrey/OneDrive/Desktop/Programmin Stuff/Projects/conversation-simulator/resources/videos/Scene - Puppet man_0003/Scene - Puppet man_0003.688.png</pathurl>
                      <rate>
                        <timebase>24</timebase>
                        <ntsc>FALSE</ntsc>
                      </rate>
                      <duration>720</duration>
                      <timecode>
                        <rate>
                          <timebase>24</timebase>
                          <ntsc>FALSE</ntsc>
                        </rate>
                      </timecode>
                      <media>
                        <video>
                          <duration>1</duration>
                          <samplecharacteristics>
                            <anamorphic>FALSE</anamorphic>
                            <pixelaspectratio>square</pixelaspectratio>
                            <fielddominance>none</fielddominance>
                            <width>1920</width>
                            <height>1080</height>
                          </samplecharacteristics>
                        </video>
                      </media>
                    </file>
                  </clipitem>
                </track>
              </video>
            </media>
          </clip>
          <clip explodedTracks="true" frameBlend="FALSE" id="masterclip-691">
            <uuid>d6c3acb0-7cc7-4112-8ae8-cc14219b91e8</uuid>
            <masterclipid>masterclip-691</masterclipid>
            <ismasterclip>TRUE</ismasterclip>
            <duration>720</duration>
            <in>0</in>
            <out>720</out>
            <name>Scene - Puppet man_0003.689.png</name>
            <rate>
              <timebase>24</timebase>
              <ntsc>FALSE</ntsc>
            </rate>
            <media>
              <video>
                <track>
                  <clipitem frameBlend="FALSE" id="clipitem-692">
                    <name>Scene - Puppet man_0003.689.png</name>
                    <masterclipid>masterclip-691</masterclipid>
                    <rate>
                      <timebase>24</timebase>
                      <ntsc>FALSE</ntsc>
                    </rate>
                    <alphatype>straight</alphatype>
                    <pixelaspectratio>square</pixelaspectratio>
                    <anamorphic>FALSE</anamorphic>
                    <file id="file-691">
                      <name>Scene - Puppet man_0003.689.png</name>
                      <pathurl>file://localhost/C:/Users/jmrey/OneDrive/Desktop/Programmin Stuff/Projects/conversation-simulator/resources/videos/Scene - Puppet man_0003/Scene - Puppet man_0003.689.png</pathurl>
                      <rate>
                        <timebase>24</timebase>
                        <ntsc>FALSE</ntsc>
                      </rate>
                      <duration>720</duration>
                      <timecode>
                        <rate>
                          <timebase>24</timebase>
                          <ntsc>FALSE</ntsc>
                        </rate>
                      </timecode>
                      <media>
                        <video>
                          <duration>1</duration>
                          <samplecharacteristics>
                            <anamorphic>FALSE</anamorphic>
                            <pixelaspectratio>square</pixelaspectratio>
                            <fielddominance>none</fielddominance>
                            <width>1920</width>
                            <height>1080</height>
                          </samplecharacteristics>
                        </video>
                      </media>
                    </file>
                  </clipitem>
                </track>
              </video>
            </media>
          </clip>
          <clip explodedTracks="true" frameBlend="FALSE" id="masterclip-692">
            <uuid>902c45ac-728e-437b-bd50-edc46e8d4e0f</uuid>
            <masterclipid>masterclip-692</masterclipid>
            <ismasterclip>TRUE</ismasterclip>
            <duration>720</duration>
            <in>0</in>
            <out>720</out>
            <name>Scene - Puppet man_0003.690.png</name>
            <rate>
              <timebase>24</timebase>
              <ntsc>FALSE</ntsc>
            </rate>
            <media>
              <video>
                <track>
                  <clipitem frameBlend="FALSE" id="clipitem-693">
                    <name>Scene - Puppet man_0003.690.png</name>
                    <masterclipid>masterclip-692</masterclipid>
                    <rate>
                      <timebase>24</timebase>
                      <ntsc>FALSE</ntsc>
                    </rate>
                    <alphatype>straight</alphatype>
                    <pixelaspectratio>square</pixelaspectratio>
                    <anamorphic>FALSE</anamorphic>
                    <file id="file-692">
                      <name>Scene - Puppet man_0003.690.png</name>
                      <pathurl>file://localhost/C:/Users/jmrey/OneDrive/Desktop/Programmin Stuff/Projects/conversation-simulator/resources/videos/Scene - Puppet man_0003/Scene - Puppet man_0003.690.png</pathurl>
                      <rate>
                        <timebase>24</timebase>
                        <ntsc>FALSE</ntsc>
                      </rate>
                      <duration>720</duration>
                      <timecode>
                        <rate>
                          <timebase>24</timebase>
                          <ntsc>FALSE</ntsc>
                        </rate>
                      </timecode>
                      <media>
                        <video>
                          <duration>1</duration>
                          <samplecharacteristics>
                            <anamorphic>FALSE</anamorphic>
                            <pixelaspectratio>square</pixelaspectratio>
                            <fielddominance>none</fielddominance>
                            <width>1920</width>
                            <height>1080</height>
                          </samplecharacteristics>
                        </video>
                      </media>
                    </file>
                  </clipitem>
                </track>
              </video>
            </media>
          </clip>
          <clip explodedTracks="true" frameBlend="FALSE" id="masterclip-693">
            <uuid>52cf7a16-2780-4cb2-bc95-2b6fc298fca4</uuid>
            <masterclipid>masterclip-693</masterclipid>
            <ismasterclip>TRUE</ismasterclip>
            <duration>720</duration>
            <in>0</in>
            <out>720</out>
            <name>Scene - Puppet man_0003.691.png</name>
            <rate>
              <timebase>24</timebase>
              <ntsc>FALSE</ntsc>
            </rate>
            <media>
              <video>
                <track>
                  <clipitem frameBlend="FALSE" id="clipitem-694">
                    <name>Scene - Puppet man_0003.691.png</name>
                    <masterclipid>masterclip-693</masterclipid>
                    <rate>
                      <timebase>24</timebase>
                      <ntsc>FALSE</ntsc>
                    </rate>
                    <alphatype>straight</alphatype>
                    <pixelaspectratio>square</pixelaspectratio>
                    <anamorphic>FALSE</anamorphic>
                    <file id="file-693">
                      <name>Scene - Puppet man_0003.691.png</name>
                      <pathurl>file://localhost/C:/Users/jmrey/OneDrive/Desktop/Programmin Stuff/Projects/conversation-simulator/resources/videos/Scene - Puppet man_0003/Scene - Puppet man_0003.691.png</pathurl>
                      <rate>
                        <timebase>24</timebase>
                        <ntsc>FALSE</ntsc>
                      </rate>
                      <duration>720</duration>
                      <timecode>
                        <rate>
                          <timebase>24</timebase>
                          <ntsc>FALSE</ntsc>
                        </rate>
                      </timecode>
                      <media>
                        <video>
                          <duration>1</duration>
                          <samplecharacteristics>
                            <anamorphic>FALSE</anamorphic>
                            <pixelaspectratio>square</pixelaspectratio>
                            <fielddominance>none</fielddominance>
                            <width>1920</width>
                            <height>1080</height>
                          </samplecharacteristics>
                        </video>
                      </media>
                    </file>
                  </clipitem>
                </track>
              </video>
            </media>
          </clip>
          <clip explodedTracks="true" frameBlend="FALSE" id="masterclip-694">
            <uuid>f7c6b054-c18b-4ac0-9230-7e820e2dfdb7</uuid>
            <masterclipid>masterclip-694</masterclipid>
            <ismasterclip>TRUE</ismasterclip>
            <duration>720</duration>
            <in>0</in>
            <out>720</out>
            <name>Scene - Puppet man_0003.692.png</name>
            <rate>
              <timebase>24</timebase>
              <ntsc>FALSE</ntsc>
            </rate>
            <media>
              <video>
                <track>
                  <clipitem frameBlend="FALSE" id="clipitem-695">
                    <name>Scene - Puppet man_0003.692.png</name>
                    <masterclipid>masterclip-694</masterclipid>
                    <rate>
                      <timebase>24</timebase>
                      <ntsc>FALSE</ntsc>
                    </rate>
                    <alphatype>straight</alphatype>
                    <pixelaspectratio>square</pixelaspectratio>
                    <anamorphic>FALSE</anamorphic>
                    <file id="file-694">
                      <name>Scene - Puppet man_0003.692.png</name>
                      <pathurl>file://localhost/C:/Users/jmrey/OneDrive/Desktop/Programmin Stuff/Projects/conversation-simulator/resources/videos/Scene - Puppet man_0003/Scene - Puppet man_0003.692.png</pathurl>
                      <rate>
                        <timebase>24</timebase>
                        <ntsc>FALSE</ntsc>
                      </rate>
                      <duration>720</duration>
                      <timecode>
                        <rate>
                          <timebase>24</timebase>
                          <ntsc>FALSE</ntsc>
                        </rate>
                      </timecode>
                      <media>
                        <video>
                          <duration>1</duration>
                          <samplecharacteristics>
                            <anamorphic>FALSE</anamorphic>
                            <pixelaspectratio>square</pixelaspectratio>
                            <fielddominance>none</fielddominance>
                            <width>1920</width>
                            <height>1080</height>
                          </samplecharacteristics>
                        </video>
                      </media>
                    </file>
                  </clipitem>
                </track>
              </video>
            </media>
          </clip>
          <clip explodedTracks="true" frameBlend="FALSE" id="masterclip-695">
            <uuid>0055f423-047b-4d29-ad03-9634228aa31d</uuid>
            <masterclipid>masterclip-695</masterclipid>
            <ismasterclip>TRUE</ismasterclip>
            <duration>720</duration>
            <in>0</in>
            <out>720</out>
            <name>Scene - Puppet man_0003.693.png</name>
            <rate>
              <timebase>24</timebase>
              <ntsc>FALSE</ntsc>
            </rate>
            <media>
              <video>
                <track>
                  <clipitem frameBlend="FALSE" id="clipitem-696">
                    <name>Scene - Puppet man_0003.693.png</name>
                    <masterclipid>masterclip-695</masterclipid>
                    <rate>
                      <timebase>24</timebase>
                      <ntsc>FALSE</ntsc>
                    </rate>
                    <alphatype>straight</alphatype>
                    <pixelaspectratio>square</pixelaspectratio>
                    <anamorphic>FALSE</anamorphic>
                    <file id="file-695">
                      <name>Scene - Puppet man_0003.693.png</name>
                      <pathurl>file://localhost/C:/Users/jmrey/OneDrive/Desktop/Programmin Stuff/Projects/conversation-simulator/resources/videos/Scene - Puppet man_0003/Scene - Puppet man_0003.693.png</pathurl>
                      <rate>
                        <timebase>24</timebase>
                        <ntsc>FALSE</ntsc>
                      </rate>
                      <duration>720</duration>
                      <timecode>
                        <rate>
                          <timebase>24</timebase>
                          <ntsc>FALSE</ntsc>
                        </rate>
                      </timecode>
                      <media>
                        <video>
                          <duration>1</duration>
                          <samplecharacteristics>
                            <anamorphic>FALSE</anamorphic>
                            <pixelaspectratio>square</pixelaspectratio>
                            <fielddominance>none</fielddominance>
                            <width>1920</width>
                            <height>1080</height>
                          </samplecharacteristics>
                        </video>
                      </media>
                    </file>
                  </clipitem>
                </track>
              </video>
            </media>
          </clip>
          <clip explodedTracks="true" frameBlend="FALSE" id="masterclip-696">
            <uuid>9d42b210-b5ca-4cf7-8db7-ac5d8ff4ce15</uuid>
            <masterclipid>masterclip-696</masterclipid>
            <ismasterclip>TRUE</ismasterclip>
            <duration>720</duration>
            <in>0</in>
            <out>720</out>
            <name>Scene - Puppet man_0003.694.png</name>
            <rate>
              <timebase>24</timebase>
              <ntsc>FALSE</ntsc>
            </rate>
            <media>
              <video>
                <track>
                  <clipitem frameBlend="FALSE" id="clipitem-697">
                    <name>Scene - Puppet man_0003.694.png</name>
                    <masterclipid>masterclip-696</masterclipid>
                    <rate>
                      <timebase>24</timebase>
                      <ntsc>FALSE</ntsc>
                    </rate>
                    <alphatype>straight</alphatype>
                    <pixelaspectratio>square</pixelaspectratio>
                    <anamorphic>FALSE</anamorphic>
                    <file id="file-696">
                      <name>Scene - Puppet man_0003.694.png</name>
                      <pathurl>file://localhost/C:/Users/jmrey/OneDrive/Desktop/Programmin Stuff/Projects/conversation-simulator/resources/videos/Scene - Puppet man_0003/Scene - Puppet man_0003.694.png</pathurl>
                      <rate>
                        <timebase>24</timebase>
                        <ntsc>FALSE</ntsc>
                      </rate>
                      <duration>720</duration>
                      <timecode>
                        <rate>
                          <timebase>24</timebase>
                          <ntsc>FALSE</ntsc>
                        </rate>
                      </timecode>
                      <media>
                        <video>
                          <duration>1</duration>
                          <samplecharacteristics>
                            <anamorphic>FALSE</anamorphic>
                            <pixelaspectratio>square</pixelaspectratio>
                            <fielddominance>none</fielddominance>
                            <width>1920</width>
                            <height>1080</height>
                          </samplecharacteristics>
                        </video>
                      </media>
                    </file>
                  </clipitem>
                </track>
              </video>
            </media>
          </clip>
          <clip explodedTracks="true" frameBlend="FALSE" id="masterclip-697">
            <uuid>086a48a5-74fc-4107-9bb3-55ac7d6d5749</uuid>
            <masterclipid>masterclip-697</masterclipid>
            <ismasterclip>TRUE</ismasterclip>
            <duration>720</duration>
            <in>0</in>
            <out>720</out>
            <name>Scene - Puppet man_0003.695.png</name>
            <rate>
              <timebase>24</timebase>
              <ntsc>FALSE</ntsc>
            </rate>
            <media>
              <video>
                <track>
                  <clipitem frameBlend="FALSE" id="clipitem-698">
                    <name>Scene - Puppet man_0003.695.png</name>
                    <masterclipid>masterclip-697</masterclipid>
                    <rate>
                      <timebase>24</timebase>
                      <ntsc>FALSE</ntsc>
                    </rate>
                    <alphatype>straight</alphatype>
                    <pixelaspectratio>square</pixelaspectratio>
                    <anamorphic>FALSE</anamorphic>
                    <file id="file-697">
                      <name>Scene - Puppet man_0003.695.png</name>
                      <pathurl>file://localhost/C:/Users/jmrey/OneDrive/Desktop/Programmin Stuff/Projects/conversation-simulator/resources/videos/Scene - Puppet man_0003/Scene - Puppet man_0003.695.png</pathurl>
                      <rate>
                        <timebase>24</timebase>
                        <ntsc>FALSE</ntsc>
                      </rate>
                      <duration>720</duration>
                      <timecode>
                        <rate>
                          <timebase>24</timebase>
                          <ntsc>FALSE</ntsc>
                        </rate>
                      </timecode>
                      <media>
                        <video>
                          <duration>1</duration>
                          <samplecharacteristics>
                            <anamorphic>FALSE</anamorphic>
                            <pixelaspectratio>square</pixelaspectratio>
                            <fielddominance>none</fielddominance>
                            <width>1920</width>
                            <height>1080</height>
                          </samplecharacteristics>
                        </video>
                      </media>
                    </file>
                  </clipitem>
                </track>
              </video>
            </media>
          </clip>
          <clip explodedTracks="true" frameBlend="FALSE" id="masterclip-698">
            <uuid>98220e4a-fe07-4129-99cc-bbcc5cc089f6</uuid>
            <masterclipid>masterclip-698</masterclipid>
            <ismasterclip>TRUE</ismasterclip>
            <duration>720</duration>
            <in>0</in>
            <out>720</out>
            <name>Scene - Puppet man_0003.696.png</name>
            <rate>
              <timebase>24</timebase>
              <ntsc>FALSE</ntsc>
            </rate>
            <media>
              <video>
                <track>
                  <clipitem frameBlend="FALSE" id="clipitem-699">
                    <name>Scene - Puppet man_0003.696.png</name>
                    <masterclipid>masterclip-698</masterclipid>
                    <rate>
                      <timebase>24</timebase>
                      <ntsc>FALSE</ntsc>
                    </rate>
                    <alphatype>straight</alphatype>
                    <pixelaspectratio>square</pixelaspectratio>
                    <anamorphic>FALSE</anamorphic>
                    <file id="file-698">
                      <name>Scene - Puppet man_0003.696.png</name>
                      <pathurl>file://localhost/C:/Users/jmrey/OneDrive/Desktop/Programmin Stuff/Projects/conversation-simulator/resources/videos/Scene - Puppet man_0003/Scene - Puppet man_0003.696.png</pathurl>
                      <rate>
                        <timebase>24</timebase>
                        <ntsc>FALSE</ntsc>
                      </rate>
                      <duration>720</duration>
                      <timecode>
                        <rate>
                          <timebase>24</timebase>
                          <ntsc>FALSE</ntsc>
                        </rate>
                      </timecode>
                      <media>
                        <video>
                          <duration>1</duration>
                          <samplecharacteristics>
                            <anamorphic>FALSE</anamorphic>
                            <pixelaspectratio>square</pixelaspectratio>
                            <fielddominance>none</fielddominance>
                            <width>1920</width>
                            <height>1080</height>
                          </samplecharacteristics>
                        </video>
                      </media>
                    </file>
                  </clipitem>
                </track>
              </video>
            </media>
          </clip>
          <clip explodedTracks="true" frameBlend="FALSE" id="masterclip-699">
            <uuid>292c0520-b241-4a77-9388-c6c1f7fc1fcf</uuid>
            <masterclipid>masterclip-699</masterclipid>
            <ismasterclip>TRUE</ismasterclip>
            <duration>720</duration>
            <in>0</in>
            <out>720</out>
            <name>Scene - Puppet man_0003.697.png</name>
            <rate>
              <timebase>24</timebase>
              <ntsc>FALSE</ntsc>
            </rate>
            <media>
              <video>
                <track>
                  <clipitem frameBlend="FALSE" id="clipitem-700">
                    <name>Scene - Puppet man_0003.697.png</name>
                    <masterclipid>masterclip-699</masterclipid>
                    <rate>
                      <timebase>24</timebase>
                      <ntsc>FALSE</ntsc>
                    </rate>
                    <alphatype>straight</alphatype>
                    <pixelaspectratio>square</pixelaspectratio>
                    <anamorphic>FALSE</anamorphic>
                    <file id="file-699">
                      <name>Scene - Puppet man_0003.697.png</name>
                      <pathurl>file://localhost/C:/Users/jmrey/OneDrive/Desktop/Programmin Stuff/Projects/conversation-simulator/resources/videos/Scene - Puppet man_0003/Scene - Puppet man_0003.697.png</pathurl>
                      <rate>
                        <timebase>24</timebase>
                        <ntsc>FALSE</ntsc>
                      </rate>
                      <duration>720</duration>
                      <timecode>
                        <rate>
                          <timebase>24</timebase>
                          <ntsc>FALSE</ntsc>
                        </rate>
                      </timecode>
                      <media>
                        <video>
                          <duration>1</duration>
                          <samplecharacteristics>
                            <anamorphic>FALSE</anamorphic>
                            <pixelaspectratio>square</pixelaspectratio>
                            <fielddominance>none</fielddominance>
                            <width>1920</width>
                            <height>1080</height>
                          </samplecharacteristics>
                        </video>
                      </media>
                    </file>
                  </clipitem>
                </track>
              </video>
            </media>
          </clip>
          <clip explodedTracks="true" frameBlend="FALSE" id="masterclip-700">
            <uuid>0438b59e-efd9-45fb-aed2-17fb0439d20b</uuid>
            <masterclipid>masterclip-700</masterclipid>
            <ismasterclip>TRUE</ismasterclip>
            <duration>720</duration>
            <in>0</in>
            <out>720</out>
            <name>Scene - Puppet man_0003.698.png</name>
            <rate>
              <timebase>24</timebase>
              <ntsc>FALSE</ntsc>
            </rate>
            <media>
              <video>
                <track>
                  <clipitem frameBlend="FALSE" id="clipitem-701">
                    <name>Scene - Puppet man_0003.698.png</name>
                    <masterclipid>masterclip-700</masterclipid>
                    <rate>
                      <timebase>24</timebase>
                      <ntsc>FALSE</ntsc>
                    </rate>
                    <alphatype>straight</alphatype>
                    <pixelaspectratio>square</pixelaspectratio>
                    <anamorphic>FALSE</anamorphic>
                    <file id="file-700">
                      <name>Scene - Puppet man_0003.698.png</name>
                      <pathurl>file://localhost/C:/Users/jmrey/OneDrive/Desktop/Programmin Stuff/Projects/conversation-simulator/resources/videos/Scene - Puppet man_0003/Scene - Puppet man_0003.698.png</pathurl>
                      <rate>
                        <timebase>24</timebase>
                        <ntsc>FALSE</ntsc>
                      </rate>
                      <duration>720</duration>
                      <timecode>
                        <rate>
                          <timebase>24</timebase>
                          <ntsc>FALSE</ntsc>
                        </rate>
                      </timecode>
                      <media>
                        <video>
                          <duration>1</duration>
                          <samplecharacteristics>
                            <anamorphic>FALSE</anamorphic>
                            <pixelaspectratio>square</pixelaspectratio>
                            <fielddominance>none</fielddominance>
                            <width>1920</width>
                            <height>1080</height>
                          </samplecharacteristics>
                        </video>
                      </media>
                    </file>
                  </clipitem>
                </track>
              </video>
            </media>
          </clip>
          <clip explodedTracks="true" frameBlend="FALSE" id="masterclip-701">
            <uuid>bd3e8977-35bb-4d79-93ac-1516432a92ff</uuid>
            <masterclipid>masterclip-701</masterclipid>
            <ismasterclip>TRUE</ismasterclip>
            <duration>720</duration>
            <in>0</in>
            <out>720</out>
            <name>Scene - Puppet man_0003.699.png</name>
            <rate>
              <timebase>24</timebase>
              <ntsc>FALSE</ntsc>
            </rate>
            <media>
              <video>
                <track>
                  <clipitem frameBlend="FALSE" id="clipitem-702">
                    <name>Scene - Puppet man_0003.699.png</name>
                    <masterclipid>masterclip-701</masterclipid>
                    <rate>
                      <timebase>24</timebase>
                      <ntsc>FALSE</ntsc>
                    </rate>
                    <alphatype>straight</alphatype>
                    <pixelaspectratio>square</pixelaspectratio>
                    <anamorphic>FALSE</anamorphic>
                    <file id="file-701">
                      <name>Scene - Puppet man_0003.699.png</name>
                      <pathurl>file://localhost/C:/Users/jmrey/OneDrive/Desktop/Programmin Stuff/Projects/conversation-simulator/resources/videos/Scene - Puppet man_0003/Scene - Puppet man_0003.699.png</pathurl>
                      <rate>
                        <timebase>24</timebase>
                        <ntsc>FALSE</ntsc>
                      </rate>
                      <duration>720</duration>
                      <timecode>
                        <rate>
                          <timebase>24</timebase>
                          <ntsc>FALSE</ntsc>
                        </rate>
                      </timecode>
                      <media>
                        <video>
                          <duration>1</duration>
                          <samplecharacteristics>
                            <anamorphic>FALSE</anamorphic>
                            <pixelaspectratio>square</pixelaspectratio>
                            <fielddominance>none</fielddominance>
                            <width>1920</width>
                            <height>1080</height>
                          </samplecharacteristics>
                        </video>
                      </media>
                    </file>
                  </clipitem>
                </track>
              </video>
            </media>
          </clip>
          <clip explodedTracks="true" frameBlend="FALSE" id="masterclip-702">
            <uuid>0dc7c78b-7da0-4d8f-94c7-361bdfcd07dd</uuid>
            <masterclipid>masterclip-702</masterclipid>
            <ismasterclip>TRUE</ismasterclip>
            <duration>720</duration>
            <in>0</in>
            <out>720</out>
            <name>Scene - Puppet man_0003.700.png</name>
            <rate>
              <timebase>24</timebase>
              <ntsc>FALSE</ntsc>
            </rate>
            <media>
              <video>
                <track>
                  <clipitem frameBlend="FALSE" id="clipitem-703">
                    <name>Scene - Puppet man_0003.700.png</name>
                    <masterclipid>masterclip-702</masterclipid>
                    <rate>
                      <timebase>24</timebase>
                      <ntsc>FALSE</ntsc>
                    </rate>
                    <alphatype>straight</alphatype>
                    <pixelaspectratio>square</pixelaspectratio>
                    <anamorphic>FALSE</anamorphic>
                    <file id="file-702">
                      <name>Scene - Puppet man_0003.700.png</name>
                      <pathurl>file://localhost/C:/Users/jmrey/OneDrive/Desktop/Programmin Stuff/Projects/conversation-simulator/resources/videos/Scene - Puppet man_0003/Scene - Puppet man_0003.700.png</pathurl>
                      <rate>
                        <timebase>24</timebase>
                        <ntsc>FALSE</ntsc>
                      </rate>
                      <duration>720</duration>
                      <timecode>
                        <rate>
                          <timebase>24</timebase>
                          <ntsc>FALSE</ntsc>
                        </rate>
                      </timecode>
                      <media>
                        <video>
                          <duration>1</duration>
                          <samplecharacteristics>
                            <anamorphic>FALSE</anamorphic>
                            <pixelaspectratio>square</pixelaspectratio>
                            <fielddominance>none</fielddominance>
                            <width>1920</width>
                            <height>1080</height>
                          </samplecharacteristics>
                        </video>
                      </media>
                    </file>
                  </clipitem>
                </track>
              </video>
            </media>
          </clip>
          <clip explodedTracks="true" frameBlend="FALSE" id="masterclip-703">
            <uuid>e55b36b6-4a71-4e28-bdeb-9862857c96f4</uuid>
            <masterclipid>masterclip-703</masterclipid>
            <ismasterclip>TRUE</ismasterclip>
            <duration>720</duration>
            <in>0</in>
            <out>720</out>
            <name>Scene - Puppet man_0003.701.png</name>
            <rate>
              <timebase>24</timebase>
              <ntsc>FALSE</ntsc>
            </rate>
            <media>
              <video>
                <track>
                  <clipitem frameBlend="FALSE" id="clipitem-704">
                    <name>Scene - Puppet man_0003.701.png</name>
                    <masterclipid>masterclip-703</masterclipid>
                    <rate>
                      <timebase>24</timebase>
                      <ntsc>FALSE</ntsc>
                    </rate>
                    <alphatype>straight</alphatype>
                    <pixelaspectratio>square</pixelaspectratio>
                    <anamorphic>FALSE</anamorphic>
                    <file id="file-703">
                      <name>Scene - Puppet man_0003.701.png</name>
                      <pathurl>file://localhost/C:/Users/jmrey/OneDrive/Desktop/Programmin Stuff/Projects/conversation-simulator/resources/videos/Scene - Puppet man_0003/Scene - Puppet man_0003.701.png</pathurl>
                      <rate>
                        <timebase>24</timebase>
                        <ntsc>FALSE</ntsc>
                      </rate>
                      <duration>720</duration>
                      <timecode>
                        <rate>
                          <timebase>24</timebase>
                          <ntsc>FALSE</ntsc>
                        </rate>
                      </timecode>
                      <media>
                        <video>
                          <duration>1</duration>
                          <samplecharacteristics>
                            <anamorphic>FALSE</anamorphic>
                            <pixelaspectratio>square</pixelaspectratio>
                            <fielddominance>none</fielddominance>
                            <width>1920</width>
                            <height>1080</height>
                          </samplecharacteristics>
                        </video>
                      </media>
                    </file>
                  </clipitem>
                </track>
              </video>
            </media>
          </clip>
          <clip explodedTracks="true" frameBlend="FALSE" id="masterclip-704">
            <uuid>17d677f3-670f-4503-89c8-2f76f2dddc21</uuid>
            <masterclipid>masterclip-704</masterclipid>
            <ismasterclip>TRUE</ismasterclip>
            <duration>720</duration>
            <in>0</in>
            <out>720</out>
            <name>Scene - Puppet man_0003.702.png</name>
            <rate>
              <timebase>24</timebase>
              <ntsc>FALSE</ntsc>
            </rate>
            <media>
              <video>
                <track>
                  <clipitem frameBlend="FALSE" id="clipitem-705">
                    <name>Scene - Puppet man_0003.702.png</name>
                    <masterclipid>masterclip-704</masterclipid>
                    <rate>
                      <timebase>24</timebase>
                      <ntsc>FALSE</ntsc>
                    </rate>
                    <alphatype>straight</alphatype>
                    <pixelaspectratio>square</pixelaspectratio>
                    <anamorphic>FALSE</anamorphic>
                    <file id="file-704">
                      <name>Scene - Puppet man_0003.702.png</name>
                      <pathurl>file://localhost/C:/Users/jmrey/OneDrive/Desktop/Programmin Stuff/Projects/conversation-simulator/resources/videos/Scene - Puppet man_0003/Scene - Puppet man_0003.702.png</pathurl>
                      <rate>
                        <timebase>24</timebase>
                        <ntsc>FALSE</ntsc>
                      </rate>
                      <duration>720</duration>
                      <timecode>
                        <rate>
                          <timebase>24</timebase>
                          <ntsc>FALSE</ntsc>
                        </rate>
                      </timecode>
                      <media>
                        <video>
                          <duration>1</duration>
                          <samplecharacteristics>
                            <anamorphic>FALSE</anamorphic>
                            <pixelaspectratio>square</pixelaspectratio>
                            <fielddominance>none</fielddominance>
                            <width>1920</width>
                            <height>1080</height>
                          </samplecharacteristics>
                        </video>
                      </media>
                    </file>
                  </clipitem>
                </track>
              </video>
            </media>
          </clip>
          <clip explodedTracks="true" frameBlend="FALSE" id="masterclip-705">
            <uuid>4139c588-e72f-49a5-88a7-595473711d71</uuid>
            <masterclipid>masterclip-705</masterclipid>
            <ismasterclip>TRUE</ismasterclip>
            <duration>720</duration>
            <in>0</in>
            <out>720</out>
            <name>Scene - Puppet man_0003.703.png</name>
            <rate>
              <timebase>24</timebase>
              <ntsc>FALSE</ntsc>
            </rate>
            <media>
              <video>
                <track>
                  <clipitem frameBlend="FALSE" id="clipitem-706">
                    <name>Scene - Puppet man_0003.703.png</name>
                    <masterclipid>masterclip-705</masterclipid>
                    <rate>
                      <timebase>24</timebase>
                      <ntsc>FALSE</ntsc>
                    </rate>
                    <alphatype>straight</alphatype>
                    <pixelaspectratio>square</pixelaspectratio>
                    <anamorphic>FALSE</anamorphic>
                    <file id="file-705">
                      <name>Scene - Puppet man_0003.703.png</name>
                      <pathurl>file://localhost/C:/Users/jmrey/OneDrive/Desktop/Programmin Stuff/Projects/conversation-simulator/resources/videos/Scene - Puppet man_0003/Scene - Puppet man_0003.703.png</pathurl>
                      <rate>
                        <timebase>24</timebase>
                        <ntsc>FALSE</ntsc>
                      </rate>
                      <duration>720</duration>
                      <timecode>
                        <rate>
                          <timebase>24</timebase>
                          <ntsc>FALSE</ntsc>
                        </rate>
                      </timecode>
                      <media>
                        <video>
                          <duration>1</duration>
                          <samplecharacteristics>
                            <anamorphic>FALSE</anamorphic>
                            <pixelaspectratio>square</pixelaspectratio>
                            <fielddominance>none</fielddominance>
                            <width>1920</width>
                            <height>1080</height>
                          </samplecharacteristics>
                        </video>
                      </media>
                    </file>
                  </clipitem>
                </track>
              </video>
            </media>
          </clip>
          <clip explodedTracks="true" frameBlend="FALSE" id="masterclip-706">
            <uuid>2e5b5997-9386-485a-a281-902bc5377b68</uuid>
            <masterclipid>masterclip-706</masterclipid>
            <ismasterclip>TRUE</ismasterclip>
            <duration>720</duration>
            <in>0</in>
            <out>720</out>
            <name>Scene - Puppet man_0003.704.png</name>
            <rate>
              <timebase>24</timebase>
              <ntsc>FALSE</ntsc>
            </rate>
            <media>
              <video>
                <track>
                  <clipitem frameBlend="FALSE" id="clipitem-707">
                    <name>Scene - Puppet man_0003.704.png</name>
                    <masterclipid>masterclip-706</masterclipid>
                    <rate>
                      <timebase>24</timebase>
                      <ntsc>FALSE</ntsc>
                    </rate>
                    <alphatype>straight</alphatype>
                    <pixelaspectratio>square</pixelaspectratio>
                    <anamorphic>FALSE</anamorphic>
                    <file id="file-706">
                      <name>Scene - Puppet man_0003.704.png</name>
                      <pathurl>file://localhost/C:/Users/jmrey/OneDrive/Desktop/Programmin Stuff/Projects/conversation-simulator/resources/videos/Scene - Puppet man_0003/Scene - Puppet man_0003.704.png</pathurl>
                      <rate>
                        <timebase>24</timebase>
                        <ntsc>FALSE</ntsc>
                      </rate>
                      <duration>720</duration>
                      <timecode>
                        <rate>
                          <timebase>24</timebase>
                          <ntsc>FALSE</ntsc>
                        </rate>
                      </timecode>
                      <media>
                        <video>
                          <duration>1</duration>
                          <samplecharacteristics>
                            <anamorphic>FALSE</anamorphic>
                            <pixelaspectratio>square</pixelaspectratio>
                            <fielddominance>none</fielddominance>
                            <width>1920</width>
                            <height>1080</height>
                          </samplecharacteristics>
                        </video>
                      </media>
                    </file>
                  </clipitem>
                </track>
              </video>
            </media>
          </clip>
          <clip explodedTracks="true" frameBlend="FALSE" id="masterclip-707">
            <uuid>f359e383-7a5b-405a-9c2f-e00f8fdfa579</uuid>
            <masterclipid>masterclip-707</masterclipid>
            <ismasterclip>TRUE</ismasterclip>
            <duration>720</duration>
            <in>0</in>
            <out>720</out>
            <name>Scene - Puppet man_0003.705.png</name>
            <rate>
              <timebase>24</timebase>
              <ntsc>FALSE</ntsc>
            </rate>
            <media>
              <video>
                <track>
                  <clipitem frameBlend="FALSE" id="clipitem-708">
                    <name>Scene - Puppet man_0003.705.png</name>
                    <masterclipid>masterclip-707</masterclipid>
                    <rate>
                      <timebase>24</timebase>
                      <ntsc>FALSE</ntsc>
                    </rate>
                    <alphatype>straight</alphatype>
                    <pixelaspectratio>square</pixelaspectratio>
                    <anamorphic>FALSE</anamorphic>
                    <file id="file-707">
                      <name>Scene - Puppet man_0003.705.png</name>
                      <pathurl>file://localhost/C:/Users/jmrey/OneDrive/Desktop/Programmin Stuff/Projects/conversation-simulator/resources/videos/Scene - Puppet man_0003/Scene - Puppet man_0003.705.png</pathurl>
                      <rate>
                        <timebase>24</timebase>
                        <ntsc>FALSE</ntsc>
                      </rate>
                      <duration>720</duration>
                      <timecode>
                        <rate>
                          <timebase>24</timebase>
                          <ntsc>FALSE</ntsc>
                        </rate>
                      </timecode>
                      <media>
                        <video>
                          <duration>1</duration>
                          <samplecharacteristics>
                            <anamorphic>FALSE</anamorphic>
                            <pixelaspectratio>square</pixelaspectratio>
                            <fielddominance>none</fielddominance>
                            <width>1920</width>
                            <height>1080</height>
                          </samplecharacteristics>
                        </video>
                      </media>
                    </file>
                  </clipitem>
                </track>
              </video>
            </media>
          </clip>
          <clip explodedTracks="true" frameBlend="FALSE" id="masterclip-708">
            <uuid>d7879451-fbc3-4307-ab49-0e6b9319a686</uuid>
            <masterclipid>masterclip-708</masterclipid>
            <ismasterclip>TRUE</ismasterclip>
            <duration>720</duration>
            <in>0</in>
            <out>720</out>
            <name>Scene - Puppet man_0003.706.png</name>
            <rate>
              <timebase>24</timebase>
              <ntsc>FALSE</ntsc>
            </rate>
            <media>
              <video>
                <track>
                  <clipitem frameBlend="FALSE" id="clipitem-709">
                    <name>Scene - Puppet man_0003.706.png</name>
                    <masterclipid>masterclip-708</masterclipid>
                    <rate>
                      <timebase>24</timebase>
                      <ntsc>FALSE</ntsc>
                    </rate>
                    <alphatype>straight</alphatype>
                    <pixelaspectratio>square</pixelaspectratio>
                    <anamorphic>FALSE</anamorphic>
                    <file id="file-708">
                      <name>Scene - Puppet man_0003.706.png</name>
                      <pathurl>file://localhost/C:/Users/jmrey/OneDrive/Desktop/Programmin Stuff/Projects/conversation-simulator/resources/videos/Scene - Puppet man_0003/Scene - Puppet man_0003.706.png</pathurl>
                      <rate>
                        <timebase>24</timebase>
                        <ntsc>FALSE</ntsc>
                      </rate>
                      <duration>720</duration>
                      <timecode>
                        <rate>
                          <timebase>24</timebase>
                          <ntsc>FALSE</ntsc>
                        </rate>
                      </timecode>
                      <media>
                        <video>
                          <duration>1</duration>
                          <samplecharacteristics>
                            <anamorphic>FALSE</anamorphic>
                            <pixelaspectratio>square</pixelaspectratio>
                            <fielddominance>none</fielddominance>
                            <width>1920</width>
                            <height>1080</height>
                          </samplecharacteristics>
                        </video>
                      </media>
                    </file>
                  </clipitem>
                </track>
              </video>
            </media>
          </clip>
          <clip explodedTracks="true" frameBlend="FALSE" id="masterclip-709">
            <uuid>2ba46932-a844-4b96-b304-c1c2a379c4f9</uuid>
            <masterclipid>masterclip-709</masterclipid>
            <ismasterclip>TRUE</ismasterclip>
            <duration>720</duration>
            <in>0</in>
            <out>720</out>
            <name>Scene - Puppet man_0003.707.png</name>
            <rate>
              <timebase>24</timebase>
              <ntsc>FALSE</ntsc>
            </rate>
            <media>
              <video>
                <track>
                  <clipitem frameBlend="FALSE" id="clipitem-710">
                    <name>Scene - Puppet man_0003.707.png</name>
                    <masterclipid>masterclip-709</masterclipid>
                    <rate>
                      <timebase>24</timebase>
                      <ntsc>FALSE</ntsc>
                    </rate>
                    <alphatype>straight</alphatype>
                    <pixelaspectratio>square</pixelaspectratio>
                    <anamorphic>FALSE</anamorphic>
                    <file id="file-709">
                      <name>Scene - Puppet man_0003.707.png</name>
                      <pathurl>file://localhost/C:/Users/jmrey/OneDrive/Desktop/Programmin Stuff/Projects/conversation-simulator/resources/videos/Scene - Puppet man_0003/Scene - Puppet man_0003.707.png</pathurl>
                      <rate>
                        <timebase>24</timebase>
                        <ntsc>FALSE</ntsc>
                      </rate>
                      <duration>720</duration>
                      <timecode>
                        <rate>
                          <timebase>24</timebase>
                          <ntsc>FALSE</ntsc>
                        </rate>
                      </timecode>
                      <media>
                        <video>
                          <duration>1</duration>
                          <samplecharacteristics>
                            <anamorphic>FALSE</anamorphic>
                            <pixelaspectratio>square</pixelaspectratio>
                            <fielddominance>none</fielddominance>
                            <width>1920</width>
                            <height>1080</height>
                          </samplecharacteristics>
                        </video>
                      </media>
                    </file>
                  </clipitem>
                </track>
              </video>
            </media>
          </clip>
          <clip explodedTracks="true" frameBlend="FALSE" id="masterclip-710">
            <uuid>4e64a91f-880a-4359-9b34-f8e517c4ca7a</uuid>
            <masterclipid>masterclip-710</masterclipid>
            <ismasterclip>TRUE</ismasterclip>
            <duration>720</duration>
            <in>0</in>
            <out>720</out>
            <name>Scene - Puppet man_0003.708.png</name>
            <rate>
              <timebase>24</timebase>
              <ntsc>FALSE</ntsc>
            </rate>
            <media>
              <video>
                <track>
                  <clipitem frameBlend="FALSE" id="clipitem-711">
                    <name>Scene - Puppet man_0003.708.png</name>
                    <masterclipid>masterclip-710</masterclipid>
                    <rate>
                      <timebase>24</timebase>
                      <ntsc>FALSE</ntsc>
                    </rate>
                    <alphatype>straight</alphatype>
                    <pixelaspectratio>square</pixelaspectratio>
                    <anamorphic>FALSE</anamorphic>
                    <file id="file-710">
                      <name>Scene - Puppet man_0003.708.png</name>
                      <pathurl>file://localhost/C:/Users/jmrey/OneDrive/Desktop/Programmin Stuff/Projects/conversation-simulator/resources/videos/Scene - Puppet man_0003/Scene - Puppet man_0003.708.png</pathurl>
                      <rate>
                        <timebase>24</timebase>
                        <ntsc>FALSE</ntsc>
                      </rate>
                      <duration>720</duration>
                      <timecode>
                        <rate>
                          <timebase>24</timebase>
                          <ntsc>FALSE</ntsc>
                        </rate>
                      </timecode>
                      <media>
                        <video>
                          <duration>1</duration>
                          <samplecharacteristics>
                            <anamorphic>FALSE</anamorphic>
                            <pixelaspectratio>square</pixelaspectratio>
                            <fielddominance>none</fielddominance>
                            <width>1920</width>
                            <height>1080</height>
                          </samplecharacteristics>
                        </video>
                      </media>
                    </file>
                  </clipitem>
                </track>
              </video>
            </media>
          </clip>
          <clip explodedTracks="true" frameBlend="FALSE" id="masterclip-711">
            <uuid>f6ff99a9-4ba1-410f-87ac-b8bee170bb4b</uuid>
            <masterclipid>masterclip-711</masterclipid>
            <ismasterclip>TRUE</ismasterclip>
            <duration>720</duration>
            <in>0</in>
            <out>720</out>
            <name>Scene - Puppet man_0003.709.png</name>
            <rate>
              <timebase>24</timebase>
              <ntsc>FALSE</ntsc>
            </rate>
            <media>
              <video>
                <track>
                  <clipitem frameBlend="FALSE" id="clipitem-712">
                    <name>Scene - Puppet man_0003.709.png</name>
                    <masterclipid>masterclip-711</masterclipid>
                    <rate>
                      <timebase>24</timebase>
                      <ntsc>FALSE</ntsc>
                    </rate>
                    <alphatype>straight</alphatype>
                    <pixelaspectratio>square</pixelaspectratio>
                    <anamorphic>FALSE</anamorphic>
                    <file id="file-711">
                      <name>Scene - Puppet man_0003.709.png</name>
                      <pathurl>file://localhost/C:/Users/jmrey/OneDrive/Desktop/Programmin Stuff/Projects/conversation-simulator/resources/videos/Scene - Puppet man_0003/Scene - Puppet man_0003.709.png</pathurl>
                      <rate>
                        <timebase>24</timebase>
                        <ntsc>FALSE</ntsc>
                      </rate>
                      <duration>720</duration>
                      <timecode>
                        <rate>
                          <timebase>24</timebase>
                          <ntsc>FALSE</ntsc>
                        </rate>
                      </timecode>
                      <media>
                        <video>
                          <duration>1</duration>
                          <samplecharacteristics>
                            <anamorphic>FALSE</anamorphic>
                            <pixelaspectratio>square</pixelaspectratio>
                            <fielddominance>none</fielddominance>
                            <width>1920</width>
                            <height>1080</height>
                          </samplecharacteristics>
                        </video>
                      </media>
                    </file>
                  </clipitem>
                </track>
              </video>
            </media>
          </clip>
          <clip explodedTracks="true" frameBlend="FALSE" id="masterclip-712">
            <uuid>fc814a22-fc2a-4ed9-94bb-3a06b7884fa8</uuid>
            <masterclipid>masterclip-712</masterclipid>
            <ismasterclip>TRUE</ismasterclip>
            <duration>720</duration>
            <in>0</in>
            <out>720</out>
            <name>Scene - Puppet man_0003.710.png</name>
            <rate>
              <timebase>24</timebase>
              <ntsc>FALSE</ntsc>
            </rate>
            <media>
              <video>
                <track>
                  <clipitem frameBlend="FALSE" id="clipitem-713">
                    <name>Scene - Puppet man_0003.710.png</name>
                    <masterclipid>masterclip-712</masterclipid>
                    <rate>
                      <timebase>24</timebase>
                      <ntsc>FALSE</ntsc>
                    </rate>
                    <alphatype>straight</alphatype>
                    <pixelaspectratio>square</pixelaspectratio>
                    <anamorphic>FALSE</anamorphic>
                    <file id="file-712">
                      <name>Scene - Puppet man_0003.710.png</name>
                      <pathurl>file://localhost/C:/Users/jmrey/OneDrive/Desktop/Programmin Stuff/Projects/conversation-simulator/resources/videos/Scene - Puppet man_0003/Scene - Puppet man_0003.710.png</pathurl>
                      <rate>
                        <timebase>24</timebase>
                        <ntsc>FALSE</ntsc>
                      </rate>
                      <duration>720</duration>
                      <timecode>
                        <rate>
                          <timebase>24</timebase>
                          <ntsc>FALSE</ntsc>
                        </rate>
                      </timecode>
                      <media>
                        <video>
                          <duration>1</duration>
                          <samplecharacteristics>
                            <anamorphic>FALSE</anamorphic>
                            <pixelaspectratio>square</pixelaspectratio>
                            <fielddominance>none</fielddominance>
                            <width>1920</width>
                            <height>1080</height>
                          </samplecharacteristics>
                        </video>
                      </media>
                    </file>
                  </clipitem>
                </track>
              </video>
            </media>
          </clip>
          <clip explodedTracks="true" frameBlend="FALSE" id="masterclip-713">
            <uuid>62fa5eb9-513d-4c1f-99b4-1e08f32ab3fe</uuid>
            <masterclipid>masterclip-713</masterclipid>
            <ismasterclip>TRUE</ismasterclip>
            <duration>720</duration>
            <in>0</in>
            <out>720</out>
            <name>Scene - Puppet man_0003.711.png</name>
            <rate>
              <timebase>24</timebase>
              <ntsc>FALSE</ntsc>
            </rate>
            <media>
              <video>
                <track>
                  <clipitem frameBlend="FALSE" id="clipitem-714">
                    <name>Scene - Puppet man_0003.711.png</name>
                    <masterclipid>masterclip-713</masterclipid>
                    <rate>
                      <timebase>24</timebase>
                      <ntsc>FALSE</ntsc>
                    </rate>
                    <alphatype>straight</alphatype>
                    <pixelaspectratio>square</pixelaspectratio>
                    <anamorphic>FALSE</anamorphic>
                    <file id="file-713">
                      <name>Scene - Puppet man_0003.711.png</name>
                      <pathurl>file://localhost/C:/Users/jmrey/OneDrive/Desktop/Programmin Stuff/Projects/conversation-simulator/resources/videos/Scene - Puppet man_0003/Scene - Puppet man_0003.711.png</pathurl>
                      <rate>
                        <timebase>24</timebase>
                        <ntsc>FALSE</ntsc>
                      </rate>
                      <duration>720</duration>
                      <timecode>
                        <rate>
                          <timebase>24</timebase>
                          <ntsc>FALSE</ntsc>
                        </rate>
                      </timecode>
                      <media>
                        <video>
                          <duration>1</duration>
                          <samplecharacteristics>
                            <anamorphic>FALSE</anamorphic>
                            <pixelaspectratio>square</pixelaspectratio>
                            <fielddominance>none</fielddominance>
                            <width>1920</width>
                            <height>1080</height>
                          </samplecharacteristics>
                        </video>
                      </media>
                    </file>
                  </clipitem>
                </track>
              </video>
            </media>
          </clip>
          <clip explodedTracks="true" frameBlend="FALSE" id="masterclip-714">
            <uuid>ce3711d1-2dc3-446a-8828-3f7e90a702c5</uuid>
            <masterclipid>masterclip-714</masterclipid>
            <ismasterclip>TRUE</ismasterclip>
            <duration>720</duration>
            <in>0</in>
            <out>720</out>
            <name>Scene - Puppet man_0003.712.png</name>
            <rate>
              <timebase>24</timebase>
              <ntsc>FALSE</ntsc>
            </rate>
            <media>
              <video>
                <track>
                  <clipitem frameBlend="FALSE" id="clipitem-715">
                    <name>Scene - Puppet man_0003.712.png</name>
                    <masterclipid>masterclip-714</masterclipid>
                    <rate>
                      <timebase>24</timebase>
                      <ntsc>FALSE</ntsc>
                    </rate>
                    <alphatype>straight</alphatype>
                    <pixelaspectratio>square</pixelaspectratio>
                    <anamorphic>FALSE</anamorphic>
                    <file id="file-714">
                      <name>Scene - Puppet man_0003.712.png</name>
                      <pathurl>file://localhost/C:/Users/jmrey/OneDrive/Desktop/Programmin Stuff/Projects/conversation-simulator/resources/videos/Scene - Puppet man_0003/Scene - Puppet man_0003.712.png</pathurl>
                      <rate>
                        <timebase>24</timebase>
                        <ntsc>FALSE</ntsc>
                      </rate>
                      <duration>720</duration>
                      <timecode>
                        <rate>
                          <timebase>24</timebase>
                          <ntsc>FALSE</ntsc>
                        </rate>
                      </timecode>
                      <media>
                        <video>
                          <duration>1</duration>
                          <samplecharacteristics>
                            <anamorphic>FALSE</anamorphic>
                            <pixelaspectratio>square</pixelaspectratio>
                            <fielddominance>none</fielddominance>
                            <width>1920</width>
                            <height>1080</height>
                          </samplecharacteristics>
                        </video>
                      </media>
                    </file>
                  </clipitem>
                </track>
              </video>
            </media>
          </clip>
          <clip explodedTracks="true" frameBlend="FALSE" id="masterclip-715">
            <uuid>badf2812-b9ef-4938-aaa0-289217252223</uuid>
            <masterclipid>masterclip-715</masterclipid>
            <ismasterclip>TRUE</ismasterclip>
            <duration>720</duration>
            <in>0</in>
            <out>720</out>
            <name>Scene - Puppet man_0003.713.png</name>
            <rate>
              <timebase>24</timebase>
              <ntsc>FALSE</ntsc>
            </rate>
            <media>
              <video>
                <track>
                  <clipitem frameBlend="FALSE" id="clipitem-716">
                    <name>Scene - Puppet man_0003.713.png</name>
                    <masterclipid>masterclip-715</masterclipid>
                    <rate>
                      <timebase>24</timebase>
                      <ntsc>FALSE</ntsc>
                    </rate>
                    <alphatype>straight</alphatype>
                    <pixelaspectratio>square</pixelaspectratio>
                    <anamorphic>FALSE</anamorphic>
                    <file id="file-715">
                      <name>Scene - Puppet man_0003.713.png</name>
                      <pathurl>file://localhost/C:/Users/jmrey/OneDrive/Desktop/Programmin Stuff/Projects/conversation-simulator/resources/videos/Scene - Puppet man_0003/Scene - Puppet man_0003.713.png</pathurl>
                      <rate>
                        <timebase>24</timebase>
                        <ntsc>FALSE</ntsc>
                      </rate>
                      <duration>720</duration>
                      <timecode>
                        <rate>
                          <timebase>24</timebase>
                          <ntsc>FALSE</ntsc>
                        </rate>
                      </timecode>
                      <media>
                        <video>
                          <duration>1</duration>
                          <samplecharacteristics>
                            <anamorphic>FALSE</anamorphic>
                            <pixelaspectratio>square</pixelaspectratio>
                            <fielddominance>none</fielddominance>
                            <width>1920</width>
                            <height>1080</height>
                          </samplecharacteristics>
                        </video>
                      </media>
                    </file>
                  </clipitem>
                </track>
              </video>
            </media>
          </clip>
          <clip explodedTracks="true" frameBlend="FALSE" id="masterclip-716">
            <uuid>fecbf1de-d454-4381-b0cd-8d6bf38087c9</uuid>
            <masterclipid>masterclip-716</masterclipid>
            <ismasterclip>TRUE</ismasterclip>
            <duration>720</duration>
            <in>0</in>
            <out>720</out>
            <name>Scene - Puppet man_0003.714.png</name>
            <rate>
              <timebase>24</timebase>
              <ntsc>FALSE</ntsc>
            </rate>
            <media>
              <video>
                <track>
                  <clipitem frameBlend="FALSE" id="clipitem-717">
                    <name>Scene - Puppet man_0003.714.png</name>
                    <masterclipid>masterclip-716</masterclipid>
                    <rate>
                      <timebase>24</timebase>
                      <ntsc>FALSE</ntsc>
                    </rate>
                    <alphatype>straight</alphatype>
                    <pixelaspectratio>square</pixelaspectratio>
                    <anamorphic>FALSE</anamorphic>
                    <file id="file-716">
                      <name>Scene - Puppet man_0003.714.png</name>
                      <pathurl>file://localhost/C:/Users/jmrey/OneDrive/Desktop/Programmin Stuff/Projects/conversation-simulator/resources/videos/Scene - Puppet man_0003/Scene - Puppet man_0003.714.png</pathurl>
                      <rate>
                        <timebase>24</timebase>
                        <ntsc>FALSE</ntsc>
                      </rate>
                      <duration>720</duration>
                      <timecode>
                        <rate>
                          <timebase>24</timebase>
                          <ntsc>FALSE</ntsc>
                        </rate>
                      </timecode>
                      <media>
                        <video>
                          <duration>1</duration>
                          <samplecharacteristics>
                            <anamorphic>FALSE</anamorphic>
                            <pixelaspectratio>square</pixelaspectratio>
                            <fielddominance>none</fielddominance>
                            <width>1920</width>
                            <height>1080</height>
                          </samplecharacteristics>
                        </video>
                      </media>
                    </file>
                  </clipitem>
                </track>
              </video>
            </media>
          </clip>
          <clip explodedTracks="true" frameBlend="FALSE" id="masterclip-717">
            <uuid>03204fce-2c88-4298-9d5d-395c6c1ee704</uuid>
            <masterclipid>masterclip-717</masterclipid>
            <ismasterclip>TRUE</ismasterclip>
            <duration>720</duration>
            <in>0</in>
            <out>720</out>
            <name>Scene - Puppet man_0003.715.png</name>
            <rate>
              <timebase>24</timebase>
              <ntsc>FALSE</ntsc>
            </rate>
            <media>
              <video>
                <track>
                  <clipitem frameBlend="FALSE" id="clipitem-718">
                    <name>Scene - Puppet man_0003.715.png</name>
                    <masterclipid>masterclip-717</masterclipid>
                    <rate>
                      <timebase>24</timebase>
                      <ntsc>FALSE</ntsc>
                    </rate>
                    <alphatype>straight</alphatype>
                    <pixelaspectratio>square</pixelaspectratio>
                    <anamorphic>FALSE</anamorphic>
                    <file id="file-717">
                      <name>Scene - Puppet man_0003.715.png</name>
                      <pathurl>file://localhost/C:/Users/jmrey/OneDrive/Desktop/Programmin Stuff/Projects/conversation-simulator/resources/videos/Scene - Puppet man_0003/Scene - Puppet man_0003.715.png</pathurl>
                      <rate>
                        <timebase>24</timebase>
                        <ntsc>FALSE</ntsc>
                      </rate>
                      <duration>720</duration>
                      <timecode>
                        <rate>
                          <timebase>24</timebase>
                          <ntsc>FALSE</ntsc>
                        </rate>
                      </timecode>
                      <media>
                        <video>
                          <duration>1</duration>
                          <samplecharacteristics>
                            <anamorphic>FALSE</anamorphic>
                            <pixelaspectratio>square</pixelaspectratio>
                            <fielddominance>none</fielddominance>
                            <width>1920</width>
                            <height>1080</height>
                          </samplecharacteristics>
                        </video>
                      </media>
                    </file>
                  </clipitem>
                </track>
              </video>
            </media>
          </clip>
          <clip explodedTracks="true" frameBlend="FALSE" id="masterclip-718">
            <uuid>6a601fc6-bb49-4020-9b30-68fd5f3d8b4c</uuid>
            <masterclipid>masterclip-718</masterclipid>
            <ismasterclip>TRUE</ismasterclip>
            <duration>720</duration>
            <in>0</in>
            <out>720</out>
            <name>Scene - Puppet man_0003.716.png</name>
            <rate>
              <timebase>24</timebase>
              <ntsc>FALSE</ntsc>
            </rate>
            <media>
              <video>
                <track>
                  <clipitem frameBlend="FALSE" id="clipitem-719">
                    <name>Scene - Puppet man_0003.716.png</name>
                    <masterclipid>masterclip-718</masterclipid>
                    <rate>
                      <timebase>24</timebase>
                      <ntsc>FALSE</ntsc>
                    </rate>
                    <alphatype>straight</alphatype>
                    <pixelaspectratio>square</pixelaspectratio>
                    <anamorphic>FALSE</anamorphic>
                    <file id="file-718">
                      <name>Scene - Puppet man_0003.716.png</name>
                      <pathurl>file://localhost/C:/Users/jmrey/OneDrive/Desktop/Programmin Stuff/Projects/conversation-simulator/resources/videos/Scene - Puppet man_0003/Scene - Puppet man_0003.716.png</pathurl>
                      <rate>
                        <timebase>24</timebase>
                        <ntsc>FALSE</ntsc>
                      </rate>
                      <duration>720</duration>
                      <timecode>
                        <rate>
                          <timebase>24</timebase>
                          <ntsc>FALSE</ntsc>
                        </rate>
                      </timecode>
                      <media>
                        <video>
                          <duration>1</duration>
                          <samplecharacteristics>
                            <anamorphic>FALSE</anamorphic>
                            <pixelaspectratio>square</pixelaspectratio>
                            <fielddominance>none</fielddominance>
                            <width>1920</width>
                            <height>1080</height>
                          </samplecharacteristics>
                        </video>
                      </media>
                    </file>
                  </clipitem>
                </track>
              </video>
            </media>
          </clip>
          <clip explodedTracks="true" frameBlend="FALSE" id="masterclip-719">
            <uuid>da02ed84-8f02-4f39-9610-082169499422</uuid>
            <masterclipid>masterclip-719</masterclipid>
            <ismasterclip>TRUE</ismasterclip>
            <duration>720</duration>
            <in>0</in>
            <out>720</out>
            <name>Scene - Puppet man_0003.717.png</name>
            <rate>
              <timebase>24</timebase>
              <ntsc>FALSE</ntsc>
            </rate>
            <media>
              <video>
                <track>
                  <clipitem frameBlend="FALSE" id="clipitem-720">
                    <name>Scene - Puppet man_0003.717.png</name>
                    <masterclipid>masterclip-719</masterclipid>
                    <rate>
                      <timebase>24</timebase>
                      <ntsc>FALSE</ntsc>
                    </rate>
                    <alphatype>straight</alphatype>
                    <pixelaspectratio>square</pixelaspectratio>
                    <anamorphic>FALSE</anamorphic>
                    <file id="file-719">
                      <name>Scene - Puppet man_0003.717.png</name>
                      <pathurl>file://localhost/C:/Users/jmrey/OneDrive/Desktop/Programmin Stuff/Projects/conversation-simulator/resources/videos/Scene - Puppet man_0003/Scene - Puppet man_0003.717.png</pathurl>
                      <rate>
                        <timebase>24</timebase>
                        <ntsc>FALSE</ntsc>
                      </rate>
                      <duration>720</duration>
                      <timecode>
                        <rate>
                          <timebase>24</timebase>
                          <ntsc>FALSE</ntsc>
                        </rate>
                      </timecode>
                      <media>
                        <video>
                          <duration>1</duration>
                          <samplecharacteristics>
                            <anamorphic>FALSE</anamorphic>
                            <pixelaspectratio>square</pixelaspectratio>
                            <fielddominance>none</fielddominance>
                            <width>1920</width>
                            <height>1080</height>
                          </samplecharacteristics>
                        </video>
                      </media>
                    </file>
                  </clipitem>
                </track>
              </video>
            </media>
          </clip>
          <clip explodedTracks="true" frameBlend="FALSE" id="masterclip-720">
            <uuid>75b40cfd-839e-4bae-933e-a89bf61e10d0</uuid>
            <masterclipid>masterclip-720</masterclipid>
            <ismasterclip>TRUE</ismasterclip>
            <duration>720</duration>
            <in>0</in>
            <out>720</out>
            <name>Scene - Puppet man_0003.718.png</name>
            <rate>
              <timebase>24</timebase>
              <ntsc>FALSE</ntsc>
            </rate>
            <media>
              <video>
                <track>
                  <clipitem frameBlend="FALSE" id="clipitem-721">
                    <name>Scene - Puppet man_0003.718.png</name>
                    <masterclipid>masterclip-720</masterclipid>
                    <rate>
                      <timebase>24</timebase>
                      <ntsc>FALSE</ntsc>
                    </rate>
                    <alphatype>straight</alphatype>
                    <pixelaspectratio>square</pixelaspectratio>
                    <anamorphic>FALSE</anamorphic>
                    <file id="file-720">
                      <name>Scene - Puppet man_0003.718.png</name>
                      <pathurl>file://localhost/C:/Users/jmrey/OneDrive/Desktop/Programmin Stuff/Projects/conversation-simulator/resources/videos/Scene - Puppet man_0003/Scene - Puppet man_0003.718.png</pathurl>
                      <rate>
                        <timebase>24</timebase>
                        <ntsc>FALSE</ntsc>
                      </rate>
                      <duration>720</duration>
                      <timecode>
                        <rate>
                          <timebase>24</timebase>
                          <ntsc>FALSE</ntsc>
                        </rate>
                      </timecode>
                      <media>
                        <video>
                          <duration>1</duration>
                          <samplecharacteristics>
                            <anamorphic>FALSE</anamorphic>
                            <pixelaspectratio>square</pixelaspectratio>
                            <fielddominance>none</fielddominance>
                            <width>1920</width>
                            <height>1080</height>
                          </samplecharacteristics>
                        </video>
                      </media>
                    </file>
                  </clipitem>
                </track>
              </video>
            </media>
          </clip>
          <clip explodedTracks="true" frameBlend="FALSE" id="masterclip-721">
            <uuid>578263a0-29d4-43cd-a214-818255fca1c5</uuid>
            <masterclipid>masterclip-721</masterclipid>
            <ismasterclip>TRUE</ismasterclip>
            <duration>720</duration>
            <in>0</in>
            <out>720</out>
            <name>Scene - Puppet man_0003.719.png</name>
            <rate>
              <timebase>24</timebase>
              <ntsc>FALSE</ntsc>
            </rate>
            <media>
              <video>
                <track>
                  <clipitem frameBlend="FALSE" id="clipitem-722">
                    <name>Scene - Puppet man_0003.719.png</name>
                    <masterclipid>masterclip-721</masterclipid>
                    <rate>
                      <timebase>24</timebase>
                      <ntsc>FALSE</ntsc>
                    </rate>
                    <alphatype>straight</alphatype>
                    <pixelaspectratio>square</pixelaspectratio>
                    <anamorphic>FALSE</anamorphic>
                    <file id="file-721">
                      <name>Scene - Puppet man_0003.719.png</name>
                      <pathurl>file://localhost/C:/Users/jmrey/OneDrive/Desktop/Programmin Stuff/Projects/conversation-simulator/resources/videos/Scene - Puppet man_0003/Scene - Puppet man_0003.719.png</pathurl>
                      <rate>
                        <timebase>24</timebase>
                        <ntsc>FALSE</ntsc>
                      </rate>
                      <duration>720</duration>
                      <timecode>
                        <rate>
                          <timebase>24</timebase>
                          <ntsc>FALSE</ntsc>
                        </rate>
                      </timecode>
                      <media>
                        <video>
                          <duration>1</duration>
                          <samplecharacteristics>
                            <anamorphic>FALSE</anamorphic>
                            <pixelaspectratio>square</pixelaspectratio>
                            <fielddominance>none</fielddominance>
                            <width>1920</width>
                            <height>1080</height>
                          </samplecharacteristics>
                        </video>
                      </media>
                    </file>
                  </clipitem>
                </track>
              </video>
            </media>
          </clip>
        </children>
      </bin>
    </children>
  </project>

</xmeml>
